<?xml version="1.0" encoding="UTF-8" standalone="no"?>
<svg width="85px" height="83px" viewBox="0 0 85 83" version="1.1" xmlns="http://www.w3.org/2000/svg" xmlns:xlink="http://www.w3.org/1999/xlink">
    <!-- Generator: Sketch 39.1 (31720) - http://www.bohemiancoding.com/sketch -->
    <title>iPhone 4 - Pesquisa Intro</title>
    <desc>Created with Sketch.</desc>
    <defs></defs>
    <g id="Mobile" stroke="none" stroke-width="1" fill="none" fill-rule="evenodd">
        <g id="iPhone-4---Pesquisa-Intro" transform="translate(-116.000000, -19.000000)">
            <g id="Group-Copy" transform="translate(119.000000, 23.000000)">
                <g id="Page-1">
                    <g id="Group-3" opacity="0.3" transform="translate(3.012492, 0.117510)" fill="#DBDCDE">
                        <path d="M37.5391317,3.74139322 C18.7803876,3.74139322 3.51944206,18.9528611 3.51944206,37.6500054 C3.51944206,56.3471497 18.7803876,71.5586177 37.5391317,71.5586177 C56.2975238,71.5586177 71.5584694,56.3471497 71.5584694,37.6500054 C71.5584694,18.9528611 56.2975238,3.74139322 37.5391317,3.74139322 M37.5391317,75.066393 C16.8398643,75.066393 0.000175963305,58.2813371 0.000175963305,37.6500054 C0.000175963305,17.0186738 16.8398643,0.23361784 37.5391317,0.23361784 C58.2376952,0.23361784 75.0777355,17.0186738 75.0777355,37.6500054 C75.0777355,58.2813371 58.2376952,75.066393 37.5391317,75.066393" id="Fill-1"></path>
                    </g>
                    <g id="Group-6" transform="translate(0.000000, 0.117510)" fill="#FEFEFE">
                        <path d="M6.78227516,41.7746554 C8.83037249,58.5338963 23.1935142,71.5586177 40.5516235,71.5586177 C59.3103675,71.5586177 74.5709611,56.3471497 74.5709611,37.6496547 C74.5709611,18.9525104 59.3103675,3.74104244 40.5516235,3.74104244 L40.5516235,0.233267062 C61.250539,0.233267062 78.0902272,17.018323 78.0902272,37.6496547 C78.0902272,58.2809863 61.250539,75.066393 40.5516235,75.066393 C21.4025648,75.066393 5.55663004,60.7010244 3.29056704,42.2148691 C1.39177131,41.6771615 0,39.9236251 0,37.8434066 C0,35.3353662 2.02310777,33.3021978 4.51873767,33.3021978 C7.01436758,33.3021978 9.03747535,35.3353662 9.03747535,37.8434066 C9.03747535,39.522565 8.13062987,40.9888649 6.78227546,41.7746559 Z" id="Combined-Shape"></path>
                    </g>
                </g>
                <text id="01" font-family="Avenir-Book, Avenir" font-size="36" font-weight="normal" fill="#FFFFFF">
                    <tspan x="22.0714425" y="50">01</tspan>
                </text>
            </g>
        </g>
    </g>
</svg>