<?xml version="1.0" encoding="utf-8"?>
<!-- Generator: Adobe Illustrator 16.0.0, SVG Export Plug-In . SVG Version: 6.00 Build 0)  -->
<svg version="1.2" baseProfile="tiny" id="Layer_1" xmlns="http://www.w3.org/2000/svg" xmlns:xlink="http://www.w3.org/1999/xlink"
	 x="0px" y="0px" width="128.305px" height="70.81px" viewBox="0 0 128.305 70.81" xml:space="preserve">
<g>
	<g>
		<g>
			<polygon fill="#FFFFFF" points="100.807,9.016 96.9,3.627 97.92,9.016 			"/>
			<polygon fill="#FFFFFF" points="94.259,27.732 99.349,31.083 99.092,26.5 			"/>
			<polygon fill="#FFFFFF" points="71.164,27.051 82.73,21.984 73.196,18.025 			"/>
			<polygon fill="#FFFFFF" points="80.32,15.029 87.794,4.686 76.633,6.011 			"/>
			<polygon fill="#FFFFFF" points="45.421,33.062 50.248,25.549 28.669,33.062 			"/>
			<polygon fill="#FFFFFF" points="38.518,18.39 18.866,27.051 48.642,24.017 			"/>
			<polygon fill="#FFFFFF" points="68.764,12.608 53.167,9.016 60.365,19.579 			"/>
			<polygon fill="#FFFFFF" points="63.254,35.203 70.844,27.857 57.328,33.062 			"/>
			<polygon fill="#FFFFFF" points="94.002,9.016 89.902,9.016 94.34,10.023 			"/>
			<polygon fill="#FFFFFF" points="70.238,12.961 76.633,6.011 76.211,1.879 			"/>
			<polygon fill="#FFFFFF" points="96.9,3.627 87.794,4.686 97.92,9.016 			"/>
			<polygon fill="#FFFFFF" points="99.101,24.645 101,19.51 96.757,22.587 			"/>
		</g>
		<g>
			<polygon fill="#FFFFFF" points="47.874,33.062 56.182,34.566 51.862,27.051 			"/>
			<polygon fill="#FFFFFF" points="79.426,31.562 84.043,22.587 68.757,33.062 			"/>
			<polygon fill="#FFFFFF" points="52.382,13.465 42.083,18.033 58.295,21.038 			"/>
			<polygon fill="#FFFFFF" points="99.101,24.645 93.1,25.062 99.092,26.5 			"/>
			<polygon fill="#FFFFFF" points="97.463,13.525 101.021,19.537 100.607,12.001 96.115,12.001 94.34,10.023 85.835,12.627 
				93.568,16.531 			"/>
			<polygon fill="#FFFFFF" points="91.461,0 87.794,4.686 96.9,3.627 			"/>
			<polygon fill="#FFFFFF" points="75.508,9.049 73.23,16.11 78.173,15.107 			"/>
			<polygon fill="#FFFFFF" points="69.924,25.695 71.85,13.969 59.255,23.007 			"/>
			<polygon fill="#FFFFFF" points="73.051,3.005 57.328,8.916 67.6,10.551 			"/>
			<polygon fill="#FFFFFF" points="91.459,0 76.211,1.879 87.794,4.686 			"/>
			<polygon fill="#FFFFFF" points="97.875,32.264 94.351,35.092 99.105,34.158 99.349,31.083 96.684,29.331 			"/>
			<polygon fill="#FFFFFF" points="56.714,30.701 68.764,27.051 50.769,22.587 			"/>
			<polygon fill="#FFFFFF" points="25.472,33.062 40.408,26.162 4.671,31.559 			"/>
		</g>
	</g>
	<g>
		<path fill="#FFFFFF" d="M43.806,42.247l-2.62,14.939c-0.094,0.478-0.254,0.667-1.014,0.852c-2.053,0.512-4.451,0.824-6.474,0.824
			c-4.294,0-6.317-2.559-6.317-6.129c0-0.565,0.064-1.166,0.161-1.799l0.411-2.43c0.915-5.467,3.884-7.928,8.969-7.928
			c2.021,0,4.324,0.314,6.191,0.818c0.569,0.158,0.725,0.314,0.725,0.602C43.838,42.058,43.838,42.155,43.806,42.247z
			 M36.323,43.987c-2.72,0-3.728,1.768-4.202,4.518l-0.411,2.43c-0.126,0.693-0.19,1.295-0.19,1.831
			c0,1.739,0.727,2.688,2.782,2.688c1.136,0,2.43-0.095,3.061-0.226l1.927-11.023C38.721,44.081,37.459,43.987,36.323,43.987z"/>
		<path fill="#FFFFFF" d="M79.706,47.333l-1.864,10.611c-0.062,0.349-0.379,0.665-0.724,0.665h-2.975
			c-0.316,0-0.47-0.253-0.47-0.538c0-0.033,0-0.093,0-0.127L75.6,47.021c0.064-0.412,0.127-0.793,0.127-1.172
			c0-1.01-0.413-1.799-1.961-1.799h-1.765c-1.837,0-2.278,0.789-2.656,2.971l-1.929,10.924c-0.061,0.349-0.377,0.665-0.723,0.665
			H63.72c-0.312,0-0.468-0.253-0.468-0.538c0-0.033,0-0.093,0-0.127l1.925-10.924c0.855-4.801,2.653-6.443,7.455-6.443h1.64
			c3.604,0,5.559,2.303,5.559,5.365C79.83,46.384,79.798,46.861,79.706,47.333z"/>
		<path fill="#FFFFFF" d="M97.936,48.853l-0.25,1.513c-0.095,0.507-0.314,0.789-0.756,0.789H86.633
			c-0.062,0.442-0.156,0.855-0.156,1.298c0,1.703,0.883,2.84,3.219,2.84c2.307,0,4.484-0.217,5.84-0.346c0.035,0,0.099,0,0.129,0
			c0.254,0,0.477,0.061,0.477,0.346c0,0.031,0,0.1,0,0.131l-0.381,2.08c-0.096,0.506-0.189,0.729-0.787,0.822
			c-2.119,0.381-3.509,0.537-6.352,0.537c-2.81,0-6.221-1.58-6.221-6.35c0-0.569,0.03-1.23,0.158-1.89l0.349-1.962
			c1.04-5.904,4.168-8.084,9.001-8.084c4.198,0,6.191,2.777,6.191,6.474C98.1,47.619,98.035,48.249,97.936,48.853z M91.275,44.174
			c-2.525,0-3.695,1.707-4.105,4.013h6.697c0.061-0.41,0.127-0.791,0.127-1.2C93.994,45.155,93.014,44.174,91.275,44.174z"/>
		<path fill="#FFFFFF" d="M111.971,41.427l-0.314,1.864c-0.064,0.347-0.413,0.631-0.76,0.631h-4.452l-1.799,10.203
			c-0.032,0.218-0.063,0.408-0.063,0.566c0,0.762,0.475,0.919,1.736,0.919h2.496c0.281,0,0.568,0.093,0.568,0.379
			c0,0.028,0,0.062,0,0.092l-0.347,1.957c-0.063,0.318-0.288,0.512-0.697,0.571c-0.786,0.126-2.399,0.253-3.726,0.253
			c-2.403,0-4.266-1.041-4.266-3.635c0-0.346,0.033-0.694,0.098-1.103l2.811-15.919c0.064-0.35,0.377-0.568,0.725-0.633l3.033-0.506
			c0.033,0,0.062,0,0.096,0c0.285,0,0.443,0.256,0.443,0.538c0,0.032,0,0.065,0,0.097l-0.569,3.096h4.452
			c0.314,0,0.535,0.252,0.535,0.536c0,0.032,0,0.032,0,0.062V41.427z"/>
		<path fill="#FFFFFF" d="M128.148,48.438l-0.475,2.56c-0.978,5.212-3.947,7.864-8.907,7.864c-4.296,0-6.313-3.033-6.313-6.35
			c0-0.503,0.028-1.01,0.125-1.515l0.473-2.56c1.012-5.495,3.979-7.861,8.938-7.861c4.326,0,6.315,2.902,6.315,6.219
			C128.305,47.333,128.24,47.901,128.148,48.438z M121.358,44.174c-1.927,0-3.569,1.138-4.136,4.265l-0.475,2.56
			c-0.092,0.505-0.127,0.981-0.127,1.39c0,1.864,0.914,2.875,2.779,2.875c2.213,0,3.568-1.328,4.105-4.265l0.475-2.56
			c0.092-0.505,0.126-0.979,0.126-1.388C124.106,45.187,123.219,44.174,121.358,44.174z"/>
		<path fill="#FFFFFF" d="M61.02,40.968c-1.624-0.201-3.845-0.391-5.864-0.391c-5.085,0-7.958,2.02-8.969,7.928l-0.411,2.43
			c-0.128,0.693-0.161,1.328-0.161,1.928c0,4.261,2.875,5.967,6.54,5.967c0.275,0,0.607-0.017,0.954-0.047
			c1.728-0.095,3.605-0.376,5.256-0.782c0.762-0.188,0.92-0.38,1.014-0.853c0,0,1.097-6.125,1.097-6.442
			c0-0.267-0.18-0.479-0.477-0.479H57.32c-0.33,0-0.629,0.27-0.687,0.601l-0.747,4.325c-0.132,0.02-0.355,0.057-0.378,0.057
			c-0.913,0.125-2.239,0.245-2.975,0.245c-2.115,0-2.81-0.855-2.81-2.532c0-0.564,0.092-1.229,0.22-1.986l0.411-2.43
			c0.502-3.033,1.612-4.518,4.202-4.518c0.926,0,4.72,0.258,6.095,0.355c0.314,0.02,0.524-0.145,0.618-0.48
			c0.088-0.338,0.456-2.103,0.479-2.266C61.804,41.224,61.507,41.026,61.02,40.968z"/>
		<path fill="#FFFFFF" d="M24.581,46.929l-1.927,11.028c-0.06,0.348-0.378,0.666-0.725,0.666h-2.971
			c-0.316,0-0.472-0.255-0.472-0.538c0-0.033,0-0.097,0-0.128l1.989-11.345c0.064-0.41,0.126-0.758,0.126-1.072
			c0-0.949-0.438-1.486-1.895-1.486h-0.759c-1.833,0-2.211,0.792-2.526,2.559L13.43,57.957c-0.064,0.348-0.378,0.666-0.727,0.666h-3
			c-0.316,0-0.475-0.255-0.475-0.538c0-0.033,0-0.097,0-0.128l1.989-11.345c0.066-0.377,0.128-0.758,0.128-1.072
			c0-0.855-0.381-1.486-1.773-1.486H8.819c-1.458,0-2.277,0.414-2.658,2.559L4.172,57.957c-0.064,0.348-0.38,0.666-0.727,0.666
			H0.475C0.161,58.623,0,58.368,0,58.085c0-0.033,0-0.097,0-0.128l1.993-11.345c0.789-4.518,3.443-6.033,7.459-6.033h0.752
			c1.803,0,3.097,0.441,3.92,1.234c1.106-0.854,2.78-1.234,4.455-1.234h0.759c3.7,0,5.402,1.709,5.402,4.676
			C24.741,45.793,24.677,46.332,24.581,46.929z"/>
	</g>
	<g>
		<path fill="#FFFFFF" d="M78.737,63.132h4.955l-0.176,1.016h-3.766l-0.361,2.1h3.489l-0.172,1.016h-3.506l-0.419,2.389h3.778
			l-0.173,1.014h-4.983L78.737,63.132z"/>
		<path fill="#FFFFFF" d="M86.688,63.132h1.202l-1.145,6.477h3.578l-0.174,1.057h-4.795L86.688,63.132z"/>
		<path fill="#FFFFFF" d="M94.146,63.132h4.953l-0.173,1.016h-3.767l-0.361,2.1h3.489l-0.172,1.016h-3.508l-0.419,2.389h3.78
			l-0.173,1.014h-4.982L94.146,63.132z"/>
		<path fill="#FFFFFF" d="M102.992,64.51l-1.086,6.155h-1.145l1.318-7.533h1.535l2.391,6.215l1.102-6.215h1.159l-1.319,7.533h-1.549
			L102.992,64.51z"/>
		<path fill="#FFFFFF" d="M110.35,69.086c0-0.173,0.027-0.376,0.058-0.55l0.595-3.375c0.303-1.68,1.217-2.173,3.229-2.173
			c0.638,0,1.377,0.087,2.058,0.274l-0.188,0.942c-0.652-0.116-1.42-0.202-1.969-0.202c-1.29,0-1.77,0.275-1.957,1.317l-0.564,3.201
			c-0.016,0.088-0.043,0.29-0.043,0.449c0,0.638,0.391,0.825,1.562,0.825c0.61,0,1.248-0.072,1.957-0.203l0.059,0.956
			c-0.711,0.161-1.479,0.261-2.203,0.261C111.117,70.81,110.35,70.216,110.35,69.086z"/>
		<path fill="#FFFFFF" d="M117.836,68.869c0-0.159,0.016-0.333,0.043-0.507l0.537-3.057c0.289-1.637,1.159-2.317,3.49-2.317
			c1.781,0,2.651,0.927,2.651,2.101c0,0.158-0.015,0.304-0.045,0.463l-0.507,2.896c-0.261,1.463-0.912,2.361-3.475,2.361
			C118.59,70.81,117.836,69.999,117.836,68.869z M123.326,65.466c0.027-0.131,0.043-0.262,0.043-0.377
			c0-0.725-0.492-1.086-1.651-1.086c-1.493,0-1.942,0.405-2.13,1.463l-0.507,2.896c-0.028,0.159-0.028,0.332-0.028,0.391
			c0,0.667,0.393,1.043,1.651,1.043c1.302,0,1.927-0.391,2.085-1.289L123.326,65.466z"/>
	</g>
</g>
</svg>
