<?xml version="1.0" encoding="UTF-8" standalone="no"?>
<svg width="12px" height="19px" viewBox="0 0 12 19" version="1.1" xmlns="http://www.w3.org/2000/svg" xmlns:xlink="http://www.w3.org/1999/xlink">
    <!-- Generator: Sketch 45.1 (43504) - http://www.bohemiancoding.com/sketch -->
    <title>Seta Direita Simples</title>
    <desc>Created with Sketch.</desc>
    <defs></defs>
    <g id="Novo-Cadastro" stroke="none" stroke-width="1" fill="none" fill-rule="evenodd" opacity="0.75">
        <g id="Sign-Up-1-de-4" transform="translate(-236.000000, -399.000000)" fill="#FFFFFF">
            <g id="Seta-Direita-Simples" transform="translate(224.000000, 391.000000)">
                <path d="M14.4204206,9.66666667 C14.2681984,9.66666667 14.0626428,9.74166667 13.9476428,9.95166667 C13.8387539,10.1511111 13.8654206,10.3827778 14.0126428,10.5305556 L19.2820873,15.7994444 C19.9931984,16.5105556 19.9837539,17.6772222 19.2604206,18.4005556 L13.8281984,23.8322222 C13.6665317,23.9938889 13.6220873,24.2383333 13.7215317,24.4266667 C13.8359762,24.6438889 14.0431984,24.6666667 14.1276428,24.6666667 C14.2659762,24.6666667 14.3987539,24.61 14.5015317,24.5072222 L21.5831984,17.4261111 C21.6915317,17.3172222 21.7526428,17.1761111 21.754865,17.0277778 C21.7570873,16.8894444 21.7059762,16.7616667 21.6120873,16.6672222 L14.7426428,9.79777778 C14.6343095,9.68944444 14.5076428,9.66666667 14.4204206,9.66666667 M14.1276428,26.3333333 C13.3343095,26.3333333 12.614865,25.9016667 12.2487539,25.2066667 C11.8043095,24.3627778 11.9659762,23.3377778 12.6493095,22.6544444 L18.0820873,17.2222222 C18.1543095,17.15 18.1637539,17.0383333 18.1037539,16.9777778 L12.8337539,11.7083333 C12.1687539,11.0427778 12.024865,9.99222222 12.4854206,9.15333333 C12.8759762,8.44111111 13.6170873,8 14.4204206,8 C14.9881984,8 15.5209762,8.22 15.9209762,8.61944444 L22.789865,15.4883333 C23.2054206,15.9044444 23.4304206,16.46 23.4209762,17.0527778 C23.4126428,17.6366667 23.1781984,18.1877778 22.7615317,18.6044444 L15.6804206,25.6855556 C15.2626428,26.1033333 14.7104206,26.3333333 14.1276428,26.3333333" id="Fill-3"></path>
            </g>
        </g>
    </g>
</svg>