<?xml version="1.0" encoding="UTF-8" standalone="no"?>
<svg width="145px" height="145px" viewBox="0 0 145 145" version="1.1" xmlns="http://www.w3.org/2000/svg" xmlns:xlink="http://www.w3.org/1999/xlink">
    <!-- Generator: Sketch 44.1 (41455) - http://www.bohemiancoding.com/sketch -->
    <title>Page 1</title>
    <desc>Created with Sketch.</desc>
    <defs></defs>
    <g id="Lading-Page" stroke="none" stroke-width="1" fill="none" fill-rule="evenodd">
        <g id="Desktop-HD-Copy-6" transform="translate(-885.000000, -2428.000000)" fill="#FEFEFE">
            <g id="Group" transform="translate(238.000000, 2427.000000)">
                <g id="Page-1" transform="translate(647.000000, 1.000000)">
                    <path d="M72.167,5 C35.131,5 5,35.131 5,72.167 C5,109.203 35.131,139.335 72.167,139.335 C109.202,139.335 139.333,109.203 139.333,72.167 C139.333,35.131 109.202,5 72.167,5 M72.167,144.335 C32.374,144.335 0,111.961 0,72.167 C0,32.374 32.374,0 72.167,0 C111.96,0 144.333,32.374 144.333,72.167 C144.333,111.961 111.96,144.335 72.167,144.335" id="Fill-1"></path>
                    <path d="M112.0908,82.1553 L41.9358,82.1553 L41.9358,78.3223 C41.9358,73.5693 45.8018,69.7033 50.5538,69.7033 L103.4718,69.7033 C108.2248,69.7033 112.0908,73.5693 112.0908,78.3223 L112.0908,82.1553 Z M112.0908,108.6623 C112.0908,113.4143 108.2248,117.2803 103.4718,117.2803 L50.5538,117.2803 C45.8018,117.2803 41.9358,113.4143 41.9358,108.6623 L41.9358,93.0713 L112.0908,93.0713 L112.0908,108.6623 Z M83.8638,40.9603 L87.2328,53.5523 L74.6398,56.9213 L71.2718,44.3283 L83.8638,40.9603 Z M103.4718,64.7033 L98.2108,64.7033 C98.5468,63.0683 98.5258,61.3353 98.0648,59.6123 L90.2258,30.3023 C88.6398,24.3713 82.5448,20.8473 76.6118,22.4333 L25.4928,36.1053 C19.5588,37.6923 16.0378,43.7863 17.6238,49.7183 L25.4618,79.0293 C26.8578,84.2483 31.7428,87.5973 36.9358,87.2493 L36.9358,108.6623 C36.9358,116.1713 43.0458,122.2803 50.5538,122.2803 L103.4718,122.2803 C110.9818,122.2803 117.0908,116.1713 117.0908,108.6623 L117.0908,78.3223 C117.0908,70.8123 110.9818,64.7033 103.4718,64.7033 L103.4718,64.7033 Z" id="Fill-3"></path>
                </g>
            </g>
        </g>
    </g>
</svg>