<?xml version="1.0" encoding="UTF-8" standalone="no"?>
<svg width="145px" height="145px" viewBox="0 0 145 145" version="1.1" xmlns="http://www.w3.org/2000/svg" xmlns:xlink="http://www.w3.org/1999/xlink">
    <!-- Generator: Sketch 44.1 (41455) - http://www.bohemiancoding.com/sketch -->
    <title>Page 1</title>
    <desc>Created with Sketch.</desc>
    <defs>
        <polygon id="path-1" points="0.4492 2.89322221 2.88441358 0.4016 0.4492 0.4016 0.4492 2.89322221"></polygon>
        <polygon id="path-3" points="0.834 0.4014 0.834 5.569 5.88460906 0.4014 0.834 0.4014"></polygon>
    </defs>
    <g id="Lading-Page" stroke="none" stroke-width="1" fill="none" fill-rule="evenodd">
        <g id="Desktop-HD-Copy-6" transform="translate(-562.000000, -2428.000000)">
            <g id="Group" transform="translate(238.000000, 2427.000000)">
                <g id="Page-1" transform="translate(324.000000, 0.000000)">
                    <g id="Group-17" transform="translate(0.000000, 0.335000)" fill="#FEFEFE">
                        <path d="M72.167,5.665 C35.131,5.665 5,35.796 5,72.832 C5,109.868 35.131,140 72.167,140 C109.203,140 139.334,109.868 139.334,72.832 C139.334,35.796 109.203,5.665 72.167,5.665 M72.167,145 C32.374,145 0,112.626 0,72.832 C0,33.039 32.374,0.665 72.167,0.665 C111.96,0.665 144.334,33.039 144.334,72.832 C144.334,112.626 111.96,145 72.167,145" id="Fill-1"></path>
                        <path d="M22.834,73.6309 L22.834,106.3829 C22.834,108.4749 24.53,110.1719 26.624,110.1719 L118.169,110.1719 C120.261,110.1719 121.958,108.4749 121.958,106.3829 L121.958,73.6309 L22.834,73.6309 Z" id="Fill-3"></path>
                        <polygon id="Fill-5" points="93.3027 58.4014 82.1147 58.4014 69.0627 71.7654 80.2497 71.7654"></polygon>
                        <polygon id="Fill-7" points="25.4492 71.7656 36.6372 71.7656 49.6912 58.4016 38.5022 58.4016"></polygon>
                        <polygon id="Fill-9" points="71.498 58.4014 60.308 58.4014 47.256 71.7654 58.444 71.7654"></polygon>
                        <polygon id="Fill-11" points="112.5303 71.7656 121.9583 71.7656 121.9583 62.1136"></polygon>
                        <polygon id="Fill-13" points="114.9648 58.4014 103.9208 58.4014 90.8668 71.7654 101.9118 71.7654"></polygon>
                        <polygon id="Fill-15" points="27.8848 58.4014 22.8338 58.4014 22.8338 63.5694"></polygon>
                    </g>
                    <g id="Group-39" transform="translate(22.000000, 58.335000)">
                        <g id="Group-20" transform="translate(0.000000, 15.000000)" fill="#FEFEFE">
                            <path d="M0.834,0.6309 L0.834,0.6309 L0.834,33.3829 C0.834,35.4749 2.53,37.1719 4.624,37.1719 L96.169,37.1719 C98.261,37.1719 99.958,35.4749 99.958,33.3829 L99.958,0.6309 L0.834,0.6309" id="Fill-18"></path>
                        </g>
                        <g id="Group-23" transform="translate(47.000000, 0.000000)" fill="#FEFEFE">
                            <polygon id="Fill-21" points="24.3027 0.4014 24.3027 0.4014 13.1147 0.4014 0.0627 13.7654 11.2497 13.7654"></polygon>
                        </g>
                        <g id="Group-26" transform="translate(3.000000, 0.000000)">
                            <mask id="mask-2" fill="white">
                                <use xlink:href="#path-1"></use>
                            </mask>
                            <g id="Clip-25"></g>
                            <polygon id="Fill-24" fill="#FEFEFE" mask="url(#mask-2)" points="0.4492 13.7656 0.4492 13.7656 11.6372 13.7656 24.6912 0.4016 13.5022 0.4016"></polygon>
                        </g>
                        <g id="Group-29" transform="translate(25.000000, 0.000000)" fill="#FEFEFE">
                            <polygon id="Fill-27" points="24.498 0.4014 24.498 0.4014 13.308 0.4014 0.256 13.7654 11.444 13.7654"></polygon>
                        </g>
                        <g id="Group-32" transform="translate(90.000000, 4.000000)" fill="#FEFEFE">
                            <polygon id="Fill-30" points="0.5303 9.7656 0.5303 9.7656 9.9583 9.7656 9.9583 0.1136"></polygon>
                        </g>
                        <g id="Group-35" transform="translate(68.000000, 0.000000)" fill="#FEFEFE">
                            <polygon id="Fill-33" points="24.9648 0.4014 24.9648 0.4014 13.9208 0.4014 0.8668 13.7654 11.9118 13.7654"></polygon>
                        </g>
                        <g id="Group-38">
                            <mask id="mask-4" fill="white">
                                <use xlink:href="#path-3"></use>
                            </mask>
                            <g id="Clip-37"></g>
                            <polygon id="Fill-36" fill="#FEFEFE" mask="url(#mask-4)" points="5.8848 0.4014 5.8848 0.4014 0.8338 0.4014 0.8338 5.5694"></polygon>
                        </g>
                    </g>
                    <g id="Group-52" transform="translate(22.000000, 35.335000)" fill="#FEFEFE">
                        <polygon id="Fill-40" points="55.6191 3.9131 44.4721 4.8871 59.9911 18.2261 71.1391 17.2501"></polygon>
                        <polygon id="Fill-42" points="38.2686 20.126 49.4146 19.15 33.8946 5.813 22.7476 6.788"></polygon>
                        <path d="M99.2461,10.958 L98.6341,3.952 C98.4531,1.868 96.6131,0.327 94.5301,0.508 L87.7741,1.099 L99.2461,10.958 Z" id="Fill-44"></path>
                        <polygon id="Fill-46" points="77.1973 2.0244 66.1953 2.9864 81.7143 16.3244 92.7183 15.3634"></polygon>
                        <polygon id="Fill-48" points="0.375 18.1445 0.834 23.4015 5.969 22.9515"></polygon>
                        <path d="M16.5459,22.0273 L27.6919,21.0503 L12.1719,7.7143 L3.3319,8.4873 C2.6639,8.5453 2.0539,8.7753 1.5349,9.1283 L16.5459,22.0273 Z" id="Fill-50"></path>
                    </g>
                </g>
            </g>
        </g>
    </g>
</svg>