<?xml version="1.0" encoding="UTF-8" standalone="no"?>
<svg width="26px" height="26px" viewBox="0 0 26 26" version="1.1" xmlns="http://www.w3.org/2000/svg" xmlns:xlink="http://www.w3.org/1999/xlink">
    <!-- Generator: Sketch 44.1 (41455) - http://www.bohemiancoding.com/sketch -->
    <title>Scroll Down</title>
    <desc>Created with Sketch.</desc>
    <defs></defs>
    <g id="Lading-Page" stroke="none" stroke-width="1" fill="none" fill-rule="evenodd">
        <g id="Desktop-HD-Copy-2" transform="translate(-627.000000, -739.000000)" fill="#FFFFFF">
            <g id="Scroll-Down" transform="translate(627.000000, 739.000000)">
                <g>
                    <path d="M13,1.23809524 C6.51444444,1.23809524 1.23809524,6.51444444 1.23809524,13 C1.23809524,19.4855556 6.51444444,24.7619048 13,24.7619048 C19.4855556,24.7619048 24.7619048,19.4855556 24.7619048,13 C24.7619048,6.51444444 19.4855556,1.23809524 13,1.23809524 M13,26 C5.83184127,26 0,20.1681587 0,13 C0,5.83184127 5.83184127,0 13,0 C20.1681587,0 26,5.83184127 26,13 C26,20.1681587 20.1681587,26 13,26" id="Fill-3"></path>
                    <g id="Group-4" transform="translate(7.000000, 6.000000)">
                        <path d="M3.66663418,16.769475 C3.14567599,16.769475 2.67323841,16.4860124 2.43282422,16.0296268 C2.14097089,15.4754703 2.24713254,14.8023835 2.69585704,14.353659 L6.26339921,10.7864817 C6.31082537,10.7390555 6.31702726,10.6657274 6.27762706,10.6259623 L2.81697617,7.16567626 C2.38029062,6.7286259 2.28580311,6.03875758 2.58823612,5.48788442 C2.84470224,5.02018946 3.33136767,4.73052502 3.85889257,4.73052502 C4.2317352,4.73052502 4.58159438,4.87499242 4.84426238,5.1372956 L9.35485563,9.64788885 C9.6277385,9.92113654 9.77548924,10.2859532 9.76928736,10.6752126 C9.76381511,11.0586349 9.60986248,11.420533 9.33624998,11.6941455 L4.68629676,16.3440987 C4.41195463,16.6184409 4.04932687,16.769475 3.66663418,16.769475" id="Fill-3" transform="translate(6.019475, 10.750000) rotate(90.000000) translate(-6.019475, -10.750000) "></path>
                        <path d="M3.66663418,9.76947498 C3.14567599,9.76947498 2.67323841,9.48601243 2.43282422,9.02962678 C2.14097089,8.47547027 2.24713254,7.80238352 2.69585704,7.35365902 L6.26339921,3.78648167 C6.31082537,3.7390555 6.31702726,3.66572735 6.27762706,3.62596233 L2.81697617,0.165676264 C2.38029062,-0.271374101 2.28580311,-0.961242415 2.58823612,-1.51211558 C2.84470224,-1.97981054 3.33136767,-2.26947498 3.85889257,-2.26947498 C4.2317352,-2.26947498 4.58159438,-2.12500758 4.84426238,-1.8627044 L9.35485563,2.64788885 C9.6277385,2.92113654 9.77548924,3.2859532 9.76928736,3.67521258 C9.76381511,4.0586349 9.60986248,4.42053303 9.33624998,4.69414553 L4.68629676,9.34409875 C4.41195463,9.61844088 4.04932687,9.76947498 3.66663418,9.76947498" id="Fill-3-Copy" transform="translate(6.019475, 3.750000) rotate(90.000000) translate(-6.019475, -3.750000) "></path>
                    </g>
                </g>
            </g>
        </g>
    </g>
</svg>