<?xml version="1.0" encoding="UTF-8" standalone="no"?>
<svg width="26px" height="27px" viewBox="0 0 26 27" version="1.1" xmlns="http://www.w3.org/2000/svg" xmlns:xlink="http://www.w3.org/1999/xlink">
    <!-- Generator: Sketch 44.1 (41455) - http://www.bohemiancoding.com/sketch -->
    <title>Busca</title>
    <desc>Created with Sketch.</desc>
    <defs>
        <polygon id="path-1" points="0.00408857143 0.0364716495 25.5535714 0.0364716495 25.5535714 26.4681727 0.00408857143 26.4681727"></polygon>
    </defs>
    <g id="Lading-Page" stroke="none" stroke-width="1" fill="none" fill-rule="evenodd">
        <g id="Desktop-HD-Copy-2" transform="translate(-403.000000, -512.000000)">
            <g id="Group-2" transform="translate(385.000000, 500.000000)">
                <g id="Group">
                    <g id="Busca" transform="translate(18.000000, 12.000000)">
                        <mask id="mask-2" fill="white">
                            <use xlink:href="#path-1"></use>
                        </mask>
                        <g id="Clip-2"></g>
                        <path d="M17.7471939,17.2670039 C19.430595,15.4402796 20.480949,12.9940155 20.480949,10.300509 C20.480949,4.64979381 15.8935037,0.0364716495 10.2405767,0.0364716495 C4.58737714,0.0364716495 0,4.64979381 0,10.300509 C0,15.9508827 4.58737714,20.5642732 10.2405767,20.5642732 C12.5420336,20.5642732 14.6578693,19.8058131 16.3724117,18.5209046 L23.9871034,26.1530412 C24.1725883,26.3387461 24.4042059,26.4315644 24.6357553,26.4315644 C24.8676454,26.4315644 25.1146633,26.3387461 25.2847479,26.1530412 C25.6398403,25.7968621 25.6398403,25.2086031 25.2847479,24.8372616 L17.7471939,17.2670039 Z M1.85341757,10.300509 C1.85341757,5.67161469 5.60686243,1.89413531 10.2405767,1.89413531 C14.8588907,1.89413531 18.6274633,5.65617912 18.6274633,10.300509 C18.6274633,14.9448389 14.874291,18.7066095 10.2405767,18.7066095 C5.60686243,18.7066095 1.85341757,14.9293351 1.85341757,10.300509 L1.85341757,10.300509 Z" id="Fill-1" fill="#FFFFFF" fill-rule="evenodd" mask="url(#mask-2)"></path>
                    </g>
                </g>
            </g>
        </g>
    </g>
</svg>