<?xml version="1.0" encoding="UTF-8" standalone="no"?>
<svg width="79px" height="60px" viewBox="0 0 79 60" version="1.1" xmlns="http://www.w3.org/2000/svg" xmlns:xlink="http://www.w3.org/1999/xlink">
    <!-- Generator: Sketch 44.1 (41455) - http://www.bohemiancoding.com/sketch -->
    <title>Jobs</title>
    <desc>Created with Sketch.</desc>
    <defs></defs>
    <g id="Lading-Page" stroke="none" stroke-width="1" fill="none" fill-rule="evenodd">
        <g id="Desktop-HD-Copy-6" transform="translate(-1002.000000, -1074.000000)" fill="#441160">
            <g id="Group-7" transform="translate(158.000000, 1068.000000)">
                <g id="Group-4" transform="translate(803.000000, 6.000000)">
                    <g id="Jobs" transform="translate(41.000000, 0.000000)">
                        <path d="M0.363335709,30.1352673 L0.363335709,56.0133143 C0.363335709,57.6666287 1.70360656,59.0068995 3.35692088,59.0068995 L75.6913471,59.0068995 C77.3446614,59.0068995 78.6849323,57.6666287 78.6849323,56.0133143 L78.6849323,30.1352673 L0.363335709,30.1352673 Z" id="Fill-1"></path>
                        <polygon id="Fill-4" points="56.0438917 18.1003706 47.2027655 18.1003706 36.8894369 28.6600285 45.7303493 28.6600285"></polygon>
                        <polygon id="Fill-6" points="2.42895225 28.6599644 11.2698646 28.6599644 21.5836208 18.1003065 12.7422808 18.1003065"></polygon>
                        <polygon id="Fill-8" points="38.8138632 18.1003706 29.9725232 18.1003706 19.6591946 28.6600285 28.5001069 28.6600285"></polygon>
                        <polygon id="Fill-10" points="71.2358874 28.6599644 78.6849964 28.6599644 78.6849964 21.0331646"></polygon>
                        <polygon id="Fill-13" points="73.160335 18.1003706 64.4331789 18.1003706 54.1196365 28.6600285 62.8465788 28.6600285"></polygon>
                        <polygon id="Fill-15" points="4.35339986 18.1003706 0.363378475 18.1003706 0.363378475 22.1853314"></polygon>
                        <polygon id="Fill-17" points="43.6500428 2.70164647 34.8429152 3.47228083 47.105923 14.0107698 55.9134783 13.2401354"></polygon>
                        <polygon id="Fill-19" points="29.941283 15.5125018 38.7486244 14.7418674 26.4854027 4.20337847 17.6782751 4.97401283"></polygon>
                        <path d="M78.1238917,8.2690948 L77.6393585,2.73288667 C77.4954526,1.08598717 76.0435638,-0.132401996 74.3964505,0.0117177477 L69.0586743,0.478503207 L78.1238917,8.2690948 Z" id="Fill-21"></path>
                        <polygon id="Fill-23" points="60.701119 1.20985745 52.0077477 1.97044191 64.2705417 12.5091447 72.9645545 11.7483464"></polygon>
                        <polygon id="Fill-25" points="0 13.9472202 0.363292944 18.100392 4.41938703 17.7454383"></polygon>
                        <path d="M12.7766215,17.0143193 L21.5839629,16.243685 L9.32116892,5.70498218 L2.33713471,6.31631504 C1.80919458,6.36228795 1.32637206,6.54404134 0.917106201,6.82223093 L12.7766215,17.0143193 Z" id="Fill-27"></path>
                    </g>
                </g>
            </g>
        </g>
    </g>
</svg>