<?xml version="1.0" encoding="UTF-8" standalone="no"?>
<svg width="90px" height="71px" viewBox="0 0 90 71" version="1.1" xmlns="http://www.w3.org/2000/svg" xmlns:xlink="http://www.w3.org/1999/xlink">
    <!-- Generator: Sketch 44.1 (41455) - http://www.bohemiancoding.com/sketch -->
    <title>Cachês</title>
    <desc>Created with Sketch.</desc>
    <defs>
        <polyline id="path-1" points="0 0.641905689 89.4793966 0.641905689 89.4793966 70.6329114 0 70.6329114"></polyline>
    </defs>
    <g id="Lading-Page" stroke="none" stroke-width="1" fill="none" fill-rule="evenodd">
        <g id="Desktop-HD-Copy-6" transform="translate(-596.000000, -1068.000000)">
            <g id="Group-7" transform="translate(158.000000, 1068.000000)">
                <g id="Group-6" transform="translate(307.000000, 0.000000)">
                    <g id="Cachês" transform="translate(131.000000, 0.000000)">
                        <mask id="mask-2" fill="white">
                            <use xlink:href="#path-1"></use>
                        </mask>
                        <g id="Clip-2"></g>
                        <path d="M52.7680862,9.5549253 C52.1830862,9.75207651 51.5499828,9.4346165 51.3529138,8.84937237 C51.1674828,8.29750424 50.4886034,7.65249381 49.1773966,7.65249381 C48.1330862,7.65249381 47.5155,8.34097065 47.4448966,9.02479037 C47.3517931,9.8785948 48.0896379,10.5499955 49.4070517,10.8294225 C52.4243793,11.4589092 53.303431,13.4979494 53.1451552,15.0510972 C52.9814483,16.6143355 51.8285172,17.8500234 50.2977414,18.2714923 L50.2977414,19.2013629 C50.2977414,19.823864 49.8004138,20.3229515 49.1773966,20.3229515 C48.5598103,20.3229515 48.0624828,19.823864 48.0624828,19.2013629 L48.0624828,18.3149587 C46.2694655,17.9540323 45.2367931,16.762587 44.8868793,15.7124076 C44.6905862,15.1217301 45.0071379,14.4875863 45.5913621,14.2904351 C46.1763621,14.0987172 46.8102414,14.4115201 47.0073103,15.0021975 C47.1927414,15.5532895 47.8708448,16.1928666 49.1773966,16.1928666 C50.2271379,16.1928666 50.8447241,15.5043898 50.9153276,14.8213462 C51.003,13.968318 50.2705862,13.2953649 48.9477414,13.0167141 C45.935069,12.3880036 45.0560172,10.3481872 45.2142931,8.79503937 C45.3795517,7.2310249 46.5317069,5.99533704 48.0624828,5.57464432 L48.0624828,4.64477368 C48.0624828,4.02692975 48.5598103,3.52396133 49.1773966,3.52396133 C49.8004138,3.52396133 50.2977414,4.02692975 50.2977414,4.64477368 L50.2977414,5.53040172 C52.0907586,5.89753763 53.123431,7.08432578 53.4733448,8.13838615 C53.6704138,8.72363027 53.3530862,9.35932647 52.7680862,9.5549253 M49.1773966,0.641983308 C42.9961034,0.641983308 37.9840345,5.65614383 37.9840345,11.8407926 C37.9840345,18.0254414 42.9961034,23.0396019 49.1773966,23.0396019 C55.3648966,23.0396019 60.3715345,18.0254414 60.3715345,11.8407926 C60.3715345,5.65614383 55.3648966,0.641983308 49.1773966,0.641983308 M76.9873966,22.2905826 C76.6483448,21.607539 76.6537759,21.114661 76.8345517,20.9827094 C76.9105862,20.9283764 77.0199828,20.8965528 77.1565345,20.8965528 C77.435069,20.8965528 77.8292069,21.0378186 78.2171379,21.4266877 C79.2335172,22.4489245 79.8402414,23.59147 79.9108448,24.6028402 C78.5996379,24.1666237 77.5064483,23.3236859 76.9873966,22.2905826 M21.7553276,30.3171203 C20.2082586,30.3171203 18.9567931,29.0651326 18.9567931,27.517418 C18.9567931,25.9704796 20.2082586,24.7177157 21.7553276,24.7177157 C23.3016207,24.7177157 24.5538621,25.9704796 24.5538621,27.517418 C24.5538621,29.0651326 23.3016207,30.3171203 21.7553276,30.3171203 M88.7277414,22.2020974 C87.9565345,21.6882623 86.918431,21.8970563 86.3993793,22.6670327 C85.5249828,23.9857724 84.3161897,24.5539405 83.2780862,24.7836915 C83.2726552,22.8261508 82.3276552,20.7871106 80.5889483,19.0531114 C78.9332586,17.3967308 76.5335172,17.0621947 74.8716207,18.2606257 C73.6364483,19.1524632 72.6580862,21.1363942 73.9863621,23.787845 C74.8118793,25.445778 76.3310172,26.7621892 78.1899828,27.5399274 C77.8392931,27.7921878 77.4296379,28.0250435 76.9757586,28.2563469 C75.9702414,28.7593153 74.937569,29.0596993 73.9429138,29.2351173 C71.5214483,24.297023 67.1541207,20.0761244 61.5461897,17.0901374 C59.4963621,21.9024896 54.7248103,25.2812266 49.1773966,25.2812266 C42.0611897,25.2812266 36.2344655,19.7035552 35.7914483,12.6883875 C35.0923966,12.7590204 34.4088621,12.8304295 33.7361897,12.9181385 C29.532569,10.1945024 21.7273966,6.84370817 13.9167931,7.36297649 C14.2783448,10.610538 16.2730862,14.7833131 18.8373103,17.7894809 C13.8624828,20.8631768 10.6605,25.0623422 9.04205172,29.9181608 C7.1505,30.7494558 5.10610345,31.2803669 2.82274138,31.4324994 C1.15463793,31.5473749 -0.107689655,32.9809901 0.00713793103,34.6482373 C0.319810345,38.9560687 1.593,46.2941296 6.64308621,48.2353704 C7.58886207,48.6032825 9.09713793,48.8159574 10.8948103,48.9300568 C13.0315345,52.4298787 16.1753276,55.5090079 20.0554138,57.94856 C19.4052414,61.1899121 18.6014483,64.4654163 17.6122241,67.7680871 C17.1855,69.196269 18.2693793,70.632989 19.7605862,70.632989 L29.1617069,70.632989 C30.0958448,70.632989 30.9430862,70.064821 31.2666207,69.1900595 C32.0036897,67.1875001 32.6321379,65.1430266 33.1612759,63.0597438 C35.9551552,63.6178214 38.8848103,63.912772 41.9013621,63.912772 C45.4167931,63.912772 48.8057586,63.5138125 51.9976552,62.7702265 C51.582569,64.426607 51.1341207,66.0946304 50.6367931,67.7680871 C50.2046379,69.196269 51.2869655,70.632989 52.7797241,70.632989 L62.1862759,70.632989 C63.1149828,70.632989 63.9622241,70.064821 64.2904138,69.1900595 C65.9623966,64.6625675 67.0726552,59.9053245 67.7554138,54.9726635 C72.9148966,50.4614714 76.0470517,44.5896255 76.0470517,38.1581497 C76.0470517,36.1843091 75.7405862,34.2655777 75.1835172,32.4174792 C76.265069,32.1760854 77.3753276,31.8105019 78.4739483,31.2625147 C80.2941207,30.3504963 81.4416207,29.3065264 82.1523103,28.2881705 C85.0486034,28.2284042 87.6454138,26.8607648 89.1971379,24.5314311 C89.7107586,23.7614547 89.5036034,22.7174848 88.7277414,22.2020974" id="Fill-1" fill="#441160" mask="url(#mask-2)"></path>
                    </g>
                </g>
            </g>
        </g>
    </g>
</svg>