<?xml version="1.0" encoding="UTF-8" standalone="no"?>
<svg width="80px" height="66px" viewBox="0 0 80 66" version="1.1" xmlns="http://www.w3.org/2000/svg" xmlns:xlink="http://www.w3.org/1999/xlink">
    <!-- Generator: Sketch 44.1 (41455) - http://www.bohemiancoding.com/sketch -->
    <title>Perfis</title>
    <desc>Created with Sketch.</desc>
    <defs></defs>
    <g id="Lading-Page" stroke="none" stroke-width="1" fill="none" fill-rule="evenodd">
        <g id="Desktop-HD-Copy-6" transform="translate(-199.000000, -1071.000000)" fill="#441160">
            <g id="Group-7" transform="translate(158.000000, 1068.000000)">
                <g id="Group-5" transform="translate(0.000000, 3.000000)">
                    <g id="Perfis" transform="translate(41.000000, 0.000000)">
                        <path d="M51.624734,42.6632451 C43.7363439,42.6632451 39.173381,29.9023443 39.173381,29.9023443 C39.173381,29.9023443 40.9520521,25.1074662 42.266893,22.7873322 C43.5817339,20.4671982 48.453917,17.5286239 48.453917,17.5286239 C50.1552831,20.2352831 51.7020391,21.1632712 54.0221731,22.478112 C56.3423071,23.7929529 61.3694279,23.5610378 62.7615738,24.1794781 C64.1537197,24.798246 65.468233,26.7315273 65.468233,26.7315273 C64.3853073,31.6037104 59.5131241,42.6632451 51.624734,42.6632451 M58.0259847,45.7331725 C56.8988379,47.922281 54.9665394,50.3197201 53.9199732,52.1756963 C52.8730795,54.0316724 51.6656795,58.2854152 51.6656795,58.2854152 C51.6656795,58.2854152 50.4576244,54.0316724 49.4110583,52.1756963 C48.3641645,50.3197201 46.4321936,47.922281 45.3050467,45.7331725 C44.1775723,43.544064 45.3050467,42.6632451 45.3050467,42.6632451 C45.3050467,42.6632451 48.4447452,45.2152942 51.6656795,45.2152942 C54.8859587,45.2152942 58.0259847,42.6632451 58.0259847,42.6632451 C58.0259847,42.6632451 59.1534591,43.544064 58.0259847,45.7331725 M79.2727519,57.6669749 C78.8767273,54.9603157 77.107228,52.1756963 75.4831669,50.5516352 C73.8591059,48.9275742 69.0642278,46.9166603 69.0642278,46.9166603 C72.0028022,47.2262081 73.7044958,45.9113672 73.7044958,45.9113672 C69.2188379,41.5803194 66.4345461,31.681343 66.3575686,30.2891971 C66.2802635,28.8970512 66.9760089,24.8755511 66.9760089,21.3951863 C66.9760089,17.9148215 61.0212276,9.35721869 52.0499118,9.35721869 C43.0785959,9.35721869 37.1234871,17.9148215 37.1234871,21.3951863 C37.1234871,24.8755511 37.81956,28.8970512 37.742255,30.2891971 C37.6649499,31.681343 34.8809857,41.5803194 30.3953277,45.9113672 C30.3953277,45.9113672 32.0966938,47.2262081 35.0355958,46.9166603 C35.0355958,46.9166603 30.2403901,48.9275742 28.6163291,50.5516352 C26.992268,52.1756963 25.2227687,54.9603157 24.8267441,57.6669749 C24.4307195,60.3733065 24.1306711,63.4668185 25.2135969,64.3175016 C26.2965226,65.1685122 26.6057428,65.1301872 27.5337309,65.1301872 L52.0499118,65.1301872 L76.5660927,65.1301872 C77.4940808,65.1301872 77.8033009,65.1685122 78.8862267,64.3175016 C79.9688249,63.4668185 79.6687765,60.3733065 79.2727519,57.6669749" id="Fill-1"></path>
                        <path d="M51.624734,42.6632451 C43.7363439,42.6632451 39.173381,29.9023443 39.173381,29.9023443 C39.173381,29.9023443 40.9520521,25.1074662 42.266893,22.7873322 C43.5817339,20.4671982 48.453917,17.5286239 48.453917,17.5286239 C50.1552831,20.2352831 51.7020391,21.1632712 54.0221731,22.478112 C56.3423071,23.7929529 61.3694279,23.5610378 62.7615738,24.1794781 C64.1537197,24.798246 65.468233,26.7315273 65.468233,26.7315273 C64.3853073,31.6037104 59.5131241,42.6632451 51.624734,42.6632451 M58.0259847,45.7331725 C56.8988379,47.922281 54.9665394,50.3197201 53.9199732,52.1756963 C52.8730795,54.0316724 51.6656795,58.2854152 51.6656795,58.2854152 C51.6656795,58.2854152 50.4576244,54.0316724 49.4110583,52.1756963 C48.3641645,50.3197201 46.4321936,47.922281 45.3050467,45.7331725 C44.1775723,43.544064 45.3050467,42.6632451 45.3050467,42.6632451 C45.3050467,42.6632451 48.4447452,45.2152942 51.6656795,45.2152942 C54.8859587,45.2152942 58.0259847,42.6632451 58.0259847,42.6632451 C58.0259847,42.6632451 59.1534591,43.544064 58.0259847,45.7331725 M79.2727519,57.6669749 C78.8767273,54.9603157 77.107228,52.1756963 75.4831669,50.5516352 C73.8591059,48.9275742 69.0642278,46.9166603 69.0642278,46.9166603 C72.0028022,47.2262081 73.7044958,45.9113672 73.7044958,45.9113672 C69.2188379,41.5803194 66.4345461,31.681343 66.3575686,30.2891971 C66.2802635,28.8970512 66.9760089,24.8755511 66.9760089,21.3951863 C66.9760089,17.9148215 61.0212276,9.35721869 52.0499118,9.35721869 C43.0785959,9.35721869 37.1234871,17.9148215 37.1234871,21.3951863 C37.1234871,24.8755511 37.81956,28.8970512 37.742255,30.2891971 C37.6649499,31.681343 34.8809857,41.5803194 30.3953277,45.9113672 C30.3953277,45.9113672 32.0966938,47.2262081 35.0355958,46.9166603 C35.0355958,46.9166603 30.2403901,48.9275742 28.6163291,50.5516352 C26.992268,52.1756963 25.2227687,54.9603157 24.8267441,57.6669749 C24.4307195,60.3733065 24.1306711,63.4668185 25.2135969,64.3175016 C26.2965226,65.1685122 26.6057428,65.1301872 27.5337309,65.1301872 L52.0499118,65.1301872 L76.5660927,65.1301872 C77.4940808,65.1301872 77.8033009,65.1685122 78.8862267,64.3175016 C79.9688249,63.4668185 79.6687765,60.3733065 79.2727519,57.6669749" id="Fill-3"></path>
                        <path d="M32.9665394,35.0486655 C33.7730013,32.9178634 34.2984135,31.0566462 34.4471275,30.2252894 C32.1381307,32.8228699 29.9617971,34.1419691 28.1556106,34.1419691 C25.5616334,34.1419691 21.137885,32.4333966 17.7194297,26.3004206 C14.3013021,20.1674446 14.7032228,16.5481928 14.7032228,16.5481928 C14.7032228,16.5481928 16.0131502,11.7225237 18.6257986,11.521072 C18.6257986,11.521072 17.1160573,16.2465066 18.2219125,17.3526894 C18.2219125,17.3526894 20.7356367,12.4258031 23.8524057,10.9176996 C23.8524057,10.9176996 21.3390091,15.0397618 22.4448643,19.4638377 C22.4448643,19.4638377 27.0061895,11.7009045 29.9542632,10.4450251 C29.9542632,10.4450251 32.0287244,10.6631826 33.3936825,11.2639345 C34.7235913,11.8492909 36.2608479,12.6898195 37.7529008,12.9849544 C38.9173899,11.6393225 40.3173974,10.3693579 41.9129604,9.29200074 C39.1031186,0.0605992928 28.1556106,0.018016006 28.1556106,0.018016006 C28.1556106,0.018016006 13.4122941,-1.07408152 13.4122941,13.8844444 C13.4122941,28.8429704 22.4750002,36.759531 28.1556106,36.759531 C29.6237513,36.759531 31.294654,36.1643477 32.9665394,35.0486655" id="Fill-5"></path>
                        <g id="Group-9" transform="translate(0.000000, 34.011926)">
                            <path d="M26.3000931,14.2231126 C26.5392146,13.9843186 26.8163335,13.7451971 27.1206402,13.5083685 L25.3940517,12.1745289 L28.1203648,9.54255425 C28.9150344,8.77539996 29.66319,7.74848762 30.3484534,6.60234208 C29.6907054,6.76907203 28.9638414,6.86635846 28.1557417,6.86635846 C21.3388126,6.86635846 20.1323953,0.130337614 20.1323953,0.130337614 C20.1323953,0.130337614 10.8829779,3.24710664 7.86677089,5.0572239 C4.85056393,6.86635846 1.43210869,10.787624 0.728501768,14.0049551 C0.0245672808,17.2216311 -0.478243067,20.5434551 0.728501768,21.3436933 C1.93491904,22.1449142 3.34213289,22.1449142 4.95079844,22.1449142 L21.78823,22.1449142 C22.5517811,18.8895857 24.5561437,15.9673895 26.3000931,14.2231126" id="Fill-7"></path>
                        </g>
                    </g>
                </g>
            </g>
        </g>
    </g>
</svg>