<?xml version="1.0" encoding="UTF-8" standalone="no"?>
<svg width="30px" height="23px" viewBox="0 0 30 23" version="1.1" xmlns="http://www.w3.org/2000/svg" xmlns:xlink="http://www.w3.org/1999/xlink">
    <!-- Generator: Sketch 44.1 (41455) - http://www.bohemiancoding.com/sketch -->
    <title>Page 1</title>
    <desc>Created with Sketch.</desc>
    <defs>
        <polygon id="path-1" points="29.9170924 11.0869239 29.9170924 0.0796141304 0.057 0.0796141304 0.057 11.0869239"></polygon>
        <polygon id="path-3" points="2.851875 2.94106793 2.851875 0.0333505435 0.0119429348 0.0333505435 0.0119429348 2.94106793 2.851875 2.94106793"></polygon>
    </defs>
    <g id="Lading-Page" stroke="none" stroke-width="1" fill="none" fill-rule="evenodd">
        <g id="Desktop-HD-Copy-2" transform="translate(-664.000000, -514.000000)">
            <g id="Group-2" transform="translate(385.000000, 500.000000)">
                <g id="Page-1" transform="translate(279.000000, 14.000000)">
                    <g id="Group-3" transform="translate(0.081522, 11.409457)">
                        <mask id="mask-2" fill="white">
                            <use xlink:href="#path-1"></use>
                        </mask>
                        <g id="Clip-2"></g>
                        <path d="M0.057,0.0796141304 L0.057,9.94561957 C0.057,10.5759457 0.567978261,11.0869239 1.19830435,11.0869239 L28.7758043,11.0869239 C29.4061304,11.0869239 29.9171087,10.5759457 29.9171087,9.94561957 L29.9171087,0.0796141304 L0.057,0.0796141304 Z" id="Fill-1" fill="#FEFEFE" mask="url(#mask-2)"></path>
                    </g>
                    <polygon id="Fill-4" fill="#FEFEFE" points="21.3667337 6.9007663 17.9960543 6.9007663 14.0640978 10.9266359 17.4346957 10.9266359"></polygon>
                    <polygon id="Fill-6" fill="#FEFEFE" points="0.926038043 10.9266114 4.29663587 10.9266114 8.22875543 6.90074185 4.85799457 6.90074185"></polygon>
                    <polygon id="Fill-8" fill="#FEFEFE" points="14.7977853 6.9007663 11.4270245 6.9007663 7.49506793 10.9266359 10.8656658 10.9266359"></polygon>
                    <g id="Group-12" transform="translate(27.146739, 7.985543)">
                        <mask id="mask-4" fill="white">
                            <use xlink:href="#path-3"></use>
                        </mask>
                        <g id="Clip-11"></g>
                        <polygon id="Fill-10" fill="#FEFEFE" mask="url(#mask-4)" points="0.0119429348 2.94106793 2.85191576 2.94106793 2.85191576 0.0333505435"></polygon>
                    </g>
                    <polygon id="Fill-13" fill="#FEFEFE" points="27.8923777 6.9007663 24.5651495 6.9007663 20.6331114 10.9266359 23.9602582 10.9266359"></polygon>
                    <polygon id="Fill-15" fill="#FEFEFE" points="1.6597337 6.9007663 0.138538043 6.9007663 0.138538043 8.45815761"></polygon>
                    <polygon id="Fill-17" fill="#FEFEFE" points="16.6415788 1.03000272 13.2838614 1.32380707 17.9591332 5.34160598 21.3170136 5.04780163"></polygon>
                    <polygon id="Fill-19" fill="#FEFEFE" points="11.4151141 5.9141413 14.772913 5.62033696 10.0975598 1.60253804 6.73984239 1.89634239"></polygon>
                    <path d="M29.7847337,3.15259239 L29.6000054,1.04191304 C29.5451413,0.414032609 28.9916087,-0.0504782609 28.3636467,0.0044673913 L26.3286196,0.182429348 L29.7847337,3.15259239 Z" id="Fill-21" fill="#FEFEFE"></path>
                    <polygon id="Fill-23" fill="#FEFEFE" points="23.1423016 0.461258152 19.8279538 0.751230978 24.503144 4.76911141 27.8177364 4.47905707"></polygon>
                    <polygon id="Fill-25" fill="#FEFEFE" points="0 5.31737772 0.138505435 6.90077446 1.6848913 6.76544837"></polygon>
                    <path d="M4.87108696,6.48670924 L8.22888587,6.19290489 L3.55369565,2.17502446 L0.891032609,2.40809511 C0.689755435,2.42562228 0.505679348,2.49491576 0.349646739,2.60097554 L4.87108696,6.48670924 Z" id="Fill-27" fill="#FEFEFE"></path>
                </g>
            </g>
        </g>
    </g>
</svg>