<?xml version="1.0" encoding="UTF-8" standalone="no"?>
<svg width="198px" height="35px" viewBox="0 0 198 35" version="1.1" xmlns="http://www.w3.org/2000/svg" xmlns:xlink="http://www.w3.org/1999/xlink">
    <!-- Generator: Sketch 44.1 (41455) - http://www.bohemiancoding.com/sketch -->
    <title>MAGNETO MARCA</title>
    <desc>Created with Sketch.</desc>
    <defs>
        <polygon id="path-1" points="1.01113299 8.86111111 7.77589481 8.86111111 7.77589481 0.948360417 1.01113299 0.948360417 1.01113299 8.86111111"></polygon>
    </defs>
    <g id="Lading-Page" stroke="none" stroke-width="1" fill="none" fill-rule="evenodd">
        <g id="Desktop-HD-Copy-6" transform="translate(-30.000000, -139.000000)">
            <g id="MAGNETO-MARCA" transform="translate(30.000000, 138.000000)">
                <polygon id="Fill-1" fill="#FFFFFF" points="61.5661645 7.39980312 59.0570649 3.92070937 59.7127145 7.39980312"></polygon>
                <polygon id="Fill-2" fill="#FFFFFF" points="42.5298449 19.042417 49.9546641 15.7704517 43.8345326 13.2162365"></polygon>
                <polygon id="Fill-3" fill="#FFFFFF" points="37.4613975 24.4188962 42.3209185 19.5618997 33.6409985 22.9246913"></polygon>
                <polygon id="Fill-4" fill="#FFFFFF" points="57.3758469 19.5692101 60.6298527 21.646033 60.4810919 18.7728177"></polygon>
                <polygon id="Fill-5" fill="#FFFFFF" points="48.4075513 11.280859 53.2086699 4.60290417 46.0406009 5.46021667"></polygon>
                <polygon id="Fill-6" fill="#FFFFFF" points="25.9943604 22.9245806 29.0940957 18.0720146 15.2350943 22.9245806"></polygon>
                <polygon id="Fill-7" fill="#FFFFFF" points="21.5608463 13.4507236 8.9382129 19.0420847 28.0644502 17.0837792"></polygon>
                <polygon id="Fill-8" fill="#FFFFFF" points="40.986699 9.71775903 30.9701352 7.39947083 35.5916389 14.2192035"></polygon>
                <polygon id="Fill-9" fill="#FFFFFF" points="54.5625038 7.40024618 57.4143043 7.9483232 57.1950198 7.40024618"></polygon>
                <polygon id="Fill-10" fill="#FFFFFF" points="41.9336995 9.9460434 46.0406009 5.4601059 45.7706275 2.79180382"></polygon>
                <polygon id="Fill-11" fill="#FFFFFF" points="59.0567343 3.92104167 53.2087801 4.60334722 59.7134859 7.40013542"></polygon>
                <polygon id="Fill-12" fill="#FFFFFF" points="60.4814224 17.4886212 61.8764686 13.7780309 58.9640618 16.1616698"></polygon>
                <polygon id="Fill-13" fill="#FFFFFF" points="47.8350975 21.957058 50.7981932 16.1618913 40.9821811 22.9251344"></polygon>
                <polygon id="Fill-14" fill="#FFFFFF" points="27.5697928 22.9245806 32.9053486 23.8937646 30.1306833 19.0423063"></polygon>
                <polygon id="Fill-15" fill="#FFFFFF" points="30.4645687 10.2715785 23.8485678 13.2212208 34.2629291 15.1629118"></polygon>
                <polygon id="Fill-16" fill="#FFFFFF" points="60.4814224 17.4886212 56.6246597 17.7577774 60.4814224 18.7723747"></polygon>
                <polygon id="Fill-17" fill="#FFFFFF" points="59.4203719 10.3111212 61.8909039 13.7946455 61.4391117 9.34082951 58.5531513 9.34082951 57.4148553 8.04932257 51.9525774 9.7307184 56.9178839 12.2505969"></polygon>
                <polygon id="Fill-18" fill="#FFFFFF" points="53.2087801 4.60301493 59.0567343 3.92070937 55.6385406 1.61792812"></polygon>
                <polygon id="Fill-19" fill="#FFFFFF" points="45.316962 7.42084826 43.8557999 11.9798899 47.0282627 11.3319212"></polygon>
                <polygon id="Fill-20" fill="#FFFFFF" points="41.7313848 18.168933 42.9666508 10.5982212 34.8784684 16.4321552"></polygon>
                <polygon id="Fill-21" fill="#FFFFFF" points="43.7394358 3.5197441 33.6413291 7.33445243 40.2374953 8.39113993"></polygon>
                <polygon id="Fill-22" fill="#FFFFFF" points="45.7707377 2.79169306 53.2087801 4.60268264 55.6385406 1.61759583"></polygon>
                <polygon id="Fill-23" fill="#FFFFFF" points="59.6829624 22.4091962 57.4184917 24.4106997 60.4730478 23.6320295 60.6295221 21.646033 58.9237311 20.5550087"></polygon>
                <polygon id="Fill-24" fill="#FFFFFF" points="33.249482 21.3993618 40.986148 19.0423063 29.4290831 16.1613375"></polygon>
                <polygon id="Fill-25" fill="#FFFFFF" points="0 21.9536243 13.3587241 22.9250236 22.951044 18.4701"></polygon>
                <g id="Group-54" transform="translate(68.319797, 0.877250)">
                    <path d="M36.9255279,7.23155278 C34.1905321,7.23155278 33.1745506,9.01928194 32.696312,11.7994556 L32.2852913,14.2584139 C32.1563653,14.9617646 32.0935551,15.5676431 32.0935551,16.1114938 C32.0935551,17.8704243 32.8252381,18.8296396 34.8935649,18.8296396 C36.0340647,18.8296396 37.3365486,18.7321674 37.9712615,18.6036813 L39.9106622,7.45086528 C39.3376575,7.32570208 38.0682316,7.23155278 36.9255279,7.23155278 M44.4561326,5.47151458 L41.8192088,20.5852472 C41.7244426,21.0659625 41.5657644,21.257584 40.7999215,21.4458826 C38.7360025,21.9609347 36.3205671,22.2777194 34.2852983,22.2777194 C29.965724,22.2777194 27.9271495,19.6913826 27.9271495,16.0793722 C27.9271495,15.5056153 27.9921635,14.8997368 28.0880316,14.2584139 L28.5012561,11.7994556 C29.4224715,6.27122986 32.4098097,3.78015 37.5282848,3.78015 C39.5646555,3.78015 41.8820189,4.09915 43.7586095,4.60977153 C44.3316142,4.76927153 44.4880886,4.92655625 44.4880886,5.21897292 C44.4880886,5.27878542 44.4880886,5.37515 44.4561326,5.47151458" id="Fill-26" fill="#FFFFFF"></path>
                    <path d="M80.585294,10.6145035 L78.7087035,21.3486319 C78.6480972,21.7030764 78.3274349,22.0220764 77.9814282,22.0220764 L74.9896823,22.0220764 C74.6712239,22.0220764 74.5136475,21.7651042 74.5136475,21.4782257 L74.5136475,21.3486319 L76.4530482,10.2988264 C76.5180622,9.88346181 76.5797704,9.49468056 76.5797704,9.11365278 C76.5797704,8.09351736 76.1665459,7.29380208 74.6062099,7.29380208 L72.8309971,7.29380208 C70.9841587,7.29380208 70.5411819,8.09351736 70.1599134,10.2988264 L68.216105,21.3486319 C68.1566006,21.7030764 67.8403461,22.0220764 67.4888297,22.0220764 L64.4992877,22.0220764 C64.1830331,22.0220764 64.0265587,21.7651042 64.0265587,21.4782257 L64.0265587,21.3486319 L65.9626536,10.2988264 C66.8243646,5.44182986 68.6337373,3.78037153 73.46571,3.78037153 L75.1186083,3.78037153 C78.7428634,3.78037153 80.7120162,6.11084375 80.7120162,9.21001736 C80.7120162,9.65418056 80.6800602,10.1382187 80.585294,10.6145035" id="Fill-28" fill="#FFFFFF"></path>
                    <path d="M92.2287505,7.41974063 C89.6865929,7.41974063 88.5119331,9.14654965 88.0965047,11.4781295 L94.837024,11.4781295 C94.8976303,11.0649802 94.9637462,10.6784142 94.9637462,10.2641573 C94.9637462,8.41107743 93.9786188,7.41974063 92.2287505,7.41974063 M98.932906,12.1504663 L98.6805635,13.6812233 C98.5868993,14.1951677 98.364309,14.4809385 97.9191284,14.4809385 L87.5565579,14.4809385 C87.4937478,14.9284247 87.4011855,15.3460045 87.4011855,15.7934906 C87.4011855,17.5169767 88.2882409,18.6667059 90.6386623,18.6667059 C92.9604335,18.6667059 95.1510747,18.4473934 96.5185726,18.3155844 L96.6452948,18.3155844 C96.9031469,18.3155844 97.1246353,18.3787198 97.1246353,18.6667059 L97.1246353,18.7985149 L96.7422648,20.9030288 C96.6452948,21.4169733 96.5505286,21.6396087 95.9499755,21.7348656 C93.8188386,22.120324 92.4182828,22.2787163 89.5598707,22.2787163 C86.7301088,22.2787163 83.2975899,20.6803934 83.2975899,15.8533031 C83.2975899,15.2795462 83.329546,14.6105323 83.4562682,13.942626 L83.8066826,11.9588448 C84.8557221,5.98424063 88.0017385,3.78003924 92.8656673,3.78003924 C97.0904754,3.78003924 99.095992,6.5901191 99.095992,10.329508 C99.095992,10.9032649 99.0320799,11.5423726 98.932906,12.1504663" id="Fill-30" fill="#FFFFFF"></path>
                    <path d="M113.05571,4.63934549 L112.739455,6.52676215 C112.674441,6.87788368 112.326231,7.16365451 111.975816,7.16365451 L107.496462,7.16365451 L105.684885,17.486849 C105.651827,17.7072691 105.619871,17.8988906 105.619871,18.0594983 C105.619871,18.8293073 106.09811,18.9876997 107.367536,18.9876997 L109.878839,18.9876997 C110.165342,18.9876997 110.454048,19.0829566 110.454048,19.3709427 L110.454048,19.4661997 L110.102532,21.446658 C110.03862,21.7645503 109.812723,21.9606024 109.401703,22.0215226 C108.609413,22.1500087 106.986267,22.2784948 105.651827,22.2784948 C103.233086,22.2784948 101.360903,21.2251302 101.360903,18.603349 C101.360903,18.2522274 101.392859,17.8988906 101.457873,17.486849 L104.285432,1.38177951 C104.350446,1.02733507 104.664496,0.808022569 105.017115,0.742671875 L108.067263,0.230942708 L108.166437,0.230942708 C108.449633,0.230942708 108.609413,0.489022569 108.609413,0.775901042 L108.609413,0.873373264 L108.036409,4.00245312 L112.517967,4.00245312 C112.834222,4.00245312 113.05571,4.25942535 113.05571,4.54630382 L113.05571,4.61054687 L113.05571,4.63934549 Z" id="Fill-32" fill="#FFFFFF"></path>
                    <path d="M122.503897,7.41974063 C120.564496,7.41974063 118.911598,8.56946979 118.341899,11.7328865 L117.865864,14.3236538 C117.771098,14.8331677 117.736938,15.3149906 117.736938,15.7281399 C117.736938,17.6155566 118.65595,18.635692 120.53254,18.635692 C122.759545,18.635692 124.127043,17.2932337 124.664786,14.3236538 L125.143025,11.7328865 C125.236689,11.2233726 125.269747,10.7426573 125.269747,10.329508 C125.269747,8.44209132 124.378284,7.41974063 122.503897,7.41974063 M129.336979,11.7328865 L128.862046,14.3236538 C127.875817,19.5937997 124.886275,22.2787163 119.897827,22.2787163 C115.573845,22.2787163 113.541882,19.209449 113.541882,15.8533031 C113.541882,15.3460045 113.572737,14.8331677 113.668605,14.3236538 L114.144639,11.7328865 C115.160621,6.17475451 118.150163,3.78003924 123.13861,3.78003924 C127.494548,3.78003924 129.496759,6.71749757 129.496759,10.0725358 C129.496759,10.6141712 129.431745,11.191251 129.336979,11.7328865" id="Fill-34" fill="#FFFFFF"></path>
                    <path d="M61.7792782,4.17690625 C60.1462147,3.97199306 57.9114962,3.78037153 55.8795332,3.78037153 C50.76216,3.78037153 47.8717918,5.82396528 46.8536065,11.7996771 L46.438178,14.2586354 C46.3114558,14.9619861 46.2794998,15.603309 46.2794998,16.2102951 C46.2794998,20.5212257 49.1720718,22.2458194 52.8580351,22.2458194 C53.135722,22.2458194 53.4718113,22.2280972 53.817818,22.198191 C55.557769,22.1007187 57.4464808,21.8182708 59.1081945,21.4062292 C59.8740374,21.2157153 60.0360214,21.0207708 60.1285837,20.5433785 C60.1285837,20.5433785 61.2327198,14.3483542 61.2327198,14.0249236 C61.2327198,13.756875 61.0520029,13.5442083 60.7522774,13.5442083 L58.0558493,13.5442083 C57.7241677,13.5442083 57.4233402,13.8144722 57.3649378,14.1478715 L56.6145219,18.5241528 C56.4822901,18.5440903 56.256394,18.5806424 56.2332534,18.5806424 C55.3142419,18.7091285 53.979802,18.8298611 53.2393036,18.8298611 C51.1125744,18.8298611 50.4117456,17.9659028 50.4117456,16.269 C50.4117456,15.6963507 50.5043079,15.0229062 50.6332339,14.2586354 L51.0464585,11.7996771 C51.5522454,8.73151736 52.6685027,7.23177431 55.2756743,7.23177431 C56.206807,7.23177431 60.0250021,7.49096181 61.409029,7.58954167 C61.7252835,7.60947917 61.9390584,7.44554861 62.0316207,7.10550347 C62.1197752,6.76102778 62.4900245,4.97772917 62.5153689,4.81269097 C62.5693636,4.43498611 62.269638,4.23671875 61.7792782,4.17690625" id="Fill-36" fill="#FFFFFF"></path>
                    <path d="M25.1098394,10.2072247 L23.1704387,21.3611483 C23.1109344,21.7133774 22.7902721,22.0345927 22.4387557,22.0345927 L19.4492136,22.0345927 C19.1307552,22.0345927 18.9742809,21.7776205 18.9742809,21.490742 L18.9742809,21.3611483 L20.9753897,9.88711701 C21.0404037,9.47064479 21.1043158,9.11952326 21.1043158,8.80273854 C21.1043158,7.84241563 20.6613391,7.29967257 19.1979731,7.29967257 L18.4310283,7.29967257 C16.5874957,7.29967257 16.2062272,8.09938785 15.8899726,9.88711701 L13.8877618,21.3611483 C13.8216459,21.7133774 13.5053913,22.0345927 13.1538749,22.0345927 L10.1345807,22.0345927 C9.81612229,22.0345927 9.65744405,21.7776205 9.65744405,21.490742 L9.65744405,21.3611483 L11.6607568,9.88711701 C11.7257708,9.50608924 11.787479,9.11952326 11.787479,8.80273854 C11.787479,7.93878021 11.4040066,7.29967257 10.0056546,7.29967257 L9.24642334,7.29967257 C7.77754771,7.29967257 6.95330242,7.71503715 6.57313581,9.88711701 L4.57092499,21.3611483 C4.50480905,21.7133774 4.18635065,22.0345927 3.839242,22.0345927 L0.84749606,22.0345927 C0.531241517,22.0345927 0.370359415,21.7776205 0.370359415,21.490742 L0.370359415,21.3611483 L2.37587603,9.88711701 C3.17036915,5.31699896 5.84145282,3.7829191 9.88334015,3.7829191 L10.6403676,3.7829191 C12.4574538,3.7829191 13.7588357,4.22929757 14.5852849,5.03233576 C15.6982364,4.16726979 17.3830908,3.7829191 19.069047,3.7829191 L19.832686,3.7829191 C23.556115,3.7829191 25.2696196,5.50972813 25.2696196,8.51364479 C25.2696196,9.05638785 25.2046056,9.60134618 25.1098394,10.2072247" id="Fill-38" fill="#FFFFFF"></path>
                    <g id="Group-53" transform="translate(78.225702, 25.475694)">
                        <polygon id="Fill-40" fill="#FFFFFF" points="1.34482216 1.09467951 6.32996347 1.09467951 6.15475624 2.12035313 2.36521139 2.12035313 2.00157376 4.24480451 5.5134317 4.24480451 5.33932641 5.27158576 1.81093949 5.27158576 1.38889945 7.68845382 5.19276943 7.68845382 5.01866414 8.71412743 0.0037706676 8.71412743"></polygon>
                        <polygon id="Fill-42" fill="#FFFFFF" points="9.34562134 1.09467951 10.5555429 1.09467951 9.40402374 7.6452559 13.0040363 7.6452559 12.829931 8.71412743 8.00456984 8.71412743"></polygon>
                        <polygon id="Fill-44" fill="#FFFFFF" points="16.8503306 1.09467951 21.8354719 1.09467951 21.6602647 2.12035313 17.8707199 2.12035313 17.5070822 4.24480451 21.0189402 4.24480451 20.8448349 5.27158576 17.316448 5.27158576 16.8944079 7.68845382 20.6982779 7.68845382 20.5241726 8.71412743 15.5092791 8.71412743"></polygon>
                        <polygon id="Fill-46" fill="#FFFFFF" points="25.755155 2.48676007 24.6620382 8.71501354 23.5105191 8.71501354 24.8361435 1.09445799 26.3810525 1.09445799 28.7876724 7.38030868 29.8951143 1.09445799 31.0609586 1.09445799 29.7342322 8.71501354 28.1749981 8.71501354"></polygon>
                        <path d="M33.1577152,7.11746597 C33.1577152,6.94135139 33.1863654,6.73643819 33.2172195,6.56032361 L33.8144668,3.14658056 C34.119702,1.44635486 35.0387134,0.947917361 37.0651668,0.947917361 C37.7064913,0.947917361 38.4502955,1.03652847 39.1356974,1.22704236 L38.9450631,2.17961181 C38.2894134,2.06220208 37.516959,1.97359097 36.9626871,1.97359097 C35.6646109,1.97359097 35.1841685,2.25271597 34.9946361,3.30718819 L34.4260391,6.54592431 C34.411714,6.63342778 34.3819618,6.83944861 34.3819618,7.00005625 C34.3819618,7.64470208 34.7764536,7.83521597 35.956623,7.83521597 C36.5692973,7.83521597 37.2106218,7.76211181 37.9246739,7.63030278 L37.9830763,8.59727153 C37.2690242,8.75787917 36.4965697,8.86088958 35.7670906,8.86088958 C33.9301696,8.86088958 33.1577152,8.26054931 33.1577152,7.11746597" id="Fill-48" fill="#FFFFFF"></path>
                        <g id="Group-52" transform="translate(39.681044, 0.000000)">
                            <mask id="mask-2" fill="white">
                                <use xlink:href="#path-1"></use>
                            </mask>
                            <g id="Clip-51"></g>
                            <path d="M6.53622108,3.45383958 C6.56487131,3.32203056 6.58029836,3.19022153 6.58029836,3.07281181 C6.58029836,2.3406625 6.08442887,1.97403403 4.9185846,1.97403403 C3.416651,1.97403403 2.96485879,2.38496806 2.77532646,3.45383958 L2.26513184,6.38465208 C2.23648161,6.54636736 2.23648161,6.72137431 2.23648161,6.78007917 C2.23648161,7.45463125 2.6298714,7.83565903 3.89709344,7.83565903 C5.2094947,7.83565903 5.83649413,7.44023194 5.99737623,6.53086042 L6.53622108,3.45383958 Z M1.01113299,6.89748889 C1.01113299,6.73577361 1.02656004,6.56076667 1.05521028,6.38465208 L1.59515706,3.29212431 C1.88606716,1.63731181 2.76100134,0.948360417 5.10811694,0.948360417 C6.90096064,0.948360417 7.77589481,1.88542292 7.77589481,3.07281181 C7.77589481,3.23452708 7.76046776,3.38073542 7.73181752,3.54245069 L7.22162291,6.47326319 C6.95936304,7.95306875 6.30371338,8.86133264 3.72298815,8.86133264 C1.76926235,8.86133264 1.01113299,8.04057222 1.01113299,6.89748889 L1.01113299,6.89748889 Z" id="Fill-50" fill="#FFFFFF" mask="url(#mask-2)"></path>
                        </g>
                    </g>
                </g>
            </g>
        </g>
    </g>
</svg>