<?xml version="1.0" encoding="UTF-8" standalone="no"?>
<svg width="145px" height="145px" viewBox="0 0 145 145" version="1.1" xmlns="http://www.w3.org/2000/svg" xmlns:xlink="http://www.w3.org/1999/xlink">
    <!-- Generator: Sketch 44.1 (41455) - http://www.bohemiancoding.com/sketch -->
    <title>Page 1</title>
    <desc>Created with Sketch.</desc>
    <defs>
        <polygon id="path-1" points="0 72.16675 0 0 144.333 0 144.333 72.16675 144.333 144.3335 0 144.3335 0 72.16675"></polygon>
    </defs>
    <g id="Lading-Page" stroke="none" stroke-width="1" fill="none" fill-rule="evenodd">
        <g id="Desktop-HD-Copy-6" transform="translate(-238.000000, -2428.000000)">
            <g id="Group" transform="translate(238.000000, 2427.000000)">
                <g id="Page-1" transform="translate(0.000000, 1.000000)">
                    <mask id="mask-2" fill="white">
                        <use xlink:href="#path-1"></use>
                    </mask>
                    <g id="Clip-2"></g>
                    <path d="M72.167,4.9995 C109.203,4.9995 139.333,35.1295 139.333,72.1665 C139.333,86.4545 134.835,99.7035 127.2,110.6025 C125.566,107.7675 123.73,105.4835 121.696,103.3635 C116.981,98.4415 109.806,97.0085 103.45,94.1355 C97.094,91.2665 85.817,85.3195 85.817,85.3195 C85.817,85.3215 84.353,81.5815 87.868,77.1215 C91.375,72.6675 93.403,67.6895 94.634,62.9725 C98.734,61.3325 102.63,49.2365 98.079,44.3365 C98.079,44.3365 103.18,14.5005 73.192,13.2005 C73.192,13.2005 72.499,13.1595 72.155,13.1665 C71.82,13.1605 71.142,13.2005 71.142,13.2005 C41.153,14.5005 46.255,44.3365 46.255,44.3365 C41.704,49.2365 45.6,61.3325 49.7,62.9725 C50.931,67.6885 52.959,72.6675 56.466,77.1195 C59.981,81.5815 58.517,85.3195 58.517,85.3195 C58.517,85.3195 47.239,91.2655 40.884,94.1355 C34.528,97.0065 27.352,98.4415 22.637,103.3635 C20.604,105.4835 18.768,107.7675 17.134,110.6035 C9.499,99.7045 5,86.4545 5,72.1665 C5,35.1295 35.131,4.9995 72.167,4.9995 M72.167,-0.0005 C32.374,-0.0005 0,32.3735 0,72.1665 C0,111.9595 32.374,144.3335 72.167,144.3335 C111.96,144.3335 144.333,111.9595 144.333,72.1665 C144.333,32.3735 111.96,-0.0005 72.167,-0.0005" id="Fill-1" fill="#FEFEFE" mask="url(#mask-2)"></path>
                </g>
            </g>
        </g>
    </g>
</svg>