<?xml version="1.0" encoding="UTF-8" standalone="no"?>
<svg width="31px" height="39px" viewBox="0 0 31 39" version="1.1" xmlns="http://www.w3.org/2000/svg" xmlns:xlink="http://www.w3.org/1999/xlink">
    <!-- Generator: Sketch 41.2 (35397) - http://www.bohemiancoding.com/sketch -->
    <title>Perfil - Scroll Agenciado</title>
    <desc>Created with Sketch.</desc>
    <defs></defs>
    <g id="Perfil---Mobile-(iPhone-4)" stroke="none" stroke-width="1" fill="none" fill-rule="evenodd">
        <g id="Perfil---Scroll-Agenciado" transform="translate(-24.000000, -419.000000)" fill="#FEFEFE">
            <g id="Group-18" transform="translate(20.000000, 421.000000)">
                <g id="Group-18-Copy">
                    <g id="Group-10">
                        <g id="Page-1" transform="translate(6.000000, 0.000000)">
                            <g id="Group-3" transform="translate(0.000000, 0.153960)">
                                <path d="M19.0696427,26.0622967 L4.46779623,21.8010295 L9.93405845,3.01658977 L24.5359049,7.27785703 L19.0696427,26.0622967 Z M10.1745187,29.4110942 C9.16391853,29.1160565 8.58293858,28.0566245 8.87739917,27.0444304 C9.17217741,26.0320772 10.2304249,25.4509086 11.2411839,25.7459463 C12.2517841,26.040825 12.8327641,27.1002569 12.5381447,28.1127691 C12.2435253,29.1249633 11.1851189,29.7059729 10.1745187,29.4110942 L10.1745187,29.4110942 Z M24.9626663,4.14218653 L11.2570664,0.142397453 C9.44742024,-0.385489454 7.55296181,0.655333662 7.02566452,2.46739017 L0.137129058,26.139436 C-0.390168224,27.9514925 0.649338015,29.8487998 2.45866652,30.3768457 L16.1645841,34.3764757 C17.9740714,34.9046807 19.8682122,33.8635395 20.3956683,32.051324 L27.2842038,8.37943724 C27.8115011,6.56738073 26.7721536,4.67023249 24.9626663,4.14218653 L24.9626663,4.14218653 Z" id="Fill-1"></path>
                            </g>
                            <path d="M16.6959632,12.9553054 C16.5509564,12.8613068 16.2996961,12.7189571 15.9345586,12.6123936 C14.5373796,12.2047485 13.0264823,13.1953118 12.5776443,14.7373014 C12.3740313,15.4368033 12.5754208,16.0473962 13.273772,16.2512983 C14.1946364,16.5199337 15.3781964,15.5891732 15.8397404,14.6545954 L16.6959632,12.9553054 Z M15.5705329,20.0777228 C14.563268,20.2840107 13.6231859,20.1993961 12.559856,19.8890896 C9.95624623,19.1291487 8.30478926,16.5776688 9.19293577,13.5253405 C10.1458827,10.2505013 13.2394659,8.08312711 16.7637812,9.11170338 C19.5258978,9.91776871 20.8188879,12.3992666 20.0463656,15.054129 C19.3524615,17.4387655 17.6120628,18.4485738 16.1195891,18.013095 C15.4847677,17.8278017 15.0221119,17.227229 15.3519904,16.2714976 L15.2884606,16.2527297 C14.4598733,17.0285755 13.5955504,17.2765345 12.6429212,16.9985151 C11.7223745,16.7297206 11.1460004,15.751086 11.5112967,14.4952273 C12.0851296,12.5238028 14.1636656,11.1815799 16.3700553,11.8254143 C17.0528418,12.0245448 17.6144451,12.3435991 17.9716414,12.6548599 L16.5946331,15.3749328 C16.0049178,16.5137307 16.0335062,17.1257551 16.5527035,17.2943481 C17.357626,17.5466013 18.5772392,16.7295616 19.1139071,14.885536 C19.784464,12.5804245 18.8845645,10.5240673 16.4238968,9.80595657 C13.8363283,9.05078723 11.0646823,10.4668093 10.125712,13.6940926 C9.35303085,16.3489549 10.6067913,18.4915173 12.9562819,19.1770228 C13.861105,19.4410457 14.7581456,19.4957589 15.515262,19.3201678 L15.5705329,20.0777228 Z" id="Fill-4"></path>
                        </g>
                    </g>
                </g>
            </g>
        </g>
    </g>
</svg>