<?xml version="1.0" encoding="UTF-8" standalone="no"?>
<svg width="51px" height="52px" viewBox="0 0 51 52" version="1.1" xmlns="http://www.w3.org/2000/svg" xmlns:xlink="http://www.w3.org/1999/xlink">
    <!-- Generator: Sketch 41.2 (35397) - http://www.bohemiancoding.com/sketch -->
    <title>Perfil - Scroll Agenciado</title>
    <desc>Created with Sketch.</desc>
    <defs>
        <polygon id="path-1" points="45.0007297 0.000608108108 0 0.000608108108 0 45 45.0007297 45 45.0007297 0.000608108108"></polygon>
    </defs>
    <g id="Perfil---Mobile-(iPhone-4)" stroke="none" stroke-width="1" fill="none" fill-rule="evenodd">
        <g id="Perfil---Scroll-Agenciado" transform="translate(-38.000000, -686.000000)">
            <g id="Group-18" transform="translate(20.000000, 421.000000)">
                <g id="Group-18-Copy">
                    <g id="Group-16" transform="translate(21.000000, 269.000000)">
                        <g id="Page-1">
                            <mask id="mask-2" fill="white">
                                <use xlink:href="#path-1"></use>
                            </mask>
                            <g id="Clip-2"></g>
                            <path d="M38.9366757,0 L6.06356757,0 C2.71532432,0 -0.000486486487,2.71459459 -0.000486486487,6.06405405 L-0.000486486487,38.9371622 C-0.000486486487,42.2854054 2.71532432,45 6.06356757,45 L22.2769459,45 L22.3037027,28.9191892 L18.126,28.9191892 C17.5835676,28.9191892 17.1420811,28.4801351 17.1408649,27.9377027 L17.1214054,22.7541892 C17.118973,22.2081081 17.5604595,21.7654054 18.1065405,21.7654054 L22.2781622,21.7654054 L22.2781622,16.7558108 C22.2781622,10.9435135 25.8282973,7.77891892 31.0105946,7.77891892 L35.2661351,7.77891892 C35.811,7.77891892 36.2524865,8.22040541 36.2524865,8.76527027 L36.2524865,13.1351351 C36.2524865,13.68 35.8122162,14.1202703 35.2673514,14.1202703 L32.6561351,14.1227027 C29.8369459,14.1227027 29.2896486,15.4617568 29.2896486,17.4295946 L29.2896486,21.7654054 L35.4862703,21.7654054 C36.0761351,21.7654054 36.5334324,22.2810811 36.4653243,22.8660811 L35.8511351,28.0495946 C35.7915405,28.547027 35.3707297,28.9191892 34.8720811,28.9191892 L29.3188378,28.9191892 L29.2896486,45 L38.9366757,45 C42.2849189,45 45.0007297,42.2854054 45.0007297,38.9371622 L45.0007297,6.06405405 C45.0007297,2.71459459 42.2849189,0 38.9366757,0" id="Fill-1" fill="#FEFEFE" mask="url(#mask-2)"></path>
                        </g>
                    </g>
                </g>
            </g>
        </g>
    </g>
</svg>