<?xml version="1.0" encoding="UTF-8" standalone="no"?>
<svg width="42px" height="38px" viewBox="0 0 42 38" version="1.1" xmlns="http://www.w3.org/2000/svg" xmlns:xlink="http://www.w3.org/1999/xlink">
    <!-- Generator: Sketch 41.2 (35397) - http://www.bohemiancoding.com/sketch -->
    <title>Perfil - Scroll Agenciado</title>
    <desc>Created with Sketch.</desc>
    <defs></defs>
    <g id="Perfil---Mobile-(iPhone-4)" stroke="none" stroke-width="1" fill="none" fill-rule="evenodd">
        <g id="Perfil---Scroll-Agenciado" transform="translate(-18.000000, -3237.000000)" stroke="#FFFFFF" stroke-width="2">
            <g id="Reputação-Copy" transform="translate(20.000000, 3241.000000)">
                <path d="M20.2145123,24.1481616 L27.4204082,28 L26.0440571,19.8424199 C25.8371058,18.6049629 26.2385415,17.3472197 27.1212014,16.474914 L32.9482528,10.6958884 L24.8921111,9.50407535 C23.675337,9.3240355 22.6206332,8.54808911 22.0770743,7.42474189 L18.4741264,0 L14.8711785,7.42474189 C14.3276196,8.54808911 13.2729158,9.3240355 12.0561417,9.50407535 L4,10.6958884 L9.82705141,16.474914 C10.7097113,17.3472197 11.111147,18.6049629 10.9041957,19.8424199 L9.52784466,28 L16.7337405,24.1481616 C17.2797928,23.8590835 17.8757129,23.7120087 18.4741264,23.7120087 C19.0725399,23.7120087 19.66846,23.8590835 20.2145123,24.1481616 Z" id="estrela-copy-5"></path>
            </g>
        </g>
    </g>
</svg>