<?xml version="1.0" encoding="UTF-8" standalone="no"?>
<svg width="23px" height="25px" viewBox="0 0 23 25" version="1.1" xmlns="http://www.w3.org/2000/svg" xmlns:xlink="http://www.w3.org/1999/xlink">
    <!-- Generator: Sketch 41.2 (35397) - http://www.bohemiancoding.com/sketch -->
    <title>Perfil - Scroll Agenciado</title>
    <desc>Created with Sketch.</desc>
    <defs></defs>
    <g id="Perfil---Mobile-(iPhone-4)" stroke="none" stroke-width="1" fill="none" fill-rule="evenodd">
        <g id="Perfil---Scroll-Agenciado" transform="translate(-30.000000, -3295.000000)" fill="#FFFFFF">
            <g id="Reputação-Copy" transform="translate(20.000000, 3241.000000)">
                <g id="Reputação" transform="translate(9.000000, 52.000000)">
                    <path d="M12,21.1085271 C12.4134367,21.1085271 12.8251507,21.208441 13.2024117,21.4048234 L18.1808786,24.0215332 L17.2299742,18.4797588 C17.086994,17.6391042 17.3643411,16.7846684 17.9741602,16.1920758 L22,12.2661499 L16.4341085,11.456503 C15.5934539,11.3341947 14.8647717,10.8070629 14.4892334,10.0439276 L12,5 L9.51076658,10.0439276 C9.13522825,10.8070629 8.40654608,11.3341947 7.56589147,11.456503 L2,12.2661499 L6.02583979,16.1920758 C6.63565891,16.7846684 6.91300603,17.6391042 6.77002584,18.4797588 L5.81912145,24.0215332 L10.7975883,21.4048234 C11.1748493,21.208441 11.5865633,21.1085271 12,21.1085271" id="estrela"></path>
                </g>
            </g>
        </g>
    </g>
</svg>