
<svg width="26px" height="26px" viewBox="0 0 26 26" version="1.1" xmlns="http://www.w3.org/2000/svg" xmlns:xlink="http://www.w3.org/1999/xlink">
    <!-- Generator: Sketch 43.2 (39069) - http://www.bohemiancoding.com/sketch -->
    <desc>Created with Sketch.</desc>
    <defs></defs>
    <g id="desktop-hd" stroke="none" stroke-width="1" fill="none" fill-rule="evenodd">
        <g id="Modal-Renovar-Profissional" transform="translate(-1051.000000, -196.000000)" fill="#FFFFFF">
            <g id="Add-my-casting" transform="translate(1064.000000, 209.000000) rotate(45.000000) translate(-1064.000000, -209.000000) translate(1051.000000, 196.000000)">
                <path d="M17.9951931,11.6378072 L14.3621928,11.6378072 L14.3621928,8.00410078 C14.3621928,7.25137419 13.752103,6.64199048 13.0000825,6.64199048 C12.247356,6.64199048 11.6372661,7.25137419 11.6372661,8.00410078 L11.6372661,11.6378072 L8.00497198,11.6378072 C7.25224539,11.6378072 6.64215556,12.2471909 6.64215556,12.9999175 C6.64215556,13.7533502 7.25224539,14.3620278 8.00497198,14.3620278 L11.6372661,14.3620278 L11.6372661,17.9957341 C11.6372661,18.7484607 12.247356,19.3578444 13.0000825,19.3578444 C13.752103,19.3578444 14.3621928,18.7484607 14.3621928,17.9957341 L14.3621928,14.3620278 L17.9951931,14.3620278 C18.7472136,14.3620278 19.3580095,13.7533502 19.3580095,12.9999175 C19.3580095,12.2471909 18.7472136,11.6378072 17.9951931,11.6378072" id="Fill-1"></path>
                <path d="M13,1.23809524 C6.51444444,1.23809524 1.23809524,6.51444444 1.23809524,13 C1.23809524,19.4855556 6.51444444,24.7619048 13,24.7619048 C19.4855556,24.7619048 24.7619048,19.4855556 24.7619048,13 C24.7619048,6.51444444 19.4855556,1.23809524 13,1.23809524 M13,26 C5.83184127,26 0,20.1681587 0,13 C0,5.83184127 5.83184127,0 13,0 C20.1681587,0 26,5.83184127 26,13 C26,20.1681587 20.1681587,26 13,26" id="Fill-3"></path>
            </g>
        </g>
    </g>
</svg>