
<svg width="26px" height="26px" viewBox="0 0 26 26" version="1.1" xmlns="http://www.w3.org/2000/svg" xmlns:xlink="http://www.w3.org/1999/xlink">
    <!-- Generator: Sketch 43.2 (39069) - http://www.bohemiancoding.com/sketch -->
    <desc>Created with Sketch.</desc>
    <defs></defs>
    <g id="desktop-hd" stroke="none" stroke-width="1" fill="none" fill-rule="evenodd">
        <g id="Modal-Renovar-Profissional" transform="translate(-781.000000, -458.000000)" fill="#FFFFFF">
            <g id="Igual" transform="translate(781.000000, 458.000000)">
                <g id="Group-2" stroke-width="1" transform="translate(7.000000, 9.000000)">
                    <path d="M1.36281642,5 C0.610089839,5 0,5.60938372 0,6.3621103 C0,7.11554301 0.610089839,7.7242206 1.36281642,7.7242206 L11.3530375,7.7242206 C12.105058,7.7242206 12.715854,7.11554301 12.715854,6.3621103 C12.715854,5.60938372 12.105058,5 11.3530375,5 L1.36281642,5 Z" id="Fill-1"></path>
                    <path d="M1.36281642,0 C0.610089839,0 0,0.609383717 0,1.3621103 C0,2.11554301 0.610089839,2.7242206 1.36281642,2.7242206 L11.3530375,2.7242206 C12.105058,2.7242206 12.715854,2.11554301 12.715854,1.3621103 C12.715854,0.609383717 12.105058,0 11.3530375,0 L1.36281642,0 Z" id="Fill-1-Copy"></path>
                </g>
                <path d="M13,1.23809524 C6.51444444,1.23809524 1.23809524,6.51444444 1.23809524,13 C1.23809524,19.4855556 6.51444444,24.7619048 13,24.7619048 C19.4855556,24.7619048 24.7619048,19.4855556 24.7619048,13 C24.7619048,6.51444444 19.4855556,1.23809524 13,1.23809524 M13,26 C5.83184127,26 0,20.1681587 0,13 C0,5.83184127 5.83184127,0 13,0 C20.1681587,0 26,5.83184127 26,13 C26,20.1681587 20.1681587,26 13,26" id="Fill-3"></path>
            </g>
        </g>
    </g>
</svg>