<?xml version="1.0" encoding="UTF-8" standalone="no"?>
<svg width="141px" height="25px" viewBox="0 0 141 25" version="1.1" xmlns="http://www.w3.org/2000/svg" xmlns:xlink="http://www.w3.org/1999/xlink">
    <!-- Generator: Sketch 42 (36781) - http://www.bohemiancoding.com/sketch -->
    <title>LOGO</title>
    <desc>Created with Sketch.</desc>
    <defs>
        <polygon id="path-1" points="0.718786667 6.25 5.52767 6.25 5.52767 0.66890625 0.718786667 0.66890625 0.718786667 6.25"></polygon>
    </defs>
    <g id="-" stroke="none" stroke-width="1" fill="none" fill-rule="evenodd">
        <g id="Comportamento-+-habilidades" transform="translate(-42.000000, -19.000000)">
            <g id="LOGO" transform="translate(42.000000, 19.000000)">
                <polygon id="Fill-1" fill="#ED1C24" points="43.765695 5.21929688 41.982045 2.76539063 42.4481283 5.21929688"></polygon>
                <polygon id="Fill-2" fill="#ED1C24" points="30.2332983 13.4311719 35.5113983 11.1233594 31.160765 9.32179688"></polygon>
                <polygon id="Fill-3" fill="#ED1C24" points="26.6302783 17.2233594 30.0847783 13.7975781 23.9144617 16.1694531"></polygon>
                <polygon id="Fill-4" fill="#ED1C24" points="40.7869133 13.8027344 43.1000967 15.2675781 42.9943467 13.2410156"></polygon>
                <polygon id="Fill-5" fill="#ED1C24" points="34.4115983 7.95671875 37.8245817 3.24734375 32.7289983 3.85046875"></polygon>
                <polygon id="Fill-6" fill="#ED1C24" points="18.4786767 16.169375 20.6821933 12.7467187 10.83021 16.169375"></polygon>
                <polygon id="Fill-7" fill="#ED1C24" points="15.3270133 9.4871875 6.35393 13.4309375 19.9502467 12.0496875"></polygon>
                <polygon id="Fill-8" fill="#ED1C24" points="29.1363183 6.855 22.0158183 5.2190625 25.3011183 10.0284375"></polygon>
                <polygon id="Fill-9" fill="#ED1C24" points="38.786985 5.21921875 40.8142517 5.6778125 40.6583683 5.21921875"></polygon>
                <polygon id="Fill-10" fill="#ED1C24" points="29.809515 7.015625 32.7289983 3.85078125 32.5370817 1.96953125"></polygon>
                <polygon id="Fill-11" fill="#ED1C24" points="41.98181 2.765625 37.82466 3.246875 42.4486767 5.21953125"></polygon>
                <polygon id="Fill-12" fill="#ED1C24" points="42.9945817 12.3352344 43.9862817 9.71726562 41.9159317 11.3985156"></polygon>
                <polygon id="Fill-13" fill="#9D0A0E" points="34.0046567 15.4857812 36.11104 11.3990625 29.1331067 16.169375"></polygon>
                <polygon id="Fill-14" fill="#9D0A0E" points="19.5986083 16.169375 23.3915083 16.8529687 21.419075 13.4310937"></polygon>
                <polygon id="Fill-15" fill="#9D0A0E" points="21.656425 7.24523438 16.9532917 9.32570313 24.356575 10.6944531"></polygon>
                <polygon id="Fill-16" fill="#9D0A0E" points="42.9945817 12.3352344 40.252915 12.5258594 42.9945817 13.2407031"></polygon>
                <polygon id="Fill-17" fill="#9D0A0E" points="42.24031 7.27234375 43.9965433 9.73015625 43.6753767 6.58796875 41.6238267 6.58796875 40.8146433 5.6778125 36.93166 6.86296875 40.46136 8.64109375"></polygon>
                <polygon id="Fill-18" fill="#9D0A0E" points="37.82466 3.24695313 41.98181 2.76492188 39.55191 1.14070313"></polygon>
                <polygon id="Fill-19" fill="#9D0A0E" points="32.2145833 5.23453125 31.1758833 8.44859375 33.4311 7.99234375"></polygon>
                <polygon id="Fill-20" fill="#9D0A0E" points="29.665695 12.8146875 30.5438117 7.47484375 24.794145 11.5896875"></polygon>
                <polygon id="Fill-21" fill="#9D0A0E" points="31.0931633 2.4821875 23.9146967 5.17359375 28.60373 5.918125"></polygon>
                <polygon id="Fill-22" fill="#9D0A0E" points="32.53716 1.969375 37.82466 3.24671875 39.55191 1.14046875"></polygon>
                <polygon id="Fill-23" fill="#9D0A0E" points="42.4269783 15.8050781 40.8172283 17.2167969 42.9886283 16.6675781 43.0998617 15.2675781 41.8872617 14.4980469"></polygon>
                <polygon id="Fill-24" fill="#9D0A0E" points="23.6361433 15.0932031 29.1359267 13.4314844 20.9203267 11.3986719"></polygon>
                <polygon id="Fill-25" fill="#9D0A0E" points="0 15.4848437 9.49791667 16.17 16.3152667 13.0270312"></polygon>
                <g id="Group-54" transform="translate(48.566667, 0.618359)">
                    <path d="M26.2493433,5.10101562 C24.30511,5.10101562 23.5828767,6.36273437 23.24291,8.32367187 L22.9507267,10.0572656 C22.8590767,10.5525781 22.8144267,10.9807031 22.8144267,11.3642969 C22.8144267,12.6049219 23.33456,13.2814844 24.8048767,13.2814844 C25.6156267,13.2814844 26.5415267,13.2127344 26.9927267,13.1221094 L28.3713933,5.25492187 C27.96406,5.16742187 27.06166,5.10101562 26.2493433,5.10101562 M31.6026433,3.85960937 L29.7281267,14.5189844 C29.66076,14.8596094 29.54796,14.9939844 29.0035433,15.1267969 C27.53636,15.4892969 25.8192933,15.7142969 24.3724767,15.7142969 C21.30181,15.7142969 19.8526433,13.8885156 19.8526433,11.3408594 C19.8526433,10.9369531 19.89886,10.5096094 19.96701,10.0572656 L20.26076,8.32367187 C20.9156267,4.42367187 23.0392433,2.66664062 26.6778267,2.66664062 C28.1254267,2.66664062 29.7727767,2.89242187 31.1067933,3.25179687 C31.5141267,3.36429687 31.62536,3.47523437 31.62536,3.68148437 C31.62536,3.72367187 31.62536,3.79164062 31.6026433,3.85960937" id="Fill-26" fill="#404041"></path>
                    <path d="M57.2858717,7.48710938 L55.951855,15.0589844 C55.9087717,15.3082031 55.6808217,15.5332031 55.434855,15.5332031 L53.308105,15.5332031 C53.0817217,15.5332031 52.969705,15.3519531 52.969705,15.1503906 L52.969705,15.0589844 L54.3483717,7.26445313 C54.3945883,6.97148438 54.438455,6.69726563 54.438455,6.42851563 C54.438455,5.70898438 54.144705,5.14492188 53.035505,5.14492188 L51.773555,5.14492188 C50.4606883,5.14492188 50.1457883,5.70898438 49.874755,7.26445313 L48.492955,15.0589844 C48.450655,15.3082031 48.2258383,15.5332031 47.975955,15.5332031 L45.8507717,15.5332031 C45.625955,15.5332031 45.5147217,15.3519531 45.5147217,15.1503906 L45.5147217,15.0589844 L46.8910383,7.26445313 C47.503605,3.83867188 48.7898383,2.66679688 52.224755,2.66679688 L53.399755,2.66679688 C55.9761383,2.66679688 57.375955,4.31054688 57.375955,6.49648438 C57.375955,6.80976563 57.3532383,7.15117188 57.2858717,7.48710938" id="Fill-28" fill="#404041"></path>
                    <path d="M65.562885,5.23414063 C63.755735,5.23414063 62.9207017,6.45132813 62.625385,8.09585938 L67.417035,8.09585938 C67.4601183,7.80445313 67.5071183,7.53179688 67.5071183,7.24039063 C67.5071183,5.93257813 66.8068183,5.23414063 65.562885,5.23414063 M70.328685,8.57085937 L70.1493017,9.65054687 C70.0827183,10.0122656 69.924485,10.2146094 69.6080183,10.2146094 L62.2415517,10.2146094 C62.1969017,10.5302344 62.1311017,10.8239844 62.1311017,11.1396094 C62.1311017,12.3552344 62.761685,13.1669531 64.432535,13.1669531 C66.0830183,13.1669531 67.640285,13.0114844 68.6124017,12.9192969 L68.702485,12.9192969 C68.885785,12.9192969 69.043235,12.9630469 69.043235,13.1669531 L69.043235,13.2591406 L68.7714183,14.7442969 C68.702485,15.1052344 68.6351183,15.2630469 68.2082017,15.3310156 C66.693235,15.6028906 65.6976183,15.7146094 63.6656517,15.7146094 C61.6540517,15.7146094 59.2139683,14.5872656 59.2139683,11.1825781 C59.2139683,10.7771094 59.236685,10.3052344 59.3267683,9.83492187 L59.5758683,8.43414062 C60.3216017,4.22085937 62.5580183,2.66695312 66.0156517,2.66695312 C69.0189517,2.66695312 70.4446183,4.64820312 70.4446183,7.28492187 C70.4446183,7.69117187 70.399185,8.14195312 70.328685,8.57085937" id="Fill-30" fill="#404041"></path>
                    <path d="M80.3681983,3.27335938 L80.1433817,4.60382813 C80.097165,4.85148438 79.8496317,5.05226563 79.6005317,5.05226563 L76.4162817,5.05226563 L75.1284817,12.3342969 C75.1049817,12.4897656 75.082265,12.6249219 75.082265,12.7382031 C75.082265,13.2811719 75.4222317,13.3928906 76.3246317,13.3928906 L78.1098483,13.3928906 C78.313515,13.3928906 78.5187483,13.4592969 78.5187483,13.6632031 L78.5187483,13.7303906 L78.268865,15.1272656 C78.2234317,15.3522656 78.0628483,15.4897656 77.770665,15.5335156 C77.2074483,15.6233594 76.0535983,15.7139844 75.1049817,15.7139844 C73.385565,15.7139844 72.0546817,14.9710156 72.0546817,13.1217969 C72.0546817,12.8741406 72.0773983,12.6249219 72.123615,12.3342969 L74.1336483,0.974921875 C74.179865,0.725703125 74.403115,0.569453125 74.6537817,0.524140625 L76.8220483,0.163203125 L76.8925483,0.163203125 C77.093865,0.163203125 77.2074483,0.345234375 77.2074483,0.546796875 L77.2074483,0.617109375 L76.800115,2.82335938 L79.9859317,2.82335938 C80.2107483,2.82335938 80.3681983,3.00460938 80.3681983,3.20695313 L80.3681983,3.25226563 L80.3681983,3.27335938 Z" id="Fill-32" fill="#404041"></path>
                    <path d="M87.084655,5.23414063 C85.7059883,5.23414063 84.5309883,6.04507813 84.126005,8.27632813 L83.787605,10.1021094 C83.7202383,10.4630469 83.695955,10.8028906 83.695955,11.0942969 C83.695955,12.4247656 84.349255,13.1442969 85.6832717,13.1442969 C87.2663883,13.1442969 88.238505,12.1982031 88.6207717,10.1021094 L88.9607383,8.27632813 C89.0273217,7.91695313 89.0508217,7.57789063 89.0508217,7.28492188 C89.0508217,5.95523438 88.417105,5.23414063 87.084655,5.23414063 M91.942105,8.27632812 L91.6044883,10.1021094 C90.903405,13.8208594 88.7782217,15.7146094 85.2320717,15.7146094 C82.1582717,15.7146094 80.713805,13.5497656 80.713805,11.1825781 C80.713805,10.8239844 80.7357383,10.4630469 80.8038883,10.1021094 L81.1422883,8.27632812 C81.8645217,4.35601562 83.989705,2.66695312 87.535855,2.66695312 C90.6323717,2.66695312 92.0556883,4.73804687 92.0556883,7.10445312 C92.0556883,7.48726562 92.0094717,7.89351562 91.942105,8.27632812" id="Fill-34" fill="#404041"></path>
                    <path d="M43.9171917,2.9453125 C42.7562917,2.80234375 41.1676917,2.6671875 39.723225,2.6671875 C36.085425,2.6671875 34.0307417,4.1078125 33.3069417,8.3234375 L33.011625,10.0578125 C32.9215417,10.5523437 32.898825,11.0054687 32.898825,11.4328125 C32.898825,14.4734375 34.955075,15.690625 37.575325,15.690625 C37.772725,15.690625 38.0116417,15.6789062 38.2576083,15.6570312 C39.4944917,15.5890625 40.837125,15.3890625 42.0183917,15.0992187 C42.5628083,14.9648437 42.6779583,14.8273437 42.7437583,14.490625 C42.7437583,14.490625 43.5286583,10.1210937 43.5286583,9.89296875 C43.5286583,9.703125 43.4001917,9.55234375 43.187125,9.55234375 L41.2703083,9.55234375 C41.034525,9.55234375 40.820675,9.74375 40.7791583,9.97890625 L40.2457083,13.0648437 C40.1517083,13.0789062 39.991125,13.10625 39.974675,13.10625 C39.321375,13.1953125 38.3727583,13.28125 37.8463583,13.28125 C36.334525,13.28125 35.836325,12.6710937 35.836325,11.475 C35.836325,11.0710937 35.902125,10.596875 35.993775,10.0578125 L36.287525,8.3234375 C36.647075,6.159375 37.4405917,5.10078125 39.2939583,5.10078125 C39.955875,5.10078125 42.670125,5.28359375 43.6539917,5.353125 C43.8788083,5.36796875 44.030775,5.2515625 44.096575,5.01171875 C44.1592417,4.76875 44.4224417,3.51171875 44.4404583,3.3953125 C44.4788417,3.12890625 44.265775,2.98828125 43.9171917,2.9453125" id="Fill-36" fill="#404041"></path>
                    <path d="M17.849895,7.1990625 L16.4712283,15.0670313 C16.4289283,15.3154688 16.2009783,15.5428125 15.951095,15.5428125 L13.8259117,15.5428125 C13.5995283,15.5428125 13.488295,15.3607813 13.488295,15.1584375 L13.488295,15.0670313 L14.9108283,6.9740625 C14.957045,6.68109375 15.0024783,6.43265625 15.0024783,6.20921875 C15.0024783,5.531875 14.6875783,5.14828125 13.6473117,5.14828125 L13.1021117,5.14828125 C11.791595,5.14828125 11.5205617,5.713125 11.295745,6.9740625 L9.87242833,15.0670313 C9.82542833,15.3154688 9.60061167,15.5428125 9.35072833,15.5428125 L7.204395,15.5428125 C6.97801167,15.5428125 6.86521167,15.3607813 6.86521167,15.1584375 L6.86521167,15.0670313 L8.28931167,6.9740625 C8.33552833,6.7053125 8.379395,6.43265625 8.379395,6.20921875 C8.379395,5.59984375 8.106795,5.14828125 7.112745,5.14828125 L6.57302833,5.14828125 C5.528845,5.14828125 4.94291167,5.44203125 4.67266167,6.9740625 L3.249345,15.0670313 C3.202345,15.3154688 2.97596167,15.5428125 2.72921167,15.5428125 L0.602461667,15.5428125 C0.377645,15.5428125 0.263278333,15.3607813 0.263278333,15.1584375 L0.263278333,15.0670313 L1.688945,6.9740625 C2.25372833,3.750625 4.15252833,2.6678125 7.025795,2.6678125 L7.563945,2.6678125 C8.85566167,2.6678125 9.78077833,2.9834375 10.3682783,3.5490625 C11.159445,2.9396875 12.3571617,2.6678125 13.5556617,2.6678125 L14.0985117,2.6678125 C16.745395,2.6678125 17.9634783,3.8865625 17.9634783,6.0053125 C17.9634783,6.38890625 17.9172617,6.7725 17.849895,7.1990625" id="Fill-38" fill="#404041"></path>
                    <g id="Group-53" transform="translate(54.833333, 17.968750)">
                        <polygon id="Fill-40" fill="#404041" points="1.73116667 0.772109375 5.27496667 0.772109375 5.15041667 1.49554687 2.45653333 1.49554687 2.19803333 2.99398437 4.69451667 2.99398437 4.57075 3.71820312 2.06251667 3.71820312 1.7625 5.42289062 4.46656667 5.42289062 4.3428 6.14632812 0.77785 6.14632812"></polygon>
                        <polygon id="Fill-42" fill="#404041" points="7.418715 0.772109375 8.278815 0.772109375 7.46023167 5.39242187 10.0193817 5.39242187 9.895615 6.14632812 6.46539833 6.14632812"></polygon>
                        <polygon id="Fill-44" fill="#404041" points="12.7536067 0.772109375 16.2974067 0.772109375 16.1728567 1.49554687 13.4789733 1.49554687 13.2204733 2.99398437 15.7169567 2.99398437 15.59319 3.71820312 13.0849567 3.71820312 12.78494 5.42289062 15.4890067 5.42289062 15.36524 6.14632812 11.80029 6.14632812"></polygon>
                        <polygon id="Fill-46" fill="#404041" points="19.0838017 1.75398437 18.306735 6.14695312 17.4881517 6.14695312 18.4305017 0.771953125 19.528735 0.771953125 21.239535 5.20554687 22.026785 0.771953125 22.8555517 0.771953125 21.9124183 6.14695312 20.8040017 6.14695312"></polygon>
                        <path d="M24.3460783,5.02015625 C24.3460783,4.8959375 24.366445,4.75140625 24.3883783,4.6271875 L24.812945,2.219375 C25.0299283,1.02015625 25.6832283,0.66859375 27.1237783,0.66859375 C27.5796783,0.66859375 28.1084283,0.73109375 28.5956617,0.86546875 L28.460145,1.53734375 C27.9940617,1.45453125 27.444945,1.39203125 27.0509283,1.39203125 C26.1281617,1.39203125 25.7866283,1.58890625 25.651895,2.33265625 L25.247695,4.61703125 C25.2375117,4.67875 25.2163617,4.8240625 25.2163617,4.93734375 C25.2163617,5.39203125 25.496795,5.52640625 26.335745,5.52640625 C26.7712783,5.52640625 27.2271783,5.47484375 27.7347783,5.381875 L27.776295,6.06390625 C27.268695,6.1771875 26.7195783,6.24984375 26.2010117,6.24984375 C24.895195,6.24984375 24.3460783,5.82640625 24.3460783,5.02015625" id="Fill-48" fill="#404041"></path>
                        <g id="Group-52" transform="translate(28.983333, 0.000000)">
                            <mask id="mask-2" fill="white">
                                <use xlink:href="#path-1"></use>
                            </mask>
                            <g id="Clip-51"></g>
                            <path d="M4.64642,2.43609375 C4.66678667,2.343125 4.67775333,2.25015625 4.67775333,2.16734375 C4.67775333,1.6509375 4.32525333,1.39234375 3.49648667,1.39234375 C2.42880333,1.39234375 2.10763667,1.6821875 1.97290333,2.43609375 L1.61022,4.50328125 C1.58985333,4.61734375 1.58985333,4.74078125 1.58985333,4.7821875 C1.58985333,5.25796875 1.86950333,5.52671875 2.77033667,5.52671875 C3.70328667,5.52671875 4.14900333,5.2478125 4.26337,4.60640625 L4.64642,2.43609375 Z M0.718786667,4.865 C0.718786667,4.7509375 0.729753333,4.6275 0.75012,4.50328125 L1.13395333,2.32203125 C1.34075333,1.15484375 1.96272,0.66890625 3.63122,0.66890625 C4.90570333,0.66890625 5.52767,1.32984375 5.52767,2.16734375 C5.52767,2.28140625 5.51670333,2.38453125 5.49633667,2.49859375 L5.13365333,4.56578125 C4.94722,5.60953125 4.48113667,6.25015625 2.64657,6.25015625 C1.25772,6.25015625 0.718786667,5.67125 0.718786667,4.865 L0.718786667,4.865 Z" id="Fill-50" fill="#404041" mask="url(#mask-2)"></path>
                        </g>
                    </g>
                </g>
            </g>
        </g>
    </g>
</svg>