
<svg width="73px" height="73px" viewBox="0 0 73 73" version="1.1" xmlns="http://www.w3.org/2000/svg" xmlns:xlink="http://www.w3.org/1999/xlink">
    <!-- Generator: Sketch 43.2 (39069) - http://www.bohemiancoding.com/sketch -->
    <desc>Created with Sketch.</desc>
    <defs>
        <circle id="path-1" cx="36.5" cy="36.5" r="36.5"></circle>
        <polygon id="path-2" points="0 33.75 43.75 33.75 43.75 0 0 0"></polygon>
    </defs>
    <g id="Modalidades-de-Cadastro" stroke="none" stroke-width="1" fill="none" fill-rule="evenodd">
        <g id="Modal-Renovar-Premium" transform="translate(-246.000000, -232.000000)">
            <g id="Group-3-Copy-3" transform="translate(246.000000, 232.000000)">
                <g id="Oval">
                    <use fill="#9248A0" fill-rule="evenodd" xlink:href="#path-1"></use>
                    <circle stroke="#FFFFFF" stroke-width="1" cx="36.5" cy="36.5" r="36"></circle>
                </g>
                <g id="Page-1" transform="translate(14.000000, 17.000000)">
                    <path d="M26.6523,20.4238 C26.6523,23.0628 24.5133,25.2008 21.8753,25.2008 C19.2363,25.2008 17.0973,23.0628 17.0973,20.4238 C17.0973,17.7848 19.2363,15.6468 21.8753,15.6468 C24.5133,15.6468 26.6523,17.7848 26.6523,20.4238 Z" id="Fill-1" fill="#FEFEFE"></path>
                    <mask id="mask-3" fill="white">
                        <use xlink:href="#path-2"></use>
                    </mask>
                    <g id="Clip-4"></g>
                    <path d="M35.199,12.5 L38.449,12.5 L38.449,10.25 L35.199,10.25 L35.199,12.5 Z M21.875,29.549 C16.835,29.549 12.75,25.464 12.75,20.424 C12.75,15.385 16.835,11.299 21.875,11.299 C26.915,11.299 31,15.385 31,20.424 C31,25.464 26.915,29.549 21.875,29.549 L21.875,29.549 Z M36.75,5.75 L32.133,5.75 C31.542,2.481 28.688,0 25.25,0 L18.5,0 C15.062,0 12.208,2.481 11.617,5.75 L7,5.75 C3.134,5.75 0,8.884 0,12.75 L0,26.75 C0,30.616 3.134,33.75 7,33.75 L36.75,33.75 C40.616,33.75 43.75,30.616 43.75,26.75 L43.75,12.75 C43.75,8.884 40.616,5.75 36.75,5.75 L36.75,5.75 Z" id="Fill-3" fill="#FEFEFE" mask="url(#mask-3)"></path>
                </g>
            </g>
        </g>
    </g>
</svg>