
<svg width="74px" height="73px" viewBox="0 0 74 73" version="1.1" xmlns="http://www.w3.org/2000/svg" xmlns:xlink="http://www.w3.org/1999/xlink">
    <!-- Generator: Sketch 43.2 (39069) - http://www.bohemiancoding.com/sketch -->
    <desc>Created with Sketch.</desc>
    <defs>
        <circle id="path-1" cx="36.5" cy="36.5" r="36.5"></circle>
        <polygon id="path-2" points="41.2938041 41.6528926 0 41.6528926 0 20.8554645 0 0.0580363636 41.2938041 0.0580363636 41.2938041 41.6528926"></polygon>
        <polygon id="path-4" points="21.6591486 10.8174298 21.6591486 0.197677686 0.279983108 0.197677686 0.279983108 10.8174298 21.6591486 10.8174298"></polygon>
    </defs>
    <g id="desktop-hd" stroke="none" stroke-width="1" fill="none" fill-rule="evenodd">
        <g id="Modal-Renovar-Profissional" transform="translate(-246.000000, -232.000000)">
            <g id="Group-3" transform="translate(246.384776, 232.000000)">
                <g id="Group-3-Copy-3">
                    <g id="Oval">
                        <use fill="#1E78A4" fill-rule="evenodd" xlink:href="#path-1"></use>
                        <circle stroke="#FFFFFF" stroke-width="1" cx="36.5" cy="36.5" r="36"></circle>
                    </g>
                </g>
                <g id="Page-1-Copy-2" transform="translate(12.000000, 15.000000)">
                    <path d="M20.6467297,23.187714 C19.5264527,23.187714 18.6184459,22.273086 18.6184459,21.1442926 C18.6184459,20.0158463 19.5264527,19.1012182 20.6467297,19.1012182 C21.7673514,19.1012182 22.6757027,20.0158463 22.6757027,21.1442926 C22.6757027,22.273086 21.7673514,23.187714 20.6467297,23.187714 M20.6467297,16.4743091 C18.0860473,16.4743091 16.0105541,18.5652843 16.0105541,21.1442926 C16.0105541,23.723995 18.0860473,25.8146231 20.6467297,25.8146231 C23.2077568,25.8146231 25.28325,23.723995 25.28325,21.1442926 C25.28325,18.5652843 23.2077568,16.4743091 20.6467297,16.4743091" id="Fill-1" fill="#FEFEFE"></path>
                    <g id="Group-5" transform="translate(0.000000, 0.289140)">
                        <mask id="mask-3" fill="white">
                            <use xlink:href="#path-2"></use>
                        </mask>
                        <g id="Clip-4"></g>
                        <path d="M20.6467297,26.985243 C17.2858986,26.985243 14.5615338,24.2410116 14.5615338,20.8553256 C14.5615338,17.4699868 17.2858986,14.7257554 20.6467297,14.7257554 C24.0079054,14.7257554 26.7322703,17.4699868 26.7322703,20.8553256 C26.7322703,24.2410116 24.0079054,26.985243 20.6467297,26.985243 L20.6467297,26.985243 Z M1.65543243,19.3756066 C2.01553378,14.6230116 4.08964865,10.3549785 7.26198649,7.1997719 C9.62280405,9.92560661 13.0408378,13.9430281 14.6314865,15.8156727 C13.5253378,17.154119 12.8526892,18.8667471 12.8254662,20.7380033 L1.65543243,19.3756066 Z M10.6586554,4.51142479 L16.0098649,14.5074248 C15.6439054,14.7788628 15.3034459,15.0825818 14.9902095,15.412681 L8.64174324,5.95469752 C9.28131081,5.4312595 9.95430405,4.94912727 10.6586554,4.51142479 L10.6586554,4.51142479 Z M40.9099257,24.846714 C41.1590676,23.5544331 41.2938041,22.2208463 41.2938041,20.8553256 C41.2938041,9.36919339 32.0500541,0.0580363636 20.6467297,0.0580363636 C9.24375,0.0580363636 0,9.36919339 0,20.8553256 C0,32.341805 9.24375,41.652962 20.6467297,41.652962 C24.3624932,41.652962 27.8463446,40.6591934 30.8584459,38.9285157 L27.8528919,38.9285157 L27.8528919,24.846714 L40.9099257,24.846714 Z" id="Fill-3" fill="#FEFEFE" mask="url(#mask-3)"></path>
                    </g>
                    <path d="M45.8068561,30.7027289 L45.3943764,30.7027289 L44.8788628,33.6465471 L45.2837615,33.6465471 C45.6290453,33.6465471 45.8816331,33.6080182 46.0411804,33.5306132 C46.2010723,33.4535554 46.3389101,33.3188777 46.4550385,33.1262331 C46.5715115,32.9342826 46.6676534,32.6222331 46.7431196,32.1911256 C46.8427074,31.620481 46.8185858,31.229638 46.6710993,31.0185967 C46.5229236,30.8082496 46.2348426,30.7027289 45.8068561,30.7027289" id="Fill-6" fill="#FEFEFE"></path>
                    <g id="Group-10" transform="translate(29.290541, 26.669306)">
                        <mask id="mask-5" fill="white">
                            <use xlink:href="#path-4"></use>
                        </mask>
                        <g id="Clip-9"></g>
                        <path d="M19.1182804,5.48863636 C19.0173142,6.0644876 18.8743074,6.51086777 18.6885709,6.82812397 C18.5028345,7.14538017 18.2757466,7.41161157 18.0069628,7.62577686 C17.7385236,7.84028926 17.4652601,7.98329752 17.1878615,8.05410744 C16.8084628,8.15233884 16.4711047,8.20093388 16.1771655,8.20093388 L13.7215845,8.20093388 L14.6647399,2.81313223 L17.1199764,2.81313223 C17.6037872,2.81313223 17.9835304,2.87908264 18.2588615,3.01167769 C18.5335034,3.14392562 18.7461182,3.33379339 18.8973953,3.58128099 C19.0490169,3.8287686 19.1396453,4.11686777 19.1692804,4.4448843 C19.1996047,4.77324793 19.1827196,5.12104959 19.1182804,5.48863636 L19.1182804,5.48863636 Z M9.38210473,8.20093388 L8.30524662,2.81313223 L10.0323547,2.81313223 L10.5578615,6.69066942 L12.424875,2.81313223 L14.1027061,2.81313223 L11.1733074,8.20093388 L9.38210473,8.20093388 Z M7.74907095,5.48863636 C7.64844932,6.0644876 7.50509797,6.51086777 7.31936149,6.82812397 C7.13396959,7.14538017 6.90653716,7.41161157 6.63775338,7.62577686 C6.36896959,7.84028926 6.09639527,7.98329752 5.81830743,8.05410744 C5.43890878,8.15233884 5.10189527,8.20093388 4.80795608,8.20093388 L2.352375,8.20093388 L3.29518581,2.81313223 L5.75111149,2.81313223 C6.2349223,2.81313223 6.61466554,2.87908264 6.88930743,3.01167769 C7.16394932,3.14392562 7.37725338,3.33379339 7.52818581,3.58128099 C7.68015203,3.8287686 7.77009122,4.11686777 7.80041554,4.4448843 C7.83039527,4.77324793 7.81316554,5.12104959 7.74907095,5.48863636 L7.74907095,5.48863636 Z M0.279983108,10.8174298 L21.6593209,10.8174298 L21.6593209,0.197677686 L0.279983108,0.197677686 L0.279983108,10.8174298 Z" id="Fill-8" fill="#FEFEFE" mask="url(#mask-5)"></path>
                    </g>
                    <path d="M34.4375777,30.7027289 L34.0254426,30.7027289 L33.5099291,33.6465471 L33.9148277,33.6465471 C34.2601115,33.6465471 34.5126993,33.6080182 34.6722466,33.5306132 C34.8317939,33.4535554 34.9696318,33.3188777 35.0857601,33.1262331 C35.2022331,32.9342826 35.2980304,32.6222331 35.3734966,32.1911256 C35.4737736,31.620481 35.449652,31.229638 35.3014764,31.0185967 C35.1536453,30.8082496 34.8655642,30.7027289 34.4375777,30.7027289" id="Fill-11" fill="#FEFEFE"></path>
                </g>
            </g>
        </g>
    </g>
</svg>