
<svg width="280px" height="69px" viewBox="0 0 280 69" version="1.1" xmlns="http://www.w3.org/2000/svg" xmlns:xlink="http://www.w3.org/1999/xlink">
    <!-- Generator: Sketch 43.2 (39069) - http://www.bohemiancoding.com/sketch -->
    <desc>Created with Sketch.</desc>
    <defs>
        <polygon id="path-1" points="24.64 0.033096 24.64 30.24 0 30.24 0 0.033096"></polygon>
    </defs>
    <g id="desktop-hd" stroke="none" stroke-width="1" fill="none" fill-rule="evenodd">
        <g id="Modal-Renovar-Profissional" transform="translate(-749.000000, -224.000000)">
            <g id="Título" transform="translate(749.000000, 222.000000)">
                <g id="Icone" transform="translate(5.000000, 0.000000)">
                    <g id="Group-3" transform="translate(15.853118, 21.243585) rotate(15.000000) translate(-15.853118, -21.243585) translate(3.533118, 6.123585)">
                        <mask id="mask-2" fill="white">
                            <use xlink:href="#path-1"></use>
                        </mask>
                        <g id="Clip-2"></g>
                        <path d="M22.699824,0.033096 L19.833184,0.033096 L19.833184,1.433096 L22.699824,1.433096 C22.997744,1.433096 23.240224,1.670256 23.240224,1.961736 L23.240224,28.311416 C23.240224,28.602896 22.997744,28.840056 22.699824,28.840056 L1.940064,28.840056 C1.642144,28.840056 1.399944,28.602896 1.399944,28.311416 L1.399944,1.961736 C1.399944,1.670256 1.642144,1.433096 1.940064,1.433096 L4.806704,1.433096 L4.806704,0.033096 L1.940064,0.033096 C0.868504,0.033096 -5.6e-05,0.896616 -5.6e-05,1.961736 L-5.6e-05,28.311416 C-5.6e-05,29.376536 0.868504,30.240056 1.940064,30.240056 L22.699824,30.240056 C23.771104,30.240056 24.640224,29.376536 24.640224,28.311416 L24.640224,1.961736 C24.640224,0.896616 23.771104,0.033096 22.699824,0.033096" id="Fill-1" fill="#FEFEFE" mask="url(#mask-2)"></path>
                    </g>
                    <path d="M20.0022316,6.12104487 C19.4996316,6.12104487 19.0922316,5.71364487 19.0922316,5.21104487 C19.0922316,4.70844487 19.4996316,4.30104487 20.0022316,4.30104487 C20.5048316,4.30104487 20.9122316,4.70844487 20.9122316,5.21104487 C20.9122316,5.71364487 20.5048316,6.12104487 20.0022316,6.12104487 M25.5089916,5.20936487 L23.1505516,5.20936487 C23.1497116,3.47140487 21.7404716,2.06272487 20.0022316,2.06272487 C18.2639916,2.06272487 16.8547516,3.47140487 16.8539116,5.20936487 L14.4954716,5.20936487 C14.1863516,5.20936487 13.9354716,5.46024487 13.9354716,5.76936487 L13.9354716,8.89612487 C13.9354716,9.20552487 14.1863516,9.45612487 14.4954716,9.45612487 L25.5089916,9.45612487 C25.8181116,9.45612487 26.0689916,9.20552487 26.0689916,8.89612487 L26.0689916,5.76936487 C26.0689916,5.46024487 25.8181116,5.20936487 25.5089916,5.20936487" id="Fill-4" fill="#FEFEFE" transform="translate(20.002232, 5.759425) rotate(15.000000) translate(-20.002232, -5.759425) "></path>
                    <path d="M26.8854552,14.8033927 C26.8854552,15.1167127 26.6314952,15.3706727 26.3181752,15.3706727 L17.7700552,15.3706727 C17.4567352,15.3706727 17.2024952,15.1167127 17.2024952,14.8033927 C17.2024952,14.4900727 17.4567352,14.2361127 17.7700552,14.2361127 L26.3181752,14.2361127 C26.6314952,14.2361127 26.8854552,14.4900727 26.8854552,14.8033927" id="Fill-6" fill="#FEFEFE" transform="translate(22.043975, 14.803393) rotate(15.000000) translate(-22.043975, -14.803393) "></path>
                    <path d="M23.6586419,16.7468796 C23.6586419,17.0601996 23.4046819,17.3141596 23.0913619,17.3141596 L17.2024019,17.3141596 C16.8890819,17.3141596 16.6351219,17.0601996 16.6351219,16.7468796 C16.6351219,16.4335596 16.8890819,16.1795996 17.2024019,16.1795996 L23.0913619,16.1795996 C23.4046819,16.1795996 23.6586419,16.4335596 23.6586419,16.7468796" id="Fill-8" fill="#FEFEFE" transform="translate(20.146882, 16.746880) rotate(15.000000) translate(-20.146882, -16.746880) "></path>
                    <path d="M24.9325299,22.0918092 C24.9325299,22.4051292 24.6785699,22.6590892 24.3652499,22.6590892 L15.8171299,22.6590892 C15.5038099,22.6590892 15.2495699,22.4051292 15.2495699,22.0918092 C15.2495699,21.7784892 15.5038099,21.5245292 15.8171299,21.5245292 L24.3652499,21.5245292 C24.6785699,21.5245292 24.9325299,21.7784892 24.9325299,22.0918092" id="Fill-10" fill="#FEFEFE" transform="translate(20.091050, 22.091809) rotate(15.000000) translate(-20.091050, -22.091809) "></path>
                    <path d="M21.7057601,24.0352738 C21.7057601,24.3485938 21.4518001,24.6025538 21.1384801,24.6025538 L15.2495201,24.6025538 C14.9362001,24.6025538 14.6822401,24.3485938 14.6822401,24.0352738 C14.6822401,23.7219538 14.9362001,23.4677138 15.2495201,23.4677138 L21.1384801,23.4677138 C21.4518001,23.4677138 21.7057601,23.7219538 21.7057601,24.0352738" id="Fill-12" fill="#FEFEFE" transform="translate(18.194000, 24.035134) rotate(15.000000) translate(-18.194000, -24.035134) "></path>
                    <path d="M22.9796771,29.3799553 C22.9796771,29.6932753 22.7257171,29.9472353 22.4123971,29.9472353 L13.8642771,29.9472353 C13.5509571,29.9472353 13.2967171,29.6932753 13.2967171,29.3799553 C13.2967171,29.0666353 13.5509571,28.8126753 13.8642771,28.8126753 L22.4123971,28.8126753 C22.7257171,28.8126753 22.9796771,29.0666353 22.9796771,29.3799553" id="Fill-14" fill="#FEFEFE" transform="translate(18.138197, 29.379955) rotate(15.000000) translate(-18.138197, -29.379955) "></path>
                    <path d="M19.752871,31.3234151 C19.752871,31.6367351 19.498911,31.8906951 19.185591,31.8906951 L13.296631,31.8906951 C12.983311,31.8906951 12.729351,31.6367351 12.729351,31.3234151 C12.729351,31.0100951 12.983311,30.7561351 13.296631,30.7561351 L19.185591,30.7561351 C19.498911,30.7561351 19.752871,31.0100951 19.752871,31.3234151" id="Fill-16" fill="#FEFEFE" transform="translate(16.241111, 31.323415) rotate(15.000000) translate(-16.241111, -31.323415) "></path>
                    <path d="M10.3407123,24.8473585 L6.4999523,24.8473585 C5.9214723,24.8473585 5.4524723,25.3163585 5.4524723,25.8948385 L5.4524723,29.7358785 C5.4524723,30.3143585 5.9214723,30.7833585 6.4999523,30.7833585 L10.3407123,30.7833585 C10.9191923,30.7833585 11.3881923,30.3143585 11.3881923,29.7358785 L11.3881923,25.8948385 C11.3881923,25.3163585 10.9191923,24.8473585 10.3407123,24.8473585 L10.3407123,24.8473585 Z M6.4999523,29.7358785 L10.3407123,29.7358785 L10.3407123,25.8948385 L6.4999523,25.8948385 L6.4999523,29.7358785 Z" id="Fill-18" fill="#FEFEFE" transform="translate(8.420332, 27.815358) rotate(15.000000) translate(-8.420332, -27.815358) "></path>
                    <path d="M15.2606533,12.6819551 L15.1788933,12.7715551 C14.9131733,13.0627551 14.6858133,13.4127551 14.4657333,13.7515551 C14.3923733,13.8643951 14.3198533,13.9738751 14.2464933,14.0816751 L14.2464933,15.1593951 L10.4057333,15.1593951 L10.4057333,11.3183551 L13.3020533,11.3183551 C13.3650533,11.2528351 13.4300133,11.1864751 13.4986133,11.1181551 C13.7542533,10.8636351 14.0546933,10.5682351 14.3825733,10.2843151 C14.3374933,10.2787151 14.2929733,10.2708751 14.2464933,10.2708751 L10.4057333,10.2708751 C9.8272533,10.2708751 9.3579733,10.7395951 9.3579733,11.3183551 L9.3579733,15.1593951 C9.3579733,15.7378751 9.8272533,16.2068751 10.4057333,16.2068751 L14.2464933,16.2068751 C14.8249733,16.2068751 15.2939733,15.7378751 15.2939733,15.1593951 L15.2939733,12.6455551 C15.2830533,12.6575951 15.2718533,12.6696351 15.2606533,12.6819551" id="Fill-20" fill="#FEFEFE" transform="translate(12.325973, 13.238875) rotate(15.000000) translate(-12.325973, -13.238875) "></path>
                    <path d="M15.2929442,12.3879674 C15.6684242,11.9800074 16.0523042,11.5908074 16.4714642,11.2273674 C16.5971842,11.1184474 17.5223042,10.4974074 17.1742642,10.2806874 C17.1434642,10.2613674 17.1000642,10.2543674 17.0521842,10.2543674 C16.9541842,10.2543674 16.8377042,10.2843274 16.7744242,10.3014074 C16.3317442,10.4220874 15.9097842,10.6866874 15.5421442,10.9529674 C15.0686642,11.2956874 14.6464242,11.7123274 14.2334242,12.1242074 C13.9128242,12.4434074 13.6039842,12.7788474 13.3396642,13.1473274 C13.3276242,13.1646874 13.0941042,13.4763274 13.1151042,13.4992874 C13.1137042,13.4976074 12.3999842,12.7222874 11.9150242,12.7222874 C11.8251442,12.7222874 11.7431042,12.7488874 11.6747842,12.8121674 C11.4941842,12.9793274 11.4779442,13.1915674 11.6115042,13.3914874 C11.7162242,13.5480074 11.8425042,13.6910874 11.9617842,13.8369674 C12.2835042,14.2295274 12.8667442,14.8959274 13.1151042,14.8959274 C13.6826642,14.8959274 14.1191842,13.6737274 14.9045842,12.8121674 C15.0339442,12.6707674 15.1630242,12.5288074 15.2929442,12.3879674" id="Fill-22" fill="#FEFEFE" transform="translate(14.387755, 12.575147) rotate(15.000000) translate(-14.387755, -12.575147) "></path>
                    <path d="M13.3077642,19.9703764 L13.2260042,20.0599764 C12.9602842,20.3511764 12.7329242,20.7008964 12.5128442,21.0399764 C12.4394842,21.1525364 12.3669642,21.2622964 12.2936042,21.3700964 L12.2936042,22.4475364 L8.45284421,22.4475364 L8.45284421,18.6067764 L11.3491642,18.6067764 C11.4121642,18.5412564 11.4771242,18.4746164 11.5457242,18.4065764 C11.8013642,18.1517764 12.1018042,17.8563764 12.4296842,17.5727364 C12.3846042,17.5668564 12.3400842,17.5592964 12.2936042,17.5592964 L8.45284421,17.5592964 C7.87436421,17.5592964 7.40508421,18.0280164 7.40508421,18.6067764 L7.40508421,22.4475364 C7.40508421,23.0262964 7.87436421,23.4950164 8.45284421,23.4950164 L12.2936042,23.4950164 C12.8720842,23.4950164 13.3410842,23.0262964 13.3410842,22.4475364 L13.3410842,19.9336964 C13.3301642,19.9460164 13.3189642,19.9580564 13.3077642,19.9703764" id="Fill-24" fill="#FEFEFE" transform="translate(10.373084, 20.527156) rotate(15.000000) translate(-10.373084, -20.527156) "></path>
                    <path d="M13.3400551,19.6761087 C13.7155351,19.2684287 14.0994151,18.8792287 14.5185751,18.5157887 C14.6442951,18.4068687 15.5694151,17.7858287 15.2213751,17.5691087 C15.1905751,17.5497887 15.1471751,17.5427887 15.0992951,17.5427887 C15.0012951,17.5427887 14.8848151,17.5724687 14.8215351,17.5898287 C14.3788551,17.7102287 13.9568951,17.9751087 13.5892551,18.2413887 C13.1157751,18.5841087 12.6935351,19.0007487 12.2805351,19.4123487 C11.9599351,19.7318287 11.6510951,20.0672687 11.3867751,20.4357487 C11.3747351,20.4528287 11.1412151,20.7647487 11.1622151,20.7877087 C11.1608151,20.7857487 10.4470951,20.0107087 9.96213508,20.0107087 C9.87225508,20.0107087 9.79021508,20.0373087 9.72189508,20.1005887 C9.54129508,20.2677487 9.52505508,20.4799887 9.65861508,20.6796287 C9.76333508,20.8364287 9.88961508,20.9795087 10.0088951,21.1251087 C10.3306151,21.5179487 10.9138551,22.1840687 11.1622151,22.1840687 C11.7297751,22.1840687 12.1662951,20.9621487 12.9516951,20.1005887 C13.0810551,19.9589087 13.2101351,19.8169487 13.3400551,19.6761087" id="Fill-26" fill="#FEFEFE" transform="translate(12.434865, 19.863429) rotate(15.000000) translate(-12.434865, -19.863429) "></path>
                </g>
                <text id="utilizando-meu-saldo" font-family="Avenir-Book, Avenir" font-size="20" font-weight="normal" fill="#FFFFFF">
                    <tspan x="56.28" y="70">utilizando meu saldo</tspan>
                </text>
                <path d="M0,44 L280,44" id="Linha" stroke="#FFFFFF"></path>
                <text id="RENOVAR-CONTRATO" font-family="Avenir-Medium, Avenir" font-size="20" font-weight="400" fill="#FFFFFF">
                    <tspan x="45" y="30">RENOVAR CONTRATO</tspan>
                </text>
            </g>
        </g>
    </g>
</svg>