<?xml version="1.0" encoding="UTF-8" standalone="no"?>
<svg width="27px" height="31px" viewBox="0 0 27 31" version="1.1" xmlns="http://www.w3.org/2000/svg" xmlns:xlink="http://www.w3.org/1999/xlink">
    <!-- Generator: Sketch 41.2 (35397) - http://www.bohemiancoding.com/sketch -->
    <title>Perfil - Scroll Agenciado</title>
    <desc>Created with Sketch.</desc>
    <defs></defs>
    <g id="Perfil---Mobile-(iPhone-4)" stroke="none" stroke-width="1" fill="none" fill-rule="evenodd">
        <g id="Perfil---Scroll-Agenciado" transform="translate(-148.000000, -3489.000000)" fill="#FFFFFF">
            <g id="Group-15" transform="translate(20.000000, 3494.000000)">
                <g id="Group" transform="translate(132.000000, 0.000000)">
                    <path d="M5.87645634,9.21063093 C5.72423411,9.21063093 5.51867856,9.28563093 5.40367856,9.49563093 C5.29478967,9.69507538 5.32145634,9.92674204 5.46867856,10.0745198 L10.738123,15.3434087 C11.4492341,16.0545198 11.4397897,17.2211865 10.7164563,17.9445198 L5.28423411,23.3761865 C5.12256745,23.5378532 5.078123,23.7822976 5.17756745,23.9706309 C5.29201189,24.1878532 5.49923411,24.2106309 5.58367856,24.2106309 C5.72201189,24.2106309 5.85478967,24.1539643 5.95756745,24.0511865 L13.0392341,16.9700754 C13.1475674,16.8611865 13.2086786,16.7200754 13.2109008,16.571742 C13.213123,16.4334087 13.1620119,16.3056309 13.068123,16.2111865 L6.19867856,9.34174204 C6.09034523,9.23340871 5.96367856,9.21063093 5.87645634,9.21063093 M5.58367856,25.8772976 C4.79034523,25.8772976 4.07090078,25.4456309 3.70478967,24.7506309 C3.26034523,23.906742 3.42201189,22.881742 4.10534523,22.1984087 L9.538123,16.7661865 C9.61034523,16.6939643 9.61978967,16.5822976 9.55978967,16.521742 L4.28978967,11.2522976 C3.62478967,10.586742 3.48090078,9.53618649 3.94145634,8.6972976 C4.33201189,7.98507538 5.073123,7.54396427 5.87645634,7.54396427 C6.44423411,7.54396427 6.97701189,7.76396427 7.37701189,8.16340871 L14.2459008,15.0322976 C14.6614563,15.4484087 14.8864563,16.0039643 14.8770119,16.596742 C14.8686786,17.1806309 14.6342341,17.731742 14.2175674,18.1484087 L7.13645634,25.2295198 C6.71867856,25.6472976 6.16645634,25.8772976 5.58367856,25.8772976" id="Fill-3" transform="translate(9.166667, 16.710631) rotate(-90.000000) translate(-9.166667, -16.710631) "></path>
                    <path d="M5.87645634,-1.78936907 C5.72423411,-1.78936907 5.51867856,-1.71436907 5.40367856,-1.50436907 C5.29478967,-1.30492462 5.32145634,-1.07325796 5.46867856,-0.925480179 L10.738123,4.34340871 C11.4492341,5.05451982 11.4397897,6.22118649 10.7164563,6.94451982 L5.28423411,12.3761865 C5.12256745,12.5378532 5.078123,12.7822976 5.17756745,12.9706309 C5.29201189,13.1878532 5.49923411,13.2106309 5.58367856,13.2106309 C5.72201189,13.2106309 5.85478967,13.1539643 5.95756745,13.0511865 L13.0392341,5.97007538 C13.1475674,5.86118649 13.2086786,5.72007538 13.2109008,5.57174204 C13.213123,5.43340871 13.1620119,5.30563093 13.068123,5.21118649 L6.19867856,-1.65825796 C6.09034523,-1.76659129 5.96367856,-1.78936907 5.87645634,-1.78936907 M5.58367856,14.8772976 C4.79034523,14.8772976 4.07090078,14.4456309 3.70478967,13.7506309 C3.26034523,12.906742 3.42201189,11.881742 4.10534523,11.1984087 L9.538123,5.76618649 C9.61034523,5.69396427 9.61978967,5.5822976 9.55978967,5.52174204 L4.28978967,0.252297599 C3.62478967,-0.413257956 3.48090078,-1.46381351 3.94145634,-2.3027024 C4.33201189,-3.01492462 5.073123,-3.45603573 5.87645634,-3.45603573 C6.44423411,-3.45603573 6.97701189,-3.23603573 7.37701189,-2.83659129 L14.2459008,4.0322976 C14.6614563,4.44840871 14.8864563,5.00396427 14.8770119,5.59674204 C14.8686786,6.18063093 14.6342341,6.73174204 14.2175674,7.14840871 L7.13645634,14.2295198 C6.71867856,14.6472976 6.16645634,14.8772976 5.58367856,14.8772976" id="Fill-3-Copy" transform="translate(9.166667, 5.710631) rotate(-90.000000) translate(-9.166667, -5.710631) "></path>
                </g>
            </g>
        </g>
    </g>
</svg>