<?xml version="1.0" encoding="UTF-8" standalone="no"?>
<svg width="52px" height="53px" viewBox="0 0 52 53" version="1.1" xmlns="http://www.w3.org/2000/svg" xmlns:xlink="http://www.w3.org/1999/xlink">
    <!-- Generator: Sketch 41 (35326) - http://www.bohemiancoding.com/sketch -->
    <title>&lt;3</title>
    <desc>Created with Sketch.</desc>
    <defs>
        <filter x="-50%" y="-50%" width="200%" height="200%" filterUnits="objectBoundingBox" id="filter-1">
            <feOffset dx="0" dy="2" in="SourceAlpha" result="shadowOffsetOuter1"></feOffset>
            <feGaussianBlur stdDeviation="2" in="shadowOffsetOuter1" result="shadowBlurOuter1"></feGaussianBlur>
            <feColorMatrix values="0 0 0 0 0   0 0 0 0 0   0 0 0 0 0  0 0 0 0.5 0" type="matrix" in="shadowBlurOuter1" result="shadowMatrixOuter1"></feColorMatrix>
            <feMerge>
                <feMergeNode in="shadowMatrixOuter1"></feMergeNode>
                <feMergeNode in="SourceGraphic"></feMergeNode>
            </feMerge>
        </filter>
        <polyline id="path-2" points="9.75 12.2857143 32.1868875 12.2857143 32.1868875 31.3815957 9.75 31.3815957"></polyline>
    </defs>
    <g id="Perfil---Mobile-(iPhone-4)" stroke="none" stroke-width="1" fill="none" fill-rule="evenodd">
        <g id="Perfil---Scroll-Busca" transform="translate(-243.000000, -335.000000)">
            <g id="Group" transform="translate(20.000000, 72.000000)">
                <g id="&lt;3" filter="url(#filter-1)" transform="translate(228.000000, 266.000000)">
                    <ellipse id="Oval-9-Copy" stroke="#FFFFFF" stroke-width="2.1168" cx="21" cy="21.5" rx="21" ry="21.5"></ellipse>
                    <mask id="mask-3" fill="white">
                        <use xlink:href="#path-2"></use>
                    </mask>
                    <g id="Clip-2"></g>
                    <path d="M29.75286,22.3923647 C29.1090225,23.4115312 27.2932725,25.2948881 25.23486,27.0785173 C22.7808975,29.2055752 21.3276225,30.0436632 20.9790975,30.0770228 C20.631135,30.0390982 19.17471,29.1928166 16.708485,27.0616619 C14.63826,25.2728825 12.81981,23.3959634 12.18351,22.3918965 C11.3727225,21.1117054 11.04096,19.953833 11.1085725,18.6375901 C11.24616,15.9650727 13.38096,13.7909601 15.866985,13.7909601 C17.766885,13.7909601 19.147035,15.4265192 19.88886,16.305224 C20.3247975,16.8220059 20.56476,17.1063238 20.968635,17.1063238 C21.3852225,17.1063238 21.65421,16.8014049 22.14246,16.2476347 C22.9518975,15.3286643 24.306285,13.7909601 26.069835,13.7909601 C28.5561975,13.7909601 30.69066,15.9650727 30.8282475,18.6375901 C30.89676,19.9685815 30.5751225,21.0915726 29.75286,22.3923647 M32.1764475,18.5626772 C32.0916225,16.9170517 31.42236,15.3720903 30.2911725,14.212111 C29.142885,13.034691 27.643935,12.3863434 26.069835,12.3863434 C23.7126225,12.3863434 22.0435725,14.2807031 21.14706,15.298465 C21.0960975,15.3565225 21.041085,15.4186768 20.987535,15.4786071 C20.9590725,15.4447792 20.930385,15.4109514 20.90316,15.3788793 C20.083485,14.4073527 18.377985,12.3863434 15.867435,12.3863434 C14.2934475,12.3863434 12.793935,13.034691 11.645985,14.212111 C10.51491,15.3720903 9.8451975,16.9170517 9.7608225,18.5626772 C9.6768975,20.1981193 10.0762725,21.6173674 11.05626,23.1646698 C11.9347725,24.5513777 14.2221225,26.7443355 15.91356,28.2005719 C17.6524725,29.6975422 19.9425225,31.4821077 20.97831,31.4821077 C22.02996,31.4821077 24.3120225,29.7011708 26.04126,28.207478 C27.719985,26.7575623 29.99451,24.5664773 30.8808975,23.1642016 C31.5405975,22.1208055 32.28411,20.6545027 32.1764475,18.5626772" id="Fill-1" fill="#FFFFFF" mask="url(#mask-3)"></path>
                </g>
            </g>
        </g>
    </g>
</svg>