<?xml version="1.0" encoding="UTF-8" standalone="no"?>
<svg width="44px" height="38px" viewBox="0 0 44 38" version="1.1" xmlns="http://www.w3.org/2000/svg" xmlns:xlink="http://www.w3.org/1999/xlink">
    <!-- Generator: Sketch 41.2 (35397) - http://www.bohemiancoding.com/sketch -->
    <title>Perfil - Scroll Agenciado</title>
    <desc>Created with Sketch.</desc>
    <defs></defs>
    <g id="Perfil---Mobile-(iPhone-4)" stroke="none" stroke-width="1" fill="none" fill-rule="evenodd">
        <g id="Perfil---Scroll-Agenciado" transform="translate(-18.000000, -2453.000000)" fill="#FFFFFF">
            <g id="Group-15" transform="translate(20.000000, 2457.000000)">
                <g id="Group-13-Copy">
                    <g id="Page-1" transform="translate(1.000000, 0.000000)">
                        <path d="M22.5858211,18.6651697 C19.1346505,18.6651697 17.1383542,13.0822756 17.1383542,13.0822756 C17.1383542,13.0822756 17.9165228,10.9845165 18.4917657,9.96945784 C19.0670086,8.95439922 21.1985887,7.66877294 21.1985887,7.66877294 C21.9429363,8.85293635 22.6196421,9.25893114 23.6347007,9.83417402 C24.6497594,10.4094169 26.8491247,10.307954 27.4581885,10.5785217 C28.0672524,10.8492326 28.6423519,11.6950432 28.6423519,11.6950432 C28.1685719,13.8266233 26.0369918,18.6651697 22.5858211,18.6651697 M25.3863683,20.008263 C24.8932416,20.965998 24.047861,22.0148775 23.5899883,22.8268671 C23.1319723,23.6388567 22.6037348,25.4998692 22.6037348,25.4998692 C22.6037348,25.4998692 22.0752107,23.6388567 21.617338,22.8268671 C21.159322,22.0148775 20.3140847,20.965998 19.8209579,20.008263 C19.3276879,19.050528 19.8209579,18.6651697 19.8209579,18.6651697 C19.8209579,18.6651697 21.194576,19.7816912 22.6037348,19.7816912 C24.0126069,19.7816912 25.3863683,18.6651697 25.3863683,18.6651697 C25.3863683,18.6651697 25.8796384,19.050528 25.3863683,20.008263 M34.681829,25.2293015 C34.5085682,24.0451381 33.7344122,22.8268671 33.0238855,22.1163404 C32.3133588,21.4058137 30.2155997,20.5260389 30.2155997,20.5260389 C31.5012259,20.661466 32.2457169,20.0862232 32.2457169,20.0862232 C30.2832416,18.1913897 29.0651139,13.8605876 29.0314363,13.2515237 C28.9976153,12.6424599 29.3020039,10.8830536 29.3020039,9.36039401 C29.3020039,7.83773441 26.6967871,4.09378318 22.7718364,4.09378318 C18.8468857,4.09378318 16.2415256,7.83773441 16.2415256,9.36039401 C16.2415256,10.8830536 16.5460575,12.6424599 16.5122366,13.2515237 C16.4784156,13.8605876 15.2604312,18.1913897 13.2979559,20.0862232 C13.2979559,20.0862232 14.0423036,20.661466 15.3280731,20.5260389 C15.3280731,20.5260389 13.2301707,21.4058137 12.519644,22.1163404 C11.8091173,22.8268671 11.0349613,24.0451381 10.8617005,25.2293015 C10.6884398,26.4133216 10.5571686,27.7667331 11.0309486,28.1389069 C11.5047286,28.5112241 11.6400125,28.4944569 12.0460073,28.4944569 L22.7718364,28.4944569 L33.4976655,28.4944569 C33.9036603,28.4944569 34.0389442,28.5112241 34.5127242,28.1389069 C34.9863609,27.7667331 34.8550897,26.4133216 34.681829,25.2293015" id="Fill-1"></path>
                        <path d="M22.5858211,18.6651697 C19.1346505,18.6651697 17.1383542,13.0822756 17.1383542,13.0822756 C17.1383542,13.0822756 17.9165228,10.9845165 18.4917657,9.96945784 C19.0670086,8.95439922 21.1985887,7.66877294 21.1985887,7.66877294 C21.9429363,8.85293635 22.6196421,9.25893114 23.6347007,9.83417402 C24.6497594,10.4094169 26.8491247,10.307954 27.4581885,10.5785217 C28.0672524,10.8492326 28.6423519,11.6950432 28.6423519,11.6950432 C28.1685719,13.8266233 26.0369918,18.6651697 22.5858211,18.6651697 M25.3863683,20.008263 C24.8932416,20.965998 24.047861,22.0148775 23.5899883,22.8268671 C23.1319723,23.6388567 22.6037348,25.4998692 22.6037348,25.4998692 C22.6037348,25.4998692 22.0752107,23.6388567 21.617338,22.8268671 C21.159322,22.0148775 20.3140847,20.965998 19.8209579,20.008263 C19.3276879,19.050528 19.8209579,18.6651697 19.8209579,18.6651697 C19.8209579,18.6651697 21.194576,19.7816912 22.6037348,19.7816912 C24.0126069,19.7816912 25.3863683,18.6651697 25.3863683,18.6651697 C25.3863683,18.6651697 25.8796384,19.050528 25.3863683,20.008263 M34.681829,25.2293015 C34.5085682,24.0451381 33.7344122,22.8268671 33.0238855,22.1163404 C32.3133588,21.4058137 30.2155997,20.5260389 30.2155997,20.5260389 C31.5012259,20.661466 32.2457169,20.0862232 32.2457169,20.0862232 C30.2832416,18.1913897 29.0651139,13.8605876 29.0314363,13.2515237 C28.9976153,12.6424599 29.3020039,10.8830536 29.3020039,9.36039401 C29.3020039,7.83773441 26.6967871,4.09378318 22.7718364,4.09378318 C18.8468857,4.09378318 16.2415256,7.83773441 16.2415256,9.36039401 C16.2415256,10.8830536 16.5460575,12.6424599 16.5122366,13.2515237 C16.4784156,13.8605876 15.2604312,18.1913897 13.2979559,20.0862232 C13.2979559,20.0862232 14.0423036,20.661466 15.3280731,20.5260389 C15.3280731,20.5260389 13.2301707,21.4058137 12.519644,22.1163404 C11.8091173,22.8268671 11.0349613,24.0451381 10.8617005,25.2293015 C10.6884398,26.4133216 10.5571686,27.7667331 11.0309486,28.1389069 C11.5047286,28.5112241 11.6400125,28.4944569 12.0460073,28.4944569 L22.7718364,28.4944569 L33.4976655,28.4944569 C33.9036603,28.4944569 34.0389442,28.5112241 34.5127242,28.1389069 C34.9863609,27.7667331 34.8550897,26.4133216 34.681829,25.2293015" id="Fill-3"></path>
                        <path d="M14.422861,15.3337912 C14.7756881,14.4015652 15.0055559,13.5872827 15.0706183,13.2235641 C14.0604322,14.3600056 13.1082862,14.9371115 12.3180797,14.9371115 C11.1832146,14.9371115 9.24782468,14.189611 7.75225051,11.506434 C6.25681965,8.82325703 6.43265997,7.23983436 6.43265997,7.23983436 C6.43265997,7.23983436 7.00575321,5.12860413 8.1487869,5.04046901 C8.1487869,5.04046901 7.48827508,7.10784664 7.97208673,7.5918016 C7.97208673,7.5918016 9.07184106,5.43628885 10.4354275,4.77649358 C10.4354275,4.77649358 9.33581649,6.57989578 9.81962814,8.515429 C9.81962814,8.515429 11.8152079,5.11914573 13.1049901,4.56969849 C13.1049901,4.56969849 14.0125669,4.66514238 14.6097361,4.92797134 C15.1915712,5.18406477 15.864121,5.55179602 16.5168941,5.68091755 C17.0263581,5.09220361 17.6388613,4.53659408 18.3369202,4.06525033 C17.1076144,0.0265121906 12.3180797,0.00788200261 12.3180797,0.00788200261 C12.3180797,0.00788200261 5.86787865,-0.469910664 5.86787865,6.07444444 C5.86787865,12.6187996 9.83281258,16.0822948 12.3180797,16.0822948 C12.9603912,16.0822948 13.6914111,15.8219021 14.422861,15.3337912" id="Fill-5"></path>
                        <g id="Group-9" transform="translate(0.000000, 14.880218)">
                            <path d="M11.5062907,6.22261176 C11.6109064,6.1181394 11.7321459,6.01352373 11.8652801,5.90991122 L11.1098976,5.32635641 L12.3026596,4.17486749 C12.6503276,3.83923748 12.9776456,3.38996334 13.2774484,2.88852466 C12.9896836,2.96146901 12.6716806,3.00403183 12.318137,3.00403183 C9.3357305,3.00403183 8.80792295,0.0570227061 8.80792295,0.0570227061 C8.80792295,0.0570227061 4.76130281,1.42060916 3.44171227,2.21253546 C2.12212172,3.00403183 0.626547553,4.71958552 0.318719524,6.12716788 C0.0107481854,7.53446361 -0.209231342,8.98776159 0.318719524,9.33786581 C0.84652708,9.68839996 1.46218314,9.68839996 2.16597432,9.68839996 L9.53235064,9.68839996 C9.86640424,8.26419375 10.7433129,6.98573292 11.5062907,6.22261176" id="Fill-7"></path>
                        </g>
                    </g>
                </g>
            </g>
        </g>
    </g>
</svg>