<?xml version="1.0" encoding="UTF-8" standalone="no"?>
<svg width="25px" height="20px" viewBox="0 0 25 20" version="1.1" xmlns="http://www.w3.org/2000/svg" xmlns:xlink="http://www.w3.org/1999/xlink">
    <!-- Generator: Sketch 41.2 (35397) - http://www.bohemiancoding.com/sketch -->
    <title>Perfil - Scroll Agenciado</title>
    <desc>Created with Sketch.</desc>
    <defs></defs>
    <g id="Perfil---Mobile-(iPhone-4)" stroke="none" stroke-width="1" fill="none" fill-rule="evenodd">
        <g id="Perfil---Scroll-Agenciado" transform="translate(-29.000000, -3119.000000)" fill="#FFFFFF">
            <g id="Group-15-Copy" transform="translate(20.000000, 2866.000000)">
                <g id="Group-4" transform="translate(10.000000, 216.000000)">
                    <path d="M20.9906733,44.2828532 C20.9150614,42.8752871 20.3184898,41.5538229 19.3101645,40.5616485 C18.2865965,39.5545564 16.9504526,39 15.5473211,39 C13.4461336,39 11.9583649,40.6203179 11.1592258,41.4908484 C11.1137985,41.5405071 11.0647611,41.5936701 11.0170273,41.6449307 C10.9916562,41.6159965 10.9660846,41.5870622 10.9418166,41.5596298 C10.2111693,40.7286462 8.69090958,39 6.45303912,39 C5.05000786,39 3.71336261,39.5545564 2.69009543,40.5616485 C1.68187041,41.5538229 1.08489771,42.8752871 1.00968697,44.2828532 C0.934877352,45.681709 1.29087485,46.8956459 2.16442251,48.2191124 C2.94751672,49.4052164 4.98642971,51.2809366 6.49415432,52.526511 C8.04419751,53.8069266 10.0855172,55.3333333 11.0088043,55.3333333 C11.9462309,55.3333333 13.9804307,53.8100302 15.5218497,52.532418 C17.0182426,51.29225 19.0457235,49.4181317 19.8358374,48.2187119 C20.4238851,47.3262556 21.0866422,46.072071 20.9906733,44.2828532" id="Path"></path>
                </g>
            </g>
        </g>
    </g>
</svg>