<?xml version="1.0" encoding="UTF-8" standalone="no"?>
<svg width="21px" height="31px" viewBox="0 0 21 31" version="1.1" xmlns="http://www.w3.org/2000/svg" xmlns:xlink="http://www.w3.org/1999/xlink">
    <!-- Generator: Sketch 41.2 (35397) - http://www.bohemiancoding.com/sketch -->
    <title>Perfil - Scroll Agenciado</title>
    <desc>Created with Sketch.</desc>
    <defs>
        <polygon id="path-1" points="4.07948521 0.1205 0.1233 0.1205 0.1233 7.63165 4.07948521 7.63165 4.07948521 0.1205"></polygon>
    </defs>
    <g id="Perfil---Mobile-(iPhone-4)" stroke="none" stroke-width="1" fill="none" fill-rule="evenodd">
        <g id="Perfil---Scroll-Agenciado" transform="translate(-43.000000, -511.000000)">
            <g id="Group-18" transform="translate(20.000000, 421.000000)">
                <g id="Group-18-Copy">
                    <g id="Group-17" transform="translate(21.000000, 86.000000)">
                        <g id="Page-1" transform="translate(5.000000, 7.000000)">
                            <g id="Group-3" transform="translate(0.000000, 0.879650)" fill="#FEFEFE">
                                <path d="M7.50295,17.11205 C7.91145,17.75955 8.52395,17.75955 9.40845,17.11205 C10.02195,18.66705 12.81245,23.85205 12.81245,23.85205 C12.81245,23.85205 10.99995,24.58855 8.41295,22.77405 C6.73845,21.59955 3.39995,18.06805 1.42095,13.11205 C0.34395,10.41455 -5e-05,7.47505 -5e-05,4.13855 C0.06795,1.22255 1.30995,0.39105 2.60295,0.00255 L4.91645,7.32555 C4.91645,7.32555 3.29995,7.85455 3.98045,9.92855 C3.98045,9.92855 4.60295,13.62055 7.50295,17.11205" id="Fill-1"></path>
                            </g>
                            <g id="Group-6" transform="translate(3.500000, 0.379650)">
                                <mask id="mask-2" fill="white">
                                    <use xlink:href="#path-1"></use>
                                </mask>
                                <g id="Clip-5"></g>
                                <path d="M0.1233,0.24315 C0.1233,0.24315 2.0968,-0.46985 3.1178,1.53965 C4.1393,3.54865 4.8873,6.65965 2.4373,7.63165 C1.7568,5.75215 0.1233,0.24315 0.1233,0.24315" id="Fill-4" fill="#FEFEFE" mask="url(#mask-2)"></path>
                            </g>
                            <g id="Group-9" transform="translate(10.000000, 16.879650)" fill="#FEFEFE">
                                <path d="M0.4961,0.68895 L4.0376,7.33345 C4.0376,7.33345 6.0796,5.84245 5.2626,4.35245 C4.4461,2.86145 3.4956,0.99645 3.4956,0.99645 C3.4956,0.99645 2.5341,-0.46455 0.4961,0.68895" id="Fill-7"></path>
                            </g>
                        </g>
                    </g>
                </g>
            </g>
        </g>
    </g>
</svg>