<?xml version="1.0" encoding="UTF-8" standalone="no"?>
<svg width="51px" height="52px" viewBox="0 0 51 52" version="1.1" xmlns="http://www.w3.org/2000/svg" xmlns:xlink="http://www.w3.org/1999/xlink">
    <!-- Generator: Sketch 41.2 (35397) - http://www.bohemiancoding.com/sketch -->
    <title>Perfil - Scroll Agenciado</title>
    <desc>Created with Sketch.</desc>
    <defs>
        <polygon id="path-1" points="46.25 44.999375 46.25 0 0.0005 0 0.0005 44.999375 46.25 44.999375"></polygon>
    </defs>
    <g id="Perfil---Mobile-(iPhone-4)" stroke="none" stroke-width="1" fill="none" fill-rule="evenodd">
        <g id="Perfil---Scroll-Agenciado" transform="translate(-98.000000, -686.000000)">
            <g id="Group-18" transform="translate(20.000000, 421.000000)">
                <g id="Group-18-Copy">
                    <g id="Group-16" transform="translate(21.000000, 269.000000)">
                        <g id="Page-1" transform="translate(60.000000, 0.000000)">
                            <g id="Group-3">
                                <mask id="mask-2" fill="white">
                                    <use xlink:href="#path-1"></use>
                                </mask>
                                <g id="Clip-2"></g>
                                <path d="M40.133,29.555625 C40.0505,31.375625 39.7605,32.619375 39.33675,33.708125 C38.9005,34.833125 38.3155,35.788125 37.363,36.739375 C36.41175,37.689375 35.458,38.275625 34.33175,38.713125 C33.24425,39.135625 32.00175,39.424375 30.17925,39.506875 C28.3555,39.591875 27.7705,39.609375 23.1255,39.609375 C18.47925,39.609375 17.89425,39.591875 16.07175,39.506875 C14.24925,39.424375 13.0055,39.135625 11.918,38.713125 C10.79175,38.275625 9.838,37.689375 8.88675,36.739375 C7.93425,35.788125 7.34925,34.833125 6.913,33.708125 C6.48925,32.619375 6.2005,31.375625 6.11675,29.555625 C6.03425,27.729375 6.01425,27.146875 6.01425,22.500625 C6.01425,17.853125 6.03425,17.270625 6.11675,15.445625 C6.2005,13.624375 6.48925,12.380625 6.913,11.291875 C7.34925,10.166875 7.93425,9.211875 8.88675,8.261875 C9.838,7.310625 10.79175,6.724375 11.918,6.288125 C13.0055,5.864375 14.24925,5.575625 16.07175,5.493125 C17.89425,5.410625 18.47925,5.389375 23.1255,5.389375 C27.7705,5.389375 28.3555,5.410625 30.17925,5.493125 C32.00175,5.575625 33.24425,5.864375 34.33175,6.288125 C35.458,6.724375 36.41175,7.310625 37.363,8.261875 C38.3155,9.211875 38.9005,10.166875 39.33675,11.291875 C39.7605,12.380625 40.0505,13.624375 40.133,15.445625 C40.2155,17.270625 40.2355,17.853125 40.2355,22.500625 C40.2355,27.146875 40.2155,27.729375 40.133,29.555625 M39.988,-0.000625 L6.26175,-0.000625 C2.788,-0.000625 0.0005,2.801875 0.0005,6.256875 L0.0005,38.743125 C0.0005,42.201875 2.803,44.999375 6.26175,44.999375 L39.988,44.999375 C43.46175,44.999375 46.2505,42.198125 46.2505,38.743125 L46.2505,6.256875 C46.2505,2.798125 43.44675,-0.000625 39.988,-0.000625" id="Fill-1" fill="#FEFEFE" mask="url(#mask-2)"></path>
                            </g>
                            <path d="M23.125,16.796875 C19.975,16.796875 17.4225,19.349375 17.4225,22.500625 C17.4225,25.650625 19.975,28.203125 23.125,28.203125 C26.275,28.203125 28.82875,25.650625 28.82875,22.500625 C28.82875,19.349375 26.275,16.796875 23.125,16.796875" id="Fill-4" fill="#FEFEFE"></path>
                            <path d="M32.2595,15.419875 C31.1245,15.419875 30.2045,14.499875 30.2045,13.366125 C30.2045,12.233625 31.1245,11.312375 32.2595,11.312375 C33.392,11.312375 34.312,12.233625 34.312,13.366125 C34.312,14.499875 33.392,15.419875 32.2595,15.419875 M23.1245,31.287375 C18.27325,31.287375 14.33825,27.351125 14.33825,22.501125 C14.33825,17.648625 18.27325,13.713625 23.1245,13.713625 C27.977,13.713625 31.912,17.648625 31.912,22.501125 C31.912,27.351125 27.977,31.287375 23.1245,31.287375 M37.05325,15.586125 C36.977,13.917375 36.69825,13.011125 36.46325,12.408625 C36.15325,11.609875 35.782,11.039875 35.18325,10.441125 C34.5845,9.842375 34.0145,9.472375 33.217,9.161125 C32.61325,8.927375 31.70825,8.648625 30.0395,8.572375 C28.2345,8.489875 27.6945,8.472375 23.1245,8.472375 C18.55575,8.472375 18.0145,8.489875 16.21075,8.572375 C14.54325,8.648625 13.63825,8.927375 13.03325,9.161125 C12.2345,9.472375 11.6645,9.842375 11.067,10.441125 C10.467,11.039875 10.097,11.609875 9.78575,12.408625 C9.552,13.011125 9.27325,13.917375 9.197,15.586125 C9.1145,17.391125 9.097,17.931125 9.097,22.501125 C9.097,27.068625 9.1145,27.608625 9.197,29.413625 C9.27325,31.082375 9.552,31.988625 9.78575,32.592375 C10.097,33.389875 10.467,33.961125 11.067,34.558625 C11.6645,35.158625 12.2345,35.528625 13.03325,35.838625 C13.63825,36.073625 14.54325,36.351125 16.21075,36.428625 C18.0145,36.511125 18.55575,36.527375 23.1245,36.527375 C27.6945,36.527375 28.2345,36.511125 30.0395,36.428625 C31.70825,36.351125 32.61325,36.073625 33.217,35.838625 C34.0145,35.528625 34.5845,35.158625 35.18325,34.558625 C35.782,33.961125 36.15325,33.389875 36.46325,32.592375 C36.69825,31.988625 36.977,31.082375 37.05325,29.413625 C37.1345,27.608625 37.15325,27.068625 37.15325,22.501125 C37.15325,17.931125 37.1345,17.391125 37.05325,15.586125" id="Fill-6" fill="#FEFEFE"></path>
                        </g>
                    </g>
                </g>
            </g>
        </g>
    </g>
</svg>