<?xml version="1.0" encoding="UTF-8" standalone="no"?>
<svg width="36px" height="30px" viewBox="0 0 36 30" version="1.1" xmlns="http://www.w3.org/2000/svg" xmlns:xlink="http://www.w3.org/1999/xlink">
    <!-- Generator: Sketch 43.1 (39012) - http://www.bohemiancoding.com/sketch -->
    <title>Cachê</title>
    <desc>Created with Sketch.</desc>
    <defs>
        <polyline id="path-1" points="0 0.259366126 35.7917586 0.259366126 35.7917586 28.5396825 0 28.5396825"></polyline>
    </defs>
    <g id="zz" stroke="none" stroke-width="1" fill="none" fill-rule="evenodd">
        <g id="Perfil---Scroll-Agenciado" transform="translate(-19.000000, -1644.000000)">
            <g id="Group-30-Copy" transform="translate(19.000000, 1644.000000)">
                <g id="Group-20">
                    <g id="Cachê" transform="translate(0.000000, 0.601266)">
                        <mask id="mask-2" fill="white">
                            <use xlink:href="#path-1"></use>
                        </mask>
                        <g id="Clip-2"></g>
                        <path d="M21.1072345,3.86072908 C20.8732345,3.94038929 20.6199931,3.81211753 20.5411655,3.57564587 C20.4669931,3.35266 20.1954414,3.09203939 19.6709586,3.09203939 C19.2532345,3.09203939 19.0062,3.37022289 18.9779586,3.64652465 C18.9407172,3.99150982 19.2358552,4.26279362 19.7628207,4.37569785 C20.9697517,4.63004601 21.3213724,5.45393333 21.2580621,6.08149273 C21.1925793,6.71312922 20.7314069,7.21241685 20.1190966,7.38271408 L20.1190966,7.75843429 C20.1190966,8.00995985 19.9201655,8.21161936 19.6709586,8.21161936 C19.4239241,8.21161936 19.2249931,8.00995985 19.2249931,7.75843429 L19.2249931,7.40027696 C18.5077862,7.25444232 18.0947172,6.77303119 17.9547517,6.34869942 C17.8762345,6.11003241 18.0028552,5.85380251 18.2365448,5.7741423 C18.4705448,5.69667745 18.7240966,5.82306747 18.8029241,6.06173448 C18.8770966,6.28440673 19.1483379,6.54283199 19.6709586,6.54283199 C20.0908552,6.54283199 20.3378897,6.26464849 20.366131,5.98866035 C20.4012,5.6439888 20.1082345,5.37207776 19.5790966,5.25948714 C18.3740276,5.00545261 18.0224069,4.18125167 18.0857172,3.55369227 C18.1518207,2.92174216 18.6126828,2.42245453 19.2249931,2.25247092 L19.2249931,1.87675071 C19.2249931,1.62710689 19.4239241,1.42387926 19.6709586,1.42387926 C19.9201655,1.42387926 20.1190966,1.62710689 20.1190966,1.87675071 L20.1190966,2.23459442 C20.8363034,2.38293804 21.2493724,2.86246743 21.3893379,3.28836731 C21.4681655,3.52483897 21.3412345,3.78169611 21.1072345,3.86072908 M19.6709586,0.259397488 C17.1984414,0.259397488 15.1936138,2.28540133 15.1936138,4.78434847 C15.1936138,7.28329562 17.1984414,9.30929946 19.6709586,9.30929946 C22.1459586,9.30929946 24.1486138,7.28329562 24.1486138,4.78434847 C24.1486138,2.28540133 22.1459586,0.259397488 19.6709586,0.259397488 M30.7949586,9.00665338 C30.6593379,8.73066524 30.6615103,8.5315147 30.7338207,8.47819881 C30.7642345,8.45624521 30.8079931,8.44338667 30.8626138,8.44338667 C30.9740276,8.44338667 31.1316828,8.50046604 31.2868552,8.6575911 C31.6934069,9.07063244 31.9360966,9.53228533 31.9643379,9.94093595 C31.4398552,9.76467989 31.0025793,9.42408544 30.7949586,9.00665338 M8.70213103,12.2498276 C8.08330345,12.2498276 7.58271724,11.7439539 7.58271724,11.1185899 C7.58271724,10.4935395 8.08330345,9.98735214 8.70213103,9.98735214 C9.32064828,9.98735214 9.82154483,10.4935395 9.82154483,11.1185899 C9.82154483,11.7439539 9.32064828,12.2498276 8.70213103,12.2498276 M35.4910966,8.97090037 C35.1826138,8.76328202 34.7673724,8.84764657 34.5597517,9.15876047 C34.2099931,9.69160576 33.7264759,9.92117771 33.3112345,10.0140101 C33.3090621,9.22305317 32.9310621,8.39916585 32.2355793,7.69853232 C31.5733034,7.02926108 30.6134069,6.89408962 29.9486483,7.37832336 C29.4545793,7.73867605 29.0632345,8.54029615 29.5945448,9.61163192 C29.9247517,10.2815304 30.5324069,10.8134348 31.2759931,11.1276849 C31.1357172,11.2296124 30.9718552,11.3236992 30.7903034,11.4171589 C30.3880966,11.6203865 29.9750276,11.7417586 29.5771655,11.8126373 C28.6085793,9.81736853 26.8616483,8.11188728 24.6184759,6.90538005 C23.7985448,8.84984193 21.8899241,10.2150424 19.6709586,10.2150424 C16.8244759,10.2150424 14.4937862,7.9613483 14.3165793,5.12682466 C14.0369586,5.15536435 13.7635448,5.18421765 13.4944759,5.21965704 C11.8130276,4.11915433 8.69095862,2.76524434 5.56671724,2.97505805 C5.71133793,4.2872562 6.50923448,5.97329283 7.53492414,7.18795426 C5.5449931,8.42990089 4.2642,10.1266007 3.61682069,12.0886255 C2.8602,12.4245156 2.04244138,12.6390336 1.12909655,12.7005037 C0.461855172,12.7469199 -0.0430758621,13.3261814 0.00285517241,13.9998433 C0.127924138,15.7404503 0.6372,18.7054411 2.65723448,19.4898119 C3.03554483,19.6384692 3.63885517,19.7244018 4.35792414,19.7705044 C5.21261379,21.18463 6.47013103,22.428772 8.02216552,23.4144887 C7.76209655,24.7241779 7.44057931,26.0476665 7.04488966,27.3821318 C6.8742,27.9591979 7.30775172,28.5397139 7.90423448,28.5397139 L11.6646828,28.5397139 C12.0383379,28.5397139 12.3772345,28.310142 12.5066483,27.956689 C12.8014759,27.1475419 13.0528552,26.3214592 13.2645103,25.4796954 C14.3820621,25.7051903 15.5539241,25.824367 16.7605448,25.824367 C18.1667172,25.824367 19.5223034,25.6631648 20.7990621,25.3627141 C20.6330276,26.0319853 20.4536483,26.7059609 20.2547172,27.3821318 C20.0818552,27.9591979 20.5147862,28.5397139 21.1118897,28.5397139 L24.8745103,28.5397139 C25.2459931,28.5397139 25.5848897,28.310142 25.7161655,27.956689 C26.3849586,26.1273267 26.8290621,24.205132 27.1021655,22.2120586 C29.1659586,20.3892824 30.4188207,18.0167252 30.4188207,15.418046 C30.4188207,14.620503 30.2962345,13.8452272 30.0734069,13.0984912 C30.5060276,13.0009544 30.950131,12.8532381 31.3895793,12.6318203 C32.1176483,12.2633134 32.5766483,11.8414906 32.8609241,11.4300174 C34.0194414,11.4058684 35.0581655,10.8532649 35.6788552,9.91208264 C35.8843034,9.60096874 35.8014414,9.17914596 35.4910966,8.97090037" id="Fill-1" fill="#FEFEFE" fill-rule="evenodd" mask="url(#mask-2)"></path>
                    </g>
                </g>
            </g>
        </g>
    </g>
</svg>