<?xml version="1.0" encoding="UTF-8" standalone="no"?>
<svg width="40px" height="38px" viewBox="0 0 40 38" version="1.1" xmlns="http://www.w3.org/2000/svg" xmlns:xlink="http://www.w3.org/1999/xlink">
    <!-- Generator: Sketch 41.2 (35397) - http://www.bohemiancoding.com/sketch -->
    <title>Perfil - Scroll Agenciado</title>
    <desc>Created with Sketch.</desc>
    <defs>
        <polygon id="path-1" points="0.104860445 22.6720605 27.4574736 22.6720605 27.4574736 0.0927633119 0.104860445 0.0927633119"></polygon>
        <polygon id="path-3" points="0 31.9158566 33.4034195 31.9158566 33.4034195 0 0 0"></polygon>
    </defs>
    <g id="Perfil---Mobile-(iPhone-4)" stroke="none" stroke-width="1" fill="none" fill-rule="evenodd">
        <g id="Perfil---Scroll-Agenciado" transform="translate(-18.000000, -1266.000000)">
            <g id="Group-21" transform="translate(20.000000, 1269.000000)">
                <g id="Group-27-Copy">
                    <g id="Group-14">
                        <g id="Group-11">
                            <g id="Page-1" transform="translate(1.000000, 0.000000)">
                                <g id="Group-3" transform="translate(5.945946, 9.243796)">
                                    <mask id="mask-2" fill="white">
                                        <use xlink:href="#path-1"></use>
                                    </mask>
                                    <g id="Clip-2"></g>
                                    <path d="M26.2144089,0.7248911 L23.8502491,0.0927633119 L23.44851,2.5059928 L24.732188,2.84927598 L21.2795323,15.5310275 L21.0697438,16.7911842 C21.0186863,17.0977053 20.8930458,17.3736128 20.7150552,17.6044323 L20.7087215,17.6277448 L20.6991563,17.625183 C20.2954783,18.1338313 19.6321175,18.4148624 18.9422585,18.3021425 L0.23786369,15.2438481 L0.163280846,15.517578 C-0.0784347826,16.4056311 0.451917744,17.3196866 1.34794595,17.5590882 L20.2546322,22.6141891 C21.1505311,22.8538469 22.0730576,22.3281625 22.3146439,21.4403656 L27.399074,2.76640127 C27.6407897,1.87834819 27.1104371,0.964420779 26.2144089,0.7248911" id="Fill-1" fill="#FFFFFF" mask="url(#mask-2)"></path>
                                </g>
                                <path d="M27.8222056,3.88199474 L24.1068942,3.27446037 L24.1068942,5.7411037 L26.5615358,6.14241198 L24.1068942,20.8841187 L24.1068942,21.9876204 C24.1068942,23.000562 23.2783396,23.8216236 22.2560247,23.8216236 L9.23660047,23.8216236 L24.0974583,26.251633 C25.013134,26.4013711 25.8778813,25.7870479 26.0289859,24.8796531 L29.206577,5.79592653 C29.3576816,4.88853175 28.7378813,4.03173281 27.8222056,3.88199474" id="Fill-4" fill="#FFFFFF"></path>
                                <mask id="mask-4" fill="white">
                                    <use xlink:href="#path-3"></use>
                                </mask>
                                <g id="Clip-7"></g>
                                <path d="M2.55287897,17.7405671 L20.3907168,17.7405671 L20.3907168,2.43372401 L2.55287897,2.43372401 L2.55287897,17.7405671 Z M21.2632197,0 L1.68037603,0 C0.752291422,0 0,0.745488091 0,1.66517958 L0,21.0068809 C0,21.9265724 0.752291422,22.6720605 1.68037603,22.6720605 L21.2632197,22.6720605 C22.1911751,22.6720605 22.9435958,21.9265724 22.9435958,21.0068809 L22.9435958,1.66517958 C22.9435958,0.745488091 22.1911751,0 21.2632197,0 L21.2632197,0 Z" id="Fill-6" fill="#FFFFFF" mask="url(#mask-4)"></path>
                                <path d="M14.8469365,12.8731191 C13.6835993,12.2967108 13.1665605,12.3607561 12.972671,11.9764839 C12.7787814,11.5922117 12.7787814,11.2719849 12.7787814,11.2719849 C12.7787814,11.2719849 14.2006381,9.54275992 14.2006381,7.87758034 C14.2006381,6.21240076 13.0373008,4.93149338 11.4861845,4.93149338 C11.4814019,4.93149338 11.4766193,4.93187766 11.4718367,4.93187766 C11.4670541,4.93187766 11.4621422,4.93149338 11.4573596,4.93149338 C9.90624324,4.93149338 8.74290599,6.21240076 8.74290599,7.87758034 C8.74290599,9.54275992 10.1647626,11.2719849 10.1647626,11.2719849 C10.1647626,11.2719849 10.1647626,11.5922117 9.97087309,11.9764839 C9.77698355,12.3607561 9.25994477,12.2967108 8.09660752,12.8731191 C6.93327027,13.4495274 6.35160165,14.6663894 6.35160165,14.6663894 L6.35160165,16.331569 L11.4718367,16.331569 L16.5919424,16.331569 L16.5919424,14.6663894 C16.5919424,14.6663894 16.0102738,13.4495274 14.8469365,12.8731191" id="Fill-8" fill="#FFFFFF" mask="url(#mask-4)"></path>
                            </g>
                        </g>
                    </g>
                </g>
            </g>
        </g>
    </g>
</svg>