<?xml version="1.0" encoding="UTF-8" standalone="no"?>
<svg width="24px" height="23px" viewBox="0 0 24 23" version="1.1" xmlns="http://www.w3.org/2000/svg" xmlns:xlink="http://www.w3.org/1999/xlink">
    <!-- Generator: Sketch 41.2 (35397) - http://www.bohemiancoding.com/sketch -->
    <title>Perfil - Scroll Agenciado</title>
    <desc>Created with Sketch.</desc>
    <defs></defs>
    <g id="Perfil---Mobile-(iPhone-4)" stroke="none" stroke-width="1" fill="none" fill-rule="evenodd">
        <g id="Perfil---Scroll-Agenciado" transform="translate(-143.000000, -3341.000000)" stroke="#FFFFFF">
            <g id="Reputação-Copy" transform="translate(20.000000, 3241.000000)">
                <g id="Reputação" transform="translate(9.000000, 52.000000)">
                    <path d="M126.802247,66.5461514 L131.441273,69.0258956 L130.555203,63.7741924 C130.421972,62.9775399 130.680409,62.1678275 131.248649,61.6062528 L135,57.8858203 L129.813601,57.1185525 C129.030264,57.0026461 128.351265,56.5031058 128.001331,55.7799151 L125.681818,51 L123.362305,55.7799151 C123.012372,56.5031058 122.333372,57.0026461 121.550035,57.1185525 L116.363636,57.8858203 L120.114987,61.6062528 C120.683228,62.1678275 120.941665,62.9775399 120.808433,63.7741924 L119.922363,69.0258956 L124.561389,66.5461514 C124.912928,66.3600481 125.29657,66.265364 125.681818,66.265364 C126.067066,66.265364 126.450709,66.3600481 126.802247,66.5461514 Z" id="estrela-copy-5"></path>
                </g>
            </g>
        </g>
    </g>
</svg>
