<?xml version="1.0" encoding="utf-8"?>
<!-- Generator: Adobe Illustrator 16.0.0, SVG Export Plug-In . SVG Version: 6.00 Build 0)  -->
<!DOCTYPE svg PUBLIC "-//W3C//DTD SVG 1.1//EN" "http://www.w3.org/Graphics/SVG/1.1/DTD/svg11.dtd">
<svg version="1.1" id="Layer_1" xmlns="http://www.w3.org/2000/svg" xmlns:xlink="http://www.w3.org/1999/xlink" x="0px" y="0px"
	 width="337.482px" height="257.203px" viewBox="0 0 337.482 257.203" enable-background="new 0 0 337.482 257.203"
	 xml:space="preserve">
<g>
	<path opacity="0.5" fill="#FFFFFF" enable-background="new    " d="M195.756,108.44H25.075c-7.369,0-13.344,5.975-13.344,13.344
		v72.275c0,7.369,5.975,13.344,13.344,13.344h170.682c7.369,0,13.344-5.975,13.344-13.344v-72.275
		C209.1,114.416,203.125,108.44,195.756,108.44z M31.793,173.878c-0.921,0-1.668-0.748-1.668-1.668c0-0.922,0.747-1.668,1.668-1.668
		s1.668,0.746,1.668,1.668C33.461,173.13,32.714,173.878,31.793,173.878z M33.461,165.352c0,0.921-0.746,1.668-1.667,1.668
		s-1.668-0.747-1.668-1.668V150.49c0-0.919,0.747-1.666,1.668-1.666s1.667,0.747,1.667,1.666V165.352z M175.186,200.455H48.425
		v-85.063h126.761V200.455z M190.752,167.93c-5.525,0-10.006-4.479-10.006-10.009c0-5.527,4.479-10.006,10.006-10.006
		s10.008,4.479,10.008,10.006C200.76,163.451,196.28,167.93,190.752,167.93z"/>
	<path fill="#FFFFFF" d="M322.981,194.06V23.378c0-7.37-5.975-13.343-13.344-13.343h-72.275c-7.368,0-13.344,5.973-13.344,13.343
		V194.06c0,7.369,5.976,13.344,13.344,13.344h72.275C317.006,207.403,322.981,201.429,322.981,194.06z M257.543,30.096
		c0-0.921,0.746-1.668,1.668-1.668c0.92,0,1.668,0.747,1.668,1.668c0,0.92-0.748,1.667-1.668,1.667
		C258.29,31.764,257.543,31.017,257.543,30.096z M266.069,31.764c-0.92,0-1.668-0.746-1.668-1.667c0-0.921,0.748-1.668,1.668-1.668
		h14.861c0.92,0,1.666,0.747,1.666,1.668c0,0.922-0.746,1.667-1.666,1.667H266.069z M230.967,173.489V46.729h85.064V173.49
		L230.967,173.489L230.967,173.489z M263.493,189.057c0-5.527,4.479-10.009,10.006-10.009c5.526,0,10.008,4.48,10.008,10.009
		c0,5.526-4.48,10.007-10.008,10.007C267.971,199.064,263.493,194.583,263.493,189.057z"/>
	<path opacity="0.5" fill="#FFFFFF" enable-background="new    " d="M154.059,97.6h-23.906c0,0,3.492-25.644,23.906-41.976
		c13.9-11.12,30.857-9.729,30.857-9.729V27.872l30.137,30.138l-29.721,29.721V70.635C185.333,70.635,159.897,68.411,154.059,97.6z"
		/>
</g>
<g>
	<path fill="#FFFFFF" d="M24.173,231.121c-0.482-0.51-1.059-0.91-1.729-1.205c-0.67-0.295-1.447-0.443-2.332-0.443
		c-0.911,0-1.729,0.168-2.452,0.502c-0.724,0.336-1.337,0.785-1.839,1.348s-0.888,1.215-1.155,1.959
		c-0.269,0.744-0.402,1.525-0.402,2.342c0,0.818,0.134,1.598,0.402,2.342c0.268,0.744,0.653,1.396,1.155,1.959
		s1.116,1.012,1.839,1.348c0.723,0.334,1.541,0.502,2.452,0.502c0.737,0,1.444-0.09,2.121-0.271
		c0.676-0.182,1.283-0.426,1.819-0.734v-4.762h-3.396v-1.328h4.843v6.975c-0.804,0.469-1.685,0.828-2.643,1.076
		c-0.958,0.246-1.873,0.371-2.744,0.371c-1.059,0-2.04-0.188-2.944-0.562s-1.688-0.895-2.352-1.559
		c-0.663-0.662-1.183-1.449-1.558-2.361c-0.375-0.91-0.562-1.908-0.562-2.994s0.188-2.084,0.562-2.994
		c0.375-0.912,0.895-1.699,1.558-2.361c0.664-0.664,1.447-1.184,2.352-1.559s1.886-0.562,2.944-0.562
		c1.139,0,2.121,0.158,2.944,0.473c0.824,0.314,1.558,0.793,2.201,1.438L24.173,231.121z"/>
	<path fill="#FFFFFF" d="M30.745,229.714c0,0.281-0.101,0.512-0.301,0.693c-0.201,0.18-0.422,0.271-0.664,0.271
		s-0.462-0.092-0.663-0.271c-0.201-0.182-0.301-0.412-0.301-0.693s0.1-0.514,0.301-0.693c0.201-0.182,0.422-0.271,0.663-0.271
		s0.462,0.09,0.664,0.271C30.644,229.201,30.745,229.433,30.745,229.714z M30.444,242.738h-1.327v-9.406h1.327V242.738z"/>
	<path fill="#FFFFFF" d="M33.78,236.265c0-0.414-0.01-0.836-0.03-1.266c-0.02-0.428-0.037-0.984-0.05-1.668h1.307v1.748h0.04
		c0.094-0.254,0.228-0.498,0.402-0.732c0.174-0.234,0.385-0.445,0.633-0.635c0.248-0.188,0.536-0.338,0.864-0.451
		c0.328-0.113,0.7-0.172,1.115-0.172c0.375,0,0.704,0.041,0.985,0.121l-0.261,1.307c-0.174-0.066-0.429-0.1-0.764-0.1
		c-0.509,0-0.945,0.096-1.307,0.291c-0.362,0.193-0.663,0.441-0.904,0.744c-0.241,0.301-0.419,0.625-0.533,0.975
		c-0.114,0.348-0.171,0.682-0.171,1.004v5.307H33.78V236.265z"/>
	<path fill="#FFFFFF" d="M40.874,238.396c0.04,0.469,0.154,0.912,0.342,1.326c0.188,0.416,0.435,0.773,0.744,1.076
		c0.308,0.301,0.663,0.539,1.065,0.713s0.837,0.262,1.307,0.262c0.71,0,1.323-0.164,1.839-0.492
		c0.516-0.328,0.908-0.707,1.176-1.137l1.025,0.844c-0.562,0.711-1.183,1.221-1.859,1.529c-0.677,0.307-1.404,0.461-2.181,0.461
		c-0.697,0-1.344-0.123-1.939-0.371c-0.597-0.248-1.109-0.594-1.538-1.035c-0.429-0.441-0.767-0.965-1.015-1.568
		c-0.248-0.602-0.372-1.258-0.372-1.969s0.121-1.367,0.362-1.971c0.241-0.602,0.576-1.125,1.005-1.566
		c0.429-0.443,0.931-0.787,1.507-1.035c0.576-0.248,1.199-0.373,1.869-0.373c0.71,0,1.347,0.129,1.909,0.383
		c0.563,0.254,1.035,0.594,1.417,1.016s0.673,0.918,0.874,1.486c0.201,0.57,0.302,1.176,0.302,1.818v0.604H40.874z M47.265,237.31
		c0-0.896-0.268-1.623-0.804-2.18c-0.536-0.557-1.287-0.834-2.251-0.834c-0.429,0-0.844,0.084-1.246,0.25
		c-0.402,0.168-0.754,0.393-1.055,0.674c-0.302,0.281-0.543,0.604-0.724,0.965s-0.271,0.736-0.271,1.125H47.265z"/>
	<path fill="#FFFFFF" d="M61.696,235.562c-0.201-0.389-0.469-0.695-0.804-0.924s-0.744-0.342-1.226-0.342
		c-0.228,0-0.459,0.027-0.693,0.08s-0.445,0.137-0.633,0.252c-0.188,0.113-0.339,0.258-0.452,0.432
		c-0.114,0.174-0.171,0.389-0.171,0.643c0,0.443,0.154,0.764,0.462,0.965s0.771,0.375,1.387,0.523l1.347,0.32
		c0.656,0.148,1.203,0.445,1.638,0.895c0.435,0.449,0.653,1.008,0.653,1.678c0,0.51-0.104,0.949-0.312,1.316
		c-0.208,0.369-0.482,0.672-0.824,0.906s-0.733,0.404-1.176,0.512c-0.442,0.107-0.891,0.16-1.347,0.16
		c-0.723,0-1.396-0.137-2.02-0.412c-0.623-0.273-1.156-0.746-1.598-1.416l1.146-0.785c0.268,0.43,0.606,0.771,1.015,1.025
		c0.409,0.256,0.895,0.383,1.457,0.383c0.268,0,0.536-0.031,0.804-0.09c0.268-0.061,0.505-0.154,0.713-0.283
		c0.208-0.127,0.375-0.291,0.502-0.492c0.127-0.201,0.191-0.436,0.191-0.703c0-0.469-0.174-0.807-0.522-1.014
		c-0.349-0.209-0.771-0.373-1.266-0.494l-1.287-0.301c-0.161-0.041-0.378-0.107-0.653-0.201c-0.275-0.094-0.543-0.234-0.804-0.422
		s-0.486-0.432-0.673-0.734c-0.188-0.301-0.281-0.672-0.281-1.115c0-0.482,0.097-0.904,0.292-1.266
		c0.194-0.361,0.455-0.656,0.784-0.885c0.328-0.227,0.7-0.398,1.116-0.512c0.415-0.113,0.844-0.172,1.286-0.172
		c0.656,0,1.266,0.129,1.829,0.383c0.562,0.254,0.998,0.689,1.306,1.307L61.696,235.562z"/>
	<path fill="#FFFFFF" d="M66.198,238.396c0.04,0.469,0.154,0.912,0.342,1.326c0.188,0.416,0.435,0.773,0.744,1.076
		c0.308,0.301,0.663,0.539,1.065,0.713s0.837,0.262,1.307,0.262c0.71,0,1.323-0.164,1.839-0.492
		c0.516-0.328,0.908-0.707,1.176-1.137l1.025,0.844c-0.562,0.711-1.183,1.221-1.859,1.529c-0.677,0.307-1.404,0.461-2.181,0.461
		c-0.697,0-1.344-0.123-1.939-0.371c-0.597-0.248-1.109-0.594-1.538-1.035c-0.429-0.441-0.767-0.965-1.015-1.568
		c-0.248-0.602-0.372-1.258-0.372-1.969s0.121-1.367,0.362-1.971c0.241-0.602,0.576-1.125,1.005-1.566
		c0.429-0.443,0.931-0.787,1.507-1.035c0.576-0.248,1.199-0.373,1.869-0.373c0.71,0,1.347,0.129,1.909,0.383
		c0.563,0.254,1.035,0.594,1.417,1.016s0.673,0.918,0.874,1.486c0.201,0.57,0.302,1.176,0.302,1.818v0.604H66.198z M72.589,237.31
		c0-0.896-0.268-1.623-0.804-2.18c-0.536-0.557-1.287-0.834-2.251-0.834c-0.429,0-0.844,0.084-1.246,0.25
		c-0.402,0.168-0.754,0.393-1.055,0.674c-0.302,0.281-0.543,0.604-0.724,0.965s-0.271,0.736-0.271,1.125H72.589z"/>
	<path fill="#FFFFFF" d="M83.241,242.738c-0.027-0.254-0.043-0.506-0.05-0.754s-0.01-0.5-0.01-0.754H83.14
		c-0.147,0.254-0.335,0.488-0.562,0.703c-0.228,0.215-0.482,0.398-0.764,0.553c-0.282,0.154-0.58,0.275-0.895,0.361
		c-0.315,0.088-0.626,0.131-0.935,0.131c-1.206,0-2.097-0.318-2.673-0.955c-0.577-0.635-0.864-1.543-0.864-2.723v-5.969h1.326v5.205
		c0,0.523,0.041,0.984,0.121,1.387c0.081,0.402,0.218,0.74,0.412,1.016c0.194,0.273,0.456,0.482,0.784,0.623s0.74,0.211,1.236,0.211
		c0.067,0,0.254-0.027,0.562-0.08c0.308-0.055,0.633-0.201,0.975-0.443c0.342-0.24,0.646-0.602,0.915-1.084s0.402-1.152,0.402-2.01
		v-4.824h1.326v7.336c0,0.254,0.01,0.576,0.03,0.965s0.043,0.756,0.07,1.105H83.241z"/>
	<path fill="#FFFFFF" d="M102.595,242.738h-1.327v-1.568h-0.04c-0.214,0.322-0.469,0.596-0.764,0.824
		c-0.295,0.229-0.603,0.416-0.925,0.562c-0.321,0.148-0.653,0.254-0.995,0.322c-0.342,0.066-0.667,0.1-0.975,0.1
		c-0.737,0-1.411-0.123-2.02-0.371c-0.61-0.248-1.136-0.594-1.578-1.035c-0.442-0.441-0.788-0.965-1.035-1.568
		c-0.248-0.602-0.372-1.258-0.372-1.969s0.124-1.367,0.372-1.971c0.248-0.602,0.593-1.125,1.035-1.566
		c0.442-0.443,0.968-0.787,1.578-1.035c0.609-0.248,1.283-0.373,2.02-0.373c0.308,0,0.633,0.035,0.975,0.102
		s0.673,0.174,0.995,0.322c0.322,0.146,0.63,0.334,0.925,0.562c0.294,0.227,0.549,0.502,0.764,0.824h0.04v-7.357h1.327V242.738z
		 M94.013,238.035c0,0.521,0.083,1.012,0.251,1.467c0.167,0.455,0.405,0.852,0.713,1.186c0.308,0.336,0.68,0.6,1.115,0.795
		c0.436,0.193,0.928,0.291,1.478,0.291c0.536,0,1.035-0.098,1.497-0.291c0.462-0.195,0.861-0.459,1.196-0.795
		c0.335-0.334,0.596-0.73,0.784-1.186s0.282-0.945,0.282-1.467c0-0.523-0.094-1.012-0.282-1.467s-0.449-0.852-0.784-1.186
		c-0.335-0.336-0.733-0.6-1.196-0.795c-0.462-0.193-0.961-0.291-1.497-0.291c-0.55,0-1.042,0.098-1.478,0.291
		c-0.436,0.195-0.807,0.459-1.115,0.795c-0.309,0.334-0.546,0.73-0.713,1.186C94.097,237.023,94.013,237.511,94.013,238.035z"/>
	<path fill="#FFFFFF" d="M107.419,229.714c0,0.281-0.101,0.512-0.301,0.693c-0.201,0.18-0.422,0.271-0.664,0.271
		s-0.462-0.092-0.663-0.271c-0.201-0.182-0.301-0.412-0.301-0.693s0.1-0.514,0.301-0.693c0.201-0.182,0.422-0.271,0.663-0.271
		s0.462,0.09,0.664,0.271C107.319,229.201,107.419,229.433,107.419,229.714z M107.118,242.738h-1.327v-9.406h1.327V242.738z"/>
	<path fill="#FFFFFF" d="M115.298,235.562c-0.201-0.389-0.469-0.695-0.804-0.924s-0.744-0.342-1.226-0.342
		c-0.228,0-0.459,0.027-0.693,0.08s-0.445,0.137-0.633,0.252c-0.188,0.113-0.339,0.258-0.452,0.432
		c-0.114,0.174-0.171,0.389-0.171,0.643c0,0.443,0.154,0.764,0.462,0.965s0.771,0.375,1.387,0.523l1.347,0.32
		c0.656,0.148,1.203,0.445,1.638,0.895c0.435,0.449,0.653,1.008,0.653,1.678c0,0.51-0.104,0.949-0.312,1.316
		c-0.208,0.369-0.482,0.672-0.824,0.906s-0.733,0.404-1.176,0.512c-0.442,0.107-0.891,0.16-1.347,0.16
		c-0.723,0-1.396-0.137-2.02-0.412c-0.623-0.273-1.156-0.746-1.598-1.416l1.146-0.785c0.268,0.43,0.606,0.771,1.015,1.025
		c0.409,0.256,0.895,0.383,1.457,0.383c0.268,0,0.536-0.031,0.804-0.09c0.268-0.061,0.505-0.154,0.713-0.283
		c0.208-0.127,0.375-0.291,0.502-0.492c0.127-0.201,0.191-0.436,0.191-0.703c0-0.469-0.174-0.807-0.522-1.014
		c-0.349-0.209-0.771-0.373-1.266-0.494l-1.287-0.301c-0.161-0.041-0.378-0.107-0.653-0.201c-0.275-0.094-0.543-0.234-0.804-0.422
		s-0.486-0.432-0.673-0.734c-0.188-0.301-0.281-0.672-0.281-1.115c0-0.482,0.097-0.904,0.292-1.266
		c0.194-0.361,0.455-0.656,0.784-0.885c0.328-0.227,0.7-0.398,1.116-0.512c0.415-0.113,0.844-0.172,1.286-0.172
		c0.656,0,1.266,0.129,1.829,0.383c0.562,0.254,0.998,0.689,1.306,1.307L115.298,235.562z"/>
	<path fill="#FFFFFF" d="M118.875,233.332h1.326v1.568h0.041c0.214-0.322,0.469-0.598,0.764-0.824
		c0.294-0.229,0.603-0.416,0.924-0.562c0.322-0.148,0.653-0.256,0.995-0.322c0.341-0.066,0.666-0.102,0.975-0.102
		c0.737,0,1.41,0.125,2.02,0.373c0.609,0.248,1.135,0.592,1.578,1.035c0.442,0.441,0.787,0.965,1.035,1.566
		c0.248,0.604,0.372,1.26,0.372,1.971s-0.124,1.367-0.372,1.969c-0.248,0.604-0.593,1.127-1.035,1.568
		c-0.442,0.441-0.968,0.787-1.578,1.035c-0.61,0.248-1.283,0.371-2.02,0.371c-0.309,0-0.633-0.033-0.975-0.1
		c-0.342-0.068-0.673-0.174-0.995-0.322c-0.322-0.146-0.63-0.334-0.924-0.562c-0.295-0.229-0.55-0.502-0.764-0.824h-0.041v7.355
		h-1.326V233.332z M127.456,238.035c0-0.523-0.083-1.012-0.251-1.467c-0.168-0.455-0.405-0.852-0.713-1.186
		c-0.309-0.336-0.68-0.6-1.116-0.795c-0.436-0.193-0.928-0.291-1.477-0.291c-0.55,0-1.052,0.098-1.507,0.291
		c-0.456,0.195-0.851,0.459-1.186,0.795c-0.335,0.334-0.596,0.73-0.784,1.186c-0.188,0.455-0.281,0.943-0.281,1.467
		c0,0.521,0.093,1.012,0.281,1.467c0.188,0.455,0.449,0.852,0.784,1.186c0.335,0.336,0.73,0.6,1.186,0.795
		c0.455,0.193,0.958,0.291,1.507,0.291c0.549,0,1.042-0.098,1.477-0.291c0.436-0.195,0.807-0.459,1.116-0.795
		c0.308-0.334,0.545-0.73,0.713-1.186C127.373,239.046,127.456,238.556,127.456,238.035z"/>
	<path fill="#FFFFFF" d="M140.661,238.035c0,0.711-0.124,1.367-0.372,1.969c-0.248,0.604-0.593,1.127-1.035,1.568
		c-0.442,0.441-0.968,0.787-1.578,1.035s-1.283,0.371-2.02,0.371c-0.724,0-1.391-0.123-2-0.371c-0.61-0.248-1.135-0.594-1.578-1.035
		s-0.787-0.965-1.035-1.568c-0.248-0.602-0.372-1.258-0.372-1.969s0.124-1.367,0.372-1.971c0.248-0.602,0.593-1.125,1.035-1.566
		c0.442-0.443,0.968-0.787,1.578-1.035c0.609-0.248,1.276-0.373,2-0.373c0.736,0,1.41,0.125,2.02,0.373s1.136,0.592,1.578,1.035
		c0.442,0.441,0.787,0.965,1.035,1.566C140.537,236.667,140.661,237.324,140.661,238.035z M139.214,238.035
		c0-0.523-0.084-1.012-0.251-1.467c-0.168-0.455-0.406-0.852-0.714-1.186c-0.308-0.336-0.68-0.6-1.115-0.795
		c-0.436-0.193-0.928-0.291-1.477-0.291c-0.55,0-1.042,0.098-1.478,0.291c-0.436,0.195-0.804,0.459-1.105,0.795
		c-0.301,0.334-0.536,0.73-0.703,1.186c-0.168,0.455-0.251,0.943-0.251,1.467c0,0.521,0.083,1.012,0.251,1.467
		c0.167,0.455,0.402,0.852,0.703,1.186c0.302,0.336,0.67,0.6,1.105,0.795c0.436,0.193,0.928,0.291,1.478,0.291
		c0.549,0,1.042-0.098,1.477-0.291c0.435-0.195,0.807-0.459,1.115-0.795c0.308-0.334,0.546-0.73,0.714-1.186
		C139.13,239.046,139.214,238.556,139.214,238.035z"/>
	<path fill="#FFFFFF" d="M148.057,235.562c-0.201-0.389-0.469-0.695-0.804-0.924s-0.744-0.342-1.226-0.342
		c-0.228,0-0.459,0.027-0.693,0.08s-0.445,0.137-0.633,0.252c-0.188,0.113-0.339,0.258-0.452,0.432
		c-0.114,0.174-0.171,0.389-0.171,0.643c0,0.443,0.154,0.764,0.462,0.965s0.771,0.375,1.387,0.523l1.347,0.32
		c0.656,0.148,1.203,0.445,1.638,0.895c0.435,0.449,0.653,1.008,0.653,1.678c0,0.51-0.104,0.949-0.312,1.316
		c-0.208,0.369-0.482,0.672-0.824,0.906s-0.733,0.404-1.176,0.512c-0.442,0.107-0.891,0.16-1.347,0.16
		c-0.723,0-1.396-0.137-2.02-0.412c-0.623-0.273-1.156-0.746-1.598-1.416l1.146-0.785c0.268,0.43,0.606,0.771,1.015,1.025
		c0.409,0.256,0.895,0.383,1.457,0.383c0.268,0,0.536-0.031,0.804-0.09c0.268-0.061,0.505-0.154,0.713-0.283
		c0.208-0.127,0.375-0.291,0.502-0.492c0.127-0.201,0.191-0.436,0.191-0.703c0-0.469-0.174-0.807-0.522-1.014
		c-0.349-0.209-0.771-0.373-1.266-0.494l-1.287-0.301c-0.161-0.041-0.378-0.107-0.653-0.201c-0.275-0.094-0.543-0.234-0.804-0.422
		s-0.486-0.432-0.673-0.734c-0.188-0.301-0.281-0.672-0.281-1.115c0-0.482,0.097-0.904,0.292-1.266
		c0.194-0.361,0.455-0.656,0.784-0.885c0.328-0.227,0.7-0.398,1.116-0.512c0.415-0.113,0.844-0.172,1.286-0.172
		c0.656,0,1.266,0.129,1.829,0.383c0.562,0.254,0.998,0.689,1.306,1.307L148.057,235.562z"/>
	<path fill="#FFFFFF" d="M153.564,229.714c0,0.281-0.101,0.512-0.301,0.693c-0.201,0.18-0.422,0.271-0.664,0.271
		s-0.462-0.092-0.663-0.271c-0.201-0.182-0.301-0.412-0.301-0.693s0.1-0.514,0.301-0.693c0.201-0.182,0.422-0.271,0.663-0.271
		s0.462,0.09,0.664,0.271C153.463,229.201,153.564,229.433,153.564,229.714z M153.262,242.738h-1.327v-9.406h1.327V242.738z"/>
	<path fill="#FFFFFF" d="M161.322,234.537h-2.713v5.547c0,0.35,0.033,0.635,0.101,0.855c0.067,0.221,0.161,0.391,0.281,0.512
		s0.264,0.205,0.432,0.252c0.167,0.047,0.352,0.07,0.553,0.07c0.228,0,0.462-0.033,0.703-0.102c0.241-0.066,0.462-0.152,0.664-0.26
		l0.06,1.225c-0.496,0.229-1.092,0.342-1.789,0.342c-0.255,0-0.52-0.033-0.794-0.1c-0.275-0.068-0.526-0.195-0.754-0.383
		c-0.228-0.188-0.415-0.441-0.562-0.764c-0.147-0.32-0.221-0.744-0.221-1.266v-5.93h-1.99v-1.205h1.99v-2.652h1.327v2.652h2.713
		V234.537z"/>
	<path fill="#FFFFFF" d="M165.059,229.714c0,0.281-0.101,0.512-0.301,0.693c-0.201,0.18-0.422,0.271-0.664,0.271
		s-0.462-0.092-0.663-0.271c-0.201-0.182-0.301-0.412-0.301-0.693s0.1-0.514,0.301-0.693c0.201-0.182,0.422-0.271,0.663-0.271
		s0.462,0.09,0.664,0.271C164.959,229.201,165.059,229.433,165.059,229.714z M164.758,242.738h-1.327v-9.406h1.327V242.738z"/>
	<path fill="#FFFFFF" d="M172.093,242.738h-1.488l-3.817-9.406h1.568l3.013,7.918h0.041l2.994-7.918h1.508L172.093,242.738z"/>
	<path fill="#FFFFFF" d="M187.146,238.035c0,0.711-0.123,1.367-0.371,1.969c-0.248,0.604-0.592,1.127-1.035,1.568
		c-0.441,0.441-0.969,0.787-1.578,1.035s-1.283,0.371-2.02,0.371c-0.723,0-1.391-0.123-2-0.371s-1.135-0.594-1.576-1.035
		c-0.443-0.441-0.789-0.965-1.035-1.568c-0.248-0.602-0.373-1.258-0.373-1.969s0.125-1.367,0.373-1.971
		c0.246-0.602,0.592-1.125,1.035-1.566c0.441-0.443,0.967-0.787,1.576-1.035s1.277-0.373,2-0.373c0.736,0,1.41,0.125,2.02,0.373
		s1.137,0.592,1.578,1.035c0.443,0.441,0.787,0.965,1.035,1.566C187.023,236.667,187.146,237.324,187.146,238.035z M185.7,238.035
		c0-0.523-0.084-1.012-0.252-1.467s-0.406-0.852-0.713-1.186c-0.309-0.336-0.682-0.6-1.115-0.795
		c-0.438-0.193-0.93-0.291-1.479-0.291s-1.041,0.098-1.477,0.291c-0.436,0.195-0.805,0.459-1.105,0.795
		c-0.301,0.334-0.537,0.73-0.703,1.186c-0.168,0.455-0.252,0.943-0.252,1.467c0,0.521,0.084,1.012,0.252,1.467
		c0.166,0.455,0.402,0.852,0.703,1.186c0.301,0.336,0.67,0.6,1.105,0.795c0.436,0.193,0.928,0.291,1.477,0.291
		s1.041-0.098,1.479-0.291c0.434-0.195,0.807-0.459,1.115-0.795c0.307-0.334,0.545-0.73,0.713-1.186S185.7,238.556,185.7,238.035z"
		/>
	<path fill="#FFFFFF" d="M195.146,233.332h1.326v1.568h0.041c0.215-0.322,0.469-0.598,0.764-0.824
		c0.295-0.229,0.604-0.416,0.924-0.562c0.322-0.148,0.654-0.256,0.996-0.322s0.666-0.102,0.975-0.102c0.736,0,1.41,0.125,2.02,0.373
		s1.135,0.592,1.578,1.035c0.441,0.441,0.787,0.965,1.035,1.566c0.246,0.604,0.371,1.26,0.371,1.971s-0.125,1.367-0.371,1.969
		c-0.248,0.604-0.594,1.127-1.035,1.568c-0.443,0.441-0.969,0.787-1.578,1.035s-1.283,0.371-2.02,0.371
		c-0.309,0-0.633-0.033-0.975-0.1c-0.342-0.068-0.674-0.174-0.996-0.322c-0.32-0.146-0.629-0.334-0.924-0.562
		s-0.549-0.502-0.764-0.824h-0.041v7.355h-1.326V233.332z M203.728,238.035c0-0.523-0.084-1.012-0.252-1.467
		c-0.166-0.455-0.404-0.852-0.713-1.186c-0.309-0.336-0.68-0.6-1.115-0.795c-0.436-0.193-0.928-0.291-1.477-0.291
		c-0.551,0-1.053,0.098-1.508,0.291c-0.455,0.195-0.852,0.459-1.186,0.795c-0.336,0.334-0.598,0.73-0.785,1.186
		s-0.281,0.943-0.281,1.467c0,0.521,0.094,1.012,0.281,1.467s0.449,0.852,0.785,1.186c0.334,0.336,0.73,0.6,1.186,0.795
		c0.455,0.193,0.957,0.291,1.508,0.291c0.549,0,1.041-0.098,1.477-0.291c0.436-0.195,0.807-0.459,1.115-0.795
		c0.309-0.334,0.547-0.73,0.713-1.186C203.644,239.046,203.728,238.556,203.728,238.035z"/>
	<path fill="#FFFFFF" d="M213.454,236.968v-0.24c0-1.621-0.803-2.432-2.412-2.432c-1.098,0-2.057,0.369-2.873,1.105l-0.805-0.945
		c0.885-0.91,2.211-1.367,3.98-1.367c0.455,0,0.895,0.068,1.316,0.201c0.422,0.135,0.787,0.34,1.096,0.613
		c0.307,0.275,0.555,0.621,0.742,1.035c0.188,0.416,0.281,0.912,0.281,1.488v4.199c0,0.361,0.018,0.74,0.051,1.137
		c0.033,0.395,0.07,0.721,0.111,0.975h-1.287c-0.039-0.229-0.07-0.477-0.09-0.744s-0.031-0.529-0.031-0.783h-0.039
		c-0.389,0.629-0.848,1.082-1.377,1.355c-0.529,0.275-1.176,0.412-1.939,0.412c-0.416,0-0.818-0.057-1.207-0.17
		s-0.732-0.289-1.033-0.523c-0.303-0.234-0.543-0.521-0.725-0.863s-0.271-0.74-0.271-1.197c0-0.764,0.197-1.363,0.594-1.799
		c0.395-0.434,0.891-0.76,1.486-0.975c0.596-0.213,1.232-0.348,1.91-0.4c0.676-0.055,1.297-0.082,1.859-0.082H213.454z
		 M212.771,238.054c-0.334,0-0.754,0.018-1.256,0.051s-0.984,0.113-1.447,0.24c-0.461,0.129-0.857,0.326-1.186,0.594
		s-0.492,0.637-0.492,1.105c0,0.309,0.064,0.572,0.191,0.793c0.127,0.223,0.297,0.402,0.512,0.543s0.453,0.242,0.715,0.303
		c0.26,0.059,0.525,0.09,0.793,0.09c0.482,0,0.9-0.08,1.256-0.242c0.355-0.16,0.654-0.377,0.895-0.652
		c0.242-0.275,0.418-0.596,0.533-0.965c0.113-0.369,0.17-0.76,0.17-1.176v-0.684H212.771z"/>
	<path fill="#FFFFFF" d="M217.997,236.265c0-0.414-0.01-0.836-0.031-1.266c-0.02-0.428-0.037-0.984-0.049-1.668h1.305v1.748h0.041
		c0.094-0.254,0.229-0.498,0.402-0.732s0.385-0.445,0.633-0.635c0.248-0.188,0.535-0.338,0.863-0.451s0.701-0.172,1.117-0.172
		c0.373,0,0.703,0.041,0.984,0.121l-0.262,1.307c-0.174-0.066-0.43-0.1-0.764-0.1c-0.51,0-0.945,0.096-1.307,0.291
		c-0.361,0.193-0.664,0.441-0.904,0.744c-0.24,0.301-0.418,0.625-0.533,0.975c-0.113,0.348-0.17,0.682-0.17,1.004v5.307h-1.326
		V236.265z"/>
	<path fill="#FFFFFF" d="M230.558,236.968v-0.24c0-1.621-0.803-2.432-2.412-2.432c-1.098,0-2.057,0.369-2.873,1.105l-0.805-0.945
		c0.885-0.91,2.211-1.367,3.98-1.367c0.455,0,0.895,0.068,1.316,0.201c0.422,0.135,0.787,0.34,1.096,0.613
		c0.307,0.275,0.555,0.621,0.742,1.035c0.188,0.416,0.281,0.912,0.281,1.488v4.199c0,0.361,0.018,0.74,0.051,1.137
		c0.033,0.395,0.07,0.721,0.111,0.975h-1.287c-0.039-0.229-0.07-0.477-0.09-0.744s-0.031-0.529-0.031-0.783h-0.039
		c-0.389,0.629-0.848,1.082-1.377,1.355c-0.529,0.275-1.176,0.412-1.939,0.412c-0.416,0-0.818-0.057-1.207-0.17
		s-0.732-0.289-1.033-0.523c-0.303-0.234-0.543-0.521-0.725-0.863s-0.271-0.74-0.271-1.197c0-0.764,0.197-1.363,0.594-1.799
		c0.395-0.434,0.891-0.76,1.486-0.975c0.596-0.213,1.232-0.348,1.91-0.4c0.676-0.055,1.297-0.082,1.859-0.082H230.558z
		 M229.874,238.054c-0.334,0-0.754,0.018-1.256,0.051s-0.984,0.113-1.447,0.24c-0.461,0.129-0.857,0.326-1.186,0.594
		s-0.492,0.637-0.492,1.105c0,0.309,0.064,0.572,0.191,0.793c0.127,0.223,0.297,0.402,0.512,0.543s0.453,0.242,0.715,0.303
		c0.26,0.059,0.525,0.09,0.793,0.09c0.482,0,0.9-0.08,1.256-0.242c0.355-0.16,0.654-0.377,0.895-0.652
		c0.242-0.275,0.418-0.596,0.533-0.965c0.113-0.369,0.17-0.76,0.17-1.176v-0.684H229.874z"/>
	<path fill="#FFFFFF" d="M247.4,235.542c-0.229-0.348-0.545-0.643-0.955-0.885c-0.408-0.24-0.873-0.361-1.396-0.361
		c-0.549-0.014-1.041,0.074-1.477,0.262s-0.809,0.449-1.115,0.783c-0.309,0.334-0.543,0.734-0.703,1.195
		c-0.162,0.463-0.242,0.963-0.242,1.498s0.08,1.035,0.242,1.496c0.16,0.463,0.395,0.861,0.703,1.197
		c0.307,0.334,0.68,0.596,1.115,0.783s0.928,0.275,1.477,0.262c0.523,0,0.988-0.121,1.396-0.361c0.41-0.242,0.727-0.537,0.955-0.885
		l1.086,0.824c-0.469,0.549-0.998,0.955-1.588,1.215c-0.59,0.262-1.207,0.398-1.85,0.412c-0.764,0.014-1.453-0.104-2.07-0.352
		c-0.615-0.248-1.143-0.592-1.578-1.035c-0.436-0.441-0.766-0.967-0.994-1.578c-0.229-0.609-0.342-1.268-0.342-1.979
		s0.113-1.371,0.342-1.98s0.559-1.135,0.994-1.578c0.436-0.441,0.963-0.785,1.578-1.033c0.617-0.248,1.307-0.365,2.07-0.354
		c0.643,0.014,1.26,0.152,1.85,0.412c0.59,0.262,1.119,0.668,1.588,1.217L247.4,235.542z"/>
	<path fill="#FFFFFF" d="M259.74,238.035c0,0.711-0.123,1.367-0.371,1.969c-0.248,0.604-0.592,1.127-1.035,1.568
		c-0.441,0.441-0.969,0.787-1.578,1.035s-1.283,0.371-2.02,0.371c-0.723,0-1.391-0.123-2-0.371s-1.135-0.594-1.576-1.035
		c-0.443-0.441-0.789-0.965-1.035-1.568c-0.248-0.602-0.373-1.258-0.373-1.969s0.125-1.367,0.373-1.971
		c0.246-0.602,0.592-1.125,1.035-1.566c0.441-0.443,0.967-0.787,1.576-1.035s1.277-0.373,2-0.373c0.736,0,1.41,0.125,2.02,0.373
		s1.137,0.592,1.578,1.035c0.443,0.441,0.787,0.965,1.035,1.566C259.616,236.667,259.74,237.324,259.74,238.035z M258.294,238.035
		c0-0.523-0.084-1.012-0.252-1.467s-0.406-0.852-0.713-1.186c-0.309-0.336-0.682-0.6-1.115-0.795
		c-0.438-0.193-0.93-0.291-1.479-0.291s-1.041,0.098-1.477,0.291c-0.436,0.195-0.805,0.459-1.105,0.795
		c-0.301,0.334-0.537,0.73-0.703,1.186c-0.168,0.455-0.252,0.943-0.252,1.467c0,0.521,0.084,1.012,0.252,1.467
		c0.166,0.455,0.402,0.852,0.703,1.186c0.301,0.336,0.67,0.6,1.105,0.795c0.436,0.193,0.928,0.291,1.477,0.291
		s1.041-0.098,1.479-0.291c0.434-0.195,0.807-0.459,1.115-0.795c0.307-0.334,0.545-0.73,0.713-1.186
		S258.294,238.556,258.294,238.035z"/>
	<path fill="#FFFFFF" d="M263.417,233.332c0.027,0.254,0.045,0.506,0.051,0.754c0.008,0.248,0.01,0.498,0.01,0.754h0.041
		c0.146-0.256,0.334-0.49,0.562-0.703c0.229-0.215,0.482-0.4,0.764-0.553c0.281-0.154,0.58-0.275,0.895-0.363
		c0.314-0.086,0.627-0.131,0.934-0.131c1.207,0,2.098,0.318,2.674,0.955s0.865,1.545,0.865,2.725v5.969h-1.328v-5.205
		c0-1.047-0.18-1.846-0.541-2.402c-0.363-0.557-1.033-0.834-2.01-0.834c-0.068,0-0.256,0.027-0.564,0.08
		c-0.307,0.053-0.633,0.201-0.975,0.441c-0.342,0.242-0.646,0.604-0.914,1.086s-0.402,1.152-0.402,2.01v4.824h-1.326v-7.336
		c0-0.254-0.01-0.576-0.029-0.965c-0.021-0.389-0.045-0.758-0.07-1.105H263.417z"/>
	<path fill="#FFFFFF" d="M278.191,234.537h-2.713v5.547c0,0.35,0.033,0.635,0.1,0.855s0.16,0.391,0.281,0.512
		s0.266,0.205,0.432,0.252c0.168,0.047,0.354,0.07,0.553,0.07c0.229,0,0.463-0.033,0.705-0.102c0.24-0.066,0.461-0.152,0.662-0.26
		l0.061,1.225c-0.496,0.229-1.092,0.342-1.789,0.342c-0.254,0-0.52-0.033-0.793-0.1c-0.275-0.068-0.527-0.195-0.754-0.383
		c-0.229-0.188-0.416-0.441-0.562-0.764c-0.148-0.32-0.221-0.744-0.221-1.266v-5.93h-1.99v-1.205h1.99v-2.652h1.326v2.652h2.713
		V234.537z"/>
	<path fill="#FFFFFF" d="M281.929,229.714c0,0.281-0.102,0.512-0.303,0.693c-0.201,0.18-0.422,0.271-0.662,0.271
		c-0.242,0-0.463-0.092-0.664-0.271c-0.201-0.182-0.301-0.412-0.301-0.693s0.1-0.514,0.301-0.693
		c0.201-0.182,0.422-0.271,0.664-0.271c0.24,0,0.461,0.09,0.662,0.271C281.827,229.201,281.929,229.433,281.929,229.714z
		 M281.626,242.738H280.3v-9.406h1.326V242.738z"/>
	<path fill="#FFFFFF" d="M286.087,233.332c0.027,0.254,0.045,0.506,0.051,0.754c0.008,0.248,0.01,0.498,0.01,0.754h0.041
		c0.146-0.256,0.334-0.49,0.562-0.703c0.229-0.215,0.482-0.4,0.764-0.553c0.281-0.154,0.58-0.275,0.895-0.363
		c0.314-0.086,0.627-0.131,0.934-0.131c1.207,0,2.098,0.318,2.674,0.955s0.865,1.545,0.865,2.725v5.969h-1.328v-5.205
		c0-1.047-0.18-1.846-0.541-2.402c-0.363-0.557-1.033-0.834-2.01-0.834c-0.068,0-0.256,0.027-0.564,0.08
		c-0.307,0.053-0.633,0.201-0.975,0.441c-0.342,0.242-0.646,0.604-0.914,1.086s-0.402,1.152-0.402,2.01v4.824h-1.326v-7.336
		c0-0.254-0.01-0.576-0.029-0.965c-0.021-0.389-0.045-0.758-0.07-1.105H286.087z"/>
	<path fill="#FFFFFF" d="M302.79,242.738c-0.027-0.254-0.045-0.506-0.051-0.754c-0.008-0.248-0.01-0.5-0.01-0.754h-0.041
		c-0.146,0.254-0.334,0.488-0.562,0.703s-0.482,0.398-0.764,0.553s-0.58,0.275-0.895,0.361c-0.314,0.088-0.627,0.131-0.934,0.131
		c-1.207,0-2.098-0.318-2.674-0.955c-0.576-0.635-0.863-1.543-0.863-2.723v-5.969h1.326v5.205c0,0.523,0.039,0.984,0.121,1.387
		c0.08,0.402,0.217,0.74,0.41,1.016c0.195,0.273,0.457,0.482,0.785,0.623s0.74,0.211,1.236,0.211c0.066,0,0.254-0.027,0.562-0.08
		c0.309-0.055,0.633-0.201,0.975-0.443c0.342-0.24,0.646-0.602,0.914-1.084s0.402-1.152,0.402-2.01v-4.824h1.326v7.336
		c0,0.254,0.01,0.576,0.029,0.965c0.021,0.389,0.045,0.756,0.07,1.105H302.79z"/>
	<path fill="#FFFFFF" d="M313.2,236.968v-0.24c0-1.621-0.803-2.432-2.412-2.432c-1.098,0-2.057,0.369-2.873,1.105l-0.805-0.945
		c0.885-0.91,2.211-1.367,3.98-1.367c0.455,0,0.895,0.068,1.316,0.201c0.422,0.135,0.787,0.34,1.096,0.613
		c0.307,0.275,0.555,0.621,0.742,1.035c0.188,0.416,0.281,0.912,0.281,1.488v4.199c0,0.361,0.018,0.74,0.051,1.137
		c0.033,0.395,0.07,0.721,0.111,0.975h-1.287c-0.039-0.229-0.07-0.477-0.09-0.744s-0.031-0.529-0.031-0.783h-0.039
		c-0.389,0.629-0.848,1.082-1.377,1.355c-0.529,0.275-1.176,0.412-1.939,0.412c-0.416,0-0.818-0.057-1.207-0.17
		s-0.732-0.289-1.033-0.523c-0.303-0.234-0.543-0.521-0.725-0.863s-0.271-0.74-0.271-1.197c0-0.764,0.197-1.363,0.594-1.799
		c0.395-0.434,0.891-0.76,1.486-0.975c0.596-0.213,1.232-0.348,1.91-0.4c0.676-0.055,1.297-0.082,1.859-0.082H313.2z
		 M312.517,238.054c-0.334,0-0.754,0.018-1.256,0.051s-0.984,0.113-1.447,0.24c-0.461,0.129-0.857,0.326-1.186,0.594
		s-0.492,0.637-0.492,1.105c0,0.309,0.064,0.572,0.191,0.793c0.127,0.223,0.297,0.402,0.512,0.543s0.453,0.242,0.715,0.303
		c0.26,0.059,0.525,0.09,0.793,0.09c0.482,0,0.9-0.08,1.256-0.242c0.355-0.16,0.654-0.377,0.895-0.652
		c0.242-0.275,0.418-0.596,0.533-0.965c0.113-0.369,0.17-0.76,0.17-1.176v-0.684H312.517z"/>
	<path fill="#FFFFFF" d="M317.743,236.265c0-0.414-0.01-0.836-0.031-1.266c-0.02-0.428-0.037-0.984-0.049-1.668h1.305v1.748h0.041
		c0.094-0.254,0.229-0.498,0.402-0.732s0.385-0.445,0.633-0.635c0.248-0.188,0.535-0.338,0.863-0.451s0.701-0.172,1.117-0.172
		c0.373,0,0.703,0.041,0.984,0.121l-0.262,1.307c-0.174-0.066-0.43-0.1-0.764-0.1c-0.51,0-0.945,0.096-1.307,0.291
		c-0.361,0.193-0.664,0.441-0.904,0.744c-0.24,0.301-0.418,0.625-0.533,0.975c-0.113,0.348-0.17,0.682-0.17,1.004v5.307h-1.326
		V236.265z"/>
</g>
</svg>
