<?xml version="1.0" encoding="utf-8"?>
<!-- Generator: Adobe Illustrator 16.0.0, SVG Export Plug-In . SVG Version: 6.00 Build 0)  -->
<!DOCTYPE svg PUBLIC "-//W3C//DTD SVG 1.1//EN" "http://www.w3.org/Graphics/SVG/1.1/DTD/svg11.dtd">
<svg version="1.1" id="Layer_1" xmlns="http://www.w3.org/2000/svg" xmlns:xlink="http://www.w3.org/1999/xlink" x="0px" y="0px"
	 width="120px" height="60px" viewBox="0 0 120 60" enable-background="new 0 0 120 60" xml:space="preserve">
<g>
	<path fill="#FFFFFF" d="M13.5,12.3c0,0.663-0.538,1.2-1.2,1.2H2.7c-0.663,0-1.2-0.538-1.2-1.2V2.7c0-0.663,0.538-1.2,1.2-1.2h9.6
		c0.663,0,1.2,0.538,1.2,1.2V12.3z"/>
	<path fill="#FFFFFF" d="M18.833,27.3c0,0.663-0.538,1.2-1.2,1.2H2.7c-0.663,0-1.2-0.538-1.2-1.2v-9.6c0-0.663,0.538-1.2,1.2-1.2
		h14.933c0.663,0,1.2,0.538,1.2,1.2V27.3z"/>
	<path fill="#FFFFFF" d="M28.5,12.3c0,0.663-0.538,1.2-1.2,1.2h-9.6c-0.663,0-1.2-0.538-1.2-1.2V2.7c0-0.663,0.538-1.2,1.2-1.2h9.6
		c0.663,0,1.2,0.538,1.2,1.2V12.3z"/>
	<path fill="#FFFFFF" d="M43.5,12.3c0,0.663-0.538,1.2-1.2,1.2h-9.6c-0.663,0-1.2-0.538-1.2-1.2V2.7c0-0.663,0.538-1.2,1.2-1.2h9.6
		c0.663,0,1.2,0.538,1.2,1.2V12.3z"/>
	<path fill="#FFFFFF" d="M58.5,12.3c0,0.663-0.538,1.2-1.2,1.2h-9.6c-0.663,0-1.2-0.538-1.2-1.2V2.7c0-0.663,0.538-1.2,1.2-1.2h9.6
		c0.663,0,1.2,0.538,1.2,1.2V12.3z"/>
	<path fill="#FFFFFF" d="M73.5,12.3c0,0.663-0.537,1.2-1.2,1.2h-9.6c-0.663,0-1.2-0.538-1.2-1.2V2.7c0-0.663,0.537-1.2,1.2-1.2h9.6
		c0.663,0,1.2,0.538,1.2,1.2V12.3z"/>
	<path fill="#FFFFFF" d="M88.5,12.3c0,0.663-0.537,1.2-1.2,1.2h-9.6c-0.663,0-1.2-0.538-1.2-1.2V2.7c0-0.663,0.537-1.2,1.2-1.2h9.6
		c0.663,0,1.2,0.538,1.2,1.2V12.3z"/>
	<path fill="#FFFFFF" d="M33.833,27.3c0,0.663-0.538,1.2-1.2,1.2h-9.6c-0.663,0-1.2-0.538-1.2-1.2v-9.6c0-0.663,0.538-1.2,1.2-1.2
		h9.6c0.663,0,1.2,0.538,1.2,1.2V27.3z"/>
	<path fill="#FFFFFF" d="M20.867,57.3c0,0.663-0.538,1.2-1.2,1.2H2.7c-0.663,0-1.2-0.537-1.2-1.2v-9.6c0-0.663,0.538-1.2,1.2-1.2
		h16.966c0.663,0,1.2,0.537,1.2,1.2V57.3z"/>
	<path fill="#FFFFFF" d="M95.462,57.3c0,0.663-0.538,1.2-1.2,1.2H25.067c-0.663,0-1.2-0.537-1.2-1.2v-9.6c0-0.663,0.538-1.2,1.2-1.2
		h69.195c0.662,0,1.2,0.537,1.2,1.2V57.3z"/>
	<path fill="#FFFFFF" d="M48.833,27.3c0,0.663-0.538,1.2-1.2,1.2h-9.6c-0.663,0-1.2-0.538-1.2-1.2v-9.6c0-0.663,0.538-1.2,1.2-1.2
		h9.6c0.663,0,1.2,0.538,1.2,1.2V27.3z"/>
	<path fill="#FFFFFF" d="M63.833,27.3c0,0.663-0.538,1.2-1.2,1.2h-9.6c-0.663,0-1.2-0.538-1.2-1.2v-9.6c0-0.663,0.538-1.2,1.2-1.2
		h9.6c0.662,0,1.2,0.538,1.2,1.2V27.3z"/>
	<path fill="#FFFFFF" d="M78.833,27.3c0,0.663-0.537,1.2-1.2,1.2h-9.6c-0.663,0-1.2-0.538-1.2-1.2v-9.6c0-0.663,0.537-1.2,1.2-1.2
		h9.6c0.663,0,1.2,0.538,1.2,1.2V27.3z"/>
	<path fill="#FFFFFF" d="M93.833,27.3c0,0.663-0.537,1.2-1.2,1.2h-9.6c-0.663,0-1.2-0.538-1.2-1.2v-9.6c0-0.663,0.537-1.2,1.2-1.2
		h9.6c0.663,0,1.2,0.538,1.2,1.2V27.3z"/>
	<path fill="#FFFFFF" d="M103.5,12.3c0,0.663-0.537,1.2-1.2,1.2h-9.6c-0.663,0-1.2-0.538-1.2-1.2V2.7c0-0.663,0.537-1.2,1.2-1.2h9.6
		c0.663,0,1.2,0.538,1.2,1.2V12.3z"/>
	<path fill="#FFFFFF" d="M118.5,12.3c0,0.663-0.537,1.2-1.199,1.2H107.7c-0.663,0-1.2-0.538-1.2-1.2V2.7c0-0.663,0.537-1.2,1.2-1.2
		h9.601c0.662,0,1.199,0.538,1.199,1.2V12.3z"/>
	<path fill="#FFFFFF" d="M13.5,42.3c0,0.663-0.538,1.2-1.2,1.2H2.7c-0.663,0-1.2-0.537-1.2-1.2v-9.6c0-0.663,0.538-1.2,1.2-1.2h9.6
		c0.663,0,1.2,0.537,1.2,1.2V42.3z"/>
	<path fill="#FFFFFF" d="M28.5,42.3c0,0.663-0.538,1.2-1.2,1.2h-9.6c-0.663,0-1.2-0.537-1.2-1.2v-9.6c0-0.663,0.538-1.2,1.2-1.2h9.6
		c0.663,0,1.2,0.537,1.2,1.2V42.3z"/>
	<path fill="#FFFFFF" d="M43.5,42.3c0,0.663-0.538,1.2-1.2,1.2h-9.6c-0.663,0-1.2-0.537-1.2-1.2v-9.6c0-0.663,0.538-1.2,1.2-1.2h9.6
		c0.663,0,1.2,0.537,1.2,1.2V42.3z"/>
	<path fill="#FFFFFF" d="M58.5,42.3c0,0.663-0.538,1.2-1.2,1.2h-9.6c-0.663,0-1.2-0.537-1.2-1.2v-9.6c0-0.663,0.538-1.2,1.2-1.2h9.6
		c0.663,0,1.2,0.537,1.2,1.2V42.3z"/>
	<path fill="#FFFFFF" d="M73.5,42.3c0,0.663-0.537,1.2-1.2,1.2h-9.6c-0.663,0-1.2-0.537-1.2-1.2v-9.6c0-0.663,0.537-1.2,1.2-1.2h9.6
		c0.663,0,1.2,0.537,1.2,1.2V42.3z"/>
	<path fill="#FFFFFF" d="M88.5,42.3c0,0.663-0.537,1.2-1.2,1.2h-9.6c-0.663,0-1.2-0.537-1.2-1.2v-9.6c0-0.663,0.537-1.2,1.2-1.2h9.6
		c0.663,0,1.2,0.537,1.2,1.2V42.3z"/>
	<path fill="#FFFFFF" d="M103.5,42.3c0,0.663-0.537,1.2-1.2,1.2h-9.6c-0.663,0-1.2-0.537-1.2-1.2v-9.6c0-0.663,0.537-1.2,1.2-1.2
		h9.6c0.663,0,1.2,0.537,1.2,1.2V42.3z"/>
	<path fill="#FFFFFF" d="M118.5,42.3c0,0.663-0.537,1.2-1.199,1.2H107.7c-0.663,0-1.2-0.537-1.2-1.2v-9.6c0-0.663,0.537-1.2,1.2-1.2
		h9.601c0.662,0,1.199,0.537,1.199,1.2V42.3z"/>
	<path fill="#FFFFFF" d="M118.5,57.3c0,0.663-0.537,1.2-1.199,1.2H99.662c-0.663,0-1.2-0.537-1.2-1.2v-9.6
		c0-0.663,0.537-1.2,1.2-1.2h17.639c0.662,0,1.199,0.537,1.199,1.2V57.3z"/>
	<path fill="#FFFFFF" d="M118.024,27.3c0,0.663-0.537,1.2-1.2,1.2H98.033c-0.663,0-1.2-0.538-1.2-1.2v-9.6
		c0-0.663,0.537-1.2,1.2-1.2h18.791c0.663,0,1.2,0.538,1.2,1.2V27.3z"/>
</g>
</svg>
