<?xml version="1.0" encoding="UTF-8" standalone="no"?>
<svg width="37px" height="42px" viewBox="0 0 37 42" version="1.1" xmlns="http://www.w3.org/2000/svg" xmlns:xlink="http://www.w3.org/1999/xlink">
    <!-- Generator: Sketch 41.2 (35397) - http://www.bohemiancoding.com/sketch -->
    <title>Perfil - Scroll Agenciado</title>
    <desc>Created with Sketch.</desc>
    <defs>
        <polygon id="path-1" points="24.64 0.033096 24.64 30.24 0 30.24 0 0.033096"></polygon>
    </defs>
    <g id="Perfil---Mobile-(iPhone-4)" stroke="none" stroke-width="1" fill="none" fill-rule="evenodd">
        <g id="Perfil---Scroll-Agenciado" transform="translate(-23.000000, -835.000000)">
            <g id="Group-29-Copy" transform="translate(20.000000, 835.000000)">
                <g id="Group-24">
                    <g id="Group-3" transform="translate(20.853118, 21.243585) rotate(15.000000) translate(-20.853118, -21.243585) translate(8.533118, 6.123585)">
                        <mask id="mask-2" fill="white">
                            <use xlink:href="#path-1"></use>
                        </mask>
                        <g id="Clip-2"></g>
                        <path d="M22.699824,0.033096 L19.833184,0.033096 L19.833184,1.433096 L22.699824,1.433096 C22.997744,1.433096 23.240224,1.670256 23.240224,1.961736 L23.240224,28.311416 C23.240224,28.602896 22.997744,28.840056 22.699824,28.840056 L1.940064,28.840056 C1.642144,28.840056 1.399944,28.602896 1.399944,28.311416 L1.399944,1.961736 C1.399944,1.670256 1.642144,1.433096 1.940064,1.433096 L4.806704,1.433096 L4.806704,0.033096 L1.940064,0.033096 C0.868504,0.033096 -5.6e-05,0.896616 -5.6e-05,1.961736 L-5.6e-05,28.311416 C-5.6e-05,29.376536 0.868504,30.240056 1.940064,30.240056 L22.699824,30.240056 C23.771104,30.240056 24.640224,29.376536 24.640224,28.311416 L24.640224,1.961736 C24.640224,0.896616 23.771104,0.033096 22.699824,0.033096" id="Fill-1" fill="#FEFEFE" mask="url(#mask-2)"></path>
                    </g>
                    <path d="M25.0022316,6.12104487 C24.4996316,6.12104487 24.0922316,5.71364487 24.0922316,5.21104487 C24.0922316,4.70844487 24.4996316,4.30104487 25.0022316,4.30104487 C25.5048316,4.30104487 25.9122316,4.70844487 25.9122316,5.21104487 C25.9122316,5.71364487 25.5048316,6.12104487 25.0022316,6.12104487 M30.5089916,5.20936487 L28.1505516,5.20936487 C28.1497116,3.47140487 26.7404716,2.06272487 25.0022316,2.06272487 C23.2639916,2.06272487 21.8547516,3.47140487 21.8539116,5.20936487 L19.4954716,5.20936487 C19.1863516,5.20936487 18.9354716,5.46024487 18.9354716,5.76936487 L18.9354716,8.89612487 C18.9354716,9.20552487 19.1863516,9.45612487 19.4954716,9.45612487 L30.5089916,9.45612487 C30.8181116,9.45612487 31.0689916,9.20552487 31.0689916,8.89612487 L31.0689916,5.76936487 C31.0689916,5.46024487 30.8181116,5.20936487 30.5089916,5.20936487" id="Fill-4" fill="#FEFEFE" transform="translate(25.002232, 5.759425) rotate(15.000000) translate(-25.002232, -5.759425) "></path>
                    <path d="M31.8854552,14.8033927 C31.8854552,15.1167127 31.6314952,15.3706727 31.3181752,15.3706727 L22.7700552,15.3706727 C22.4567352,15.3706727 22.2024952,15.1167127 22.2024952,14.8033927 C22.2024952,14.4900727 22.4567352,14.2361127 22.7700552,14.2361127 L31.3181752,14.2361127 C31.6314952,14.2361127 31.8854552,14.4900727 31.8854552,14.8033927" id="Fill-6" fill="#FEFEFE" transform="translate(27.043975, 14.803393) rotate(15.000000) translate(-27.043975, -14.803393) "></path>
                    <path d="M28.6586419,16.7468796 C28.6586419,17.0601996 28.4046819,17.3141596 28.0913619,17.3141596 L22.2024019,17.3141596 C21.8890819,17.3141596 21.6351219,17.0601996 21.6351219,16.7468796 C21.6351219,16.4335596 21.8890819,16.1795996 22.2024019,16.1795996 L28.0913619,16.1795996 C28.4046819,16.1795996 28.6586419,16.4335596 28.6586419,16.7468796" id="Fill-8" fill="#FEFEFE" transform="translate(25.146882, 16.746880) rotate(15.000000) translate(-25.146882, -16.746880) "></path>
                    <path d="M29.9325299,22.0918092 C29.9325299,22.4051292 29.6785699,22.6590892 29.3652499,22.6590892 L20.8171299,22.6590892 C20.5038099,22.6590892 20.2495699,22.4051292 20.2495699,22.0918092 C20.2495699,21.7784892 20.5038099,21.5245292 20.8171299,21.5245292 L29.3652499,21.5245292 C29.6785699,21.5245292 29.9325299,21.7784892 29.9325299,22.0918092" id="Fill-10" fill="#FEFEFE" transform="translate(25.091050, 22.091809) rotate(15.000000) translate(-25.091050, -22.091809) "></path>
                    <path d="M26.7057601,24.0352738 C26.7057601,24.3485938 26.4518001,24.6025538 26.1384801,24.6025538 L20.2495201,24.6025538 C19.9362001,24.6025538 19.6822401,24.3485938 19.6822401,24.0352738 C19.6822401,23.7219538 19.9362001,23.4677138 20.2495201,23.4677138 L26.1384801,23.4677138 C26.4518001,23.4677138 26.7057601,23.7219538 26.7057601,24.0352738" id="Fill-12" fill="#FEFEFE" transform="translate(23.194000, 24.035134) rotate(15.000000) translate(-23.194000, -24.035134) "></path>
                    <path d="M27.9796771,29.3799553 C27.9796771,29.6932753 27.7257171,29.9472353 27.4123971,29.9472353 L18.8642771,29.9472353 C18.5509571,29.9472353 18.2967171,29.6932753 18.2967171,29.3799553 C18.2967171,29.0666353 18.5509571,28.8126753 18.8642771,28.8126753 L27.4123971,28.8126753 C27.7257171,28.8126753 27.9796771,29.0666353 27.9796771,29.3799553" id="Fill-14" fill="#FEFEFE" transform="translate(23.138197, 29.379955) rotate(15.000000) translate(-23.138197, -29.379955) "></path>
                    <path d="M24.752871,31.3234151 C24.752871,31.6367351 24.498911,31.8906951 24.185591,31.8906951 L18.296631,31.8906951 C17.983311,31.8906951 17.729351,31.6367351 17.729351,31.3234151 C17.729351,31.0100951 17.983311,30.7561351 18.296631,30.7561351 L24.185591,30.7561351 C24.498911,30.7561351 24.752871,31.0100951 24.752871,31.3234151" id="Fill-16" fill="#FEFEFE" transform="translate(21.241111, 31.323415) rotate(15.000000) translate(-21.241111, -31.323415) "></path>
                    <path d="M15.3407123,24.8473585 L11.4999523,24.8473585 C10.9214723,24.8473585 10.4524723,25.3163585 10.4524723,25.8948385 L10.4524723,29.7358785 C10.4524723,30.3143585 10.9214723,30.7833585 11.4999523,30.7833585 L15.3407123,30.7833585 C15.9191923,30.7833585 16.3881923,30.3143585 16.3881923,29.7358785 L16.3881923,25.8948385 C16.3881923,25.3163585 15.9191923,24.8473585 15.3407123,24.8473585 L15.3407123,24.8473585 Z M11.4999523,29.7358785 L15.3407123,29.7358785 L15.3407123,25.8948385 L11.4999523,25.8948385 L11.4999523,29.7358785 Z" id="Fill-18" fill="#FEFEFE" transform="translate(13.420332, 27.815358) rotate(15.000000) translate(-13.420332, -27.815358) "></path>
                    <path d="M20.2606533,12.6819551 L20.1788933,12.7715551 C19.9131733,13.0627551 19.6858133,13.4127551 19.4657333,13.7515551 C19.3923733,13.8643951 19.3198533,13.9738751 19.2464933,14.0816751 L19.2464933,15.1593951 L15.4057333,15.1593951 L15.4057333,11.3183551 L18.3020533,11.3183551 C18.3650533,11.2528351 18.4300133,11.1864751 18.4986133,11.1181551 C18.7542533,10.8636351 19.0546933,10.5682351 19.3825733,10.2843151 C19.3374933,10.2787151 19.2929733,10.2708751 19.2464933,10.2708751 L15.4057333,10.2708751 C14.8272533,10.2708751 14.3579733,10.7395951 14.3579733,11.3183551 L14.3579733,15.1593951 C14.3579733,15.7378751 14.8272533,16.2068751 15.4057333,16.2068751 L19.2464933,16.2068751 C19.8249733,16.2068751 20.2939733,15.7378751 20.2939733,15.1593951 L20.2939733,12.6455551 C20.2830533,12.6575951 20.2718533,12.6696351 20.2606533,12.6819551" id="Fill-20" fill="#FEFEFE" transform="translate(17.325973, 13.238875) rotate(15.000000) translate(-17.325973, -13.238875) "></path>
                    <path d="M20.2929442,12.3879674 C20.6684242,11.9800074 21.0523042,11.5908074 21.4714642,11.2273674 C21.5971842,11.1184474 22.5223042,10.4974074 22.1742642,10.2806874 C22.1434642,10.2613674 22.1000642,10.2543674 22.0521842,10.2543674 C21.9541842,10.2543674 21.8377042,10.2843274 21.7744242,10.3014074 C21.3317442,10.4220874 20.9097842,10.6866874 20.5421442,10.9529674 C20.0686642,11.2956874 19.6464242,11.7123274 19.2334242,12.1242074 C18.9128242,12.4434074 18.6039842,12.7788474 18.3396642,13.1473274 C18.3276242,13.1646874 18.0941042,13.4763274 18.1151042,13.4992874 C18.1137042,13.4976074 17.3999842,12.7222874 16.9150242,12.7222874 C16.8251442,12.7222874 16.7431042,12.7488874 16.6747842,12.8121674 C16.4941842,12.9793274 16.4779442,13.1915674 16.6115042,13.3914874 C16.7162242,13.5480074 16.8425042,13.6910874 16.9617842,13.8369674 C17.2835042,14.2295274 17.8667442,14.8959274 18.1151042,14.8959274 C18.6826642,14.8959274 19.1191842,13.6737274 19.9045842,12.8121674 C20.0339442,12.6707674 20.1630242,12.5288074 20.2929442,12.3879674" id="Fill-22" fill="#FEFEFE" transform="translate(19.387755, 12.575147) rotate(15.000000) translate(-19.387755, -12.575147) "></path>
                    <path d="M18.3077642,19.9703764 L18.2260042,20.0599764 C17.9602842,20.3511764 17.7329242,20.7008964 17.5128442,21.0399764 C17.4394842,21.1525364 17.3669642,21.2622964 17.2936042,21.3700964 L17.2936042,22.4475364 L13.4528442,22.4475364 L13.4528442,18.6067764 L16.3491642,18.6067764 C16.4121642,18.5412564 16.4771242,18.4746164 16.5457242,18.4065764 C16.8013642,18.1517764 17.1018042,17.8563764 17.4296842,17.5727364 C17.3846042,17.5668564 17.3400842,17.5592964 17.2936042,17.5592964 L13.4528442,17.5592964 C12.8743642,17.5592964 12.4050842,18.0280164 12.4050842,18.6067764 L12.4050842,22.4475364 C12.4050842,23.0262964 12.8743642,23.4950164 13.4528442,23.4950164 L17.2936042,23.4950164 C17.8720842,23.4950164 18.3410842,23.0262964 18.3410842,22.4475364 L18.3410842,19.9336964 C18.3301642,19.9460164 18.3189642,19.9580564 18.3077642,19.9703764" id="Fill-24" fill="#FEFEFE" transform="translate(15.373084, 20.527156) rotate(15.000000) translate(-15.373084, -20.527156) "></path>
                    <path d="M18.3400551,19.6761087 C18.7155351,19.2684287 19.0994151,18.8792287 19.5185751,18.5157887 C19.6442951,18.4068687 20.5694151,17.7858287 20.2213751,17.5691087 C20.1905751,17.5497887 20.1471751,17.5427887 20.0992951,17.5427887 C20.0012951,17.5427887 19.8848151,17.5724687 19.8215351,17.5898287 C19.3788551,17.7102287 18.9568951,17.9751087 18.5892551,18.2413887 C18.1157751,18.5841087 17.6935351,19.0007487 17.2805351,19.4123487 C16.9599351,19.7318287 16.6510951,20.0672687 16.3867751,20.4357487 C16.3747351,20.4528287 16.1412151,20.7647487 16.1622151,20.7877087 C16.1608151,20.7857487 15.4470951,20.0107087 14.9621351,20.0107087 C14.8722551,20.0107087 14.7902151,20.0373087 14.7218951,20.1005887 C14.5412951,20.2677487 14.5250551,20.4799887 14.6586151,20.6796287 C14.7633351,20.8364287 14.8896151,20.9795087 15.0088951,21.1251087 C15.3306151,21.5179487 15.9138551,22.1840687 16.1622151,22.1840687 C16.7297751,22.1840687 17.1662951,20.9621487 17.9516951,20.1005887 C18.0810551,19.9589087 18.2101351,19.8169487 18.3400551,19.6761087" id="Fill-26" fill="#FEFEFE" transform="translate(17.434865, 19.863429) rotate(15.000000) translate(-17.434865, -19.863429) "></path>
                </g>
            </g>
        </g>
    </g>
</svg>