<?xml version="1.0" encoding="UTF-8" standalone="no"?>
<svg width="34px" height="30px" viewBox="0 0 34 30" version="1.1" xmlns="http://www.w3.org/2000/svg" xmlns:xlink="http://www.w3.org/1999/xlink">
    <!-- Generator: Sketch 41.2 (35397) - http://www.bohemiancoding.com/sketch -->
    <title>Group 2</title>
    <desc>Created with Sketch.</desc>
    <defs>
        <rect id="path-1" x="0" y="0" width="320" height="64"></rect>
        <filter x="-50%" y="-50%" width="200%" height="200%" filterUnits="objectBoundingBox" id="filter-2">
            <feOffset dx="0" dy="0.5" in="SourceAlpha" result="shadowOffsetOuter1"></feOffset>
            <feComposite in="shadowOffsetOuter1" in2="SourceAlpha" operator="out" result="shadowOffsetOuter1"></feComposite>
            <feColorMatrix values="0 0 0 0 0   0 0 0 0 0   0 0 0 0 0  0 0 0 0.3 0" type="matrix" in="shadowOffsetOuter1"></feColorMatrix>
        </filter>
        <path d="M1.25,0 L21.25,0 C21.9404167,0 22.5,0.580367801 22.5,1.29546384 L22.5,8.20460434 C22.5,8.9201322 21.94,9.5005 21.25,9.5005 L1.25,9.5005 C0.559583333,9.5005 0,8.9201322 0,8.20460434 L0,1.29546384 C0,0.580367801 0.559583333,0 1.25,0 L1.25,0 Z" id="path-3"></path>
        <mask id="mask-4" maskContentUnits="userSpaceOnUse" maskUnits="objectBoundingBox" x="0" y="0" width="22.5" height="9.5005" fill="white">
            <use xlink:href="#path-3"></use>
        </mask>
        <path d="M33.5483842,2.75 C33.5483842,4.26878571 32.3062501,5.5 30.773994,5.5 C29.2417379,5.5 28.0000001,4.26917857 28.0000001,2.75 C27.9996038,1.23121429 29.2417379,0 30.773994,0 C32.3062501,0 33.5483842,1.23121429 33.5483842,2.75 Z" id="path-5"></path>
        <mask id="mask-6" maskContentUnits="userSpaceOnUse" maskUnits="objectBoundingBox" x="0" y="0" width="5.54838424" height="5.5" fill="white">
            <use xlink:href="#path-5"></use>
        </mask>
        <rect id="path-7" x="0" y="0" width="320" height="44"></rect>
        <filter x="-50%" y="-50%" width="200%" height="200%" filterUnits="objectBoundingBox" id="filter-8">
            <feOffset dx="0" dy="-0.5" in="SourceAlpha" result="shadowOffsetOuter1"></feOffset>
            <feComposite in="shadowOffsetOuter1" in2="SourceAlpha" operator="out" result="shadowOffsetOuter1"></feComposite>
            <feColorMatrix values="0 0 0 0 0   0 0 0 0 0   0 0 0 0 0  0 0 0 0.3 0" type="matrix" in="shadowOffsetOuter1"></feColorMatrix>
        </filter>
        <path d="M263.5,8 L263.5,27 L282.5,27 L282.5,8 L263.5,8 Z M269,3.5 L270,3.5 L270,7 L269,7 L269,3.5 Z M269,2.5 L288,2.5 L288,3.5 L269,3.5 L269,2.5 Z M287,3.5 L288,3.5 L288,21.5 L287,21.5 L287,3.5 Z M283.5,20.5 L287,20.5 L287,21.5 L283.5,21.5 L283.5,20.5 Z" id="path-9"></path>
        <mask id="mask-10" maskContentUnits="userSpaceOnUse" maskUnits="objectBoundingBox" x="0" y="0" width="24.5" height="24.5" fill="white">
            <use xlink:href="#path-9"></use>
        </mask>
    </defs>
    <g id="Perfil---Mobile-(iPhone-4)" stroke="none" stroke-width="1" fill="none" fill-rule="evenodd">
        <g id="Perfil---Menu-Principal-Copy" transform="translate(-25.000000, -235.000000)">
            <g id="Group" transform="translate(20.000000, 131.000000)" fill="#FFFFFF" opacity="0.6">
                <g id="Group-2" transform="translate(5.000000, 97.000000)">
                    <path d="M4.11725984,29.3582264 C5.30161667,30.4537613 9.15517562,32.9284689 3.59575583,36.6650324 C5.92097128,37.5081778 9.39328401,36.753748 12.1799061,34.4681386 C13.174183,33.6526249 15.408372,33.9656275 16.6552405,33.9656275 C25.8536759,33.9656275 33.310481,27.9291662 33.310481,20.4828138 C33.310481,13.0364613 25.8536759,7 16.6552405,7 C7.45680518,7 0,13.0364613 0,20.4828138 C0,23.8816889 1.55358863,26.9868201 4.11725984,29.3582264 Z" id="Oval-19"></path>
                </g>
            </g>
            <g id="iPhone-4-Safari">
                <g id="Top-Bar">
                    <g id="background-#F8F8F8">
                        <use fill="black" fill-opacity="1" filter="url(#filter-2)" xlink:href="#path-1"></use>
                        <use fill-opacity="0.86" fill="#F8F8F8" fill-rule="evenodd" xlink:href="#path-1"></use>
                    </g>
                    <g id="Search" transform="translate(9.500000, 24.500000)">
                        <rect id="background" fill-opacity="0.62" fill="#E6E7E8" x="0" y="0" width="301" height="29" rx="5.5"></rect>
                        <path d="M285.9955,8.49100152 C282.407569,8.49343248 279.5,11.4029999 279.5,14.991 C279.5,18.581 282.41,21.491 286,21.491 C289.4145,21.491 292.214,18.8425 292.4795,15.496 C292.1035,15.496 291.4965,15.489 290.9725,15.4895 C290.708,18.0015 288.5825,19.9915 286,19.9915 C283.2385,19.9915 281,17.7525 281,14.991 C281,12.2314999 283.236069,9.99343278 285.9955,9.99100198 L285.9955,12.5035 L291.1945,9.5015 L285.9955,6.5 L285.9955,8.49100141 Z" id="refresh" fill="#000000"></path>
                        <text id="www.magnetoelenco.co" font-family="HelveticaNeue, Helvetica Neue" font-size="17" font-weight="normal" letter-spacing="0.100000016" fill="#000000">
                            <tspan x="40.0579998" y="19.237999">www.magnetoelenco.com.br</tspan>
                        </text>
                    </g>
                    <g id="Status-Bar" transform="translate(6.000000, 0.500000)">
                        <g id="Battery" transform="translate(242.000000, 3.000000)">
                            <g id="Icon" transform="translate(42.000000, 2.000000)">
                                <path d="M23.5,6.5 C24.052,6.5 24.4995,5.97733333 24.4995,5.33333333 L24.4995,4.16666667 C24.4995,3.52266667 24.052,3 23.5,3 L23,3 L23,6.5 L23.5,6.5 Z" id="Shape" fill="#000000"></path>
                                <use id="Shape" stroke="#000000" mask="url(#mask-4)" xlink:href="#path-3"></use>
                                <rect id="Rectangle-15" fill="#000000" x="1" y="1" width="20.5" height="7.5" rx="0.5"></rect>
                            </g>
                            <text id="100%" font-family="HelveticaNeue, Helvetica Neue" font-size="12" font-weight="normal" letter-spacing="-1.04347825" fill="#000000">
                                <tspan x="7.52747825" y="11">1</tspan>
                                <tspan x="13.156" y="11">00%</tspan>
                            </text>
                        </g>
                        <g id="Bluetooth" transform="translate(236.000000, 3.000000)" fill="#000000" opacity="0.45">
                            <path d="M5.662,7.252 L8.485,4.489 L4.273,0.5 L4.173,0.5 L4.173,6.048 L1.314,3.1225 L0.5,3.9525 L3.9395,7.252 L0.5,10.5515 L1.314,11.381 L4.173,8.455 L4.173,14.003 L4.355,14.003 L8.5255,10.0035 L5.662,7.252 L5.662,7.252 Z M7.1075,4.489 L5.205,6.3565 L5.205,2.8175 L7.1075,4.489 L7.1075,4.489 Z M5.205,11.771 L5.205,8.0815 L7.024,10.015 L5.205,11.771 L5.205,11.771 Z" id="Icon"></path>
                        </g>
                        <g id="Time" transform="translate(138.000000, 0.000000)" fill="#000000" font-weight="400">
                            <text id="10" font-family="HelveticaNeue-Medium, Helvetica Neue" font-size="12" letter-spacing="-1.5">
                                <tspan x="0.5" y="14">1</tspan>
                                <tspan x="5.672" y="14">0</tspan>
                            </text>
                            <text id="10" font-family="HelveticaNeue-Medium, Helvetica Neue" font-size="12" letter-spacing="-1.5">
                                <tspan x="16.5" y="14">1</tspan>
                                <tspan x="21.672" y="14">0</tspan>
                            </text>
                            <text id=":" font-family="AvenirNext-Medium, Avenir Next" font-size="11.6363636" letter-spacing="1">
                                <tspan x="12.75" y="12.5">:</tspan>
                            </text>
                        </g>
                        <g id="Carrier" transform="translate(0.000000, 2.500000)">
                            <path d="M81.7413432,8.50912484 C80.9856958,8.50912484 80.2935197,8.82760846 79.755703,9.28693094 L81.7413432,11.555 L83.7292368,9.28918436 C83.1910446,8.82873517 82.4984929,8.50912484 81.7413432,8.50912484 Z M81.8198374,4.02293758 C83.7025713,4.02293758 85.4189276,4.738399 86.7341748,5.9120562 L87.6471862,4.87097532 C86.088945,3.47573165 84.0537296,2.5 81.8194618,2.5 C79.5889498,2.5 77.5563633,3.47310265 76,4.86459063 L76.9115091,5.90642265 C78.2263808,4.73577001 79.9397325,4.02293758 81.8198374,4.02293758 Z M81.7935475,7.0275 C82.9221363,7.0275 83.9530767,7.45076773 84.7481591,8.14632393 L85.714877,7.04477623 C84.6632802,6.11336188 83.294702,5.50456242 81.7939231,5.50456242 C80.2957731,5.50456242 78.9290728,6.11148403 77.8778515,7.04026939 L78.8430672,8.14331937 C79.6373984,7.44888988 80.6668366,7.0275 81.7935475,7.0275 Z" id="Wifi" fill="#000000"></path>
                            <text id="Claro" font-family="HelveticaNeue, Helvetica Neue" font-size="12" font-weight="normal" letter-spacing="1.13286722" fill="#000000">
                                <tspan x="38" y="11.5">Claro</tspan>
                            </text>
                            <g id="Signal" transform="translate(0.000000, 4.500000)">
                                <path d="M2.77439024,0 C4.30664634,0 5.54917683,1.23121429 5.54917683,2.75 C5.54917683,4.26878571 4.30704268,5.5 2.77439024,5.5 C1.24213415,5.5 0,4.26917857 0,2.75 C0,1.23121429 1.24253049,0 2.77439024,0 L2.77439024,0 Z" id="Shape" fill="#000000"></path>
                                <path d="M9.77439024,0 C11.3066463,0 12.5487805,1.23121429 12.5487805,2.75 C12.5487805,4.26878571 11.3066463,5.5 9.77439024,5.5 C8.24213415,5.5 7,4.26917857 7,2.75 C7,1.23121429 8.24213415,0 9.77439024,0 L9.77439024,0 Z" id="Shape" fill="#000000"></path>
                                <path d="M16.7496028,0 C18.2818589,0 19.5239931,1.23121429 19.5239931,2.75 C19.5239931,4.26878571 18.2818589,5.5 16.7496028,5.5 C15.2177431,5.5 13.9756089,4.26917857 13.9756089,2.75 C13.9752126,1.23121429 15.2173467,0 16.7496028,0 L16.7496028,0 Z" id="Shape" fill="#000000"></path>
                                <path d="M23.7743902,0 C25.3066463,0 26.5487805,1.23121429 26.5487805,2.75 C26.5487805,4.26878571 25.3070427,5.5 23.7743902,5.5 C22.2421341,5.5 21,4.26917857 21,2.75 C21,1.23121429 22.2421341,0 23.7743902,0 L23.7743902,0 Z" id="Shape" fill="#000000"></path>
                                <use id="Shape" stroke="#000000" mask="url(#mask-6)" xlink:href="#path-5"></use>
                            </g>
                        </g>
                    </g>
                </g>
                <g id="Navigation-Bar" transform="translate(0.000000, 436.000000)">
                    <g id="background-#F8F8F8">
                        <use fill="black" fill-opacity="1" filter="url(#filter-8)" xlink:href="#path-7"></use>
                        <use fill-opacity="0.86" fill="#F8F8F8" fill-rule="evenodd" xlink:href="#path-7"></use>
                    </g>
                    <g id="Icons" transform="translate(16.000000, 7.000000)">
                        <use id="tabs" stroke="#007AFF" mask="url(#mask-10)" stroke-width="2" xlink:href="#path-9"></use>
                        <path d="M215.656,3 C213.0275,3 210.833,4.1065 209.5,6.0635 C208.1675,4.1065 205.9725,3 203.344,3 C200.28,3 197,4.6395 197,7.08 L197,25.423 C197,25.616 197.105,25.793 197.274,25.8845 C197.4435,25.975 197.6495,25.966 197.808,25.86 C197.8485,25.833 201.8935,23.164 205.1555,23.164 C207.269,23.164 208.5225,24.2795 208.9895,26.5755 C208.9925,26.591 209.002,26.604 209.0065,26.619 C209.015,26.6475 209.0255,26.674 209.0385,26.7005 C209.0535,26.7305 209.07,26.7575 209.09,26.7835 C209.1065,26.8055 209.124,26.826 209.144,26.845 C209.168,26.8685 209.194,26.888 209.2225,26.906 C209.245,26.9205 209.267,26.935 209.2925,26.9455 C209.325,26.96 209.3585,26.968 209.394,26.976 C209.4125,26.98 209.4285,26.99 209.448,26.992 C209.465,26.9935 209.482,26.9945 209.4995,26.9945 L209.4995,26.9945 L209.5,26.9945 L209.5005,26.9945 L209.501,26.9945 C209.518,26.9945 209.535,26.993 209.5525,26.992 C209.5715,26.99 209.5875,26.9805 209.606,26.976 C209.641,26.968 209.675,26.9605 209.7075,26.9455 C209.7325,26.9345 209.7545,26.9205 209.7775,26.906 C209.806,26.888 209.832,26.8685 209.856,26.845 C209.876,26.826 209.893,26.8055 209.9095,26.7835 C209.9295,26.7575 209.946,26.7305 209.9605,26.7005 C209.9735,26.674 209.984,26.6475 209.9925,26.619 C209.997,26.604 210.0065,26.591 210.0095,26.5755 C210.4765,24.2795 211.7305,23.164 213.8435,23.164 C217.106,23.164 221.1505,25.8325 221.191,25.86 C221.35,25.9655 221.5555,25.975 221.725,25.8845 C221.894,25.793 221.999,25.616 221.999,25.423 L221.999,7.08 C222,4.6395 218.7205,3 215.656,3 L215.656,3 Z M205.156,22.1165 C202.472,22.1165 199.456,23.6655 198.042,24.4885 L198.042,7.08 C198.042,5.4935 200.5695,4.0485 203.3445,4.0485 C205.8545,4.0485 207.901,5.1985 208.9795,7.2095 L208.9795,23.886 C208.1195,22.72 206.8295,22.1165 205.156,22.1165 L205.156,22.1165 Z M220.9585,24.4885 C219.5445,23.6655 216.5285,22.1165 213.8445,22.1165 C212.171,22.1165 210.881,22.72 210.021,23.886 L210.021,7.21 C211.0995,5.199 213.1465,4.049 215.656,4.049 C218.431,4.049 220.958,5.494 220.958,7.0805 L220.958,24.4885 L220.9585,24.4885 Z" id="bookmarks" fill="#007AFF"></path>
                        <path d="M142.5,2.207 L139.3535,5.3535 L138.6465,4.6465 L143,0.293 L147.3535,4.6465 L146.6465,5.3535 L143.5,2.207 L143.5,17.5 L142.5,17.5 L142.5,2.207 Z M152.507,27 L133.5,27 L133.5,8 L140.5,8 L140.5,9 L134.5,9 L134.5,26 L151.507,26 L151.507,9 L145.5,9 L145.5,8 L152.507,8 L152.507,27 Z" id="share" fill="#007AFF"></path>
                        <path d="M71.0032056,15.2187499 L71,15.222 L72.113,16.35 L72.1160256,16.3469325 L79.8735,24.2115 L80.9825,23.087 L73.225298,15.2222716 L81.0155,7.324 L79.9025,6.196 L72.112509,14.0940577 L72.109,14.0905 L71,15.2155 L71.0032056,15.2187499 Z" id="forward" fill="#C4C4C4" transform="translate(76.007750, 15.203750) scale(-1, 1) translate(-76.007750, -15.203750) "></path>
                        <path d="M0.503205638,15.2187499 L0.5,15.222 L1.613,16.35 L1.61602556,16.3469325 L9.3735,24.2115 L10.4825,23.087 L2.72529804,15.2222716 L10.5155,7.324 L9.4025,6.196 L1.61250903,14.0940577 L1.609,14.0905 L0.5,15.2155 L0.503205638,15.2187499 Z" id="back" fill="#C4C4C4"></path>
                    </g>
                </g>
            </g>
        </g>
    </g>
</svg>