<?xml version="1.0" encoding="utf-8"?>
<!-- Generator: Adobe Illustrator 16.0.0, SVG Export Plug-In . SVG Version: 6.00 Build 0)  -->
<!DOCTYPE svg PUBLIC "-//W3C//DTD SVG 1.1//EN" "http://www.w3.org/Graphics/SVG/1.1/DTD/svg11.dtd">
<svg version="1.1" xmlns="http://www.w3.org/2000/svg" xmlns:xlink="http://www.w3.org/1999/xlink" x="0px" y="0px"
	 width="1303.939px" height="1303.939px" viewBox="0 0 1303.939 1303.939" enable-background="new 0 0 1303.939 1303.939"
	 xml:space="preserve">
<g id="Layer_2_copy" display="none">
	<path id="Contorno" fill="none" stroke="#000000" stroke-miterlimit="10" d="M1303.938,1170.559
		c-49.435-32.934-144.138-79.279-186.662-101.604c-54.575-28.651-208.747-95.506-234.67-109.148
		c-25.923-13.645-35.474-57.305-35.474-57.305l5.457-122.793c0,0,16.372-50.48,21.83-65.489c5.457-15.008,8.187-70.947,8.187-70.947
		s15.007-9.55,24.559-21.83c9.55-12.279,27.286-17.736,32.744-57.303c5.457-39.567,2.729-69.583-5.458-100.964
		c-8.186-31.38-32.745-2.728-32.745-2.728C959.009,60.688,653.391,72.966,653.391,72.966S347.773,60.688,405.077,460.447
		c0,0-24.559-28.652-32.745,2.728c-8.187,31.381-10.915,61.396-5.458,100.964c5.458,39.566,23.195,45.024,32.745,57.303
		c9.551,12.28,24.559,21.83,24.559,21.83s2.729,55.939,8.186,70.947c5.458,15.009,21.83,65.489,21.83,65.489l5.459,122.793
		c0,0-9.551,43.66-35.474,57.305c-25.922,13.643-180.096,80.497-234.671,109.148C146.151,1091.716,48.559,1139.445,0,1172.474
		v131.464h1303.938V1170.559z"/>
	<g id="Face" display="inline">
		<g>
			<path fill="none" stroke="#000000" stroke-miterlimit="10" d="M695.062,859.074c3.181-9.364,6.316-18.744,9.57-28.083
				c0.901-2.586,0.577-4.714-1.061-6.922c-5.728-7.72-11.494-15.422-16.861-23.389c-1.109-1.648-2.61-2.508-3.888-2.96
				c-8.211-2.911-16.576-5.39-24.854-8.119c-0.929-0.306-2.302-0.438-3.672-0.418"/>
			<path fill="none" stroke="#000000" stroke-miterlimit="10" d="M846.661,521.423c-4.947,14.842-9.935,29.67-14.828,44.53
				c-3.775,11.463-7.576,22.922-11.086,34.468c-1.812,5.962-4.61,11.643-6.174,17.54c-2.931,11.049-6.487,21.882-9.833,32.785
				c-4.948,16.132-10.201,32.171-15.326,48.25c-0.901,2.827-1.072,5.654-0.047,8.088c2.697,2.855,5.58,1.077,7.961,0.281
				c16.699-5.587,33.465-10.941,50.394-15.79"/>
			<path fill="none" stroke="#000000" stroke-miterlimit="10" d="M883.235,523.013c1.249,4.527-1.706,8.225-2.851,12.132
				c-4.081,13.933-9.179,27.564-13.431,41.45c-0.933,3.043-0.479,6.626-0.368,10.032c0.501,15.179,0.483,30.391,0.048,45.574
				c-0.123,4.272-2.216,8.514-3.555,12.721c-8.426,26.465-15.85,53.242-24.772,79.557c-1.333,3.929-3.859,6.831-6.052,9.963
				c-14.306,20.447-28.93,40.671-43.329,61.053c-2.763,3.91-6.559,6.609-10.172,9.438c-11.325,8.86-22.927,17.369-34.392,26.054
				c-11.857,8.984-23.704,17.983-35.49,27.064c-1.642,1.265-3.156,2.115-5.328,2.13c-11.662,0.077-23.334-0.479-34.989,0.428
				c-0.851,0.066-2.203-0.399-2.573-1.046c-2.173-3.795-6.236-6.407-6.963-11.09"/>
			<path fill="none" stroke="#000000" stroke-miterlimit="10" d="M859.913,453.575c-0.191-1.982-1.596-2.709-3.119-3.796
				c-14.096-10.057-28.045-20.318-41.97-30.47c-16.187,5.396-32.446,10.861-48.736,16.233c-18.891,6.23-37.794,12.424-56.725,18.526
				c-3.909,1.26-6.706,3.224-9.141,6.833c-7.567,11.214-15.626,22.107-23.779,32.908c-3.216,4.26-3.898,8.615-3.784,13.836
				c0.375,16.954,0.141,33.921,0.141,50.883c0,8.835,0.584,17.716-0.126,26.493c-1.319,16.3,5.245,30.505,10.728,45.066"/>
			<path fill="none" stroke="#000000" stroke-miterlimit="10" d="M686.052,519.303c4.644,2.565,5.34,7.959,8.314,11.791
				c8.771,11.298,16.542,23.371,25.226,34.743c2.513,3.292,3.437,5.752,2.054,9.681c-3.708,10.539-7.028,21.215-10.518,31.882
				c24.984,34.179,48.557,69.603,74.991,103.257c-15.58,5.386-30.692,10.963-46.058,15.718c-4.938,1.528-10.541,1.089-15.847,1.198
				c-8.301,0.172-16.607-0.016-24.912,0.079c-2.904,0.033-5.376-1.296-7.919-2.239c-3.181-1.182-6.442-2.486-9.53-0.892
				c-7.286,3.762-15.46,5.012-22.807,8.458c-1.619,0.76-3.199,1.025-4.747,0.982"/>
			<path fill="none" stroke="#000000" stroke-miterlimit="10" d="M864.684,585.031c-2.201,5.337-3.975,10.785-5.386,16.411
				c-2.5,9.973-8.104,18.329-14.137,26.591c-18.448,25.261-36.487,50.82-54.687,76.263"/>
			<path fill="none" stroke="#000000" stroke-miterlimit="10" d="M784.644,712.246c0.016,6.433-2.981,12.076-4.802,18.014
				c-9.389,30.614-18.312,61.374-28.546,91.726c-0.195,0.581,0.307,1.397,0.483,2.104"/>
			<path fill="none" stroke="#000000" stroke-miterlimit="10" d="M706.724,638.037c6.01,16.024,10.737,32.466,15.918,48.762
				c3.098,9.744,6.438,19.412,9.469,29.176c0.897,2.89,0.756,6.116,1.747,8.958c1.01,2.893-0.296,4.404-2.227,5.857
				c-12.709,9.558-25.453,19.069-38.138,28.66c-1.522,1.151-3.138,0.907-4.789,1.055c-2.662,0.238-5.508-0.854-7.953,1.038"/>
			<path fill="none" stroke="#000000" stroke-miterlimit="10" d="M757.08,460.996c-1.068,2.73-3.736,3.695-5.826,5.306
				c-13.966,10.767-27.77,21.755-41.961,32.218c-4.996,3.682-4.07,9.508-6.686,13.965c-0.469,0.8-0.87,2.034-1.536,4.167
				c5.091,0,9.878,0,14.664,0"/>
			<path fill="none" stroke="#000000" stroke-miterlimit="10" d="M737.468,728.679c7.726,6.069,15.451,12.141,23.248,18.267
				c-6.95,10.209-14.4,20.397-20.979,31.12c-3.406,5.552-8.533,4.457-12.873,4.499c-24.187,0.236-48.376,0.229-72.565,0.196"/>
			<path fill="none" stroke="#000000" stroke-miterlimit="10" d="M699.833,783.806c6.714,9.894,12.969,20.148,20.318,29.546
				c4.265,5.453,4.216,10.22,2.013,16.065c-2.086,5.533-3.412,11.353-5.476,16.896c-0.686,1.842,0.122,3.22,0.106,4.81"/>
			<path fill="none" stroke="#000000" stroke-miterlimit="10" d="M689.762,521.953c4.347,0.555,6.84,4.067,10.05,6.391
				c18.95,13.721,37.833,27.533,56.738,41.315"/>
			<path fill="none" stroke="#000000" stroke-miterlimit="10" d="M688.172,643.338c1.692,4.19-2.386,7.466-1.818,11.692
				c0.234,1.737,0.034,3.129,1.22,4.788c14.594,20.421,29.044,40.944,43.553,61.426c0.201,0.284,0.688,0.367,1.041,0.543"/>
			<path fill="none" stroke="#000000" stroke-miterlimit="10" d="M866.804,458.875c4.947,14.312,9.9,28.622,14.837,42.937
				c1.093,3.169,1.903,6.456,3.237,9.517c1.973,4.526,0.389,7.669-2.59,11.248c-5.006,6.017-9.307,12.622-13.892,18.989
				c-7.252,10.067-14.491,20.142-21.735,30.213"/>
			<path fill="none" stroke="#000000" stroke-miterlimit="10" d="M654.299,760.465c0.689,0.011,1.38,0.02,2.069,0.024
				c11.051,0.077,21.764-0.28,32.495,4.965c12.932,6.319,27.29,9.559,40.653,15.171"/>
			<path fill="none" stroke="#000000" stroke-miterlimit="10" d="M727.396,725.498c-14.561-5.791-29.884-9.384-44.444-15.049
				c-8.386-3.262-15.515-1.147-22.841,1.878c-2.014,0.832-3.915,1.274-5.812,1.295"/>
			<path fill="none" stroke="#000000" stroke-miterlimit="10" d="M654.299,658.821c0.642-0.021,1.27-0.21,1.762-0.574
				c8.123-6.014,16.252-11.068,23.63-18.089"/>
			<path fill="none" stroke="#000000" stroke-miterlimit="10" d="M860.443,462.585c-1.175-1.274-1.795-0.115-2.664,0.511
				c-15,10.804-29.832,21.861-45.17,32.164c-4.148,2.787-6.726,5.893-8.354,10.26"/>
			<path fill="none" stroke="#000000" stroke-miterlimit="10" d="M736.407,783.275c3.181,4.417,6.423,8.791,9.516,13.269
				c1.576,2.282,1.386,4.793,0.588,7.413c-2.734,8.986-5.361,18.005-7.93,27.038c-0.22,0.771,0.3,1.753,0.477,2.636"/>
			<path fill="none" stroke="#000000" stroke-miterlimit="10" d="M672.27,654.999c1.096,2.59,0.585,5.318,0.477,7.949
				c-0.475,11.52,0.813,22.97,1.093,34.457c0.044,1.812,0.509,3.771-1.039,5.3"/>
			<path fill="none" stroke="#000000" stroke-miterlimit="10" d="M866.273,457.815c-2.372,0.231-3.839,2.187-4.656,3.77
				c-7.246,14.019-17.694,25.798-26.534,38.692c-1.072,1.561-2.883,2.961-2.733,5.244"/>
			<path fill="none" stroke="#000000" stroke-miterlimit="10" d="M813.268,618.955c-5.899,5.514-9.495,12.757-14.313,19.081
				c-11.356,14.905-21.07,30.996-32.862,45.587"/>
			<path fill="none" stroke="#000000" stroke-miterlimit="10" d="M654.298,645.417c4.058-0.111,8.064-1.048,12.141-2.611
				c4.112-1.577,8.216-2.966,12.716-3.266c4.097-0.273,5.271-2.64,5.407-7.331c0.076-2.629,1.031-5.199,1.018-7.954
				c-0.068-14.145-1.521-28.234-1.207-42.407c0.377-16.954,0.384-33.929-0.022-50.881c-0.24-10.026,1.33-18.797,8.432-26.651
				c5.573-6.165,10.178-13.363,14.346-20.601c4.579-7.953,11.002-12.852,19.749-14.723c10.262-2.196,19.794-6.704,30.132-8.872
				c4.972-1.042,11.59-3.674,17.034-6.016c12.945-5.336,26.599-8.55,39.732-13.314c0.88-0.319,1.29-0.294,2.165-0.003
				c13.573,4.511,27.188,8.9,40.793,13.317"/>
			<path fill="none" stroke="#000000" stroke-miterlimit="10" d="M765.562,685.743c-9.364,13.252-18.729,26.503-28.094,39.755"/>
			<path fill="none" stroke="#000000" stroke-miterlimit="10" d="M658.488,665.07c4.063,11.485,8.269,22.923,12.09,34.488
				c0.926,2.802,4.238,4.88,2.752,8.447"/>
			<path fill="none" stroke="#000000" stroke-miterlimit="10" d="M686.581,576.55c3.182,9.011,6.362,18.021,9.529,26.991
				c-3.184,2.14-6.356,4.271-9.529,6.403"/>
			<path fill="none" stroke="#000000" stroke-miterlimit="10" d="M679.69,726.028c1.413,4.417,2.438,9.011,4.349,13.203
				c1.984,4.357,1.035,7.638-1.622,11.235c-2.239,3.03-5.38,5.728-5.377,10.016"/>
			<path fill="none" stroke="#000000" stroke-miterlimit="10" d="M710.965,609.414c-2.121,6.538-5.506,12.986-5.975,19.64
				c-0.402,5.7-0.853,11.636-0.379,17.464c0.226,2.766-0.058,4.268-3.671,5.005c-4.811,0.982-9.195,3.92-14.359,4.006"/>
			<path fill="none" stroke="#000000" stroke-miterlimit="10" d="M696.123,605.173c2.12,6.184,4.332,12.339,6.288,18.575
				c0.423,1.353,0.893,2.219,2.192,2.628"/>
			<path fill="none" stroke="#000000" stroke-miterlimit="10" d="M824.398,499.69c7.068,5.3,14.006,10.791,21.279,15.79
				c2.274,1.562,2.219,2.88,1.514,4.882"/>
			<path fill="none" stroke="#000000" stroke-miterlimit="10" d="M654.299,860.232c3.517-0.03,7.037-0.21,10.55-0.098"/>
			<path fill="none" stroke="#000000" stroke-miterlimit="10" d="M673.86,709.066c1.942,5.477,3.887,10.954,5.83,16.432"/>
			<path fill="none" stroke="#000000" stroke-miterlimit="10" d="M704.073,457.285c3.534,5.3,7.068,10.601,10.602,15.902"/>
			<path fill="none" stroke="#000000" stroke-miterlimit="10" d="M690.292,640.158c-3.771,4.602-9.273,6.95-13.831,10.538
				c-7.356,5.791-14.272,11.038-22.162,16.851"/>
			<path fill="none" stroke="#000000" stroke-miterlimit="10" d="M654.299,844.285c6.702,4.981,14.729,8.409,20.091,14.789"/>
			<path fill="none" stroke="#000000" stroke-miterlimit="10" d="M830.76,506.581c-2.298,3.534-4.594,7.067-6.892,10.602"/>
			<g>
				<circle fill="none" stroke="#000000" stroke-miterlimit="10" cx="764.858" cy="489.498" r="18.881"/>
				<circle fill="none" stroke="#000000" stroke-miterlimit="10" cx="764.858" cy="489.498" r="6.108"/>
			</g>
			<path fill="none" stroke="#000000" stroke-miterlimit="10" d="M717.255,505.243l47.513-35.949l31.7,9.51l12.681,16.907
				l-4.227,9.51"/>
			<path fill="none" stroke="#000000" stroke-miterlimit="10" d="M717.255,505.243l48.56,16.89l49.043-16.071"/>
			<path fill="none" stroke="#000000" stroke-miterlimit="10" d="M865.743,453.575"/>
			<path fill="none" stroke="#000000" stroke-miterlimit="10" d="M865.743,453.575c0-43.996-0.005-87.991,0.016-131.986
				c0.001-2.399-0.156-4.195-2.597-5.929c-27.143-19.281-54.166-38.732-81.154-58.23c-10.34-7.47-20.631-15.02-30.698-22.85
				c-3.909-3.042-7.82-4.297-12.782-4.257c-28.075,0.227-56.152,0.243-84.229,0.386"/>
		</g>
		<g>
			<path fill="none" stroke="#000000" stroke-miterlimit="10" d="M613.534,859.074c-3.181-9.364-6.316-18.744-9.57-28.083
				c-0.901-2.586-0.577-4.714,1.061-6.922c5.728-7.72,11.494-15.422,16.861-23.389c1.109-1.648,2.61-2.508,3.888-2.96
				c8.211-2.911,16.576-5.39,24.854-8.119c0.929-0.306,2.302-0.438,3.672-0.418"/>
			<path fill="none" stroke="#000000" stroke-miterlimit="10" d="M461.936,521.423c4.947,14.842,9.935,29.67,14.828,44.53
				c3.775,11.463,7.576,22.922,11.086,34.468c1.812,5.962,4.61,11.643,6.174,17.54c2.931,11.049,6.487,21.882,9.833,32.785
				c4.948,16.132,10.201,32.171,15.326,48.25c0.901,2.827,1.072,5.654,0.047,8.088c-2.697,2.855-5.58,1.077-7.961,0.281
				c-16.699-5.587-33.465-10.941-50.394-15.79"/>
			<path fill="none" stroke="#000000" stroke-miterlimit="10" d="M425.361,523.013c-1.249,4.527,1.706,8.225,2.851,12.132
				c4.081,13.933,9.179,27.564,13.431,41.45c0.933,3.043,0.479,6.626,0.368,10.032c-0.501,15.179-0.483,30.391-0.048,45.574
				c0.123,4.272,2.216,8.514,3.555,12.721c8.426,26.465,15.85,53.242,24.772,79.557c1.333,3.929,3.859,6.831,6.052,9.963
				c14.306,20.447,28.93,40.671,43.329,61.053c2.763,3.91,6.559,6.609,10.172,9.438c11.325,8.86,22.927,17.369,34.392,26.054
				c11.857,8.984,23.704,17.983,35.49,27.064c1.642,1.265,3.156,2.115,5.328,2.13c11.662,0.077,23.334-0.479,34.989,0.428
				c0.851,0.066,2.203-0.399,2.573-1.046c2.173-3.795,6.236-6.407,6.963-11.09"/>
			<path fill="none" stroke="#000000" stroke-miterlimit="10" d="M448.684,453.575c0.191-1.982,1.596-2.709,3.119-3.796
				c14.096-10.057,28.045-20.318,41.97-30.47c16.187,5.396,32.446,10.861,48.736,16.233c18.891,6.23,37.794,12.424,56.725,18.526
				c3.909,1.26,6.706,3.224,9.141,6.833c7.567,11.214,15.626,22.107,23.779,32.908c3.216,4.26,3.898,8.615,3.784,13.836
				c-0.375,16.954-0.141,33.921-0.141,50.883c0,8.835-0.584,17.716,0.126,26.493c1.319,16.3-5.245,30.505-10.728,45.066"/>
			<path fill="none" stroke="#000000" stroke-miterlimit="10" d="M622.545,519.303c-4.644,2.565-5.34,7.959-8.314,11.791
				c-8.771,11.298-16.542,23.371-25.226,34.743c-2.513,3.292-3.437,5.752-2.054,9.681c3.708,10.539,7.028,21.215,10.518,31.882
				c-24.984,34.179-48.557,69.603-74.991,103.257c15.58,5.386,30.692,10.963,46.058,15.718c4.938,1.528,10.541,1.089,15.847,1.198
				c8.301,0.172,16.607-0.016,24.912,0.079c2.904,0.033,5.376-1.296,7.919-2.239c3.181-1.182,6.442-2.486,9.53-0.892
				c7.286,3.762,15.46,5.012,22.807,8.458c1.619,0.76,3.199,1.025,4.747,0.982"/>
			<path fill="none" stroke="#000000" stroke-miterlimit="10" d="M443.913,585.031c2.201,5.337,3.975,10.785,5.386,16.411
				c2.5,9.973,8.104,18.329,14.137,26.591c18.448,25.261,36.487,50.82,54.687,76.263"/>
			<path fill="none" stroke="#000000" stroke-miterlimit="10" d="M523.953,712.246c-0.016,6.433,2.981,12.076,4.802,18.014
				c9.389,30.614,18.312,61.374,28.546,91.726c0.195,0.581-0.307,1.397-0.483,2.104"/>
			<path fill="none" stroke="#000000" stroke-miterlimit="10" d="M601.873,638.037c-6.01,16.024-10.737,32.466-15.918,48.762
				c-3.098,9.744-6.438,19.412-9.469,29.176c-0.897,2.89-0.756,6.116-1.747,8.958c-1.01,2.893,0.296,4.404,2.227,5.857
				c12.709,9.558,25.453,19.069,38.138,28.66c1.522,1.151,3.138,0.907,4.789,1.055c2.662,0.238,5.508-0.854,7.953,1.038"/>
			<path fill="none" stroke="#000000" stroke-miterlimit="10" d="M551.517,460.996c1.068,2.73,3.736,3.695,5.826,5.306
				c13.966,10.767,27.77,21.755,41.961,32.218c4.996,3.682,4.07,9.508,6.686,13.965c0.469,0.8,0.87,2.034,1.536,4.167
				c-5.091,0-9.878,0-14.664,0"/>
			<path fill="none" stroke="#000000" stroke-miterlimit="10" d="M571.129,728.679c-7.726,6.069-15.451,12.141-23.248,18.267
				c6.95,10.209,14.4,20.397,20.979,31.12c3.406,5.552,8.533,4.457,12.873,4.499c24.187,0.236,48.376,0.229,72.565,0.196"/>
			<path fill="none" stroke="#000000" stroke-miterlimit="10" d="M608.764,783.806c-6.714,9.894-12.969,20.148-20.318,29.546
				c-4.265,5.453-4.216,10.22-2.013,16.065c2.086,5.533,3.412,11.353,5.476,16.896c0.686,1.842-0.122,3.22-0.106,4.81"/>
			<path fill="none" stroke="#000000" stroke-miterlimit="10" d="M618.835,521.953c-4.347,0.555-6.84,4.067-10.05,6.391
				c-18.95,13.721-37.833,27.533-56.738,41.315"/>
			<path fill="none" stroke="#000000" stroke-miterlimit="10" d="M620.425,643.338c-1.692,4.19,2.386,7.466,1.818,11.692
				c-0.234,1.737-0.034,3.129-1.22,4.788c-14.594,20.421-29.044,40.944-43.553,61.426c-0.201,0.284-0.688,0.367-1.041,0.543"/>
			<path fill="none" stroke="#000000" stroke-miterlimit="10" d="M441.793,458.875c-4.947,14.312-9.9,28.622-14.837,42.937
				c-1.093,3.169-1.903,6.456-3.237,9.517c-1.973,4.526-0.389,7.669,2.59,11.248c5.006,6.017,9.307,12.622,13.892,18.989
				c7.252,10.067,14.491,20.142,21.735,30.213"/>
			<path fill="none" stroke="#000000" stroke-miterlimit="10" d="M654.298,760.465c-0.689,0.011-1.38,0.02-2.069,0.024
				c-11.051,0.077-21.764-0.28-32.495,4.965c-12.932,6.319-27.29,9.559-40.653,15.171"/>
			<path fill="none" stroke="#000000" stroke-miterlimit="10" d="M581.2,725.498c14.561-5.791,29.884-9.384,44.444-15.049
				c8.386-3.262,15.515-1.147,22.841,1.878c2.014,0.832,3.915,1.274,5.812,1.295"/>
			<path fill="none" stroke="#000000" stroke-miterlimit="10" d="M654.298,658.821c-0.642-0.021-1.27-0.21-1.762-0.574
				c-8.123-6.014-16.252-11.068-23.63-18.089"/>
			<path fill="none" stroke="#000000" stroke-miterlimit="10" d="M448.153,462.585c1.175-1.274,1.795-0.115,2.664,0.511
				c15,10.804,29.832,21.861,45.17,32.164c4.148,2.787,6.726,5.893,8.354,10.26"/>
			<path fill="none" stroke="#000000" stroke-miterlimit="10" d="M572.189,783.275c-3.181,4.417-6.423,8.791-9.516,13.269
				c-1.576,2.282-1.386,4.793-0.588,7.413c2.734,8.986,5.361,18.005,7.93,27.038c0.22,0.771-0.3,1.753-0.477,2.636"/>
			<path fill="none" stroke="#000000" stroke-miterlimit="10" d="M636.327,654.999c-1.096,2.59-0.585,5.318-0.477,7.949
				c0.475,11.52-0.813,22.97-1.093,34.457c-0.044,1.812-0.509,3.771,1.039,5.3"/>
			<path fill="none" stroke="#000000" stroke-miterlimit="10" d="M442.323,457.815c2.372,0.231,3.839,2.187,4.656,3.77
				c7.246,14.019,17.694,25.798,26.534,38.692c1.072,1.561,2.883,2.961,2.733,5.244"/>
			<path fill="none" stroke="#000000" stroke-miterlimit="10" d="M495.329,618.955c5.899,5.514,9.495,12.757,14.313,19.081
				c11.356,14.905,21.07,30.996,32.862,45.587"/>
			<path fill="none" stroke="#000000" stroke-miterlimit="10" d="M654.299,645.417c-4.058-0.111-8.064-1.048-12.141-2.611
				c-4.112-1.577-8.216-2.966-12.716-3.266c-4.097-0.273-5.271-2.64-5.407-7.331c-0.076-2.629-1.031-5.199-1.018-7.954
				c0.068-14.145,1.521-28.234,1.207-42.407c-0.377-16.954-0.384-33.929,0.022-50.881c0.24-10.026-1.33-18.797-8.432-26.651
				c-5.573-6.165-10.178-13.363-14.346-20.601c-4.579-7.953-11.002-12.852-19.749-14.723c-10.262-2.196-19.794-6.704-30.132-8.872
				c-4.972-1.042-11.59-3.674-17.034-6.016c-12.945-5.336-26.599-8.55-39.732-13.314c-0.88-0.319-1.29-0.294-2.165-0.003
				c-13.573,4.511-27.188,8.9-40.793,13.317"/>
			<path fill="none" stroke="#000000" stroke-miterlimit="10" d="M543.035,685.743c9.364,13.252,18.729,26.503,28.094,39.755"/>
			<path fill="none" stroke="#000000" stroke-miterlimit="10" d="M650.108,665.07c-4.063,11.485-8.269,22.923-12.09,34.488
				c-0.926,2.802-4.238,4.88-2.752,8.447"/>
			<path fill="none" stroke="#000000" stroke-miterlimit="10" d="M622.016,576.55c-3.182,9.011-6.362,18.021-9.529,26.991
				c3.184,2.14,6.356,4.271,9.529,6.403"/>
			<path fill="none" stroke="#000000" stroke-miterlimit="10" d="M628.906,726.028c-1.413,4.417-2.438,9.011-4.349,13.203
				c-1.984,4.357-1.035,7.638,1.622,11.235c2.239,3.03,5.38,5.728,5.377,10.016"/>
			<path fill="none" stroke="#000000" stroke-miterlimit="10" d="M597.632,609.414c2.121,6.538,5.506,12.986,5.975,19.64
				c0.402,5.7,0.853,11.636,0.379,17.464c-0.226,2.766,0.058,4.268,3.671,5.005c4.811,0.982,9.195,3.92,14.359,4.006"/>
			<path fill="none" stroke="#000000" stroke-miterlimit="10" d="M612.474,605.173c-2.12,6.184-4.332,12.339-6.288,18.575
				c-0.423,1.353-0.893,2.219-2.192,2.628"/>
			<path fill="none" stroke="#000000" stroke-miterlimit="10" d="M484.198,499.69c-7.068,5.3-14.006,10.791-21.279,15.79
				c-2.274,1.562-2.219,2.88-1.514,4.882"/>
			<path fill="none" stroke="#000000" stroke-miterlimit="10" d="M654.298,860.232c-3.517-0.03-7.037-0.21-10.55-0.098"/>
			<path fill="none" stroke="#000000" stroke-miterlimit="10" d="M634.736,709.066c-1.942,5.477-3.887,10.954-5.83,16.432"/>
			<path fill="none" stroke="#000000" stroke-miterlimit="10" d="M604.523,457.285c-3.534,5.3-7.068,10.601-10.602,15.902"/>
			<path fill="none" stroke="#000000" stroke-miterlimit="10" d="M618.305,640.158c3.771,4.602,9.273,6.95,13.831,10.538
				c7.356,5.791,14.272,11.038,22.162,16.851"/>
			<path fill="none" stroke="#000000" stroke-miterlimit="10" d="M654.298,844.285c-6.702,4.981-14.729,8.409-20.091,14.789"/>
			<path fill="none" stroke="#000000" stroke-miterlimit="10" d="M477.837,506.581c2.298,3.534,4.594,7.067,6.892,10.602"/>
			<g>
				<circle fill="none" stroke="#000000" stroke-miterlimit="10" cx="543.739" cy="489.498" r="18.881"/>
				<circle fill="none" stroke="#000000" stroke-miterlimit="10" cx="543.739" cy="489.498" r="6.108"/>
			</g>
			<path fill="none" stroke="#000000" stroke-miterlimit="10" d="M503.675,505.222l-4.227-9.51l12.681-16.907l31.7-9.51
				l47.513,35.949"/>
			<path fill="none" stroke="#000000" stroke-miterlimit="10" d="M493.739,506.062l49.043,16.071l48.56-16.89"/>
			<path fill="none" stroke="#000000" stroke-miterlimit="10" d="M442.854,453.575"/>
			<path fill="none" stroke="#000000" stroke-miterlimit="10" d="M442.854,453.575c0-43.996,0.005-87.991-0.016-131.986
				c-0.001-2.399,0.156-4.195,2.597-5.929c27.143-19.281,54.166-38.732,81.154-58.23c10.34-7.47,20.631-15.02,30.698-22.85
				c3.909-3.042,7.82-4.297,12.782-4.257c28.075,0.227,56.152,0.243,84.229,0.386"/>
		</g>
	</g>
	<rect display="inline" fill="none" stroke="#000000" stroke-miterlimit="10" width="1303.938" height="1303.938"/>
	<text transform="matrix(1 0 0 1 269.5757 1090.5781)" display="inline"><tspan x="0" y="0" font-family="'Avenir-Heavy'" font-size="88.8264">REDIMENSIONE E</tspan><tspan x="-72.392" y="106.592" font-family="'Avenir-Heavy'" font-size="88.8264">ALINHE SEUS OLHOS</tspan></text>
</g>
<g id="Layer_2_copy_2" display="none">
	<path id="Contorno_1_" fill="none" stroke="#000000" stroke-miterlimit="10" d="M1303.938,1170.559
		c-49.435-32.934-144.138-79.279-186.662-101.604c-54.575-28.651-208.747-95.506-234.67-109.148
		c-25.923-13.645-35.474-57.305-35.474-57.305l5.457-122.793c0,0,16.372-50.48,21.83-65.489c5.457-15.008,8.187-70.947,8.187-70.947
		s15.007-9.55,24.559-21.83c9.55-12.279,27.286-17.736,32.744-57.303c5.457-39.567,2.729-69.583-5.458-100.964
		c-8.186-31.38-32.745-2.728-32.745-2.728C959.009,60.688,653.391,72.966,653.391,72.966S347.773,60.688,405.077,460.447
		c0,0-24.559-28.652-32.745,2.728c-8.187,31.381-10.915,61.396-5.458,100.964c5.458,39.566,23.195,45.024,32.745,57.303
		c9.551,12.28,24.559,21.83,24.559,21.83s2.729,55.939,8.186,70.947c5.458,15.009,21.83,65.489,21.83,65.489l5.459,122.793
		c0,0-9.551,43.66-35.474,57.305c-25.922,13.643-180.096,80.497-234.671,109.148C146.151,1091.716,48.559,1139.445,0,1172.474
		v131.464h1303.938V1170.559z"/>
	<g id="Face_1_" display="inline">
		<g>
			<path fill="none" stroke="#000000" stroke-width="5" stroke-miterlimit="10" d="M878.604,523.467
				c1.224,4.436-1.671,8.059-2.793,11.887c-3.998,13.651-8.993,27.007-13.159,40.612c-0.913,2.982-0.47,6.493-0.36,9.829
				c0.49,14.873,0.474,29.777,0.047,44.653c-0.121,4.186-2.171,8.342-3.482,12.464c-8.256,25.93-15.529,52.165-24.271,77.948
				c-1.307,3.85-3.781,6.693-5.93,9.762c-14.017,20.033-28.345,39.848-42.453,59.817c-2.706,3.831-6.425,6.476-9.966,9.247
				c-11.097,8.68-22.463,17.018-33.696,25.526c-11.617,8.803-23.224,17.619-34.771,26.517c-1.608,1.239-3.093,2.073-5.221,2.087
				c-11.427,0.075-62.217,0.42-62.217,0.42"/>
			<path fill="none" stroke="#000000" stroke-width="5" stroke-miterlimit="10" d="M855.754,455.434
				c-0.188-1.942-1.563-2.655-3.057-3.72c-13.81-9.853-27.478-19.907-41.12-29.854c-15.858,5.286-31.79,10.641-47.75,15.905
				c-18.509,6.104-37.03,12.172-55.578,18.152c-3.829,1.234-6.57,3.159-8.956,6.694c-7.414,10.987-15.31,21.659-23.298,32.242
				c-3.15,4.174-3.819,8.441-3.707,13.556c0.366,16.611,0.137,33.235,0.137,49.854c0,8.656,0.573,17.358-0.123,25.958
				c-1.293,15.97,5.139,29.888,10.511,44.154"/>
			<path fill="none" stroke="#000000" stroke-width="5" stroke-miterlimit="10" d="M862.505,460.626
				c4.848,14.022,9.701,28.043,14.537,42.069c1.07,3.105,1.864,6.325,3.172,9.324c1.933,4.435,0.381,7.514-2.537,11.021"/>
			<path fill="none" stroke="#000000" stroke-width="5" stroke-miterlimit="10" d="M654.299,656.528
				c0.628-0.021,1.244-0.206,1.727-0.562c7.959-5.893,15.922-10.844,23.151-17.723"/>
			<path fill="none" stroke="#000000" stroke-width="5" stroke-miterlimit="10" d="M654.298,643.395
				c3.976-0.108,7.901-1.027,11.896-2.558c4.029-1.544,8.05-2.905,12.458-3.199c4.014-0.268,5.165-2.587,5.298-7.183
				c0.074-2.576,1.01-5.094,0.997-7.792c-0.066-13.859-1.49-27.664-1.183-41.55c0.369-16.61,0.376-33.243-0.021-49.852
				c-0.236-9.824,1.303-18.417,8.26-26.112c5.462-6.041,9.973-13.092,14.056-20.184c4.486-7.792,10.78-12.592,19.351-14.425
				c10.054-2.152,19.393-6.569,29.522-8.693c4.87-1.021,11.355-3.599,16.688-5.894c12.685-5.228,26.062-8.376,38.93-13.044
				c0.862-0.312,1.264-0.289,2.121-0.003c13.299,4.42,26.639,8.72,39.968,13.047"/>
			<path fill="none" stroke="#000000" stroke-width="5" stroke-miterlimit="10" d="M685.928,608.12
				c-2.078,6.405,18.496,12.723,18.037,19.242c-0.395,5.584-0.836,11.4-0.371,17.111c0.221,2.71-0.057,4.181-3.597,4.904
				c-4.714,0.963-9.01,3.841-14.069,3.925"/>
			<path fill="none" stroke="#000000" stroke-width="5" stroke-miterlimit="10" d="M703.066,459.069
				c3.463,5.193,6.925,10.387,10.387,15.58"/>
			<path fill="none" stroke="#000000" stroke-width="5" stroke-miterlimit="10" d="M689.563,638.243
				c-3.695,4.508-9.085,6.809-13.551,10.324c-7.208,5.674-13.983,10.815-21.714,16.51"/>
			<g>
				<circle fill="none" stroke="#000000" stroke-width="5" stroke-miterlimit="10" cx="762.622" cy="490.63" r="18.5"/>
				<circle fill="none" stroke="#000000" stroke-width="5" stroke-miterlimit="10" cx="762.621" cy="490.63" r="5.984"/>
			</g>
			<path fill="none" stroke="#000000" stroke-width="5" stroke-miterlimit="10" d="M715.981,506.056l46.552-35.221l31.059,9.318
				l12.424,16.565l-4.141,9.318"/>
			<path fill="none" stroke="#000000" stroke-width="5" stroke-miterlimit="10" d="M715.981,506.056l47.577,16.548l48.052-15.745"/>
			<path fill="none" stroke="#000000" stroke-width="5" stroke-miterlimit="10" d="M861.466,455.434"/>
			<path fill="none" stroke="#000000" stroke-width="5" stroke-miterlimit="10" d="M861.466,455.434
				c0-43.106-0.004-86.212,0.015-129.316c0.002-2.351-0.152-4.11-2.544-5.809c-26.593-18.891-53.069-37.949-79.512-57.052
				c-10.132-7.319-20.214-14.716-30.077-22.387c-3.831-2.98-7.662-4.21-12.524-4.171c-27.507,0.223-55.017,0.238-82.524,0.379"/>
		</g>
		<g>
			<path fill="none" stroke="#000000" stroke-width="5" stroke-miterlimit="10" d="M429.992,523.467
				c-1.224,4.436,1.672,8.059,2.792,11.887c3.999,13.651,8.994,27.007,13.16,40.612c0.914,2.982,0.47,6.493,0.36,9.829
				c-0.491,14.873-0.473,29.777-0.047,44.653c0.121,4.186,2.171,8.342,3.483,12.464c8.255,25.93,15.529,52.165,24.271,77.948
				c1.306,3.85,3.781,6.693,5.93,9.762c14.016,20.033,28.344,39.848,42.453,59.817c2.707,3.831,6.425,6.476,9.965,9.247
				c11.096,8.68,22.463,17.018,33.696,25.526c11.618,8.803,23.224,17.619,34.772,26.517c1.608,1.239,3.092,2.073,5.221,2.087
				c11.426,0.075,34.281,0.42,34.281,0.42"/>
			<path fill="none" stroke="#000000" stroke-width="5" stroke-miterlimit="10" d="M452.843,455.434
				c0.188-1.942,1.563-2.655,3.056-3.72c13.81-9.853,27.478-19.907,41.121-29.854c15.859,5.286,31.79,10.641,47.75,15.905
				c18.509,6.104,37.03,12.172,55.578,18.152c3.831,1.234,6.57,3.159,8.956,6.694c7.415,10.987,15.31,21.659,23.298,32.242
				c3.151,4.174,3.82,8.441,3.708,13.556c-0.367,16.611-0.138,33.235-0.138,49.854c0,8.656-0.572,17.358,0.124,25.958
				c1.292,15.97-5.139,29.888-10.511,44.154"/>
			<path fill="none" stroke="#000000" stroke-width="5" stroke-miterlimit="10" d="M446.091,460.626
				c-4.847,14.022-9.7,28.043-14.537,42.069c-1.07,3.105-1.865,6.325-3.172,9.324c-1.933,4.435-0.381,7.514,2.537,11.021"/>
			<path fill="none" stroke="#000000" stroke-width="5" stroke-miterlimit="10" d="M654.298,656.528
				c-0.628-0.021-1.244-0.206-1.726-0.562c-7.959-5.893-15.923-10.844-23.152-17.723"/>
			<path fill="none" stroke="#000000" stroke-width="5" stroke-miterlimit="10" d="M654.299,643.395
				c-3.976-0.108-7.901-1.027-11.896-2.558c-4.029-1.544-8.049-2.905-12.458-3.199c-4.013-0.268-5.165-2.587-5.297-7.183
				c-0.075-2.576-1.011-5.094-0.997-7.792c0.067-13.859,1.491-27.664,1.183-41.55c-0.37-16.61-0.376-33.243,0.021-49.852
				c0.236-9.824-1.303-18.417-8.261-26.112c-5.46-6.041-9.972-13.092-14.056-20.184c-4.486-7.792-10.779-12.592-19.349-14.425
				c-10.054-2.152-19.394-6.569-29.522-8.693c-4.871-1.021-11.356-3.599-16.689-5.894c-12.684-5.228-26.061-8.376-38.929-13.044
				c-0.862-0.312-1.264-0.289-2.122-0.003c-13.298,4.42-26.639,8.72-39.968,13.047"/>
			<path fill="none" stroke="#000000" stroke-width="5" stroke-miterlimit="10" d="M624.087,608.12
				c2.079,6.405-19.914,12.723-19.455,19.242c0.394,5.584,0.835,11.4,0.371,17.111c-0.221,2.71,0.057,4.181,3.597,4.904
				c4.713,0.963,9.009,3.841,14.069,3.925"/>
			<path fill="none" stroke="#000000" stroke-width="5" stroke-miterlimit="10" d="M605.53,459.069
				c-3.462,5.193-6.925,10.387-10.387,15.58"/>
			<path fill="none" stroke="#000000" stroke-width="5" stroke-miterlimit="10" d="M619.033,638.243
				c3.695,4.508,9.085,6.809,13.551,10.324c7.208,5.674,13.984,10.815,21.714,16.51"/>
			<g>
				<circle fill="none" stroke="#000000" stroke-width="5" stroke-miterlimit="10" cx="545.975" cy="490.63" r="18.499"/>
				<circle fill="none" stroke="#000000" stroke-width="5" stroke-miterlimit="10" cx="545.975" cy="490.63" r="5.984"/>
			</g>
			<path fill="none" stroke="#000000" stroke-width="5" stroke-miterlimit="10" d="M506.722,506.036l-4.142-9.318l12.424-16.565
				l31.059-9.318l46.552,35.221"/>
			<path fill="none" stroke="#000000" stroke-width="5" stroke-miterlimit="10" d="M496.987,506.859l48.051,15.745l47.578-16.548"/>
			<path fill="none" stroke="#000000" stroke-width="5" stroke-miterlimit="10" d="M447.131,455.434"/>
			<path fill="none" stroke="#000000" stroke-width="5" stroke-miterlimit="10" d="M447.131,455.434
				c0-43.106,0.004-86.212-0.016-129.316c-0.001-2.351,0.153-4.11,2.544-5.809c26.594-18.891,53.07-37.949,79.513-57.052
				c10.13-7.319,20.213-14.716,30.077-22.387c3.83-2.98,7.662-4.21,12.523-4.171c27.507,0.223,55.017,0.238,82.525,0.379"/>
		</g>
	</g>
	<rect display="inline" fill="none" stroke="#000000" stroke-miterlimit="10" width="1303.938" height="1303.938"/>
	<g display="inline">
		<path fill="#FFFFFF" d="M276.593,1027.689h21.852c3.02,0,5.936,0.281,8.75,0.844c2.812,0.563,5.314,1.525,7.506,2.887
			c2.19,1.362,3.938,3.197,5.241,5.507c1.302,2.31,1.954,5.241,1.954,8.794c0,4.561-1.259,8.38-3.775,11.459
			c-2.518,3.079-6.115,4.945-10.792,5.596l16.7,27.803h-13.502l-14.567-26.647h-8.172v26.647h-11.192V1027.689z M296.49,1054.337
			c1.599,0,3.198-0.073,4.796-0.222c1.599-0.147,3.064-0.503,4.397-1.066c1.333-0.562,2.412-1.421,3.242-2.576
			c0.829-1.154,1.244-2.768,1.244-4.841c0-1.835-0.386-3.315-1.155-4.441c-0.771-1.124-1.776-1.968-3.02-2.531
			c-1.244-0.562-2.621-0.933-4.13-1.11c-1.51-0.178-2.976-0.267-4.397-0.267h-9.682v17.055H296.49z"/>
		<path fill="#FFFFFF" d="M332.552,1027.689h41.66v10.126h-30.467v15.456h28.869v10.126h-28.869v17.055h32.066v10.126h-43.259
			V1027.689z"/>
		<path fill="#FFFFFF" d="M386.825,1027.689h24.783c4.145,0,8.142,0.637,11.992,1.909c3.849,1.274,7.253,3.213,10.215,5.818
			c2.96,2.606,5.33,5.878,7.106,9.815c1.776,3.938,2.665,8.571,2.665,13.901c0,5.389-1.021,10.053-3.064,13.99
			c-2.043,3.938-4.679,7.194-7.906,9.771c-3.228,2.576-6.811,4.501-10.748,5.773c-3.938,1.274-7.803,1.91-11.592,1.91h-23.45
			V1027.689z M406.367,1080.452c3.493,0,6.795-0.4,9.904-1.199c3.109-0.8,5.818-2.043,8.127-3.73c2.31-1.688,4.13-3.878,5.463-6.573
			c1.333-2.694,1.999-5.966,1.999-9.815c0-3.789-0.593-7.047-1.776-9.771c-1.186-2.723-2.829-4.93-4.93-6.617
			c-2.103-1.688-4.59-2.932-7.461-3.73c-2.873-0.8-6.026-1.199-9.46-1.199h-10.215v42.637H406.367z"/>
		<path fill="#FFFFFF" d="M453.977,1027.689h11.192v62.889h-11.192V1027.689z"/>
		<path fill="#FFFFFF" d="M479.203,1027.689h17.055l16.788,44.058l16.966-44.058h16.877v62.889H536.23v-52.229h-0.178
			l-19.098,52.229h-7.817l-19.098-52.229h-0.178v52.229h-10.659V1027.689z"/>
		<path fill="#FFFFFF" d="M561.189,1027.689h41.66v10.126h-30.467v15.456h28.869v10.126h-28.869v17.055h32.066v10.126h-43.259
			V1027.689z"/>
		<path fill="#FFFFFF" d="M615.461,1027.689h14.834l30.467,46.723h0.178v-46.723h11.192v62.889h-14.212l-31.089-48.232h-0.178
			v48.232h-11.192V1027.689z"/>
		<path fill="#FFFFFF" d="M716.989,1041.19c-1.186-1.717-2.769-2.976-4.752-3.774c-1.984-0.8-4.072-1.199-6.263-1.199
			c-1.303,0-2.562,0.148-3.774,0.443c-1.215,0.297-2.31,0.771-3.287,1.422c-0.977,0.652-1.763,1.496-2.354,2.531
			c-0.593,1.037-0.889,2.265-0.889,3.687c0,2.132,0.74,3.761,2.221,4.885c1.479,1.126,3.315,2.104,5.508,2.932
			c2.189,0.83,4.588,1.63,7.194,2.398c2.605,0.771,5.004,1.836,7.195,3.197c2.19,1.363,4.026,3.169,5.507,5.419
			c1.479,2.251,2.221,5.24,2.221,8.972c0,3.375-0.622,6.321-1.865,8.838c-1.243,2.518-2.917,4.605-5.019,6.263
			c-2.103,1.658-4.546,2.901-7.328,3.73c-2.784,0.828-5.716,1.243-8.794,1.243c-3.908,0-7.67-0.652-11.281-1.954
			c-3.612-1.302-6.722-3.493-9.326-6.573l8.438-8.172c1.361,2.073,3.153,3.687,5.374,4.841c2.221,1.155,4.574,1.732,7.062,1.732
			c1.302,0,2.605-0.178,3.908-0.533c1.302-0.355,2.487-0.888,3.553-1.599c1.066-0.711,1.924-1.612,2.576-2.709
			c0.651-1.096,0.978-2.354,0.978-3.775c0-2.31-0.741-4.086-2.221-5.329c-1.481-1.244-3.317-2.295-5.508-3.153
			c-2.191-0.858-4.59-1.673-7.194-2.443c-2.606-0.769-5.005-1.82-7.195-3.153c-2.191-1.332-4.027-3.108-5.507-5.329
			c-1.481-2.221-2.221-5.196-2.221-8.928c0-3.256,0.666-6.069,1.998-8.438c1.333-2.367,3.079-4.337,5.241-5.906
			c2.161-1.568,4.633-2.738,7.417-3.509c2.782-0.77,5.625-1.155,8.527-1.155c3.315,0,6.528,0.504,9.638,1.511
			c3.108,1.007,5.907,2.664,8.394,4.974L716.989,1041.19z"/>
		<path fill="#FFFFFF" d="M736.886,1027.689h11.192v62.889h-11.192V1027.689z"/>
		<path fill="#FFFFFF" d="M758.47,1059.4c0-5.033,0.829-9.607,2.487-13.724c1.657-4.115,3.953-7.624,6.884-10.526
			c2.932-2.9,6.425-5.137,10.481-6.706c4.056-1.568,8.513-2.354,13.369-2.354c4.914-0.058,9.415,0.667,13.501,2.177
			s7.608,3.717,10.57,6.617c2.961,2.902,5.271,6.396,6.929,10.481c1.657,4.086,2.487,8.646,2.487,13.68
			c0,4.916-0.83,9.387-2.487,13.413c-1.658,4.027-3.968,7.491-6.929,10.393c-2.962,2.901-6.484,5.167-10.57,6.795
			s-8.587,2.472-13.501,2.531c-4.856,0-9.313-0.785-13.369-2.354c-4.057-1.568-7.55-3.789-10.481-6.662
			c-2.931-2.872-5.227-6.32-6.884-10.349C759.299,1068.786,758.47,1064.316,758.47,1059.4z M770.195,1058.689
			c0,3.375,0.518,6.484,1.555,9.327c1.035,2.842,2.501,5.3,4.396,7.372c1.895,2.073,4.159,3.702,6.795,4.886
			c2.635,1.186,5.581,1.776,8.839,1.776c3.256,0,6.218-0.591,8.882-1.776c2.665-1.184,4.944-2.812,6.84-4.886
			c1.895-2.072,3.36-4.53,4.397-7.372c1.035-2.843,1.554-5.952,1.554-9.327c0-3.138-0.519-6.069-1.554-8.794
			c-1.037-2.723-2.503-5.107-4.397-7.15c-1.896-2.043-4.175-3.642-6.84-4.797c-2.664-1.154-5.626-1.731-8.882-1.731
			c-3.258,0-6.204,0.577-8.839,1.731c-2.636,1.155-4.9,2.754-6.795,4.797c-1.896,2.043-3.361,4.428-4.396,7.15
			C770.713,1052.62,770.195,1055.552,770.195,1058.689z"/>
		<path fill="#FFFFFF" d="M835.838,1027.689h14.834l30.467,46.723h0.178v-46.723h11.192v62.889h-14.212l-31.09-48.232h-0.178v48.232
			h-11.191V1027.689z"/>
		<path fill="#FFFFFF" d="M906.543,1027.689h41.659v10.126h-30.468v15.456h28.869v10.126h-28.869v17.055h32.066v10.126h-43.258
			V1027.689z"/>
		<path fill="#FFFFFF" d="M987.106,1027.689h41.659v10.126h-30.468v15.456h28.869v10.126h-28.869v17.055h32.066v10.126h-43.258
			V1027.689z"/>
		<path fill="#FFFFFF" d="M224.542,1134.281h9.682l27.092,62.889h-12.791l-5.863-14.39h-27.27l-5.685,14.39h-12.524
			L224.542,1134.281z M238.754,1173.187l-9.682-25.582l-9.86,25.582H238.754z"/>
		<path fill="#FFFFFF" d="M268.332,1134.281h11.192v52.763h26.737v10.126h-37.929V1134.281z"/>
		<path fill="#FFFFFF" d="M314.167,1134.281h11.192v62.889h-11.192V1134.281z"/>
		<path fill="#FFFFFF" d="M339.126,1134.281h14.834l30.468,46.723h0.178v-46.723h11.192v62.889h-14.212l-31.089-48.232h-0.178
			v48.232h-11.192V1134.281z"/>
		<path fill="#FFFFFF" d="M409.832,1134.281h11.192v25.049h29.401v-25.049h11.192v62.889h-11.192v-27.714h-29.401v27.714h-11.192
			V1134.281z"/>
		<path fill="#FFFFFF" d="M475.651,1134.281h41.66v10.126h-30.467v15.456h28.869v10.126h-28.869v17.055h32.066v10.126h-43.259
			V1134.281z"/>
		<path fill="#FFFFFF" d="M587.038,1147.782c-1.185-1.717-2.769-2.976-4.752-3.774c-1.985-0.8-4.072-1.199-6.262-1.199
			c-1.303,0-2.562,0.148-3.775,0.443c-1.214,0.297-2.31,0.771-3.287,1.422c-0.977,0.652-1.762,1.496-2.354,2.531
			c-0.593,1.037-0.889,2.265-0.889,3.687c0,2.132,0.74,3.761,2.221,4.885c1.479,1.126,3.316,2.104,5.507,2.932
			c2.19,0.83,4.588,1.63,7.195,2.398c2.605,0.771,5.003,1.836,7.195,3.197c2.19,1.363,4.026,3.169,5.507,5.419
			c1.48,2.251,2.221,5.24,2.221,8.972c0,3.375-0.622,6.321-1.865,8.838c-1.244,2.518-2.917,4.605-5.019,6.263
			c-2.103,1.658-4.545,2.901-7.328,3.73c-2.784,0.828-5.715,1.243-8.794,1.243c-3.908,0-7.669-0.652-11.281-1.954
			c-3.613-1.302-6.722-3.493-9.327-6.573l8.438-8.172c1.362,2.073,3.154,3.687,5.374,4.841c2.221,1.155,4.575,1.732,7.062,1.732
			c1.302,0,2.605-0.178,3.908-0.533c1.302-0.355,2.487-0.888,3.553-1.599s1.923-1.612,2.576-2.709
			c0.651-1.096,0.977-2.354,0.977-3.775c0-2.31-0.741-4.086-2.22-5.329c-1.481-1.244-3.317-2.295-5.507-3.153
			c-2.192-0.858-4.59-1.673-7.195-2.443c-2.606-0.769-5.004-1.82-7.195-3.153c-2.191-1.332-4.028-3.108-5.507-5.329
			c-1.48-2.221-2.221-5.196-2.221-8.928c0-3.256,0.667-6.069,1.999-8.438c1.332-2.367,3.078-4.337,5.241-5.906
			c2.161-1.568,4.633-2.738,7.417-3.509c2.783-0.77,5.625-1.155,8.527-1.155c3.315,0,6.529,0.504,9.638,1.511
			s5.907,2.664,8.394,4.974L587.038,1147.782z"/>
		<path fill="#FFFFFF" d="M607.201,1134.281h41.66v10.126h-30.467v15.456h28.869v10.126h-28.869v17.055h32.066v10.126h-43.259
			V1134.281z"/>
		<path fill="#FFFFFF" d="M711.838,1174.075c0,3.79-0.652,7.21-1.954,10.26c-1.304,3.05-3.08,5.64-5.33,7.771
			c-2.251,2.132-4.916,3.775-7.994,4.931c-3.079,1.154-6.426,1.731-10.037,1.731c-3.613,0-6.959-0.577-10.037-1.731
			c-3.08-1.155-5.76-2.799-8.039-4.931c-2.28-2.132-4.057-4.722-5.33-7.771s-1.909-6.47-1.909-10.26v-39.794h11.192v39.438
			c0,1.541,0.235,3.153,0.71,4.841c0.474,1.688,1.258,3.242,2.354,4.664c1.095,1.421,2.545,2.591,4.353,3.508
			c1.806,0.919,4.041,1.377,6.706,1.377s4.899-0.458,6.706-1.377c1.806-0.917,3.256-2.087,4.353-3.508
			c1.096-1.422,1.88-2.977,2.354-4.664c0.473-1.688,0.71-3.3,0.71-4.841v-39.438h11.192V1174.075z"/>
		<path fill="#FFFFFF" d="M756.427,1147.782c-1.186-1.717-2.769-2.976-4.752-3.774c-1.984-0.8-4.072-1.199-6.263-1.199
			c-1.303,0-2.562,0.148-3.774,0.443c-1.215,0.297-2.31,0.771-3.287,1.422c-0.977,0.652-1.763,1.496-2.354,2.531
			c-0.593,1.037-0.889,2.265-0.889,3.687c0,2.132,0.74,3.761,2.221,4.885c1.479,1.126,3.315,2.104,5.508,2.932
			c2.189,0.83,4.588,1.63,7.194,2.398c2.605,0.771,5.004,1.836,7.195,3.197c2.19,1.363,4.026,3.169,5.507,5.419
			c1.479,2.251,2.221,5.24,2.221,8.972c0,3.375-0.622,6.321-1.865,8.838c-1.243,2.518-2.917,4.605-5.019,6.263
			c-2.103,1.658-4.546,2.901-7.328,3.73c-2.784,0.828-5.716,1.243-8.794,1.243c-3.908,0-7.67-0.652-11.281-1.954
			c-3.612-1.302-6.722-3.493-9.326-6.573l8.438-8.172c1.361,2.073,3.153,3.687,5.374,4.841c2.221,1.155,4.574,1.732,7.062,1.732
			c1.302,0,2.605-0.178,3.908-0.533c1.302-0.355,2.487-0.888,3.553-1.599c1.066-0.711,1.924-1.612,2.576-2.709
			c0.651-1.096,0.978-2.354,0.978-3.775c0-2.31-0.741-4.086-2.221-5.329c-1.481-1.244-3.317-2.295-5.508-3.153
			c-2.191-0.858-4.59-1.673-7.194-2.443c-2.606-0.769-5.005-1.82-7.195-3.153c-2.191-1.332-4.027-3.108-5.507-5.329
			c-1.481-2.221-2.221-5.196-2.221-8.928c0-3.256,0.666-6.069,1.998-8.438c1.333-2.367,3.079-4.337,5.241-5.906
			c2.161-1.568,4.633-2.738,7.417-3.509c2.782-0.77,5.625-1.155,8.527-1.155c3.315,0,6.528,0.504,9.638,1.511
			c3.108,1.007,5.907,2.664,8.394,4.974L756.427,1147.782z"/>
		<path fill="#FFFFFF" d="M799.506,1165.992c0-5.033,0.829-9.607,2.487-13.724c1.657-4.115,3.953-7.624,6.884-10.526
			c2.932-2.9,6.425-5.137,10.481-6.706c4.056-1.568,8.513-2.354,13.369-2.354c4.914-0.058,9.415,0.667,13.501,2.177
			s7.608,3.717,10.57,6.617c2.961,2.902,5.271,6.396,6.929,10.481c1.657,4.086,2.487,8.646,2.487,13.68
			c0,4.916-0.83,9.387-2.487,13.413c-1.658,4.027-3.968,7.491-6.929,10.393c-2.962,2.901-6.484,5.167-10.57,6.795
			s-8.587,2.472-13.501,2.531c-4.856,0-9.313-0.785-13.369-2.354c-4.057-1.568-7.55-3.789-10.481-6.662
			c-2.931-2.872-5.227-6.32-6.884-10.349C800.335,1175.378,799.506,1170.908,799.506,1165.992z M811.231,1165.281
			c0,3.375,0.518,6.484,1.555,9.327c1.035,2.842,2.501,5.3,4.396,7.372c1.895,2.073,4.159,3.702,6.795,4.886
			c2.635,1.186,5.581,1.776,8.839,1.776c3.256,0,6.218-0.591,8.882-1.776c2.665-1.184,4.944-2.812,6.84-4.886
			c1.895-2.072,3.36-4.53,4.397-7.372c1.035-2.843,1.554-5.952,1.554-9.327c0-3.138-0.519-6.069-1.554-8.794
			c-1.037-2.723-2.503-5.107-4.397-7.15c-1.896-2.043-4.175-3.642-6.84-4.797c-2.664-1.154-5.626-1.731-8.882-1.731
			c-3.258,0-6.204,0.577-8.839,1.731c-2.636,1.155-4.9,2.754-6.795,4.797c-1.896,2.043-3.361,4.428-4.396,7.15
			C811.749,1159.212,811.231,1162.144,811.231,1165.281z"/>
		<path fill="#FFFFFF" d="M876.874,1134.281h11.191v52.763h26.737v10.126h-37.929V1134.281z"/>
		<path fill="#FFFFFF" d="M922.975,1134.281h11.191v25.049h29.402v-25.049h11.191v62.889h-11.191v-27.714h-29.402v27.714h-11.191
			V1134.281z"/>
		<path fill="#FFFFFF" d="M985.419,1165.992c0-5.033,0.829-9.607,2.487-13.724c1.657-4.115,3.953-7.624,6.884-10.526
			c2.932-2.9,6.425-5.137,10.481-6.706c4.056-1.568,8.513-2.354,13.369-2.354c4.914-0.058,9.415,0.667,13.501,2.177
			s7.608,3.717,10.57,6.617c2.961,2.902,5.271,6.396,6.929,10.481c1.657,4.086,2.487,8.646,2.487,13.68
			c0,4.916-0.83,9.387-2.487,13.413c-1.658,4.027-3.968,7.491-6.929,10.393c-2.962,2.901-6.484,5.167-10.57,6.795
			s-8.587,2.472-13.501,2.531c-4.856,0-9.313-0.785-13.369-2.354c-4.057-1.568-7.55-3.789-10.481-6.662
			c-2.931-2.872-5.227-6.32-6.884-10.349C986.248,1175.378,985.419,1170.908,985.419,1165.992z M997.145,1165.281
			c0,3.375,0.518,6.484,1.555,9.327c1.035,2.842,2.501,5.3,4.396,7.372c1.895,2.073,4.159,3.702,6.795,4.886
			c2.635,1.186,5.581,1.776,8.839,1.776c3.256,0,6.218-0.591,8.882-1.776c2.665-1.184,4.944-2.812,6.84-4.886
			c1.895-2.072,3.36-4.53,4.397-7.372c1.035-2.843,1.554-5.952,1.554-9.327c0-3.138-0.519-6.069-1.554-8.794
			c-1.037-2.723-2.503-5.107-4.397-7.15c-1.896-2.043-4.175-3.642-6.84-4.797c-2.664-1.154-5.626-1.731-8.882-1.731
			c-3.258,0-6.204,0.577-8.839,1.731c-2.636,1.155-4.9,2.754-6.795,4.797c-1.896,2.043-3.361,4.428-4.396,7.15
			C997.662,1159.212,997.145,1162.144,997.145,1165.281z"/>
		<path fill="#FFFFFF" d="M1093.608,1147.782c-1.186-1.717-2.769-2.976-4.752-3.774c-1.984-0.8-4.072-1.199-6.263-1.199
			c-1.303,0-2.562,0.148-3.774,0.443c-1.215,0.297-2.31,0.771-3.287,1.422c-0.977,0.652-1.763,1.496-2.354,2.531
			c-0.593,1.037-0.889,2.265-0.889,3.687c0,2.132,0.74,3.761,2.221,4.885c1.479,1.126,3.315,2.104,5.508,2.932
			c2.189,0.83,4.588,1.63,7.194,2.398c2.605,0.771,5.004,1.836,7.195,3.197c2.19,1.363,4.026,3.169,5.507,5.419
			c1.479,2.251,2.221,5.24,2.221,8.972c0,3.375-0.622,6.321-1.865,8.838c-1.243,2.518-2.917,4.605-5.019,6.263
			c-2.103,1.658-4.546,2.901-7.328,3.73c-2.784,0.828-5.716,1.243-8.794,1.243c-3.908,0-7.67-0.652-11.281-1.954
			c-3.612-1.302-6.722-3.493-9.326-6.573l8.438-8.172c1.361,2.073,3.153,3.687,5.374,4.841c2.221,1.155,4.574,1.732,7.062,1.732
			c1.302,0,2.605-0.178,3.908-0.533c1.302-0.355,2.487-0.888,3.553-1.599c1.066-0.711,1.924-1.612,2.576-2.709
			c0.651-1.096,0.978-2.354,0.978-3.775c0-2.31-0.741-4.086-2.221-5.329c-1.481-1.244-3.317-2.295-5.508-3.153
			c-2.191-0.858-4.59-1.673-7.194-2.443c-2.606-0.769-5.005-1.82-7.195-3.153c-2.191-1.332-4.027-3.108-5.507-5.329
			c-1.481-2.221-2.221-5.196-2.221-8.928c0-3.256,0.666-6.069,1.998-8.438c1.333-2.367,3.079-4.337,5.241-5.906
			c2.161-1.568,4.633-2.738,7.417-3.509c2.782-0.77,5.625-1.155,8.527-1.155c3.315,0,6.528,0.504,9.638,1.511
			c3.108,1.007,5.907,2.664,8.394,4.974L1093.608,1147.782z"/>
	</g>
</g>
<g id="Layer_2_copy_3">
	<path id="Contorno_2_" display="none" fill="none" stroke="#000000" stroke-miterlimit="10" d="M1303.938,1170.559
		c-49.435-32.934-144.138-79.279-186.662-101.604c-54.575-28.651-208.747-95.506-234.67-109.148
		c-25.923-13.645-35.474-57.305-35.474-57.305l5.457-122.793c0,0,16.372-50.48,21.83-65.489c5.457-15.008,8.187-70.947,8.187-70.947
		s15.007-9.55,24.559-21.83c9.55-12.279,27.286-17.736,32.744-57.303c5.457-39.567,2.729-69.583-5.458-100.964
		c-8.186-31.38-32.745-2.728-32.745-2.728C959.009,60.688,653.391,72.966,653.391,72.966S347.773,60.688,405.077,460.447
		c0,0-24.559-28.652-32.745,2.728c-8.187,31.381-10.915,61.396-5.458,100.964c5.458,39.566,23.195,45.024,32.745,57.303
		c9.551,12.28,24.559,21.83,24.559,21.83s2.729,55.939,8.186,70.947c5.458,15.009,21.83,65.489,21.83,65.489l5.459,122.793
		c0,0-9.551,43.66-35.474,57.305c-25.922,13.643-180.096,80.497-234.671,109.148C146.151,1091.716,48.559,1139.445,0,1172.474
		v131.464h1303.938V1170.559z"/>
	<g id="Face_2_">
		<g>
			<path fill="none" stroke="#2B328B" stroke-width="5" stroke-miterlimit="10" d="M878.604,523.467
				c1.224,4.436-1.671,8.059-2.793,11.887c-3.998,13.651-8.993,27.007-13.159,40.612c-0.913,2.982-0.47,6.493-0.36,9.829
				c0.49,14.873,0.474,29.777,0.047,44.653c-0.121,4.186-2.171,8.342-3.482,12.464c-8.256,25.93-15.529,52.165-24.271,77.948
				c-1.307,3.85-3.781,6.693-5.93,9.762c-14.017,20.033-28.345,39.848-42.453,59.817c-2.706,3.831-6.425,6.476-9.966,9.247
				c-11.097,8.68-22.463,17.018-33.696,25.526c-11.617,8.803-23.224,17.619-34.771,26.517c-1.608,1.239-3.093,2.073-5.221,2.087
				c-11.427,0.075-62.217,0.42-62.217,0.42"/>
			<path fill="none" stroke="#2B328B" stroke-width="5" stroke-miterlimit="10" d="M862.505,460.626
				c4.848,14.022,9.701,28.043,14.537,42.069c1.07,3.105,1.864,6.325,3.172,9.324c1.933,4.435,0.381,7.514-2.537,11.021"/>
			<g>
				<circle fill="none" stroke="#2B328B" stroke-width="5" stroke-miterlimit="10" cx="762.622" cy="490.63" r="18.5"/>
				<circle fill="none" stroke="#2B328B" stroke-width="5" stroke-miterlimit="10" cx="762.621" cy="490.63" r="5.984"/>
			</g>
			<path fill="none" stroke="#2B328B" stroke-width="5" stroke-miterlimit="10" d="M715.981,506.056l46.552-35.221l31.059,9.318
				l12.424,16.565l-4.141,9.318"/>
			<path fill="none" stroke="#2B328B" stroke-width="5" stroke-miterlimit="10" d="M715.981,506.056l47.577,16.548l48.052-15.745"/>
			<path fill="none" stroke="#2B328B" stroke-width="5" stroke-miterlimit="10" d="M861.466,455.434"/>
			<path fill="none" stroke="#2B328B" stroke-width="5" stroke-miterlimit="10" d="M861.466,455.434
				c0-43.106-0.004-86.212,0.015-129.316c0.002-2.351-0.152-4.11-2.544-5.809c-26.593-18.891-53.069-37.949-79.512-57.052
				c-10.132-7.319-20.214-14.716-30.077-22.387c-3.831-2.98-7.662-4.21-12.524-4.171c-27.507,0.223-55.017,0.238-82.524,0.379"/>
		</g>
		<g>
			<path fill="none" stroke="#2B328B" stroke-width="5" stroke-miterlimit="10" d="M429.992,523.467
				c-1.224,4.436,1.672,8.059,2.792,11.887c3.999,13.651,8.994,27.007,13.16,40.612c0.914,2.982,0.47,6.493,0.36,9.829
				c-0.491,14.873-0.473,29.777-0.047,44.653c0.121,4.186,2.171,8.342,3.483,12.464c8.255,25.93,15.529,52.165,24.271,77.948
				c1.306,3.85,3.781,6.693,5.93,9.762c14.016,20.033,28.344,39.848,42.453,59.817c2.707,3.831,6.425,6.476,9.965,9.247
				c11.096,8.68,22.463,17.018,33.696,25.526c11.618,8.803,23.224,17.619,34.772,26.517c1.608,1.239,3.092,2.073,5.221,2.087
				c11.426,0.075,34.281,0.42,34.281,0.42"/>
			<path fill="none" stroke="#2B328B" stroke-width="5" stroke-miterlimit="10" d="M446.091,460.626
				c-4.847,14.022-9.7,28.043-14.537,42.069c-1.07,3.105-1.865,6.325-3.172,9.324c-1.933,4.435-0.381,7.514,2.537,11.021"/>
			<g>
				<circle fill="none" stroke="#2B328B" stroke-width="5" stroke-miterlimit="10" cx="545.975" cy="490.63" r="18.499"/>
				<circle fill="none" stroke="#2B328B" stroke-width="5" stroke-miterlimit="10" cx="545.975" cy="490.63" r="5.984"/>
			</g>
			<path fill="none" stroke="#2B328B" stroke-width="5" stroke-miterlimit="10" d="M506.722,506.036l-4.142-9.318l12.424-16.565
				l31.059-9.318l46.552,35.221"/>
			<path fill="none" stroke="#2B328B" stroke-width="5" stroke-miterlimit="10" d="M496.987,506.859l48.051,15.745l47.578-16.548"/>
			<path fill="none" stroke="#2B328B" stroke-width="5" stroke-miterlimit="10" d="M447.131,455.434"/>
			<path fill="none" stroke="#2B328B" stroke-width="5" stroke-miterlimit="10" d="M447.131,455.434
				c0-43.106,0.004-86.212-0.016-129.316c-0.001-2.351,0.153-4.11,2.544-5.809c26.594-18.891,53.07-37.949,79.513-57.052
				c10.13-7.319,20.213-14.716,30.077-22.387c3.83-2.98,7.662-4.21,12.523-4.171c27.507,0.223,55.017,0.238,82.525,0.379"/>
		</g>
	</g>
	<rect fill="none" stroke="#2B328B" stroke-miterlimit="10" width="1303.938" height="1303.938"/>
	<g>
		<path fill="#2B328B" d="M276.593,1027.689h21.852c3.02,0,5.936,0.281,8.75,0.844c2.812,0.563,5.314,1.525,7.506,2.887
			c2.19,1.362,3.938,3.197,5.241,5.507c1.302,2.31,1.954,5.241,1.954,8.794c0,4.561-1.259,8.38-3.775,11.459
			c-2.518,3.079-6.115,4.945-10.792,5.596l16.7,27.803h-13.502l-14.567-26.647h-8.172v26.647h-11.192V1027.689z M296.49,1054.337
			c1.599,0,3.198-0.073,4.796-0.222c1.599-0.147,3.064-0.503,4.397-1.066c1.333-0.562,2.412-1.421,3.242-2.576
			c0.829-1.154,1.244-2.768,1.244-4.841c0-1.835-0.386-3.315-1.155-4.441c-0.771-1.124-1.776-1.968-3.02-2.531
			c-1.244-0.562-2.621-0.933-4.13-1.11c-1.51-0.178-2.976-0.267-4.397-0.267h-9.682v17.055H296.49z"/>
		<path fill="#2B328B" d="M332.552,1027.689h41.66v10.126h-30.467v15.456h28.869v10.126h-28.869v17.055h32.066v10.126h-43.259
			V1027.689z"/>
		<path fill="#2B328B" d="M386.825,1027.689h24.783c4.145,0,8.142,0.637,11.992,1.909c3.849,1.274,7.253,3.213,10.215,5.818
			c2.96,2.606,5.33,5.878,7.106,9.815c1.776,3.938,2.665,8.571,2.665,13.901c0,5.389-1.021,10.053-3.064,13.99
			c-2.043,3.938-4.679,7.194-7.906,9.771c-3.228,2.576-6.811,4.501-10.748,5.773c-3.938,1.274-7.803,1.91-11.592,1.91h-23.45
			V1027.689z M406.367,1080.452c3.493,0,6.795-0.4,9.904-1.199c3.109-0.8,5.818-2.043,8.127-3.73c2.31-1.688,4.13-3.878,5.463-6.573
			c1.333-2.694,1.999-5.966,1.999-9.815c0-3.789-0.593-7.047-1.776-9.771c-1.186-2.723-2.829-4.93-4.93-6.617
			c-2.103-1.688-4.59-2.932-7.461-3.73c-2.873-0.8-6.026-1.199-9.46-1.199h-10.215v42.637H406.367z"/>
		<path fill="#2B328B" d="M453.977,1027.689h11.192v62.889h-11.192V1027.689z"/>
		<path fill="#2B328B" d="M479.203,1027.689h17.055l16.788,44.058l16.966-44.058h16.877v62.889H536.23v-52.229h-0.178
			l-19.098,52.229h-7.817l-19.098-52.229h-0.178v52.229h-10.659V1027.689z"/>
		<path fill="#2B328B" d="M561.189,1027.689h41.66v10.126h-30.467v15.456h28.869v10.126h-28.869v17.055h32.066v10.126h-43.259
			V1027.689z"/>
		<path fill="#2B328B" d="M615.461,1027.689h14.834l30.467,46.723h0.178v-46.723h11.192v62.889h-14.212l-31.089-48.232h-0.178
			v48.232h-11.192V1027.689z"/>
		<path fill="#2B328B" d="M716.989,1041.19c-1.186-1.717-2.769-2.976-4.752-3.774c-1.984-0.8-4.072-1.199-6.263-1.199
			c-1.303,0-2.562,0.148-3.774,0.443c-1.215,0.297-2.31,0.771-3.287,1.422c-0.977,0.652-1.763,1.496-2.354,2.531
			c-0.593,1.037-0.889,2.265-0.889,3.687c0,2.132,0.74,3.761,2.221,4.885c1.479,1.126,3.315,2.104,5.508,2.932
			c2.189,0.83,4.588,1.63,7.194,2.398c2.605,0.771,5.004,1.836,7.195,3.197c2.19,1.363,4.026,3.169,5.507,5.419
			c1.479,2.251,2.221,5.24,2.221,8.972c0,3.375-0.622,6.321-1.865,8.838c-1.243,2.518-2.917,4.605-5.019,6.263
			c-2.103,1.658-4.546,2.901-7.328,3.73c-2.784,0.828-5.716,1.243-8.794,1.243c-3.908,0-7.67-0.652-11.281-1.954
			c-3.612-1.302-6.722-3.493-9.326-6.573l8.438-8.172c1.361,2.073,3.153,3.687,5.374,4.841c2.221,1.155,4.574,1.732,7.062,1.732
			c1.302,0,2.605-0.178,3.908-0.533c1.302-0.355,2.487-0.888,3.553-1.599c1.066-0.711,1.924-1.612,2.576-2.709
			c0.651-1.096,0.978-2.354,0.978-3.775c0-2.31-0.741-4.086-2.221-5.329c-1.481-1.244-3.317-2.295-5.508-3.153
			c-2.191-0.858-4.59-1.673-7.194-2.443c-2.606-0.769-5.005-1.82-7.195-3.153c-2.191-1.332-4.027-3.108-5.507-5.329
			c-1.481-2.221-2.221-5.196-2.221-8.928c0-3.256,0.666-6.069,1.998-8.438c1.333-2.367,3.079-4.337,5.241-5.906
			c2.161-1.568,4.633-2.738,7.417-3.509c2.782-0.77,5.625-1.155,8.527-1.155c3.315,0,6.528,0.504,9.638,1.511
			c3.108,1.007,5.907,2.664,8.394,4.974L716.989,1041.19z"/>
		<path fill="#2B328B" d="M736.886,1027.689h11.192v62.889h-11.192V1027.689z"/>
		<path fill="#2B328B" d="M758.47,1059.4c0-5.033,0.829-9.607,2.487-13.724c1.657-4.115,3.953-7.624,6.884-10.526
			c2.932-2.9,6.425-5.137,10.481-6.706c4.056-1.568,8.513-2.354,13.369-2.354c4.914-0.058,9.415,0.667,13.501,2.177
			s7.608,3.717,10.57,6.617c2.961,2.902,5.271,6.396,6.929,10.481c1.657,4.086,2.487,8.646,2.487,13.68
			c0,4.916-0.83,9.387-2.487,13.413c-1.658,4.027-3.968,7.491-6.929,10.393c-2.962,2.901-6.484,5.167-10.57,6.795
			s-8.587,2.472-13.501,2.531c-4.856,0-9.313-0.785-13.369-2.354c-4.057-1.568-7.55-3.789-10.481-6.662
			c-2.931-2.872-5.227-6.32-6.884-10.349C759.299,1068.786,758.47,1064.316,758.47,1059.4z M770.195,1058.689
			c0,3.375,0.518,6.484,1.555,9.327c1.035,2.842,2.501,5.3,4.396,7.372c1.895,2.073,4.159,3.702,6.795,4.886
			c2.635,1.186,5.581,1.776,8.839,1.776c3.256,0,6.218-0.591,8.882-1.776c2.665-1.184,4.944-2.812,6.84-4.886
			c1.895-2.072,3.36-4.53,4.397-7.372c1.035-2.843,1.554-5.952,1.554-9.327c0-3.138-0.519-6.069-1.554-8.794
			c-1.037-2.723-2.503-5.107-4.397-7.15c-1.896-2.043-4.175-3.642-6.84-4.797c-2.664-1.154-5.626-1.731-8.882-1.731
			c-3.258,0-6.204,0.577-8.839,1.731c-2.636,1.155-4.9,2.754-6.795,4.797c-1.896,2.043-3.361,4.428-4.396,7.15
			C770.713,1052.62,770.195,1055.552,770.195,1058.689z"/>
		<path fill="#2B328B" d="M835.838,1027.689h14.834l30.467,46.723h0.178v-46.723h11.192v62.889h-14.212l-31.09-48.232h-0.178v48.232
			h-11.191V1027.689z"/>
		<path fill="#2B328B" d="M906.543,1027.689h41.659v10.126h-30.468v15.456h28.869v10.126h-28.869v17.055h32.066v10.126h-43.258
			V1027.689z"/>
		<path fill="#2B328B" d="M987.106,1027.689h41.659v10.126h-30.468v15.456h28.869v10.126h-28.869v17.055h32.066v10.126h-43.258
			V1027.689z"/>
		<path fill="#2B328B" d="M224.542,1134.281h9.682l27.092,62.889h-12.791l-5.863-14.39h-27.27l-5.685,14.39h-12.524
			L224.542,1134.281z M238.754,1173.187l-9.682-25.582l-9.86,25.582H238.754z"/>
		<path fill="#2B328B" d="M268.332,1134.281h11.192v52.763h26.737v10.126h-37.929V1134.281z"/>
		<path fill="#2B328B" d="M314.167,1134.281h11.192v62.889h-11.192V1134.281z"/>
		<path fill="#2B328B" d="M339.126,1134.281h14.834l30.468,46.723h0.178v-46.723h11.192v62.889h-14.212l-31.089-48.232h-0.178
			v48.232h-11.192V1134.281z"/>
		<path fill="#2B328B" d="M409.832,1134.281h11.192v25.049h29.401v-25.049h11.192v62.889h-11.192v-27.714h-29.401v27.714h-11.192
			V1134.281z"/>
		<path fill="#2B328B" d="M475.651,1134.281h41.66v10.126h-30.467v15.456h28.869v10.126h-28.869v17.055h32.066v10.126h-43.259
			V1134.281z"/>
		<path fill="#2B328B" d="M587.038,1147.782c-1.185-1.717-2.769-2.976-4.752-3.774c-1.985-0.8-4.072-1.199-6.262-1.199
			c-1.303,0-2.562,0.148-3.775,0.443c-1.214,0.297-2.31,0.771-3.287,1.422c-0.977,0.652-1.762,1.496-2.354,2.531
			c-0.593,1.037-0.889,2.265-0.889,3.687c0,2.132,0.74,3.761,2.221,4.885c1.479,1.126,3.316,2.104,5.507,2.932
			c2.19,0.83,4.588,1.63,7.195,2.398c2.605,0.771,5.003,1.836,7.195,3.197c2.19,1.363,4.026,3.169,5.507,5.419
			c1.48,2.251,2.221,5.24,2.221,8.972c0,3.375-0.622,6.321-1.865,8.838c-1.244,2.518-2.917,4.605-5.019,6.263
			c-2.103,1.658-4.545,2.901-7.328,3.73c-2.784,0.828-5.715,1.243-8.794,1.243c-3.908,0-7.669-0.652-11.281-1.954
			c-3.613-1.302-6.722-3.493-9.327-6.573l8.438-8.172c1.362,2.073,3.154,3.687,5.374,4.841c2.221,1.155,4.575,1.732,7.062,1.732
			c1.302,0,2.605-0.178,3.908-0.533c1.302-0.355,2.487-0.888,3.553-1.599s1.923-1.612,2.576-2.709
			c0.651-1.096,0.977-2.354,0.977-3.775c0-2.31-0.741-4.086-2.22-5.329c-1.481-1.244-3.317-2.295-5.507-3.153
			c-2.192-0.858-4.59-1.673-7.195-2.443c-2.606-0.769-5.004-1.82-7.195-3.153c-2.191-1.332-4.028-3.108-5.507-5.329
			c-1.48-2.221-2.221-5.196-2.221-8.928c0-3.256,0.667-6.069,1.999-8.438c1.332-2.367,3.078-4.337,5.241-5.906
			c2.161-1.568,4.633-2.738,7.417-3.509c2.783-0.77,5.625-1.155,8.527-1.155c3.315,0,6.529,0.504,9.638,1.511
			s5.907,2.664,8.394,4.974L587.038,1147.782z"/>
		<path fill="#2B328B" d="M607.201,1134.281h41.66v10.126h-30.467v15.456h28.869v10.126h-28.869v17.055h32.066v10.126h-43.259
			V1134.281z"/>
		<path fill="#2B328B" d="M711.838,1174.075c0,3.79-0.652,7.21-1.954,10.26c-1.304,3.05-3.08,5.64-5.33,7.771
			c-2.251,2.132-4.916,3.775-7.994,4.931c-3.079,1.154-6.426,1.731-10.037,1.731c-3.613,0-6.959-0.577-10.037-1.731
			c-3.08-1.155-5.76-2.799-8.039-4.931c-2.28-2.132-4.057-4.722-5.33-7.771s-1.909-6.47-1.909-10.26v-39.794h11.192v39.438
			c0,1.541,0.235,3.153,0.71,4.841c0.474,1.688,1.258,3.242,2.354,4.664c1.095,1.421,2.545,2.591,4.353,3.508
			c1.806,0.919,4.041,1.377,6.706,1.377s4.899-0.458,6.706-1.377c1.806-0.917,3.256-2.087,4.353-3.508
			c1.096-1.422,1.88-2.977,2.354-4.664c0.473-1.688,0.71-3.3,0.71-4.841v-39.438h11.192V1174.075z"/>
		<path fill="#2B328B" d="M756.427,1147.782c-1.186-1.717-2.769-2.976-4.752-3.774c-1.984-0.8-4.072-1.199-6.263-1.199
			c-1.303,0-2.562,0.148-3.774,0.443c-1.215,0.297-2.31,0.771-3.287,1.422c-0.977,0.652-1.763,1.496-2.354,2.531
			c-0.593,1.037-0.889,2.265-0.889,3.687c0,2.132,0.74,3.761,2.221,4.885c1.479,1.126,3.315,2.104,5.508,2.932
			c2.189,0.83,4.588,1.63,7.194,2.398c2.605,0.771,5.004,1.836,7.195,3.197c2.19,1.363,4.026,3.169,5.507,5.419
			c1.479,2.251,2.221,5.24,2.221,8.972c0,3.375-0.622,6.321-1.865,8.838c-1.243,2.518-2.917,4.605-5.019,6.263
			c-2.103,1.658-4.546,2.901-7.328,3.73c-2.784,0.828-5.716,1.243-8.794,1.243c-3.908,0-7.67-0.652-11.281-1.954
			c-3.612-1.302-6.722-3.493-9.326-6.573l8.438-8.172c1.361,2.073,3.153,3.687,5.374,4.841c2.221,1.155,4.574,1.732,7.062,1.732
			c1.302,0,2.605-0.178,3.908-0.533c1.302-0.355,2.487-0.888,3.553-1.599c1.066-0.711,1.924-1.612,2.576-2.709
			c0.651-1.096,0.978-2.354,0.978-3.775c0-2.31-0.741-4.086-2.221-5.329c-1.481-1.244-3.317-2.295-5.508-3.153
			c-2.191-0.858-4.59-1.673-7.194-2.443c-2.606-0.769-5.005-1.82-7.195-3.153c-2.191-1.332-4.027-3.108-5.507-5.329
			c-1.481-2.221-2.221-5.196-2.221-8.928c0-3.256,0.666-6.069,1.998-8.438c1.333-2.367,3.079-4.337,5.241-5.906
			c2.161-1.568,4.633-2.738,7.417-3.509c2.782-0.77,5.625-1.155,8.527-1.155c3.315,0,6.528,0.504,9.638,1.511
			c3.108,1.007,5.907,2.664,8.394,4.974L756.427,1147.782z"/>
		<path fill="#2B328B" d="M799.506,1165.992c0-5.033,0.829-9.607,2.487-13.724c1.657-4.115,3.953-7.624,6.884-10.526
			c2.932-2.9,6.425-5.137,10.481-6.706c4.056-1.568,8.513-2.354,13.369-2.354c4.914-0.058,9.415,0.667,13.501,2.177
			s7.608,3.717,10.57,6.617c2.961,2.902,5.271,6.396,6.929,10.481c1.657,4.086,2.487,8.646,2.487,13.68
			c0,4.916-0.83,9.387-2.487,13.413c-1.658,4.027-3.968,7.491-6.929,10.393c-2.962,2.901-6.484,5.167-10.57,6.795
			s-8.587,2.472-13.501,2.531c-4.856,0-9.313-0.785-13.369-2.354c-4.057-1.568-7.55-3.789-10.481-6.662
			c-2.931-2.872-5.227-6.32-6.884-10.349C800.335,1175.378,799.506,1170.908,799.506,1165.992z M811.231,1165.281
			c0,3.375,0.518,6.484,1.555,9.327c1.035,2.842,2.501,5.3,4.396,7.372c1.895,2.073,4.159,3.702,6.795,4.886
			c2.635,1.186,5.581,1.776,8.839,1.776c3.256,0,6.218-0.591,8.882-1.776c2.665-1.184,4.944-2.812,6.84-4.886
			c1.895-2.072,3.36-4.53,4.397-7.372c1.035-2.843,1.554-5.952,1.554-9.327c0-3.138-0.519-6.069-1.554-8.794
			c-1.037-2.723-2.503-5.107-4.397-7.15c-1.896-2.043-4.175-3.642-6.84-4.797c-2.664-1.154-5.626-1.731-8.882-1.731
			c-3.258,0-6.204,0.577-8.839,1.731c-2.636,1.155-4.9,2.754-6.795,4.797c-1.896,2.043-3.361,4.428-4.396,7.15
			C811.749,1159.212,811.231,1162.144,811.231,1165.281z"/>
		<path fill="#2B328B" d="M876.874,1134.281h11.191v52.763h26.737v10.126h-37.929V1134.281z"/>
		<path fill="#2B328B" d="M922.975,1134.281h11.191v25.049h29.402v-25.049h11.191v62.889h-11.191v-27.714h-29.402v27.714h-11.191
			V1134.281z"/>
		<path fill="#2B328B" d="M985.419,1165.992c0-5.033,0.829-9.607,2.487-13.724c1.657-4.115,3.953-7.624,6.884-10.526
			c2.932-2.9,6.425-5.137,10.481-6.706c4.056-1.568,8.513-2.354,13.369-2.354c4.914-0.058,9.415,0.667,13.501,2.177
			s7.608,3.717,10.57,6.617c2.961,2.902,5.271,6.396,6.929,10.481c1.657,4.086,2.487,8.646,2.487,13.68
			c0,4.916-0.83,9.387-2.487,13.413c-1.658,4.027-3.968,7.491-6.929,10.393c-2.962,2.901-6.484,5.167-10.57,6.795
			s-8.587,2.472-13.501,2.531c-4.856,0-9.313-0.785-13.369-2.354c-4.057-1.568-7.55-3.789-10.481-6.662
			c-2.931-2.872-5.227-6.32-6.884-10.349C986.248,1175.378,985.419,1170.908,985.419,1165.992z M997.145,1165.281
			c0,3.375,0.518,6.484,1.555,9.327c1.035,2.842,2.501,5.3,4.396,7.372c1.895,2.073,4.159,3.702,6.795,4.886
			c2.635,1.186,5.581,1.776,8.839,1.776c3.256,0,6.218-0.591,8.882-1.776c2.665-1.184,4.944-2.812,6.84-4.886
			c1.895-2.072,3.36-4.53,4.397-7.372c1.035-2.843,1.554-5.952,1.554-9.327c0-3.138-0.519-6.069-1.554-8.794
			c-1.037-2.723-2.503-5.107-4.397-7.15c-1.896-2.043-4.175-3.642-6.84-4.797c-2.664-1.154-5.626-1.731-8.882-1.731
			c-3.258,0-6.204,0.577-8.839,1.731c-2.636,1.155-4.9,2.754-6.795,4.797c-1.896,2.043-3.361,4.428-4.396,7.15
			C997.662,1159.212,997.145,1162.144,997.145,1165.281z"/>
		<path fill="#2B328B" d="M1093.608,1147.782c-1.186-1.717-2.769-2.976-4.752-3.774c-1.984-0.8-4.072-1.199-6.263-1.199
			c-1.303,0-2.562,0.148-3.774,0.443c-1.215,0.297-2.31,0.771-3.287,1.422c-0.977,0.652-1.763,1.496-2.354,2.531
			c-0.593,1.037-0.889,2.265-0.889,3.687c0,2.132,0.74,3.761,2.221,4.885c1.479,1.126,3.315,2.104,5.508,2.932
			c2.189,0.83,4.588,1.63,7.194,2.398c2.605,0.771,5.004,1.836,7.195,3.197c2.19,1.363,4.026,3.169,5.507,5.419
			c1.479,2.251,2.221,5.24,2.221,8.972c0,3.375-0.622,6.321-1.865,8.838c-1.243,2.518-2.917,4.605-5.019,6.263
			c-2.103,1.658-4.546,2.901-7.328,3.73c-2.784,0.828-5.716,1.243-8.794,1.243c-3.908,0-7.67-0.652-11.281-1.954
			c-3.612-1.302-6.722-3.493-9.326-6.573l8.438-8.172c1.361,2.073,3.153,3.687,5.374,4.841c2.221,1.155,4.574,1.732,7.062,1.732
			c1.302,0,2.605-0.178,3.908-0.533c1.302-0.355,2.487-0.888,3.553-1.599c1.066-0.711,1.924-1.612,2.576-2.709
			c0.651-1.096,0.978-2.354,0.978-3.775c0-2.31-0.741-4.086-2.221-5.329c-1.481-1.244-3.317-2.295-5.508-3.153
			c-2.191-0.858-4.59-1.673-7.194-2.443c-2.606-0.769-5.005-1.82-7.195-3.153c-2.191-1.332-4.027-3.108-5.507-5.329
			c-1.481-2.221-2.221-5.196-2.221-8.928c0-3.256,0.666-6.069,1.998-8.438c1.333-2.367,3.079-4.337,5.241-5.906
			c2.161-1.568,4.633-2.738,7.417-3.509c2.782-0.77,5.625-1.155,8.527-1.155c3.315,0,6.528,0.504,9.638,1.511
			c3.108,1.007,5.907,2.664,8.394,4.974L1093.608,1147.782z"/>
	</g>
</g>
</svg>
