<?xml version="1.0" encoding="utf-8"?>
<!-- Generator: Adobe Illustrator 16.0.0, SVG Export Plug-In . SVG Version: 6.00 Build 0)  -->
<!DOCTYPE svg PUBLIC "-//W3C//DTD SVG 1.1//EN" "http://www.w3.org/Graphics/SVG/1.1/DTD/svg11.dtd">
<svg version="1.1" id="Layer_1" xmlns="http://www.w3.org/2000/svg" xmlns:xlink="http://www.w3.org/1999/xlink" x="0px" y="0px"
	 width="57px" height="57px" viewBox="-312 0.013 57 57" enable-background="new -312 0.013 57 57" xml:space="preserve">
<g>
	<path fill="#FFFFFF" d="M-255,48.418c0,4.748-3.848,8.596-8.594,8.596h-39.811c-4.746,0-8.595-3.849-8.595-8.596V8.608
		c0-4.747,3.849-8.595,8.595-8.595h39.811c4.747,0,8.594,3.848,8.594,8.595V48.418z M-257.713,8.608
		c0-3.248-2.633-5.881-5.881-5.881h-39.811c-3.248,0-5.881,2.633-5.881,5.881v39.81c0,3.249,2.633,5.881,5.881,5.881h39.811
		c3.248,0,5.881-2.633,5.881-5.881V8.608z"/>
	<path fill="#FFFFFF" d="M-288.079,37.858L-288.079,37.858c-1.828,0-3.12-1.423-3.12-3.17V22.337c0-1.748,1.292-3.169,3.117-3.169
		c0.569,0,1.029,0.149,1.515,0.431l13.726,7.898c0.428,0.244,0.663,0.698,0.659,1.189c-0.005,0.49-0.284,0.94-0.715,1.177
		l-13.718,7.595C-287.081,37.718-287.531,37.858-288.079,37.858 M-288.081,21.882c-0.275,0-0.403,0.199-0.403,0.455v12.352
		c0,0.255,0.127,0.455,0.405,0.455c0.09,0,0.072-0.021,0.143-0.06l11.65-6.435l-11.613-6.699
		C-287.977,21.904-287.987,21.882-288.081,21.882"/>
</g>
</svg>
