<?xml version="1.0" encoding="utf-8"?>
<!-- Generator: Adobe Illustrator 16.0.0, SVG Export Plug-In . SVG Version: 6.00 Build 0)  -->
<!DOCTYPE svg PUBLIC "-//W3C//DTD SVG 1.1//EN" "http://www.w3.org/Graphics/SVG/1.1/DTD/svg11.dtd">
<svg version="1.1" id="Layer_1" xmlns="http://www.w3.org/2000/svg" xmlns:xlink="http://www.w3.org/1999/xlink" x="0px" y="0px"
	 width="337.483px" height="257.202px" viewBox="0 0 337.483 257.202" enable-background="new 0 0 337.483 257.202"
	 xml:space="preserve">
<g>
	<path opacity="0.5" fill="#FFFFFF" d="M195.756,108.44H25.075c-7.369,0-13.343,5.975-13.343,13.344v72.275
		c0,7.369,5.974,13.344,13.343,13.344h170.682c7.369,0,13.344-5.975,13.344-13.344v-72.275
		C209.1,114.416,203.125,108.44,195.756,108.44z M31.793,173.878c-0.921,0-1.668-0.747-1.668-1.668s0.747-1.668,1.668-1.668
		s1.668,0.747,1.668,1.668S32.714,173.878,31.793,173.878z M33.461,165.352c0,0.921-0.746,1.668-1.667,1.668
		s-1.668-0.747-1.668-1.668V150.49c0-0.919,0.747-1.666,1.668-1.666s1.667,0.747,1.667,1.666V165.352z M175.186,200.454H48.425
		v-85.063h126.761V200.454z M190.752,167.93c-5.525,0-10.006-4.48-10.006-10.008s4.48-10.007,10.006-10.007
		c5.527,0,10.008,4.479,10.008,10.007S196.28,167.93,190.752,167.93z"/>
	<path fill="#FFFFFF" d="M322.981,194.06V23.378c0-7.37-5.975-13.343-13.344-13.343h-72.275c-7.369,0-13.344,5.973-13.344,13.343
		V194.06c0,7.369,5.975,13.344,13.344,13.344h72.275C317.006,207.403,322.981,201.429,322.981,194.06z M257.543,30.096
		c0-0.921,0.746-1.668,1.668-1.668c0.92,0,1.668,0.747,1.668,1.668c0,0.92-0.748,1.667-1.668,1.667
		C258.29,31.764,257.543,31.017,257.543,30.096z M266.069,31.764c-0.92,0-1.668-0.746-1.668-1.667c0-0.921,0.748-1.668,1.668-1.668
		h14.861c0.92,0,1.666,0.747,1.666,1.668c0,0.922-0.746,1.667-1.666,1.667H266.069z M230.967,173.489V46.729h85.064v126.761H230.967
		z M263.493,189.057c0-5.527,4.479-10.008,10.006-10.008s10.008,4.48,10.008,10.008c0,5.526-4.48,10.007-10.008,10.007
		S263.493,194.583,263.493,189.057z"/>
	<path opacity="0.5" fill="#FFFFFF" d="M154.059,97.6h-23.906c0,0,3.492-25.644,23.906-41.976c13.9-11.12,30.857-9.729,30.857-9.729
		V27.872l30.137,30.138l-29.721,29.721V70.635C185.333,70.635,159.897,68.411,154.059,97.6z"/>
</g>
<g>
	<path fill="#FFFFFF" d="M14.036,225.745h4.944c1.728,0,3.092,0.376,4.092,1.128s1.5,1.888,1.5,3.407c0,1.521-0.5,2.66-1.5,3.42
		c-1,0.761-2.364,1.141-4.092,1.141h-3.216v7.896h-1.728V225.745z M15.764,233.257h2.784c0.768,0,1.42-0.08,1.956-0.24
		s0.964-0.371,1.284-0.636c0.32-0.265,0.552-0.576,0.696-0.937c0.144-0.359,0.216-0.747,0.216-1.164c0-0.399-0.072-0.779-0.216-1.14
		s-0.376-0.676-0.696-0.948c-0.32-0.271-0.748-0.483-1.284-0.636c-0.536-0.151-1.188-0.228-1.956-0.228h-2.784V233.257z"/>
	<path fill="#FFFFFF" d="M38.587,237.12c0,0.85-0.148,1.633-0.444,2.353c-0.296,0.72-0.708,1.345-1.236,1.872
		c-0.528,0.528-1.156,0.94-1.884,1.236c-0.729,0.295-1.532,0.443-2.412,0.443c-0.864,0-1.66-0.148-2.388-0.443
		c-0.728-0.296-1.356-0.708-1.884-1.236c-0.528-0.527-0.94-1.152-1.236-1.872c-0.296-0.72-0.444-1.503-0.444-2.353
		c0-0.848,0.148-1.631,0.444-2.352c0.296-0.72,0.708-1.344,1.236-1.871c0.528-0.529,1.156-0.94,1.884-1.236
		c0.728-0.297,1.524-0.444,2.388-0.444c0.88,0,1.684,0.147,2.412,0.444c0.728,0.296,1.356,0.707,1.884,1.236
		c0.528,0.527,0.94,1.151,1.236,1.871C38.439,235.489,38.587,236.272,38.587,237.12z M36.859,237.12c0-0.623-0.1-1.207-0.3-1.752
		c-0.2-0.543-0.484-1.016-0.852-1.416c-0.369-0.398-0.812-0.715-1.332-0.947c-0.521-0.232-1.108-0.348-1.764-0.348
		c-0.656,0-1.244,0.115-1.764,0.348s-0.96,0.549-1.32,0.947c-0.36,0.4-0.64,0.873-0.84,1.416c-0.2,0.545-0.3,1.129-0.3,1.752
		c0,0.625,0.1,1.209,0.3,1.753c0.2,0.544,0.48,1.017,0.84,1.415c0.36,0.4,0.8,0.717,1.32,0.949c0.52,0.231,1.108,0.348,1.764,0.348
		c0.656,0,1.244-0.116,1.764-0.348c0.52-0.232,0.963-0.549,1.332-0.949c0.368-0.398,0.651-0.871,0.852-1.415
		S36.859,237.745,36.859,237.12z"/>
	<path fill="#FFFFFF" d="M41.635,235.009c0-0.496-0.012-1-0.036-1.512s-0.044-1.176-0.06-1.992h1.56v2.088h0.048
		c0.111-0.304,0.271-0.596,0.48-0.876c0.208-0.28,0.459-0.532,0.756-0.756c0.296-0.224,0.64-0.403,1.032-0.54
		c0.392-0.136,0.836-0.204,1.332-0.204c0.448,0,0.84,0.048,1.176,0.144l-0.312,1.561c-0.208-0.08-0.512-0.12-0.912-0.12
		c-0.608,0-1.128,0.116-1.56,0.349c-0.432,0.231-0.792,0.527-1.08,0.887c-0.288,0.361-0.5,0.749-0.636,1.164
		c-0.136,0.417-0.204,0.816-0.204,1.201v6.336h-1.584V235.009z"/>
	<path fill="#FFFFFF" d="M61.338,232.944h-2.664v9.793H57.09v-9.793h-2.376v-1.439h2.376v-3.072c0-1.488,0.344-2.547,1.032-3.18
		c0.688-0.632,1.6-0.948,2.736-0.948c0.224,0,0.452,0.017,0.684,0.048c0.231,0.033,0.459,0.072,0.684,0.12l-0.288,1.44
		c-0.192-0.049-0.392-0.088-0.6-0.12s-0.416-0.048-0.624-0.048c-0.432,0-0.784,0.072-1.056,0.216s-0.48,0.348-0.624,0.612
		c-0.144,0.264-0.24,0.572-0.288,0.924c-0.048,0.352-0.072,0.729-0.072,1.128v2.88h2.664V232.944z"/>
	<path fill="#FFFFFF" d="M70.411,235.849v-0.287c0-1.937-0.96-2.904-2.88-2.904c-1.312,0-2.456,0.439-3.432,1.32l-0.96-1.129
		c1.056-1.088,2.64-1.632,4.752-1.632c0.543,0,1.068,0.08,1.572,0.24c0.504,0.159,0.94,0.403,1.308,0.731
		c0.368,0.328,0.664,0.74,0.888,1.236s0.336,1.088,0.336,1.775v5.017c0,0.433,0.02,0.884,0.06,1.356
		c0.04,0.472,0.084,0.859,0.132,1.164H70.65c-0.048-0.272-0.084-0.568-0.108-0.889s-0.036-0.632-0.036-0.936h-0.048
		c-0.464,0.752-1.012,1.292-1.644,1.619c-0.632,0.328-1.404,0.492-2.316,0.492c-0.496,0-0.976-0.068-1.44-0.203
		c-0.464-0.137-0.876-0.344-1.236-0.625c-0.36-0.279-0.648-0.623-0.864-1.031c-0.216-0.408-0.324-0.885-0.324-1.428
		c0-0.912,0.236-1.629,0.708-2.148c0.472-0.52,1.064-0.908,1.776-1.164c0.711-0.256,1.472-0.416,2.28-0.48
		c0.808-0.063,1.548-0.096,2.22-0.096H70.411z M69.594,237.146c-0.4,0-0.9,0.02-1.5,0.059c-0.6,0.041-1.176,0.137-1.728,0.289
		c-0.552,0.152-1.024,0.388-1.416,0.707c-0.392,0.32-0.588,0.761-0.588,1.32c0,0.369,0.076,0.684,0.228,0.948
		c0.152,0.265,0.356,0.479,0.612,0.647c0.255,0.168,0.54,0.289,0.852,0.361c0.312,0.071,0.628,0.107,0.948,0.107
		c0.576,0,1.076-0.096,1.5-0.288c0.424-0.192,0.78-0.452,1.068-0.78s0.5-0.711,0.636-1.152c0.136-0.439,0.204-0.907,0.204-1.403
		v-0.815H69.594z"/>
	<path fill="#FFFFFF" d="M80.61,242.737h-1.776l-4.56-11.232h1.872l3.6,9.456h0.048l3.576-9.456h1.8L80.61,242.737z"/>
	<path fill="#FFFFFF" d="M98.586,237.12c0,0.85-0.148,1.633-0.444,2.353c-0.296,0.72-0.708,1.345-1.236,1.872
		c-0.528,0.528-1.156,0.94-1.884,1.236c-0.729,0.295-1.532,0.443-2.412,0.443c-0.864,0-1.66-0.148-2.388-0.443
		c-0.728-0.296-1.356-0.708-1.884-1.236c-0.528-0.527-0.94-1.152-1.236-1.872c-0.296-0.72-0.444-1.503-0.444-2.353
		c0-0.848,0.148-1.631,0.444-2.352c0.296-0.72,0.708-1.344,1.236-1.871c0.528-0.529,1.156-0.94,1.884-1.236
		c0.728-0.297,1.524-0.444,2.388-0.444c0.88,0,1.684,0.147,2.412,0.444c0.728,0.296,1.356,0.707,1.884,1.236
		c0.528,0.527,0.94,1.151,1.236,1.871C98.438,235.489,98.586,236.272,98.586,237.12z M96.858,237.12c0-0.623-0.1-1.207-0.3-1.752
		c-0.2-0.543-0.484-1.016-0.852-1.416c-0.369-0.398-0.812-0.715-1.332-0.947c-0.521-0.232-1.108-0.348-1.764-0.348
		c-0.656,0-1.244,0.115-1.764,0.348s-0.96,0.549-1.32,0.947c-0.36,0.4-0.64,0.873-0.84,1.416c-0.2,0.545-0.3,1.129-0.3,1.752
		c0,0.625,0.1,1.209,0.3,1.753c0.2,0.544,0.48,1.017,0.84,1.415c0.36,0.4,0.8,0.717,1.32,0.949c0.52,0.231,1.108,0.348,1.764,0.348
		c0.656,0,1.244-0.116,1.764-0.348c0.52-0.232,0.963-0.549,1.332-0.949c0.368-0.398,0.651-0.871,0.852-1.415
		S96.858,237.745,96.858,237.12z"/>
	<path fill="#FFFFFF" d="M101.634,235.009c0-0.496-0.012-1-0.036-1.512s-0.044-1.176-0.06-1.992h1.56v2.088h0.048
		c0.111-0.304,0.271-0.596,0.48-0.876c0.208-0.28,0.459-0.532,0.756-0.756c0.296-0.224,0.64-0.403,1.032-0.54
		c0.392-0.136,0.836-0.204,1.332-0.204c0.448,0,0.84,0.048,1.176,0.144l-0.312,1.561c-0.208-0.08-0.512-0.12-0.912-0.12
		c-0.608,0-1.128,0.116-1.56,0.349c-0.432,0.231-0.792,0.527-1.08,0.887c-0.288,0.361-0.5,0.749-0.636,1.164
		c-0.136,0.417-0.204,0.816-0.204,1.201v6.336h-1.584V235.009z"/>
	<path fill="#FFFFFF" d="M116.969,244.993c0.464,0.623,1.068,1.123,1.812,1.5c0.744,0.375,1.572,0.563,2.484,0.563
		c0.8,0,1.479-0.116,2.04-0.348c0.56-0.232,1.012-0.548,1.356-0.948c0.344-0.4,0.592-0.868,0.744-1.404
		c0.152-0.535,0.228-1.107,0.228-1.716v-2.016h-0.048c-0.512,0.768-1.136,1.312-1.872,1.632s-1.512,0.48-2.328,0.48
		c-0.816,0-1.58-0.145-2.292-0.433s-1.332-0.685-1.86-1.188s-0.944-1.107-1.248-1.812c-0.304-0.704-0.456-1.464-0.456-2.28
		c0-0.815,0.144-1.575,0.432-2.279s0.684-1.32,1.188-1.848c0.504-0.529,1.104-0.94,1.8-1.236c0.696-0.297,1.46-0.444,2.292-0.444
		c0.336,0,0.692,0.032,1.068,0.097c0.375,0.063,0.752,0.176,1.128,0.336c0.375,0.16,0.748,0.38,1.116,0.659
		c0.368,0.28,0.712,0.636,1.032,1.068h0.048v-1.872h1.584v11.136c0,0.608-0.076,1.256-0.228,1.944
		c-0.152,0.688-0.448,1.32-0.888,1.896c-0.44,0.575-1.052,1.055-1.836,1.439c-0.784,0.384-1.809,0.576-3.072,0.576
		c-1.12,0-2.12-0.185-3-0.553c-0.88-0.367-1.68-0.936-2.4-1.703L116.969,244.993z M117.257,236.978c0,0.592,0.108,1.147,0.324,1.668
		c0.216,0.52,0.512,0.976,0.888,1.367c0.376,0.393,0.816,0.705,1.32,0.936c0.504,0.232,1.052,0.349,1.644,0.349
		c0.576,0,1.124-0.104,1.644-0.312c0.52-0.209,0.979-0.5,1.38-0.877c0.4-0.375,0.708-0.828,0.924-1.355
		c0.216-0.528,0.316-1.119,0.3-1.775c0-0.592-0.096-1.148-0.288-1.669c-0.192-0.52-0.472-0.976-0.84-1.368
		c-0.368-0.392-0.816-0.703-1.344-0.936s-1.12-0.348-1.776-0.348c-0.592,0-1.14,0.115-1.644,0.348s-0.944,0.544-1.32,0.936
		c-0.376,0.393-0.672,0.849-0.888,1.368C117.365,235.829,117.257,236.386,117.257,236.978z"/>
	<path fill="#FFFFFF" d="M133.073,227.185c0,0.336-0.12,0.612-0.36,0.828c-0.24,0.217-0.504,0.324-0.792,0.324
		s-0.552-0.107-0.792-0.324c-0.24-0.216-0.36-0.492-0.36-0.828s0.12-0.611,0.36-0.828c0.24-0.216,0.504-0.324,0.792-0.324
		s0.552,0.108,0.792,0.324C132.953,226.573,133.073,226.849,133.073,227.185z M132.713,242.737h-1.584v-11.232h1.584V242.737z"/>
	<path fill="#FFFFFF" d="M136.697,235.009c0-0.496-0.012-1-0.036-1.512s-0.044-1.176-0.06-1.992h1.56v2.088h0.048
		c0.111-0.304,0.271-0.596,0.48-0.876c0.208-0.28,0.459-0.532,0.756-0.756c0.296-0.224,0.64-0.403,1.032-0.54
		c0.392-0.136,0.836-0.204,1.332-0.204c0.448,0,0.84,0.048,1.176,0.144l-0.312,1.561c-0.208-0.08-0.512-0.12-0.912-0.12
		c-0.608,0-1.128,0.116-1.56,0.349c-0.432,0.231-0.792,0.527-1.08,0.887c-0.288,0.361-0.5,0.749-0.636,1.164
		c-0.136,0.417-0.204,0.816-0.204,1.201v6.336h-1.584V235.009z"/>
	<path fill="#FFFFFF" d="M145.169,237.553c0.048,0.561,0.184,1.089,0.408,1.584c0.224,0.496,0.52,0.925,0.888,1.284
		s0.792,0.645,1.272,0.852c0.48,0.209,1,0.312,1.56,0.312c0.848,0,1.58-0.195,2.196-0.588c0.616-0.393,1.084-0.844,1.404-1.356
		l1.224,1.009c-0.672,0.848-1.413,1.455-2.22,1.823c-0.808,0.368-1.676,0.552-2.604,0.552c-0.832,0-1.604-0.148-2.316-0.443
		c-0.712-0.296-1.324-0.708-1.836-1.236c-0.512-0.527-0.916-1.152-1.212-1.872c-0.296-0.72-0.444-1.503-0.444-2.353
		c0-0.848,0.144-1.631,0.432-2.352c0.288-0.72,0.688-1.344,1.2-1.871c0.512-0.529,1.112-0.94,1.8-1.236
		c0.688-0.297,1.432-0.444,2.232-0.444c0.848,0,1.608,0.152,2.28,0.456c0.672,0.305,1.236,0.708,1.692,1.212
		s0.804,1.097,1.044,1.776c0.24,0.68,0.36,1.404,0.36,2.172v0.72H145.169z M152.801,236.257c0-1.072-0.32-1.939-0.96-2.604
		c-0.64-0.664-1.536-0.996-2.688-0.996c-0.512,0-1.008,0.1-1.488,0.3s-0.9,0.468-1.26,0.804c-0.36,0.336-0.648,0.721-0.864,1.152
		c-0.216,0.432-0.324,0.88-0.324,1.344H152.801z"/>
	<path fill="#FFFFFF" d="M170.033,234.169c-0.24-0.464-0.561-0.832-0.959-1.104c-0.4-0.272-0.889-0.408-1.465-0.408
		c-0.271,0-0.549,0.031-0.828,0.096s-0.531,0.164-0.756,0.3s-0.404,0.308-0.54,0.517c-0.136,0.207-0.204,0.464-0.204,0.768
		c0,0.527,0.184,0.912,0.553,1.152c0.367,0.24,0.92,0.447,1.656,0.623l1.607,0.385c0.783,0.176,1.436,0.531,1.956,1.068
		c0.52,0.535,0.78,1.203,0.78,2.004c0,0.607-0.125,1.132-0.373,1.571c-0.248,0.44-0.575,0.8-0.983,1.08s-0.876,0.484-1.403,0.612
		c-0.529,0.127-1.064,0.191-1.609,0.191c-0.863,0-1.668-0.164-2.411-0.492c-0.744-0.327-1.38-0.891-1.908-1.691l1.368-0.936
		c0.32,0.512,0.724,0.92,1.212,1.224c0.487,0.304,1.067,0.456,1.739,0.456c0.32,0,0.641-0.036,0.961-0.107
		c0.32-0.072,0.604-0.185,0.852-0.337c0.248-0.151,0.447-0.348,0.6-0.588c0.152-0.239,0.229-0.52,0.229-0.84
		c0-0.56-0.208-0.964-0.624-1.212s-0.921-0.444-1.512-0.588l-1.536-0.36c-0.191-0.048-0.452-0.128-0.78-0.239
		c-0.328-0.112-0.647-0.28-0.96-0.505c-0.312-0.224-0.58-0.516-0.804-0.876c-0.225-0.359-0.336-0.804-0.336-1.332
		c0-0.576,0.116-1.08,0.348-1.512s0.544-0.783,0.937-1.057c0.392-0.271,0.836-0.475,1.332-0.611
		c0.495-0.136,1.008-0.204,1.535-0.204c0.784,0,1.512,0.152,2.185,0.456c0.672,0.305,1.191,0.824,1.56,1.561L170.033,234.169z"/>
	<path fill="#FFFFFF" d="M175.409,237.553c0.048,0.561,0.184,1.089,0.408,1.584c0.224,0.496,0.52,0.925,0.888,1.284
		s0.792,0.645,1.271,0.852c0.48,0.209,1,0.312,1.561,0.312c0.848,0,1.58-0.195,2.195-0.588c0.617-0.393,1.084-0.844,1.404-1.356
		l1.225,1.009c-0.672,0.848-1.412,1.455-2.221,1.823c-0.808,0.368-1.676,0.552-2.604,0.552c-0.832,0-1.604-0.148-2.316-0.443
		c-0.712-0.296-1.324-0.708-1.836-1.236c-0.512-0.527-0.916-1.152-1.211-1.872c-0.297-0.72-0.445-1.503-0.445-2.353
		c0-0.848,0.145-1.631,0.433-2.352c0.288-0.72,0.688-1.344,1.2-1.871c0.512-0.529,1.111-0.94,1.8-1.236
		c0.688-0.297,1.432-0.444,2.231-0.444c0.849,0,1.608,0.152,2.281,0.456c0.672,0.305,1.235,0.708,1.691,1.212
		s0.804,1.097,1.044,1.776c0.239,0.68,0.36,1.404,0.36,2.172v0.72H175.409z M183.041,236.257c0-1.072-0.32-1.939-0.96-2.604
		s-1.536-0.996-2.688-0.996c-0.512,0-1.008,0.1-1.487,0.3s-0.899,0.468-1.261,0.804c-0.359,0.336-0.647,0.721-0.863,1.152
		c-0.217,0.432-0.324,0.88-0.324,1.344H183.041z"/>
	<path fill="#FFFFFF" d="M195.761,242.737c-0.033-0.305-0.053-0.604-0.061-0.9c-0.008-0.296-0.012-0.596-0.012-0.9h-0.048
		c-0.177,0.305-0.4,0.584-0.673,0.84c-0.271,0.256-0.575,0.477-0.911,0.66c-0.337,0.185-0.692,0.328-1.068,0.432
		c-0.376,0.104-0.748,0.156-1.116,0.156c-1.439,0-2.504-0.379-3.191-1.14c-0.688-0.76-1.032-1.844-1.032-3.252v-7.128h1.584v6.216
		c0,0.624,0.048,1.177,0.144,1.656s0.26,0.884,0.492,1.212s0.544,0.576,0.936,0.744c0.393,0.168,0.885,0.252,1.477,0.252
		c0.08,0,0.304-0.032,0.672-0.096c0.368-0.064,0.756-0.24,1.164-0.528s0.771-0.72,1.092-1.296s0.48-1.376,0.48-2.4v-5.76h1.584v8.76
		c0,0.305,0.012,0.688,0.036,1.152s0.052,0.904,0.084,1.32H195.761z"/>
	<path fill="#FFFFFF" d="M218.873,242.737h-1.584v-1.873h-0.048c-0.257,0.385-0.561,0.713-0.912,0.984
		c-0.353,0.272-0.72,0.496-1.104,0.672c-0.384,0.177-0.779,0.305-1.188,0.385s-0.797,0.119-1.164,0.119
		c-0.881,0-1.684-0.148-2.412-0.443c-0.729-0.296-1.355-0.708-1.884-1.236c-0.528-0.527-0.94-1.152-1.236-1.872
		s-0.444-1.503-0.444-2.353c0-0.848,0.148-1.631,0.444-2.352c0.296-0.72,0.708-1.344,1.236-1.871
		c0.528-0.529,1.155-0.94,1.884-1.236c0.729-0.297,1.531-0.444,2.412-0.444c0.367,0,0.756,0.04,1.164,0.12s0.804,0.208,1.188,0.384
		c0.385,0.177,0.752,0.4,1.104,0.672c0.352,0.272,0.655,0.601,0.912,0.984h0.048v-8.784h1.584V242.737z M208.625,237.12
		c0,0.625,0.1,1.209,0.3,1.753s0.483,1.017,0.853,1.415c0.367,0.4,0.812,0.717,1.332,0.949c0.52,0.231,1.107,0.348,1.764,0.348
		c0.64,0,1.236-0.116,1.788-0.348c0.552-0.232,1.028-0.549,1.428-0.949c0.399-0.398,0.712-0.871,0.937-1.415
		c0.224-0.544,0.336-1.128,0.336-1.753c0-0.623-0.112-1.207-0.336-1.752c-0.225-0.543-0.537-1.016-0.937-1.416
		c-0.399-0.398-0.876-0.715-1.428-0.947s-1.148-0.348-1.788-0.348c-0.656,0-1.244,0.115-1.764,0.348
		c-0.521,0.232-0.965,0.549-1.332,0.947c-0.369,0.4-0.652,0.873-0.853,1.416C208.724,235.913,208.625,236.497,208.625,237.12z"/>
	<path fill="#FFFFFF" d="M224.632,227.185c0,0.336-0.119,0.612-0.359,0.828c-0.24,0.217-0.504,0.324-0.793,0.324
		c-0.287,0-0.551-0.107-0.791-0.324c-0.24-0.216-0.36-0.492-0.36-0.828s0.12-0.611,0.36-0.828c0.24-0.216,0.504-0.324,0.791-0.324
		c0.289,0,0.553,0.108,0.793,0.324C224.513,226.573,224.632,226.849,224.632,227.185z M224.273,242.737h-1.584v-11.232h1.584
		V242.737z"/>
	<path fill="#FFFFFF" d="M234.041,234.169c-0.24-0.464-0.561-0.832-0.96-1.104c-0.4-0.272-0.888-0.408-1.464-0.408
		c-0.272,0-0.549,0.031-0.828,0.096c-0.28,0.064-0.532,0.164-0.756,0.3c-0.225,0.136-0.404,0.308-0.541,0.517
		c-0.135,0.207-0.203,0.464-0.203,0.768c0,0.527,0.184,0.912,0.552,1.152s0.92,0.447,1.656,0.623l1.608,0.385
		c0.783,0.176,1.436,0.531,1.955,1.068c0.52,0.535,0.78,1.203,0.78,2.004c0,0.607-0.124,1.132-0.372,1.571
		c-0.248,0.44-0.576,0.8-0.984,1.08s-0.875,0.484-1.403,0.612c-0.528,0.127-1.064,0.191-1.608,0.191
		c-0.863,0-1.668-0.164-2.412-0.492c-0.744-0.327-1.38-0.891-1.908-1.691l1.369-0.936c0.319,0.512,0.723,0.92,1.211,1.224
		s1.068,0.456,1.74,0.456c0.32,0,0.641-0.036,0.96-0.107c0.32-0.072,0.604-0.185,0.853-0.337c0.248-0.151,0.447-0.348,0.6-0.588
		c0.152-0.239,0.229-0.52,0.229-0.84c0-0.56-0.209-0.964-0.625-1.212s-0.92-0.444-1.512-0.588l-1.535-0.36
		c-0.192-0.048-0.453-0.128-0.781-0.239c-0.328-0.112-0.647-0.28-0.959-0.505c-0.312-0.224-0.58-0.516-0.805-0.876
		c-0.225-0.359-0.336-0.804-0.336-1.332c0-0.576,0.116-1.08,0.348-1.512c0.232-0.432,0.545-0.783,0.937-1.057
		c0.392-0.271,0.836-0.475,1.332-0.611c0.495-0.136,1.009-0.204,1.536-0.204c0.783,0,1.512,0.152,2.184,0.456
		c0.672,0.305,1.191,0.824,1.561,1.561L234.041,234.169z"/>
	<path fill="#FFFFFF" d="M238.312,231.505h1.584v1.872h0.048c0.256-0.384,0.56-0.712,0.912-0.984
		c0.352-0.271,0.72-0.495,1.104-0.672c0.383-0.176,0.779-0.304,1.188-0.384s0.796-0.12,1.164-0.12c0.88,0,1.684,0.147,2.412,0.444
		c0.728,0.296,1.355,0.707,1.884,1.236c0.528,0.527,0.94,1.151,1.235,1.871c0.297,0.721,0.445,1.504,0.445,2.352
		c0,0.85-0.148,1.633-0.445,2.353c-0.295,0.72-0.707,1.345-1.235,1.872c-0.528,0.528-1.156,0.94-1.884,1.236
		c-0.729,0.295-1.532,0.443-2.412,0.443c-0.368,0-0.756-0.039-1.164-0.119s-0.805-0.208-1.188-0.385
		c-0.385-0.176-0.753-0.399-1.104-0.672c-0.353-0.271-0.656-0.6-0.912-0.984h-0.048v8.785h-1.584V231.505z M248.56,237.12
		c0-0.623-0.1-1.207-0.301-1.752c-0.199-0.543-0.483-1.016-0.852-1.416c-0.368-0.398-0.812-0.715-1.332-0.947
		s-1.107-0.348-1.764-0.348s-1.256,0.115-1.8,0.348s-1.017,0.549-1.416,0.947c-0.4,0.4-0.712,0.873-0.937,1.416
		c-0.225,0.545-0.336,1.129-0.336,1.752c0,0.625,0.111,1.209,0.336,1.753s0.536,1.017,0.937,1.415
		c0.399,0.4,0.872,0.717,1.416,0.949c0.544,0.231,1.144,0.348,1.8,0.348s1.244-0.116,1.764-0.348
		c0.52-0.232,0.964-0.549,1.332-0.949c0.368-0.398,0.652-0.871,0.852-1.415C248.46,238.329,248.56,237.745,248.56,237.12z"/>
	<path fill="#FFFFFF" d="M264.328,237.12c0,0.85-0.148,1.633-0.443,2.353c-0.297,0.72-0.709,1.345-1.236,1.872
		c-0.527,0.528-1.156,0.94-1.885,1.236c-0.727,0.295-1.531,0.443-2.412,0.443c-0.863,0-1.659-0.148-2.387-0.443
		c-0.729-0.296-1.356-0.708-1.885-1.236c-0.527-0.527-0.939-1.152-1.235-1.872s-0.444-1.503-0.444-2.353
		c0-0.848,0.148-1.631,0.444-2.352c0.296-0.72,0.708-1.344,1.235-1.871c0.528-0.529,1.156-0.94,1.885-1.236
		c0.728-0.297,1.523-0.444,2.387-0.444c0.881,0,1.686,0.147,2.412,0.444c0.729,0.296,1.357,0.707,1.885,1.236
		c0.527,0.527,0.939,1.151,1.236,1.871C264.179,235.489,264.328,236.272,264.328,237.12z M262.599,237.12
		c0-0.623-0.1-1.207-0.299-1.752c-0.201-0.543-0.484-1.016-0.852-1.416c-0.369-0.398-0.812-0.715-1.332-0.947
		c-0.521-0.232-1.109-0.348-1.766-0.348c-0.655,0-1.243,0.115-1.764,0.348c-0.52,0.232-0.959,0.549-1.319,0.947
		c-0.36,0.4-0.64,0.873-0.84,1.416c-0.2,0.545-0.3,1.129-0.3,1.752c0,0.625,0.1,1.209,0.3,1.753s0.479,1.017,0.84,1.415
		c0.36,0.4,0.8,0.717,1.319,0.949c0.521,0.231,1.108,0.348,1.764,0.348c0.656,0,1.244-0.116,1.766-0.348
		c0.52-0.232,0.963-0.549,1.332-0.949c0.367-0.398,0.65-0.871,0.852-1.415C262.5,238.329,262.599,237.745,262.599,237.12z"/>
	<path fill="#FFFFFF" d="M273.16,234.169c-0.24-0.464-0.561-0.832-0.961-1.104c-0.398-0.272-0.887-0.408-1.463-0.408
		c-0.273,0-0.549,0.031-0.828,0.096c-0.281,0.064-0.533,0.164-0.756,0.3c-0.225,0.136-0.404,0.308-0.541,0.517
		c-0.135,0.207-0.203,0.464-0.203,0.768c0,0.527,0.184,0.912,0.553,1.152c0.367,0.24,0.918,0.447,1.654,0.623l1.609,0.385
		c0.783,0.176,1.436,0.531,1.955,1.068c0.52,0.535,0.781,1.203,0.781,2.004c0,0.607-0.125,1.132-0.373,1.571
		c-0.248,0.44-0.576,0.8-0.984,1.08s-0.875,0.484-1.404,0.612c-0.527,0.127-1.064,0.191-1.607,0.191
		c-0.863,0-1.668-0.164-2.412-0.492c-0.744-0.327-1.379-0.891-1.908-1.691l1.369-0.936c0.318,0.512,0.723,0.92,1.211,1.224
		s1.068,0.456,1.74,0.456c0.32,0,0.641-0.036,0.961-0.107c0.318-0.072,0.604-0.185,0.852-0.337c0.248-0.151,0.447-0.348,0.6-0.588
		c0.152-0.239,0.229-0.52,0.229-0.84c0-0.56-0.209-0.964-0.625-1.212s-0.92-0.444-1.512-0.588l-1.535-0.36
		c-0.193-0.048-0.453-0.128-0.781-0.239c-0.328-0.112-0.646-0.28-0.959-0.505c-0.312-0.224-0.58-0.516-0.805-0.876
		c-0.225-0.359-0.336-0.804-0.336-1.332c0-0.576,0.115-1.08,0.348-1.512s0.545-0.783,0.938-1.057
		c0.391-0.271,0.836-0.475,1.332-0.611c0.494-0.136,1.008-0.204,1.535-0.204c0.783,0,1.512,0.152,2.184,0.456
		c0.672,0.305,1.191,0.824,1.561,1.561L273.16,234.169z"/>
	<path fill="#FFFFFF" d="M279.736,227.185c0,0.336-0.119,0.612-0.359,0.828c-0.24,0.217-0.504,0.324-0.793,0.324
		c-0.287,0-0.551-0.107-0.791-0.324c-0.24-0.216-0.361-0.492-0.361-0.828s0.121-0.611,0.361-0.828
		c0.24-0.216,0.504-0.324,0.791-0.324c0.289,0,0.553,0.108,0.793,0.324C279.617,226.573,279.736,226.849,279.736,227.185z
		 M279.376,242.737h-1.584v-11.232h1.584V242.737z"/>
	<path fill="#FFFFFF" d="M289,232.944h-3.24v6.625c0,0.416,0.041,0.756,0.121,1.02s0.191,0.468,0.336,0.611
		c0.145,0.145,0.314,0.244,0.516,0.301c0.199,0.057,0.42,0.084,0.66,0.084c0.271,0,0.553-0.04,0.84-0.12s0.553-0.184,0.791-0.312
		l0.072,1.463c-0.592,0.272-1.303,0.408-2.135,0.408c-0.305,0-0.621-0.039-0.949-0.119s-0.627-0.232-0.898-0.457
		c-0.273-0.223-0.496-0.527-0.674-0.912c-0.176-0.383-0.264-0.887-0.264-1.512v-7.08H281.8v-1.439h2.375v-3.168h1.584v3.168H289
		V232.944z"/>
	<path fill="#FFFFFF" d="M293.462,227.185c0,0.336-0.119,0.612-0.359,0.828c-0.24,0.217-0.504,0.324-0.793,0.324
		c-0.287,0-0.551-0.107-0.791-0.324c-0.24-0.216-0.361-0.492-0.361-0.828s0.121-0.611,0.361-0.828
		c0.24-0.216,0.504-0.324,0.791-0.324c0.289,0,0.553,0.108,0.793,0.324C293.343,226.573,293.462,226.849,293.462,227.185z
		 M293.103,242.737h-1.584v-11.232h1.584V242.737z"/>
	<path fill="#FFFFFF" d="M301.863,242.737h-1.775l-4.561-11.232h1.871l3.6,9.456h0.049l3.576-9.456h1.801L301.863,242.737z"/>
	<path fill="#FFFFFF" d="M319.839,237.12c0,0.85-0.148,1.633-0.445,2.353c-0.295,0.72-0.707,1.345-1.234,1.872
		c-0.529,0.528-1.156,0.94-1.885,1.236c-0.729,0.295-1.533,0.443-2.412,0.443c-0.863,0-1.66-0.148-2.389-0.443
		c-0.729-0.296-1.355-0.708-1.883-1.236c-0.529-0.527-0.941-1.152-1.236-1.872c-0.297-0.72-0.443-1.503-0.443-2.353
		c0-0.848,0.146-1.631,0.443-2.352c0.295-0.72,0.707-1.344,1.236-1.871c0.527-0.529,1.154-0.94,1.883-1.236
		c0.729-0.297,1.525-0.444,2.389-0.444c0.879,0,1.684,0.147,2.412,0.444c0.729,0.296,1.355,0.707,1.885,1.236
		c0.527,0.527,0.939,1.151,1.234,1.871C319.691,235.489,319.839,236.272,319.839,237.12z M318.111,237.12
		c0-0.623-0.1-1.207-0.301-1.752c-0.199-0.543-0.482-1.016-0.852-1.416c-0.367-0.398-0.812-0.715-1.332-0.947
		s-1.107-0.348-1.764-0.348s-1.244,0.115-1.764,0.348s-0.961,0.549-1.32,0.947c-0.359,0.4-0.641,0.873-0.84,1.416
		c-0.201,0.545-0.301,1.129-0.301,1.752c0,0.625,0.1,1.209,0.301,1.753c0.199,0.544,0.48,1.017,0.84,1.415
		c0.359,0.4,0.801,0.717,1.32,0.949c0.52,0.231,1.107,0.348,1.764,0.348s1.244-0.116,1.764-0.348
		c0.52-0.232,0.965-0.549,1.332-0.949c0.369-0.398,0.652-0.871,0.852-1.415C318.011,238.329,318.111,237.745,318.111,237.12z"/>
	<path fill="#FFFFFF" d="M325.623,241.585c0,0.336-0.121,0.636-0.359,0.9c-0.24,0.264-0.553,0.396-0.938,0.396
		c-0.383,0-0.695-0.132-0.936-0.396c-0.24-0.265-0.359-0.564-0.359-0.9s0.119-0.637,0.359-0.9s0.553-0.396,0.936-0.396
		c0.385,0,0.697,0.133,0.938,0.396C325.501,240.948,325.623,241.249,325.623,241.585z"/>
</g>
</svg>
