<?xml version="1.0" encoding="utf-8"?>
<!-- Generator: Adobe Illustrator 16.0.0, SVG Export Plug-In . SVG Version: 6.00 Build 0)  -->
<!DOCTYPE svg PUBLIC "-//W3C//DTD SVG 1.1//EN" "http://www.w3.org/Graphics/SVG/1.1/DTD/svg11.dtd">
<svg version="1.1" id="Layer_1" xmlns="http://www.w3.org/2000/svg" xmlns:xlink="http://www.w3.org/1999/xlink" x="0px" y="0px"
	 width="60.012px" height="60px" viewBox="0 0 60.012 60" enable-background="new 0 0 60.012 60" xml:space="preserve">
<g>
	<g>
		<path fill="#FFFFFF" d="M19.874,41.379c-1.651,0-3.171-0.291-4.558-0.871c-1.387-0.581-2.575-1.381-3.564-2.401
			c-0.989-1.02-1.764-2.223-2.325-3.609C8.866,33.11,8.586,31.611,8.586,30s0.28-3.11,0.841-4.498
			c0.562-1.387,1.336-2.589,2.325-3.609c0.989-1.019,2.178-1.82,3.564-2.401c1.387-0.581,2.906-0.872,4.558-0.872
			c1.652,0,3.172,0.291,4.559,0.872c1.387,0.582,2.574,1.382,3.564,2.401c0.988,1.021,1.763,2.223,2.325,3.609
			c0.561,1.388,0.84,2.887,0.84,4.498s-0.279,3.11-0.84,4.497c-0.562,1.387-1.337,2.59-2.325,3.609
			c-0.99,1.021-2.178,1.82-3.564,2.401C23.046,41.088,21.526,41.379,19.874,41.379z M19.874,38.627c1.245,0,2.366-0.229,3.365-0.689
			c1-0.458,1.855-1.074,2.57-1.85c0.714-0.775,1.265-1.688,1.651-2.738c0.388-1.051,0.582-2.166,0.582-3.35s-0.194-2.299-0.582-3.35
			c-0.387-1.051-0.938-1.963-1.651-2.738c-0.715-0.775-1.57-1.393-2.57-1.852c-0.999-0.459-2.12-0.688-3.365-0.688
			c-1.244,0-2.365,0.229-3.364,0.688s-1.856,1.076-2.57,1.852s-1.265,1.688-1.652,2.738c-0.387,1.051-0.58,2.166-0.58,3.35
			s0.193,2.299,0.58,3.35c0.388,1.051,0.938,1.963,1.652,2.738s1.571,1.392,2.57,1.85C17.509,38.397,18.63,38.627,19.874,38.627z"/>
		<path fill="#FFFFFF" d="M33.855,19.17h2.936v9.361h0.245l9.575-9.361h4.1L40.247,29.174l11.168,11.654h-4.283L37.036,30h-0.245
			v10.828h-2.936V19.17z"/>
	</g>
	<path fill="#FFFFFF" d="M60,50.951c0,4.998-4.052,9.048-9.048,9.048H9.048C4.051,59.999,0,55.949,0,50.951V9.048
		C0,4.05,4.051,0,9.048,0h41.904C55.948,0,60,4.05,60,9.048V50.951z M57.143,9.048c0-3.419-2.771-6.191-6.19-6.191H9.048
		c-3.419,0-6.19,2.772-6.19,6.191v41.903c0,3.419,2.771,6.19,6.19,6.19h41.904c3.419,0,6.19-2.771,6.19-6.19V9.048z"/>
</g>
</svg>
