<?xml version="1.0" encoding="utf-8"?>
<!-- Generator: Adobe Illustrator 16.0.0, SVG Export Plug-In . SVG Version: 6.00 Build 0)  -->
<!DOCTYPE svg PUBLIC "-//W3C//DTD SVG 1.1//EN" "http://www.w3.org/Graphics/SVG/1.1/DTD/svg11.dtd">
<svg version="1.1" id="Layer_1" xmlns="http://www.w3.org/2000/svg" xmlns:xlink="http://www.w3.org/1999/xlink" x="0px" y="0px"
	 width="33.733px" height="28.142px" viewBox="0 0 33.733 28.142" enable-background="new 0 0 33.733 28.142" xml:space="preserve">
<g>
	<defs>
		<path id="SVGID_1_" d="M44.775-42.912c-0.096,0-0.189-0.045-0.247-0.129l-3.189-4.631l-3.189,4.631
			c-0.093,0.137-0.279,0.17-0.415,0.078c-0.137-0.092-0.224-0.404-0.131-0.539l3.437-4.991c0.111-0.161,0.555-0.161,0.666,0
			l3.437,4.991c0.094,0.135-0.062,0.447-0.198,0.539C44.892-42.928,44.833-42.912,44.775-42.912"/>
	</defs>
	<use xlink:href="#SVGID_1_"  overflow="visible" fill-rule="evenodd" clip-rule="evenodd" fill="#FFFFFF"/>
	<clipPath id="SVGID_2_">
		<use xlink:href="#SVGID_1_"  overflow="visible"/>
	</clipPath>
	<g clip-path="url(#SVGID_2_)">
		<defs>
			<rect id="SVGID_3_" x="-76.312" y="-191.153" width="235.395" height="235.396"/>
		</defs>
		<use xlink:href="#SVGID_3_"  overflow="visible" fill="#FFFFFF"/>
		<clipPath id="SVGID_4_">
			<use xlink:href="#SVGID_3_"  overflow="visible"/>
		</clipPath>
	</g>
</g>
<g>
	<defs>
		<path id="SVGID_5_" d="M41.368-36.445c-0.166,0-0.299-0.133-0.299-0.297v-11.272c0-0.163,0.133-0.296,0.299-0.296
			c0.165,0,0.299,0.133,0.299,0.296v11.272C41.667-36.578,41.533-36.445,41.368-36.445"/>
	</defs>
	<use xlink:href="#SVGID_5_"  overflow="visible" fill-rule="evenodd" clip-rule="evenodd" fill="#FFFFFF"/>
	<clipPath id="SVGID_6_">
		<use xlink:href="#SVGID_5_"  overflow="visible"/>
	</clipPath>
	<g clip-path="url(#SVGID_6_)">
		<defs>
			<rect id="SVGID_7_" x="-76.312" y="-191.153" width="235.395" height="235.396"/>
		</defs>
		<use xlink:href="#SVGID_7_"  overflow="visible" fill="#FFFFFF"/>
		<clipPath id="SVGID_8_">
			<use xlink:href="#SVGID_7_"  overflow="visible"/>
		</clipPath>
	</g>
</g>
<path fill-rule="evenodd" clip-rule="evenodd" fill="#FFFFFF" d="M47.555-39.693c-1.295,0-2.395-0.27-2.474-0.289
	c-0.197-0.049-0.316-0.248-0.267-0.443s0.249-0.312,0.446-0.264c0.031,0.008,3.098,0.754,4.793-0.293
	c0.549-0.34,0.884-0.82,1.023-1.471c0.322-1.502,0.033-2.674-0.858-3.486c-0.669-0.609-1.428-0.781-1.436-0.783
	c-0.188-0.041-0.312-0.221-0.284-0.41c0.002-0.014,0.203-1.426-0.334-2.959c-0.709-2.024-2.32-3.31-4.787-3.819
	c-2.018-0.416-3.625-0.021-4.78,1.176c-0.962,0.997-1.397,2.316-1.632,3.024c-0.163,0.494-0.237,0.72-0.51,0.768
	c-0.135,0.023-0.269-0.023-0.362-0.125c-0.245-0.161-1.62-0.487-2.832,0.104c-1.234,0.601-1.888,1.94-1.943,3.979
	c-0.037,1.365,0.367,2.418,1.199,3.131c1.934,1.656,5.582,1.043,5.618,1.037c0.201-0.035,0.391,0.098,0.426,0.297
	c0.035,0.197-0.098,0.387-0.297,0.422c-0.164,0.029-4.024,0.68-6.225-1.201c-1.009-0.863-1.5-2.109-1.456-3.705
	c0.087-3.235,1.593-4.402,2.84-4.812c0.785-0.257,1.525-0.236,2.008-0.175c0.142,0.019,0.492,0.072,0.791,0.184
	c0.016-0.042,0.029-0.087,0.043-0.129c0.252-0.764,0.723-2.186,1.8-3.302c1.343-1.391,3.18-1.857,5.462-1.386
	c3.425,0.708,4.795,2.741,5.341,4.322c0.437,1.262,0.427,2.423,0.39,2.963c0.347,0.121,0.926,0.379,1.457,0.863
	c1.367,1.244,1.342,2.957,1.08,4.174c-0.18,0.844-0.637,1.496-1.354,1.939C49.603-39.844,48.523-39.693,47.555-39.693"/>
<g>
	<defs>
		<path id="SVGID_9_" d="M21.714,18.197c-0.137,0-0.271-0.064-0.354-0.186l-4.567-6.696l-4.567,6.696
			c-0.133,0.197-0.4,0.245-0.595,0.112c-0.196-0.133-0.32-0.585-0.187-0.778l4.921-7.215c0.159-0.234,0.794-0.234,0.954,0
			l4.921,7.215c0.134,0.193-0.09,0.646-0.284,0.778C21.88,18.175,21.796,18.197,21.714,18.197"/>
	</defs>
	<use xlink:href="#SVGID_9_"  overflow="visible" fill-rule="evenodd" clip-rule="evenodd" fill="#FFFFFF"/>
	<clipPath id="SVGID_10_">
		<use xlink:href="#SVGID_9_"  overflow="visible"/>
	</clipPath>
	<g clip-path="url(#SVGID_10_)">
		<defs>
			<rect id="SVGID_11_" x="-151.696" y="-196.119" width="337.111" height="340.317"/>
		</defs>
		<use xlink:href="#SVGID_11_"  overflow="visible" fill="#FFFFFF"/>
		<clipPath id="SVGID_12_">
			<use xlink:href="#SVGID_11_"  overflow="visible"/>
		</clipPath>
	</g>
</g>
<g>
	<defs>
		<path id="SVGID_13_" d="M16.835,27.547c-0.238,0-0.428-0.191-0.428-0.43V10.822c0-0.237,0.19-0.43,0.428-0.43
			c0.236,0,0.428,0.192,0.428,0.43v16.295C17.263,27.355,17.071,27.547,16.835,27.547"/>
	</defs>
	<use xlink:href="#SVGID_13_"  overflow="visible" fill-rule="evenodd" clip-rule="evenodd" fill="#FFFFFF"/>
	<clipPath id="SVGID_14_">
		<use xlink:href="#SVGID_13_"  overflow="visible"/>
	</clipPath>
	<g clip-path="url(#SVGID_14_)">
		<defs>
			<rect id="SVGID_15_" x="-151.696" y="-196.119" width="337.111" height="340.317"/>
		</defs>
		<use xlink:href="#SVGID_15_"  overflow="visible" fill="#FFFFFF"/>
		<clipPath id="SVGID_16_">
			<use xlink:href="#SVGID_15_"  overflow="visible"/>
		</clipPath>
	</g>
</g>
<path fill-rule="evenodd" clip-rule="evenodd" fill="#FFFFFF" d="M25.694,22.852c-1.854,0-3.429-0.391-3.542-0.418
	c-0.282-0.07-0.453-0.359-0.382-0.642c0.072-0.282,0.356-0.451,0.639-0.381c0.044,0.012,4.436,1.089,6.864-0.424
	c0.786-0.491,1.266-1.187,1.465-2.127c0.461-2.17,0.047-3.864-1.229-5.039c-0.958-0.882-2.045-1.13-2.056-1.132
	c-0.27-0.061-0.447-0.32-0.407-0.594c0.003-0.02,0.291-2.061-0.479-4.277c-1.016-2.93-3.323-4.787-6.855-5.523
	c-2.89-0.602-5.191-0.029-6.846,1.7c-1.378,1.442-2.001,3.349-2.337,4.373c-0.233,0.715-0.34,1.039-0.73,1.11
	C9.607,9.512,9.416,9.444,9.281,9.298C8.93,9.063,6.961,8.591,5.225,9.447c-1.768,0.867-2.703,2.803-2.782,5.752
	c-0.053,1.973,0.525,3.495,1.718,4.525c2.77,2.395,7.993,1.509,8.045,1.499c0.288-0.051,0.559,0.143,0.609,0.43
	c0.05,0.286-0.14,0.56-0.425,0.61c-0.235,0.043-5.763,0.982-8.915-1.736c-1.445-1.248-2.147-3.049-2.085-5.357
	c0.125-4.676,2.281-6.364,4.067-6.957c1.124-0.369,2.184-0.342,2.876-0.251c0.203,0.025,0.705,0.104,1.132,0.266
	c0.022-0.062,0.042-0.127,0.062-0.187c0.361-1.104,1.035-3.16,2.578-4.775c1.923-2.011,4.554-2.685,7.822-2.001
	c4.904,1.021,6.867,3.961,7.649,6.249c0.625,1.823,0.611,3.501,0.558,4.282c0.496,0.176,1.325,0.548,2.086,1.249
	c1.958,1.799,1.921,4.274,1.546,6.034c-0.257,1.22-0.912,2.162-1.938,2.804C28.627,22.633,27.082,22.852,25.694,22.852"/>
</svg>
