<?xml version="1.0" encoding="utf-8"?>
<!-- Generator: Adobe Illustrator 16.0.0, SVG Export Plug-In . SVG Version: 6.00 Build 0)  -->
<!DOCTYPE svg PUBLIC "-//W3C//DTD SVG 1.1//EN" "http://www.w3.org/Graphics/SVG/1.1/DTD/svg11.dtd">
<svg version="1.1" id="Layer_1" xmlns="http://www.w3.org/2000/svg" xmlns:xlink="http://www.w3.org/1999/xlink" x="0px" y="0px"
	 width="74px" height="59px" viewBox="0 0 74 59" enable-background="new 0 0 74 59" xml:space="preserve">
<g>
	<defs>
		<rect id="SVGID_1_" x="-428" y="-716.803" width="1300" height="640.803"/>
	</defs>
	<clipPath id="SVGID_2_">
		<use xlink:href="#SVGID_1_"  overflow="visible"/>
	</clipPath>
	<path clip-path="url(#SVGID_2_)" d="M-356.764-606.073h2.438c1.407,0,2.645-0.186,3.714-0.561c1.07-0.373,1.97-0.878,2.702-1.515
		c0.733-0.637,1.286-1.373,1.66-2.208c0.373-0.835,0.56-1.714,0.56-2.637c0-1.011-0.154-1.963-0.462-2.856
		c-0.307-0.894-0.78-1.678-1.417-2.352c-0.637-0.674-1.45-1.208-2.439-1.603c-0.988-0.396-2.164-0.594-3.527-0.594
		c-1.157,0-2.237,0.176-3.241,0.527c-1.003,0.352-1.878,0.858-2.625,1.517c-0.747,0.659-1.333,1.462-1.758,2.405
		c-0.424,0.945-0.637,2.012-0.637,3.197h-1.187c0-1.361,0.253-2.588,0.758-3.679c0.506-1.092,1.187-2.018,2.044-2.78
		c0.856-0.761,1.856-1.347,2.999-1.757c1.143-0.411,2.358-0.616,3.647-0.616c1.377,0,2.623,0.201,3.736,0.604
		c1.113,0.403,2.061,0.978,2.846,1.724c0.783,0.748,1.387,1.657,1.812,2.725c0.425,1.07,0.638,2.278,0.638,3.626
		c0,0.85-0.14,1.659-0.418,2.429c-0.279,0.767-0.674,1.47-1.187,2.109c-0.512,0.637-1.138,1.201-1.879,1.691
		c-0.739,0.491-1.57,0.875-2.493,1.154c2.095,0.483,3.732,1.391,4.91,2.724c1.18,1.333,1.77,3.054,1.77,5.164
		c0,1.421-0.238,2.685-0.715,3.791c-0.476,1.105-1.139,2.039-1.988,2.8c-0.85,0.762-1.857,1.341-3.022,1.737
		c-1.164,0.395-2.434,0.593-3.811,0.593c-0.806,0-1.619-0.081-2.44-0.242c-0.82-0.161-1.611-0.41-2.373-0.747
		c-0.761-0.337-1.479-0.759-2.153-1.263c-0.674-0.505-1.26-1.103-1.758-1.791c-0.498-0.689-0.89-1.472-1.176-2.351
		c-0.285-0.879-0.427-1.861-0.427-2.944h1.186c0,1.186,0.231,2.278,0.692,3.274c0.461,0.996,1.102,1.855,1.922,2.582
		c0.821,0.725,1.787,1.289,2.901,1.691c1.113,0.403,2.322,0.604,3.626,0.604c1.333,0,2.515-0.176,3.548-0.527
		c1.033-0.352,1.904-0.857,2.615-1.516c0.71-0.659,1.252-1.461,1.626-2.406c0.373-0.946,0.56-2.01,0.56-3.198
		c0-1.302-0.231-2.416-0.692-3.339c-0.462-0.922-1.106-1.677-1.934-2.263c-0.828-0.586-1.812-1.015-2.955-1.286
		c-1.142-0.27-2.395-0.407-3.758-0.407h-2.438V-606.073z"/>
	<path clip-path="url(#SVGID_2_)" d="M-319.41-602.205c0,2.095-0.206,3.974-0.616,5.636c-0.41,1.663-1.018,3.077-1.824,4.241
		c-0.806,1.164-1.802,2.058-2.988,2.681c-1.187,0.621-2.556,0.934-4.109,0.934c-1.538,0-2.9-0.313-4.087-0.934
		c-1.186-0.623-2.19-1.517-3.01-2.681c-0.821-1.164-1.443-2.578-1.867-4.241c-0.425-1.662-0.638-3.541-0.638-5.636v-5.889
		c0-2.08,0.209-3.955,0.627-5.625c0.417-1.67,1.032-3.09,1.846-4.262c0.812-1.172,1.812-2.069,2.999-2.691
		c1.186-0.623,2.548-0.935,4.086-0.935c1.539,0,2.904,0.312,4.098,0.935c1.193,0.622,2.197,1.519,3.011,2.691
		c0.812,1.172,1.428,2.592,1.846,4.262c0.417,1.67,0.626,3.545,0.626,5.625V-602.205z M-320.597-608.094
		c0-1.83-0.173-3.504-0.517-5.02c-0.344-1.517-0.864-2.816-1.559-3.9c-0.696-1.084-1.569-1.924-2.615-2.516
		c-1.048-0.593-2.282-0.89-3.703-0.89c-1.406,0-2.636,0.297-3.691,0.89c-1.055,0.592-1.927,1.432-2.615,2.516
		c-0.689,1.084-1.205,2.383-1.549,3.9c-0.345,1.516-0.517,3.19-0.517,5.02v5.846c0,1.8,0.172,3.457,0.517,4.965
		c0.344,1.509,0.868,2.812,1.571,3.912c0.703,1.097,1.582,1.951,2.637,2.558c1.055,0.61,2.285,0.912,3.691,0.912
		c1.421,0,2.655-0.302,3.703-0.912c1.046-0.607,1.915-1.461,2.603-2.558c0.689-1.1,1.201-2.403,1.538-3.912
		c0.337-1.508,0.506-3.165,0.506-4.965V-608.094z"/>
	<path clip-path="url(#SVGID_2_)" d="M-302.447-620.354c0-0.338,0.117-0.627,0.351-0.869c0.235-0.24,0.52-0.361,0.857-0.361
		c0.337,0,0.626,0.121,0.868,0.361c0.241,0.242,0.362,0.531,0.362,0.869c0,0.336-0.121,0.622-0.362,0.857
		c-0.242,0.234-0.531,0.351-0.868,0.351c-0.337,0-0.622-0.117-0.857-0.351C-302.33-619.732-302.447-620.018-302.447-620.354
		 M-300.646-589.153h-1.187v-23.775h1.187V-589.153z"/>
	<path clip-path="url(#SVGID_2_)" d="M-284.781-589.901c0.923,0,1.827-0.124,2.713-0.373c0.887-0.249,1.682-0.633,2.385-1.154
		c0.703-0.52,1.281-1.186,1.735-1.998c0.454-0.815,0.718-1.791,0.791-2.934h1.187c-0.059,1.215-0.333,2.295-0.825,3.24
		c-0.49,0.946-1.134,1.744-1.933,2.395c-0.798,0.652-1.717,1.15-2.757,1.494c-1.04,0.345-2.139,0.517-3.296,0.517
		c-1.538,0-2.912-0.292-4.12-0.878c-1.209-0.586-2.227-1.403-3.055-2.452c-0.827-1.046-1.457-2.294-1.889-3.746
		c-0.432-1.449-0.648-3.047-0.648-4.789v-0.924c0-1.742,0.216-3.339,0.648-4.789c0.432-1.451,1.062-2.699,1.889-3.746
		c0.828-1.048,1.839-1.865,3.032-2.451c1.195-0.586,2.561-0.879,4.099-0.879c1.143,0,2.237,0.176,3.284,0.528
		c1.048,0.351,1.975,0.876,2.781,1.572c0.805,0.695,1.457,1.558,1.955,2.592c0.498,1.033,0.776,2.23,0.835,3.592h-1.187
		c-0.059-1.186-0.308-2.222-0.747-3.108c-0.44-0.887-1.007-1.627-1.703-2.221c-0.695-0.592-1.494-1.035-2.395-1.328
		c-0.901-0.293-1.842-0.439-2.823-0.439c-1.45,0-2.71,0.277-3.779,0.834c-1.07,0.556-1.952,1.318-2.649,2.285
		c-0.695,0.967-1.212,2.099-1.549,3.394c-0.336,1.297-0.504,2.686-0.504,4.164v0.924c0,1.494,0.168,2.889,0.504,4.186
		c0.337,1.297,0.858,2.424,1.561,3.383c0.703,0.961,1.589,1.718,2.658,2.275C-287.513-590.178-286.246-589.901-284.781-589.901"/>
	<path clip-path="url(#SVGID_2_)" d="M-271.818-601.502c0-1.742,0.253-3.34,0.758-4.789c0.506-1.451,1.216-2.699,2.132-3.746
		c0.915-1.048,2.01-1.865,3.284-2.451c1.275-0.586,2.681-0.879,4.219-0.879c1.553,0,2.97,0.293,4.252,0.879
		c1.281,0.586,2.377,1.403,3.285,2.451c0.908,1.047,1.615,2.295,2.12,3.746c0.506,1.449,0.758,3.047,0.758,4.789v0.924
		c0,1.742-0.249,3.34-0.747,4.789c-0.498,1.451-1.205,2.699-2.12,3.746c-0.916,1.049-2.011,1.865-3.285,2.451
		c-1.275,0.586-2.681,0.879-4.219,0.879c-1.553,0-2.97-0.293-4.251-0.879c-1.282-0.586-2.381-1.402-3.296-2.451
		c-0.916-1.047-1.626-2.295-2.132-3.746c-0.505-1.449-0.758-3.047-0.758-4.789V-601.502z M-270.631-600.579
		c0,1.42,0.209,2.775,0.626,4.064c0.418,1.29,1.021,2.424,1.812,3.407c0.791,0.98,1.758,1.761,2.901,2.34
		c1.142,0.578,2.446,0.867,3.911,0.867c1.45,0,2.743-0.289,3.879-0.867c1.135-0.579,2.094-1.36,2.878-2.34
		c0.783-0.983,1.385-2.117,1.802-3.407c0.418-1.289,0.626-2.644,0.626-4.064v-0.924c0-1.39-0.208-2.727-0.626-4.01
		c-0.417-1.281-1.022-2.416-1.813-3.406c-0.791-0.988-1.758-1.779-2.9-2.373c-1.143-0.592-2.44-0.889-3.89-0.889
		c-1.45,0-2.746,0.297-3.889,0.889c-1.142,0.594-2.106,1.385-2.889,2.373c-0.784,0.99-1.384,2.125-1.802,3.406
		c-0.417,1.283-0.626,2.62-0.626,4.01V-600.579z"/>
	<path clip-path="url(#SVGID_2_)" d="M-242.715-609.742c0.549-0.732,1.183-1.366,1.9-1.901c0.718-0.534,1.513-0.955,2.384-1.263
		c0.872-0.308,1.806-0.462,2.802-0.462c1.201,0,2.27,0.166,3.208,0.494c0.937,0.33,1.728,0.851,2.373,1.561
		c0.645,0.711,1.136,1.623,1.473,2.736c0.337,1.113,0.505,2.461,0.505,4.043v15.381h-1.187v-15.381c0-1.51-0.157-2.758-0.473-3.746
		c-0.314-0.99-0.757-1.774-1.329-2.352c-0.571-0.578-1.252-0.985-2.043-1.219c-0.791-0.235-1.655-0.352-2.592-0.352
		c-0.865,0-1.656,0.12-2.374,0.362c-0.717,0.243-1.366,0.569-1.945,0.979c-0.578,0.41-1.095,0.879-1.549,1.406
		c-0.454,0.527-0.845,1.084-1.175,1.67s-0.604,1.172-0.824,1.758c-0.219,0.586-0.388,1.135-0.506,1.647v15.228h-1.186v-23.776h1.186
		v5.538C-243.715-608.225-243.265-609.01-242.715-609.742"/>
	<path clip-path="url(#SVGID_2_)" d="M-205.966-594.976c0-0.542-0.103-1.091-0.308-1.647c-0.205-0.557-0.578-1.096-1.12-1.616
		c-0.542-0.519-1.282-1.004-2.219-1.451c-0.938-0.445-2.139-0.83-3.604-1.152c-1.333-0.28-2.501-0.594-3.504-0.946
		c-1.004-0.351-1.843-0.779-2.516-1.285c-0.674-0.506-1.179-1.104-1.516-1.802c-0.337-0.696-0.506-1.527-0.506-2.494
		c0-0.835,0.184-1.614,0.55-2.34c0.366-0.725,0.889-1.358,1.571-1.901c0.681-0.541,1.512-0.97,2.493-1.285
		c0.982-0.314,2.095-0.473,3.34-0.473c1.333,0,2.524,0.166,3.571,0.495c1.047,0.33,1.937,0.791,2.669,1.384
		c0.733,0.594,1.293,1.308,1.682,2.143c0.388,0.835,0.582,1.758,0.582,2.768h-1.209c0-0.732-0.161-1.435-0.483-2.109
		c-0.323-0.674-0.791-1.27-1.407-1.79c-0.615-0.52-1.377-0.935-2.285-1.242c-0.908-0.308-1.948-0.461-3.12-0.461
		c-1.201,0-2.229,0.142-3.087,0.428c-0.856,0.285-1.556,0.66-2.098,1.121s-0.942,0.974-1.198,1.537
		c-0.257,0.564-0.384,1.125-0.384,1.681c0,0.616,0.084,1.184,0.252,1.704c0.168,0.519,0.513,1.004,1.034,1.449
		c0.519,0.447,1.252,0.869,2.197,1.263c0.944,0.397,2.185,0.77,3.724,1.122c1.42,0.322,2.64,0.688,3.659,1.098
		c1.017,0.41,1.856,0.89,2.515,1.439c0.66,0.55,1.143,1.183,1.451,1.901c0.307,0.718,0.461,1.546,0.461,2.483
		c0,0.922-0.195,1.765-0.583,2.527c-0.388,0.762-0.944,1.417-1.669,1.966c-0.725,0.55-1.604,0.978-2.637,1.286
		c-1.032,0.307-2.187,0.462-3.461,0.462c-1.436,0-2.706-0.173-3.812-0.518c-1.106-0.344-2.037-0.812-2.791-1.406
		c-0.755-0.592-1.326-1.281-1.713-2.065c-0.389-0.783-0.583-1.615-0.583-2.494h1.187c0.073,1.026,0.354,1.879,0.846,2.561
		c0.49,0.68,1.098,1.222,1.824,1.625c0.725,0.403,1.53,0.689,2.417,0.857c0.886,0.168,1.761,0.252,2.625,0.252
		c1.172,0,2.205-0.146,3.099-0.439c0.893-0.293,1.64-0.681,2.241-1.164c0.6-0.484,1.054-1.03,1.362-1.637
		S-205.966-594.361-205.966-594.976"/>
	<path clip-path="url(#SVGID_2_)" d="M-188.563-601.282c0-1.875,0.201-3.56,0.604-5.055c0.402-1.494,0.988-2.76,1.758-3.8
		c0.768-1.04,1.71-1.838,2.823-2.395c1.113-0.557,2.373-0.836,3.779-0.836c0.982,0,1.883,0.117,2.704,0.352
		c0.82,0.234,1.563,0.56,2.229,0.978c0.667,0.418,1.26,0.922,1.78,1.516c0.52,0.594,0.971,1.249,1.352,1.967v-14.348h1.186v33.75
		h-1.186v-3.802c-0.366,0.615-0.81,1.179-1.33,1.693c-0.52,0.511-1.12,0.959-1.802,1.339c-0.681,0.381-1.436,0.678-2.263,0.891
		c-0.828,0.211-1.732,0.318-2.714,0.318c-1.406,0-2.662-0.29-3.768-0.869c-1.106-0.578-2.039-1.398-2.801-2.461
		c-0.762-1.06-1.345-2.336-1.747-3.822c-0.403-1.486-0.604-3.139-0.604-4.955V-601.282z M-187.333-600.821
		c0,1.582,0.157,3.039,0.473,4.373c0.314,1.332,0.787,2.486,1.417,3.461c0.63,0.974,1.424,1.731,2.383,2.273
		c0.96,0.542,2.092,0.813,3.396,0.813c1.084,0,2.065-0.127,2.944-0.385c0.879-0.256,1.656-0.615,2.329-1.076
		c0.674-0.461,1.246-1.007,1.714-1.637c0.469-0.63,0.85-1.31,1.143-2.043v-11.14c-0.235-0.689-0.55-1.388-0.945-2.098
		c-0.396-0.711-0.913-1.355-1.549-1.934c-0.638-0.579-1.414-1.051-2.329-1.418c-0.916-0.366-2.003-0.548-3.263-0.548
		c-1.304,0-2.44,0.27-3.406,0.812c-0.967,0.542-1.769,1.297-2.407,2.264c-0.636,0.967-1.113,2.116-1.427,3.449
		c-0.316,1.333-0.473,2.791-0.473,4.373V-600.821z"/>
	<path clip-path="url(#SVGID_2_)" d="M-154.287-588.713c-1.45,0-2.804-0.293-4.064-0.879c-1.26-0.586-2.362-1.402-3.307-2.451
		c-0.945-1.047-1.688-2.291-2.23-3.735c-0.542-1.443-0.814-3.029-0.814-4.757v-0.967c0-1.729,0.264-3.321,0.791-4.78
		c0.528-1.457,1.243-2.709,2.143-3.755c0.901-1.048,1.956-1.866,3.164-2.452c1.209-0.586,2.501-0.878,3.878-0.878
		c1.318,0,2.53,0.246,3.637,0.736c1.105,0.491,2.057,1.183,2.856,2.076c0.798,0.895,1.421,1.963,1.868,3.209
		c0.447,1.244,0.67,2.621,0.67,4.131v1.384h-17.82v0.329v0.967c0,1.48,0.234,2.867,0.703,4.164c0.469,1.296,1.117,2.424,1.945,3.384
		c0.828,0.959,1.805,1.717,2.933,2.274c1.128,0.556,2.344,0.835,3.647,0.835c0.674,0,1.331-0.052,1.967-0.154
		c0.638-0.103,1.249-0.279,1.835-0.527c0.586-0.25,1.15-0.582,1.692-1s1.062-0.949,1.56-1.594l0.835,0.594
		c-0.395,0.571-0.849,1.092-1.362,1.561c-0.513,0.468-1.096,0.871-1.747,1.208c-0.653,0.337-1.373,0.6-2.164,0.791
		C-152.461-588.809-153.333-588.713-154.287-588.713 M-154.726-612.18c-1.201,0-2.304,0.234-3.307,0.703
		c-1.004,0.469-1.885,1.117-2.647,1.943c-0.762,0.829-1.381,1.799-1.857,2.913c-0.476,1.113-0.78,2.314-0.912,3.603h16.568v-0.285
		c0-1.188-0.187-2.318-0.561-3.395c-0.373-1.078-0.9-2.021-1.582-2.836c-0.681-0.812-1.505-1.457-2.472-1.933
		C-152.461-611.942-153.539-612.18-154.726-612.18"/>
	<path clip-path="url(#SVGID_2_)" d="M-125.502-594.976c0-0.542-0.103-1.091-0.308-1.647c-0.205-0.557-0.578-1.096-1.12-1.616
		c-0.542-0.519-1.282-1.004-2.219-1.451c-0.938-0.445-2.139-0.83-3.604-1.152c-1.333-0.28-2.501-0.594-3.504-0.946
		c-1.004-0.351-1.843-0.779-2.516-1.285c-0.674-0.506-1.179-1.104-1.516-1.802c-0.337-0.696-0.506-1.527-0.506-2.494
		c0-0.835,0.184-1.614,0.55-2.34c0.366-0.725,0.889-1.358,1.571-1.901c0.681-0.541,1.512-0.97,2.493-1.285
		c0.982-0.314,2.095-0.473,3.34-0.473c1.333,0,2.524,0.166,3.571,0.495c1.047,0.33,1.937,0.791,2.669,1.384
		c0.733,0.594,1.293,1.308,1.682,2.143c0.388,0.835,0.582,1.758,0.582,2.768h-1.209c0-0.732-0.161-1.435-0.483-2.109
		c-0.323-0.674-0.791-1.27-1.407-1.79c-0.615-0.52-1.377-0.935-2.285-1.242c-0.908-0.308-1.948-0.461-3.12-0.461
		c-1.201,0-2.229,0.142-3.087,0.428c-0.856,0.285-1.556,0.66-2.098,1.121s-0.942,0.974-1.198,1.537
		c-0.257,0.564-0.384,1.125-0.384,1.681c0,0.616,0.084,1.184,0.252,1.704c0.168,0.519,0.513,1.004,1.034,1.449
		c0.519,0.447,1.252,0.869,2.197,1.263c0.944,0.397,2.185,0.77,3.724,1.122c1.42,0.322,2.64,0.688,3.659,1.098
		c1.017,0.41,1.856,0.89,2.515,1.439c0.66,0.55,1.143,1.183,1.451,1.901c0.307,0.718,0.461,1.546,0.461,2.483
		c0,0.922-0.195,1.765-0.583,2.527c-0.388,0.762-0.944,1.417-1.669,1.966c-0.725,0.55-1.604,0.978-2.637,1.286
		c-1.032,0.307-2.187,0.462-3.461,0.462c-1.436,0-2.706-0.173-3.812-0.518c-1.106-0.344-2.037-0.812-2.791-1.406
		c-0.755-0.592-1.326-1.281-1.713-2.065c-0.389-0.783-0.583-1.615-0.583-2.494h1.187c0.073,1.026,0.354,1.879,0.846,2.561
		c0.49,0.68,1.098,1.222,1.824,1.625c0.725,0.403,1.53,0.689,2.417,0.857c0.886,0.168,1.761,0.252,2.625,0.252
		c1.172,0,2.205-0.146,3.099-0.439c0.893-0.293,1.64-0.681,2.241-1.164c0.6-0.484,1.054-1.03,1.362-1.637
		C-125.655-593.748-125.502-594.361-125.502-594.976"/>
	<polygon clip-path="url(#SVGID_2_)" points="-113.087,-602.007 -113.131,-601.963 -116.581,-598.996 -116.581,-589.153 
		-117.768,-589.153 -117.768,-622.903 -116.581,-622.903 -116.581,-600.293 -113.79,-602.93 -102.98,-612.928 -101.288,-612.928 
		-112.208,-602.798 -100.607,-589.153 -102.145,-589.153 	"/>
	<path clip-path="url(#SVGID_2_)" d="M-93.817-619.344v6.416h5.405v1.209h-5.405v16.875c0,1.04,0.096,1.883,0.286,2.527
		c0.191,0.646,0.45,1.147,0.78,1.504c0.33,0.36,0.71,0.602,1.143,0.727c0.432,0.124,0.89,0.185,1.373,0.185
		c0.454,0,0.856-0.017,1.208-0.054c0.352-0.036,0.732-0.084,1.143-0.143l0.198,1.121c-0.161,0.059-0.352,0.102-0.571,0.131
		c-0.22,0.029-0.448,0.055-0.682,0.078c-0.234,0.022-0.461,0.035-0.681,0.043c-0.219,0.008-0.403,0.012-0.55,0.012
		c-0.761,0-1.442-0.096-2.043-0.286c-0.6-0.191-1.109-0.521-1.527-0.99c-0.417-0.468-0.736-1.097-0.956-1.888
		c-0.22-0.791-0.329-1.78-0.329-2.967v-16.875h-4.395v-1.209h4.395v-6.416H-93.817z"/>
	<path clip-path="url(#SVGID_2_)" d="M-84.479-601.502c0-1.742,0.253-3.34,0.758-4.789c0.506-1.451,1.216-2.699,2.132-3.746
		c0.915-1.048,2.01-1.865,3.284-2.451c1.275-0.586,2.681-0.879,4.219-0.879c1.553,0,2.97,0.293,4.252,0.879
		c1.281,0.586,2.377,1.403,3.285,2.451c0.908,1.047,1.615,2.295,2.12,3.746c0.506,1.449,0.758,3.047,0.758,4.789v0.924
		c0,1.742-0.249,3.34-0.747,4.789c-0.498,1.451-1.205,2.699-2.12,3.746c-0.916,1.049-2.011,1.865-3.285,2.451
		c-1.275,0.586-2.681,0.879-4.219,0.879c-1.553,0-2.97-0.293-4.251-0.879c-1.282-0.586-2.381-1.402-3.296-2.451
		c-0.916-1.047-1.626-2.295-2.132-3.746c-0.505-1.449-0.758-3.047-0.758-4.789V-601.502z M-83.292-600.579
		c0,1.42,0.209,2.775,0.626,4.064c0.418,1.29,1.021,2.424,1.812,3.407c0.791,0.98,1.758,1.761,2.901,2.34
		c1.142,0.578,2.446,0.867,3.911,0.867c1.45,0,2.743-0.289,3.879-0.867c1.135-0.579,2.094-1.36,2.878-2.34
		c0.783-0.983,1.385-2.117,1.802-3.407c0.418-1.289,0.626-2.644,0.626-4.064v-0.924c0-1.39-0.208-2.727-0.626-4.01
		c-0.417-1.281-1.022-2.416-1.813-3.406c-0.791-0.988-1.758-1.779-2.9-2.373c-1.143-0.592-2.44-0.889-3.89-0.889
		c-1.45,0-2.746,0.297-3.889,0.889c-1.142,0.594-2.106,1.385-2.889,2.373c-0.784,0.99-1.384,2.125-1.802,3.406
		c-0.417,1.283-0.626,2.62-0.626,4.01V-600.579z"/>
	<path clip-path="url(#SVGID_2_)" d="M-39.742-600.821c0,1.816-0.202,3.469-0.605,4.955s-0.985,2.762-1.747,3.822
		c-0.761,1.063-1.695,1.883-2.801,2.461c-1.106,0.579-2.362,0.869-3.768,0.869c-0.967,0-1.864-0.103-2.692-0.308
		c-0.827-0.205-1.578-0.49-2.252-0.857c-0.674-0.366-1.279-0.801-1.813-1.307c-0.535-0.506-0.985-1.059-1.351-1.658v12.832h-1.187
		v-32.916h1.187v4.241c0.381-0.703,0.835-1.341,1.362-1.911c0.527-0.573,1.128-1.063,1.802-1.473c0.674-0.41,1.417-0.729,2.23-0.955
		c0.813-0.229,1.703-0.342,2.67-0.342c1.406,0,2.666,0.279,3.779,0.836c1.114,0.557,2.054,1.354,2.824,2.395
		c0.768,1.04,1.354,2.306,1.757,3.8c0.403,1.494,0.605,3.18,0.605,5.055V-600.821z M-40.951-601.282c0-1.582-0.157-3.04-0.473-4.373
		c-0.314-1.333-0.791-2.482-1.427-3.449c-0.638-0.967-1.444-1.722-2.417-2.264c-0.975-0.542-2.114-0.812-3.417-0.812
		c-1.26,0-2.348,0.182-3.263,0.548c-0.916,0.367-1.692,0.839-2.329,1.418c-0.638,0.578-1.157,1.223-1.561,1.934
		c-0.402,0.71-0.714,1.409-0.933,2.098v11.118c0.278,0.747,0.655,1.435,1.132,2.065c0.475,0.63,1.05,1.176,1.724,1.637
		c0.674,0.461,1.45,0.82,2.329,1.076c0.879,0.258,1.861,0.385,2.945,0.385c1.289,0,2.417-0.271,3.383-0.813
		c0.967-0.542,1.769-1.299,2.407-2.273c0.636-0.975,1.113-2.129,1.427-3.461c0.316-1.334,0.473-2.791,0.473-4.373V-601.282z"/>
	<path clip-path="url(#SVGID_2_)" d="M-18.627-594.976c0-0.542-0.103-1.091-0.308-1.647c-0.205-0.557-0.578-1.096-1.12-1.616
		c-0.542-0.519-1.282-1.004-2.219-1.451c-0.938-0.445-2.139-0.83-3.604-1.152c-1.333-0.28-2.501-0.594-3.504-0.946
		c-1.004-0.351-1.843-0.779-2.516-1.285c-0.674-0.506-1.179-1.104-1.516-1.802c-0.337-0.696-0.506-1.527-0.506-2.494
		c0-0.835,0.184-1.614,0.55-2.34c0.366-0.725,0.889-1.358,1.571-1.901c0.681-0.541,1.512-0.97,2.493-1.285
		c0.982-0.314,2.095-0.473,3.34-0.473c1.333,0,2.524,0.166,3.571,0.495c1.047,0.33,1.937,0.791,2.669,1.384
		c0.733,0.594,1.293,1.308,1.682,2.143c0.388,0.835,0.582,1.758,0.582,2.768h-1.209c0-0.732-0.161-1.435-0.483-2.109
		c-0.323-0.674-0.791-1.27-1.407-1.79c-0.615-0.52-1.377-0.935-2.285-1.242c-0.908-0.308-1.948-0.461-3.12-0.461
		c-1.201,0-2.229,0.142-3.087,0.428c-0.856,0.285-1.556,0.66-2.098,1.121s-0.942,0.974-1.198,1.537
		c-0.257,0.564-0.384,1.125-0.384,1.681c0,0.616,0.084,1.184,0.252,1.704c0.168,0.519,0.513,1.004,1.034,1.449
		c0.519,0.447,1.252,0.869,2.197,1.263c0.944,0.397,2.185,0.77,3.724,1.122c1.42,0.322,2.64,0.688,3.659,1.098
		c1.017,0.41,1.856,0.89,2.515,1.439c0.66,0.55,1.143,1.183,1.451,1.901c0.307,0.718,0.461,1.546,0.461,2.483
		c0,0.922-0.195,1.765-0.583,2.527c-0.388,0.762-0.944,1.417-1.669,1.966c-0.725,0.55-1.604,0.978-2.637,1.286
		c-1.032,0.307-2.187,0.462-3.461,0.462c-1.436,0-2.706-0.173-3.812-0.518c-1.106-0.344-2.037-0.812-2.791-1.406
		c-0.755-0.592-1.326-1.281-1.713-2.065c-0.389-0.783-0.583-1.615-0.583-2.494h1.187c0.073,1.026,0.354,1.879,0.846,2.561
		c0.49,0.68,1.098,1.222,1.824,1.625c0.725,0.403,1.53,0.689,2.417,0.857c0.886,0.168,1.761,0.252,2.625,0.252
		c1.172,0,2.205-0.146,3.099-0.439c0.893-0.293,1.64-0.681,2.241-1.164c0.6-0.484,1.054-1.03,1.362-1.637
		C-18.78-593.748-18.627-594.361-18.627-594.976"/>
	<path clip-path="url(#SVGID_2_)" d="M15.233-589.152c-0.161-0.557-0.276-1.227-0.341-2.012c-0.066-0.783-0.099-1.563-0.099-2.34
		c-0.395,0.645-0.886,1.257-1.472,1.836c-0.586,0.578-1.267,1.087-2.043,1.526c-0.777,0.44-1.649,0.788-2.616,1.044
		c-0.966,0.256-2.042,0.385-3.229,0.385c-1.113,0-2.121-0.158-3.021-0.473c-0.902-0.314-1.67-0.757-2.308-1.33
		c-0.637-0.57-1.128-1.252-1.472-2.043c-0.345-0.791-0.516-1.662-0.516-2.615c0-1.055,0.249-2.028,0.747-2.922
		c0.498-0.893,1.219-1.658,2.164-2.297c0.945-0.636,2.098-1.134,3.461-1.494c1.362-0.357,2.9-0.537,4.614-0.537h5.691v-3.473
		c0-1.992-0.627-3.537-1.879-4.635c-1.252-1.099-3.043-1.648-5.372-1.648c-1.084,0-2.088,0.147-3.01,0.44
		c-0.923,0.293-1.725,0.699-2.407,1.218c-0.68,0.521-1.215,1.136-1.603,1.846c-0.389,0.711-0.582,1.477-0.582,2.297l-1.187-0.045
		c0-0.922,0.216-1.805,0.648-2.646c0.432-0.843,1.04-1.582,1.824-2.221c0.783-0.637,1.714-1.143,2.79-1.516
		c1.077-0.373,2.253-0.56,3.527-0.56c1.231,0,2.362,0.158,3.395,0.472c1.032,0.316,1.923,0.785,2.67,1.407
		c0.747,0.623,1.329,1.406,1.746,2.351c0.418,0.946,0.627,2.039,0.627,3.285v11.909c0,0.425,0.015,0.861,0.044,1.308
		c0.029,0.446,0.069,0.871,0.12,1.274c0.052,0.403,0.114,0.78,0.187,1.131c0.074,0.352,0.162,0.645,0.264,0.879v0.199H15.233z
		 M5.434-589.878c1.143,0,2.2-0.132,3.175-0.396c0.973-0.263,1.852-0.644,2.637-1.142c0.783-0.498,1.471-1.095,2.065-1.791
		c0.593-0.695,1.088-1.483,1.483-2.361v-5.648H9.168c-1.538,0-2.915,0.15-4.131,0.45c-1.215,0.301-2.249,0.722-3.098,1.264
		c-0.85,0.542-1.501,1.19-1.955,1.945c-0.454,0.754-0.682,1.578-0.682,2.471c0,0.719,0.151,1.393,0.45,2.021
		c0.301,0.631,0.722,1.184,1.264,1.661c0.542,0.475,1.187,0.849,1.934,1.119C3.698-590.015,4.525-589.878,5.434-589.878"/>
	<path clip-path="url(#SVGID_2_)" d="M26.165-609.742c0.549-0.732,1.183-1.366,1.9-1.901c0.718-0.534,1.512-0.955,2.384-1.263
		c0.871-0.308,1.806-0.462,2.802-0.462c1.201,0,2.27,0.166,3.208,0.494c0.937,0.33,1.728,0.851,2.373,1.561
		c0.645,0.711,1.135,1.623,1.472,2.736c0.337,1.113,0.506,2.461,0.506,4.043v15.381h-1.187v-15.381c0-1.51-0.158-2.758-0.473-3.746
		c-0.315-0.99-0.757-1.774-1.329-2.352c-0.571-0.578-1.253-0.985-2.044-1.219c-0.791-0.235-1.655-0.352-2.592-0.352
		c-0.865,0-1.656,0.12-2.374,0.362c-0.717,0.243-1.366,0.569-1.944,0.979c-0.579,0.41-1.095,0.879-1.549,1.406
		s-0.845,1.084-1.175,1.67s-0.605,1.172-0.825,1.758c-0.219,0.586-0.387,1.135-0.505,1.647v15.228h-1.186v-23.776h1.186v5.538
		C25.165-608.225,25.615-609.01,26.165-609.742"/>
	<path clip-path="url(#SVGID_2_)" d="M47.16-601.282c0-1.875,0.201-3.56,0.604-5.055c0.402-1.494,0.988-2.76,1.758-3.8
		c0.768-1.04,1.71-1.838,2.823-2.395c1.113-0.557,2.373-0.836,3.779-0.836c0.982,0,1.883,0.117,2.704,0.352
		c0.82,0.234,1.563,0.56,2.229,0.978c0.667,0.418,1.26,0.922,1.78,1.516c0.52,0.594,0.971,1.249,1.352,1.967v-14.348h1.186v33.75
		h-1.186v-3.802c-0.366,0.615-0.81,1.179-1.33,1.693c-0.52,0.511-1.12,0.959-1.802,1.339c-0.681,0.381-1.436,0.678-2.263,0.891
		c-0.828,0.211-1.732,0.318-2.714,0.318c-1.406,0-2.662-0.29-3.768-0.869c-1.106-0.578-2.039-1.398-2.801-2.461
		c-0.762-1.06-1.345-2.336-1.747-3.822c-0.403-1.486-0.604-3.139-0.604-4.955V-601.282z M48.39-600.821
		c0,1.582,0.157,3.039,0.473,4.373c0.314,1.332,0.787,2.486,1.417,3.461c0.63,0.974,1.424,1.731,2.383,2.273
		c0.96,0.542,2.092,0.813,3.396,0.813c1.084,0,2.065-0.127,2.944-0.385c0.879-0.256,1.656-0.615,2.329-1.076
		c0.674-0.461,1.246-1.007,1.714-1.637c0.469-0.63,0.85-1.31,1.143-2.043v-11.14c-0.235-0.689-0.55-1.388-0.945-2.098
		c-0.396-0.711-0.913-1.355-1.549-1.934c-0.638-0.579-1.414-1.051-2.329-1.418c-0.916-0.366-2.003-0.548-3.263-0.548
		c-1.304,0-2.44,0.27-3.406,0.812c-0.967,0.542-1.769,1.297-2.407,2.264c-0.636,0.967-1.113,2.116-1.427,3.449
		c-0.316,1.333-0.473,2.791-0.473,4.373V-600.821z"/>
	<path clip-path="url(#SVGID_2_)" d="M82.535-601.282c0-1.875,0.201-3.56,0.605-5.055c0.402-1.494,0.989-2.76,1.757-3.8
		c0.77-1.04,1.71-1.838,2.824-2.395c1.113-0.557,2.373-0.836,3.779-0.836c0.967,0,1.86,0.117,2.681,0.352
		c0.82,0.234,1.563,0.56,2.23,0.978c0.666,0.418,1.26,0.919,1.78,1.505s0.97,1.237,1.351,1.956v-4.351h1.209v23.445
		c0,1.523-0.205,2.896-0.615,4.119c-0.411,1.224-1.004,2.264-1.781,3.121c-0.776,0.858-1.717,1.516-2.823,1.977
		c-1.106,0.463-2.362,0.693-3.768,0.693c-0.865,0-1.677-0.1-2.439-0.297c-0.762-0.197-1.465-0.473-2.109-0.824
		c-0.645-0.352-1.239-0.774-1.781-1.264c-0.542-0.49-1.025-1.029-1.45-1.615l0.835-0.791c0.923,1.172,1.934,2.069,3.032,2.691
		c1.099,0.623,2.388,0.935,3.868,0.935c1.289,0,2.42-0.205,3.395-0.615c0.974-0.41,1.79-0.996,2.449-1.758
		c0.659-0.762,1.155-1.681,1.484-2.757c0.33-1.078,0.494-2.282,0.494-3.615v-3.428c-0.366,0.601-0.81,1.157-1.329,1.67
		c-0.521,0.513-1.117,0.955-1.791,1.33c-0.674,0.373-1.425,0.666-2.252,0.879c-0.828,0.211-1.733,0.318-2.714,0.318
		c-1.406,0-2.662-0.29-3.768-0.869c-1.106-0.578-2.04-1.398-2.801-2.461c-0.762-1.06-1.345-2.336-1.747-3.822
		c-0.404-1.486-0.605-3.139-0.605-4.955V-601.282z M83.744-600.821c0,1.582,0.157,3.039,0.473,4.373
		c0.314,1.332,0.791,2.486,1.427,3.461c0.638,0.974,1.436,1.731,2.396,2.273c0.959,0.542,2.091,0.813,3.394,0.813
		c1.114,0,2.11-0.135,2.989-0.406c0.879-0.271,1.655-0.645,2.329-1.121c0.674-0.475,1.241-1.036,1.703-1.68
		c0.461-0.645,0.823-1.348,1.087-2.109v-10.79c-0.22-0.703-0.52-1.42-0.901-2.153c-0.38-0.732-0.886-1.395-1.516-1.989
		c-0.63-0.592-1.406-1.08-2.329-1.461c-0.923-0.381-2.029-0.57-3.318-0.57c-1.303,0-2.443,0.27-3.417,0.812
		s-1.779,1.297-2.417,2.264c-0.636,0.967-1.113,2.116-1.427,3.449c-0.316,1.333-0.473,2.791-0.473,4.373V-600.821z"/>
	<path clip-path="url(#SVGID_2_)" d="M123.69-589.152c-0.161-0.557-0.276-1.227-0.341-2.012c-0.066-0.783-0.099-1.563-0.099-2.34
		c-0.395,0.645-0.886,1.257-1.472,1.836c-0.586,0.578-1.267,1.087-2.043,1.526c-0.777,0.44-1.649,0.788-2.616,1.044
		c-0.966,0.256-2.042,0.385-3.229,0.385c-1.113,0-2.121-0.158-3.021-0.473c-0.902-0.314-1.67-0.757-2.308-1.33
		c-0.637-0.57-1.128-1.252-1.472-2.043c-0.345-0.791-0.516-1.662-0.516-2.615c0-1.055,0.249-2.028,0.747-2.922
		c0.498-0.893,1.219-1.658,2.164-2.297c0.945-0.636,2.098-1.134,3.461-1.494c1.362-0.357,2.9-0.537,4.614-0.537h5.691v-3.473
		c0-1.992-0.627-3.537-1.879-4.635c-1.252-1.099-3.043-1.648-5.372-1.648c-1.084,0-2.088,0.147-3.01,0.44
		c-0.923,0.293-1.725,0.699-2.407,1.218c-0.68,0.521-1.215,1.136-1.603,1.846c-0.389,0.711-0.582,1.477-0.582,2.297l-1.187-0.045
		c0-0.922,0.216-1.805,0.648-2.646c0.432-0.843,1.04-1.582,1.824-2.221c0.783-0.637,1.714-1.143,2.79-1.516
		c1.077-0.373,2.253-0.56,3.527-0.56c1.231,0,2.362,0.158,3.395,0.472c1.032,0.316,1.923,0.785,2.67,1.407
		c0.747,0.623,1.329,1.406,1.746,2.351c0.418,0.946,0.627,2.039,0.627,3.285v11.909c0,0.425,0.015,0.861,0.044,1.308
		c0.029,0.446,0.069,0.871,0.12,1.274c0.052,0.403,0.114,0.78,0.187,1.131c0.074,0.352,0.162,0.645,0.264,0.879v0.199H123.69z
		 M113.891-589.878c1.143,0,2.2-0.132,3.175-0.396c0.973-0.263,1.852-0.644,2.637-1.142c0.783-0.498,1.471-1.095,2.065-1.791
		c0.593-0.695,1.088-1.483,1.483-2.361v-5.648h-5.625c-1.538,0-2.915,0.15-4.131,0.45c-1.215,0.301-2.249,0.722-3.098,1.264
		c-0.85,0.542-1.501,1.19-1.955,1.945c-0.454,0.754-0.682,1.578-0.682,2.471c0,0.719,0.151,1.393,0.45,2.021
		c0.301,0.631,0.722,1.184,1.264,1.661c0.542,0.475,1.187,0.849,1.934,1.119C112.155-590.015,112.982-589.878,113.891-589.878"/>
	<path clip-path="url(#SVGID_2_)" d="M130.986-601.282c0-1.875,0.201-3.56,0.604-5.055c0.402-1.494,0.988-2.76,1.758-3.8
		c0.768-1.04,1.71-1.838,2.823-2.395c1.113-0.557,2.373-0.836,3.779-0.836c0.982,0,1.882,0.117,2.703,0.352
		c0.82,0.234,1.563,0.56,2.23,0.978c0.666,0.418,1.26,0.922,1.78,1.516c0.52,0.594,0.97,1.249,1.351,1.967v-14.348h1.186v33.75
		h-1.186v-3.802c-0.366,0.615-0.81,1.179-1.329,1.693c-0.521,0.511-1.12,0.959-1.802,1.339c-0.681,0.381-1.436,0.678-2.263,0.891
		c-0.828,0.211-1.732,0.318-2.714,0.318c-1.406,0-2.663-0.29-3.768-0.869c-1.107-0.578-2.04-1.398-2.802-2.461
		c-0.762-1.06-1.344-2.336-1.746-3.822c-0.403-1.486-0.604-3.139-0.604-4.955V-601.282z M132.216-600.821
		c0,1.582,0.157,3.039,0.473,4.373c0.314,1.332,0.787,2.486,1.417,3.461c0.63,0.974,1.423,1.731,2.383,2.273
		c0.959,0.542,2.091,0.813,3.395,0.813c1.084,0,2.065-0.127,2.944-0.385c0.879-0.256,1.656-0.615,2.329-1.076
		c0.674-0.461,1.246-1.007,1.714-1.637c0.469-0.63,0.85-1.31,1.143-2.043v-11.14c-0.235-0.689-0.549-1.388-0.944-2.098
		c-0.396-0.711-0.913-1.355-1.549-1.934c-0.638-0.579-1.414-1.051-2.329-1.418c-0.916-0.366-2.004-0.548-3.264-0.548
		c-1.304,0-2.439,0.27-3.405,0.812c-0.967,0.542-1.769,1.297-2.407,2.264c-0.636,0.967-1.113,2.116-1.427,3.449
		c-0.316,1.333-0.473,2.791-0.473,4.373V-600.821z"/>
	<path clip-path="url(#SVGID_2_)" d="M155.595-601.282c0-1.875,0.201-3.56,0.604-5.055c0.403-1.494,0.989-2.76,1.757-3.8
		c0.77-1.04,1.711-1.838,2.825-2.395c1.113-0.557,2.373-0.836,3.779-0.836c0.967,0,1.86,0.117,2.681,0.352
		c0.82,0.234,1.563,0.56,2.229,0.978c0.667,0.418,1.26,0.919,1.78,1.505s0.971,1.237,1.352,1.956v-4.351h1.208v23.445
		c0,1.523-0.205,2.896-0.615,4.119c-0.411,1.224-1.003,2.264-1.78,3.121c-0.776,0.858-1.717,1.516-2.824,1.977
		c-1.105,0.463-2.361,0.693-3.767,0.693c-0.865,0-1.678-0.1-2.44-0.297c-0.762-0.197-1.465-0.473-2.109-0.824
		c-0.645-0.352-1.238-0.774-1.78-1.264c-0.542-0.49-1.025-1.029-1.45-1.615l0.835-0.791c0.923,1.172,1.934,2.069,3.032,2.691
		c1.099,0.623,2.388,0.935,3.868,0.935c1.289,0,2.419-0.205,3.394-0.615c0.974-0.41,1.791-0.996,2.45-1.758
		c0.659-0.762,1.154-1.681,1.483-2.757c0.33-1.078,0.495-2.282,0.495-3.615v-3.428c-0.366,0.601-0.81,1.157-1.33,1.67
		s-1.116,0.955-1.79,1.33c-0.674,0.373-1.425,0.666-2.253,0.879c-0.827,0.211-1.732,0.318-2.713,0.318
		c-1.406,0-2.663-0.29-3.769-0.869c-1.106-0.578-2.04-1.398-2.801-2.461c-0.762-1.06-1.344-2.336-1.747-3.822
		s-0.604-3.139-0.604-4.955V-601.282z M156.803-600.821c0,1.582,0.157,3.039,0.473,4.373c0.314,1.332,0.791,2.486,1.427,3.461
		c0.638,0.974,1.436,1.731,2.396,2.273c0.959,0.542,2.091,0.813,3.394,0.813c1.114,0,2.11-0.135,2.989-0.406
		c0.879-0.271,1.655-0.645,2.329-1.121c0.674-0.475,1.241-1.036,1.703-1.68c0.461-0.645,0.824-1.348,1.088-2.109v-10.79
		c-0.22-0.703-0.521-1.42-0.902-2.153c-0.38-0.732-0.885-1.395-1.515-1.989c-0.63-0.592-1.406-1.08-2.329-1.461
		c-0.923-0.381-2.03-0.57-3.319-0.57c-1.303,0-2.442,0.27-3.417,0.812c-0.973,0.542-1.779,1.297-2.417,2.264
		c-0.636,0.967-1.113,2.116-1.427,3.449c-0.316,1.333-0.473,2.791-0.473,4.373V-600.821z"/>
	<path clip-path="url(#SVGID_2_)" d="M189.937-588.713c-1.45,0-2.804-0.293-4.064-0.879c-1.26-0.586-2.362-1.402-3.307-2.451
		c-0.945-1.047-1.688-2.291-2.23-3.735c-0.542-1.443-0.814-3.029-0.814-4.757v-0.967c0-1.729,0.264-3.321,0.791-4.78
		c0.528-1.457,1.243-2.709,2.143-3.755c0.901-1.048,1.956-1.866,3.164-2.452c1.209-0.586,2.501-0.878,3.878-0.878
		c1.318,0,2.53,0.246,3.637,0.736c1.105,0.491,2.057,1.183,2.856,2.076c0.798,0.895,1.421,1.963,1.868,3.209
		c0.447,1.244,0.67,2.621,0.67,4.131v1.384h-17.82v0.329v0.967c0,1.48,0.234,2.867,0.703,4.164c0.469,1.296,1.117,2.424,1.945,3.384
		c0.828,0.959,1.805,1.717,2.933,2.274c1.128,0.556,2.344,0.835,3.647,0.835c0.674,0,1.331-0.052,1.967-0.154
		c0.638-0.103,1.249-0.279,1.835-0.527c0.586-0.25,1.15-0.582,1.692-1s1.062-0.949,1.56-1.594l0.835,0.594
		c-0.395,0.571-0.849,1.092-1.362,1.561c-0.513,0.468-1.096,0.871-1.747,1.208c-0.653,0.337-1.373,0.6-2.164,0.791
		C191.762-588.809,190.89-588.713,189.937-588.713 M189.498-612.18c-1.201,0-2.304,0.234-3.307,0.703
		c-1.004,0.469-1.885,1.117-2.647,1.943c-0.762,0.829-1.381,1.799-1.857,2.913c-0.476,1.113-0.78,2.314-0.912,3.603h16.568v-0.285
		c0-1.188-0.187-2.318-0.561-3.395c-0.373-1.078-0.9-2.021-1.582-2.836c-0.681-0.812-1.505-1.457-2.472-1.933
		C191.762-611.942,190.685-612.18,189.498-612.18"/>
	<path clip-path="url(#SVGID_2_)" d="M206.725-619.344v6.416h5.406v1.209h-5.406v16.875c0,1.04,0.096,1.883,0.286,2.527
		c0.191,0.646,0.45,1.147,0.78,1.504c0.33,0.36,0.71,0.602,1.143,0.727c0.432,0.124,0.89,0.185,1.373,0.185
		c0.454,0,0.857-0.017,1.209-0.054c0.352-0.036,0.731-0.084,1.143-0.143l0.197,1.121c-0.161,0.059-0.352,0.102-0.571,0.131
		c-0.22,0.029-0.448,0.055-0.681,0.078c-0.235,0.022-0.462,0.035-0.682,0.043c-0.219,0.008-0.403,0.012-0.549,0.012
		c-0.762,0-1.443-0.096-2.044-0.286c-0.6-0.191-1.109-0.521-1.527-0.99c-0.417-0.468-0.735-1.097-0.956-1.888
		c-0.219-0.791-0.329-1.78-0.329-2.967v-16.875h-4.395v-1.209h4.395v-6.416H206.725z"/>
	<path clip-path="url(#SVGID_2_)" d="M232.961-594.976c0-0.542-0.104-1.091-0.309-1.647c-0.205-0.557-0.578-1.096-1.12-1.616
		c-0.542-0.519-1.282-1.004-2.22-1.451c-0.938-0.445-2.139-0.83-3.604-1.152c-1.333-0.28-2.501-0.594-3.504-0.946
		c-1.004-0.351-1.843-0.779-2.515-1.285c-0.675-0.506-1.18-1.104-1.517-1.802c-0.337-0.696-0.505-1.527-0.505-2.494
		c0-0.835,0.183-1.614,0.549-2.34c0.366-0.725,0.89-1.358,1.571-1.901c0.681-0.541,1.512-0.97,2.493-1.285
		c0.981-0.314,2.095-0.473,3.34-0.473c1.333,0,2.523,0.166,3.57,0.495c1.048,0.33,1.938,0.791,2.67,1.384
		c0.732,0.594,1.293,1.308,1.682,2.143c0.388,0.835,0.582,1.758,0.582,2.768h-1.209c0-0.732-0.161-1.435-0.482-2.109
		c-0.324-0.674-0.791-1.27-1.406-1.79s-1.379-0.935-2.285-1.242c-0.909-0.308-1.949-0.461-3.121-0.461
		c-1.201,0-2.229,0.142-3.087,0.428c-0.856,0.285-1.556,0.66-2.098,1.121s-0.941,0.974-1.198,1.537
		c-0.256,0.564-0.384,1.125-0.384,1.681c0,0.616,0.085,1.184,0.253,1.704c0.168,0.519,0.512,1.004,1.033,1.449
		c0.519,0.447,1.252,0.869,2.197,1.263c0.944,0.397,2.186,0.77,3.724,1.122c1.421,0.322,2.641,0.688,3.659,1.098
		c1.017,0.41,1.856,0.89,2.515,1.439c0.66,0.55,1.144,1.183,1.451,1.901c0.308,0.718,0.461,1.546,0.461,2.483
		c0,0.922-0.193,1.765-0.582,2.527c-0.388,0.762-0.944,1.417-1.67,1.966c-0.725,0.55-1.604,0.978-2.637,1.286
		c-1.032,0.307-2.186,0.462-3.461,0.462c-1.436,0-2.706-0.173-3.812-0.518c-1.106-0.344-2.036-0.812-2.791-1.406
		c-0.754-0.592-1.325-1.281-1.713-2.065c-0.388-0.783-0.582-1.615-0.582-2.494h1.186c0.073,1.026,0.355,1.879,0.846,2.561
		c0.491,0.68,1.098,1.222,1.824,1.625c0.725,0.403,1.53,0.689,2.417,0.857c0.886,0.168,1.761,0.252,2.625,0.252
		c1.172,0,2.205-0.146,3.099-0.439s1.641-0.681,2.241-1.164c0.6-0.484,1.054-1.03,1.362-1.637
		C232.807-593.748,232.961-594.361,232.961-594.976"/>
	<path clip-path="url(#SVGID_2_)" d="M-318-234.303c0,5.246-4.253,9.5-9.5,9.5h-9c-5.247,0-9.5-4.254-9.5-9.5v-25
		c0-5.247,4.253-9.5,9.5-9.5h9c5.247,0,9.5,4.253,9.5,9.5V-234.303z M-321-259.303c0-3.591-2.91-6.5-6.5-6.5h-9
		c-3.59,0-6.5,2.909-6.5,6.5v25c0,3.59,2.91,6.5,6.5,6.5h9c3.59,0,6.5-2.91,6.5-6.5V-259.303z"/>
	<path clip-path="url(#SVGID_2_)" d="M-327.479-216.803h-10.726c-7.709,0-13.795-6.553-13.795-14.309v-12.691
		c0-0.828,0.672-1.5,1.5-1.5c0.829,0,1.5,0.672,1.5,1.5v12.691c0,6.024,4.818,11.309,10.795,11.309h10.726
		c5.991,0,11.479-5.18,11.479-11.309v-12.691c0-0.828,0.672-1.5,1.5-1.5c0.829,0,1.5,0.672,1.5,1.5v12.691
		C-313-223.355-319.862-216.803-327.479-216.803"/>
	<path clip-path="url(#SVGID_2_)" d="M-331.5-206.303c-0.828,0-1.5-0.673-1.5-1.5v-10c0-0.828,0.672-1.5,1.5-1.5s1.5,0.672,1.5,1.5
		v10C-330-206.976-330.672-206.303-331.5-206.303"/>
	<path clip-path="url(#SVGID_2_)" d="M-327.427-205.803h-10c-0.828,0-1.5-0.673-1.5-1.5c0-0.828,0.672-1.5,1.5-1.5h10
		c0.828,0,1.5,0.672,1.5,1.5C-325.927-206.476-326.599-205.803-327.427-205.803"/>
	<path clip-path="url(#SVGID_2_)" d="M-190-235.303c0,5.246-4.253,9.5-9.5,9.5h-8c-5.247,0-9.5-4.254-9.5-9.5v-24
		c0-5.247,4.253-9.5,9.5-9.5h8c5.247,0,9.5,4.253,9.5,9.5V-235.303z M-193-259.303c0-3.591-2.91-6.5-6.5-6.5h-8
		c-3.59,0-6.5,2.909-6.5,6.5v24c0,3.59,2.91,6.5,6.5,6.5h8c3.59,0,6.5-2.91,6.5-6.5V-259.303z"/>
	<path clip-path="url(#SVGID_2_)" d="M-198.884-217.803h-10.666c-7.781,0-13.45-5.825-13.45-13.263v-12.737
		c0-0.828,0.672-1.5,1.5-1.5c0.828,0,1.5,0.672,1.5,1.5v12.737c0,5.852,4.249,10.263,10.45,10.263h10.666
		c6.317,0,11.884-4.604,11.884-10.263v-12.737c0-0.828,0.672-1.5,1.5-1.5c0.828,0,1.5,0.672,1.5,1.5v12.737
		C-184-223.752-190.912-217.803-198.884-217.803"/>
	<path clip-path="url(#SVGID_2_)" d="M-203.5-207.303c-0.828,0-1.5-0.673-1.5-1.5v-9c0-0.828,0.672-1.5,1.5-1.5s1.5,0.672,1.5,1.5v9
		C-202-207.976-202.672-207.303-203.5-207.303"/>
	<path clip-path="url(#SVGID_2_)" d="M-198.427-205.803h-10c-0.828,0-1.5-0.673-1.5-1.5c0-0.828,0.672-1.5,1.5-1.5h10
		c0.828,0,1.5,0.672,1.5,1.5C-196.927-206.476-197.599-205.803-198.427-205.803"/>
	<path clip-path="url(#SVGID_2_)" d="M-190-235.803h-27v-23h27V-235.803z M-214-238.803h21v-17h-21V-238.803z"/>
	<path clip-path="url(#SVGID_2_)" d="M-192.427-250.803h-6c-0.828,0-1.5-0.673-1.5-1.5c0-0.828,0.672-1.5,1.5-1.5h6
		c0.828,0,1.5,0.672,1.5,1.5C-190.927-251.476-191.599-250.803-192.427-250.803"/>
	<path clip-path="url(#SVGID_2_)" d="M-192.427-244.803h-8c-0.828,0-1.5-0.673-1.5-1.5c0-0.828,0.672-1.5,1.5-1.5h8
		c0.828,0,1.5,0.672,1.5,1.5C-190.927-245.476-191.599-244.803-192.427-244.803"/>
	<path clip-path="url(#SVGID_2_)" d="M-192.427-239.803h-6c-0.828,0-1.5-0.673-1.5-1.5c0-0.828,0.672-1.5,1.5-1.5h6
		c0.828,0,1.5,0.672,1.5,1.5C-190.927-240.476-191.599-239.803-192.427-239.803"/>
	<path clip-path="url(#SVGID_2_)" d="M-209.427-250.803h-6c-0.828,0-1.5-0.673-1.5-1.5c0-0.828,0.672-1.5,1.5-1.5h6
		c0.828,0,1.5,0.672,1.5,1.5C-207.927-251.476-208.599-250.803-209.427-250.803"/>
	<path clip-path="url(#SVGID_2_)" d="M-211.427-244.803h-4c-0.828,0-1.5-0.673-1.5-1.5c0-0.828,0.672-1.5,1.5-1.5h4
		c0.828,0,1.5,0.672,1.5,1.5C-209.927-245.476-210.599-244.803-211.427-244.803"/>
	<path clip-path="url(#SVGID_2_)" d="M-209.427-239.803h-6c-0.828,0-1.5-0.673-1.5-1.5c0-0.828,0.672-1.5,1.5-1.5h6
		c0.828,0,1.5,0.672,1.5,1.5C-207.927-240.476-208.599-239.803-209.427-239.803"/>
	<path clip-path="url(#SVGID_2_)" d="M-63-235.303c0,5.246-4.253,9.5-9.5,9.5h-8c-5.247,0-9.5-4.254-9.5-9.5v-24
		c0-5.247,4.253-9.5,9.5-9.5h8c5.247,0,9.5,4.253,9.5,9.5V-235.303z M-66-259.303c0-3.591-2.91-6.5-6.5-6.5h-8
		c-3.59,0-6.5,2.909-6.5,6.5v24c0,3.59,2.91,6.5,6.5,6.5h8c3.59,0,6.5-2.91,6.5-6.5V-259.303z"/>
	<path clip-path="url(#SVGID_2_)" d="M-71.743-217.803h-10.666c-7.86,0-13.591-5.825-13.591-13.263v-12.737
		c0-0.828,0.672-1.5,1.5-1.5c0.828,0,1.5,0.672,1.5,1.5v12.737c0,5.754,4.413,10.263,10.591,10.263h10.666
		c6.346,0,11.743-4.509,11.743-10.263v-12.737c0-0.828,0.672-1.5,1.5-1.5c0.828,0,1.5,0.672,1.5,1.5v12.737
		C-57-223.628-63.715-217.803-71.743-217.803"/>
	<path clip-path="url(#SVGID_2_)" d="M-76.5-207.303c-0.828,0-1.5-0.673-1.5-1.5v-9c0-0.828,0.672-1.5,1.5-1.5s1.5,0.672,1.5,1.5v9
		C-75-207.976-75.672-207.303-76.5-207.303"/>
	<path clip-path="url(#SVGID_2_)" d="M-71.427-205.803h-11c-0.828,0-1.5-0.673-1.5-1.5c0-0.828,0.672-1.5,1.5-1.5h11
		c0.828,0,1.5,0.672,1.5,1.5C-69.927-206.476-70.599-205.803-71.427-205.803"/>
	<path clip-path="url(#SVGID_2_)" d="M-63-235.803h-27v-23h27V-235.803z M-87-238.803h21v-17h-21V-238.803z"/>
	<path clip-path="url(#SVGID_2_)" d="M-68.048-250.673c0,0.872-0.707,1.579-1.579,1.579s-1.579-0.707-1.579-1.579
		c0-0.871,0.707-1.578,1.579-1.578S-68.048-251.544-68.048-250.673"/>
	<path clip-path="url(#SVGID_2_)" d="M-74.364-250.673c0,0.872-0.707,1.579-1.579,1.579c-0.872,0-1.579-0.707-1.579-1.579
		c0-0.871,0.707-1.578,1.579-1.578C-75.071-252.251-74.364-251.544-74.364-250.673"/>
	<path clip-path="url(#SVGID_2_)" d="M-80.68-250.673c0,0.872-0.707,1.579-1.579,1.579s-1.579-0.707-1.579-1.579
		c0-0.871,0.707-1.578,1.579-1.578S-80.68-251.544-80.68-250.673"/>
	<path clip-path="url(#SVGID_2_)" d="M-68.048-240.146c0,0.872-0.707,1.579-1.579,1.579s-1.579-0.707-1.579-1.579
		s0.707-1.578,1.579-1.578S-68.048-241.019-68.048-240.146"/>
	<path clip-path="url(#SVGID_2_)" d="M-74.364-240.146c0,0.872-0.707,1.579-1.579,1.579c-0.872,0-1.579-0.707-1.579-1.579
		s0.707-1.578,1.579-1.578C-75.071-241.725-74.364-241.019-74.364-240.146"/>
	<path clip-path="url(#SVGID_2_)" d="M-80.68-240.146c0,0.872-0.707,1.579-1.579,1.579s-1.579-0.707-1.579-1.579
		s0.707-1.578,1.579-1.578S-80.68-241.019-80.68-240.146"/>
	<path clip-path="url(#SVGID_2_)" d="M-64.891-245.409c0,0.872-0.707,1.579-1.579,1.579c-0.872,0-1.579-0.707-1.579-1.579
		s0.707-1.579,1.579-1.579C-65.598-246.988-64.891-246.281-64.891-245.409"/>
	<path clip-path="url(#SVGID_2_)" d="M-83.838-245.409c0,0.872-0.707,1.579-1.579,1.579s-1.579-0.707-1.579-1.579
		s0.707-1.579,1.579-1.579S-83.838-246.281-83.838-245.409"/>
	<path clip-path="url(#SVGID_2_)" d="M-71.206-245.409c0,0.872-0.707,1.579-1.579,1.579s-1.579-0.707-1.579-1.579
		s0.707-1.579,1.579-1.579S-71.206-246.281-71.206-245.409"/>
	<path clip-path="url(#SVGID_2_)" d="M-77.522-245.409c0,0.872-0.707,1.579-1.579,1.579s-1.579-0.707-1.579-1.579
		s0.707-1.579,1.579-1.579S-77.522-246.281-77.522-245.409"/>
	<path clip-path="url(#SVGID_2_)" d="M51.075-221.803h-0.004c-8.546,0-15.071-6.952-15.071-15.498v-16.005
		c0-8.546,6.952-15.497,15.498-15.497c8.55,0,15.502,6.951,15.502,15.497v16.005C67-228.755,59.621-221.803,51.075-221.803
		 M51.502-265.803c-6.896,0-12.502,5.605-12.502,12.497v16.005c0,6.892,5.18,12.498,12.071,12.498h0.004
		c6.892,0,12.925-5.606,12.925-12.498v-16.005C64-260.197,58.394-265.803,51.502-265.803"/>
	<path clip-path="url(#SVGID_2_)" d="M51.772-213.803c-12.212,0-21.772-9.229-21.772-21.013v-8.987c0-0.828,0.671-1.5,1.5-1.5
		c0.828,0,1.5,0.672,1.5,1.5v8.987c0,10.27,8.067,18.013,18.765,18.013c10.569,0,18.235-7.575,18.235-18.013v-8.987
		c0-0.828,0.671-1.5,1.5-1.5c0.828,0,1.5,0.672,1.5,1.5v8.987C73-222.836,63.875-213.803,51.772-213.803"/>
	<path clip-path="url(#SVGID_2_)" d="M52.5-207.303c-0.828,0-1.5-0.673-1.5-1.5v-5c0-0.828,0.672-1.5,1.5-1.5s1.5,0.672,1.5,1.5v5
		C54-207.976,53.328-207.303,52.5-207.303"/>
	<path clip-path="url(#SVGID_2_)" d="M57.573-205.803h-12c-0.828,0-1.5-0.673-1.5-1.5c0-0.828,0.672-1.5,1.5-1.5h12
		c0.828,0,1.5,0.672,1.5,1.5C59.073-206.476,58.401-205.803,57.573-205.803"/>
	<path clip-path="url(#SVGID_2_)" d="M64.573-249.803h-27c-0.828,0-1.5-0.673-1.5-1.5c0-0.828,0.672-1.5,1.5-1.5h27
		c0.828,0,1.5,0.672,1.5,1.5C66.073-250.476,65.401-249.803,64.573-249.803"/>
	<path clip-path="url(#SVGID_2_)" d="M64.573-244.803h-27c-0.828,0-1.5-0.673-1.5-1.5c0-0.828,0.672-1.5,1.5-1.5h27
		c0.828,0,1.5,0.672,1.5,1.5C66.073-245.476,65.401-244.803,64.573-244.803"/>
	<path clip-path="url(#SVGID_2_)" d="M64.573-239.803h-27c-0.828,0-1.5-0.673-1.5-1.5c0-0.828,0.672-1.5,1.5-1.5h27
		c0.828,0,1.5,0.672,1.5,1.5C66.073-240.476,65.401-239.803,64.573-239.803"/>
	<path clip-path="url(#SVGID_2_)" d="M210.5-220.303c-0.828,0-1.5-0.673-1.5-1.5v-11.083c0-16.216-12.127-28.917-27.608-28.917
		c-15.937,0-29.392,13.241-29.392,28.917v11.083c0,0.827-0.672,1.5-1.5,1.5s-1.5-0.673-1.5-1.5v-11.083
		c0-17.302,14.829-31.917,32.382-31.917c17.174,0,30.618,14.02,30.618,31.917v11.083C212-220.976,211.328-220.303,210.5-220.303"/>
	<path clip-path="url(#SVGID_2_)" d="M208-216.303c0,1.933-1.567,3.5-3.5,3.5h-5c-1.933,0-3.5-1.567-3.5-3.5v-18
		c0-1.934,1.567-3.5,3.5-3.5h5c1.933,0,3.5,1.566,3.5,3.5V-216.303z M205-234.303c0-0.276-0.224-0.5-0.5-0.5h-5
		c-0.276,0-0.5,0.224-0.5,0.5v18c0,0.275,0.224,0.5,0.5,0.5h5c0.276,0,0.5-0.225,0.5-0.5V-234.303z"/>
	<path clip-path="url(#SVGID_2_)" d="M166-216.303c0,1.933-1.567,3.5-3.5,3.5h-5c-1.933,0-3.5-1.567-3.5-3.5v-18
		c0-1.934,1.567-3.5,3.5-3.5h5c1.933,0,3.5,1.566,3.5,3.5V-216.303z M163-234.303c0-0.276-0.224-0.5-0.5-0.5h-5
		c-0.276,0-0.5,0.224-0.5,0.5v18c0,0.275,0.224,0.5,0.5,0.5h5c0.276,0,0.5-0.225,0.5-0.5V-234.303z"/>
	<path clip-path="url(#SVGID_2_)" d="M319-213.303c0,3.037-2.462,5.5-5.5,5.5h-20c-3.038,0-5.5-2.463-5.5-5.5v-36
		c0-3.038,2.462-5.5,5.5-5.5h20c3.038,0,5.5,2.462,5.5,5.5V-213.303z M316-249.303c0-1.382-1.119-2.5-2.5-2.5h-20
		c-1.381,0-2.5,1.118-2.5,2.5v36c0,1.381,1.119,2.5,2.5,2.5h20c1.381,0,2.5-1.119,2.5-2.5V-249.303z"/>
	<path clip-path="url(#SVGID_2_)" d="M314-255.303c0,1.933-1.567,3.5-3.5,3.5h-12c-1.933,0-3.5-1.567-3.5-3.5v-12
		c0-1.934,1.567-3.5,3.5-3.5h12c1.933,0,3.5,1.566,3.5,3.5V-255.303z M311-267.303c0-0.276-0.224-0.5-0.5-0.5h-12
		c-0.276,0-0.5,0.224-0.5,0.5v12c0,0.275,0.224,0.5,0.5,0.5h12c0.276,0,0.5-0.225,0.5-0.5V-267.303z"/>
	<path clip-path="url(#SVGID_2_)" d="M306.5-256.303c-0.828,0-1.5-0.673-1.5-1.5v-6c0-0.828,0.672-1.5,1.5-1.5s1.5,0.672,1.5,1.5v6
		C308-256.976,307.328-256.303,306.5-256.303"/>
	<path clip-path="url(#SVGID_2_)" d="M301.5-256.303c-0.828,0-1.5-0.673-1.5-1.5v-6c0-0.828,0.672-1.5,1.5-1.5s1.5,0.672,1.5,1.5v6
		C303-256.976,302.328-256.303,301.5-256.303"/>
	<path clip-path="url(#SVGID_2_)" d="M464-220.303c0,5.246-4.253,9.5-9.5,9.5h-44c-5.247,0-9.5-4.254-9.5-9.5v-36
		c0-5.247,4.253-9.5,9.5-9.5h44c5.247,0,9.5,4.253,9.5,9.5V-220.303z M461-256.303c0-3.591-2.91-6.5-6.5-6.5h-44
		c-3.59,0-6.5,2.909-6.5,6.5v36c0,3.59,2.91,6.5,6.5,6.5h44c3.59,0,6.5-2.91,6.5-6.5V-256.303z"/>
	<path clip-path="url(#SVGID_2_)" d="M459-228.303c0,5.246-4.253,9.5-9.5,9.5h-17c-5.247,0-9.5-4.254-9.5-9.5v-22
		c0-5.247,4.253-9.5,9.5-9.5h17c5.247,0,9.5,4.253,9.5,9.5V-228.303z M456-250.303c0-3.591-2.91-6.5-6.5-6.5h-17
		c-3.59,0-6.5,2.909-6.5,6.5v22c0,3.59,2.91,6.5,6.5,6.5h17c3.59,0,6.5-2.91,6.5-6.5V-250.303z"/>
	<path clip-path="url(#SVGID_2_)" d="M419-246.303c0,0.828-0.672,1.5-1.5,1.5h-8c-0.828,0-1.5-0.672-1.5-1.5v-13
		c0-0.829,0.672-1.5,1.5-1.5h8c0.828,0,1.5,0.671,1.5,1.5V-246.303z M411-247.803h5v-10h-5V-247.803z"/>
	<path clip-path="url(#SVGID_2_)" d="M419-218.303c0,0.828-0.672,1.5-1.5,1.5h-8c-0.828,0-1.5-0.672-1.5-1.5v-13
		c0-0.829,0.672-1.5,1.5-1.5h8c0.828,0,1.5,0.671,1.5,1.5V-218.303z M411-219.803h5v-10h-5V-219.803z"/>
	<path clip-path="url(#SVGID_2_)" d="M413.496-233.369c-3.004,0-5.447-2.444-5.447-5.448s2.443-5.447,5.447-5.447
		s5.448,2.443,5.448,5.447S416.5-233.369,413.496-233.369 M413.496-241.265c-1.35,0-2.447,1.099-2.447,2.447
		c0,1.351,1.098,2.448,2.447,2.448s2.448-1.098,2.448-2.448C415.944-240.166,414.846-241.265,413.496-241.265"/>
	<path clip-path="url(#SVGID_2_)" d="M579-231.303c0,5.246-4.253,9.5-9.5,9.5h-17c-5.247,0-9.5-4.254-9.5-9.5v-29
		c0-5.247,4.253-9.5,9.5-9.5h17c5.247,0,9.5,4.253,9.5,9.5V-231.303z M576-260.303c0-3.591-2.91-6.5-6.5-6.5h-17
		c-3.59,0-6.5,2.909-6.5,6.5v29c0,3.59,2.91,6.5,6.5,6.5h17c3.59,0,6.5-2.91,6.5-6.5V-260.303z"/>
	<path clip-path="url(#SVGID_2_)" d="M566-216.303c0,0.828-0.672,1.5-1.5,1.5h-6c-0.828,0-1.5-0.672-1.5-1.5v-7
		c0-0.829,0.672-1.5,1.5-1.5h6c0.828,0,1.5,0.671,1.5,1.5V-216.303z M560-217.803h3v-4h-3V-217.803z"/>
	<path clip-path="url(#SVGID_2_)" d="M572-210.337c0,1.952-1.582,3.534-3.534,3.534h-13.932c-1.952,0-3.534-1.582-3.534-3.534
		v-3.932c0-1.952,1.582-3.534,3.534-3.534h13.932c1.952,0,3.534,1.582,3.534,3.534V-210.337z M569-214.269
		c0-0.296-0.239-0.534-0.534-0.534h-13.932c-0.295,0-0.534,0.238-0.534,0.534v3.932c0,0.295,0.239,0.534,0.534,0.534h13.932
		c0.295,0,0.534-0.239,0.534-0.534V-214.269z"/>
	<path clip-path="url(#SVGID_2_)" d="M566.573-231.803h-12c-0.828,0-1.5-0.673-1.5-1.5c0-0.828,0.672-1.5,1.5-1.5h12
		c0.828,0,1.5,0.672,1.5,1.5C568.073-232.476,567.401-231.803,566.573-231.803"/>
	<path clip-path="url(#SVGID_2_)" d="M566.573-236.803h-12c-0.828,0-1.5-0.673-1.5-1.5c0-0.828,0.672-1.5,1.5-1.5h12
		c0.828,0,1.5,0.672,1.5,1.5C568.073-237.476,567.401-236.803,566.573-236.803"/>
	<path clip-path="url(#SVGID_2_)" d="M562.947-257.334c1.39,1.39,1.39,3.644,0,5.034c-1.391,1.39-3.645,1.39-5.034,0
		c-1.391-1.391-1.391-3.645,0-5.034C559.303-258.724,561.557-258.724,562.947-257.334"/>
	<path clip-path="url(#SVGID_2_)" d="M720-220.303c0,5.246-4.253,9.5-9.5,9.5h-44c-5.247,0-9.5-4.254-9.5-9.5v-36
		c0-5.247,4.253-9.5,9.5-9.5h44c5.247,0,9.5,4.253,9.5,9.5V-220.303z M717-256.303c0-3.591-2.91-6.5-6.5-6.5h-44
		c-3.59,0-6.5,2.909-6.5,6.5v36c0,3.59,2.91,6.5,6.5,6.5h44c3.59,0,6.5-2.91,6.5-6.5V-256.303z"/>
	<path clip-path="url(#SVGID_2_)" d="M678-220.303c0,5.246-4.253,9.5-9.5,9.5h-2c-5.247,0-9.5-4.254-9.5-9.5v-36
		c0-5.247,4.253-9.5,9.5-9.5h2c5.247,0,9.5,4.253,9.5,9.5V-220.303z M675-256.303c0-3.591-2.91-6.5-6.5-6.5h-2
		c-3.59,0-6.5,2.909-6.5,6.5v36c0,3.59,2.91,6.5,6.5,6.5h2c3.59,0,6.5-2.91,6.5-6.5V-256.303z"/>
	<path clip-path="url(#SVGID_2_)" d="M711-246.303c0,0.828-0.672,1.5-1.5,1.5h-21c-0.828,0-1.5-0.672-1.5-1.5v-12
		c0-0.829,0.672-1.5,1.5-1.5h21c0.828,0,1.5,0.671,1.5,1.5V-246.303z M690-247.803h18v-9h-18V-247.803z"/>
	<path clip-path="url(#SVGID_2_)" d="M711-219.303c0,0.828-0.672,1.5-1.5,1.5h-21c-0.828,0-1.5-0.672-1.5-1.5v-21
		c0-0.829,0.672-1.5,1.5-1.5h21c0.828,0,1.5,0.671,1.5,1.5V-219.303z M690-220.803h18v-18h-18V-220.803z"/>
	<path clip-path="url(#SVGID_2_)" d="M702.5-219.303c-0.828,0-1.5-0.673-1.5-1.5v-19c0-0.828,0.672-1.5,1.5-1.5s1.5,0.672,1.5,1.5
		v19C704-219.976,703.328-219.303,702.5-219.303"/>
	<path clip-path="url(#SVGID_2_)" d="M695.5-219.303c-0.828,0-1.5-0.673-1.5-1.5v-19c0-0.828,0.672-1.5,1.5-1.5s1.5,0.672,1.5,1.5
		v19C697-219.976,696.328-219.303,695.5-219.303"/>
	<path clip-path="url(#SVGID_2_)" d="M708.573-231.803h-20c-0.828,0-1.5-0.673-1.5-1.5c0-0.828,0.672-1.5,1.5-1.5h20
		c0.828,0,1.5,0.672,1.5,1.5C710.073-232.476,709.401-231.803,708.573-231.803"/>
	<path clip-path="url(#SVGID_2_)" d="M708.573-224.803h-20c-0.828,0-1.5-0.673-1.5-1.5c0-0.828,0.672-1.5,1.5-1.5h20
		c0.828,0,1.5,0.672,1.5,1.5C710.073-225.476,709.401-224.803,708.573-224.803"/>
	<path clip-path="url(#SVGID_2_)" d="M838-225.303c0,5.246-4.253,9.5-9.5,9.5h-25c-5.247,0-9.5-4.254-9.5-9.5v-13
		c0-5.247,4.253-9.5,9.5-9.5h25c5.247,0,9.5,4.253,9.5,9.5V-225.303z M835-238.303c0-3.591-2.91-6.5-6.5-6.5h-25
		c-3.59,0-6.5,2.909-6.5,6.5v13c0,3.59,2.91,6.5,6.5,6.5h25c3.59,0,6.5-2.91,6.5-6.5V-238.303z"/>
	<path clip-path="url(#SVGID_2_)" d="M829.073-244.803h-29c-0.828,0-1.073-0.673-1.073-1.5v-12.765c0-5.186,4.152-9.735,9.372-9.735
		h13.601c4.903,0,9.027,4.139,9.027,9.628v12.872C831-245.476,829.9-244.803,829.073-244.803 M802-247.803h26v-11.372
		c0-3.294-2.352-6.628-6.027-6.628h-13.601c-3.622,0-6.372,3.146-6.372,6.735V-247.803z"/>
	<path clip-path="url(#SVGID_2_)" d="M818.5-246.303c-0.828,0-1.5-0.673-1.5-1.5v-2h-3.927c-0.828,0-1.073-0.673-1.073-1.5v-5
		c0-0.828,0.245-1.5,1.073-1.5H817v-2h-2.927c-0.828,0-1.073-0.673-1.073-1.5v-5.5c0-0.828,0.672-1.5,1.5-1.5s1.5,0.672,1.5,1.5v4
		h2.073c0.827,0,1.927,0.672,1.927,1.5v5c0,0.827-1.1,1.5-1.927,1.5H815v2h3.073c0.827,0,1.927,0.672,1.927,1.5v3.5
		C820-246.976,819.328-246.303,818.5-246.303"/>
	<rect x="805" y="-259.803" clip-path="url(#SVGID_2_)" width="4" height="9"/>
	<rect x="822" y="-259.803" clip-path="url(#SVGID_2_)" width="4" height="9"/>
	<path clip-path="url(#SVGID_2_)" d="M841.573-205.803h-19.845c-3.938,0-7.729-2.961-7.729-7.366v-3.634c0-0.828,0.672-1.5,1.5-1.5
		s1.5,0.672,1.5,1.5v3.634c0,2.572,2.29,4.366,4.729,4.366h19.845c0.828,0,1.5,0.672,1.5,1.5
		C843.073-206.476,842.401-205.803,841.573-205.803"/>
	<path clip-path="url(#SVGID_2_)" d="M-307-357.303c0,5.246-4.253,9.5-9.5,9.5h-37c-5.247,0-9.5-4.254-9.5-9.5v-29
		c0-5.247,4.253-9.5,9.5-9.5h37c5.247,0,9.5,4.253,9.5,9.5V-357.303z M-310-386.303c0-3.591-2.91-6.5-6.5-6.5h-37
		c-3.59,0-6.5,2.909-6.5,6.5v29c0,3.59,2.91,6.5,6.5,6.5h37c3.59,0,6.5-2.91,6.5-6.5V-386.303z"/>
	<path clip-path="url(#SVGID_2_)" d="M-316.572-347.803h-36.61c-5.314,0-9.636-4.711-9.636-10.5c0-0.828,0.672-1.5,1.5-1.5h51.882
		c0.828,0,1.5,0.672,1.5,1.5C-307.936-352.12-311.487-347.803-316.572-347.803 M-359.684-356.803c0.616,3.419,3.298,6,6.502,6h36.61
		c3.369,0,5.128-2.821,5.54-6H-359.684z"/>
	<path clip-path="url(#SVGID_2_)" d="M-327-343.303c0,0.828-0.672,1.5-1.5,1.5h-14c-0.828,0-1.5-0.672-1.5-1.5v-6
		c0-0.829,0.672-1.5,1.5-1.5h14c0.828,0,1.5,0.671,1.5,1.5V-343.303z M-341-344.803h11v-3h-11V-344.803z"/>
	<path clip-path="url(#SVGID_2_)" d="M-320-337.337c0,1.952-1.582,3.534-3.534,3.534h-23.932c-1.952,0-3.534-1.582-3.534-3.534
		v-3.932c0-1.952,1.582-3.534,3.534-3.534h23.932c1.952,0,3.534,1.582,3.534,3.534V-337.337z M-323-341.269
		c0-0.296-0.239-0.534-0.534-0.534h-23.932c-0.295,0-0.534,0.238-0.534,0.534v3.932c0,0.295,0.239,0.534,0.534,0.534h23.932
		c0.295,0,0.534-0.239,0.534-0.534V-341.269z"/>
	<path clip-path="url(#SVGID_2_)" d="M-347.398-360.106c-0.384,0-0.768-0.146-1.061-0.439c-0.585-0.586-0.585-1.536,0-2.122
		l25.427-25.427c0.586-0.586,1.535-0.586,2.121,0c0.586,0.586,0.586,1.535,0,2.121l-25.426,25.428
		C-346.63-360.253-347.015-360.106-347.398-360.106"/>
	<path clip-path="url(#SVGID_2_)" d="M-333.388-361.664c-0.384,0-0.768-0.146-1.061-0.439c-0.585-0.586-0.585-1.536,0-2.122
		l7.369-7.368c0.586-0.586,1.535-0.586,2.121,0c0.586,0.586,0.586,1.535,0,2.121l-7.368,7.369
		C-332.62-361.811-333.004-361.664-333.388-361.664"/>
	<path clip-path="url(#SVGID_2_)" d="M-175-353.303c0,5.246-4.253,9.5-9.5,9.5h-43c-5.247,0-9.5-4.254-9.5-9.5v-26
		c0-5.247,4.253-9.5,9.5-9.5h43c5.247,0,9.5,4.253,9.5,9.5V-353.303z M-178-379.303c0-3.591-2.91-6.5-6.5-6.5h-43
		c-3.59,0-6.5,2.909-6.5,6.5v26c0,3.59,2.91,6.5,6.5,6.5h43c3.59,0,6.5-2.91,6.5-6.5V-379.303z"/>
	<path clip-path="url(#SVGID_2_)" d="M-185.734-343.803h-40.144c-5.868,0-10.642-4.711-10.642-10.5c0-0.828,0.672-1.5,1.5-1.5
		h58.428c0.829,0,1.5,0.672,1.5,1.5C-175.092-348.514-179.866-343.803-185.734-343.803 M-233.367-352.803
		c0.71,3.419,3.799,6,7.489,6h40.144c3.69,0,6.779-2.581,7.489-6H-233.367z"/>
	<path clip-path="url(#SVGID_2_)" d="M-176.427-337.803h-60c-0.828,0-1.5-0.673-1.5-1.5c0-0.828,0.672-1.5,1.5-1.5h60
		c0.828,0,1.5,0.672,1.5,1.5C-174.927-338.476-175.599-337.803-176.427-337.803"/>
	<path clip-path="url(#SVGID_2_)" d="M-202.51-358.511c-0.384,0-0.768-0.146-1.061-0.439c-0.585-0.586-0.585-1.536,0-2.122
		l8.282-8.28c0.586-0.586,1.535-0.586,2.121,0s0.586,1.535,0,2.121l-8.281,8.281C-201.742-358.657-202.126-358.511-202.51-358.511"
		/>
	<path clip-path="url(#SVGID_2_)" d="M-215.34-357.109c-0.384,0-0.768-0.146-1.061-0.438c-0.585-0.586-0.585-1.536,0-2.122
		l17.942-17.942c0.586-0.586,1.535-0.586,2.121,0c0.586,0.587,0.586,1.535,0,2.121l-17.941,17.943
		C-214.572-357.255-214.956-357.109-215.34-357.109"/>
	<path clip-path="url(#SVGID_2_)" d="M-49-358.303c0,5.246-4.253,9.5-9.5,9.5h-44c-5.247,0-9.5-4.254-9.5-9.5v-27
		c0-5.247,4.253-9.5,9.5-9.5h44c5.247,0,9.5,4.253,9.5,9.5V-358.303z M-52-385.303c0-3.591-2.91-6.5-6.5-6.5h-44
		c-3.59,0-6.5,2.909-6.5,6.5v27c0,3.59,2.91,6.5,6.5,6.5h44c3.59,0,6.5-2.91,6.5-6.5V-385.303z"/>
	<path clip-path="url(#SVGID_2_)" d="M-59.825-348.803h-41.406c-6.101,0-10.701-4.944-10.701-11.5c0-0.828,0.671-1.5,1.5-1.5h59.808
		c0.828,0,1.5,0.672,1.5,1.5C-49.124-353.747-53.724-348.803-59.825-348.803 M-108.828-358.803c0.587,4.135,3.602,7,7.597,7h41.406
		c3.995,0,7.01-2.865,7.597-7H-108.828z"/>
	<path clip-path="url(#SVGID_2_)" d="M-77.714-364.537c-0.384,0-0.768-0.146-1.061-0.439c-0.585-0.586-0.585-1.536,0-2.122
		l8.334-8.333c0.586-0.585,1.536-0.585,2.122,0c0.585,0.586,0.585,1.536,0,2.122l-8.334,8.333
		C-76.946-364.684-77.33-364.537-77.714-364.537"/>
	<path clip-path="url(#SVGID_2_)" d="M-90.626-363.126c-0.384,0-0.768-0.146-1.061-0.439c-0.585-0.586-0.585-1.536,0-2.122
		l18.056-18.055c0.586-0.586,1.535-0.586,2.121,0c0.586,0.586,0.586,1.535,0,2.121l-18.055,18.056
		C-89.858-363.272-90.242-363.126-90.626-363.126"/>
	<path clip-path="url(#SVGID_2_)" d="M-80.5-340.303c-0.828,0-1.5-0.673-1.5-1.5v-8c0-0.828,0.672-1.5,1.5-1.5s1.5,0.672,1.5,1.5v8
		C-79-340.976-79.672-340.303-80.5-340.303"/>
	<path clip-path="url(#SVGID_2_)" d="M-71.04-331.726c-0.828,0-1.5-0.673-1.5-1.5c0-3.561-3.669-6.455-8.18-6.455
		c-4.51,0-8.18,2.895-8.18,6.455c0,0.827-0.672,1.5-1.5,1.5c-0.828,0-1.5-0.673-1.5-1.5c0-5.215,5.015-9.455,11.18-9.455
		c6.164,0,11.18,4.24,11.18,9.455C-69.54-332.398-70.212-331.726-71.04-331.726"/>
	<path clip-path="url(#SVGID_2_)" d="M67-363.303c0,5.246-4.253,9.5-9.5,9.5h-31c-5.247,0-9.5-4.254-9.5-9.5v-17
		c0-5.247,4.253-9.5,9.5-9.5h31c5.247,0,9.5,4.253,9.5,9.5V-363.303z M64-380.303c0-3.591-2.91-6.5-6.5-6.5h-31
		c-3.59,0-6.5,2.909-6.5,6.5v17c0,3.59,2.91,6.5,6.5,6.5h31c3.59,0,6.5-2.91,6.5-6.5V-380.303z"/>
	<path clip-path="url(#SVGID_2_)" d="M57.98-353.803H25.632c-4.871,0-8.687-3.733-8.687-8.5c0-0.828,0.672-1.5,1.5-1.5h46.724
		c0.828,0,1.5,0.672,1.5,1.5C66.669-357.536,62.853-353.803,57.98-353.803 M20.151-360.803c0.659,2.333,2.832,4,5.481,4H57.98
		c2.65,0,4.823-1.667,5.483-4H20.151z"/>
	<path clip-path="url(#SVGID_2_)" d="M42.5-346.303c-0.828,0-1.5-0.673-1.5-1.5v-7c0-0.828,0.672-1.5,1.5-1.5s1.5,0.672,1.5,1.5v7
		C44-346.976,43.328-346.303,42.5-346.303"/>
	<path clip-path="url(#SVGID_2_)" d="M50.22-339.188c-0.828,0-1.5-0.673-1.5-1.5c0-2.601-2.72-4.716-6.062-4.716
		c-3.343,0-6.063,2.115-6.063,4.716c0,0.827-0.672,1.5-1.5,1.5s-1.5-0.673-1.5-1.5c0-4.255,4.065-7.716,9.063-7.716
		c4.997,0,9.062,3.461,9.062,7.716C51.72-339.86,51.048-339.188,50.22-339.188"/>
	<path clip-path="url(#SVGID_2_)" fill="#FFFFFF" d="M78-346.803c0,3.313-2.686,6-6,6h-9c-3.314,0-6-2.687-6-6v-19
		c0-3.314,2.686-6,6-6h9c3.314,0,6,2.686,6,6V-346.803z"/>
	<path clip-path="url(#SVGID_2_)" d="M80-347.303c0,4.142-3.358,7.5-7.5,7.5h-9c-4.142,0-7.5-3.358-7.5-7.5v-19
		c0-4.143,3.358-7.5,7.5-7.5h9c4.142,0,7.5,3.357,7.5,7.5V-347.303z M77-366.303c0-2.485-2.015-4.5-4.5-4.5h-9
		c-2.485,0-4.5,2.015-4.5,4.5v19c0,2.484,2.015,4.5,4.5,4.5h9c2.485,0,4.5-2.016,4.5-4.5V-366.303z"/>
	<path clip-path="url(#SVGID_2_)" d="M80-348.303c0,0.828-0.672,1.5-1.5,1.5h-21c-0.828,0-1.5-0.672-1.5-1.5v-18
		c0-0.829,0.672-1.5,1.5-1.5h21c0.828,0,1.5,0.671,1.5,1.5V-348.303z M59-349.803h18v-15H59V-349.803z"/>
	<path clip-path="url(#SVGID_2_)" d="M69.384-368.922c0,0.485-0.394,0.88-0.88,0.88c-0.486,0-0.88-0.395-0.88-0.88
		c0-0.486,0.394-0.88,0.88-0.88C68.99-369.802,69.384-369.408,69.384-368.922"/>
	<path clip-path="url(#SVGID_2_)" d="M69.573-343.803h-2c-0.553,0-1-0.447-1-1c0-0.554,0.447-1,1-1h2c0.553,0,1,0.446,1,1
		C70.573-344.25,70.126-343.803,69.573-343.803"/>
	<path clip-path="url(#SVGID_2_)" d="M209-348.303c0,5.246-4.253,9.5-9.5,9.5h-44c-5.247,0-9.5-4.254-9.5-9.5v-27
		c0-5.247,4.253-9.5,9.5-9.5h44c5.247,0,9.5,4.253,9.5,9.5V-348.303z M206-375.303c0-3.591-2.91-6.5-6.5-6.5h-44
		c-3.59,0-6.5,2.909-6.5,6.5v27c0,3.59,2.91,6.5,6.5,6.5h44c3.59,0,6.5-2.91,6.5-6.5V-375.303z"/>
	<path clip-path="url(#SVGID_2_)" d="M177.027-348.136c-7.092,0-12.861-5.771-12.861-12.862c0-7.091,5.769-12.861,12.861-12.861
		c7.092,0,12.861,5.771,12.861,12.861C189.888-353.906,184.119-348.136,177.027-348.136 M177.027-370.859
		c-5.437,0-9.861,4.425-9.861,9.861c0,5.438,4.424,9.862,9.861,9.862s9.861-4.424,9.861-9.862
		C186.888-366.435,182.464-370.859,177.027-370.859"/>
	<path clip-path="url(#SVGID_2_)" d="M159.144-374.951c0,1.524-1.235,2.76-2.759,2.76s-2.76-1.235-2.76-2.76
		c0-1.523,1.236-2.759,2.76-2.759S159.144-376.475,159.144-374.951"/>
	<path clip-path="url(#SVGID_2_)" d="M200.5-339.303c-0.828,0-1.5-0.673-1.5-1.5v-47h-5v4c0,0.827-0.672,1.5-1.5,1.5
		s-1.5-0.673-1.5-1.5v-5.5c0-0.828,0.245-1.5,1.073-1.5h8c0.828,0,1.927,0.672,1.927,1.5v48.5
		C202-339.976,201.328-339.303,200.5-339.303"/>
	<path clip-path="url(#SVGID_2_)" d="M188-383.303c0,0.828-0.672,1.5-1.5,1.5h-19c-0.828,0-1.5-0.672-1.5-1.5v-7
		c0-0.829,0.672-1.5,1.5-1.5h19c0.828,0,1.5,0.671,1.5,1.5V-383.303z M169-384.803h16v-4h-16V-384.803z"/>
	<path clip-path="url(#SVGID_2_)" d="M329.729-340.803h-51.272c-3.299,0-5.456-2.467-5.456-5.613v-28.365
		c0-3.264,2.268-6.021,5.456-6.021h15.155l1.145-5.442c0.675-2.706,3.063-4.558,5.82-4.558h7.577c2.757,0,5.146,1.852,5.808,4.503
		l1.156,5.497h14.611c3.168,0,6.271,2.758,6.271,6.021v28.365C336-343.216,333.061-340.803,329.729-340.803 M278.456-377.803
		c-1.536,0-2.456,1.411-2.456,3.021v28.365c0,1.514,0.785,2.613,2.456,2.613h51.272c1.648,0,3.271-1.1,3.271-2.613v-28.365
		c0-1.61-1.756-3.021-3.271-3.021h-15.829c-0.71,0-1.322-0.497-1.468-1.191l-1.394-6.634c-0.315-1.258-1.507-2.175-2.885-2.175
		h-7.577c-1.378,0-2.569,0.917-2.897,2.229l-1.382,6.58c-0.146,0.694-0.758,1.191-1.468,1.191H278.456z"/>
	<path clip-path="url(#SVGID_2_)" d="M303.762-351.327c-5.511,0-9.994-4.482-9.994-9.993s4.483-9.993,9.994-9.993
		c5.51,0,9.993,4.482,9.993,9.993S309.271-351.327,303.762-351.327 M303.762-368.313c-3.856,0-6.994,3.138-6.994,6.993
		c0,3.857,3.138,6.993,6.994,6.993c3.855,0,6.993-3.136,6.993-6.993C310.755-365.176,307.617-368.313,303.762-368.313"/>
	<path clip-path="url(#SVGID_2_)" d="M303.762-345.97c-8.465,0-15.352-6.887-15.352-15.35c0-8.465,6.887-15.353,15.352-15.353
		c8.464,0,15.351,6.888,15.351,15.353C319.112-352.856,312.226-345.97,303.762-345.97 M303.762-373.672
		c-6.811,0-12.352,5.541-12.352,12.353c0,6.81,5.541,12.35,12.352,12.35s12.351-5.54,12.351-12.35
		C316.112-368.131,310.572-373.672,303.762-373.672"/>
	<path clip-path="url(#SVGID_2_)" d="M290.573-383.803h-8c-0.828,0-1.5-0.673-1.5-1.5c0-0.828,0.672-1.5,1.5-1.5h8
		c0.828,0,1.5,0.672,1.5,1.5C292.073-384.476,291.401-383.803,290.573-383.803"/>
	<path clip-path="url(#SVGID_2_)" d="M322.433-385.803h0.621c2.379,0,3.946,1.881,3.946,4.26v1.74h-8v-1.74
		C319-383.922,320.054-385.803,322.433-385.803"/>
	<path clip-path="url(#SVGID_2_)" d="M447-350.303c0,5.246-4.253,9.5-9.5,9.5h-26c-5.247,0-9.5-4.254-9.5-9.5v-16
		c0-5.247,4.253-9.5,9.5-9.5h26c5.247,0,9.5,4.253,9.5,9.5V-350.303z M444-366.303c0-3.591-2.91-6.5-6.5-6.5h-26
		c-3.59,0-6.5,2.909-6.5,6.5v16c0,3.59,2.91,6.5,6.5,6.5h26c3.59,0,6.5-2.91,6.5-6.5V-366.303z"/>
	<path clip-path="url(#SVGID_2_)" d="M461.127-339.416c-0.676,0-1.452-0.194-2.045-0.559l-14.235-8.78
		c-0.456-0.282-0.753-0.788-0.736-1.324l0.438-13.742c0.016-0.494,0.268-0.948,0.684-1.215l13.701-8.769
		c0.604-0.386,1.501-0.588,2.193-0.588c2.019,0,3.873,1.672,3.873,3.727v27.523C465-341.087,463.146-339.416,461.127-339.416
		 M447.11-350.849l13.657,8.321c0.428,0.269,1.232,0.008,1.232-0.615v-27.523c0-0.626-0.803-0.891-1.242-0.61l-13.144,8.343
		L447.11-350.849z"/>
	<path clip-path="url(#SVGID_2_)" d="M431.657-373.076c-3.912,0-7.095-3.182-7.095-7.094s3.183-7.096,7.095-7.096
		s7.096,3.184,7.096,7.096S435.569-373.076,431.657-373.076 M431.657-384.266c-2.258,0-4.095,1.837-4.095,4.096
		c0,2.258,1.837,4.094,4.095,4.094c2.259,0,4.096-1.836,4.096-4.094C435.753-382.429,433.916-384.266,431.657-384.266"/>
	<path clip-path="url(#SVGID_2_)" d="M418.88-373.076c-4.832,0-8.763-3.93-8.763-8.761s3.931-8.762,8.763-8.762
		c4.831,0,8.762,3.931,8.762,8.762S423.711-373.076,418.88-373.076 M418.88-387.599c-3.178,0-5.763,2.585-5.763,5.762
		c0,3.176,2.585,5.761,5.763,5.761c3.177,0,5.762-2.585,5.762-5.761C424.642-385.014,422.057-387.599,418.88-387.599"/>
	<path clip-path="url(#SVGID_2_)" d="M560.783-333.009c-17.369,0-31.5-14.131-31.5-31.5c0-17.368,14.131-31.5,31.5-31.5
		s31.5,14.131,31.5,31.5C592.283-347.14,578.152-333.009,560.783-333.009 M560.783-393.009c-15.715,0-28.5,12.785-28.5,28.5
		c0,15.716,12.785,28.5,28.5,28.5s28.5-12.784,28.5-28.5C589.283-380.224,576.498-393.009,560.783-393.009 M572.707-345.68
		c-1.845,0-3.578-0.718-4.883-2.021c-2.693-2.692-2.693-7.073,0-9.767c1.305-1.304,3.039-2.021,4.883-2.021s3.578,0.718,4.883,2.021
		c1.305,1.306,2.022,3.039,2.022,4.884s-0.718,3.578-2.022,4.883C576.285-346.397,574.552-345.68,572.707-345.68 M572.707-356.489
		c-1.043,0-2.024,0.406-2.762,1.143c-1.523,1.524-1.523,4.001,0,5.524c1.476,1.474,4.047,1.474,5.523,0
		c0.738-0.738,1.144-1.718,1.144-2.762c0-1.043-0.406-2.023-1.144-2.763C574.731-356.083,573.75-356.489,572.707-356.489
		 M548.859-345.68c-1.844,0-3.578-0.718-4.883-2.021c-2.692-2.692-2.692-7.073,0-9.767c1.305-1.304,3.039-2.021,4.883-2.021
		c1.845,0,3.579,0.718,4.883,2.021c1.304,1.306,2.022,3.039,2.022,4.884s-0.719,3.578-2.022,4.883
		C552.438-346.397,550.704-345.68,548.859-345.68 M548.859-356.489c-1.043,0-2.024,0.406-2.762,1.143
		c-1.522,1.524-1.522,4.001,0,5.524c1.478,1.475,4.05,1.477,5.523,0c0.738-0.738,1.144-1.718,1.144-2.762
		c0-1.043-0.406-2.023-1.144-2.763C550.884-356.083,549.903-356.489,548.859-356.489 M560.917-357.736
		c-1.844,0-3.579-0.718-4.883-2.023c-2.692-2.69-2.692-7.071,0-9.765c1.304-1.304,3.039-2.023,4.883-2.023
		c1.845,0,3.579,0.72,4.882,2.023c1.306,1.304,2.023,3.039,2.023,4.882c0,1.845-0.718,3.579-2.023,4.883
		C564.496-358.454,562.762-357.736,560.917-357.736 M560.917-368.548c-1.043,0-2.024,0.406-2.762,1.145
		c-1.522,1.522-1.522,4.001,0,5.522c1.479,1.478,4.051,1.476,5.523,0c0.737-0.736,1.144-1.718,1.144-2.762
		c0-1.043-0.406-2.022-1.144-2.761S561.961-368.548,560.917-368.548 M572.707-369.525c-1.844,0-3.578-0.719-4.883-2.023
		c-2.693-2.692-2.693-7.073,0-9.766c1.305-1.304,3.038-2.021,4.883-2.021s3.578,0.718,4.883,2.021s2.022,3.039,2.022,4.883
		c0,1.845-0.718,3.578-2.022,4.883S574.551-369.525,572.707-369.525 M572.707-380.336c-1.043,0-2.023,0.405-2.762,1.144
		c-1.523,1.522-1.523,4,0,5.523c1.475,1.475,4.049,1.475,5.523,0c0.737-0.738,1.144-1.72,1.144-2.763
		c0-1.044-0.406-2.023-1.144-2.761C574.73-379.931,573.75-380.336,572.707-380.336 M548.859-369.525
		c-1.844,0-3.578-0.719-4.883-2.023c-2.692-2.692-2.692-7.073,0-9.766c1.305-1.304,3.039-2.021,4.883-2.021
		c1.845,0,3.579,0.718,4.883,2.021s2.022,3.039,2.022,4.883c0,1.845-0.719,3.578-2.022,4.883S550.704-369.525,548.859-369.525
		 M548.859-380.336c-1.043,0-2.023,0.405-2.762,1.144c-1.522,1.522-1.522,4,0,5.523c1.476,1.477,4.05,1.475,5.523,0
		c0.737-0.738,1.144-1.72,1.144-2.763c0-1.044-0.406-2.023-1.144-2.761C550.884-379.932,549.903-380.336,548.859-380.336"/>
	<path clip-path="url(#SVGID_2_)" d="M707.043-333.803h-37.882c-3.134,0-5.161-2.286-5.161-5.205v-52
		c0-3.087,2.184-5.795,5.161-5.795h25.181c0.428,0,0.838,0.184,1.122,0.505l16.945,18.873c0.243,0.273,0.591,0.628,0.591,0.994
		v37.424C713-336.04,710.195-333.803,707.043-333.803 M669.161-393.803c-1.33,0-2.161,1.357-2.161,2.795v52
		c0,1.446,0.875,2.205,2.161,2.205h37.882c1.258,0,2.957-0.759,2.957-2.205v-36.854l-16.333-17.94H669.161z"/>
	<path clip-path="url(#SVGID_2_)" d="M690.5-369.303c-0.828,0-1.5-0.673-1.5-1.5v-17c0-0.828,0.672-1.5,1.5-1.5s1.5,0.672,1.5,1.5
		v17C692-369.976,691.328-369.303,690.5-369.303"/>
	<path clip-path="url(#SVGID_2_)" d="M682.5-369.303c-0.828,0-1.5-0.673-1.5-1.5v-17c0-0.828,0.672-1.5,1.5-1.5s1.5,0.672,1.5,1.5
		v17C684-369.976,683.328-369.303,682.5-369.303"/>
	<path clip-path="url(#SVGID_2_)" d="M674.5-369.303c-0.828,0-1.5-0.673-1.5-1.5v-17c0-0.828,0.672-1.5,1.5-1.5s1.5,0.672,1.5,1.5
		v17C676-369.976,675.328-369.303,674.5-369.303"/>
	<path clip-path="url(#SVGID_2_)" d="M832-363.799c0,6.072-4.923,10.996-10.996,10.996h-4.008c-6.073,0-10.996-4.924-10.996-10.996
		v-19.008c0-6.073,4.923-10.996,10.996-10.996h4.008c6.073,0,10.996,4.923,10.996,10.996V-363.799z M829-382.807
		c0-4.416-3.58-7.996-7.996-7.996h-4.008c-4.416,0-7.996,3.58-7.996,7.996v19.008c0,4.416,3.58,7.996,7.996,7.996h4.008
		c4.416,0,7.996-3.58,7.996-7.996V-382.807z"/>
	<path clip-path="url(#SVGID_2_)" d="M819.515-347.803h-0.522c-7.273,0-12.992-5.728-12.992-12.507v-15.493
		c0-0.828,0.672-1.5,1.5-1.5s1.5,0.672,1.5,1.5v15.493c0,5.152,4.345,9.507,9.992,9.507h0.522c5.249,0,9.485-3.998,9.485-9.507
		v-15.493c0-0.828,0.672-1.5,1.5-1.5s1.5,0.672,1.5,1.5v15.493C832-353.179,826.39-347.803,819.515-347.803"/>
	<path clip-path="url(#SVGID_2_)" d="M819.5-338.303c-0.828,0-1.5-0.673-1.5-1.5v-9c0-0.828,0.672-1.5,1.5-1.5s1.5,0.672,1.5,1.5v9
		C821-338.976,820.328-338.303,819.5-338.303"/>
	<path clip-path="url(#SVGID_2_)" d="M818.73-333.508c-7.854,0-16.309-2.014-16.309-6.432c0-0.828,0.672-1.5,1.5-1.5
		s1.5,0.672,1.5,1.5c0,0.996,4.664,3.432,13.309,3.432c8.646,0,13.31-2.436,13.31-3.432c0-0.828,0.671-1.5,1.5-1.5
		c0.828,0,1.5,0.672,1.5,1.5C835.04-335.521,826.586-333.508,818.73-333.508"/>
	<path clip-path="url(#SVGID_2_)" d="M-313-473.303c0,5.247-4.253,9.5-9.5,9.5h-24c-5.247,0-9.5-4.253-9.5-9.5v-44
		c0-5.247,4.253-9.5,9.5-9.5h24c5.247,0,9.5,4.253,9.5,9.5V-473.303z M-316-517.303c0-3.59-2.91-6.5-6.5-6.5h-24
		c-3.59,0-6.5,2.91-6.5,6.5v44c0,3.59,2.91,6.5,6.5,6.5h24c3.59,0,6.5-2.91,6.5-6.5V-517.303z"/>
	<path clip-path="url(#SVGID_2_)" d="M-313-474.303c0,0.828-0.672,1.5-1.5,1.5h-40c-0.828,0-1.5-0.672-1.5-1.5v-43
		c0-0.829,0.672-1.5,1.5-1.5h40c0.828,0,1.5,0.671,1.5,1.5V-474.303z M-353-475.803h37v-40h-37V-475.803z"/>
	<path clip-path="url(#SVGID_2_)" d="M-332.224-521.091c0,1.105-0.895,2-2,2c-1.105,0-2-0.895-2-2s0.895-2,2-2
		C-333.118-523.091-332.224-522.196-332.224-521.091"/>
	<path clip-path="url(#SVGID_2_)" d="M-331.427-468.803h-5c-0.828,0-1.5-0.672-1.5-1.5s0.672-1.5,1.5-1.5h5
		c0.828,0,1.5,0.672,1.5,1.5S-330.599-468.803-331.427-468.803"/>
	<path clip-path="url(#SVGID_2_)" d="M-346.748-483.138c-0.384,0-0.768-0.146-1.061-0.439c-0.585-0.586-0.585-1.536,0-2.122
		l22.9-22.899c0.586-0.586,1.535-0.586,2.121,0s0.586,1.535,0,2.121l-22.899,22.9C-345.98-483.284-346.364-483.138-346.748-483.138"
		/>
	<path clip-path="url(#SVGID_2_)" d="M-334.13-484.54c-0.384,0-0.768-0.146-1.061-0.439c-0.585-0.586-0.585-1.536,0-2.122
		l6.637-6.636c0.586-0.586,1.535-0.586,2.121,0c0.586,0.586,0.586,1.535,0,2.121l-6.636,6.637
		C-333.362-484.686-333.746-484.54-334.13-484.54"/>
	<path clip-path="url(#SVGID_2_)" d="M-58-473.303c0,5.247-4.253,9.5-9.5,9.5h-24c-5.247,0-9.5-4.253-9.5-9.5v-44
		c0-5.247,4.253-9.5,9.5-9.5h24c5.247,0,9.5,4.253,9.5,9.5V-473.303z M-61-517.303c0-3.59-2.91-6.5-6.5-6.5h-24
		c-3.59,0-6.5,2.91-6.5,6.5v44c0,3.59,2.91,6.5,6.5,6.5h24c3.59,0,6.5-2.91,6.5-6.5V-517.303z"/>
	<path clip-path="url(#SVGID_2_)" d="M-58-474.303c0,0.828-0.672,1.5-1.5,1.5h-40c-0.828,0-1.5-0.672-1.5-1.5v-43
		c0-0.829,0.672-1.5,1.5-1.5h40c0.828,0,1.5,0.671,1.5,1.5V-474.303z M-98-475.803h37v-40h-37V-475.803z"/>
	<path clip-path="url(#SVGID_2_)" d="M-76.644-521.091c0,1.105-0.895,2-2,2s-2-0.895-2-2s0.895-2,2-2
		S-76.644-522.196-76.644-521.091"/>
	<path clip-path="url(#SVGID_2_)" d="M-76.427-468.803h-5c-0.828,0-1.5-0.672-1.5-1.5s0.672-1.5,1.5-1.5h5
		c0.828,0,1.5,0.672,1.5,1.5S-75.599-468.803-76.427-468.803"/>
	<polygon clip-path="url(#SVGID_2_)" fill="#FFFFFF" points="-67,-499.622 -73.084,-494.804 -79,-494.804 -79,-489.804 
		-73.084,-489.804 -67,-483.954 	"/>
	<path clip-path="url(#SVGID_2_)" d="M-69.927-483.453c-0.397,0-0.789-0.159-1.077-0.456l-5.715-5.894h-5.208
		c-0.828,0-1.073-0.672-1.073-1.5v-5c0-0.828,0.245-1.5,1.073-1.5h5.369l5.77-4.047c0.459-0.32,1.272-0.359,1.767-0.102
		c0.496,0.258,1.021,0.771,1.021,1.331v15.668c0,0.611-0.583,1.161-1.15,1.39C-69.333-483.49-69.737-483.453-69.927-483.453
		 M-80-492.803h3.916c0.406,0,1.007,0.164,1.291,0.456l3.793,3.692v-9.083l-4.009,2.664c-0.252,0.176-0.766,0.271-1.075,0.271H-80
		V-492.803z"/>
	
		<rect x="-75.473" y="-504.214" transform="matrix(0.8115 0.5844 -0.5844 0.8115 -302.5057 -50.1878)" clip-path="url(#SVGID_2_)" fill="#FFFFFF" width="4" height="20.603"/>
	<path clip-path="url(#SVGID_2_)" d="M-79.494-484.553c-0.202,0-0.406-0.062-0.583-0.188c-0.448-0.324-0.55-0.949-0.228-1.396
		l12.041-16.718c0.322-0.448,0.947-0.551,1.396-0.227c0.448,0.323,0.55,0.948,0.228,1.395l-12.042,16.718
		C-78.877-484.698-79.183-484.553-79.494-484.553"/>
	<path clip-path="url(#SVGID_2_)" d="M71-473.303c0,5.247-4.253,9.5-9.5,9.5h-24c-5.247,0-9.5-4.253-9.5-9.5v-44
		c0-5.247,4.253-9.5,9.5-9.5h24c5.247,0,9.5,4.253,9.5,9.5V-473.303z M68-517.303c0-3.59-2.91-6.5-6.5-6.5h-24
		c-3.59,0-6.5,2.91-6.5,6.5v44c0,3.59,2.91,6.5,6.5,6.5h24c3.59,0,6.5-2.91,6.5-6.5V-517.303z"/>
	<path clip-path="url(#SVGID_2_)" d="M71-474.303c0,0.828-0.672,1.5-1.5,1.5h-40c-0.828,0-1.5-0.672-1.5-1.5v-43
		c0-0.829,0.672-1.5,1.5-1.5h40c0.828,0,1.5,0.671,1.5,1.5V-474.303z M31-475.803h37v-40H31V-475.803z"/>
	<path clip-path="url(#SVGID_2_)" d="M51.942-521.091c0,1.105-0.895,2-2,2s-2-0.895-2-2s0.895-2,2-2S51.942-522.196,51.942-521.091"
		/>
	<path clip-path="url(#SVGID_2_)" d="M52.573-468.803h-5c-0.828,0-1.5-0.672-1.5-1.5s0.672-1.5,1.5-1.5h5c0.828,0,1.5,0.672,1.5,1.5
		S53.401-468.803,52.573-468.803"/>
	<polygon clip-path="url(#SVGID_2_)" fill="#FFFFFF" points="57,-498.622 50.574,-493.804 45,-493.804 45,-488.804 50.574,-488.804 
		57,-482.954 	"/>
	<path clip-path="url(#SVGID_2_)" d="M54.073-483.453c-0.384,0-0.762-0.148-1.048-0.427l-6.062-5.923h-4.89
		c-0.828,0-1.073-0.672-1.073-1.5v-5c0-0.828,0.245-1.5,1.073-1.5h5.048l6.122-4.067c0.462-0.308,1.264-0.335,1.753-0.074
		c0.487,0.262,1.004,0.77,1.004,1.323v15.668c0,0.603-0.575,1.148-1.131,1.382C54.681-483.491,54.27-483.453,54.073-483.453
		 M44-492.803h3.574c0.392,0,0.981,0.153,1.261,0.427l4.165,3.86v-9.308l-4.382,2.77c-0.246,0.164-0.749,0.251-1.044,0.251H44
		V-492.803z"/>
	
		<rect x="48.185" y="-504.214" transform="matrix(0.8115 0.5844 -0.5844 0.8115 -279.1901 -122.4562)" clip-path="url(#SVGID_2_)" fill="#FFFFFF" width="4" height="20.603"/>
	<path clip-path="url(#SVGID_2_)" d="M44.164-484.553c-0.202,0-0.406-0.062-0.583-0.188c-0.448-0.324-0.55-0.949-0.228-1.396
		l12.041-16.718c0.323-0.448,0.947-0.551,1.396-0.227c0.448,0.323,0.55,0.948,0.228,1.395l-12.042,16.718
		C44.781-484.698,44.475-484.553,44.164-484.553"/>
	<path clip-path="url(#SVGID_2_)" d="M33.839-484.34c-0.395,0-0.788-0.154-1.082-0.462c-0.574-0.598-0.555-1.547,0.043-2.12
		l1.872-1.796l-1.873-1.801c-0.294-0.282-0.46-0.673-0.46-1.08c0-0.408,0.165-0.798,0.459-1.081l1.903-1.835l-1.928-1.949
		c-0.281-0.282-0.436-0.665-0.434-1.064c0.002-0.398,0.163-0.779,0.446-1.058l2.998-2.96c0.588-0.582,1.539-0.577,2.121,0.014
		c0.582,0.589,0.577,1.539-0.013,2.121l-1.929,1.905l1.941,1.962c0.283,0.285,0.439,0.671,0.434,1.072
		c-0.005,0.402-0.17,0.784-0.459,1.063l-1.876,1.808l1.875,1.803c0.294,0.283,0.46,0.674,0.46,1.082s-0.167,0.799-0.461,1.081
		l-2.999,2.877C34.587-484.479,34.213-484.34,33.839-484.34"/>
	<path clip-path="url(#SVGID_2_)" d="M60.05-484.34c-0.395,0-0.788-0.154-1.082-0.462c-0.574-0.598-0.555-1.547,0.043-2.12
		l1.872-1.796l-1.873-1.801c-0.294-0.282-0.46-0.673-0.46-1.08c0-0.408,0.165-0.798,0.459-1.081l1.903-1.835l-1.928-1.949
		c-0.281-0.282-0.436-0.665-0.434-1.064c0.002-0.398,0.163-0.779,0.446-1.058l2.998-2.96c0.589-0.582,1.54-0.577,2.121,0.014
		c0.582,0.589,0.577,1.539-0.013,2.121l-1.929,1.905l1.941,1.962c0.283,0.285,0.439,0.671,0.434,1.072
		c-0.005,0.402-0.17,0.784-0.459,1.063l-1.876,1.808l1.875,1.803c0.294,0.283,0.46,0.674,0.46,1.082s-0.167,0.799-0.461,1.081
		l-2.999,2.877C60.798-484.479,60.424-484.34,60.05-484.34"/>
	<path clip-path="url(#SVGID_2_)" d="M199-473.303c0,5.247-4.253,9.5-9.5,9.5h-24c-5.247,0-9.5-4.253-9.5-9.5v-44
		c0-5.247,4.253-9.5,9.5-9.5h24c5.247,0,9.5,4.253,9.5,9.5V-473.303z M196-517.303c0-3.59-2.91-6.5-6.5-6.5h-24
		c-3.59,0-6.5,2.91-6.5,6.5v44c0,3.59,2.91,6.5,6.5,6.5h24c3.59,0,6.5-2.91,6.5-6.5V-517.303z"/>
	<path clip-path="url(#SVGID_2_)" d="M199-474.303c0,0.828-0.672,1.5-1.5,1.5h-40c-0.828,0-1.5-0.672-1.5-1.5v-43
		c0-0.829,0.672-1.5,1.5-1.5h40c0.828,0,1.5,0.671,1.5,1.5V-474.303z M159-475.803h37v-40h-37V-475.803z"/>
	<path clip-path="url(#SVGID_2_)" d="M180.347-521.091c0,1.105-0.895,2-2,2s-2-0.895-2-2s0.895-2,2-2
		S180.347-522.196,180.347-521.091"/>
	<path clip-path="url(#SVGID_2_)" d="M180.573-468.803h-5c-0.828,0-1.5-0.672-1.5-1.5s0.672-1.5,1.5-1.5h5
		c0.828,0,1.5,0.672,1.5,1.5S181.401-468.803,180.573-468.803"/>
	<path clip-path="url(#SVGID_2_)" fill="#FFFFFF" d="M195.718-481.706c0,2.216-1.797,4.013-4.013,4.013s-4.012-1.797-4.012-4.013
		c0-2.216,1.796-4.013,4.012-4.013S195.718-483.921,195.718-481.706"/>
	<path clip-path="url(#SVGID_2_)" fill="#FFFFFF" d="M170.17-481.706c0,2.216-1.797,4.013-4.013,4.013s-4.012-1.797-4.012-4.013
		c0-2.216,1.796-4.013,4.012-4.013S170.17-483.921,170.17-481.706"/>
	<path clip-path="url(#SVGID_2_)" d="M189.705-476.693c-2.764,0-5.012-2.249-5.012-5.012c0-2.764,2.248-5.013,5.012-5.013
		s5.013,2.249,5.013,5.013C194.718-478.942,192.469-476.693,189.705-476.693 M189.705-484.718c-1.661,0-3.012,1.352-3.012,3.013
		s1.351,3.012,3.012,3.012s3.013-1.351,3.013-3.012S191.366-484.718,189.705-484.718"/>
	<path clip-path="url(#SVGID_2_)" d="M164.158-476.693c-2.764,0-5.013-2.249-5.013-5.012c0-2.764,2.249-5.013,5.013-5.013
		s5.012,2.249,5.012,5.013C169.17-478.942,166.922-476.693,164.158-476.693 M164.158-484.718c-1.661,0-3.013,1.352-3.013,3.013
		s1.352,3.012,3.013,3.012s3.012-1.351,3.012-3.012S165.819-484.718,164.158-484.718"/>
	<path clip-path="url(#SVGID_2_)" d="M187.157-477.632c-0.256,0-0.512-0.098-0.707-0.293c-0.391-0.391-0.391-1.023,0-1.414
		l5.623-5.624c0.391-0.391,1.023-0.391,1.414,0c0.391,0.391,0.391,1.023,0,1.414l-5.623,5.624
		C187.669-477.73,187.413-477.632,187.157-477.632"/>
	<path clip-path="url(#SVGID_2_)" d="M172.573-479.803h-2c-0.553,0-1-0.447-1-1c0-0.553,0.447-1,1-1h2c0.553,0,1,0.447,1,1
		C173.573-480.25,173.126-479.803,172.573-479.803"/>
	<path clip-path="url(#SVGID_2_)" d="M178.573-479.803h-3c-0.553,0-1-0.447-1-1c0-0.553,0.447-1,1-1h3c0.553,0,1,0.447,1,1
		C179.573-480.25,179.126-479.803,178.573-479.803"/>
	<path clip-path="url(#SVGID_2_)" d="M184.573-479.803h-2c-0.553,0-1-0.447-1-1c0-0.553,0.447-1,1-1h2c0.553,0,1,0.447,1,1
		C185.573-480.25,185.126-479.803,184.573-479.803"/>
	<path clip-path="url(#SVGID_2_)" d="M-185-473.303c0,5.247-4.253,9.5-9.5,9.5h-24c-5.247,0-9.5-4.253-9.5-9.5v-44
		c0-5.247,4.253-9.5,9.5-9.5h24c5.247,0,9.5,4.253,9.5,9.5V-473.303z M-188-517.303c0-3.59-2.91-6.5-6.5-6.5h-24
		c-3.59,0-6.5,2.91-6.5,6.5v44c0,3.59,2.91,6.5,6.5,6.5h24c3.59,0,6.5-2.91,6.5-6.5V-517.303z"/>
	<path clip-path="url(#SVGID_2_)" d="M-185-474.303c0,0.828-0.672,1.5-1.5,1.5h-40c-0.828,0-1.5-0.672-1.5-1.5v-43
		c0-0.829,0.672-1.5,1.5-1.5h40c0.828,0,1.5,0.671,1.5,1.5V-474.303z M-225-475.803h37v-40h-37V-475.803z"/>
	<path clip-path="url(#SVGID_2_)" d="M-204.058-521.091c0,1.105-0.895,2-2,2s-2-0.895-2-2s0.895-2,2-2
		S-204.058-522.196-204.058-521.091"/>
	<path clip-path="url(#SVGID_2_)" d="M-203.427-468.803h-5c-0.828,0-1.5-0.672-1.5-1.5s0.672-1.5,1.5-1.5h5
		c0.828,0,1.5,0.672,1.5,1.5S-202.599-468.803-203.427-468.803"/>
	<path clip-path="url(#SVGID_2_)" d="M-203.502-487.803h-0.002c-0.828,0-1.499-0.888-1.498-1.716
		c0.011-7.528-4.557-8.305-5.077-8.357c-0.819-0.081-1.427-0.86-1.355-1.678c0.073-0.818,0.784-1.466,1.601-1.391
		c0.078,0.006,7.846,0.927,7.831,11.443C-202.003-488.674-202.675-487.803-203.502-487.803"/>
	<path clip-path="url(#SVGID_2_)" d="M-196.64-488.803h-0.002c-0.828,0-1.499-0.729-1.498-1.558
		c0.018-13.299-8.874-14.166-8.964-14.174c-0.826-0.063-1.444-0.798-1.38-1.624c0.064-0.828,0.799-1.484,1.611-1.387
		c0.117,0.009,11.754,1.143,11.733,17.193C-195.141-489.525-195.812-488.803-196.64-488.803"/>
	<path clip-path="url(#SVGID_2_)" d="M334-481.303c0,5.247-4.253,9.5-9.5,9.5h-18c-5.247,0-9.5-4.253-9.5-9.5v-35
		c0-5.247,4.253-9.5,9.5-9.5h18c5.247,0,9.5,4.253,9.5,9.5V-481.303z M331-516.303c0-3.59-2.91-6.5-6.5-6.5h-18
		c-3.59,0-6.5,2.91-6.5,6.5v35c0,3.59,2.91,6.5,6.5,6.5h18c3.59,0,6.5-2.91,6.5-6.5V-516.303z"/>
	<path clip-path="url(#SVGID_2_)" d="M334-481.303c0,0.828-0.672,1.5-1.5,1.5h-34c-0.828,0-1.5-0.672-1.5-1.5v-35
		c0-0.829,0.672-1.5,1.5-1.5h34c0.828,0,1.5,0.671,1.5,1.5V-481.303z M300-482.803h31v-32h-31V-482.803z"/>
	<path clip-path="url(#SVGID_2_)" d="M317.531-519.747c0,1.105-0.895,2-2,2c-1.104,0-2-0.895-2-2s0.896-2,2-2
		C316.637-521.747,317.531-520.852,317.531-519.747"/>
	<path clip-path="url(#SVGID_2_)" d="M317.573-475.803h-5c-0.828,0-1.5-0.672-1.5-1.5s0.672-1.5,1.5-1.5h5
		c0.828,0,1.5,0.672,1.5,1.5S318.401-475.803,317.573-475.803"/>
	<path clip-path="url(#SVGID_2_)" d="M315.573-460.803h-2c-0.828,0-1.5-0.672-1.5-1.5s0.672-1.5,1.5-1.5h2
		c0.828,0,1.5,0.672,1.5,1.5S316.401-460.803,315.573-460.803 M307.573-460.803h-6c-0.828,0-1.5-0.672-1.5-1.5s0.672-1.5,1.5-1.5h6
		c0.828,0,1.5,0.672,1.5,1.5S308.401-460.803,307.573-460.803 M295.573-460.803h-6c-0.828,0-1.5-0.672-1.5-1.5s0.672-1.5,1.5-1.5h6
		c0.828,0,1.5,0.672,1.5,1.5S296.401-460.803,295.573-460.803 M283.573-460.803h-6c-0.828,0-1.5-0.672-1.5-1.5s0.672-1.5,1.5-1.5h6
		c0.828,0,1.5,0.672,1.5,1.5S284.401-460.803,283.573-460.803 M276.5-465.303c-0.828,0-1.5-0.672-1.5-1.5v-6
		c0-0.828,0.672-1.5,1.5-1.5s1.5,0.672,1.5,1.5v6C278-465.975,277.328-465.303,276.5-465.303 M276.5-477.303
		c-0.828,0-1.5-0.672-1.5-1.5v-6c0-0.828,0.672-1.5,1.5-1.5s1.5,0.672,1.5,1.5v6C278-477.975,277.328-477.303,276.5-477.303
		 M276.286-489.303c-0.828,0-1.286-0.672-1.286-1.5v-1.5c0-0.828,0.245-1.5,1.073-1.5h4.5c0.828,0,1.5,0.672,1.5,1.5
		s-0.672,1.5-1.5,1.5h-3C277.573-489.975,277.115-489.303,276.286-489.303 M292.573-490.803h-6c-0.828,0-1.5-0.672-1.5-1.5
		s0.672-1.5,1.5-1.5h6c0.828,0,1.5,0.672,1.5,1.5S293.401-490.803,292.573-490.803"/>
	<path clip-path="url(#SVGID_2_)" d="M306.438-493.677c-0.384,0-0.768-0.146-1.061-0.439c-0.586-0.586-0.586-1.536,0-2.122
		l14.533-14.533c0.586-0.586,1.535-0.586,2.121,0c0.586,0.586,0.586,1.535,0,2.121l-14.533,14.534
		C307.205-493.823,306.821-493.677,306.438-493.677"/>
	<path clip-path="url(#SVGID_2_)" d="M314.445-494.567c-0.384,0-0.768-0.146-1.061-0.439c-0.586-0.586-0.586-1.536,0-2.122
		l4.212-4.211c0.586-0.586,1.535-0.586,2.12,0c0.587,0.585,0.587,1.535,0,2.121l-4.211,4.212
		C315.213-494.713,314.829-494.567,314.445-494.567"/>
	<path clip-path="url(#SVGID_2_)" d="M428-497.303c0,4.142-3.358,7.5-7.5,7.5h-10c-4.142,0-7.5-3.358-7.5-7.5v-21
		c0-4.142,3.358-7.5,7.5-7.5h10c4.142,0,7.5,3.358,7.5,7.5V-497.303z M425-518.303c0-2.485-2.015-4.5-4.5-4.5h-10
		c-2.485,0-4.5,2.015-4.5,4.5v21c0,2.485,2.015,4.5,4.5,4.5h10c2.485,0,4.5-2.015,4.5-4.5V-518.303z"/>
	<path clip-path="url(#SVGID_2_)" d="M428-499.303c0,0.828-0.672,1.5-1.5,1.5h-22c-0.828,0-1.5-0.672-1.5-1.5v-19
		c0-0.829,0.672-1.5,1.5-1.5h22c0.828,0,1.5,0.671,1.5,1.5V-499.303z M406-500.803h19v-16h-19V-500.803z"/>
	<path clip-path="url(#SVGID_2_)" d="M416.573-494.803h-4c-0.553,0-1-0.447-1-1c0-0.553,0.447-1,1-1h4c0.553,0,1,0.447,1,1
		C417.573-495.25,417.126-494.803,416.573-494.803"/>
	<path clip-path="url(#SVGID_2_)" d="M432.573-468.803h-6c-0.828,0-1.5-0.672-1.5-1.5s0.672-1.5,1.5-1.5h6
		c0.828,0,1.5,0.672,1.5,1.5S433.401-468.803,432.573-468.803 M420.573-468.803h-6c-0.828,0-1.5-0.672-1.5-1.5s0.672-1.5,1.5-1.5h6
		c0.828,0,1.5,0.672,1.5,1.5S421.401-468.803,420.573-468.803 M408.573-468.803h-1.5c-0.828,0-1.073-0.672-1.073-1.5v-4.5
		c0-0.828,0.672-1.5,1.5-1.5s1.5,0.672,1.5,1.5v3c0,0,1.287,0.672,1.287,1.5S409.401-468.803,408.573-468.803 M407.5-479.303
		c-0.828,0-1.5-0.672-1.5-1.5v-6c0-0.828,0.672-1.5,1.5-1.5s1.5,0.672,1.5,1.5v6C409-479.975,408.328-479.303,407.5-479.303"/>
	<path clip-path="url(#SVGID_2_)" d="M464-470.303c0,4.142-3.358,7.5-7.5,7.5h-10c-4.142,0-7.5-3.358-7.5-7.5v-21
		c0-4.142,3.358-7.5,7.5-7.5h10c4.142,0,7.5,3.358,7.5,7.5V-470.303z M461-491.303c0-2.485-2.015-4.5-4.5-4.5h-10
		c-2.485,0-4.5,2.015-4.5,4.5v21c0,2.485,2.015,4.5,4.5,4.5h10c2.485,0,4.5-2.015,4.5-4.5V-491.303z"/>
	<path clip-path="url(#SVGID_2_)" d="M464-472.303c0,0.828-0.672,1.5-1.5,1.5h-22c-0.828,0-1.5-0.672-1.5-1.5v-19
		c0-0.829,0.672-1.5,1.5-1.5h22c0.828,0,1.5,0.671,1.5,1.5V-472.303z M442-473.803h19v-16h-19V-473.803z"/>
	<path clip-path="url(#SVGID_2_)" d="M452.573-467.803h-3c-0.553,0-1-0.447-1-1c0-0.553,0.447-1,1-1h3c0.553,0,1,0.447,1,1
		C453.573-468.25,453.126-467.803,452.573-467.803"/>
	<path clip-path="url(#SVGID_2_)" d="M589-472.303c0,5.247-4.253,9.5-9.5,9.5h-36c-5.247,0-9.5-4.253-9.5-9.5v-44
		c0-5.247,4.253-9.5,9.5-9.5h36c5.247,0,9.5,4.253,9.5,9.5V-472.303z M586-516.303c0-3.59-2.91-6.5-6.5-6.5h-36
		c-3.59,0-6.5,2.91-6.5,6.5v44c0,3.59,2.91,6.5,6.5,6.5h36c3.59,0,6.5-2.91,6.5-6.5V-516.303z"/>
	<path clip-path="url(#SVGID_2_)" d="M589-474.303c0,0.828-0.672,1.5-1.5,1.5h-52c-0.828,0-1.5-0.672-1.5-1.5v-42
		c0-0.829,0.672-1.5,1.5-1.5h52c0.828,0,1.5,0.671,1.5,1.5V-474.303z M537-475.803h49v-39h-49V-475.803z"/>
	<path clip-path="url(#SVGID_2_)" d="M563.904-520.439c0,1.105-0.896,2-2,2c-1.105,0-2-0.895-2-2s0.895-2,2-2
		C563.009-522.439,563.904-521.544,563.904-520.439"/>
	<path clip-path="url(#SVGID_2_)" d="M564.573-468.803h-5c-0.828,0-1.5-0.672-1.5-1.5s0.672-1.5,1.5-1.5h5
		c0.828,0,1.5,0.672,1.5,1.5S565.401-468.803,564.573-468.803"/>
	<path clip-path="url(#SVGID_2_)" d="M549.379-483.54c-0.384,0-0.768-0.146-1.061-0.439c-0.586-0.586-0.586-1.536,0-2.122
		l22.9-22.899c0.586-0.586,1.535-0.586,2.121,0s0.586,1.535,0,2.121l-22.9,22.9C550.146-483.686,549.763-483.54,549.379-483.54"/>
	<path clip-path="url(#SVGID_2_)" d="M561.997-484.941c-0.384,0-0.768-0.146-1.062-0.439c-0.585-0.586-0.585-1.536,0-2.122
		l6.638-6.636c0.586-0.586,1.535-0.586,2.121,0s0.586,1.535,0,2.121l-6.637,6.637C562.765-485.087,562.381-484.941,561.997-484.941"
		/>
	<path clip-path="url(#SVGID_2_)" d="M721-487.303c0,5.247-4.253,9.5-9.5,9.5h-20c-5.247,0-9.5-4.253-9.5-9.5v-26
		c0-5.247,4.253-9.5,9.5-9.5h20c5.247,0,9.5,4.253,9.5,9.5V-487.303z M718-513.303c0-3.59-2.91-6.5-6.5-6.5h-20
		c-3.59,0-6.5,2.91-6.5,6.5v26c0,3.59,2.91,6.5,6.5,6.5h20c3.59,0,6.5-2.91,6.5-6.5V-513.303z"/>
	<path clip-path="url(#SVGID_2_)" d="M721-487.303c0,0.828-0.672,1.5-1.5,1.5h-36c-0.828,0-1.5-0.672-1.5-1.5v-26
		c0-0.829,0.672-1.5,1.5-1.5h36c0.828,0,1.5,0.671,1.5,1.5V-487.303z M685-488.803h33v-23h-33V-488.803z"/>
	<path clip-path="url(#SVGID_2_)" d="M703.573-481.803h-4c-0.828,0-1.5-0.672-1.5-1.5s0.672-1.5,1.5-1.5h4
		c0.828,0,1.5,0.672,1.5,1.5S704.401-481.803,703.573-481.803"/>
	<path clip-path="url(#SVGID_2_)" d="M693.338-491.209c-0.384,0-0.768-0.146-1.061-0.439c-0.586-0.586-0.586-1.536,0-2.122
		l16.216-16.214c0.586-0.586,1.534-0.586,2.12,0c0.587,0.586,0.587,1.535,0,2.121l-16.215,16.215
		C694.105-491.355,693.722-491.209,693.338-491.209"/>
	<path clip-path="url(#SVGID_2_)" d="M702.273-492.202c-0.384,0-0.768-0.146-1.061-0.439c-0.586-0.586-0.586-1.536,0-2.122
		l4.698-4.699c0.586-0.586,1.535-0.586,2.121,0s0.586,1.535,0,2.121l-4.698,4.7C703.041-492.348,702.657-492.202,702.273-492.202"/>
	<path clip-path="url(#SVGID_2_)" d="M691.573-463.803h-6c-0.828,0-1.5-0.672-1.5-1.5s0.672-1.5,1.5-1.5h6
		c0.828,0,1.5,0.672,1.5,1.5S692.401-463.803,691.573-463.803 M679.573-463.803h-6c-0.828,0-1.5-0.672-1.5-1.5s0.672-1.5,1.5-1.5h6
		c0.828,0,1.5,0.672,1.5,1.5S680.401-463.803,679.573-463.803 M667.573-463.803h-6c-0.828,0-1.5-0.672-1.5-1.5s0.672-1.5,1.5-1.5h6
		c0.828,0,1.5,0.672,1.5,1.5S668.401-463.803,667.573-463.803 M658.5-466.303c-0.828,0-1.5-0.672-1.5-1.5v-6
		c0-0.828,0.672-1.5,1.5-1.5s1.5,0.672,1.5,1.5v6C660-466.975,659.328-466.303,658.5-466.303 M658.5-478.303
		c-0.828,0-1.5-0.672-1.5-1.5v-6c0-0.828,0.672-1.5,1.5-1.5s1.5,0.672,1.5,1.5v6C660-478.975,659.328-478.303,658.5-478.303
		 M658.5-490.303c-0.828,0-1.5-0.672-1.5-1.5v-2.5c0-0.828,0.245-1.5,1.073-1.5h3.5c0.828,0,1.5,0.672,1.5,1.5s-0.672,1.5-1.5,1.5
		H660v1C660-490.975,659.328-490.303,658.5-490.303 M673.573-492.803h-6c-0.828,0-1.5-0.672-1.5-1.5s0.672-1.5,1.5-1.5h6
		c0.828,0,1.5,0.672,1.5,1.5S674.401-492.803,673.573-492.803"/>
	<path clip-path="url(#SVGID_2_)" d="M848-480.303c0,5.247-4.253,9.5-9.5,9.5h-44c-5.247,0-9.5-4.253-9.5-9.5v-35
		c0-5.247,4.253-9.5,9.5-9.5h44c5.247,0,9.5,4.253,9.5,9.5V-480.303z M845-515.303c0-3.59-2.91-6.5-6.5-6.5h-44
		c-3.59,0-6.5,2.91-6.5,6.5v35c0,3.59,2.91,6.5,6.5,6.5h44c3.59,0,6.5-2.91,6.5-6.5V-515.303z"/>
	<path clip-path="url(#SVGID_2_)" d="M826-464.303c0,0.828-0.672,1.5-1.5,1.5h-16c-0.828,0-1.5-0.672-1.5-1.5v-8
		c0-0.829,0.672-1.5,1.5-1.5h16c0.828,0,1.5,0.671,1.5,1.5V-464.303z M810-465.803h13v-5h-13V-465.803z"/>
	<path clip-path="url(#SVGID_2_)" d="M832.573-462.803h-33c-0.828,0-1.5-0.672-1.5-1.5s0.672-1.5,1.5-1.5h33
		c0.828,0,1.5,0.672,1.5,1.5S833.401-462.803,832.573-462.803"/>
	<path clip-path="url(#SVGID_2_)" d="M799.984-480.502c-0.384,0-0.768-0.146-1.061-0.439c-0.586-0.586-0.586-1.536,0-2.122
		l32.474-32.473c0.586-0.586,1.535-0.586,2.121,0c0.586,0.586,0.586,1.535,0,2.121l-32.474,32.474
		C800.752-480.648,800.368-480.502,799.984-480.502"/>
	<path clip-path="url(#SVGID_2_)" d="M817.878-482.49c-0.384,0-0.769-0.146-1.062-0.439c-0.585-0.586-0.585-1.536,0-2.122
		l9.412-9.411c0.586-0.586,1.535-0.586,2.121,0c0.586,0.586,0.586,1.535,0,2.121l-9.411,9.412
		C818.646-482.636,818.262-482.49,817.878-482.49"/>
</g>
<path fill="#FFFFFF" d="M64.143,41.845c0,4.504-3.857,8.155-8.617,8.155H15.617C10.857,50,7,46.349,7,41.845v-23.18
	c0-4.504,3.857-8.156,8.617-8.156h39.909c4.76,0,8.617,3.652,8.617,8.156V41.845z M61.422,18.665c0-3.082-2.64-5.58-5.896-5.58
	H15.617c-3.256,0-5.896,2.498-5.896,5.58v23.18c0,3.082,2.64,5.58,5.896,5.58h39.909c3.256,0,5.896-2.498,5.896-5.58V18.665z"/>
<path fill="#FFFFFF" d="M35.143,41.987c-6.433,0-11.666-4.954-11.666-11.042s5.233-11.041,11.666-11.041s11.666,4.953,11.666,11.041
	S41.575,41.987,35.143,41.987 M35.143,22.479c-4.932,0-8.944,3.799-8.944,8.466c0,4.669,4.013,8.467,8.944,8.467
	s8.944-3.798,8.944-8.467C44.087,26.278,40.074,22.479,35.143,22.479"/>
<path fill="#FFFFFF" d="M18.922,18.967c0,1.309-1.12,2.369-2.502,2.369s-2.504-1.061-2.504-2.369c0-1.308,1.122-2.368,2.504-2.368
	S18.922,17.659,18.922,18.967"/>
<path fill="#FFFFFF" d="M56.433,49.57c-0.751,0-1.36-0.577-1.36-1.287V7.934h-4.535v3.434c0,0.711-0.61,1.288-1.361,1.288
	s-1.36-0.577-1.36-1.288V6.646c0-0.711,0.223-1.288,0.974-1.288h7.256c0.75,0,1.748,0.577,1.748,1.288v41.637
	C57.794,48.993,57.185,49.57,56.433,49.57"/>
<path fill="#FFFFFF" d="M45.095,11.797c0,0.711-0.609,1.288-1.36,1.288H26.501c-0.751,0-1.36-0.577-1.36-1.288V5.788
	c0-0.712,0.609-1.288,1.36-1.288h17.234c0.751,0,1.36,0.576,1.36,1.288V11.797z M27.862,10.509h14.513V7.075H27.862V10.509z"/>
<rect id="_x3C_Slice_x3E_" x="4" fill="none" width="63" height="53"/>
</svg>
