<?xml version="1.0" encoding="utf-8"?>
<!-- Generator: Adobe Illustrator 16.0.0, SVG Export Plug-In . SVG Version: 6.00 Build 0)  -->
<!DOCTYPE svg PUBLIC "-//W3C//DTD SVG 1.1//EN" "http://www.w3.org/Graphics/SVG/1.1/DTD/svg11.dtd">
<svg version="1.1" id="Layer_1" xmlns="http://www.w3.org/2000/svg" xmlns:xlink="http://www.w3.org/1999/xlink" x="0px" y="0px"
	 width="131px" height="80px" viewBox="0 0 131 80" enable-background="new 0 0 131 80" xml:space="preserve">
<g>
	<g>
		<g>
			<polygon fill="#FFFFFF" points="102.473,11.303 98.565,5.375 99.586,11.303 			"/>
			<polygon fill="#FFFFFF" points="95.925,31.894 101.015,35.58 100.758,30.538 			"/>
			<polygon fill="#FFFFFF" points="72.831,31.145 84.396,25.57 74.862,21.215 			"/>
			<polygon fill="#FFFFFF" points="81.986,17.918 89.461,6.539 78.299,7.997 			"/>
			<polygon fill="#FFFFFF" points="47.087,37.758 51.914,29.492 30.336,37.758 			"/>
			<polygon fill="#FFFFFF" points="40.184,21.615 20.533,31.145 50.308,27.807 			"/>
			<polygon fill="#FFFFFF" points="70.43,15.254 54.833,11.303 62.031,22.923 			"/>
			<polygon fill="#FFFFFF" points="64.92,40.113 72.511,32.031 58.994,37.758 			"/>
			<polygon fill="#FFFFFF" points="95.668,11.303 91.568,11.303 96.007,12.411 			"/>
			<polygon fill="#FFFFFF" points="71.904,15.643 78.299,7.997 77.878,3.451 			"/>
			<polygon fill="#FFFFFF" points="98.565,5.375 89.461,6.539 99.586,11.303 			"/>
			<polygon fill="#FFFFFF" points="100.767,28.497 102.666,22.848 98.423,26.234 			"/>
		</g>
		<g>
			<polygon fill="#FFFFFF" points="49.54,37.758 57.849,39.412 53.528,31.145 			"/>
			<polygon fill="#FFFFFF" points="81.093,36.107 85.71,26.234 70.423,37.758 			"/>
			<polygon fill="#FFFFFF" points="54.048,16.197 43.749,21.223 59.961,24.529 			"/>
			<polygon fill="#FFFFFF" points="100.767,28.497 94.766,28.956 100.758,30.538 			"/>
			<polygon fill="#FFFFFF" points="99.128,16.264 102.688,22.877 102.273,14.587 97.781,14.587 96.007,12.411 87.501,15.275 
				95.233,19.57 			"/>
			<polygon fill="#FFFFFF" points="93.129,1.384 89.461,6.539 98.565,5.375 			"/>
			<polygon fill="#FFFFFF" points="77.175,11.339 74.896,19.108 79.84,18.003 			"/>
			<polygon fill="#FFFFFF" points="71.591,29.653 73.516,16.752 60.921,26.694 			"/>
			<polygon fill="#FFFFFF" points="74.717,4.69 58.994,11.192 69.267,12.991 			"/>
			<polygon fill="#FFFFFF" points="93.127,1.384 77.878,3.451 89.461,6.539 			"/>
			<polygon fill="#FFFFFF" points="99.541,36.879 96.018,39.989 100.771,38.963 101.015,35.58 98.351,33.652 			"/>
			<polygon fill="#FFFFFF" points="58.381,35.16 70.43,31.145 52.436,26.234 			"/>
			<polygon fill="#FFFFFF" points="27.139,37.758 42.074,30.167 6.337,36.103 			"/>
		</g>
	</g>
	<g>
		<path fill="#FFFFFF" d="M45.473,47.862l-2.62,16.437c-0.094,0.524-0.254,0.732-1.014,0.937c-2.053,0.562-4.45,0.906-6.473,0.906
			c-4.294,0-6.317-2.814-6.317-6.742c0-0.622,0.064-1.283,0.16-1.98l0.41-2.672c0.916-6.015,3.884-8.722,8.97-8.722
			c2.021,0,4.324,0.346,6.191,0.901c0.569,0.173,0.725,0.345,0.725,0.661C45.504,47.654,45.504,47.762,45.473,47.862z M37.99,49.777
			c-2.721,0-3.727,1.945-4.202,4.97l-0.411,2.672c-0.126,0.764-0.19,1.425-0.19,2.016c0,1.913,0.727,2.957,2.782,2.957
			c1.136,0,2.429-0.105,3.06-0.248l1.927-12.128C40.387,49.88,39.125,49.777,37.99,49.777z"/>
		<path fill="#FFFFFF" d="M81.372,53.458l-1.865,11.674c-0.061,0.384-0.378,0.731-0.722,0.731H75.81
			c-0.315,0-0.471-0.278-0.471-0.592c0-0.036,0-0.103,0-0.14l1.928-12.018c0.063-0.453,0.126-0.873,0.126-1.289
			c0-1.111-0.413-1.979-1.962-1.979h-1.764c-1.837,0-2.277,0.868-2.656,3.269l-1.929,12.018c-0.061,0.384-0.376,0.731-0.723,0.731
			h-2.973c-0.312,0-0.469-0.278-0.469-0.592c0-0.036,0-0.103,0-0.14l1.925-12.018c0.855-5.282,2.654-7.089,7.455-7.089h1.64
			c3.604,0,5.559,2.533,5.559,5.903C81.496,52.413,81.464,52.938,81.372,53.458z"/>
		<path fill="#FFFFFF" d="M99.602,55.13l-0.25,1.664c-0.095,0.557-0.315,0.868-0.756,0.868H88.3
			c-0.062,0.486-0.156,0.94-0.156,1.428c0,1.874,0.882,3.123,3.218,3.123c2.308,0,4.485-0.237,5.842-0.379c0.032,0,0.097,0,0.127,0
			c0.254,0,0.477,0.066,0.477,0.379c0,0.035,0,0.11,0,0.146l-0.381,2.289c-0.096,0.555-0.19,0.8-0.786,0.903
			c-2.119,0.42-3.509,0.591-6.352,0.591c-2.811,0-6.221-1.738-6.221-6.985c0-0.626,0.03-1.354,0.158-2.079l0.348-2.158
			c1.039-6.496,4.168-8.894,9.002-8.894c4.197,0,6.19,3.056,6.19,7.122C99.766,53.773,99.701,54.466,99.602,55.13z M92.941,49.982
			c-2.525,0-3.694,1.878-4.105,4.414h6.697c0.061-0.45,0.127-0.869,0.127-1.32C95.66,51.062,94.681,49.982,92.941,49.982z"/>
		<path fill="#FFFFFF" d="M113.638,46.96l-0.315,2.051c-0.064,0.381-0.412,0.694-0.759,0.694h-4.452l-1.799,11.225
			c-0.033,0.24-0.065,0.449-0.065,0.623c0,0.839,0.476,1.012,1.736,1.012h2.497c0.282,0,0.568,0.102,0.568,0.417
			c0,0.03,0,0.067,0,0.101l-0.347,2.153c-0.063,0.35-0.289,0.562-0.696,0.628c-0.788,0.14-2.4,0.278-3.727,0.278
			c-2.402,0-4.266-1.146-4.266-3.998c0-0.38,0.033-0.765,0.098-1.214l2.811-17.514c0.064-0.385,0.376-0.625,0.726-0.695l3.032-0.557
			c0.033,0,0.062,0,0.096,0c0.284,0,0.442,0.281,0.442,0.592c0,0.035,0,0.071,0,0.107l-0.568,3.404h4.453
			c0.313,0,0.535,0.277,0.535,0.591c0,0.035,0,0.035,0,0.068V46.96z"/>
		<path fill="#FFFFFF" d="M129.814,54.675l-0.475,2.815c-0.978,5.733-3.947,8.651-8.906,8.651c-4.298,0-6.313-3.337-6.313-6.985
			c0-0.554,0.027-1.111,0.124-1.666l0.473-2.815c1.012-6.047,3.98-8.649,8.939-8.649c4.326,0,6.314,3.193,6.314,6.842
			C129.971,53.458,129.906,54.084,129.814,54.675z M123.025,49.982c-1.928,0-3.57,1.252-4.137,4.692l-0.475,2.815
			c-0.092,0.555-0.126,1.078-0.126,1.529c0,2.051,0.913,3.162,2.778,3.162c2.213,0,3.569-1.461,4.105-4.691l0.475-2.815
			c0.092-0.556,0.126-1.077,0.126-1.527C125.772,51.097,124.886,49.982,123.025,49.982z"/>
		<path fill="#FFFFFF" d="M62.686,46.454c-1.624-0.221-3.845-0.429-5.864-0.429c-5.086,0-7.958,2.221-8.969,8.722l-0.411,2.672
			c-0.129,0.764-0.161,1.463-0.161,2.123c0,4.687,2.874,6.564,6.54,6.564c0.276,0,0.607-0.02,0.954-0.053
			c1.728-0.104,3.605-0.413,5.257-0.86c0.761-0.208,0.919-0.418,1.013-0.938c0,0,1.097-6.737,1.097-7.088
			c0-0.293-0.18-0.526-0.477-0.526h-2.679c-0.33,0-0.629,0.297-0.687,0.66l-0.746,4.759c-0.133,0.021-0.355,0.062-0.378,0.062
			c-0.914,0.138-2.239,0.271-2.975,0.271c-2.116,0-2.811-0.941-2.811-2.786c0-0.621,0.092-1.353,0.221-2.187l0.411-2.672
			c0.502-3.338,1.612-4.97,4.202-4.97c0.925,0,4.72,0.283,6.094,0.391c0.315,0.021,0.524-0.159,0.619-0.527
			c0.087-0.374,0.456-2.314,0.479-2.493C63.47,46.735,63.173,46.52,62.686,46.454z"/>
		<path fill="#FFFFFF" d="M26.247,53.013L24.32,65.146c-0.06,0.383-0.379,0.733-0.725,0.733h-2.971
			c-0.316,0-0.472-0.281-0.472-0.593c0-0.037,0-0.106,0-0.141l1.989-12.481c0.064-0.451,0.126-0.834,0.126-1.178
			c0-1.045-0.438-1.636-1.895-1.636h-0.759c-1.833,0-2.211,0.871-2.525,2.813l-1.991,12.481c-0.064,0.383-0.378,0.733-0.727,0.733
			h-3.001c-0.316,0-0.474-0.281-0.474-0.593c0-0.037,0-0.106,0-0.141l1.989-12.481c0.066-0.413,0.128-0.834,0.128-1.178
			c0-0.941-0.381-1.636-1.773-1.636h-0.753c-1.458,0-2.277,0.455-2.658,2.813L5.839,65.146c-0.065,0.383-0.381,0.733-0.728,0.733
			H2.141c-0.314,0-0.475-0.281-0.475-0.593c0-0.037,0-0.106,0-0.141L3.66,52.664c0.789-4.969,3.443-6.637,7.459-6.637h0.753
			c1.803,0,3.097,0.486,3.92,1.357c1.105-0.938,2.78-1.357,4.455-1.357h0.759c3.7,0,5.402,1.88,5.402,5.145
			C26.408,51.764,26.343,52.356,26.247,53.013z"/>
	</g>
	<g>
		<path fill="#FFFFFF" d="M80.403,70.84h4.955l-0.175,1.116h-3.767l-0.361,2.311h3.491l-0.175,1.117h-3.505l-0.418,2.627h3.778
			l-0.174,1.116h-4.982L80.403,70.84z"/>
		<path fill="#FFFFFF" d="M88.354,70.84h1.202l-1.145,7.124h3.578l-0.174,1.163h-4.795L88.354,70.84z"/>
		<path fill="#FFFFFF" d="M95.812,70.84h4.952l-0.174,1.116h-3.766l-0.361,2.311h3.489l-0.172,1.117h-3.507l-0.421,2.627h3.782
			l-0.173,1.116h-4.983L95.812,70.84z"/>
		<path fill="#FFFFFF" d="M104.659,72.355l-1.087,6.771h-1.144l1.316-8.287h1.535l2.392,6.837l1.103-6.837h1.158l-1.319,8.287
			h-1.549L104.659,72.355z"/>
		<path fill="#FFFFFF" d="M112.016,77.391c0-0.191,0.026-0.415,0.058-0.605l0.594-3.714c0.304-1.848,1.217-2.391,3.23-2.391
			c0.638,0,1.376,0.095,2.057,0.303l-0.188,1.036c-0.652-0.128-1.419-0.223-1.97-0.223c-1.289,0-1.769,0.303-1.957,1.449
			l-0.563,3.522c-0.015,0.097-0.043,0.318-0.043,0.494c0,0.701,0.392,0.908,1.562,0.908c0.609,0,1.247-0.08,1.957-0.223l0.059,1.051
			c-0.711,0.176-1.479,0.287-2.203,0.287C112.783,79.286,112.016,78.634,112.016,77.391z"/>
		<path fill="#FFFFFF" d="M119.503,77.151c0-0.176,0.015-0.366,0.042-0.558l0.537-3.363c0.288-1.8,1.16-2.55,3.49-2.55
			c1.781,0,2.65,1.02,2.65,2.312c0,0.173-0.013,0.333-0.044,0.509l-0.506,3.187c-0.262,1.609-0.913,2.598-3.476,2.598
			C120.255,79.286,119.503,78.395,119.503,77.151z M124.992,73.406c0.028-0.143,0.043-0.287,0.043-0.413
			c0-0.798-0.492-1.196-1.65-1.196c-1.494,0-1.943,0.446-2.131,1.609l-0.507,3.188c-0.027,0.175-0.027,0.365-0.027,0.431
			c0,0.732,0.392,1.146,1.65,1.146c1.303,0,1.928-0.431,2.086-1.418L124.992,73.406z"/>
	</g>
</g>
</svg>
