<?xml version="1.0" encoding="utf-8"?>
<!-- Generator: Adobe Illustrator 16.0.0, SVG Export Plug-In . SVG Version: 6.00 Build 0)  -->
<!DOCTYPE svg PUBLIC "-//W3C//DTD SVG 1.1//EN" "http://www.w3.org/Graphics/SVG/1.1/DTD/svg11.dtd">
<svg version="1.1" id="Layer_1" xmlns="http://www.w3.org/2000/svg" xmlns:xlink="http://www.w3.org/1999/xlink" x="0px" y="0px"
	 width="40px" height="41px" viewBox="0 0 40 41" enable-background="new 0 0 40 41" xml:space="preserve">
<g>
	<defs>
		<rect id="SVGID_1_" x="-448" y="-891" width="1300" height="833"/>
	</defs>
	<clipPath id="SVGID_2_">
		<use xlink:href="#SVGID_1_"  overflow="visible"/>
	</clipPath>
	<path clip-path="url(#SVGID_2_)" d="M-382.113-778.657l1.494-15.249h15.601v1.164h-14.524l-1.297,12.832
		c0.264-0.219,0.623-0.457,1.078-0.714c0.454-0.256,0.969-0.487,1.548-0.692c0.579-0.205,1.216-0.377,1.912-0.516
		c0.696-0.138,1.417-0.209,2.165-0.209c1.377,0,2.643,0.224,3.8,0.67c1.158,0.447,2.154,1.099,2.989,1.956
		c0.835,0.857,1.487,1.901,1.956,3.131c0.468,1.231,0.703,2.622,0.703,4.175c0,1.538-0.165,2.955-0.494,4.252
		c-0.33,1.296-0.858,2.417-1.582,3.361c-0.726,0.945-1.66,1.686-2.802,2.22c-1.143,0.534-2.52,0.802-4.131,0.802
		c-1.26,0-2.439-0.18-3.538-0.538c-1.099-0.359-2.069-0.906-2.911-1.638c-0.843-0.733-1.531-1.654-2.066-2.768
		c-0.535-1.113-0.86-2.418-0.977-3.912h1.208c0.234,2.506,1.055,4.41,2.461,5.713c1.406,1.305,3.347,1.956,5.823,1.956
		c2.637,0,4.596-0.794,5.878-2.384c1.281-1.59,1.922-3.929,1.922-7.021c0-1.245-0.18-2.406-0.538-3.483
		c-0.36-1.077-0.887-2.006-1.582-2.791c-0.697-0.783-1.557-1.398-2.582-1.845c-1.026-0.447-2.198-0.67-3.516-0.67
		c-0.85,0-1.618,0.058-2.307,0.176c-0.688,0.117-1.318,0.286-1.889,0.504c-0.572,0.221-1.096,0.489-1.572,0.803
		c-0.476,0.315-0.918,0.67-1.329,1.066L-382.113-778.657z"/>
	<path clip-path="url(#SVGID_2_)" d="M-340.672-774.965c0,2.094-0.206,3.973-0.616,5.635c-0.41,1.664-1.017,3.077-1.823,4.242
		c-0.806,1.164-1.802,2.057-2.988,2.68c-1.187,0.622-2.557,0.934-4.11,0.934c-1.538,0-2.9-0.312-4.087-0.934
		c-1.186-0.623-2.189-1.516-3.009-2.68c-0.821-1.165-1.444-2.578-1.868-4.242c-0.425-1.662-0.637-3.541-0.637-5.635v-5.889
		c0-2.08,0.208-3.955,0.626-5.625c0.417-1.67,1.032-3.091,1.846-4.263c0.812-1.172,1.812-2.068,2.999-2.691
		c1.186-0.623,2.548-0.934,4.086-0.934c1.539,0,2.905,0.311,4.098,0.934c1.194,0.623,2.197,1.519,3.011,2.691
		c0.812,1.172,1.428,2.593,1.846,4.263c0.417,1.67,0.626,3.545,0.626,5.625V-774.965z M-341.859-780.854
		c0-1.831-0.172-3.505-0.517-5.021c-0.343-1.516-0.864-2.816-1.559-3.9c-0.696-1.084-1.568-1.923-2.615-2.516
		c-1.047-0.593-2.282-0.89-3.703-0.89c-1.406,0-2.636,0.297-3.691,0.89c-1.055,0.593-1.926,1.432-2.614,2.516
		c-0.689,1.084-1.205,2.384-1.55,3.9c-0.344,1.516-0.516,3.19-0.516,5.021v5.845c0,1.801,0.172,3.457,0.516,4.966
		c0.345,1.508,0.868,2.812,1.571,3.911c0.703,1.098,1.582,1.952,2.637,2.559c1.055,0.609,2.285,0.912,3.691,0.912
		c1.421,0,2.656-0.303,3.703-0.912c1.047-0.607,1.916-1.461,2.604-2.559c0.689-1.099,1.201-2.403,1.538-3.911
		c0.337-1.509,0.505-3.165,0.505-4.966V-780.854z"/>
	<path clip-path="url(#SVGID_2_)" d="M-323.71-793.115c0-0.337,0.117-0.626,0.352-0.868c0.234-0.242,0.52-0.363,0.857-0.363
		s0.626,0.121,0.868,0.363c0.241,0.242,0.362,0.531,0.362,0.868c0,0.337-0.121,0.623-0.362,0.857
		c-0.242,0.235-0.531,0.352-0.868,0.352s-0.623-0.117-0.857-0.352C-323.593-792.492-323.71-792.778-323.71-793.115
		 M-321.908-761.914h-1.187v-23.774h1.187V-761.914z"/>
	<path clip-path="url(#SVGID_2_)" d="M-306.044-762.661c0.923,0,1.827-0.124,2.714-0.374c0.886-0.248,1.681-0.633,2.384-1.153
		s1.282-1.187,1.736-1.999c0.454-0.814,0.718-1.791,0.791-2.934h1.187c-0.059,1.216-0.334,2.296-0.825,3.241
		c-0.491,0.945-1.135,1.743-1.933,2.395c-0.799,0.652-1.718,1.15-2.758,1.494c-1.04,0.345-2.139,0.517-3.296,0.517
		c-1.538,0-2.911-0.293-4.119-0.879c-1.209-0.586-2.228-1.403-3.055-2.451c-0.828-1.046-1.458-2.295-1.889-3.746
		c-0.433-1.45-0.649-3.047-0.649-4.79v-0.923c0-1.743,0.216-3.339,0.649-4.79c0.431-1.45,1.061-2.699,1.889-3.746
		c0.827-1.047,1.838-1.864,3.032-2.45c1.194-0.586,2.56-0.879,4.098-0.879c1.143,0,2.237,0.176,3.285,0.528
		c1.047,0.351,1.974,0.876,2.78,1.571c0.805,0.695,1.458,1.559,1.956,2.593c0.498,1.032,0.776,2.229,0.835,3.592h-1.187
		c-0.059-1.187-0.308-2.222-0.747-3.109c-0.44-0.887-1.008-1.626-1.703-2.22c-0.696-0.592-1.494-1.036-2.395-1.329
		c-0.901-0.293-1.843-0.439-2.824-0.439c-1.45,0-2.71,0.278-3.779,0.835c-1.07,0.556-1.952,1.318-2.648,2.285
		c-0.696,0.967-1.212,2.098-1.549,3.394c-0.336,1.297-0.505,2.685-0.505,4.164v0.923c0,1.494,0.169,2.89,0.505,4.186
		c0.337,1.297,0.857,2.425,1.56,3.384c0.703,0.96,1.59,1.717,2.659,2.274C-308.775-762.939-307.509-762.661-306.044-762.661"/>
	<path clip-path="url(#SVGID_2_)" d="M-293.081-774.263c0-1.743,0.253-3.34,0.758-4.79c0.506-1.45,1.216-2.699,2.132-3.746
		c0.915-1.047,2.011-1.864,3.285-2.45c1.275-0.586,2.681-0.879,4.219-0.879c1.553,0,2.97,0.293,4.251,0.879
		c1.282,0.586,2.377,1.403,3.285,2.45c0.908,1.047,1.615,2.296,2.12,3.746c0.506,1.45,0.759,3.047,0.759,4.79v0.923
		c0,1.743-0.249,3.34-0.747,4.79s-1.205,2.699-2.121,3.746c-0.915,1.048-2.01,1.864-3.284,2.45
		c-1.275,0.586-2.681,0.879-4.219,0.879c-1.553,0-2.971-0.293-4.252-0.879c-1.282-0.586-2.381-1.402-3.296-2.45
		c-0.916-1.047-1.626-2.296-2.132-3.746c-0.505-1.45-0.758-3.047-0.758-4.79V-774.263z M-291.894-773.34
		c0,1.421,0.209,2.775,0.626,4.064c0.418,1.29,1.022,2.425,1.813,3.407c0.791,0.981,1.758,1.761,2.901,2.34
		c1.142,0.579,2.446,0.868,3.911,0.868c1.45,0,2.742-0.289,3.878-0.868c1.135-0.579,2.095-1.359,2.878-2.34
		c0.784-0.982,1.385-2.117,1.802-3.407c0.418-1.289,0.627-2.643,0.627-4.064v-0.923c0-1.391-0.209-2.727-0.627-4.01
		c-0.417-1.282-1.022-2.417-1.813-3.406c-0.791-0.988-1.758-1.779-2.9-2.373c-1.143-0.593-2.439-0.89-3.889-0.89
		c-1.45,0-2.747,0.297-3.89,0.89c-1.142,0.594-2.105,1.385-2.889,2.373c-0.783,0.989-1.384,2.124-1.802,3.406
		c-0.417,1.283-0.626,2.619-0.626,4.01V-773.34z"/>
	<path clip-path="url(#SVGID_2_)" d="M-263.977-782.502c0.549-0.732,1.183-1.366,1.9-1.901c0.718-0.535,1.512-0.956,2.384-1.263
		c0.871-0.309,1.806-0.462,2.802-0.462c1.201,0,2.27,0.165,3.208,0.494c0.937,0.33,1.728,0.851,2.373,1.561
		c0.645,0.71,1.135,1.622,1.472,2.735c0.337,1.113,0.506,2.461,0.506,4.043v15.381h-1.187v-15.381c0-1.509-0.158-2.758-0.473-3.746
		c-0.315-0.989-0.757-1.773-1.329-2.352c-0.571-0.578-1.253-0.984-2.044-1.218c-0.791-0.235-1.655-0.352-2.592-0.352
		c-0.865,0-1.656,0.12-2.374,0.362c-0.717,0.242-1.366,0.568-1.944,0.978c-0.579,0.41-1.095,0.879-1.549,1.406
		c-0.454,0.527-0.845,1.084-1.175,1.67s-0.605,1.172-0.825,1.758c-0.219,0.586-0.387,1.135-0.505,1.648v15.227h-1.186v-23.775h1.186
		v5.538C-264.977-780.986-264.526-781.77-263.977-782.502"/>
	<path clip-path="url(#SVGID_2_)" d="M-227.228-767.736c0-0.543-0.103-1.092-0.308-1.648c-0.205-0.557-0.579-1.095-1.121-1.616
		c-0.542-0.519-1.281-1.003-2.218-1.45c-0.938-0.446-2.139-0.831-3.604-1.153c-1.333-0.279-2.502-0.594-3.505-0.945
		c-1.004-0.352-1.842-0.78-2.515-1.286c-0.674-0.505-1.18-1.105-1.517-1.801s-0.505-1.527-0.505-2.494
		c0-0.836,0.183-1.615,0.549-2.34c0.366-0.725,0.89-1.359,1.571-1.901c0.681-0.542,1.513-0.97,2.494-1.285
		c0.982-0.315,2.095-0.473,3.34-0.473c1.333,0,2.523,0.165,3.57,0.495s1.938,0.791,2.67,1.384c0.733,0.593,1.292,1.308,1.681,2.142
		c0.388,0.836,0.582,1.758,0.582,2.769h-1.208c0-0.732-0.161-1.435-0.483-2.109c-0.323-0.674-0.791-1.271-1.407-1.791
		c-0.615-0.519-1.377-0.934-2.285-1.242c-0.908-0.307-1.948-0.461-3.12-0.461c-1.201,0-2.23,0.143-3.088,0.429
		c-0.856,0.285-1.555,0.659-2.097,1.12c-0.542,0.462-0.942,0.974-1.199,1.538c-0.256,0.564-0.383,1.124-0.383,1.68
		c0,0.616,0.084,1.184,0.252,1.704s0.512,1.004,1.033,1.45c0.519,0.447,1.252,0.868,2.197,1.263
		c0.944,0.396,2.186,0.769,3.725,1.121c1.42,0.322,2.639,0.689,3.658,1.099c1.017,0.41,1.856,0.89,2.515,1.439
		c0.66,0.549,1.143,1.182,1.451,1.901c0.307,0.717,0.462,1.545,0.462,2.482c0,0.923-0.195,1.766-0.583,2.528
		c-0.388,0.762-0.945,1.417-1.67,1.966c-0.725,0.549-1.604,0.977-2.637,1.286c-1.032,0.306-2.186,0.461-3.46,0.461
		c-1.436,0-2.707-0.172-3.813-0.517c-1.106-0.344-2.036-0.812-2.791-1.406c-0.754-0.593-1.325-1.281-1.713-2.066
		c-0.388-0.783-0.582-1.615-0.582-2.494h1.186c0.073,1.026,0.355,1.879,0.846,2.561c0.491,0.681,1.098,1.223,1.824,1.626
		c0.725,0.403,1.53,0.688,2.417,0.856c0.886,0.169,1.762,0.253,2.626,0.253c1.172,0,2.204-0.146,3.098-0.439
		c0.893-0.293,1.64-0.681,2.241-1.165c0.6-0.483,1.054-1.029,1.362-1.637C-227.381-766.509-227.228-767.121-227.228-767.736"/>
	<path clip-path="url(#SVGID_2_)" d="M-196.135-761.914c-0.161-0.557-0.275-1.227-0.34-2.011c-0.066-0.783-0.1-1.564-0.1-2.34
		c-0.395,0.645-0.885,1.257-1.471,1.835c-0.586,0.578-1.268,1.088-2.044,1.527c-0.777,0.44-1.648,0.787-2.615,1.043
		c-0.966,0.256-2.043,0.385-3.23,0.385c-1.113,0-2.12-0.158-3.021-0.473c-0.901-0.314-1.669-0.757-2.307-1.329
		c-0.637-0.571-1.128-1.253-1.472-2.044c-0.345-0.791-0.516-1.662-0.516-2.614c0-1.055,0.249-2.028,0.747-2.923
		c0.498-0.892,1.219-1.658,2.164-2.296c0.945-0.636,2.098-1.134,3.461-1.494c1.362-0.358,2.9-0.538,4.614-0.538h5.69v-3.472
		c0-1.992-0.626-3.538-1.878-4.635c-1.253-1.1-3.044-1.649-5.373-1.649c-1.084,0-2.087,0.147-3.009,0.44
		c-0.923,0.293-1.725,0.699-2.407,1.219c-0.68,0.521-1.215,1.136-1.603,1.846c-0.389,0.71-0.583,1.476-0.583,2.296l-1.187-0.044
		c0-0.923,0.216-1.806,0.649-2.647c0.431-0.842,1.04-1.582,1.824-2.22c0.783-0.637,1.714-1.143,2.79-1.516
		c1.077-0.374,2.252-0.56,3.526-0.56c1.231,0,2.363,0.157,3.396,0.472c1.032,0.316,1.922,0.785,2.669,1.407s1.33,1.406,1.747,2.35
		c0.418,0.946,0.626,2.04,0.626,3.285v11.91c0,0.424,0.015,0.86,0.044,1.307c0.029,0.447,0.069,0.871,0.121,1.275
		c0.051,0.403,0.113,0.78,0.186,1.131c0.074,0.352,0.162,0.645,0.264,0.879v0.198H-196.135z M-205.935-762.639
		c1.143,0,2.201-0.133,3.176-0.396c0.973-0.264,1.852-0.645,2.636-1.143s1.472-1.094,2.066-1.79
		c0.593-0.696,1.087-1.483,1.482-2.362v-5.647h-5.625c-1.538,0-2.915,0.15-4.131,0.45c-1.215,0.3-2.248,0.722-3.097,1.263
		c-0.85,0.543-1.502,1.191-1.956,1.945c-0.454,0.754-0.681,1.578-0.681,2.472c0,0.718,0.15,1.392,0.45,2.021
		c0.3,0.63,0.722,1.183,1.264,1.66c0.542,0.476,1.187,0.849,1.934,1.12C-207.669-762.774-206.843-762.639-205.935-762.639"/>
	<path clip-path="url(#SVGID_2_)" d="M-177.26-784.832c-0.234-0.029-0.48-0.059-0.736-0.088c-0.257-0.029-0.524-0.043-0.802-0.043
		c-1.099,0-2.088,0.19-2.967,0.57c-0.879,0.381-1.641,0.906-2.285,1.572c-0.645,0.667-1.176,1.454-1.593,2.362
		c-0.418,0.908-0.721,1.897-0.912,2.967v15.578h-1.186v-23.774h1.186v4.944c0.645-1.656,1.611-2.967,2.9-3.934
		c1.29-0.966,2.909-1.45,4.857-1.45c0.366,0,0.688,0.023,0.967,0.066c0.278,0.044,0.512,0.103,0.703,0.175L-177.26-784.832z"/>
	<path clip-path="url(#SVGID_2_)" d="M-162.209-784.832c-0.234-0.029-0.479-0.059-0.735-0.088c-0.257-0.029-0.525-0.043-0.803-0.043
		c-1.099,0-2.087,0.19-2.966,0.57c-0.879,0.381-1.641,0.906-2.285,1.572c-0.645,0.667-1.176,1.454-1.593,2.362
		c-0.418,0.908-0.722,1.897-0.912,2.967v15.578h-1.186v-23.774h1.186v4.944c0.645-1.656,1.611-2.967,2.9-3.934
		c1.29-0.966,2.908-1.45,4.856-1.45c0.366,0,0.688,0.023,0.967,0.066c0.278,0.044,0.512,0.103,0.703,0.175L-162.209-784.832z"/>
	<path clip-path="url(#SVGID_2_)" d="M-159.88-774.263c0-1.743,0.253-3.34,0.758-4.79c0.506-1.45,1.216-2.699,2.132-3.746
		c0.915-1.047,2.011-1.864,3.285-2.45c1.275-0.586,2.681-0.879,4.219-0.879c1.553,0,2.97,0.293,4.251,0.879
		c1.282,0.586,2.377,1.403,3.285,2.45c0.908,1.047,1.615,2.296,2.12,3.746c0.506,1.45,0.759,3.047,0.759,4.79v0.923
		c0,1.743-0.249,3.34-0.747,4.79s-1.205,2.699-2.121,3.746c-0.915,1.048-2.01,1.864-3.284,2.45
		c-1.275,0.586-2.681,0.879-4.219,0.879c-1.553,0-2.971-0.293-4.252-0.879c-1.282-0.586-2.381-1.402-3.296-2.45
		c-0.916-1.047-1.626-2.296-2.132-3.746c-0.505-1.45-0.758-3.047-0.758-4.79V-774.263z M-158.693-773.34
		c0,1.421,0.209,2.775,0.626,4.064c0.418,1.29,1.022,2.425,1.813,3.407c0.791,0.981,1.758,1.761,2.901,2.34
		c1.142,0.579,2.446,0.868,3.911,0.868c1.45,0,2.742-0.289,3.878-0.868c1.135-0.579,2.095-1.359,2.878-2.34
		c0.784-0.982,1.385-2.117,1.802-3.407c0.418-1.289,0.627-2.643,0.627-4.064v-0.923c0-1.391-0.209-2.727-0.627-4.01
		c-0.417-1.282-1.022-2.417-1.813-3.406c-0.791-0.988-1.758-1.779-2.9-2.373c-1.143-0.593-2.439-0.89-3.889-0.89
		c-1.45,0-2.747,0.297-3.89,0.89c-1.142,0.594-2.105,1.385-2.889,2.373c-0.783,0.989-1.384,2.124-1.802,3.406
		c-0.417,1.283-0.626,2.619-0.626,4.01V-773.34z"/>
	<polygon clip-path="url(#SVGID_2_)" points="-129.052,-768.791 -127.756,-763.672 -126.13,-768.791 -120.79,-785.688 
		-119.582,-785.688 -114.265,-768.791 -112.66,-763.672 -111.321,-768.791 -106.487,-785.688 -105.102,-785.688 -112.024,-761.914 
		-113.21,-761.914 -119.076,-779.777 -120.198,-784.041 -121.406,-779.777 -127.185,-761.914 -128.371,-761.914 -135.271,-785.688 
		-133.908,-785.688 	"/>
	<path clip-path="url(#SVGID_2_)" d="M-84.602-767.736c0-0.543-0.103-1.092-0.308-1.648c-0.205-0.557-0.578-1.095-1.12-1.616
		c-0.542-0.519-1.282-1.003-2.219-1.45c-0.938-0.446-2.139-0.831-3.604-1.153c-1.333-0.279-2.501-0.594-3.504-0.945
		c-1.004-0.352-1.843-0.78-2.516-1.286c-0.674-0.505-1.179-1.105-1.516-1.801s-0.506-1.527-0.506-2.494
		c0-0.836,0.184-1.615,0.55-2.34c0.366-0.725,0.889-1.359,1.571-1.901c0.681-0.542,1.512-0.97,2.493-1.285
		c0.982-0.315,2.095-0.473,3.34-0.473c1.333,0,2.524,0.165,3.571,0.495s1.937,0.791,2.669,1.384
		c0.733,0.593,1.293,1.308,1.682,2.142c0.388,0.836,0.582,1.758,0.582,2.769h-1.209c0-0.732-0.161-1.435-0.483-2.109
		c-0.323-0.674-0.791-1.271-1.407-1.791c-0.615-0.519-1.377-0.934-2.285-1.242c-0.908-0.307-1.948-0.461-3.12-0.461
		c-1.201,0-2.229,0.143-3.087,0.429c-0.856,0.285-1.556,0.659-2.098,1.12c-0.542,0.462-0.942,0.974-1.198,1.538
		c-0.257,0.564-0.384,1.124-0.384,1.68c0,0.616,0.084,1.184,0.252,1.704s0.513,1.004,1.034,1.45
		c0.519,0.447,1.252,0.868,2.197,1.263c0.944,0.396,2.185,0.769,3.724,1.121c1.42,0.322,2.64,0.689,3.659,1.099
		c1.017,0.41,1.856,0.89,2.515,1.439c0.66,0.549,1.143,1.182,1.451,1.901c0.307,0.717,0.461,1.545,0.461,2.482
		c0,0.923-0.195,1.766-0.583,2.528c-0.388,0.762-0.944,1.417-1.669,1.966c-0.725,0.549-1.604,0.977-2.637,1.286
		c-1.032,0.306-2.187,0.461-3.461,0.461c-1.436,0-2.706-0.172-3.812-0.517c-1.106-0.344-2.037-0.812-2.791-1.406
		c-0.755-0.593-1.326-1.281-1.713-2.066c-0.389-0.783-0.583-1.615-0.583-2.494h1.187c0.073,1.026,0.354,1.879,0.846,2.561
		c0.49,0.681,1.098,1.223,1.824,1.626c0.725,0.403,1.53,0.688,2.417,0.856c0.886,0.169,1.761,0.253,2.625,0.253
		c1.172,0,2.205-0.146,3.099-0.439c0.893-0.293,1.64-0.681,2.241-1.165c0.6-0.483,1.054-1.029,1.362-1.637
		C-84.754-766.509-84.602-767.121-84.602-767.736"/>
	<path clip-path="url(#SVGID_2_)" d="M-321.513-394.264c-0.384,0-0.768-0.146-1.061-0.439l-28.939-28.939l-28.939,28.939
		c-0.586,0.586-1.536,0.586-2.122,0c-0.585-0.586-0.585-1.535,0-2.121l29.287-29.363c0.473-0.475,1.104-0.812,1.774-0.812h0.002
		c0.671,0,1.301,0.339,1.773,0.813l29.286,29.324c0.585,0.586,0.585,1.554,0,2.14C-320.745-394.43-321.129-394.264-321.513-394.264"
		/>
	<path clip-path="url(#SVGID_2_)" d="M-328.301-387.408c-0.384,0-0.768-0.146-1.061-0.439l-22.151-22.15l-22.151,22.15
		c-0.586,0.586-1.535,0.586-2.121,0s-0.586-1.535,0-2.121l23.212-23.211c0.585-0.586,1.535-0.586,2.121,0l23.212,23.211
		c0.585,0.586,0.585,1.535,0,2.121C-327.533-387.555-327.917-387.408-328.301-387.408"/>
	<path clip-path="url(#SVGID_2_)" d="M-224.106-387.408c-0.67,0-1.301-0.261-1.774-0.735l-29.287-29.286
		c-0.585-0.585-0.585-1.534,0-2.12c0.586-0.586,1.536-0.586,2.122,0l28.939,28.938l28.939-28.938c0.586-0.586,1.536-0.586,2.122,0
		c0.585,0.586,0.585,1.535,0,2.12l-29.287,29.286C-222.805-387.669-223.437-387.408-224.106-387.408"/>
	<path clip-path="url(#SVGID_2_)" d="M-224.106-400.634c-0.384,0-0.768-0.146-1.061-0.439l-23.211-23.212
		c-0.586-0.586-0.586-1.535,0-2.121c0.585-0.586,1.535-0.586,2.121,0l22.151,22.151l22.151-22.151c0.586-0.586,1.536-0.586,2.121,0
		c0.586,0.586,0.586,1.535,0,2.121l-23.211,23.212C-223.338-400.779-223.723-400.634-224.106-400.634"/>
	<path clip-path="url(#SVGID_2_)" d="M-87.115-375.627c-0.384,0-0.768-0.146-1.061-0.439l-29.285-29.285
		c-0.474-0.474-0.735-1.104-0.735-1.774c0-0.671,0.261-1.302,0.735-1.775l29.285-29.286c0.586-0.586,1.536-0.586,2.122,0
		c0.585,0.586,0.585,1.535,0,2.121l-28.939,28.94l28.939,28.938c0.585,0.586,0.585,1.535,0,2.121
		C-86.347-375.773-86.731-375.627-87.115-375.627"/>
	<path clip-path="url(#SVGID_2_)" d="M-80.259-382.415c-0.384,0-0.768-0.146-1.061-0.438l-23.211-23.213
		c-0.282-0.281-0.44-0.662-0.44-1.061c0-0.397,0.158-0.779,0.44-1.06l23.211-23.212c0.586-0.586,1.536-0.586,2.122,0
		c0.585,0.587,0.585,1.535,0,2.121l-22.152,22.15l22.152,22.151c0.585,0.586,0.585,1.535,0,2.122
		C-79.491-382.561-79.875-382.415-80.259-382.415"/>
	<path clip-path="url(#SVGID_2_)" d="M21.3-375.627c-0.384,0-0.768-0.146-1.061-0.439c-0.585-0.586-0.585-1.535,0-2.121
		l28.94-28.939l-28.94-28.939c-0.585-0.586-0.585-1.535,0-2.121c0.586-0.586,1.536-0.586,2.122,0l29.286,29.286
		c0.978,0.979,0.978,2.571,0,3.55l-29.286,29.285C22.068-375.773,21.684-375.627,21.3-375.627"/>
	<path clip-path="url(#SVGID_2_)" d="M14.444-382.415c-0.384,0-0.768-0.146-1.061-0.438c-0.585-0.587-0.585-1.536,0-2.122
		l22.152-22.151l-22.152-22.15c-0.585-0.586-0.585-1.534,0-2.121c0.586-0.586,1.536-0.586,2.122,0l23.211,23.212
		c0.282,0.28,0.44,0.662,0.44,1.06c0,0.398-0.158,0.779-0.44,1.061l-23.211,23.213C15.212-382.561,14.828-382.415,14.444-382.415"/>
	<path clip-path="url(#SVGID_2_)" d="M403.149-384.197c-1.216,0-2.359-0.473-3.219-1.33c-0.028-0.029-0.057-0.06-0.083-0.091
		l-18.602-21.911c-0.378-0.445-0.463-1.07-0.219-1.601c0.246-0.53,0.777-0.87,1.362-0.87h12.663
		c0.766-13.494,11.27-23.489,24.996-23.489c10.732,0,20.222,6.776,23.688,16.889c0.11,0.209,0.173,0.647,0.173,0.9
		c0,0.828-0.671,1.7-1.5,1.7h-0.02c-0.298,0-0.597-0.289-0.854-0.467c-3.6-2.494-7.934-3.912-12.533-3.912
		c-6.88,0-13.158,3.024-17.268,8.379h12.231c0.585,0,1.116,0.34,1.361,0.87c0.245,0.531,0.16,1.156-0.218,1.602l-18.602,21.883
		c-0.025,0.03-0.054,0.061-0.082,0.089C405.55-384.68,404.387-384.197,403.149-384.197 M402.088-387.614
		c0.59,0.553,1.584,0.535,2.18-0.028L420.722-407h-11.808c-0.538,0-1.036-0.289-1.303-0.756c-0.267-0.468-0.263-1.043,0.011-1.507
		c4.517-7.649,12.509-12.217,21.38-12.217c3.596,0,7.054,0.715,10.201,2.092c-3.859-6.777-11.109-11.102-19.154-11.102
		c-12.73,0-21.999,9.25-22.041,21.994c-0.003,0.826-0.674,1.495-1.5,1.495h-10.877L402.088-387.614z"/>
	<path clip-path="url(#SVGID_2_)" d="M533.233-384.149c-10.886,0-20.435-6.733-23.765-16.755c-0.203-0.612,0.008-1.286,0.524-1.673
		c0.518-0.388,1.223-0.399,1.754-0.033c3.419,2.369,7.636,3.57,12.533,3.57c6.651,0,13.063-3.376,17.281-8.96h-12.245
		c-0.586,0-1.118-0.342-1.363-0.874c-0.244-0.533-0.156-1.159,0.226-1.604l18.601-21.642c0.024-0.028,0.051-0.057,0.077-0.083
		c0.804-0.804,1.884-1.246,3.041-1.246c1.269,0,2.527,0.531,3.454,1.458c0.025,0.024,0.049,0.051,0.072,0.077l18.471,21.279
		c0.317,0.275,0.518,0.681,0.518,1.134c0,0.828-0.671,1.5-1.5,1.5c-0.005,0.001-0.013,0.001-0.02,0h-12.663
		C557.473-394.301,546.967-384.149,533.233-384.149 M514.076-397.941c3.824,6.59,11.069,10.792,19.157,10.792
		c12.524,0,21.999-9.61,22.04-22.354c0.003-0.827,0.674-1.496,1.5-1.496h10.831l-16.406-18.9c-0.636-0.606-1.638-0.728-2.188-0.213
		L532.584-411h11.784c0.538,0,1.036,0.289,1.303,0.756c0.267,0.468,0.263,1.043-0.011,1.507
		c-4.624,7.832-12.816,12.697-21.38,12.697C520.528-396.04,517.113-396.678,514.076-397.941"/>
	<path clip-path="url(#SVGID_2_)" d="M668.073-377.004c-0.213,0-0.215-0.045-0.415-0.138c-0.53-0.245-0.658-0.777-0.658-1.362
		v-12.662c-14-0.764-23.795-11.268-23.795-24.997c0-10.832,6.734-20.382,16.918-23.765c0.608-0.204,1.232,0.007,1.618,0.524
		c0.389,0.517,0.374,1.223,0.007,1.754c-2.453,3.541-3.551,7.875-3.551,12.533c0,6.851,2.803,13.135,8.803,17.274v-12.238
		c0-0.585,0.127-1.117,0.657-1.362c0.53-0.246,1.05-0.16,1.495,0.221l21.769,18.602c0.029,0.025,0.032,0.053,0.061,0.08
		c0.87,0.87,1.329,2.028,1.315,3.264c-0.014,1.219-0.503,2.366-1.367,3.232c-0.028,0.027-0.062,0.055-0.091,0.08l-21.79,18.601
		C668.772-377.127,668.424-377.004,668.073-377.004 M657.018-435.32c-6.731,3.85-11.025,11.1-11.025,19.157
		c0,12.73,9.501,22,22.299,22.041c0.826,0.003,1.709,0.674,1.709,1.5v10.865l19.049-16.444c0.285-0.303,0.337-0.693,0.341-1.106
		c0.005-0.405,0.018-0.784-0.254-1.074L670-416.83v11.803c0,0.538-0.502,1.036-0.97,1.303c-0.468,0.268-1.147,0.264-1.612-0.011
		c-7.728-4.562-12.395-12.555-12.395-21.381C655.023-428.739,655.67-432.197,657.018-435.32"/>
	<path clip-path="url(#SVGID_2_)" d="M794.072-377.004c-0.354,0-0.707-0.127-0.985-0.369l-21.327-18.601
		c-0.025-0.022-0.05-0.046-0.074-0.07c-0.853-0.853-1.375-1.962-1.472-3.123c-0.107-1.289,0.321-2.486,1.208-3.373
		c0.025-0.025,0.054-0.051,0.081-0.075l21.591-18.602c0.446-0.382,1.286-0.47,1.818-0.227c0.532,0.244,1.088,0.776,1.088,1.363
		v12.25c5-4.243,8.849-10.659,8.849-17.286c0-4.946-1.29-9.163-3.626-12.533c-0.367-0.531-0.408-1.237-0.02-1.754
		c0.387-0.517,1.037-0.726,1.646-0.524c9.976,3.314,16.878,12.864,16.878,23.765c0,13.737-10.727,24.244-23.727,24.998v12.661
		c0,0.588-0.558,1.122-1.092,1.365C794.709-377.048,794.283-377.004,794.072-377.004 M773.988-398.197L793-381.803v-10.819
		c0-0.826,0.456-1.497,1.281-1.5c12.788-0.041,22.325-9.517,22.325-22.041c0-8.249-4.157-15.394-10.795-19.188
		c1.247,3.025,1.852,6.45,1.852,10.234c0,8.526-4.918,16.719-12.814,21.381c-0.464,0.272-0.831,0.277-1.3,0.011
		c-0.466-0.267-0.549-0.765-0.549-1.303v-11.78l-19.275,16.422c-0.237,0.255-0.34,0.581-0.308,0.97
		C773.453-398.981,773.661-398.539,773.988-398.197"/>
	<path clip-path="url(#SVGID_2_)" d="M187.495-378h-14.922c-0.828,0-1.5-0.672-1.5-1.5s0.672-1.5,1.5-1.5h14.021
		c-0.012-0.161,0.406-0.324,0.406-0.487V-396c0-0.828,0.672-1.5,1.5-1.5s1.5,0.672,1.5,1.5v14.513c0,0.184-0.193,0.368-0.176,0.543
		c0.063,0.659,0.043,1.562-0.608,2.279C188.941-378.361,188.33-378,187.495-378"/>
	<path clip-path="url(#SVGID_2_)" d="M188.75-379.046c-0.384,0-0.768-0.146-1.061-0.439l-18.175-18.176
		c-0.586-0.586-0.586-1.535,0-2.121c0.586-0.586,1.535-0.586,2.121,0l18.176,18.176c0.585,0.586,0.585,1.535,0,2.121
		C189.518-379.191,189.134-379.046,188.75-379.046"/>
	<path clip-path="url(#SVGID_2_)" d="M145.573-378h-13.694c-1.088,0-4.879-1.081-4.879-3.487V-396c0-0.828,0.672-1.5,1.5-1.5
		c0.828,0,1.5,0.672,1.5,1.5v14.154c0,0.368,1.394,0.842,1.879,0.846h13.694c0.828,0,1.5,0.672,1.5,1.5S146.401-378,145.573-378"/>
	<path clip-path="url(#SVGID_2_)" d="M130.624-379.046c-0.384,0-0.768-0.146-1.061-0.439c-0.585-0.586-0.585-1.535,0-2.121
		l18.176-18.176c0.586-0.586,1.535-0.586,2.121,0s0.586,1.535,0,2.121l-18.175,18.176
		C131.392-379.191,131.008-379.046,130.624-379.046"/>
	<path clip-path="url(#SVGID_2_)" d="M128.5-418.5c-0.828,0-1.5-0.672-1.5-1.5v-13.88c0-0.557,0.008-1.074,0.412-1.455
		c0.886-0.839,2.219-0.759,3.492-0.69c0.227,0.013,0.327,0.025,0.491,0.025h14.178c0.828,0,1.5,0.672,1.5,1.5s-0.672,1.5-1.5,1.5
		h-14.178c-0.208,0-0.259-0.014-0.55-0.029c-0.262-0.016-0.845-0.043-0.845-0.033V-420C130-419.172,129.328-418.5,128.5-418.5"/>
	<path clip-path="url(#SVGID_2_)" d="M148.315-415.145c-0.384,0-0.768-0.146-1.061-0.439l-18.175-18.177
		c-0.586-0.586-0.586-1.535,0-2.121c0.586-0.586,1.535-0.586,2.121,0l18.176,18.177c0.585,0.586,0.585,1.535,0,2.121
		C149.083-415.29,148.699-415.145,148.315-415.145"/>
	<path clip-path="url(#SVGID_2_)" d="M188.5-418.5c-0.828,0-1.5-0.672-1.5-1.5v-13h-14.427c-0.828,0-1.5-0.672-1.5-1.5
		s0.672-1.5,1.5-1.5h14.438c0.177,0,0.31-0.019,0.412-0.031c0.319-0.041,1.187-0.124,1.762,0.385
		c0.602,0.529,0.815,1.244,0.815,1.767V-420C190-419.172,189.328-418.5,188.5-418.5"/>
	<path clip-path="url(#SVGID_2_)" d="M170.09-415.145c-0.384,0-0.768-0.146-1.061-0.439c-0.585-0.586-0.585-1.535,0-2.121
		l18.177-18.177c0.586-0.586,1.535-0.586,2.121,0s0.586,1.535,0,2.121l-18.176,18.177
		C170.858-415.29,170.474-415.145,170.09-415.145"/>
	<path clip-path="url(#SVGID_2_)" d="M258.327-375.627c-2.181,0-3.955-1.773-3.955-3.954c0-0.035,0.001-0.071,0.004-0.106
		l0.812-11.387c0.06-0.826,0.801-1.438,1.603-1.39c0.826,0.059,1.448,0.776,1.39,1.603l-0.807,11.321
		c0.02,0.493,0.419,0.892,0.913,0.912l11.32-0.806c0.816-0.055,1.544,0.562,1.603,1.39c0.058,0.826-0.563,1.544-1.39,1.603
		l-11.387,0.811C258.398-375.628,258.362-375.627,258.327-375.627"/>
	<path clip-path="url(#SVGID_2_)" d="M256.389-376.954c-0.384,0-0.768-0.146-1.061-0.439c-0.586-0.586-0.586-1.535,0-2.121
		l16.63-16.63c0.586-0.586,1.534-0.586,2.12,0c0.587,0.587,0.587,1.535,0,2.121l-16.629,16.63
		C257.156-377.1,256.772-376.954,256.389-376.954"/>
	<path clip-path="url(#SVGID_2_)" d="M275.655-391.354c-0.384,0-0.768-0.146-1.061-0.439l-4.462-4.461
		c-0.281-0.282-0.439-0.664-0.439-1.062c0-0.396,0.158-0.779,0.439-1.061l4.057-4.056c0.586-0.586,1.535-0.586,2.121,0l4.462,4.462
		c0.281,0.281,0.439,0.663,0.439,1.061c0,0.398-0.158,0.78-0.439,1.061l-4.057,4.056C276.423-391.5,276.039-391.354,275.655-391.354
		 M273.314-397.315l2.341,2.341l1.936-1.935l-2.341-2.341L273.314-397.315z"/>
	<path clip-path="url(#SVGID_2_)" d="M313.013-375.627c-0.035,0-0.071-0.001-0.106-0.004l-11.387-0.811
		c-0.826-0.059-1.448-0.776-1.39-1.603c0.059-0.827,0.796-1.443,1.603-1.39l11.321,0.806c0.493-0.021,0.892-0.419,0.912-0.912
		l-0.808-11.321c-0.058-0.826,0.564-1.544,1.391-1.603c0.812-0.049,1.543,0.563,1.603,1.39l0.812,11.387
		c0.003,0.035,0.004,0.071,0.004,0.106C316.967-377.4,315.193-375.627,313.013-375.627"/>
	<path clip-path="url(#SVGID_2_)" d="M314.951-376.954c-0.384,0-0.768-0.146-1.061-0.439l-16.631-16.63
		c-0.586-0.586-0.586-1.534,0-2.121c0.586-0.586,1.535-0.586,2.121,0l16.631,16.63c0.586,0.586,0.586,1.535,0,2.121
		C315.719-377.1,315.335-376.954,314.951-376.954"/>
	<path clip-path="url(#SVGID_2_)" d="M295.684-391.354c-0.384,0-0.768-0.146-1.061-0.439l-4.056-4.056
		c-0.281-0.281-0.439-0.663-0.439-1.061s0.158-0.779,0.439-1.061l4.462-4.462c0.562-0.562,1.559-0.562,2.121,0l4.056,4.056
		c0.586,0.586,0.586,1.535,0,2.121l-4.462,4.462C296.451-391.5,296.067-391.354,295.684-391.354 M293.749-396.909l1.935,1.935
		l2.341-2.341l-1.935-1.935L293.749-396.909z"/>
	<path clip-path="url(#SVGID_2_)" d="M314.657-421.786c-0.036,0-0.072-0.001-0.108-0.004c-0.826-0.058-1.448-0.776-1.39-1.603
		l0.807-11.32c-0.021-0.494-0.419-0.893-0.913-0.913l-11.32,0.807c-0.808,0.08-1.543-0.562-1.603-1.39
		c-0.059-0.826,0.563-1.544,1.39-1.603l11.387-0.812c0.035-0.003,0.071-0.004,0.105-0.004c2.182,0,3.955,1.774,3.955,3.955
		c0,0.035-0.001,0.072-0.004,0.106l-0.812,11.386C316.094-422.39,315.437-421.786,314.657-421.786"/>
	<path clip-path="url(#SVGID_2_)" d="M298.32-417.669c-0.384,0-0.768-0.146-1.061-0.438c-0.586-0.587-0.586-1.536,0-2.122
		l16.631-16.63c0.586-0.586,1.535-0.586,2.121,0c0.586,0.587,0.586,1.535,0,2.121l-16.631,16.631
		C299.088-417.814,298.704-417.669,298.32-417.669"/>
	<path clip-path="url(#SVGID_2_)" d="M296.09-411.382c-0.397,0-0.779-0.158-1.061-0.439l-4.462-4.461
		c-0.281-0.282-0.439-0.664-0.439-1.062c0-0.396,0.158-0.779,0.439-1.061l4.056-4.056c0.586-0.586,1.535-0.586,2.121,0l4.462,4.461
		c0.586,0.586,0.586,1.535,0,2.121l-4.056,4.057C296.869-411.54,296.488-411.382,296.09-411.382 M293.749-417.344l2.341,2.341
		l1.935-1.936l-2.341-2.34L293.749-417.344z"/>
	<path clip-path="url(#SVGID_2_)" d="M256.682-421.786c-0.779,0-1.438-0.604-1.494-1.394l-0.812-11.386
		c-0.003-0.034-0.005-0.071-0.005-0.106c0-2.181,1.775-3.955,3.956-3.955c0.035,0,0.071,0.001,0.106,0.004l11.386,0.812
		c0.826,0.059,1.448,0.776,1.39,1.603c-0.06,0.827-0.785,1.471-1.603,1.39l-11.321-0.807c-0.493,0.021-0.892,0.419-0.912,0.913
		l0.807,11.32c0.059,0.826-0.563,1.545-1.391,1.603C256.754-421.787,256.718-421.786,256.682-421.786"/>
	<path clip-path="url(#SVGID_2_)" d="M273.019-417.669c-0.384,0-0.768-0.146-1.061-0.438l-16.63-16.631
		c-0.586-0.586-0.586-1.534,0-2.121c0.587-0.586,1.535-0.586,2.121,0l16.631,16.63c0.585,0.586,0.585,1.535,0,2.122
		C273.786-417.814,273.402-417.669,273.019-417.669"/>
	<path clip-path="url(#SVGID_2_)" d="M275.25-411.382c-0.384,0-0.768-0.146-1.061-0.439l-4.057-4.057
		c-0.281-0.281-0.439-0.663-0.439-1.061s0.158-0.779,0.439-1.061l4.462-4.461c0.586-0.586,1.535-0.586,2.121,0l4.057,4.056
		c0.281,0.281,0.439,0.663,0.439,1.061s-0.158,0.779-0.439,1.061l-4.462,4.462C276.018-411.528,275.634-411.382,275.25-411.382
		 M273.314-416.938l1.936,1.936l2.341-2.341l-1.936-1.935L273.314-416.938z"/>
	<path clip-path="url(#SVGID_2_)" d="M152.394-248.972c-2.283,0-4.356-1.241-5.407-3.24c-1.287-2.439-0.813-5.405,1.171-7.389
		l19.419-19.42c0.839-0.84,0.873-2.169,0.078-2.965l-18.84-18.84c-1.908-1.909-2.322-4.923-1.012-7.344
		c0.008-0.016,0.016-0.03,0.022-0.044c1.131-2.063,3.285-3.344,5.619-3.344c1.635,0,3.169,0.633,4.317,1.78l24.559,24.56
		c2.464,2.466,2.417,6.523-0.106,9.048l-25.315,25.314C155.685-249.641,154.084-248.972,152.394-248.972 M150.471-306.797
		c-0.007,0.014-0.014,0.026-0.02,0.038c-0.706,1.285-0.51,2.817,0.485,3.812l18.84,18.84c1.966,1.966,1.931,5.199-0.077,7.206
		l-19.42,19.421c-1.033,1.032-1.297,2.62-0.644,3.86c0.546,1.035,1.575,1.647,2.759,1.647c0.89,0,1.736-0.356,2.384-1.004
		l25.315-25.314c1.354-1.354,1.4-3.51,0.106-4.806l-24.559-24.559c-0.582-0.582-1.362-0.902-2.196-0.902
		C152.215-308.557,151.079-307.883,150.471-306.797"/>
	<path clip-path="url(#SVGID_2_)" d="M142-255.33c0,2.944-2.386,5.33-5.33,5.33h-1.34c-2.944,0-5.33-2.386-5.33-5.33v-51.34
		c0-2.944,2.386-5.33,5.33-5.33h1.34c2.944,0,5.33,2.386,5.33,5.33V-255.33z M139-306.67c0-1.287-1.043-2.33-2.33-2.33h-1.34
		c-1.287,0-2.33,1.043-2.33,2.33v51.34c0,1.287,1.043,2.33,2.33,2.33h1.34c1.287,0,2.33-1.043,2.33-2.33V-306.67z"/>
	<path clip-path="url(#SVGID_2_)" d="M289.188-248.972L289.188-248.972c-1.691,0-3.292-0.669-4.505-1.883l-25.316-25.314
		c-2.521-2.523-2.569-6.582-0.104-9.048l24.559-24.559c1.148-1.148,2.682-1.781,4.317-1.781c2.334,0,4.487,1.281,5.618,3.344
		c0.009,0.017,0.018,0.033,0.025,0.051c1.307,2.419,0.892,5.431-1.015,7.337l-18.84,18.84c-0.796,0.796-0.762,2.126,0.077,2.965
		l19.42,19.42c1.983,1.983,2.457,4.949,1.177,7.38C293.543-250.213,291.471-248.972,289.188-248.972 M288.138-308.557
		c-0.834,0-1.614,0.32-2.196,0.902l-24.559,24.559c-1.295,1.296-1.248,3.452,0.105,4.806l25.315,25.314
		c0.647,0.648,1.494,1.004,2.384,1.004c1.185,0,2.213-0.612,2.753-1.637c0.659-1.251,0.395-2.839-0.638-3.871l-19.42-19.42
		c-2.009-2.008-2.043-5.241-0.077-7.207l18.84-18.84c0.995-0.995,1.19-2.527,0.484-3.812c-0.007-0.014-0.015-0.026-0.021-0.041
		C290.5-307.885,289.365-308.557,288.138-308.557"/>
	<path clip-path="url(#SVGID_2_)" d="M310-255.33c0,2.944-2.386,5.33-5.33,5.33h-1.34c-2.944,0-5.33-2.386-5.33-5.33v-51.34
		c0-2.944,2.386-5.33,5.33-5.33h1.34c2.944,0,5.33,2.386,5.33,5.33V-255.33z M307-306.67c0-1.287-1.043-2.33-2.33-2.33h-1.34
		c-1.287,0-2.33,1.043-2.33,2.33v51.34c0,1.287,1.043,2.33,2.33,2.33h1.34c1.287,0,2.33-1.043,2.33-2.33V-306.67z"/>
	<path clip-path="url(#SVGID_2_)" d="M573-258.5c0,5.247-4.253,9.5-9.5,9.5h-44c-5.247,0-9.5-4.253-9.5-9.5v-44
		c0-5.247,4.253-9.5,9.5-9.5h44c5.247,0,9.5,4.253,9.5,9.5V-258.5z M570-302.5c0-3.59-2.91-6.5-6.5-6.5h-44
		c-3.59,0-6.5,2.91-6.5,6.5v44c0,3.59,2.91,6.5,6.5,6.5h44c3.59,0,6.5-2.91,6.5-6.5V-302.5z"/>
	<path clip-path="url(#SVGID_2_)" d="M542.058-265.782c-1.073,0-2.088-0.423-2.854-1.189l-12.745-12.745
		c-0.889-0.889-1.309-2.152-1.122-3.38c0.184-1.21,0.906-2.229,1.984-2.797c1.475-0.776,3.408-0.464,4.594,0.721l9.778,9.779
		c0.229,0.227,0.355,0.12,0.438,0.039l9.486-9.486c1.18-1.18,3.109-1.442,4.599-0.627c1.117,0.613,1.857,1.68,2.036,2.929
		c0.174,1.213-0.219,2.399-1.075,3.256l-12.364,12.365C544.08-266.186,543.102-265.782,542.058-265.782 M529.116-283.337
		c-0.141,0-0.272,0.031-0.392,0.095c-0.314,0.166-0.398,0.443-0.422,0.595c-0.044,0.294,0.057,0.589,0.277,0.81l12.746,12.745
		c0.38,0.38,1.016,0.403,1.366,0.053l12.364-12.364c0.25-0.25,0.248-0.553,0.227-0.711c-0.044-0.306-0.229-0.567-0.504-0.719
		c-0.354-0.195-0.783-0.143-1.041,0.115l-9.484,9.484c-1.24,1.24-3.421,1.222-4.682-0.038l-9.777-9.778
		C529.612-283.232,529.365-283.337,529.116-283.337"/>
	<path clip-path="url(#SVGID_2_)" d="M445-258.5c0,5.247-4.253,9.5-9.5,9.5h-44c-5.247,0-9.5-4.253-9.5-9.5v-44
		c0-5.247,4.253-9.5,9.5-9.5h44c5.247,0,9.5,4.253,9.5,9.5V-258.5z M442-302.5c0-3.59-2.91-6.5-6.5-6.5h-44
		c-3.59,0-6.5,2.91-6.5,6.5v44c0,3.59,2.91,6.5,6.5,6.5h44c3.59,0,6.5-2.91,6.5-6.5V-302.5z"/>
	<path clip-path="url(#SVGID_2_)" d="M400.614-269.579c-0.604,0-1.205-0.144-1.74-0.416c-0.02-0.008-0.038-0.019-0.057-0.027
		c-1.077-0.569-1.801-1.589-1.983-2.8c-0.186-1.227,0.234-2.489,1.122-3.377l12.746-12.746c0.766-0.766,1.779-1.188,2.853-1.188
		c1.045,0,2.023,0.403,2.756,1.136l12.365,12.365c0.856,0.855,1.248,2.042,1.075,3.256c-0.178,1.249-0.918,2.315-2.03,2.926
		c-0.587,0.322-1.242,0.49-1.899,0.49c-1.026,0-1.987-0.396-2.706-1.116l-9.484-9.484c-0.084-0.083-0.211-0.187-0.439,0.039
		l-9.778,9.777C402.672-270.003,401.652-269.579,400.614-269.579 M400.191-272.69c0.011,0.005,0.021,0.011,0.032,0.016
		c0.33,0.176,0.782,0.094,1.068-0.191l9.778-9.777c1.26-1.26,3.441-1.28,4.682-0.039l9.485,9.485
		c0.256,0.256,0.691,0.308,1.034,0.118c0.282-0.154,0.466-0.417,0.51-0.723c0.022-0.158,0.023-0.46-0.227-0.709l-12.365-12.366
		c-0.352-0.349-0.988-0.325-1.366,0.053l-12.746,12.746c-0.221,0.221-0.321,0.515-0.277,0.808
		C399.822-273.123,399.903-272.855,400.191-272.69"/>
	<path clip-path="url(#SVGID_2_)" d="M700-258.5c0,5.247-4.253,9.5-9.5,9.5h-44c-5.247,0-9.5-4.253-9.5-9.5v-44
		c0-5.247,4.253-9.5,9.5-9.5h44c5.247,0,9.5,4.253,9.5,9.5V-258.5z M697-302.5c0-3.59-2.91-6.5-6.5-6.5h-44
		c-3.59,0-6.5,2.91-6.5,6.5v44c0,3.59,2.91,6.5,6.5,6.5h44c3.59,0,6.5-2.91,6.5-6.5V-302.5z"/>
	<path clip-path="url(#SVGID_2_)" d="M666.972-263.403c-1.428,0-2.723-0.777-3.382-2.028c-0.8-1.519-0.509-3.363,0.721-4.594
		l9.779-9.778c0.13-0.13,0.147-0.331,0.039-0.439l-9.486-9.485c-1.196-1.198-1.455-3.089-0.627-4.599
		c0.703-1.282,2.037-2.076,3.483-2.076c1.022,0,1.981,0.396,2.701,1.115l12.364,12.364c0.748,0.748,1.152,1.748,1.136,2.815
		c-0.016,1.051-0.438,2.043-1.188,2.793l-12.746,12.746C669.015-263.817,668.021-263.403,666.972-263.403 M667.499-293.403
		c-0.274,0-0.644,0.135-0.851,0.513c-0.196,0.359-0.148,0.776,0.116,1.042l9.485,9.484c1.28,1.28,1.263,3.38-0.039,4.682
		l-9.778,9.777c-0.291,0.291-0.37,0.731-0.191,1.07c0.206,0.391,0.579,0.432,0.73,0.432c0.249,0,0.488-0.102,0.673-0.287
		l12.747-12.746c0.195-0.195,0.306-0.45,0.31-0.717c0.004-0.249-0.088-0.479-0.257-0.649l-12.365-12.364
		C667.884-293.362,667.656-293.403,667.499-293.403"/>
	<path clip-path="url(#SVGID_2_)" d="M827-258.5c0,5.247-4.253,9.5-9.5,9.5h-44c-5.247,0-9.5-4.253-9.5-9.5v-44
		c0-5.247,4.253-9.5,9.5-9.5h44c5.247,0,9.5,4.253,9.5,9.5V-258.5z M824-302.5c0-3.59-2.91-6.5-6.5-6.5h-44
		c-3.59,0-6.5,2.91-6.5,6.5v44c0,3.59,2.91,6.5,6.5,6.5h44c3.59,0,6.5-2.91,6.5-6.5V-302.5z"/>
	<path clip-path="url(#SVGID_2_)" d="M802.962-263.403L802.962-263.403c-1.051,0-2.044-0.414-2.796-1.166l-12.744-12.746
		c-0.75-0.75-1.172-1.741-1.188-2.792c-0.016-1.068,0.388-2.069,1.136-2.816l12.364-12.364c0.719-0.719,1.678-1.115,2.701-1.115
		c1.446,0,2.78,0.794,3.479,2.071c0.832,1.515,0.575,3.405-0.623,4.604l-9.485,9.485c-0.049,0.049-0.073,0.112-0.072,0.189
		c0.001,0.053,0.017,0.155,0.11,0.249l9.779,9.778c1.229,1.23,1.521,3.075,0.724,4.59
		C805.685-264.181,804.389-263.403,802.962-263.403 M802.435-293.403c-0.157,0-0.385,0.041-0.58,0.236l-12.364,12.364
		c-0.17,0.171-0.261,0.4-0.257,0.649c0.004,0.267,0.114,0.521,0.31,0.717l12.745,12.746c0.186,0.186,0.425,0.287,0.674,0.287
		c0.151,0,0.524-0.041,0.728-0.427c0.182-0.344,0.102-0.784-0.189-1.075l-9.776-9.777c-0.625-0.624-0.978-1.449-0.989-2.325
		c-0.014-0.894,0.324-1.73,0.95-2.356l9.485-9.485c0.265-0.265,0.312-0.681,0.118-1.035
		C803.077-293.269,802.709-293.403,802.435-293.403"/>
	<path clip-path="url(#SVGID_2_)" d="M-329.81-258h-49.406c-1.908,0-3.668-0.902-4.709-2.413c-1.017-1.476-1.225-3.308-0.57-5.025
		c0.031-0.079,0.067-0.155,0.11-0.229l24.644-41.769c0.865-2.12,2.888-3.482,5.191-3.482c2.334,0,4.386,1.385,5.265,3.537
		l24.643,41.686c0.043,0.073,0.08,0.15,0.11,0.229c0.657,1.723,0.448,3.562-0.576,5.048C-326.15-258.904-327.909-258-329.81-258
		 M-381.729-264.263c-0.256,0.758-0.159,1.517,0.275,2.147c0.489,0.709,1.304,1.115,2.239,1.115h49.406
		c0.928,0,1.741-0.408,2.231-1.12c0.442-0.64,0.54-1.406,0.283-2.169l-24.631-41.666c-0.043-0.073-0.08-0.149-0.111-0.229
		c-0.487-1.278-1.618-1.733-2.512-1.733c-1.126,0-2.037,0.627-2.438,1.678c-0.03,0.079-0.066,0.155-0.109,0.229L-381.729-264.263z"
		/>
	<path clip-path="url(#SVGID_2_)" d="M-329.427-248h-52c-0.828,0-1.5-0.672-1.5-1.5s0.672-1.5,1.5-1.5h52c0.828,0,1.5,0.672,1.5,1.5
		S-328.599-248-329.427-248"/>
	<path clip-path="url(#SVGID_2_)" d="M-227.189-249.219c-2.31,0-4.261-1.313-5.124-3.438l-24.498-42.064
		c-0.041-0.07-0.076-0.145-0.106-0.221c-0.694-1.818-0.417-3.907,0.74-5.587c1.083-1.57,2.728-2.472,4.515-2.472h49.113
		c1.774,0,3.414,0.902,4.497,2.475c1.155,1.678,1.445,3.841,0.756,5.646c-0.029,0.077-0.065,0.152-0.106,0.224l-24.498,41.879
		C-222.782-250.611-224.843-249.219-227.189-249.219 M-254.15-296.112l24.486,42.045c0.041,0.07,0.076,0.145,0.106,0.221
		c0.388,1.02,1.274,1.628,2.369,1.628c0.902,0,2.043-0.46,2.535-1.751c0.029-0.077,0.065-0.152,0.107-0.224l24.486-41.858
		c0.292-0.877,0.119-1.929-0.462-2.771c-0.515-0.748-1.254-1.177-2.026-1.177h-49.113c-0.785,0-1.531,0.428-2.045,1.174
		C-254.272-298.005-254.438-296.976-254.15-296.112"/>
	<path clip-path="url(#SVGID_2_)" d="M-202.427-310h-51c-0.828,0-1.5-0.672-1.5-1.5s0.672-1.5,1.5-1.5h51c0.828,0,1.5,0.672,1.5,1.5
		S-201.599-310-202.427-310"/>
	<path clip-path="url(#SVGID_2_)" d="M-117.29-250.776c-3.211,0-5.71-2.585-5.71-5.646v-49.33c0-3.061,2.518-5.646,5.751-5.646
		c0.707,0,1.289,0.126,1.939,0.374c0.078,0.029,0.099,0.064,0.171,0.107l41.969,24.605c2.163,0.882,3.539,2.941,3.539,5.284
		c0,2.326-1.331,4.293-3.471,5.163l-42.133,24.606c-0.072,0.042-0.041,0.077-0.118,0.106
		C-116.003-250.902-116.585-250.776-117.29-250.776 M-117.249-308.397c-1.402,0-2.751,1.086-2.751,2.646v49.33
		c0,1.559,1.327,2.646,2.71,2.646c0.3,0,0.486-0.047,0.763-0.14l42.057-24.596c0.072-0.042,0.119-0.077,0.196-0.106
		c1.038-0.396,1.643-1.296,1.643-2.408c0-0.901-0.465-2.039-1.752-2.53c-0.079-0.029-0.156-0.065-0.227-0.107l-41.871-24.594
		C-116.758-308.351-116.946-308.397-117.249-308.397"/>
	<path clip-path="url(#SVGID_2_)" d="M-131.5-253.5c-0.828,0-1.5-0.672-1.5-1.5v-52c0-0.828,0.672-1.5,1.5-1.5s1.5,0.672,1.5,1.5v52
		C-130-254.172-130.672-253.5-131.5-253.5"/>
	<path clip-path="url(#SVGID_2_)" d="M48.736-250.911L48.736-250.911c-0.697,0-1.378-0.126-2.027-0.373
		c-0.077-0.029-0.152-0.064-0.223-0.106l-41.86-24.492c-2.107-0.859-3.461-2.869-3.462-5.157c0-2.329,1.381-4.376,3.53-5.252
		l41.756-24.49c0.072-0.042,0.147-0.078,0.225-0.107c0.648-0.248,1.545-0.373,2.245-0.373c3.18,0,6.08,2.577,6.08,5.627v49.098
		c0,1.544-0.858,2.983-2.029,4.056C51.882-251.484,50.202-250.911,48.736-250.911 M47.882-254.05
		c0.274,0.092,0.562,0.139,0.854,0.139c0.725,0,1.666-0.286,2.21-0.784c0.542-0.496,1.054-1.151,1.054-1.843v-49.098
		c0-1.906-2.376-3.011-3.938-2.488L6.218-283.646c-0.071,0.042-0.2,0.078-0.278,0.107c-1.269,0.484-1.749,1.607-1.749,2.497
		c0.001,1.11,0.606,2.01,1.641,2.404c0.077,0.029,0.146,0.066,0.217,0.106L47.882-254.05z"/>
	<path clip-path="url(#SVGID_2_)" d="M63.5-253.5c-0.828,0-1.5-0.672-1.5-1.5v-52c0-0.828,0.672-1.5,1.5-1.5s1.5,0.672,1.5,1.5v52
		C65-254.172,64.328-253.5,63.5-253.5"/>
	<path clip-path="url(#SVGID_2_)" d="M412.382-545.177c-0.565,0-1.107-0.321-1.361-0.868l-7.323-15.755l-7.321,15.755
		c-0.35,0.752-1.244,1.077-1.992,0.728c-0.752-0.349-1.077-1.241-0.729-1.992l8.684-18.682c0.246-0.53,0.775-0.869,1.359-0.869
		s1.115,0.339,1.361,0.869l8.682,18.682c0.35,0.751,0.024,1.643-0.728,1.992C412.809-545.222,412.594-545.177,412.382-545.177"/>
	<path clip-path="url(#SVGID_2_)" d="M434.573-517h-18.229c-8.421,0-14.345-5.662-14.345-13.17V-564c0-0.828,0.672-1.5,1.5-1.5
		s1.5,0.672,1.5,1.5v33.83c0,6.606,5.638,10.17,11.345,10.17h18.229c0.828,0,1.5,0.672,1.5,1.5S435.401-517,434.573-517"/>
	<path clip-path="url(#SVGID_2_)" d="M554.896-516.091L554.896-516.091c-0.584,0-1.114-0.339-1.36-0.868l-8.682-18.682
		c-0.349-0.751-0.023-1.642,0.729-1.992c0.749-0.346,1.643-0.023,1.992,0.729l7.321,15.753l7.322-15.753
		c0.349-0.752,1.243-1.075,1.991-0.729c0.753,0.35,1.078,1.241,0.729,1.992l-8.683,18.682
		C556.01-516.43,555.479-516.091,554.896-516.091"/>
	<path clip-path="url(#SVGID_2_)" d="M555.5-519.5c-0.828,0-1.5-0.672-1.5-1.5v-31.78c0-6.51-5.719-12.22-11.751-12.22h-18.676
		c-0.828,0-1.5-0.672-1.5-1.5s0.672-1.5,1.5-1.5h18.676c7.631,0,14.751,7.112,14.751,15.22V-521
		C557-520.172,556.328-519.5,555.5-519.5"/>
	<path clip-path="url(#SVGID_2_)" d="M675.702-542.477c-0.565,0-1.107-0.321-1.361-0.868c-0.349-0.751-0.023-1.643,0.729-1.992
		l15.755-7.322l-15.755-7.322c-0.752-0.35-1.077-1.241-0.729-1.992c0.35-0.752,1.244-1.074,1.992-0.729l18.683,8.683
		c0.529,0.246,0.868,0.776,0.868,1.36s-0.339,1.115-0.868,1.361l-18.683,8.681C676.129-542.521,675.914-542.477,675.702-542.477"/>
	<path clip-path="url(#SVGID_2_)" d="M645.5-520.5c-0.828,0-1.5-0.672-1.5-1.5v-18.012c0-8.243,7.806-13.988,15.194-13.988h32.379
		c0.828,0,1.5,0.672,1.5,1.5s-0.672,1.5-1.5,1.5h-32.379c-5.97,0-12.194,4.513-12.194,10.988V-522
		C647-521.172,646.328-520.5,645.5-520.5"/>
	<path clip-path="url(#SVGID_2_)" d="M792.277-542.477c-0.212,0-0.427-0.045-0.631-0.14l-18.682-8.681
		c-0.529-0.246-0.868-0.777-0.868-1.361s0.339-1.114,0.868-1.36l18.682-8.683c0.749-0.345,1.643-0.023,1.992,0.729
		c0.349,0.751,0.023,1.642-0.729,1.992l-15.754,7.322l15.754,7.322c0.752,0.349,1.077,1.241,0.729,1.992
		C793.385-542.797,792.842-542.477,792.277-542.477"/>
	<path clip-path="url(#SVGID_2_)" d="M821.5-520.5c-0.828,0-1.5-0.672-1.5-1.5v-18.012c0-6.264-5.064-10.988-11.215-10.988h-33.212
		c-0.828,0-1.5-0.672-1.5-1.5s0.672-1.5,1.5-1.5h33.212c7.861,0,14.215,6.014,14.215,13.988V-522
		C823-521.172,822.328-520.5,821.5-520.5"/>
	<path clip-path="url(#SVGID_2_)" d="M289.862-511.933c-0.42,0-0.837-0.175-1.134-0.517c-0.543-0.626-0.476-1.573,0.149-2.116
		l13.849-12.02L288.878-538.6c-0.625-0.543-0.692-1.49-0.149-2.116c0.541-0.625,1.488-0.694,2.116-0.15l15.154,13.147
		c0.328,0.284,0.517,0.698,0.517,1.133c0,0.434-0.188,0.847-0.517,1.132L290.845-512.3
		C290.561-512.054,290.211-511.933,289.862-511.933"/>
	<path clip-path="url(#SVGID_2_)" d="M304.573-524h-17.085c-12.9,0-23.396-10.6-23.396-23.628s10.396-23.628,23.175-23.628
		c0.827,0,1.5,0.672,1.5,1.5s-0.673,1.5-1.5,1.5c-11.124,0-20.175,9.254-20.175,20.628c0,11.182,9.339,20.628,20.396,20.628h17.085
		c0.828,0,1.5,0.672,1.5,1.5S305.401-524,304.573-524"/>
	<path clip-path="url(#SVGID_2_)" d="M154.992-511.933c-0.349,0-0.698-0.121-0.982-0.367l-15.156-13.154
		c-0.328-0.285-0.516-0.698-0.516-1.132c0-0.435,0.188-0.849,0.517-1.133l15.156-13.147c0.626-0.544,1.574-0.476,2.115,0.151
		c0.543,0.625,0.475,1.572-0.151,2.115l-13.848,12.014l13.849,12.02c0.625,0.543,0.693,1.49,0.15,2.116
		C155.829-512.107,155.412-511.933,154.992-511.933"/>
	<path clip-path="url(#SVGID_2_)" d="M157.365-524h-17.792c-0.828,0-1.5-0.672-1.5-1.5s0.672-1.5,1.5-1.5h17.792
		c11.149,0,20.22-9.254,20.22-20.628s-9.13-20.628-20.353-20.628c-0.828,0-1.5-0.672-1.5-1.5s0.672-1.5,1.5-1.5
		c12.877,0,23.353,10.6,23.353,23.628S170.169-524,157.365-524"/>
	<path clip-path="url(#SVGID_2_)" d="M48.238-520.14L48.238-520.14c-0.435,0-0.849-0.188-1.133-0.517l-13.146-15.154
		c-0.543-0.626-0.476-1.573,0.149-2.116c0.627-0.543,1.573-0.476,2.116,0.149l12.014,13.849l12.021-13.849
		c0.543-0.626,1.49-0.693,2.117-0.149c0.626,0.543,0.692,1.49,0.149,2.116l-13.154,15.154
		C49.086-520.328,48.673-520.14,48.238-520.14"/>
	<path clip-path="url(#SVGID_2_)" d="M46.5-521.5c-0.828,0-1.5-0.672-1.5-1.5v-17.166c0-11.426-8.917-20.376-20.029-20.376
		c-11.111,0-19.921,8.871-19.921,20.195c0,0.828-0.725,1.5-1.553,1.5s-1.527-0.672-1.527-1.5c0-13.007,10.222-23.195,23.015-23.195
		S48-553.274,48-540.166V-523C48-522.172,47.328-521.5,46.5-521.5"/>
	<path clip-path="url(#SVGID_2_)" d="M-126.795-545.128c-0.349,0-0.698-0.121-0.982-0.367c-0.626-0.543-0.693-1.49-0.15-2.116
		l13.154-15.155c0.286-0.328,0.699-0.516,1.133-0.516c0.435,0,0.849,0.188,1.133,0.516l13.147,15.155
		c0.543,0.626,0.475,1.573-0.15,2.116c-0.627,0.544-1.573,0.475-2.116-0.15l-12.014-13.848l-12.021,13.848
		C-125.958-545.303-126.375-545.128-126.795-545.128"/>
	<path clip-path="url(#SVGID_2_)" d="M-92.536-520.024c-13.056,0-23.464-10.422-23.464-23.231V-561c0-0.828,0.672-1.5,1.5-1.5
		c0.828,0,1.5,0.672,1.5,1.5v17.745c0,11.155,9.063,20.231,20.464,20.231c11.208,0,20.571-9.314,20.571-20.34
		c0-0.828,0.619-1.5,1.447-1.5s1.58,0.672,1.58,1.5C-68.938-530.494-79.479-520.024-92.536-520.024"/>
	<path clip-path="url(#SVGID_2_)" d="M-321.927-513h-60c-0.828,0-1.073-0.672-1.073-1.5V-528c0-0.828,0.672-1.5,1.5-1.5
		c0.828,0,1.5,0.672,1.5,1.5v12h57v-12c0-0.828,0.672-1.5,1.5-1.5c0.828,0,1.5,0.672,1.5,1.5v13.5
		C-320-513.672-321.099-513-321.927-513"/>
	<path clip-path="url(#SVGID_2_)" d="M-352.034-525.288L-352.034-525.288c-0.513,0-0.989-0.262-1.265-0.694l-12.086-18.967
		c-0.445-0.698-0.24-1.625,0.459-2.07c0.695-0.445,1.625-0.242,2.071,0.459l10.821,16.981l10.822-16.981
		c0.447-0.701,1.375-0.904,2.071-0.459c0.699,0.445,0.904,1.372,0.459,2.07l-12.087,18.967
		C-351.045-525.55-351.521-525.288-352.034-525.288"/>
	<path clip-path="url(#SVGID_2_)" d="M-352.5-527.5c-0.828,0-1.5-0.672-1.5-1.5v-41c0-0.828,0.672-1.5,1.5-1.5s1.5,0.672,1.5,1.5v41
		C-351-528.172-351.672-527.5-352.5-527.5"/>
	<path clip-path="url(#SVGID_2_)" d="M-321.927-513h-60c-0.828,0-1.073-0.672-1.073-1.5V-528c0-0.828,0.672-1.5,1.5-1.5
		c0.828,0,1.5,0.672,1.5,1.5v12h57v-12c0-0.828,0.672-1.5,1.5-1.5c0.828,0,1.5,0.672,1.5,1.5v13.5
		C-320-513.672-321.099-513-321.927-513"/>
	<path clip-path="url(#SVGID_2_)" d="M-352.034-525.288L-352.034-525.288c-0.513,0-0.989-0.262-1.265-0.694l-12.086-18.967
		c-0.445-0.698-0.24-1.625,0.459-2.07c0.695-0.445,1.625-0.242,2.071,0.459l10.821,16.981l10.822-16.981
		c0.447-0.701,1.375-0.904,2.071-0.459c0.699,0.445,0.904,1.372,0.459,2.07l-12.087,18.967
		C-351.045-525.55-351.521-525.288-352.034-525.288"/>
	<path clip-path="url(#SVGID_2_)" d="M-352.5-527.5c-0.828,0-1.5-0.672-1.5-1.5v-41c0-0.828,0.672-1.5,1.5-1.5s1.5,0.672,1.5,1.5v41
		C-351-528.172-351.672-527.5-352.5-527.5"/>
	<path clip-path="url(#SVGID_2_)" d="M-193.927-513h-60c-0.828,0-1.073-0.672-1.073-1.5V-528c0-0.828,0.672-1.5,1.5-1.5
		c0.828,0,1.5,0.672,1.5,1.5v12h57v-12c0-0.828,0.672-1.5,1.5-1.5c0.828,0,1.5,0.672,1.5,1.5v13.5
		C-192-513.672-193.099-513-193.927-513"/>
	<path clip-path="url(#SVGID_2_)" d="M-236.301-548.874c-0.276,0-0.556-0.076-0.805-0.235c-0.699-0.446-0.904-1.372-0.459-2.071
		l12.086-18.966c0.551-0.866,1.979-0.866,2.53,0l12.086,18.966c0.446,0.699,0.241,1.625-0.459,2.071
		c-0.695,0.444-1.624,0.241-2.07-0.459l-10.822-16.982l-10.821,16.982C-235.321-549.119-235.806-548.874-236.301-548.874"/>
	<path clip-path="url(#SVGID_2_)" d="M-223.5-526.5c-0.828,0-1.5-0.672-1.5-1.5v-41c0-0.828,0.672-1.5,1.5-1.5s1.5,0.672,1.5,1.5v41
		C-222-527.172-222.672-526.5-223.5-526.5"/>
	<path clip-path="url(#SVGID_2_)" d="M445-130.5c0,5.247-4.253,9.5-9.5,9.5h-44c-5.247,0-9.5-4.253-9.5-9.5v-44
		c0-5.247,4.253-9.5,9.5-9.5h44c5.247,0,9.5,4.253,9.5,9.5V-130.5z M442-174.5c0-3.59-2.91-6.5-6.5-6.5h-44
		c-3.59,0-6.5,2.91-6.5,6.5v44c0,3.59,2.91,6.5,6.5,6.5h44c3.59,0,6.5-2.91,6.5-6.5V-174.5z"/>
	<path clip-path="url(#SVGID_2_)" d="M420.015-140h-13.649c-1.3,0-2.445-0.628-3.063-1.679c-0.586-0.998-0.584-2.226,0.005-3.283
		l8.398-14.846c0.264-0.467,0.756-0.757,1.292-0.762c0.522,0.021,1.034,0.276,1.306,0.738l8.734,14.806
		c0.62,1.068,0.639,2.307,0.055,3.32C422.477-140.638,421.326-140,420.015-140 M413.038-156.071l-7.115,12.577
		c-0.101,0.182-0.051,0.267-0.034,0.295c0.057,0.097,0.211,0.199,0.477,0.199h13.649c0.266,0,0.421-0.104,0.478-0.202
		c0.017-0.028,0.066-0.117-0.045-0.309L413.038-156.071z"/>
	<path clip-path="url(#SVGID_2_)" d="M573-130.5c0,5.247-4.253,9.5-9.5,9.5h-44c-5.247,0-9.5-4.253-9.5-9.5v-44
		c0-5.247,4.253-9.5,9.5-9.5h44c5.247,0,9.5,4.253,9.5,9.5V-130.5z M570-174.5c0-3.59-2.91-6.5-6.5-6.5h-44
		c-3.59,0-6.5,2.91-6.5,6.5v44c0,3.59,2.91,6.5,6.5,6.5h44c3.59,0,6.5-2.91,6.5-6.5V-174.5z"/>
	<path clip-path="url(#SVGID_2_)" d="M541.014-140H541c-0.542,0-1.04-0.063-1.301-0.538l-8.396-15.172
		c-0.614-1.106-0.583-2.45,0.09-3.593c0.646-1.102,1.759-1.697,2.974-1.697h13.65c1.229,0,2.348,0.667,2.991,1.785
		c0.669,1.161,0.682,2.574,0.035,3.688l-8.729,15.013C542.048-140.048,541.551-140,541.014-140 M534.367-158
		c-0.202,0-0.338,0.193-0.387,0.276c-0.102,0.174-0.176,0.456-0.051,0.683l7.111,12.954l7.404-12.938
		c0.136-0.233,0.064-0.518-0.036-0.692c-0.049-0.085-0.185-0.282-0.392-0.282H534.367z"/>
	<path clip-path="url(#SVGID_2_)" d="M699-130.5c0,5.247-4.253,9.5-9.5,9.5h-44c-5.247,0-9.5-4.253-9.5-9.5v-44
		c0-5.247,4.253-9.5,9.5-9.5h44c5.247,0,9.5,4.253,9.5,9.5V-130.5z M696-174.5c0-3.59-2.91-6.5-6.5-6.5h-44
		c-3.59,0-6.5,2.91-6.5,6.5v44c0,3.59,2.91,6.5,6.5,6.5h44c3.59,0,6.5-2.91,6.5-6.5V-174.5z"/>
	<path clip-path="url(#SVGID_2_)" d="M662.447-143.611L662.447-143.611c-2.02-0.001-3.447-1.572-3.447-3.504v-13.65
		c0-1.932,1.428-3.503,3.445-3.503c0.629,0,1.138,0.165,1.675,0.476l15.17,8.73c0.471,0.27,0.731,0.771,0.727,1.314
		c-0.005,0.542-0.314,1.039-0.791,1.301l-15.16,8.395C663.55-143.766,663.053-143.611,662.447-143.611 M662.445-161.269
		c-0.305,0-0.445,0.22-0.445,0.503v13.65c0,0.283,0.141,0.504,0.447,0.504c0.099,0,0.08-0.022,0.159-0.066l12.874-7.112
		l-12.833-7.404C662.561-161.244,662.549-161.269,662.445-161.269"/>
	<path clip-path="url(#SVGID_2_)" d="M827-130.5c0,5.247-4.253,9.5-9.5,9.5h-44c-5.247,0-9.5-4.253-9.5-9.5v-44
		c0-5.247,4.253-9.5,9.5-9.5h44c5.247,0,9.5,4.253,9.5,9.5V-130.5z M824-174.5c0-3.59-2.91-6.5-6.5-6.5h-44
		c-3.59,0-6.5,2.91-6.5,6.5v44c0,3.59,2.91,6.5,6.5,6.5h44c3.59,0,6.5-2.91,6.5-6.5V-174.5z"/>
	<path clip-path="url(#SVGID_2_)" d="M801.502-142.611c-0.572,0-1.24-0.15-1.771-0.445l-14.885-8.399
		c-0.467-0.265-0.783-0.757-0.787-1.292c-0.005-0.535,0.263-1.033,0.724-1.306l14.785-8.733c0.546-0.316,1.35-0.481,1.935-0.481
		c1.844,0,3.497,1.539,3.497,3.503v13.65C805-144.15,803.344-142.611,801.502-142.611 M788.528-152.789l12.779,7.116
		c0.236,0.132,0.692,0.001,0.692-0.442v-13.65c0-0.442-0.436-0.592-0.71-0.432L788.528-152.789z"/>
	<path clip-path="url(#SVGID_2_)" d="M-100.478-121.099c-17.369,0-31.5-14.131-31.5-31.5s14.131-31.5,31.5-31.5
		s31.5,14.131,31.5,31.5S-83.108-121.099-100.478-121.099 M-100.478-181.099c-15.715,0-28.5,12.785-28.5,28.5s12.785,28.5,28.5,28.5
		s28.5-12.785,28.5-28.5S-84.763-181.099-100.478-181.099"/>
	<path clip-path="url(#SVGID_2_)" d="M-96.054-144h-9.172c-1.153,0-2.193-0.512-2.784-1.368c-0.551-0.802-0.657-1.815-0.288-2.781
		c0.028-0.071,0.06-0.141,0.097-0.206l6.255-10.95c0.267-0.469,0.764-0.694,1.303-0.694h0.002c0.538,0,1.035,0.223,1.302,0.69
		l6.257,10.915c0.038,0.066,0.072,0.121,0.1,0.193c0.372,0.979,0.261,2.005-0.307,2.827C-93.885-144.509-94.919-144-96.054-144
		 M-105.489-147.055c0.029,0.025,0.121,0.055,0.263,0.055h9.172c0.172,0,0.261-0.053,0.289-0.077l-4.872-8.523L-105.489-147.055z"/>
	<path clip-path="url(#SVGID_2_)" d="M30.663-121.099c-17.369,0-31.5-14.131-31.5-31.5s14.131-31.5,31.5-31.5s31.5,14.131,31.5,31.5
		S48.032-121.099,30.663-121.099 M30.663-181.099c-15.715,0-28.5,12.785-28.5,28.5s12.785,28.5,28.5,28.5s28.5-12.785,28.5-28.5
		S46.378-181.099,30.663-181.099"/>
	<path clip-path="url(#SVGID_2_)" d="M30.5-142c-0.538,0-1.033-0.289-1.301-0.754l-6.257-10.881
		c-0.039-0.069-0.073-0.142-0.102-0.215c-0.367-0.968-0.261-1.981,0.291-2.782c0.59-0.857,1.63-1.368,2.782-1.368h9.171
		c1.193,0,2.214,0.49,2.803,1.346c0.533,0.774,0.631,1.764,0.269,2.714c-0.028,0.072-0.061,0.142-0.099,0.209l-6.255,10.973
		c-0.265,0.467-0.761,0.759-1.3,0.759H30.5z M25.646-154.953l4.848,8.431l4.819-8.452C35.255-154.989,35.18-155,35.083-155h-9.171
		C25.785-155,25.696-154.975,25.646-154.953"/>
	<path clip-path="url(#SVGID_2_)" d="M154.026-144.136c-1.786,0-3.026-1.476-3.026-3.289v-9.172c0-1.813,1.238-3.289,3.022-3.289
		c0.396,0,0.682,0.073,1.06,0.217c0.07,0.026,0.084,0.059,0.148,0.096l11.116,6.255c0.473,0.266,0.752,0.766,0.752,1.308
		s-0.299,1.042-0.772,1.308l-11.141,6.256c-0.064,0.036-0.026,0.067-0.095,0.094C154.712-144.209,154.423-144.136,154.026-144.136
		 M154.022-156.886c-0.091,0-0.022,0.079-0.022,0.289v9.172c0,0.223-0.043,0.311,0.061,0.286l8.567-4.872l-8.624-4.872
		C153.992-156.885,154.034-156.886,154.022-156.886"/>
	<path clip-path="url(#SVGID_2_)" d="M156.41-121.099c-17.369,0-31.5-14.131-31.5-31.5s14.131-31.5,31.5-31.5s31.5,14.131,31.5,31.5
		S173.779-121.099,156.41-121.099 M156.41-181.099c-15.715,0-28.5,12.785-28.5,28.5s12.785,28.5,28.5,28.5s28.5-12.785,28.5-28.5
		S172.125-181.099,156.41-181.099"/>
	<path clip-path="url(#SVGID_2_)" d="M286.009-144.148c-0.368,0-0.854-0.073-1.232-0.218c-0.073-0.028-0.198-0.062-0.266-0.102
		l-10.92-6.254c-0.465-0.267-0.767-0.761-0.768-1.297s0.277-1.032,0.74-1.301l10.76-6.257c0.07-0.041,0.144-0.076,0.22-0.105
		c0.378-0.144,0.972-0.216,1.347-0.216c1.652,0,3.11,1.413,3.11,3.288v9.172C289-145.501,287.644-144.148,286.009-144.148
		 M277.309-152.03l8.471,4.741c0.005-0.044,0.221-0.094,0.221-0.148v-9.172c0-0.086-0.223-0.157-0.233-0.214L277.309-152.03z"/>
	<path clip-path="url(#SVGID_2_)" d="M282.778-121.099c-17.369,0-31.5-14.131-31.5-31.5s14.131-31.5,31.5-31.5
		s31.5,14.131,31.5,31.5S300.147-121.099,282.778-121.099 M282.778-181.099c-15.715,0-28.5,12.785-28.5,28.5s12.785,28.5,28.5,28.5
		s28.5-12.785,28.5-28.5S298.493-181.099,282.778-181.099"/>
	<path clip-path="url(#SVGID_2_)" d="M-327.927-122h-51c-0.828,0-1.073-0.672-1.073-1.5v-16c0-0.828,0.245-1.5,1.073-1.5h9
		c0.828,0,1.927,0.672,1.927,1.5v6.5h30v-6.5c0-0.828,0.245-1.5,1.073-1.5h9c0.828,0,1.927,0.672,1.927,1.5v16
		C-326-122.672-327.099-122-327.927-122 M-377-125h48v-13h-6v6.5c0,0.828-1.099,1.5-1.927,1.5h-33c-0.828,0-1.073-0.672-1.073-1.5
		v-6.5h-6V-125z"/>
	<path clip-path="url(#SVGID_2_)" d="M-353.711-137.973c-0.152,0-0.198-0.007-0.35-0.021c-2.735-0.239-4.938-2.627-4.938-5.214V-160
		h-3.427c-1.652,0-3.143-0.871-3.889-2.272c-0.732-1.377-0.634-2.996,0.265-4.331l11.421-16.767c0.558-0.82,1.92-0.82,2.478,0
		l11.416,16.76c0.904,1.342,1.002,2.961,0.27,4.338c-0.747,1.401-2.237,2.272-3.889,2.272H-348v16.921
		C-348-140.359-350.783-137.973-353.711-137.973 M-353.391-179.861l-10.177,14.94c-0.368,0.547-0.22,1.012-0.099,1.238
		c0.227,0.428,0.691,0.683,1.24,0.683h4.5c0.828,0,1.927,0.672,1.927,1.5v18.293c0,1.021,1.141,2.124,2.305,2.226
		c1.348,0.111,2.695-0.96,2.695-2.098V-161.5c0-0.828,0.245-1.5,1.073-1.5h5.572c0.549,0,1.013-0.255,1.24-0.683
		c0.121-0.228,0.269-0.691-0.104-1.245L-353.391-179.861z"/>
	<path clip-path="url(#SVGID_2_)" d="M-200.927-122h-51c-0.828,0-1.073-0.672-1.073-1.5v-16c0-0.828,0.245-1.5,1.073-1.5h9
		c0.828,0,1.927,0.672,1.927,1.5v6.5h30v-6.5c0-0.828,0.245-1.5,1.073-1.5h9c0.828,0,1.927,0.672,1.927,1.5v16
		C-199-122.672-200.099-122-200.927-122 M-250-125h48v-13h-6v6.5c0,0.828-1.099,1.5-1.927,1.5h-33c-0.828,0-1.073-0.672-1.073-1.5
		v-6.5h-6V-125z"/>
	<path clip-path="url(#SVGID_2_)" d="M-225.984-137.974c-0.504,0-0.974-0.253-1.251-0.673l-11.416-17.26
		c-0.925-1.374-0.994-3.189-0.176-4.728c0.789-1.481,2.212-2.366,3.806-2.366H-232v-15.791c0-2.587,2.31-4.975,5.044-5.214
		c3.082-0.268,5.956,2.224,5.956,5.086V-163h4.052c1.595,0,3.018,0.885,3.807,2.367c0.818,1.539,0.748,3.354-0.184,4.736
		l-11.408,17.25C-225.011-138.227-225.48-137.974-225.984-137.974 M-235.021-160c-0.672,0-1.033,0.543-1.157,0.776
		c-0.233,0.437-0.349,1.101,0.022,1.652l10.172,15.379l10.164-15.368c0.379-0.562,0.263-1.226,0.03-1.663
		c-0.125-0.233-0.486-0.776-1.158-0.776h-5.978c-0.828,0-1.074-0.672-1.074-1.5v-17.419c0-1.14-1.348-2.221-2.694-2.098
		c-1.164,0.102-2.306,1.205-2.306,2.226v17.291c0,0.828-1.098,1.5-1.926,1.5H-235.021z"/>
	<path clip-path="url(#SVGID_2_)" d="M-331.512-651.672c-0.484,0-0.96-0.234-1.249-0.668l-18.752-28.128l-18.752,28.128
		c-0.46,0.69-1.392,0.877-2.08,0.416c-0.689-0.46-0.876-1.391-0.416-2.08l20-30c0.557-0.834,1.939-0.834,2.496,0l20,30
		c0.46,0.689,0.274,1.62-0.416,2.08C-330.937-651.753-331.226-651.672-331.512-651.672"/>
	<path clip-path="url(#SVGID_2_)" d="M-224.106-651.672c-0.502,0-0.97-0.251-1.248-0.668l-20-30c-0.46-0.689-0.273-1.62,0.416-2.08
		c0.687-0.461,1.62-0.274,2.08,0.416l18.752,28.128l18.752-28.128c0.459-0.69,1.391-0.877,2.08-0.416
		c0.689,0.46,0.876,1.391,0.416,2.08l-20,30C-223.136-651.923-223.604-651.672-224.106-651.672"/>
	<path clip-path="url(#SVGID_2_)" d="M-83.479-646.672c-0.286,0-0.575-0.081-0.831-0.252l-30-20
		c-0.417-0.278-0.668-0.746-0.668-1.248s0.251-0.97,0.668-1.248l30-20c0.688-0.461,1.62-0.274,2.08,0.416
		c0.46,0.689,0.273,1.62-0.416,2.08l-28.128,18.752l28.128,18.752c0.689,0.46,0.876,1.391,0.416,2.08
		C-82.519-646.906-82.995-646.672-83.479-646.672"/>
	<path clip-path="url(#SVGID_2_)" d="M17.664-646.672c-0.484,0-0.96-0.234-1.249-0.668c-0.46-0.689-0.273-1.62,0.416-2.08
		l28.128-18.752l-28.128-18.752c-0.689-0.46-0.876-1.391-0.416-2.08c0.459-0.689,1.391-0.876,2.08-0.416l30,20
		c0.417,0.278,0.668,0.746,0.668,1.248s-0.251,0.97-0.668,1.248l-30,20C18.239-646.753,17.95-646.672,17.664-646.672"/>
	<path clip-path="url(#SVGID_2_)" d="M285.278-635.785c-0.495,0-0.959-0.245-1.238-0.654l-17.234-25.236
		c-0.468-0.683-0.292-1.617,0.393-2.084c0.684-0.464,1.618-0.293,2.084,0.393l15.996,23.422l15.997-23.422
		c0.467-0.686,1.4-0.858,2.084-0.393c0.685,0.467,0.86,1.401,0.393,2.084l-17.235,25.236
		C286.237-636.03,285.773-635.785,285.278-635.785"/>
	<path clip-path="url(#SVGID_2_)" d="M285.5-639.5c-0.828,0-1.5-0.672-1.5-1.5v-58c0-0.828,0.672-1.5,1.5-1.5s1.5,0.672,1.5,1.5v58
		C287-640.172,286.328-639.5,285.5-639.5"/>
	<path clip-path="url(#SVGID_2_)" d="M411.661-649.106c-0.276,0-0.556-0.076-0.805-0.235l-27.565-17.566
		c-0.433-0.275-0.694-0.752-0.694-1.264c0-0.513,0.262-0.99,0.694-1.265l27.565-17.566c0.694-0.444,1.624-0.24,2.07,0.459
		c0.445,0.699,0.24,1.625-0.459,2.071l-25.58,16.301l25.58,16.3c0.699,0.446,0.904,1.372,0.459,2.071
		C412.641-649.352,412.156-649.106,411.661-649.106"/>
	<path clip-path="url(#SVGID_2_)" d="M445.573-668h-60c-0.828,0-1.5-0.672-1.5-1.5s0.672-1.5,1.5-1.5h60c0.828,0,1.5,0.672,1.5,1.5
		S446.401-668,445.573-668"/>
	<path clip-path="url(#SVGID_2_)" d="M546.978-649.097c-0.495,0-0.979-0.245-1.267-0.693c-0.444-0.7-0.239-1.626,0.459-2.072
		l25.591-16.31l-25.591-16.311c-0.698-0.445-0.903-1.372-0.459-2.071c0.446-0.698,1.375-0.902,2.072-0.458l27.575,17.575
		c0.431,0.276,0.693,0.752,0.693,1.265c0,0.513-0.263,0.989-0.693,1.264l-27.575,17.576
		C547.533-649.173,547.254-649.097,546.978-649.097"/>
	<path clip-path="url(#SVGID_2_)" d="M572.573-668h-60c-0.828,0-1.5-0.672-1.5-1.5s0.672-1.5,1.5-1.5h60c0.828,0,1.5,0.672,1.5,1.5
		S573.401-668,572.573-668"/>
	<path clip-path="url(#SVGID_2_)" d="M691.634-644.292c-0.108,0-0.217-0.012-0.324-0.035l-31.927-7.071
		c-0.809-0.18-1.319-0.981-1.141-1.79c0.18-0.809,0.976-1.316,1.789-1.14l29.629,6.562l-6.562-29.629
		c-0.179-0.808,0.332-1.609,1.14-1.789c0.811-0.173,1.61,0.33,1.79,1.141l7.071,31.927c0.11,0.5-0.042,1.022-0.404,1.385
		C692.41-644.447,692.027-644.292,691.634-644.292"/>
	<path clip-path="url(#SVGID_2_)" d="M690.688-646.625c-0.384,0-0.768-0.146-1.061-0.439l-42.426-42.427
		c-0.586-0.586-0.586-1.535,0-2.121c0.586-0.586,1.535-0.586,2.121,0l42.426,42.426c0.586,0.586,0.586,1.536,0,2.122
		C691.455-646.771,691.071-646.625,690.688-646.625"/>
	<path clip-path="url(#SVGID_2_)" d="M775.725-644.292c-0.395,0-0.776-0.155-1.061-0.439c-0.362-0.363-0.515-0.885-0.404-1.385
		l7.07-31.927c0.179-0.809,0.977-1.314,1.789-1.141c0.809,0.18,1.319,0.981,1.141,1.789l-6.562,29.629l29.628-6.562
		c0.812-0.176,1.609,0.331,1.789,1.14c0.179,0.809-0.332,1.61-1.141,1.79l-31.926,7.071
		C775.941-644.304,775.832-644.292,775.725-644.292"/>
	<path clip-path="url(#SVGID_2_)" d="M776.67-646.625c-0.384,0-0.768-0.146-1.061-0.439c-0.586-0.586-0.586-1.536,0-2.122
		l42.427-42.426c0.586-0.586,1.535-0.586,2.121,0c0.586,0.586,0.586,1.535,0,2.121l-42.427,42.427
		C777.438-646.771,777.054-646.625,776.67-646.625"/>
	<path clip-path="url(#SVGID_2_)" d="M176.391-670.197c-0.479,0-0.949-0.229-1.239-0.654l-15.996-23.421l-15.997,23.421
		c-0.467,0.685-1.402,0.859-2.084,0.392c-0.685-0.467-0.861-1.4-0.393-2.084l17.235-25.234c0.559-0.818,1.918-0.818,2.477,0
		l17.234,25.234c0.468,0.684,0.292,1.617-0.392,2.084C176.977-670.282,176.683-670.197,176.391-670.197"/>
	<path clip-path="url(#SVGID_2_)" d="M159.5-637.5c-0.828,0-1.5-0.672-1.5-1.5v-57c0-0.828,0.672-1.5,1.5-1.5s1.5,0.672,1.5,1.5v57
		C161-638.172,160.328-637.5,159.5-637.5"/>
</g>
<path fill="#FFFFFF" d="M12.939,29.581c-0.109,0-0.216-0.096-0.28-0.274c-0.104-0.283-0.062-0.667,0.093-0.855l6.317-7.714
	l-6.317-7.713c-0.155-0.189-0.197-0.571-0.093-0.856c0.103-0.283,0.312-0.359,0.467-0.17l6.738,8.227
	c0.094,0.114,0.15,0.307,0.15,0.513c0,0.207-0.056,0.399-0.15,0.513l-6.738,8.228C13.068,29.548,13.003,29.581,12.939,29.581"/>
</svg>
