<?xml version="1.0" encoding="utf-8"?>
<!-- Generator: Adobe Illustrator 16.0.0, SVG Export Plug-In . SVG Version: 6.00 Build 0)  -->
<!DOCTYPE svg PUBLIC "-//W3C//DTD SVG 1.1//EN" "http://www.w3.org/Graphics/SVG/1.1/DTD/svg11.dtd">
<svg version="1.1" id="Layer_1" xmlns="http://www.w3.org/2000/svg" xmlns:xlink="http://www.w3.org/1999/xlink" x="0px" y="0px"
	 width="960px" height="560px" viewBox="0 0 960 560" enable-background="new 0 0 960 560" xml:space="preserve">
<path fill="#FFFFFF" d="M417.549,370.69L417.549,370.69c-17.721-0.009-30.249-13.796-30.249-30.745V220.167
	c0-16.95,12.528-30.737,30.231-30.737c5.519,0,9.983,1.448,14.696,4.173L565.34,270.21c4.131,2.365,6.418,6.77,6.375,11.534
	c-0.043,4.756-2.759,9.117-6.94,11.414l-133.026,73.659C427.224,369.337,422.862,370.69,417.549,370.69 M417.532,215.753
	c-2.673,0-3.907,1.928-3.907,4.413v119.779c0,2.484,1.234,4.421,3.924,4.421c0.866,0,0.703-0.197,1.397-0.583l112.966-62.408
	l-112.606-64.97C418.543,215.968,418.441,215.753,417.532,215.753"/>
</svg>
