<?xml version="1.0" encoding="utf-8"?>
<!-- Generator: Adobe Illustrator 16.0.0, SVG Export Plug-In . SVG Version: 6.00 Build 0)  -->
<!DOCTYPE svg PUBLIC "-//W3C//DTD SVG 1.1//EN" "http://www.w3.org/Graphics/SVG/1.1/DTD/svg11.dtd">
<svg version="1.1" id="Layer_1" xmlns="http://www.w3.org/2000/svg" xmlns:xlink="http://www.w3.org/1999/xlink" x="0px" y="0px"
	 width="328.667px" height="234.667px" viewBox="0 0 328.667 234.667" enable-background="new 0 0 328.667 234.667"
	 xml:space="preserve">
<path d="M260.202,62.741c1.257,1.081,2.831,1.549,4.362,1.434c1.53-0.116,3.018-0.815,4.098-2.072
	c2.161-2.514,1.875-6.303-0.638-8.46l-4.951-4.261c11.98,1.733,27.971,10.092,29.689,39.15c0.094,1.588,3.972,3.705,6.809,3.154
	c2.209-0.429,4.548-2.934,4.479-4.524c-0.148-3.465-2.681-15.679-2.681-15.679c-4.211-19.125-20.794-33.258-40.381-34.354
	l5.327-6.196c2.16-2.512,1.875-6.298-0.639-8.459c-2.513-2.161-6.299-1.875-8.46,0.638l-14.409,16.76
	c-1.038,1.207-1.554,2.776-1.435,4.362c0.12,1.59,0.865,3.061,2.072,4.098L260.202,62.741z M260.202,62.741L260.202,62.741z"/>
<g>
	<path fill="#010101" d="M279.044,200V100c0-6.746-6.912-12.233-15.41-12.233H51.036c-8.497,0-15.41,5.488-15.41,12.233v100
		c0,6.746,6.912,12.234,15.41,12.234h212.598C272.132,212.233,279.044,206.746,279.044,200z M240.31,93.897v112.206H79.329V93.897
		H240.31z M271.321,100v100c0,3.365-3.449,6.104-7.688,6.104H245.46V93.897h18.174C267.872,93.897,271.321,96.635,271.321,100z
		 M43.349,200V100c0-3.365,3.448-6.104,7.688-6.104h23.145v112.207H51.036C46.797,206.104,43.349,203.365,43.349,200z"/>
	<path fill="#010101" d="M70.769,150c0-6.973-5.674-12.646-12.648-12.646c-6.973,0-12.646,5.674-12.646,12.646
		s5.673,12.646,12.646,12.646C65.094,162.646,70.769,156.974,70.769,150z M50.623,150c0-4.135,3.364-7.498,7.497-7.498
		c4.136,0,7.5,3.363,7.5,7.498s-3.364,7.498-7.5,7.498C53.987,157.498,50.623,154.135,50.623,150z"/>
	<path fill="#010101" d="M254.515,132.496v35.009c0,1.422,1.152,2.574,2.574,2.574s2.574-1.152,2.574-2.574v-35.009
		c0-1.422-1.152-2.574-2.574-2.574S254.515,131.074,254.515,132.496z"/>
	<path fill="#010101" d="M254.515,123.23c0,0.674,0.273,1.338,0.752,1.817c0.484,0.479,1.143,0.757,1.822,0.757
		s1.34-0.277,1.824-0.757c0.479-0.479,0.75-1.144,0.75-1.817c0-0.68-0.271-1.34-0.75-1.822c-0.48-0.479-1.145-0.752-1.824-0.752
		s-1.338,0.273-1.822,0.752C254.788,121.887,254.515,122.551,254.515,123.23z"/>
</g>
</svg>
