<?xml version="1.0" encoding="utf-8"?>
<!-- Generator: Adobe Illustrator 16.0.0, SVG Export Plug-In . SVG Version: 6.00 Build 0)  -->
<!DOCTYPE svg PUBLIC "-//W3C//DTD SVG 1.1//EN" "http://www.w3.org/Graphics/SVG/1.1/DTD/svg11.dtd">
<svg version="1.1" id="Layer_1" xmlns="http://www.w3.org/2000/svg" xmlns:xlink="http://www.w3.org/1999/xlink" x="0px" y="0px"
	 width="960px" height="560px" viewBox="0 0 960 560" enable-background="new 0 0 960 560" xml:space="preserve">
<path fill="#FFFFFF" d="M583.549,352.169c0,17.332-14.048,31.38-31.38,31.38H406.831c-17.332,0-31.38-14.048-31.38-31.38V206.831
	c0-17.332,14.048-31.38,31.38-31.38h145.338c17.332,0,31.38,14.048,31.38,31.38V352.169z M573.64,206.831
	c0-11.858-9.613-21.471-21.471-21.471H406.831c-11.858,0-21.471,9.613-21.471,21.471v145.338c0,11.857,9.613,21.471,21.471,21.471
	h145.338c11.857,0,21.471-9.613,21.471-21.471V206.831z"/>
<path fill="#FFFFFF" d="M462.81,308.86L462.81,308.86c-6.671-0.003-11.387-5.193-11.387-11.573v-45.09
	c0-6.38,4.716-11.57,11.38-11.57c2.077,0,3.758,0.545,5.532,1.571l50.108,28.838c1.555,0.89,2.416,2.548,2.399,4.342
	c-0.016,1.791-1.038,3.432-2.612,4.297l-50.076,27.728C466.452,308.351,464.81,308.86,462.81,308.86 M462.804,250.536
	c-1.006,0-1.471,0.726-1.471,1.661v45.09c0,0.935,0.464,1.664,1.477,1.664c0.326,0,0.265-0.074,0.526-0.22l42.524-23.493
	l-42.389-24.458C463.185,250.617,463.146,250.536,462.804,250.536"/>
</svg>
