<?xml version="1.0" encoding="UTF-8" standalone="no"?>
<svg width="46px" height="42px" viewBox="0 0 46 42" version="1.1" xmlns="http://www.w3.org/2000/svg" xmlns:xlink="http://www.w3.org/1999/xlink">
    <!-- Generator: Sketch 40.3 (33839) - http://www.bohemiancoding.com/sketch -->
    <title>Group 5</title>
    <desc>Created with Sketch.</desc>
    <defs>
        <polygon id="path-1" points="39.6360783 21.9919457 39.6360783 0.0829809939 2.17429804e-20 0.0829809939 0 21.9919457 39.6360783 21.9919457"></polygon>
        <polygon id="path-3" points="0 33.9717189 39.6360783 33.9717189 39.6360783 0 0 0"></polygon>
    </defs>
    <g id="Mobile" stroke="none" stroke-width="1" fill="none" fill-rule="evenodd">
        <g id="Relatório" transform="translate(-905.000000, -117.000000)">
            <g id="Group-7" transform="translate(742.000000, 109.000000)">
                <g id="Group-5">
                    <g id="Page-1" transform="translate(166.385553, 11.323085)">
                        <g id="Group-3" transform="translate(0.000000, 11.979742)">
                            <mask id="mask-2" fill="white">
                                <use xlink:href="#path-1"></use>
                            </mask>
                            <g id="Clip-2"></g>
                            <path d="M6.50136672,16.6636925 L6.50136672,16.6578073 L33.1348399,16.6578073 L33.1348399,16.6636925 C33.1348399,17.1775613 33.0003955,17.6616946 32.7639145,18.0848078 L6.87229216,18.0848078 C6.63581115,17.6616946 6.50136672,17.1775613 6.50136672,16.6636925 M9.61284074,2.2031934 L30.0233659,2.2031934 C30.8415838,2.2031934 31.5856807,2.5126298 32.1414271,3.01348933 C28.7446999,4.58390231 29.8385449,12.2860501 26.1790253,12.3690621 C22.0603412,12.4629152 24.0583971,2.73347881 20.0773661,2.73347881 C16.0960142,2.73347881 17.1183052,12.6289391 13.1440124,12.3637964 C9.16971961,12.0986537 11.3519548,3.28420746 8.42337656,3.1442022 C7.93308757,3.12035175 7.52847081,3.19840778 7.18449843,3.33438634 C7.75468399,2.64613039 8.63097929,2.2031934 9.61284074,2.2031934 M35.3315142,16.6636925 L35.3315142,5.20742132 C35.3315142,2.38191693 32.9500189,0.0829809939 30.0233659,0.0829809939 L9.61284074,0.0829809939 C6.6861877,0.0829809939 4.30469238,2.38191693 4.30469238,5.20742132 L4.30469238,16.6636925 C4.30469238,17.1568083 4.37881329,17.6331979 4.51422033,18.0848078 L-9.62609265e-05,18.0848078 L-9.62609265e-05,21.9919457 L39.6363029,21.9919457 L39.6363029,18.0848078 L35.1219863,18.0848078 C35.2573933,17.6331979 35.3315142,17.1568083 35.3315142,16.6636925" id="Fill-1" fill="#FFFFFF" mask="url(#mask-2)"></path>
                        </g>
                        <path d="M13.8766864,3.79020878 C13.2737721,2.66490101 14.4041963,1.85491483 14.4041963,1.85491483 C15.1203776,2.90340555 14.5171424,3.79020878 14.5171424,3.79020878 C16.5896402,2.8829623 14.1028996,0.000154873076 14.1028996,0.000154873076 C14.2912501,0.721243913 12.9545067,1.99987602 12.9137563,2.886989 C12.8730058,3.77441172 13.8766864,3.79020878 13.8766864,3.79020878" id="Fill-4" fill="#FFFFFF"></path>
                        <path d="M17.6703937,3.79020878 C17.0674794,2.66490101 18.1979036,1.85491483 18.1979036,1.85491483 C18.9140849,2.90340555 18.3108497,3.79020878 18.3108497,3.79020878 C20.3833475,2.8829623 17.8966069,0.000154873076 17.8966069,0.000154873076 C18.0849574,0.721243913 16.748214,1.99987602 16.7074636,2.886989 C16.6667131,3.77441172 17.6703937,3.79020878 17.6703937,3.79020878" id="Fill-6" fill="#FFFFFF"></path>
                        <path d="M21.4641331,3.79020878 C20.8612188,2.66490101 21.9916429,1.85491483 21.9916429,1.85491483 C22.7078242,2.90340555 22.1045891,3.79020878 22.1045891,3.79020878 C24.1770869,2.8829623 21.6903462,0.000154873076 21.6903462,0.000154873076 C21.8786968,0.721243913 20.5419534,1.99987602 20.5012029,2.886989 C20.4604525,3.77441172 21.4641331,3.79020878 21.4641331,3.79020878" id="Fill-8" fill="#FFFFFF"></path>
                        <path d="M25.2578404,3.79020878 C24.6549261,2.66490101 25.7853502,1.85491483 25.7853502,1.85491483 C26.5015315,2.90340555 25.8982964,3.79020878 25.8982964,3.79020878 C27.9707941,2.8829623 25.4840535,0.000154873076 25.4840535,0.000154873076 C25.6724041,0.721243913 24.3356607,1.99987602 24.2949102,2.886989 C24.2541598,3.77441172 25.2578404,3.79020878 25.2578404,3.79020878" id="Fill-10" fill="#FFFFFF"></path>
                        <mask id="mask-4" fill="white">
                            <use xlink:href="#path-3"></use>
                        </mask>
                        <g id="Clip-13"></g>
                        <polygon id="Fill-12" fill="#FFFFFF" mask="url(#mask-4)" points="13.3119235 11.1409496 14.9419419 11.1409496 14.9419419 4.65021897 13.3119235 4.65021897"></polygon>
                        <polygon id="Fill-14" fill="#FFFFFF" mask="url(#mask-4)" points="17.1062084 11.1409496 18.7362268 11.1409496 18.7362268 4.65021897 17.1062084 4.65021897"></polygon>
                        <polygon id="Fill-15" fill="#FFFFFF" mask="url(#mask-4)" points="20.9001724 11.1409496 22.5301907 11.1409496 22.5301907 4.65021897 20.9001724 4.65021897"></polygon>
                        <polygon id="Fill-16" fill="#FFFFFF" mask="url(#mask-4)" points="24.6941364 11.1409496 26.3241547 11.1409496 26.3241547 4.65021897 24.6941364 4.65021897"></polygon>
                    </g>
                </g>
            </g>
        </g>
    </g>
</svg>