<?xml version="1.0" encoding="UTF-8" standalone="no"?>
<svg width="24px" height="47px" viewBox="0 0 24 47" version="1.1" xmlns="http://www.w3.org/2000/svg" xmlns:xlink="http://www.w3.org/1999/xlink">
    <!-- Generator: Sketch 40.3 (33839) - http://www.bohemiancoding.com/sketch -->
    <title>Group 5</title>
    <desc>Created with Sketch.</desc>
    <defs>
        <polygon id="path-1" points="0.16338678 32.9013395 9.55542154 32.9013395 9.55542154 0.0367486736 0.16338678 0.0367486736"></polygon>
        <polygon id="path-3" points="3.43570586e-05 32.9013395 9.39130438 32.9013395 9.39130438 0.0367486736 3.43570586e-05 0.0367486736"></polygon>
    </defs>
    <g id="Mobile" stroke="none" stroke-width="1" fill="none" fill-rule="evenodd">
        <g id="Relatório" transform="translate(-840.000000, -114.000000)">
            <g id="Group-7" transform="translate(742.000000, 109.000000)">
                <g id="Group-5">
                    <g id="Page-1" transform="translate(101.278163, 7.798387)">
                        <g id="Group-3" transform="translate(8.926761, 7.335141)">
                            <mask id="mask-2" fill="white">
                                <use xlink:href="#path-1"></use>
                            </mask>
                            <g id="Clip-2"></g>
                            <path d="M0.248055757,19.4472123 L0.672482673,19.4472123 L0.672482673,31.4437306 C0.672482673,31.4437306 0.843173166,32.9014722 2.20166391,32.9014722 C3.56123668,32.9014722 3.73084514,31.6092986 3.73084514,31.6092986 L3.73084514,19.4472123 L8.23236733,19.4472123 L3.39054619,4.49302284 L4.15446054,4.49302284 L7.1273425,13.6157152 C7.1273425,13.6157152 7.63724992,14.5321767 8.74119272,14.157526 C9.84459449,13.7823446 9.50673011,12.7823031 9.50673011,12.7823031 C9.50673011,12.7823031 6.78785507,3.66120269 6.49002586,2.82779053 C6.19354919,1.99517437 5.00385538,0.0367486736 3.09379901,0.0367486736 L0.16338678,0.0367486736" id="Fill-1" fill="#FFFFFF" mask="url(#mask-2)"></path>
                        </g>
                        <path d="M12.2087796,3.2069254 C12.2087796,4.97829107 10.7450612,6.41401 8.93833888,6.41401 C7.13242805,6.41401 5.66925075,4.97829107 5.66925075,3.2069254 C5.66925075,1.4360904 7.13242805,0.000106133353 8.93833888,0.000106133353 C10.7450612,0.000106133353 12.2087796,1.4360904 12.2087796,3.2069254" id="Fill-4" fill="#FFFFFF"></path>
                        <g id="Group-8" transform="translate(0.000000, 7.335141)">
                            <mask id="mask-4" fill="white">
                                <use xlink:href="#path-3"></use>
                            </mask>
                            <g id="Clip-7"></g>
                            <path d="M9.30717642,19.4472123 L8.88193798,19.4472123 L8.88193798,31.4437306 C8.88193798,31.4437306 8.71205901,32.9014722 7.35275675,32.9014722 C5.9939955,32.9014722 5.82519856,31.6092986 5.82519856,31.6092986 L5.82519856,19.4472123 L1.32394688,19.4472123 L6.16468599,4.49302284 L5.3991486,4.49302284 L2.42788968,13.6157152 C2.42788968,13.6157152 1.91717074,14.5321767 0.812957432,14.157526 C-0.290173839,13.7823446 0.0493135926,12.7823031 0.0493135926,12.7823031 C0.0493135926,12.7823031 2.76656558,3.66120269 3.06547683,2.82779053 C3.36168299,1.99517437 4.55056527,0.0367486736 6.46251521,0.0367486736 L9.39130438,0.0367486736" id="Fill-6" fill="#FFFFFF" mask="url(#mask-4)"></path>
                        </g>
                    </g>
                </g>
            </g>
        </g>
    </g>
</svg>