<?xml version="1.0" encoding="UTF-8" standalone="no"?>
<svg width="40px" height="41px" viewBox="0 0 40 41" version="1.1" xmlns="http://www.w3.org/2000/svg" xmlns:xlink="http://www.w3.org/1999/xlink">
    <!-- Generator: Sketch 40.3 (33839) - http://www.bohemiancoding.com/sketch -->
    <title>Group 5</title>
    <desc>Created with Sketch.</desc>
    <defs>
        <polygon id="path-1" points="21.8812764 0.0970477648 0.0352973078 0.0970477648 0.0352973078 29.1273923 21.8812764 29.1273923 21.8812764 0.0970477648"></polygon>
        <polygon id="path-3" points="8.60027781 12.5340378 8.60027781 0.0249503423 0.0232280335 0.0249503423 0.0232280335 12.5340378 8.60027781 12.5340378"></polygon>
        <polygon id="path-5" points="0 34.7147802 31.4114572 34.7147802 31.4114572 0.111935138 0 0.111935138"></polygon>
    </defs>
    <g id="Mobile" stroke="none" stroke-width="1" fill="none" fill-rule="evenodd">
        <g id="Relatório" transform="translate(-759.000000, -116.000000)">
            <g id="Group-7" transform="translate(742.000000, 109.000000)">
                <g id="Group-5">
                    <g id="Page-1" transform="translate(20.496771, 11.323085)">
                        <g id="Group-3" transform="translate(4.747504, 0.014887)">
                            <mask id="mask-2" fill="white">
                                <use xlink:href="#path-1"></use>
                            </mask>
                            <g id="Clip-2"></g>
                            <path d="M14.002903,26.3573334 C10.5405828,19.9508377 15.7345842,16.3724952 15.7345842,16.3724952 C24.0332218,11.6396537 21.5253815,0.0970141842 21.5253815,0.0970141842 L10.9582474,0.0970141842 L0.391229096,0.0970141842 C0.391229096,0.0970141842 -2.11672692,11.6396537 6.18191068,16.3724952 C6.18191068,16.3724952 11.375912,19.9508377 7.91347604,26.3573334 C7.91347604,26.3573334 3.7343985,26.8767124 3.67441783,29.1273923 L10.9582474,29.1273923 L18.2419612,29.1273923 C18.1820964,26.8767124 14.002903,26.3573334 14.002903,26.3573334" id="Fill-1" fill="#FFFFFF" mask="url(#mask-2)"></path>
                        </g>
                        <g id="Group-6" transform="translate(22.811179, 3.037136)">
                            <mask id="mask-4" fill="white">
                                <use xlink:href="#path-3"></use>
                            </mask>
                            <g id="Clip-5"></g>
                            <path d="M8.13613399,2.8756025 C7.52185325,1.63838342 6.09077017,0.458475132 4.52525167,0.0249503423 C4.55107346,0.590782466 4.55871578,1.21202248 4.53520985,1.8727756 C5.39196069,2.25145217 6.1835202,2.943771 6.52314044,3.62791857 C7.26131947,5.0997537 6.49940292,7.65008389 5.04481391,8.58709293 C4.20207399,9.12460546 3.25176257,9.56171218 2.25513404,9.94665712 C1.66551716,10.8725846 0.928264471,11.7471338 0.0232280335,12.5340378 C2.12625667,11.893545 4.23646445,11.1762646 6.03449488,10.0307204 C8.24509501,8.60600997 9.26580844,5.12728974 8.13613399,2.8756025" id="Fill-4" fill="#FFFFFF" mask="url(#mask-4)"></path>
                        </g>
                        <path d="M6.34502798,12.9834574 C5.34828365,12.5988483 4.39820382,12.1617416 3.55557969,11.624229 C2.10099068,10.68722 1.33918992,8.1368898 2.07702157,6.66505467 C2.41687341,5.98090711 3.20820133,5.28858828 4.06506796,4.90991171 C4.04156203,4.24915858 4.04908856,3.62791857 4.07514194,3.06208645 C2.50962343,3.49561124 1.07842456,4.67551953 0.464143815,5.91273861 C-0.665299048,8.16442585 0.355182801,11.6431461 2.56578293,13.0678565 C4.36392915,14.2134007 6.47390535,14.9306811 8.57693398,15.5711739 C7.67131858,14.7839341 6.93464486,13.9093849 6.34502798,12.9834574" id="Fill-7" fill="#FFFFFF"></path>
                        <mask id="mask-6" fill="white">
                            <use xlink:href="#path-5"></use>
                        </mask>
                        <g id="Clip-10"></g>
                        <polygon id="Fill-9" fill="#FFFFFF" mask="url(#mask-6)" points="6.90831358 34.7147802 24.5026805 34.7147802 24.5026805 29.6425513 6.90831358 29.6425513"></polygon>
                    </g>
                </g>
            </g>
        </g>
    </g>
</svg>