<?xml version="1.0" encoding="UTF-8" standalone="no"?>
<svg width="60px" height="37px" viewBox="0 0 60 37" version="1.1" xmlns="http://www.w3.org/2000/svg" xmlns:xlink="http://www.w3.org/1999/xlink">
    <!-- Generator: Sketch 40.3 (33839) - http://www.bohemiancoding.com/sketch -->
    <title>Group 5</title>
    <desc>Created with Sketch.</desc>
    <defs>
        <polygon id="path-1" points="19.8991904 0.0039058871 0.00895038916 0.0039058871 0.00895038916 24.254502 19.8991904 24.254502"></polygon>
    </defs>
    <g id="Mobile" stroke="none" stroke-width="1" fill="none" fill-rule="evenodd">
        <g id="Relatório" transform="translate(-974.000000, -121.000000)">
            <g id="Group-7" transform="translate(742.000000, 109.000000)">
                <g id="Group-5">
                    <g id="Group-4" transform="translate(236.315713, 16.022681)">
                        <g id="Group-3" transform="translate(11.368812, 0.019070)">
                            <mask id="mask-2" fill="white">
                                <use xlink:href="#path-1"></use>
                            </mask>
                            <g id="Clip-2"></g>
                            <path d="M12.4034336,23.8288752 C12.4034336,20.2494743 14.5968962,17.1632491 17.7629308,15.7370259 C17.5100645,15.587798 17.3571241,15.4170878 17.3571241,15.2186917 C17.3571241,14.5313705 17.7375604,13.820499 18.2222308,12.9216855 C18.9695806,11.5286623 19.8991904,9.79536747 19.8991904,7.21311658 C19.8991904,2.73719973 17.3517388,0.110375774 12.9066531,0.00388291129 L12.8396369,0.00388291129 C8.39610689,0.110375774 5.8470996,2.73719973 5.8470996,7.21311658 C5.8470996,9.79536747 6.77658973,11.5286623 7.52405919,12.9216855 C8.00729353,13.820499 8.38784954,14.5313705 8.38784954,15.2186917 C8.38784954,15.9125611 6.5233644,16.2673075 5.0257927,16.5525521 C4.29747071,16.6905219 3.54186358,16.8350397 2.85734143,17.0307936 C-0.0516383401,17.8640112 -0.214511529,21.3055572 0.149529794,23.2085284 L0.34806515,24.254502 L12.4146827,24.254502 C12.4077417,24.1134305 12.4034336,23.9715549 12.4034336,23.8288752" id="Fill-1" fill="#FEFEFE" mask="url(#mask-2)"></path>
                        </g>
                        <path d="M46.1003645,17.3481928 C45.604804,17.2063172 45.0600584,17.1024666 44.5343406,17.0026367 C43.451551,16.796314 42.1044066,16.5400188 42.1044066,16.039376 C42.1044066,15.5426391 42.3796516,15.0289001 42.7286142,14.3796038 C43.2695303,13.3742974 43.9416066,12.122001 43.9416066,10.2560209 C43.9416066,7.0245886 42.1003378,5.12701675 38.888828,5.0494734 L38.8423953,5.0494734 C35.6308855,5.12701675 33.7909331,7.0245886 33.7909331,10.2560209 C33.7909331,12.122001 34.461693,13.3742974 35.001173,14.3796038 C35.1392741,14.6358989 35.2652885,14.8711711 35.3678471,15.0932323 C35.3788569,15.0958745 35.3926191,15.0985167 35.4035093,15.1024226 C35.7472064,15.200874 36.0707987,15.3312617 36.3736878,15.4902542 C39.4875455,16.6216978 41.8033126,19.3092928 42.2910945,22.5651943 L47.9129121,22.5651943 L48.0552018,21.8108986 C48.3181205,20.436371 48.2003636,17.9487804 46.1003645,17.3481928" id="Fill-4" fill="#FEFEFE"></path>
                        <path d="M38.1078385,25.523226 L34.825124,25.523226 L34.825124,28.6744728 L31.334779,28.6744728 L31.334779,25.523226 L28.0521842,25.523226 L28.0521842,22.1726642 L31.334779,22.1726642 L31.334779,19.0214174 L34.825124,19.0214174 L34.825124,22.1726642 L38.1078385,22.1726642 L38.1078385,25.523226 Z M33.0799515,16.7743836 C29.0103955,16.7743836 25.7114057,19.9412538 25.7114057,23.8479451 C25.7114057,27.7546363 29.0103955,30.9215066 33.0799515,30.9215066 C37.1497468,30.9215066 40.4488563,27.7546363 40.4488563,23.8479451 C40.4488563,19.9412538 37.1497468,16.7743836 33.0799515,16.7743836 L33.0799515,16.7743836 Z" id="Fill-6" fill="#FEFEFE"></path>
                        <path d="M9.35139823,19.8988635 C9.62101858,17.5847402 10.8476535,15.8987756 12.7367911,15.2153602 C12.8462907,14.9578014 12.9914524,14.6845042 13.155642,14.3796152 C13.6950024,13.3743088 14.3685147,12.1220125 14.3685147,10.2560324 C14.3685147,7.02460009 12.5259295,5.12702823 9.31717213,5.04948489 L9.26786738,5.04948489 C6.05910999,5.12702823 4.21652477,7.02460009 4.21652477,10.2560324 C4.21652477,12.1220125 4.89003712,13.3743088 5.42939749,14.3796152 C5.77704379,15.0287967 6.0536051,15.5426506 6.0536051,16.0393875 C6.0536051,16.5400303 4.7065804,16.7963255 3.62510721,17.0026482 C3.09675664,17.1024781 2.55189138,17.2063287 2.05776691,17.3482043 C-0.043548533,17.9500556 -0.161305489,20.4363825 0.101493572,21.8109101 L0.245219288,22.5665844 L9.41302916,22.5665844 C9.34996217,22.1592233 9.21317742,21.0829217 9.35139823,19.8988635" id="Fill-8" fill="#FEFEFE"></path>
                    </g>
                </g>
            </g>
        </g>
    </g>
</svg>