<?xml version="1.0" encoding="UTF-8" standalone="no"?>
<svg width="182px" height="37px" viewBox="0 0 182 37" version="1.1" xmlns="http://www.w3.org/2000/svg" xmlns:xlink="http://www.w3.org/1999/xlink">
    <!-- Generator: Sketch 40.3 (33839) - http://www.bohemiancoding.com/sketch -->
    <title>Relatório</title>
    <desc>Created with Sketch.</desc>
    <defs>
        <polygon id="path-1" points="0.9235 8 7.0625 8 7.0625 0.8562 0.9235 0.8562 0.9235 8"></polygon>
    </defs>
    <g id="Mobile" stroke="none" stroke-width="1" fill="none" fill-rule="evenodd">
        <g id="Relatório" transform="translate(-300.000000, -21.000000)">
            <g id="Nav-Header">
                <g id="Logo" transform="translate(300.000000, 24.000000)">
                    <polygon id="Fill-1" fill="#8458A4" points="55.873 6.6802 53.596 3.5402 54.191 6.6802"></polygon>
                    <polygon id="Fill-2" fill="#8458A4" points="38.5996 17.1919 45.3376 14.2379 39.7816 11.9309"></polygon>
                    <polygon id="Fill-3" fill="#8458A4" points="34 22.0444 38.408 17.6614 30.531 20.6954"></polygon>
                    <polygon id="Fill-4" fill="#8458A4" points="52.0703 17.6665 55.0233 19.5415 54.8883 16.9475"></polygon>
                    <polygon id="Fill-5" fill="#8458A4" points="43.9316 10.1851 48.2886 4.1551 41.7836 4.9291"></polygon>
                    <polygon id="Fill-6" fill="#8458A4" points="23.5938 20.6953 26.4068 16.3163 13.8278 20.6953"></polygon>
                    <polygon id="Fill-7" fill="#8458A4" points="19.5684 12.1441 8.1134 17.1921 25.4704 15.4241"></polygon>
                    <polygon id="Fill-8" fill="#8458A4" points="37.1953 8.7739 28.1053 6.6799 32.3023 12.8359"></polygon>
                    <polygon id="Fill-9" fill="#8458A4" points="49.518 6.6802 52.105 7.2672 51.907 6.6802"></polygon>
                    <polygon id="Fill-10" fill="#8458A4" points="38.0566 8.98 41.7836 4.929 41.5366 2.521"></polygon>
                    <polygon id="Fill-11" fill="#8458A4" points="53.5957 3.5405 48.2887 4.1555 54.1917 6.6805"></polygon>
                    <polygon id="Fill-12" fill="#8458A4" points="54.8887 15.7891 56.1547 12.4381 53.5117 14.5911"></polygon>
                    <polygon id="Fill-13" fill="#8458A4" points="43.4121 19.8228 46.1031 14.5908 37.1931 20.6958"></polygon>
                    <polygon id="Fill-14" fill="#8458A4" points="25.0215 20.6953 29.8635 21.5713 27.3455 17.1923"></polygon>
                    <polygon id="Fill-15" fill="#8458A4" points="27.6484 9.2725 21.6444 11.9365 31.0954 13.6885"></polygon>
                    <polygon id="Fill-16" fill="#8458A4" points="54.8887 15.7891 51.3887 16.0321 54.8887 16.9481"></polygon>
                    <polygon id="Fill-17" fill="#8458A4" points="53.9258 9.3091 56.1678 12.4541 55.7578 8.4331 53.1388 8.4331 52.1058 7.2671 47.1468 8.7841 51.6528 11.0591"></polygon>
                    <polygon id="Fill-18" fill="#8458A4" points="48.2895 4.1557 53.5955 3.5397 50.4945 1.4607"></polygon>
                    <polygon id="Fill-19" fill="#8458A4" points="41.127 6.6992 39.801 10.8152 42.68 10.2302"></polygon>
                    <polygon id="Fill-20" fill="#8458A4" points="37.873 16.4024 38.996 9.5674 31.656 14.8354"></polygon>
                    <polygon id="Fill-21" fill="#8458A4" points="39.6953 3.1768 30.5313 6.6208 36.5173 7.5748"></polygon>
                    <polygon id="Fill-22" fill="#8458A4" points="41.5368 2.5204 48.2898 4.1554 50.4948 1.4604"></polygon>
                    <polygon id="Fill-23" fill="#8458A4" points="54.1641 20.2315 52.1091 22.0375 54.8791 21.3345 55.0231 19.5425 53.4731 18.5565"></polygon>
                    <polygon id="Fill-24" fill="#8458A4" points="30.1758 19.3189 37.1958 17.1919 26.7108 14.5909"></polygon>
                    <polygon id="Fill-25" fill="#8458A4" points="0 19.8193 12.125 20.6953 20.828 16.6743"></polygon>
                    <g id="Group-53" transform="translate(62.000000, 0.792000)">
                        <path d="M33.5117,6.5288 C31.0297,6.5288 30.1077,8.1428 29.6737,10.6528 L29.3007,12.8728 C29.1837,13.5078 29.1247,14.0548 29.1247,14.5458 C29.1247,16.1328 29.7907,16.9988 31.6677,16.9988 C32.7027,16.9988 33.8847,16.9108 34.4627,16.7948 L36.2207,6.7268 C35.7007,6.6138 34.5487,6.5288 33.5117,6.5288 M40.3457,4.9388 L37.9527,18.5838 C37.8667,19.0188 37.7227,19.1918 37.0257,19.3618 C35.1547,19.8258 32.9607,20.1128 31.1157,20.1128 C27.1957,20.1128 25.3457,17.7768 25.3457,14.5158 C25.3457,13.9978 25.4047,13.4508 25.4907,12.8728 L25.8687,10.6528 C26.7027,5.6608 29.4137,3.4118 34.0587,3.4118 C35.9067,3.4118 38.0097,3.7008 39.7127,4.1618 C40.2347,4.3048 40.3747,4.4468 40.3747,4.7128 C40.3747,4.7658 40.3747,4.8528 40.3457,4.9388" id="Fill-26" fill="#8458A4"></path>
                        <path d="M73.1348,9.582 L71.4298,19.275 C71.3748,19.594 71.0858,19.881 70.7678,19.881 L68.0548,19.881 C67.7658,19.881 67.6228,19.65 67.6228,19.391 L67.6228,19.275 L69.3828,9.298 C69.4398,8.922 69.4978,8.572 69.4978,8.228 C69.4978,7.307 69.1228,6.584 67.7088,6.584 L66.0958,6.584 C64.4198,6.584 64.0158,7.307 63.6718,9.298 L61.9078,19.275 C61.8538,19.594 61.5668,19.881 61.2458,19.881 L58.5348,19.881 C58.2498,19.881 58.1058,19.65 58.1058,19.391 L58.1058,19.275 L59.8638,9.298 C60.6448,4.911 62.2848,3.412 66.6718,3.412 L68.1698,3.412 C71.4628,3.412 73.2478,5.516 73.2478,8.314 C73.2478,8.716 73.2188,9.152 73.1348,9.582" id="Fill-28" fill="#8458A4"></path>
                        <path d="M83.6992,6.6987 C81.3902,6.6987 80.3262,8.2577 79.9492,10.3617 L86.0662,10.3617 C86.1212,9.9897 86.1812,9.6387 86.1812,9.2667 C86.1812,7.5937 85.2872,6.6987 83.6992,6.6987 M89.7832,10.9697 L89.5542,12.3507 C89.4692,12.8157 89.2672,13.0737 88.8612,13.0737 L79.4612,13.0737 C79.4022,13.4767 79.3182,13.8547 79.3182,14.2577 C79.3182,15.8147 80.1232,16.8517 82.2562,16.8517 C84.3632,16.8517 86.3532,16.6547 87.5922,16.5347 L87.7072,16.5347 C87.9412,16.5347 88.1422,16.5927 88.1422,16.8517 L88.1422,16.9717 L87.7932,18.8707 C87.7072,19.3357 87.6232,19.5357 87.0762,19.6227 C85.1422,19.9707 83.8712,20.1137 81.2772,20.1137 C78.7092,20.1137 75.5942,18.6707 75.5942,14.3137 C75.5942,13.7937 75.6232,13.1897 75.7382,12.5867 L76.0562,10.7957 C77.0082,5.4017 79.8612,3.4117 84.2752,3.4117 C88.1112,3.4117 89.9312,5.9497 89.9312,9.3257 C89.9312,9.8437 89.8712,10.4207 89.7832,10.9697" id="Fill-30" fill="#8458A4"></path>
                        <path d="M102.5996,4.1895 L102.3126,5.8915 C102.2536,6.2105 101.9376,6.4665 101.6196,6.4665 L97.5546,6.4665 L95.9106,15.7875 C95.8806,15.9865 95.8516,16.1595 95.8516,16.3045 C95.8516,16.9995 96.2856,17.1415 97.4376,17.1415 L99.7166,17.1415 C99.9766,17.1415 100.2386,17.2285 100.2386,17.4875 L100.2386,17.5745 L99.9196,19.3615 C99.8616,19.6505 99.6566,19.8255 99.2836,19.8805 C98.5646,19.9975 97.0916,20.1135 95.8806,20.1135 C93.6876,20.1135 91.9866,19.1625 91.9866,16.7945 C91.9866,16.4785 92.0156,16.1595 92.0746,15.7875 L94.6406,1.2475 C94.6976,0.9285 94.9866,0.7295 95.3046,0.6705 L98.0746,0.2085 L98.1626,0.2085 C98.4196,0.2085 98.5646,0.4415 98.5646,0.6995 L98.5646,0.7885 L98.0446,3.6125 L102.1096,3.6125 C102.3986,3.6125 102.5996,3.8445 102.5996,4.1045 L102.5996,4.1615 L102.5996,4.1895 Z" id="Fill-32" fill="#8458A4"></path>
                        <path d="M111.1719,6.6987 C109.4139,6.6987 107.9139,7.7357 107.3969,10.5917 L106.9649,12.9307 C106.8769,13.3917 106.8479,13.8267 106.8479,14.1987 C106.8479,15.9027 107.6819,16.8237 109.3849,16.8237 C111.4059,16.8237 112.6469,15.6127 113.1349,12.9307 L113.5679,10.5917 C113.6539,10.1327 113.6839,9.6997 113.6839,9.3257 C113.6839,7.6217 112.8749,6.6987 111.1719,6.6987 M117.3769,10.5917 L116.9429,12.9307 C116.0489,17.6887 113.3359,20.1137 108.8089,20.1137 C104.8849,20.1137 103.0409,17.3427 103.0409,14.3137 C103.0409,13.8547 103.0679,13.3917 103.1559,12.9307 L103.5879,10.5917 C104.5099,5.5747 107.2229,3.4117 111.7499,3.4117 C115.7029,3.4117 117.5199,6.0647 117.5199,9.0937 C117.5199,9.5817 117.4609,10.1037 117.3769,10.5917" id="Fill-34" fill="#8458A4"></path>
                        <path d="M56.0664,3.77 C54.5844,3.586 52.5564,3.412 50.7124,3.412 C46.0684,3.412 43.4434,5.258 42.5214,10.652 L42.1444,12.873 C42.0294,13.508 42.0004,14.086 42.0004,14.634 C42.0004,18.527 44.6234,20.083 47.9704,20.083 C48.2244,20.083 48.5274,20.068 48.8414,20.04 C50.4204,19.952 52.1364,19.697 53.6424,19.325 C54.3374,19.154 54.4844,18.977 54.5684,18.547 C54.5684,18.547 55.5704,12.954 55.5704,12.661 C55.5704,12.419 55.4084,12.227 55.1324,12.227 L52.6874,12.227 C52.3864,12.227 52.1134,12.472 52.0624,12.773 L51.3794,16.724 C51.2594,16.741 51.0544,16.774 51.0334,16.774 C50.1994,16.89 48.9884,16.999 48.3164,16.999 C46.3864,16.999 45.7504,16.22 45.7504,14.687 C45.7504,14.171 45.8344,13.563 45.9514,12.873 L46.3264,10.652 C46.7854,7.883 47.7984,6.529 50.1664,6.529 C51.0074,6.529 54.4744,6.763 55.7304,6.851 C56.0194,6.87 56.2114,6.721 56.2954,6.415 C56.3754,6.104 56.7094,4.494 56.7344,4.345 C56.7834,4.004 56.5114,3.824 56.0664,3.77" id="Fill-36" fill="#8458A4"></path>
                        <path d="M22.7891,9.2148 L21.0271,19.2848 C20.9751,19.6018 20.6841,19.8928 20.3651,19.8928 L17.6521,19.8928 C17.3631,19.8928 17.2191,19.6608 17.2191,19.4018 L17.2191,19.2848 L19.0371,8.9258 C19.0981,8.5498 19.1541,8.2328 19.1541,7.9468 C19.1541,7.0798 18.7501,6.5898 17.4241,6.5898 L16.7281,6.5898 C15.0551,6.5898 14.7091,7.3118 14.4221,8.9258 L12.6031,19.2848 C12.5451,19.6018 12.2581,19.8928 11.9391,19.8928 L9.1971,19.8928 C8.9081,19.8928 8.7661,19.6608 8.7661,19.4018 L8.7661,19.2848 L10.5841,8.9258 C10.6431,8.5808 10.6991,8.2328 10.6991,7.9468 C10.6991,7.1658 10.3511,6.5898 9.0821,6.5898 L8.3931,6.5898 C7.0601,6.5898 6.3121,6.9648 5.9671,8.9258 L4.1501,19.2848 C4.0921,19.6018 3.8031,19.8928 3.4841,19.8928 L0.7711,19.8928 C0.4841,19.8928 0.3381,19.6608 0.3381,19.4018 L0.3381,19.2848 L2.1581,8.9258 C2.8791,4.8008 5.3031,3.4148 8.9691,3.4148 L9.6581,3.4148 C11.3051,3.4148 12.4881,3.8188 13.2381,4.5428 C14.2481,3.7618 15.7771,3.4148 17.3071,3.4148 L18.0001,3.4148 C21.3791,3.4148 22.9351,4.9738 22.9351,7.6858 C22.9351,8.1778 22.8751,8.6678 22.7891,9.2148" id="Fill-38" fill="#8458A4"></path>
                        <polygon id="Fill-40" fill="#8458A4" points="72.2148 23.9883 76.7398 23.9883 76.5798 24.9143 73.1408 24.9143 72.8108 26.8323 75.9978 26.8323 75.8398 27.7593 72.6388 27.7593 72.2558 29.9413 75.7068 29.9413 75.5488 30.8673 70.9978 30.8673"></polygon>
                        <polygon id="Fill-42" fill="#8458A4" points="79.4766 23.9883 80.5746 23.9883 79.5296 29.9023 82.7966 29.9023 82.6386 30.8673 78.2596 30.8673"></polygon>
                        <polygon id="Fill-44" fill="#8458A4" points="86.2871 23.9883 90.8101 23.9883 90.6521 24.9143 87.2131 24.9143 86.8831 26.8323 90.0701 26.8323 89.9121 27.7593 86.7091 27.7593 86.3261 29.9413 89.7791 29.9413 89.6211 30.8673 85.0701 30.8673"></polygon>
                        <polygon id="Fill-46" fill="#8458A4" points="94.3672 25.2451 93.3752 30.8681 92.3302 30.8681 93.5332 23.9881 94.9352 23.9881 97.1192 29.6631 98.1252 23.9881 99.1832 23.9881 97.9782 30.8681 96.5642 30.8681"></polygon>
                        <path d="M101.0859,29.4258 C101.0859,29.2668 101.1109,29.0818 101.1389,28.9228 L101.6819,25.8408 C101.9589,24.3058 102.7929,23.8558 104.6309,23.8558 C105.2129,23.8558 105.8889,23.9358 106.5099,24.1078 L106.3379,24.9678 C105.7419,24.8618 105.0409,24.7818 104.5389,24.7818 C103.3609,24.7818 102.9239,25.0338 102.7519,25.9858 L102.2359,28.9098 C102.2229,28.9888 102.1969,29.1748 102.1969,29.3198 C102.1969,29.9018 102.5549,30.0738 103.6249,30.0738 C104.1819,30.0738 104.7639,30.0078 105.4119,29.8888 L105.4649,30.7618 C104.8159,30.9068 104.1149,30.9998 103.4529,30.9998 C101.7869,30.9998 101.0859,30.4578 101.0859,29.4258" id="Fill-48" fill="#8458A4"></path>
                        <g id="Group-52" transform="translate(107.000000, 23.000000)">
                            <mask id="mask-2" fill="white">
                                <use xlink:href="#path-1"></use>
                            </mask>
                            <g id="Clip-51"></g>
                            <path d="M5.9375,3.1182 C5.9625,2.9992 5.9765,2.8802 5.9765,2.7742 C5.9765,2.1132 5.5275,1.7822 4.4685,1.7822 C3.1055,1.7822 2.6955,2.1522 2.5235,3.1182 L2.0605,5.7642 C2.0355,5.9102 2.0355,6.0682 2.0355,6.1212 C2.0355,6.7302 2.3925,7.0742 3.5425,7.0742 C4.7325,7.0742 5.3025,6.7172 5.4475,5.8962 L5.9375,3.1182 Z M0.9235,6.2272 C0.9235,6.0812 0.9375,5.9232 0.9625,5.7642 L1.4535,2.9722 C1.7165,1.4782 2.5115,0.8562 4.6405,0.8562 C6.2675,0.8562 7.0625,1.7022 7.0625,2.7742 C7.0625,2.9202 7.0485,3.0522 7.0215,3.1982 L6.5585,5.8442 C6.3205,7.1802 5.7245,8.0002 3.3845,8.0002 C1.6115,8.0002 0.9235,7.2592 0.9235,6.2272 L0.9235,6.2272 Z" id="Fill-50" fill="#8458A4" mask="url(#mask-2)"></path>
                        </g>
                    </g>
                </g>
            </g>
        </g>
    </g>
</svg>