<?xml version="1.0" encoding="UTF-8" standalone="no"?>
<svg width="266px" height="165px" viewBox="0 0 266 165" version="1.1" xmlns="http://www.w3.org/2000/svg" xmlns:xlink="http://www.w3.org/1999/xlink">
    <!-- Generator: Sketch 39.1 (31720) - http://www.bohemiancoding.com/sketch -->
    <title>iPhone 4  - Apresentação 0</title>
    <desc>Created with Sketch.</desc>
    <defs></defs>
    <g id="Mobile" stroke="none" stroke-width="1" fill="none" fill-rule="evenodd" opacity="0.9">
        <g id="iPhone-4----Apresentação-0" transform="translate(-29.000000, -28.000000)" fill="#FFFFFF">
            <g id="meumodelofavorito-copy-2" transform="translate(33.000000, 34.000000)">
                <g id="Layer_1">
                    <g id="Group">
                        <g transform="translate(0.000000, 17.102026)" id="Shape">
                            <path d="M40.5569748,26.479281 C38.6402017,26.8149082 37.4613109,25.7577893 37.2935126,24.8075579 C37.1472269,23.9877295 37.1085042,22.1706393 38.3089076,20.9788418 C38.7843361,20.4721943 39.2522353,19.1275475 38.8897479,17.0838553 C38.4788571,14.7686685 36.1017143,12.5186832 32.2638655,13.1899377 C27.8795966,13.95846 25.1958992,17.9378878 23.4060504,24.5691984 C21.2612437,32.3869622 22.176605,42.3349971 23.2640672,53.2364699 C26.4490084,51.2761501 29.6156639,50.0170135 34.5485042,49.1533611 C38.3852773,48.4810377 40.3117311,48.9876853 40.748437,51.4396883 C41.0388571,53.0718629 39.8352269,54.2679359 38.4670252,54.5073642 C37.2332773,54.7222084 35.8392605,54.8269583 35.1530084,54.9456036 C32.6876639,55.3774298 28.076437,56.467684 24.2149244,59.3889238 C26.4447059,79.9188374 28.0936471,97.1811952 27.1653782,110.25997 C26.1725714,123.776984 23.5749244,132.233936 14.6687059,133.793427 C8.91193277,134.800308 3.01317647,130.218034 1.08026891,119.326181 C-1.79596639,103.122012 0.440268908,73.5248174 17.4438319,57.0662549 C15.512,39.0107907 15.2947227,33.012255 17.423395,23.5120794 C19.3337143,15.1727039 24.422521,8.80540575 31.9605378,7.48641198 C39.634084,6.14176517 44.0183529,10.1479148 45.08,16.1378995 C46.0469916,21.5870326 42.7501849,26.0944854 40.5569748,26.479281 L40.5569748,26.479281 Z M21.0235294,109.091688 C21.6936471,95.3523472 19.9382185,79.0958024 18.336605,64.4917409 C5.99267227,80.1326128 4.85465546,104.763806 7.24470588,118.243409 C8.38164706,124.643843 11.2987563,128.345362 14.0373109,127.866506 C18.9733782,127.001785 20.4491429,120.987216 21.0235294,109.091688 L21.0235294,109.091688 Z"></path>
                            <path d="M71.9008403,55.809256 C72.8194286,60.9826189 73.0603697,67.1179708 73.0184202,72.4602163 C73.0980168,76.0954657 73.0980168,80.8712065 73.5798992,83.5925664 C73.7261849,84.4123948 73.9595966,84.9308 74.1682689,85.3145267 C74.5393613,85.8115544 74.8846387,86.1728347 75.0061849,86.8526402 C75.2707899,88.3501364 74.0058487,89.9780355 72.3633613,90.2644944 C69.3462185,90.7925195 67.8489412,87.1241349 67.3659832,84.3995683 C66.8561345,81.5413922 67.0045714,77.583342 66.819563,72.5628284 C66.7464202,67.3787767 66.7636303,61.9007839 65.9171092,57.134663 C64.7586555,50.5984823 60.7594622,48.7717722 57.1969748,49.3959961 C46.7816471,51.2205686 41.7756639,68.3856585 43.9742521,80.7771454 C44.8681008,85.814761 47.826084,88.9476384 51.3896471,88.3234145 C55.0887395,87.6746063 57.248605,83.9271248 57.9671261,80.0086231 C58.1844034,78.847823 59.16,77.9766886 60.2560672,77.7832219 C62.0373109,77.4700411 63.375395,78.6425987 63.6658151,80.2737045 C64.0777815,82.5888913 61.3123361,92.4813446 51.4445042,94.210787 C45.9620168,95.1695693 39.6211765,92.070896 37.8065882,81.8577797 C35.293916,67.6951642 41.6573445,46.2203636 56.7301513,43.5791695 C64.544605,42.2152829 70.2336134,46.4127614 71.9008403,55.809256 L71.9008403,55.809256 Z"></path>
                            <path d="M82.5044034,47.0711894 C82.4635294,50.0255645 83.1971092,59.7266888 84.405042,66.5365019 C86.2185546,76.7496182 88.7559664,81.4986371 90.2618487,81.2335557 C94.3718319,80.5131329 104.048202,58.6011617 102.760672,38.6078242 C102.72195,36.789665 104.010555,35.2975133 105.703597,35.2846867 C107.235294,35.1553527 108.709983,36.3011884 108.976739,37.8008223 L109.025143,38.0733859 C110.255664,56.9540228 101.006319,85.251463 91.0018824,87.0022829 C83.6026218,88.300968 79.9282689,77.1493781 78.2373782,67.6182051 C77.0520336,60.9452082 76.3356639,50.5386253 76.4098824,46.1744019 C76.4432269,44.7656225 77.6447059,43.5706184 78.8773782,43.3547054 C80.6575462,43.0425934 82.5442017,44.1157455 82.5355966,45.66241 L82.5044034,47.0711894 L82.5044034,47.0711894 Z"></path>
                            <path d="M149.317176,46.1754708 C151.902992,60.7453283 146.048336,77.9168315 132.073748,80.3666968 C122.615731,82.0234555 114.84,74.8213647 112.594084,62.1562454 C111.917513,58.3446314 111.837916,54.7061753 112.554286,50.791949 C112.75005,49.492195 113.812773,48.322844 115.04437,48.1069309 C116.689008,47.8183342 118.188437,49.1009862 118.455193,50.5984823 C118.552,51.1436094 118.485311,51.5765045 118.421849,52.0083306 C117.961479,54.1941834 118.22716,58.0795499 118.734857,60.9377261 C119.991193,68.0179649 124.344269,75.8207644 131.331563,74.5947629 C141.199395,72.8663894 145.206118,58.8266947 143.152739,47.2528985 C142.186824,41.8037654 138.688874,34.8357585 132.111395,35.9880076 C126.903193,36.9008282 125.896403,41.5707503 126.476168,44.8383061 C127.441008,50.2863704 131.554218,49.5659475 133.884034,49.1565678 C135.665277,48.8455247 137.276571,49.9646385 137.566992,51.597882 C137.712202,52.4177104 137.825143,54.6431116 134.399261,55.2427513 C126.451429,56.6365665 121.423933,52.1825575 120.310655,45.9168027 C119.151126,39.380622 122.602824,31.7552561 131.371361,30.2171426 C140.414185,28.6384118 147.384269,35.2814801 149.317176,46.1754708 L149.317176,46.1754708 Z"></path>
                            <path d="M161.439529,72.2731628 C161.454588,73.9545058 160.389714,75.1249257 158.882756,75.3889382 C157.240269,75.6775349 155.902185,74.507115 155.609613,72.8728026 C155.441815,71.9204335 155.315966,48.9150016 154.517849,44.4225131 C153.456202,38.4314596 151.809412,36.331117 149.71516,34.8731692 C148.931025,34.4498941 148.650286,33.6546499 148.505076,32.8401659 C148.214655,31.2058535 149.342992,29.6025385 150.852101,29.338526 C153.456202,28.8821157 158.115832,32.8401659 159.047328,39.6970095 C160.46716,30.1818697 167.143597,24.7990069 173.994286,23.5975896 C175.775529,23.2865465 177.50084,24.2453288 177.816,26.0175263 C178.107496,27.6518387 177.040471,28.8211897 175.420571,29.2455337 C161.313681,32.5622579 161.519126,49.6546643 161.459966,67.636376 L161.439529,72.2731628 L161.439529,72.2731628 Z"></path>
                            <path d="M188.912202,4.13441484 L184.106286,8.90908679 L193.406185,12.7559738 L182.975798,12.8992033 L180.46958,21.0611453 L179.204639,13.1407694 L172.254992,13.7949219 L178.292504,8.80540575 L176.496202,2.66150283 L181.404303,6.43356849 L188.912202,4.13441484 L188.912202,4.13441484 Z M186.28121,25.9394983 C186.303798,26.0752456 186.352202,26.3467403 186.264,26.6428191 C185.535798,36.8805196 186.073613,55.0385959 187.546151,68.1184393 C187.701042,69.7794736 186.684571,71.2181816 185.039933,71.5067783 C183.259765,71.8199591 181.648471,70.6965698 181.333311,68.9265101 C181.018151,67.1575192 178.871193,43.1035194 180.104941,26.1789266 C180.087731,24.4965148 181.701176,23.229896 183.417882,23.3506791 C184.863529,23.5195616 186.040269,24.5766806 186.28121,25.9394983 L186.28121,25.9394983 Z"></path>
                            <path d="M213.470992,66.1046758 C213.334387,66.128191 212.626622,66.1121579 212.487866,66.1356732 C205.443563,66.2468363 201.162555,61.2391493 199.30279,50.7534695 C198.143261,44.2183577 197.611899,36.4465556 198.380975,25.6423506 C194.406521,26.3381893 193.020034,27.2841451 191.101109,27.6219101 C190.141647,27.7886549 189.036975,27.1398467 188.771294,25.6412817 C188.093647,21.8285987 193.824605,20.682763 198.735933,19.6833633 C199.036034,14.9974081 199.565244,8.44412545 200.106286,2.73525532 C200.300975,1.43763908 201.250756,0.428619532 202.46084,0.076959118 C204.242084,-0.235152861 205.804975,0.615672944 206.095395,2.2467787 C206.192202,2.79190578 206.174992,3.49736436 206.08679,3.79344319 C205.441412,8.11811808 204.940168,15.6472851 204.788504,18.7641294 C206.706353,18.4285021 209.471798,18.083255 213.192403,17.5701942 C214.74884,17.5787452 216.448336,18.4049869 216.715092,19.9035519 C217.006588,21.5367954 216.101983,22.8205162 214.595025,23.0855977 C211.992,23.5409391 207.283966,24.0871351 204.656202,24.4045914 C203.734387,33.5520377 204.023731,42.3467547 205.257479,49.2901773 C207.166723,60.0473518 211.259496,60.0334564 212.677176,60.0644539 C214.18521,59.7993725 215.66205,60.9452082 215.926655,62.445911 C216.220303,64.0791545 215.091966,65.6803317 213.470992,66.1046758 L213.470992,66.1046758 Z"></path>
                            <path d="M253.875966,27.8549252 C256.461782,42.4247827 250.607126,59.5973548 236.630387,62.04722 C227.174521,63.7029099 219.397714,56.5008192 217.150723,43.8367687 C216.474151,40.0230169 216.394555,36.3856297 217.113076,32.4714034 C217.306689,31.1727183 218.371563,30.0022984 219.60316,29.7863853 C221.247798,29.4967197 222.747227,30.7804406 223.013983,32.2790056 C223.11079,32.8241327 223.044101,33.25489 222.980639,33.6867162 C222.520269,35.8725689 222.787025,39.7579355 223.293647,42.6171805 C224.549983,49.6984882 228.903059,57.5002188 235.890353,56.2752862 C245.756034,54.5479815 249.762756,40.5050802 247.711529,28.931284 C246.745613,23.4832198 243.247664,16.5162818 236.668034,17.6695997 C231.461983,18.5824204 230.455193,23.2502047 231.034958,26.5177605 C231.999798,31.9658248 236.113008,31.244333 238.440672,30.837091 C240.221916,30.5239102 241.835361,31.6440929 242.125782,33.2784053 C242.270992,34.0960959 242.381782,36.322566 238.955899,36.9222057 C231.008067,38.314952 225.980571,33.8620119 224.867294,27.5951882 C223.707765,21.0600764 227.159462,13.4347105 235.930151,11.8976659 C244.972975,10.3189351 251.943059,16.9609345 253.875966,27.8549252 L253.875966,27.8549252 Z"></path>
                        </g>
                        <g transform="translate(51.705882, 7.482136)" id="Shape">
                            <path d="M11.1736471,43.8047024 L11.3855462,45.0071886 C9.47307563,45.3428159 7.24544538,45.7340248 5.33297479,46.0675143 L5.12107563,44.8650281 L6.57963025,43.5684807 C5.22971429,35.9623545 3.87334454,28.3166799 2.52342857,20.7126915 L0.783058824,19.9773044 L0.581915966,18.8507084 C2.6525042,18.4883592 4.25304202,18.2072447 6.32255462,17.8459644 C7.76820168,17.5937095 8.33721008,17.8545154 8.95031933,19.2665014 C11.7512605,26.6567145 13.518521,31.6291286 15.7665882,39.0770611 L15.8451092,39.0631657 L15.685916,17.9656786 C15.744,16.4745956 16.2011429,16.1154531 17.693042,15.8941956 C19.918521,15.5051245 21.1221513,15.2507319 23.3487059,14.8616608 L23.5498487,15.9893256 L22.2053109,17.2634266 C23.5552269,24.867415 24.8976134,32.4350616 26.2475294,40.0433255 L28.1729076,40.9069779 L28.3729748,42.032505 C26.1485714,42.4226449 23.1421849,42.9485322 20.913479,43.34081 L20.7123361,42.2152829 L22.2235966,40.749853 C21.1425882,34.6572562 20.0615798,28.5646593 18.9805714,22.4699247 L18.4094118,18.5728005 L18.2523697,18.5984535 L18.2265546,43.4092181 L14.984605,43.9767916 C14.1638992,44.1210899 13.7110588,43.8399754 13.4647395,43.123828 C10.8036303,35.6256584 8.26084034,28.549695 5.45344538,21.1199335 L5.2587563,21.1530687 L6.34191597,26.1254828 C7.34763025,31.7915979 8.34366387,37.4170956 9.35045378,43.0821418 L11.1736471,43.8047024 L11.1736471,43.8047024 Z"></path>
                            <path d="M45.035563,32.0299574 C45.8132437,36.4155582 43.2769076,39.8199303 38.4731429,40.6611362 C33.7070252,41.49486 30.1466891,39.1187472 29.3754622,34.771626 L26.9778824,21.2663696 C26.2066555,16.922455 28.7354622,13.4774655 33.4994286,12.6437418 C38.3031933,11.8025359 41.8581513,14.1391002 42.6358319,18.524701 L45.035563,32.0299574 L45.035563,32.0299574 Z M33.437042,34.0618919 C33.9737815,37.0889505 35.4344874,38.5126942 38.0127731,38.0605594 C40.6297815,37.6020113 41.4601681,35.2558271 41.0127059,32.735416 L38.6162017,19.2301596 C38.1612101,16.6691312 36.5778824,14.7857706 33.9630252,15.2443186 C31.3858151,15.6964534 30.4962689,17.4932351 31.0405378,20.5577044 L33.437042,34.0618919 L33.437042,34.0618919 Z"></path>
                            <path d="M52.0454454,9.83473396 C56.7298151,9.01276782 60.2374454,10.4001697 61.1388235,15.4826781 L63.4525042,28.5219042 C64.3065546,33.3339869 61.4389244,36.2359869 56.8707227,37.0365755 L48.4356303,38.5159008 L48.235563,37.3893048 L49.7457479,35.9249438 L45.7325714,13.300032 L44.0427563,12.3968313 L43.8426891,11.2702353 L52.0454454,9.83473396 L52.0454454,9.83473396 Z M49.8490084,12.6597749 L53.5653109,33.6140326 C53.6825546,34.2735294 53.5491765,34.658325 52.9199328,34.9693681 L52.9995294,35.1949011 L56.4361681,34.5931236 C59.3188571,34.0479965 59.8523697,31.8332841 59.3898487,29.2337761 L57.0772437,16.19455 C56.6233277,13.6335215 55.3583866,11.7351966 52.4638655,12.2033646 L49.8490084,12.6597749 L49.8490084,12.6597749 Z"></path>
                            <path d="M66.9031261,35.2793424 L66.7030588,34.1538153 L68.253042,32.6819721 C66.8955966,25.0373664 65.5413782,17.3906229 64.1914622,9.78449676 L62.5274622,9.03735198 L62.3478319,8.02833244 C67.1139496,7.19460866 71.4863866,6.42715523 76.2514286,5.59343145 L77.332437,11.6860283 L75.3801681,12.0269999 L73.6118319,8.41526578 L68.3003697,9.34518846 C68.9005714,12.7207009 69.5050756,16.1368306 70.1128067,19.5529604 L73.8603025,18.8966701 L74.4970756,16.5836211 L75.6695126,16.3783967 C76.0061849,18.2799283 76.4966723,21.0344234 76.8333445,22.9380927 L75.6609076,23.1422481 L74.2819496,21.2642319 L70.5333782,21.9205221 C71.0432269,24.7915248 71.5455462,27.6240479 72.0543193,30.4939816 C72.1651092,31.114999 72.0715294,31.4933813 71.4487395,31.8418351 L71.4831597,32.0363706 C73.7086387,31.6462307 75.8975462,31.2625039 78.1219496,30.8734328 L78.7877647,26.9153827 L80.5076975,26.6139594 L81.5887059,32.7065563 C76.7053445,33.5627265 71.8241345,34.4178278 66.9031261,35.2793424 L66.9031261,35.2793424 Z"></path>
                            <path d="M82.8719328,32.4820922 L82.6718655,31.3565651 L84.2218487,29.884722 C82.8719328,22.2785958 81.5284706,14.7109492 80.1796303,7.10482302 L78.5167059,6.3555405 L78.3166387,5.22894452 L85.3458824,3.99866751 L85.5459496,5.12526349 L84.2401345,6.39508893 C85.5007731,13.4977742 86.7614118,20.5972528 88.0209748,27.6999381 C88.1328403,28.3209554 88.0381849,28.6972 87.415395,29.0467227 L87.4487395,29.2412582 C89.6752941,28.8521871 91.4715966,28.5357996 93.6981513,28.1477974 L94.3661176,24.1897472 L96.0838992,23.888324 L97.1649076,29.9809209 C92.2449748,30.8392288 87.7542185,31.625922 82.8719328,32.4820922 L82.8719328,32.4820922 Z"></path>
                            <path d="M112.891697,20.1397736 C113.670454,24.5253745 111.133042,27.9297466 106.329277,28.7720214 C101.564235,29.6046763 98.0028235,27.2296324 97.2315966,22.88358 L94.8340168,9.37725476 C94.0627899,5.03334009 96.5937479,1.58728181 101.356639,0.754626907 C106.160403,-0.0876478844 109.715361,2.24891645 110.493042,6.6345173 L112.891697,20.1397736 L112.891697,20.1397736 Z M101.293176,22.172777 C101.829916,25.1998356 103.290622,26.6235793 105.867832,26.1714445 C108.485916,25.7118276 109.317378,23.3656433 108.869916,20.8452322 L106.472336,7.33997588 C106.01842,4.77894745 104.434017,2.89558682 101.81916,3.35413489 C99.2419496,3.80520084 98.3524034,5.60305134 98.8955966,8.66752067 L101.293176,22.172777 L101.293176,22.172777 Z"></path>
                        </g>
                        <g transform="translate(48.478992, 0.000000)" id="Shape">
                            <path d="M7.17660504,20.9873928 L7.30352941,21.7035402 C6.16336134,21.904489 4.83818487,22.1353663 3.69801681,22.3352463 L3.57109244,21.61803 L4.44127731,20.8452322 C3.63778151,16.315333 2.82998319,11.7619185 2.02648739,7.23201934 L0.989579832,6.7948488 L0.871260504,6.12359427 C2.10393277,5.90768119 3.05586555,5.74200531 4.29068908,5.52395447 C5.15119328,5.37217399 5.49001681,5.52822998 5.85573109,6.37050477 C7.52403361,10.7742765 8.57707563,13.7350648 9.91408403,18.1709029 L9.96248739,18.1634207 L9.86568067,5.59556921 C9.89902521,4.7084016 10.1743866,4.49355739 11.0617815,4.36208556 C12.386958,4.12907046 13.1044034,3.9804966 14.4295798,3.7474815 L14.5489748,4.41873603 L13.7476303,5.17763844 C14.5511261,9.70753764 15.351395,14.2149904 16.1548908,18.7448896 L17.300437,19.2579504 L17.4187563,19.9292049 C16.0935798,20.1611512 14.3026555,20.474332 12.9764034,20.708416 L12.858084,20.0371615 L13.7583866,19.1649581 C13.1130084,15.536122 12.4719328,11.9083546 11.825479,8.27951845 L11.4877311,5.95471176 L11.3930756,5.97288266 L11.3769412,20.7501022 L9.44618487,21.0878672 C8.95784874,21.1733773 8.68786555,21.0077015 8.5405042,20.5790819 C6.95717647,16.1133153 5.44053782,11.8987347 3.76793277,7.47251658 L3.65176471,7.49389412 L4.29929412,10.4557513 C4.8994958,13.8280571 5.49216807,17.1800542 6.09129412,20.5544978 L7.17660504,20.9873928 L7.17660504,20.9873928 Z"></path>
                            <path d="M18.2803361,19.7806311 L18.1620168,19.1083077 L19.0849076,18.2318288 C18.2771092,13.6784144 17.4693109,9.12606875 16.6658151,4.59616955 L15.674084,4.15044799 L15.566521,3.54973932 C18.4051092,3.05271168 21.0102857,2.59523248 23.8467227,2.1003426 L24.4921008,5.73024766 L23.3282689,5.93333422 L22.2752269,3.78168555 L19.1128739,4.33643253 C19.4699832,6.34698948 19.831395,8.3821306 20.1917311,10.4162028 L22.4247395,10.024994 L22.804437,8.64828089 L23.502521,8.52642895 C23.7036639,9.66157594 23.994084,11.3001638 24.1952269,12.4321042 L23.4992941,12.555025 L22.6753613,11.4348423 L20.4423529,11.8249823 C20.7456807,13.5362538 21.0468571,15.2218722 21.3501849,16.9331437 C21.4168739,17.302975 21.3598655,17.5263703 20.9887731,17.7348012 L21.0102857,17.8481021 C22.3354622,17.6161559 23.6380504,17.3863474 24.9643025,17.1565389 L25.3612101,14.7996659 L26.3841345,14.6200947 L27.028437,18.2499997 C24.1177815,18.7577161 21.2114286,19.2675703 18.2803361,19.7806311 L18.2803361,19.7806311 Z"></path>
                            <path d="M34.9203361,12.5977801 L33.015395,1.85022546 L32.0247395,1.40343503 L31.8978151,0.687287679 L35.3161681,0.0876478844 L35.4430924,0.803795233 L34.6664874,1.56055989 L36.5800336,12.3540762 C37.1318319,15.4506118 35.4366387,16.9865876 33.0207731,17.4344469 C30.600605,17.8587909 28.4063193,16.8358759 27.8814118,13.8782943 L25.9764706,3.13073968 L24.8298487,2.61874777 L24.7115294,1.94642436 L29.2012101,1.16080003 L29.3195294,1.83205456 L28.4192269,2.70212014 L30.3252437,13.4507436 C30.6640672,15.3693772 31.6622521,15.9807746 33.0810084,15.7327953 C34.6600336,15.4548873 35.2645378,14.5399289 34.9203361,12.5977801 L34.9203361,12.5977801 Z"></path>
                        </g>
                    </g>
                    <g id="Group" transform="translate(38.798319, 89.785638)">
                        <path d="M9.77855462,38.2732658 C9.82910924,38.5607936 9.86890756,38.8579413 9.89687395,39.1647089 C9.92484034,39.4725454 9.93344538,39.7932084 9.92268908,40.1234913 L9.9130084,41.8443827 C9.89257143,44.0024446 9.4827563,45.6495835 8.68033613,46.7879371 C7.87791597,47.9273596 6.62910924,48.6445759 4.93391597,48.9417236 C4.68114286,48.9866164 4.40363025,49.0272337 4.10460504,49.0614377 C3.8045042,49.0967107 3.49472269,49.1212948 3.17310924,49.1341214 C2.85257143,49.1469479 2.53956303,49.1533611 2.23408403,49.1554989 C1.92860504,49.1576366 1.65216807,49.1522923 1.40584874,49.1437412 L1.40047059,53.988959 C1.38971429,54.1300508 1.3509916,54.2540405 1.28322689,54.361997 C1.21438655,54.4699535 1.11327731,54.535155 0.977747899,54.5586703 L0.72389916,54.6035631 C0.486184874,54.6452493 0.34312605,54.5319484 0.295798319,54.2625915 L0.282890756,54.1867012 L0.285042017,36.4743464 C0.292571429,36.3161527 0.315159664,36.1996451 0.353882353,36.122686 C0.392605042,36.0478647 0.493714286,35.9773188 0.657210084,35.9142551 C1.17781513,35.7015486 1.79522689,35.48136 2.50514286,35.2515516 C3.21613445,35.022812 4.03038655,34.8282764 4.9457479,34.6679449 C5.6567395,34.5439552 6.28598319,34.5407486 6.83132773,34.6626005 C7.3777479,34.7844525 7.84887395,35.0057099 8.24685714,35.3263729 C8.64376471,35.6481048 8.9707563,36.0596223 9.22568067,36.5609254 C9.48060504,37.0622286 9.66453782,37.6340776 9.77855462,38.2732658 L9.77855462,38.2732658 Z M8.62763025,38.2925056 C8.43939496,37.2311111 8.04894118,36.4839663 7.45626891,36.0489335 C6.86359664,35.6139007 6.016,35.4931177 4.91563025,35.6855155 C4.61015126,35.7400282 4.28961345,35.8095052 3.95509244,35.8928775 C3.6194958,35.9783877 3.2925042,36.0713799 2.9687395,36.1697166 C2.64605042,36.2712599 2.34810084,36.3674588 2.07596639,36.4572444 C1.80383193,36.5480989 1.56934454,36.6282647 1.37142857,36.6988105 L1.38756303,48.158237 C1.63388235,48.1678569 1.90816807,48.166788 2.21364706,48.1571681 C2.51697479,48.1464793 2.82998319,48.1357906 3.15052101,48.1229641 C3.47213445,48.1090687 3.78191597,48.0866222 4.08201681,48.0502804 C4.37996639,48.0171453 4.65747899,47.976528 4.91132773,47.9316351 C6.26769748,47.6943445 7.2497479,47.0743961 7.85855462,46.0739275 C8.46736134,45.073459 8.77068908,43.7320188 8.76961345,42.0464004 L8.77929412,40.325509 C8.77714286,39.5259892 8.72658824,38.8493903 8.62763025,38.2925056 L8.62763025,38.2925056 Z" id="Shape"></path>
                        <path d="M23.031395,36.0029718 C23.1217479,36.5096194 23.1701513,37.0739862 23.1755294,37.6971413 L23.1841345,39.5206449 C23.1873613,41.5162375 22.7721681,43.1259658 21.9385546,44.3498295 C21.1060168,45.5726244 19.770084,46.3432844 17.9350588,46.6650163 C16.491563,46.9172712 15.339563,46.7173913 14.4779832,46.061101 C13.6164034,45.4048108 13.064605,44.3851024 12.8193613,43.0051827 C12.7333109,42.5167061 12.6870588,41.9673035 12.6849076,41.3612504 L12.6763025,39.5388158 C12.663395,37.491917 13.0893445,35.8672245 13.9530756,34.6658072 C14.8178824,33.4643898 16.1495126,32.7044185 17.9511933,32.3890999 C19.4118992,32.1336384 20.5638992,32.3303117 21.4061176,32.9812576 C22.2472605,33.6311346 22.7893782,34.6390852 23.031395,36.0029718 L23.031395,36.0029718 Z M21.8998319,36.1237549 C21.710521,35.0634293 21.3082353,34.2906315 20.6918992,33.8085681 C20.0744874,33.3265047 19.1569748,33.1918263 17.940437,33.4045327 C16.503395,33.6557187 15.4578824,34.3173534 14.8038992,35.38623 C14.1488403,36.4561755 13.8196975,37.7730316 13.8186218,39.3357292 L13.8283025,41.1581639 C13.8336807,41.486309 13.8455126,41.7973521 13.8627227,42.0902243 C13.8788571,42.3809587 13.9111261,42.6631422 13.9595294,42.9324991 C14.1477647,43.9928247 14.5543529,44.7645537 15.1803697,45.2444793 C15.8053109,45.7265426 16.7271261,45.8590833 17.9436639,45.6463769 C18.6697143,45.5191806 19.2946555,45.2829588 19.8163361,44.9409183 C20.3390924,44.5978089 20.765042,44.1713271 21.0941849,43.661473 C21.4222521,43.1526877 21.661042,42.5637367 21.8127059,41.8956888 C21.9643697,41.226572 22.0396639,40.5008047 22.0407395,39.7194559 L22.0310588,37.8970212 C22.024605,37.5688761 22.0127731,37.2589019 21.9977143,36.9660297 C21.9794286,36.6742264 21.9471597,36.3931118 21.8998319,36.1237549 L21.8998319,36.1237549 Z" id="Shape"></path>
                        <path d="M31.5019832,30.404196 L31.5116639,30.6104892 C31.5073613,30.7847161 31.458958,30.9022925 31.3643025,30.9621496 C31.2707227,31.0220067 31.1212101,31.0701061 30.917916,31.1053791 C30.4263529,31.1919581 29.9186555,31.3629783 29.3969748,31.6184399 C28.8742185,31.8749703 28.2320672,32.3132097 27.4672941,32.9331581 L27.4479328,44.3466229 C27.4371765,44.4866457 27.3898487,44.6127732 27.3048739,44.7239363 C27.2198992,44.8340306 27.1080336,44.9013699 26.9725042,44.9248851 L26.8208403,44.9505382 C26.5487059,44.9986376 26.3895126,44.8864056 26.3421849,44.6170487 L26.3282017,44.5411584 L26.3325042,31.5682027 C26.3432605,31.4271109 26.3895126,31.296708 26.4734118,31.1791316 C26.5573109,31.0604863 26.6670252,30.9888715 26.8036303,30.9664251 L27.0058487,30.9300833 C27.2607731,30.8862594 27.4081345,30.9813894 27.450084,31.2176111 C27.4565378,31.2507463 27.4565378,31.2774682 27.4511597,31.2945702 C27.4447059,31.31381 27.4457815,31.3405319 27.4511597,31.3725982 L27.4436303,31.920932 C28.0642689,31.3790115 28.6300504,30.9717695 29.1398992,30.699206 C29.6518992,30.4277113 30.2198319,30.2363824 30.848,30.127357 C31.034084,30.0942218 31.1814454,30.0856708 31.2890084,30.1017039 C31.3965714,30.1188059 31.4621849,30.1936273 31.4869244,30.3283058 L31.5019832,30.404196 L31.5019832,30.404196 Z" id="Shape"></path>
                        <path d="M54.379563,21.6543718 C54.3967731,21.7559151 54.4021513,21.8328742 54.3935462,21.8873869 L54.3956975,39.6253948 C54.3849412,39.7664865 54.3462185,39.8904762 54.2784538,39.9984327 C54.2106891,40.1063893 54.1085042,40.1715907 53.9729748,40.1961749 L53.6933109,40.2442743 C53.5749916,40.2656519 53.4792605,40.2432055 53.405042,40.178004 C53.3329748,40.1128025 53.2877983,40.0294301 53.2695126,39.9289557 L53.2512269,39.8274125 L53.2490756,22.0894046 L53.2447731,22.0637516 C53.2361681,22.0135144 53.2135798,21.982517 53.1759328,21.9718282 C53.1393613,21.9611394 53.1049412,21.9579328 53.070521,21.9632772 C53.0188908,21.9728971 52.9801681,22.0049634 52.9565042,22.0626827 C52.9317647,22.1182643 52.9070252,22.1738459 52.8822857,22.2315652 L48.3764706,32.7364848 C48.2495462,33.0026351 48.0925042,33.229237 47.9085714,33.419497 C47.7224874,33.6076193 47.4772437,33.7284024 47.1717647,33.7818462 C46.8834958,33.8331523 46.6468571,33.7957416 46.4586218,33.6728208 C46.2703866,33.5488311 46.1133445,33.3778108 45.9864202,33.1554845 L41.492437,24.2271579 C41.4666218,24.1790585 41.4246723,24.1341656 41.364437,24.0924794 C41.3042017,24.0518621 41.2493445,24.0347601 41.1987899,24.0433111 C41.1643697,24.0497244 41.1245714,24.0657575 41.0761681,24.0914106 C41.0288403,24.1159947 41.0030252,24.1662319 40.9965714,24.2367778 L40.9987227,41.9747856 C40.989042,42.1158773 40.9503193,42.239867 40.8825546,42.3478236 C40.8137143,42.4557801 40.712605,42.5209816 40.5770756,42.5455657 L40.3479664,42.5851142 C40.2296471,42.6064917 40.1328403,42.5829764 40.0596975,42.517775 C39.9876303,42.4525735 39.9424538,42.37027 39.9241681,42.2687267 L39.9058824,42.1682523 L39.9037311,24.4291756 C39.9048067,23.9428367 40.0166723,23.5933141 40.241479,23.3806076 C40.4652101,23.1679012 40.7470252,23.0310849 41.0858487,22.9712279 C41.4418824,22.9081641 41.7150924,22.9487814 41.9065546,23.0877354 C42.0980168,23.2288271 42.2432269,23.3848831 42.3432605,23.5580411 L46.8060504,32.3100031 C46.9125378,32.5173651 47.025479,32.6092885 47.1427227,32.5889799 C47.2276975,32.5740156 47.2868571,32.5387427 47.3202017,32.4799544 C47.3524706,32.4211662 47.4019496,32.3271051 47.4664874,32.1934955 L51.9066891,21.9087645 C52.0540504,21.5528286 52.2218487,21.3027114 52.4154622,21.1552064 C52.608,21.0087703 52.8822857,20.9040204 53.2383193,20.8409567 C53.4921681,20.7960639 53.7320336,20.8463011 53.9589916,20.9884617 C54.1859496,21.1284845 54.3257815,21.3518797 54.379563,21.6543718 L54.379563,21.6543718 Z" id="Shape"></path>
                        <path d="M67.4699832,24.5189612 C67.4753613,24.5520964 67.476437,24.5830938 67.4721345,24.6098157 C67.4678319,24.6354688 67.4689076,24.6664662 67.4753613,24.7006703 L67.485042,37.3059325 C67.4742857,37.4480931 67.426958,37.5763583 67.3441345,37.6960724 C67.2602353,37.8136489 67.1494454,37.8852636 67.013916,37.9087789 L66.8116975,37.9440518 C66.5578487,37.9889446 66.4061849,37.8767126 66.3577815,37.6073557 C66.3556303,37.5902536 66.3556303,37.5731516 66.362084,37.5549807 C66.3674622,37.5368098 66.3685378,37.5186389 66.3653109,37.5015369 L66.3706891,36.6400223 C65.7554286,37.1135347 65.1068235,37.5742205 64.4270252,38.0242176 C63.7461513,38.4731458 63.0244034,38.7628113 62.2617815,38.8964209 C61.7368739,38.9883443 61.2356303,39.0033086 60.7612773,38.939176 C60.2869244,38.8739745 59.8566723,38.7189874 59.4726723,38.4731458 C59.0886723,38.2273041 58.7627563,37.8948835 58.496,37.4716083 C58.2281681,37.0494021 58.0410084,36.5267214 57.9302185,35.9046352 C57.8699832,35.567939 57.8409412,35.1564215 57.8420168,34.6700827 L57.8441681,31.7253275 C57.8538487,30.594456 57.9495798,29.6142962 58.1345882,28.7827101 C58.3195966,27.952193 58.6132437,27.2456655 59.016605,26.6620589 C59.4199664,26.0795211 59.9351933,25.6156287 60.564437,25.2703815 C61.1936807,24.9251344 61.9487731,24.6760861 62.8307899,24.5221679 C63.5589916,24.3949715 64.3087059,24.3148058 65.082084,24.2827395 C65.8533109,24.2528109 66.5212773,24.2485354 67.0849076,24.2709818 C67.3150924,24.2848772 67.4430924,24.3661119 67.4699832,24.5189612 L67.4699832,24.5189612 Z M66.3427227,25.2628994 C65.8866555,25.2554172 65.3391597,25.2735881 64.7013109,25.3163432 C64.0623866,25.3580294 63.4374454,25.4328508 62.827563,25.5397384 C61.4045042,25.7887867 60.4030924,26.4258372 59.8244034,27.4476832 C59.2457143,28.4684604 58.9574454,29.8302092 58.9628235,31.530792 L58.9606723,34.4755471 C58.9595966,34.961886 58.9886387,35.3734035 59.0488739,35.7100996 C59.1467563,36.2659155 59.3037983,36.703086 59.5178487,37.0216113 C59.7318992,37.3401365 59.9878992,37.5742205 60.2847731,37.7206566 C60.5805714,37.8681616 60.9043361,37.9461896 61.2560672,37.9547406 C61.6067227,37.9622227 61.9681345,37.9322942 62.3413782,37.8681616 C62.9856807,37.7559295 63.6095462,37.5026058 64.2118992,37.110328 C64.8142521,36.7180503 65.5316975,36.1975074 66.3599328,35.5486993 L66.3427227,25.2628994 L66.3427227,25.2628994 Z" id="Shape"></path>
                        <path d="M80.2796639,22.2475984 C80.285042,22.2818024 80.2861176,22.3127998 80.2818151,22.3395218 C80.2775126,22.3662437 80.2785882,22.3961722 80.285042,22.4293074 L80.2904202,35.6096252 C80.2839664,36.6528488 80.1871597,37.5154323 80.0032269,38.1995133 C79.8182185,38.8835944 79.537479,39.4436857 79.162084,39.8840629 C78.7856134,40.3233712 78.3080336,40.6622051 77.7304202,40.9027024 C77.1538824,41.1431996 76.474084,41.330253 75.6942521,41.4670692 C75.2532437,41.5440283 74.8272941,41.6070921 74.4164034,41.6519849 C74.0055126,41.6990155 73.6279664,41.7342884 73.2816134,41.7599414 C72.9374118,41.7855945 72.634084,41.8048342 72.3737815,41.815523 C72.1145546,41.8262118 71.9209412,41.8251429 71.7972437,41.8123164 C71.4971429,41.7952143 71.3314958,41.7011532 71.3024538,41.5344084 C71.2992269,41.5162375 71.2992269,41.5002044 71.3056807,41.4820335 C71.3110588,41.4617248 71.3110588,41.4371407 71.3056807,41.4040055 L71.3078319,41.2725337 C71.3175126,41.0277609 71.4401345,40.8856003 71.6778487,40.8439141 L71.7800336,40.8257432 C72.0941176,40.8225366 72.605042,40.7990213 73.3138824,40.7530596 C74.0216471,40.7060291 74.7573782,40.6173123 75.52,40.4837027 C76.2320672,40.3586441 76.8161345,40.2047259 77.2732773,40.0187414 C77.7304202,39.8348946 78.0982857,39.5666066 78.3747227,39.2138773 C78.6533109,38.861148 78.8523025,38.4143575 78.976,37.8713682 C79.0975462,37.3283789 79.1717647,36.6389534 79.1986555,35.8009542 L79.2051092,35.5390794 C79.0265546,35.6213829 78.798521,35.7143751 78.5188571,35.8148496 C78.2391933,35.9163928 77.9466218,36.010454 77.6400672,36.0991707 C77.332437,36.1889564 77.0226555,36.2680532 76.7128739,36.3407369 C76.4020168,36.4123516 76.1363361,36.4668643 75.9169076,36.5053439 C75.4253445,36.5919229 74.9111933,36.6293336 74.376605,36.6197137 C73.8420168,36.6090249 73.335395,36.4893107 72.8578151,36.2605711 C72.3813109,36.0307626 71.9575126,35.6673446 71.5896471,35.1671103 C71.2207059,34.6679449 70.9582521,33.9710373 70.8001345,33.0785254 C70.7485042,32.7920664 70.7087059,32.4917121 70.6785882,32.1742557 C70.6495462,31.8589371 70.6366387,31.5190343 70.6420168,31.1524097 L70.6420168,29.3812811 C70.6366387,28.1670372 70.7431261,27.1409156 70.961479,26.3039852 C71.1798319,25.4670548 71.5111261,24.7701472 71.9532101,24.2154003 C72.3974454,23.6595844 72.9460168,23.2309649 73.5989244,22.9241973 C74.2518319,22.6195674 75.0198319,22.389759 75.9018487,22.2347718 C76.2750924,22.1685015 76.6537143,22.1193332 77.0430924,22.086198 C77.4292437,22.0530628 77.8003361,22.0274098 78.1552941,22.0092389 C78.5091765,21.9889302 78.8361681,21.9814481 79.133042,21.9814481 C79.429916,21.9803792 79.6848403,21.9889302 79.8978151,22.0028256 C80.1226218,22.0145833 80.2516975,22.0968868 80.2796639,22.2475984 L80.2796639,22.2475984 Z M79.1868235,23.0374982 C78.7307563,23.0321538 78.2295126,23.0374982 77.6830924,23.0546002 C77.1355966,23.0727711 76.5569076,23.134766 75.9470252,23.2416536 C75.2521681,23.3635056 74.6465882,23.5473524 74.1313613,23.7953317 C73.6161345,24.0411734 73.1848067,24.390696 72.8373782,24.8428308 C72.4888739,25.2938968 72.2242689,25.8700213 72.043563,26.5701355 C71.8607059,27.2702497 71.7746555,28.1403153 71.7854118,29.1803323 L71.7854118,30.9514608 C71.7864874,31.3512207 71.8004706,31.7221209 71.8262857,32.0641614 C71.8510252,32.4072708 71.8897479,32.7215206 71.9403025,33.0090484 C72.0596975,33.6824407 72.2436303,34.2051213 72.4942521,34.5792282 C72.7437983,34.9522661 73.0406723,35.221623 73.3848739,35.3872989 C73.728,35.5519059 74.1184538,35.6320716 74.554084,35.6256584 C74.9886387,35.6181762 75.4533109,35.5711457 75.9448739,35.4856355 C76.1481681,35.4503626 76.3912605,35.394781 76.6752269,35.3188908 C76.9591933,35.2440694 77.2506891,35.1617659 77.5497143,35.074118 C77.8476639,34.987539 78.1413109,34.8892024 78.4274286,34.7780392 C78.7124706,34.666876 78.9609412,34.5674705 79.1728403,34.4776849 L79.1868235,23.0374982 L79.1868235,23.0374982 Z" id="Shape"></path>
                        <path d="M93.419563,22.8878555 C93.4797983,23.2245516 93.509916,23.6360691 93.5109916,24.122408 L93.5217479,32.7685511 C93.5109916,32.9096428 93.4636639,33.0357703 93.3786891,33.1458646 C93.2937143,33.2570278 93.1829244,33.3232981 93.047395,33.3468134 L92.869916,33.3778108 C92.6149916,33.4227036 92.4633277,33.3104716 92.416,33.0411147 L92.4020168,32.9652244 L92.4138487,24.3148058 C92.4127731,24.1074437 92.4030924,23.9086327 92.3880336,23.7205104 C92.3708235,23.5313192 92.3471597,23.3442658 92.3148908,23.160419 C92.1384874,22.1663637 91.7437311,21.5154179 91.1295462,21.2065125 C90.5153613,20.8965383 89.8022185,20.8131659 88.9868908,20.9563954 C88.3425882,21.0686274 87.6692437,21.288816 86.9668571,21.6105479 C86.2644706,21.9322798 85.5922017,22.3063866 84.9511261,22.7317995 L84.9543529,34.2713917 C84.9435966,34.4114145 84.8962689,34.537542 84.8112941,34.6487051 C84.7263193,34.7587994 84.6144538,34.8261387 84.4789244,34.8496539 L84.3272605,34.8763759 C84.0551261,34.9244753 83.8959328,34.8122433 83.848605,34.5428864 L83.8346218,34.4669961 L83.8389244,21.4940403 C83.8496807,21.3529486 83.8959328,21.2225457 83.9798319,21.1049692 C84.0637311,20.9863239 84.1734454,20.9147092 84.3100504,20.8911939 L84.5122689,20.855921 C84.6305882,20.8345435 84.7263193,20.8580587 84.8005378,20.9221913 C84.872605,20.9873928 84.9177815,21.0707652 84.9360672,21.1712396 L84.9586555,21.297367 L84.9543529,21.7152978 C85.6083361,21.2706451 86.2601681,20.8965383 86.9044706,20.5919085 C87.5487731,20.2883475 88.2016807,20.0788477 88.8631933,19.9623401 C89.3881008,19.8704167 89.9044034,19.8490392 90.4110252,19.8982075 C90.9187227,19.9495136 91.3726387,20.0863298 91.776,20.3107939 C92.1782857,20.5363269 92.523563,20.8580587 92.8129076,21.2749206 C93.1011765,21.6949891 93.303395,22.2315652 93.419563,22.8878555 L93.419563,22.8878555 Z" id="Shape"></path>
                        <path d="M106.78642,21.2503365 C106.882151,21.7890503 106.932706,22.3705192 106.93916,22.9947431 L106.932706,23.6991328 C106.92195,23.8402246 106.866017,23.966352 106.764908,24.0796529 C106.661647,24.191885 106.543328,24.261362 106.407798,24.2848772 L97.8404034,25.78558 L97.8586891,26.3275005 C97.8780504,26.635337 97.8952605,26.929278 97.9103193,27.2125304 C97.9253782,27.4957827 97.9544202,27.7544508 97.9952941,27.9896037 C98.117916,28.6768914 98.3072269,29.2273628 98.5643025,29.6399492 C98.8203025,30.0546733 99.1365378,30.3614409 99.514084,30.5634586 C99.8905546,30.7644074 100.321882,30.8798461 100.806992,30.906568 C101.292101,30.9332899 101.830992,30.8958793 102.424739,30.7921982 C102.985143,30.6938616 103.601479,30.5506321 104.275899,30.3646476 C104.950319,30.1765253 105.597849,29.9584744 106.218487,29.7115639 C106.265815,29.6859109 106.340034,29.6634645 106.442218,29.6452936 C106.645513,29.6100207 106.759529,29.6602579 106.783193,29.7949363 C106.798252,29.8793776 106.799328,29.9392347 106.789647,29.9755765 L106.76921,30.1647676 C106.752,30.3646476 106.708975,30.4918439 106.64121,30.5474255 C106.57237,30.6051448 106.447597,30.6660708 106.267966,30.73341 C105.648403,30.984596 105.00195,31.2090601 104.328605,31.4068023 C103.655261,31.6045445 103.031395,31.7531183 102.455933,31.8546616 C101.761076,31.9765135 101.106017,32.0053732 100.491832,31.9391029 C99.8776471,31.8728325 99.3247731,31.7007434 98.8353613,31.4217666 C98.3448739,31.1427898 97.9339832,30.7430299 97.6005378,30.2182115 C97.2649412,29.6965997 97.0283025,29.0381717 96.8884706,28.2461341 C96.8432941,27.9938792 96.8034958,27.718109 96.768,27.4209613 C96.7325042,27.1248825 96.7152941,26.8266659 96.7152941,26.5316559 L96.6991597,24.8150401 C96.6862521,22.7692102 97.1165042,21.1434488 97.9888403,19.9398937 C98.8611765,18.7374075 100.14763,17.9859872 101.84605,17.6888395 C102.576403,17.5616432 103.222857,17.5552299 103.787563,17.6738752 C104.351193,17.7914517 104.837378,18.0105714 105.243966,18.3290966 C105.650555,18.6497596 105.982924,19.0602082 106.237849,19.5615114 C106.492773,20.0628145 106.676706,20.6271814 106.78642,21.2503365 L106.78642,21.2503365 Z M105.655933,21.3796705 C105.467697,20.3236204 105.079395,19.5625803 104.48995,19.0944123 C103.900504,18.6273132 103.020639,18.4958414 101.852504,18.7010657 C101.140437,18.8261242 100.537008,19.053795 100.045445,19.3819401 C99.5528067,19.7100852 99.1462185,20.1258782 98.8256807,20.6325258 C98.5029916,21.1381044 98.2631261,21.7249177 98.1017815,22.3918967 C97.940437,23.0588757 97.8522353,23.793194 97.8371765,24.590576 L97.8328739,24.71991 L105.790387,23.325026 L105.789311,23.1700389 C105.77963,22.8258606 105.766723,22.5094731 105.750588,22.2166009 C105.735529,21.9280043 105.703261,21.6479586 105.655933,21.3796705 L105.655933,21.3796705 Z" id="Shape"></path>
                        <path d="M116.441277,15.6772137 L116.434824,15.9380196 C116.42837,16.1998943 116.263798,16.359157 115.942185,16.4147385 L112.942252,16.939557 L112.928269,27.2050482 C112.929345,27.5011271 112.944403,27.7320044 112.973445,27.9008869 C113.060571,28.3882947 113.248807,28.6651337 113.539227,28.7249908 C113.829647,28.7880545 114.211496,28.7773658 114.685849,28.6939934 L115.906689,28.4802181 C116.025008,28.4588405 116.134723,28.4577716 116.233681,28.4748737 C116.333714,28.4930446 116.392874,28.5603838 116.414387,28.6768914 L116.42837,28.7527816 L116.429445,28.9099065 C116.430521,29.0135875 116.40363,29.104442 116.347697,29.1835389 C116.291765,29.2626358 116.173445,29.3363882 115.993815,29.4026586 C115.812034,29.4689289 115.605513,29.5266483 115.368874,29.5768855 C115.132235,29.6260538 114.904202,29.6698778 114.684773,29.7083573 C113.903866,29.8451735 113.272471,29.8045562 112.787361,29.5854365 C112.303328,29.3673857 111.998924,28.9034932 111.872,28.1958969 C111.83005,27.960744 111.808538,27.6956626 111.809613,27.3995838 L111.822521,17.1340925 L109.280807,17.5798141 C109.009748,17.6268447 108.854857,17.5424034 108.816134,17.3232837 L108.796773,17.2228093 L108.803227,16.9609345 C108.809681,16.8038096 108.861311,16.6947842 108.955966,16.6338583 C109.049546,16.5729323 109.164639,16.532315 109.299092,16.5087997 L111.842958,16.064147 L111.832202,13.6420725 C111.841882,13.5009808 111.880605,13.37806 111.94837,13.2690346 C112.016134,13.1610781 112.118319,13.0958766 112.253849,13.0712924 L112.534588,13.0221241 C112.754017,12.9847134 112.885244,13.0830501 112.927193,13.3182029 L112.949782,13.4443304 L112.960538,15.8664048 L115.960471,15.3405175 C116.077714,15.31914 116.178824,15.3180711 116.260571,15.3394486 C116.343395,15.3608262 116.397176,15.4377853 116.42084,15.5724638 L116.441277,15.6772137 L116.441277,15.6772137 Z" id="Shape"></path>
                        <path d="M128.688403,17.4900284 C128.777681,17.996676 128.826084,18.5610428 128.831462,19.1841979 L128.840067,21.0077015 C128.843294,23.0032942 128.428101,24.6130224 127.594487,25.8368861 C126.76195,27.059681 125.426017,27.8303411 123.592067,28.1520729 C122.147496,28.4043278 120.995496,28.2044479 120.133916,27.5481576 C119.272336,26.8918674 118.720538,25.8721591 118.475294,24.4922393 C118.388168,24.0037627 118.344067,23.4543601 118.34084,22.848307 L118.333311,21.0258724 C118.319328,18.9789736 118.745277,17.3542811 119.610084,16.1528638 C120.473815,14.9514464 121.805445,14.1914751 123.607126,13.8761565 C125.067832,13.620695 126.219832,13.8173683 127.06205,14.4683142 C127.904269,15.1181912 128.446387,16.1261419 128.688403,17.4900284 L128.688403,17.4900284 Z M127.55684,17.6118804 C127.368605,16.5504859 126.965244,15.7776881 126.348908,15.2956247 C125.731496,14.8135613 124.815059,14.6788829 123.598521,14.8915893 C122.161479,15.1427753 121.114891,15.80441 120.460908,16.8732866 C119.805849,17.944301 119.476706,19.2600882 119.47563,20.8227858 L119.485311,22.6452205 C119.491765,22.9744345 119.502521,23.2844087 119.519731,23.5772809 C119.536941,23.8690842 119.568134,24.1501988 119.616538,24.4195557 C119.804773,25.4798813 120.212437,26.2526791 120.837378,26.7315359 C121.462319,27.2135992 122.384134,27.3461399 123.600672,27.1334335 C124.326723,27.0062372 124.951664,26.7700154 125.47442,26.4279749 C125.997176,26.0848655 126.423126,25.6583837 126.751193,25.1495984 C127.079261,24.6408132 127.31805,24.0507933 127.469714,23.3827454 C127.622454,22.7136286 127.697748,21.9878613 127.697748,21.2065125 L127.688067,19.3840779 C127.682689,19.0559327 127.669782,18.7459585 127.653647,18.4541552 C127.636437,18.1602141 127.605244,17.8812373 127.55684,17.6118804 L127.55684,17.6118804 Z" id="Shape"></path>
                        <path d="M147.807731,4.8409423 L147.818487,5.04616661 C147.826017,5.18512058 147.779765,5.29628375 147.681882,5.38286276 C147.582924,5.46944176 147.466756,5.52502335 147.331227,5.54853863 L140.770958,6.69758102 C140.449345,6.75423148 140.165378,6.82477734 139.917983,6.91135635 C139.671664,6.99900423 139.466218,7.12085617 139.302723,7.28118767 C139.139227,7.43938141 139.013378,7.64888123 138.928403,7.90541162 C138.843429,8.16407977 138.800403,8.4922249 138.801479,8.89198476 L138.797176,14.6233013 L147.312941,13.1311495 C147.431261,13.109772 147.537748,13.118323 147.631328,13.1535959 C147.724908,13.1888689 147.782992,13.265828 147.803429,13.3844733 L147.817412,13.4592946 L147.810958,13.7201005 C147.810958,14.0161794 147.650689,14.1914751 147.328,14.2481256 L138.812235,15.7402774 L138.815462,22.406861 C138.801479,22.5308507 138.804706,22.6441516 138.822992,22.744626 C138.841277,22.8451004 138.857412,22.9391616 138.872471,23.0225339 C138.961748,23.5281126 139.167193,23.8263292 139.489882,23.9171837 C139.811496,24.0091071 140.234218,24.0080382 140.761277,23.9150459 L147.320471,22.7660035 C147.591529,22.718973 147.74642,22.8044831 147.786218,23.0236028 L147.800202,23.0994931 L147.810958,23.3057862 C147.817412,23.4447402 147.772235,23.55911 147.675429,23.65424 C147.578622,23.74937 147.463529,23.8092271 147.328,23.8327424 L140.767731,24.9817848 C139.93842,25.1282209 139.262924,25.0672949 138.744471,24.8022135 C138.224941,24.538201 137.900101,24.0336912 137.768874,23.2929597 C137.733378,23.090942 137.716168,22.8600647 137.722622,22.5981899 L137.684975,9.08545143 C137.677445,7.95778658 137.931294,7.14544033 138.445445,6.64734382 C138.960672,6.14924731 139.732975,5.80934453 140.767731,5.62763551 L147.326924,4.47752424 C147.597983,4.43049367 147.75395,4.52455481 147.796975,4.75970767 L147.807731,4.8409423 L147.807731,4.8409423 Z" id="Shape"></path>
                        <path d="M152.392067,4.08952202 L152.373782,22.4570982 C152.363025,22.5981899 152.324303,22.7221796 152.257613,22.8301361 C152.188773,22.9380927 152.086588,23.0032942 151.951059,23.0268094 L151.698286,23.0717023 C151.578891,23.0930798 151.48316,23.0695645 151.410017,23.004363 C151.336874,22.9391616 151.292773,22.8568581 151.274487,22.7553148 L151.255126,22.6548404 L151.273412,4.28619532 C151.284168,4.14617248 151.321815,4.02111392 151.390655,3.91422625 C151.45842,3.80626971 151.560605,3.74106824 151.696134,3.71755295 L151.949983,3.67266013 C152.068303,3.6512826 152.164034,3.67479789 152.238252,3.73893048 C152.310319,3.80413196 152.355496,3.88750434 152.373782,3.98797874 L152.392067,4.08952202 L152.392067,4.08952202 Z" id="Shape"></path>
                        <path d="M165.894454,10.8939907 C165.990185,11.4327045 166.039664,12.0141734 166.046118,12.6383974 L166.039664,13.3427871 C166.029983,13.4838788 165.972975,13.6100062 165.872941,13.7233072 C165.769681,13.8355392 165.651361,13.9050162 165.514756,13.9285315 L156.947361,15.4292343 L156.965647,15.9711547 C156.986084,16.2789912 157.002218,16.5729323 157.018353,16.8561846 C157.033412,17.1394369 157.061378,17.3981051 157.103328,17.6332579 C157.224874,18.3205456 157.415261,18.8710171 157.671261,19.2836034 C157.927261,19.6983276 158.244571,20.0050952 158.621042,20.2071129 C158.998588,20.4080617 159.42884,20.5235004 159.91395,20.5502223 C160.399059,20.5769442 160.939025,20.5395335 161.531697,20.4358525 C162.092101,20.3375158 162.708437,20.1942863 163.382857,20.0083018 C164.057277,19.8201795 164.704807,19.6021287 165.326521,19.3552182 C165.373849,19.3295651 165.448067,19.3071187 165.550252,19.2889478 C165.752471,19.2536749 165.867563,19.3039121 165.890151,19.4385906 C165.906286,19.5230318 165.907361,19.5828889 165.896605,19.6192307 L165.877244,19.8084219 C165.860034,20.0083018 165.817008,20.1354981 165.749244,20.1910797 C165.680403,20.2487991 165.55563,20.309725 165.374924,20.3770643 C164.755361,20.6282503 164.108908,20.8527144 163.436639,21.0504565 C162.763294,21.2481987 162.139429,21.3967726 161.563966,21.4983158 C160.869109,21.6201678 160.212975,21.6490275 159.599866,21.5827571 C158.984605,21.5164867 158.432807,21.3443976 157.943395,21.0654208 C157.452908,20.786444 157.040941,20.3866841 156.707496,19.8618657 C156.372975,19.3402539 156.136336,18.6818259 155.995429,17.8897883 C155.950252,17.6375334 155.910454,17.3617633 155.874958,17.0646155 C155.840538,16.7685367 155.822252,16.4703201 155.822252,16.1753102 L155.807193,14.4586943 C155.79321,12.4128644 156.223462,10.787103 157.095798,9.58354795 C157.968134,8.37999285 159.254588,7.62964145 160.953008,7.33249375 C161.684437,7.20422855 162.330891,7.19888417 162.895597,7.31752947 C163.459227,7.43617478 163.945412,7.65422561 164.352,7.97381973 C164.759664,8.29341384 165.090958,8.70386247 165.345882,9.20623449 C165.599731,9.70646876 165.783664,10.2697667 165.894454,10.8939907 L165.894454,10.8939907 Z M164.762891,11.0233248 C164.575731,9.96727466 164.187429,9.20516562 163.596908,8.73806653 C163.007462,8.27096743 162.128672,8.13949561 160.959462,8.34471992 C160.247395,8.46977849 159.645042,8.69744921 159.152403,9.02452547 C158.66084,9.35267059 158.253176,9.76953248 157.932639,10.2751111 C157.611025,10.7806898 157.37116,11.3685719 157.208739,12.035551 C157.048471,12.70253 156.960269,13.4368482 156.944134,14.2342302 L156.940908,14.3635643 L164.89842,12.9686803 L164.896269,12.8136932 C164.886588,12.4695149 164.874756,12.1531274 164.858622,11.8602552 C164.843563,11.5705896 164.811294,11.2916128 164.762891,11.0233248 L164.762891,11.0233248 Z" id="Shape"></path>
                        <path d="M178.763294,7.93427129 C178.823529,8.27096743 178.852571,8.68248494 178.854723,9.16882381 L178.865479,17.8149669 C178.854723,17.9560587 178.807395,18.0821861 178.72242,18.1922804 C178.637445,18.3034436 178.526655,18.3697139 178.391126,18.3932292 L178.213647,18.4242266 C177.958723,18.4691194 177.807059,18.3568874 177.759731,18.0875305 L177.745748,18.0116402 L177.75758,9.36122161 C177.755429,9.15279066 177.746824,8.95504848 177.731765,8.7669262 C177.714555,8.57880391 177.690891,8.39175049 177.658622,8.20683484 C177.482218,7.21277956 177.087462,6.56076481 176.472202,6.25185946 C175.859092,5.94188524 175.144874,5.85851286 174.331697,6.00174233 C173.686319,6.11397438 173.01405,6.33416296 172.311664,6.65589483 C171.608202,6.97869558 170.935933,7.3528024 170.295933,7.77714643 L170.298084,19.3156697 C170.287328,19.4567615 170.24,19.5828889 170.155025,19.6940521 C170.07005,19.8041464 169.958185,19.8714856 169.822655,19.8950009 L169.670992,19.9217228 C169.398857,19.9687534 169.239664,19.8575902 169.192336,19.5882333 L169.178353,19.512343 L169.182655,6.53938728 C169.193412,6.39829556 169.240739,6.26789261 169.324639,6.15031618 C169.407462,6.03167088 169.518252,5.96005614 169.653782,5.93654085 L169.856,5.90126793 C169.974319,5.87989039 170.07005,5.9023368 170.144269,5.96753828 C170.216336,6.03273975 170.261513,6.11611213 170.279798,6.21658653 L170.302387,6.34271398 L170.298084,6.76064474 C170.953143,6.31599206 171.602824,5.94188524 172.247126,5.6372554 C172.892504,5.33369443 173.546487,5.12419461 174.206924,5.00875593 C174.731832,4.91683254 175.248134,4.89545501 175.754756,4.94462333 C176.262454,4.99486054 176.717445,5.13167675 177.120807,5.35720972 C177.523092,5.58167381 177.867294,5.90340568 178.156639,6.32133644 C178.444908,6.74033609 178.647126,7.27691216 178.763294,7.93427129 L178.763294,7.93427129 Z" id="Shape"></path>
                        <path d="M190.674824,2.82504096 L190.681277,3.00568111 C190.688807,3.14463507 190.650084,3.24617835 190.566185,3.31351758 C190.48121,3.37978793 190.37042,3.42468075 190.235966,3.44926491 L190.159597,3.46316031 L190.134857,3.46743582 C188.938756,3.52087965 187.933042,3.6192163 187.119866,3.76030802 C186.390588,3.88857321 185.777479,4.1269327 185.279462,4.47431761 C184.782521,4.8227714 184.373782,5.25780419 184.057546,5.78262262 C183.73916,6.30637217 183.512202,6.89852983 183.375597,7.55695784 C183.238992,8.21538585 183.174454,8.91656892 183.184134,9.66050707 L183.205647,11.402776 C183.215328,11.749092 183.228235,12.0772371 183.249748,12.3861425 C183.269109,12.6950478 183.304605,12.9921956 183.35516,13.2786545 C183.544471,14.3389801 183.928471,15.110709 184.512538,15.5906347 C185.095529,16.0694914 185.963563,16.2073765 187.116639,16.0064277 C187.929815,15.8631982 188.932303,15.6098744 190.126252,15.2443186 L190.152067,15.2400431 L190.227361,15.2261477 C190.48121,15.1812549 190.625345,15.2518008 190.657613,15.4367164 L190.667294,15.4880225 L190.671597,15.5126067 L190.67805,15.6943157 C190.667294,15.8354074 190.630723,15.9455017 190.566185,16.0267363 C190.500571,16.1069021 190.379025,16.1817234 190.198319,16.2469249 C189.668034,16.4093942 189.122689,16.5611746 188.562286,16.7033352 C188.001882,16.8454958 187.518924,16.9502457 187.111261,17.0218605 C186.383059,17.1501257 185.741983,17.1544012 185.186958,17.034687 C184.631933,16.9160417 184.154353,16.6958531 183.752067,16.3741212 C183.348706,16.0534582 183.021714,15.6387341 182.770017,15.1278111 C182.518319,14.6158192 182.336538,14.0396947 182.222521,13.3994375 C182.120336,12.8286574 182.06763,12.2279488 182.065479,11.6037248 L182.05042,9.860387 C182.045042,8.92511994 182.135395,8.05719211 182.320403,7.26087901 C182.506487,6.46349704 182.796908,5.75803846 183.194891,5.14236551 C183.590723,4.52455481 184.11563,4.01149403 184.769613,3.60318315 C185.421445,3.19273452 186.206655,2.90841334 187.122017,2.74808184 C187.528605,2.6764671 188.006185,2.61447226 188.556908,2.56102843 C189.106555,2.5075846 189.649748,2.47017391 190.187563,2.44452087 C190.468303,2.44665863 190.623193,2.53323764 190.653311,2.70105127 L190.667294,2.77694151 L190.674824,2.82504096 L190.674824,2.82504096 Z" id="Shape"></path>
                        <path d="M202.744471,4.51279717 C202.834824,5.01837582 202.882151,5.58381156 202.888605,6.20696664 L202.896134,8.03047019 C202.899361,10.0271318 202.485244,11.63686 201.65163,12.8607237 C200.818017,14.0835186 199.482084,14.8541787 197.648134,15.1759105 C196.203563,15.4281654 195.051563,15.2282855 194.189983,14.5719952 C193.329479,13.9146361 192.777681,12.8959967 192.531361,11.515008 C192.445311,11.0265314 192.400134,10.4781977 192.397983,9.87107576 L192.389378,8.04757222 C192.376471,6.00067345 192.801345,4.37704984 193.666151,3.17456362 C194.530958,1.97314628 195.862588,1.21424386 197.663193,0.898925254 C199.123899,0.643463737 200.276975,0.840137038 201.119193,1.49108291 C201.960336,2.14202879 202.502454,3.14997946 202.744471,4.51279717 L202.744471,4.51279717 Z M201.612908,4.63464911 C201.423597,3.5732546 201.021311,2.80152567 200.403899,2.31839343 C199.787563,1.83633007 198.87005,1.70058273 197.653513,1.91435806 C196.217546,2.16554407 195.170958,2.82717871 194.515899,3.89712423 C193.86084,4.96706974 193.532773,6.28392576 193.530622,7.84662341 L193.540303,9.66905808 C193.546756,9.99720321 193.558588,10.3082463 193.574723,10.6011185 C193.591933,10.8929218 193.624202,11.1751053 193.671529,11.4444622 C193.86084,12.5047878 194.267429,13.2765167 194.89237,13.7564423 C195.518387,14.2374368 196.439126,14.3710464 197.655664,14.1572711 C198.38279,14.0300748 199.007731,13.7949219 199.530487,13.4518125 C200.052168,13.1087031 200.478118,12.6832902 200.806185,12.173436 C201.134252,11.6646508 201.373042,11.0756997 201.525782,10.406583 C201.677445,9.73746618 201.752739,9.01169895 201.753815,8.23035012 L201.743059,6.40684658 C201.737681,6.07870145 201.725849,5.76872722 201.709714,5.47585502 C201.69358,5.18298282 201.660235,4.90400602 201.612908,4.63464911 L201.612908,4.63464911 Z" id="Shape"></path>
                    </g>
                </g>
            </g>
        </g>
    </g>
</svg>