<?xml version="1.0" encoding="UTF-8" standalone="no"?>
<svg width="26px" height="17px" viewBox="0 0 26 17" version="1.1" xmlns="http://www.w3.org/2000/svg" xmlns:xlink="http://www.w3.org/1999/xlink">
    <!-- Generator: Sketch 41.2 (35397) - http://www.bohemiancoding.com/sketch -->
    <title>Perfil - Scroll Agenciado</title>
    <desc>Created with Sketch.</desc>
    <defs></defs>
    <g id="Perfil---Mobile-(iPhone-4)" stroke="none" stroke-width="1" fill="none" fill-rule="evenodd">
        <g id="Perfil---Scroll-Agenciado" transform="translate(-28.000000, -3179.000000)" fill="#FEFEFE">
            <g id="Group-15-Copy" transform="translate(20.000000, 2866.000000)">
                <g id="Group-4" transform="translate(10.000000, 216.000000)">
                    <g id="Page-1" transform="translate(0.000000, 99.000000)">
                        <path d="M5.32287402,11.544474 L5.23244882,11.0466157 C5.06753543,10.1408047 5.14150394,8.50189134 6.46306299,8.10537165 C6.7741811,8.0121748 7.11682677,7.94374961 7.44838583,7.87774961 C8.12882677,7.74193858 8.97591339,7.57321417 8.97591339,7.24269449 C8.97591339,6.91563937 8.80268504,6.57732441 8.58320472,6.14910394 C8.24350394,5.48615906 7.821,4.6614189 7.821,3.43167087 C7.821,1.30148189 8.97885827,0.0506 10.9980079,1.73228346e-05 L11.0284961,1.73228346e-05 C13.0474724,0.0506 14.2053307,1.30148189 14.2053307,3.43167087 C14.2053307,4.6614189 13.7828268,5.48615906 13.443126,6.14910394 C13.2236457,6.57732441 13.0504173,6.91563937 13.0504173,7.24269449 C13.0504173,7.57321417 13.8975039,7.74193858 14.5781181,7.87774961 C14.9095039,7.94374961 15.2521496,8.0121748 15.5632677,8.10537165 C16.8848268,8.50189134 16.9587953,10.1408047 16.7940551,11.0466157 L16.7034567,11.544474 L5.32287402,11.544474 Z" id="Fill-1"></path>
                        <path d="M20.9433764,8.24747087 C20.718526,8.18008504 20.4708094,8.13071496 20.2317543,8.08307717 C19.7403055,7.98485669 19.1282898,7.86290394 19.1282898,7.6243685 C19.1282898,7.38808504 19.2535339,7.14365984 19.4118646,6.83444724 C19.6573291,6.35564409 19.9627307,5.75991181 19.9627307,4.87159685 C19.9627307,3.33298268 19.1260378,2.42959685 17.6678016,2.39287244 L17.6459748,2.39287244 C16.1875654,2.42959685 15.3512189,3.33298268 15.3512189,4.87159685 C15.3512189,5.75991181 15.656274,6.35564409 15.9015654,6.83444724 C15.9641008,6.95657323 16.0210929,7.06830551 16.0676913,7.17380157 C16.0730614,7.17536063 16.0786047,7.17674646 16.0839748,7.17830551 C17.0308409,7.4624 17.6484,8.29458898 17.778148,9.46180157 C17.8406835,10.0254866 17.7788409,10.5375496 17.7495654,10.7313921 L21.7669039,10.7313921 L21.832211,10.3717701 C21.9512189,9.71748661 21.8978646,8.53364409 20.9433764,8.24747087" id="Fill-3"></path>
                        <g id="Group-7" transform="translate(0.000000, 2.363372)">
                            <path d="M4.24832126,7.09839528 C4.3707937,5.99700945 4.92789606,5.19444252 5.78589606,4.86877323 C5.83595906,4.74630079 5.90230551,4.61603307 5.97662047,4.47104094 C6.22208504,3.9922378 6.52731339,3.39650551 6.52731339,2.50819055 C6.52731339,0.969576378 5.69062047,0.0661905512 4.23238425,0.0294661417 L4.21055748,0.0294661417 C2.75214803,0.0661905512 1.91580157,0.969576378 1.91580157,2.50819055 C1.91580157,3.39650551 2.22102992,3.9922378 2.46614803,4.47104094 C2.62465197,4.78025354 2.74989606,5.02467874 2.74989606,5.2609622 C2.74989606,5.49967087 2.13822677,5.62162362 1.6464315,5.71967087 C1.40720315,5.76730866 1.15965984,5.81685197 0.93463622,5.88406457 C-0.0196787402,6.17041102 -0.0730330709,7.35425354 0.0458015748,8.00836378 L0.111455118,8.36815906 L4.27673071,8.36815906 C4.24745512,8.17414331 4.18578583,7.66208031 4.24832126,7.09839528" id="Fill-5"></path>
                        </g>
                    </g>
                </g>
            </g>
        </g>
    </g>
</svg>