<?xml version="1.0" encoding="UTF-8" standalone="no"?>
<svg width="26px" height="19px" viewBox="0 0 26 19" version="1.1" xmlns="http://www.w3.org/2000/svg" xmlns:xlink="http://www.w3.org/1999/xlink">
    <!-- Generator: Sketch 41.2 (35397) - http://www.bohemiancoding.com/sketch -->
    <title>Perfil - Scroll Agenciado</title>
    <desc>Created with Sketch.</desc>
    <defs>
        <polygon id="path-1" points="5.6122449e-05 13.6938776 21.8974082 13.6938776 21.8974082 0.0287346939 5.6122449e-05 0.0287346939 5.6122449e-05 13.6938776"></polygon>
    </defs>
    <g id="Perfil---Mobile-(iPhone-4)" stroke="none" stroke-width="1" fill="none" fill-rule="evenodd">
        <g id="Perfil---Scroll-Agenciado" transform="translate(-28.000000, -3150.000000)">
            <g id="Group-15-Copy" transform="translate(20.000000, 2866.000000)">
                <g id="Group-4" transform="translate(10.000000, 216.000000)">
                    <g id="Page-1" transform="translate(0.000000, 70.000000)">
                        <g id="Group-3" transform="translate(0.000000, 0.083510)">
                            <mask id="mask-2" fill="white">
                                <use xlink:href="#path-1"></use>
                            </mask>
                            <g id="Clip-2"></g>
                            <path d="M10.9487602,12.5645255 C7.79748469,12.5645255 5.24290306,10.0099439 5.24290306,6.85878061 C5.24290306,3.7075051 7.79748469,1.15292347 10.9487602,1.15292347 C14.0999235,1.15292347 16.6545051,3.7075051 16.6545051,6.85878061 C16.6545051,10.0099439 14.0999235,12.5645255 10.9487602,12.5645255 M10.7430153,0.0286785714 C3.49872959,0.0286785714 5.6122449e-05,6.86125 5.6122449e-05,6.86125 C5.6122449e-05,6.86125 3.91021939,13.6939337 11.1545051,13.6939337 C18.3987908,13.6939337 21.8974643,6.86125 21.8974643,6.86125 C21.8974643,6.86125 17.9871888,0.0286785714 10.7430153,0.0286785714" id="Fill-1" fill="#FEFEFE" mask="url(#mask-2)"></path>
                        </g>
                        <path d="M10.9487041,3.21946429 C10.8448776,3.21946429 10.7422857,3.22485204 10.6405918,3.23315816 C10.8892143,3.61052551 11.0349082,4.06197449 11.0349082,4.54777041 C11.0349082,5.8702398 9.9627449,6.94229082 8.64038776,6.94229082 C8.11609184,6.94229082 7.63265306,6.77179082 7.23822449,6.48612755 C7.21858163,6.64169898 7.2072449,6.79985204 7.2072449,6.96092347 C7.2072449,9.02735204 8.88227551,10.7024949 10.9487041,10.7024949 C13.0151327,10.7024949 14.6901633,9.02735204 14.6901633,6.96092347 C14.6901633,4.89460714 13.0151327,3.21946429 10.9487041,3.21946429" id="Fill-4" fill="#FEFEFE"></path>
                    </g>
                </g>
            </g>
        </g>
    </g>
</svg>