<?xml version="1.0" encoding="UTF-8" standalone="no"?>
<svg width="19px" height="25px" viewBox="0 0 19 25" version="1.1" xmlns="http://www.w3.org/2000/svg" xmlns:xlink="http://www.w3.org/1999/xlink">
    <!-- Generator: Sketch 41.2 (35397) - http://www.bohemiancoding.com/sketch -->
    <title>Page 1</title>
    <desc>Created with Sketch.</desc>
    <defs>
        <polygon id="path-1" points="18.7210094 12.4804607 18.7210094 24.9609155 0 24.9609155 0 12.4804607 0 5.8685446e-06 18.7210094 5.8685446e-06 18.7210094 12.4804607"></polygon>
    </defs>
    <g id="Perfil---Mobile-(iPhone-4)" stroke="none" stroke-width="1" fill="none" fill-rule="evenodd">
        <g id="Perfil---Scroll-Agenciado" transform="translate(-44.000000, -557.000000)">
            <g id="Group-18" transform="translate(20.000000, 421.000000)">
                <g id="Group-18-Copy">
                    <g id="Group-17" transform="translate(21.000000, 86.000000)">
                        <g id="Page-1" transform="translate(3.000000, 50.000000)">
                            <mask id="mask-2" fill="white">
                                <use xlink:href="#path-1"></use>
                            </mask>
                            <g id="Clip-2"></g>
                            <path d="M9.36032864,13.2602758 C6.77570423,13.2602758 4.68016432,11.164912 4.68016432,8.58028756 C4.68016432,5.99531103 6.77570423,3.90012324 9.36032864,3.90012324 C11.9452465,3.90012324 14.040493,5.99531103 14.040493,8.58028756 C14.040493,11.164912 11.9452465,13.2602758 9.36032864,13.2602758 M9.36032864,5.8685446e-06 C4.1911385,5.8685446e-06 0,4.19079225 0,9.36033451 C0,14.5299941 9.36032864,24.9609214 9.36032864,24.9609214 C9.36032864,24.9609214 18.7210094,14.5300528 18.7210094,9.36033451 C18.7210094,4.19073357 14.5298709,5.8685446e-06 9.36032864,5.8685446e-06" id="Fill-1" fill="#FFFFFF" mask="url(#mask-2)"></path>
                        </g>
                    </g>
                </g>
            </g>
        </g>
    </g>
</svg>