<?xml version="1.0" encoding="UTF-8" standalone="no"?>
<svg width="25px" height="19px" viewBox="0 0 25 19" version="1.1" xmlns="http://www.w3.org/2000/svg" xmlns:xlink="http://www.w3.org/1999/xlink">
    <!-- Generator: Sketch 41.2 (35397) - http://www.bohemiancoding.com/sketch -->
    <title>Page 1</title>
    <desc>Created with Sketch.</desc>
    <defs>
        <polygon id="path-1" points="1.57587525e-20 0.000290697674 1.57587525e-20 18.0386628 24.5631395 18.0386628 24.5631395 0.000290697674 0 0.000290697674"></polygon>
    </defs>
    <g id="Perfil---Mobile-(iPhone-4)" stroke="none" stroke-width="1" fill="none" fill-rule="evenodd">
        <g id="Perfil---Scroll-Agenciado" transform="translate(-41.000000, -600.000000)">
            <g id="Group-18" transform="translate(20.000000, 421.000000)">
                <g id="Group-18-Copy">
                    <g id="Group-17" transform="translate(21.000000, 86.000000)">
                        <g id="Page-1" transform="translate(0.000000, 93.000000)">
                            <mask id="mask-2" fill="white">
                                <use xlink:href="#path-1"></use>
                            </mask>
                            <g id="Clip-2"></g>
                            <path d="M21.5689535,15.7363372 L2.99162791,15.7363372 C2.61313953,15.7363372 2.30267442,15.4322674 2.30267442,15.0438953 L2.30267442,3.55377907 L12.3747674,11.1723837 L22.2584884,4.14912791 L22.2584884,15.0438953 C22.2584884,15.4322674 21.9515116,15.7363372 21.5689535,15.7363372 L21.5689535,15.7363372 Z M20.8933721,2.30377907 L12.4189535,8.32063953 L4.46197674,2.30377907 L20.8933721,2.30377907 Z M21.5689535,0.000290697674 L2.99162791,0.000290697674 C1.33872093,0.00436046512 -0.00023255814,1.33982558 -0.00023255814,2.99622093 L-0.00023255814,15.0438953 C-0.00023255814,16.7043605 1.33872093,18.0351744 2.99162791,18.0386628 L21.5689535,18.0386628 C23.2212791,18.0351744 24.5631395,16.6991279 24.5631395,15.0438953 L24.5631395,2.99622093 C24.5631395,1.33982558 23.2212791,0.000290697674 21.5689535,0.000290697674 L21.5689535,0.000290697674 Z" id="Fill-1" fill="#FEFEFE" mask="url(#mask-2)"></path>
                        </g>
                    </g>
                </g>
            </g>
        </g>
    </g>
</svg>