<?xml version="1.0" encoding="UTF-8" standalone="no"?>
<svg width="43px" height="34px" viewBox="0 0 43 34" version="1.1" xmlns="http://www.w3.org/2000/svg" xmlns:xlink="http://www.w3.org/1999/xlink">
    <!-- Generator: Sketch 41.2 (35397) - http://www.bohemiancoding.com/sketch -->
    <title>Perfil - Scroll Agenciado</title>
    <desc>Created with Sketch.</desc>
    <defs></defs>
    <g id="Perfil---Mobile-(iPhone-4)" stroke="none" stroke-width="1" fill="none" fill-rule="evenodd">
        <g id="Perfil---Scroll-Agenciado" transform="translate(-16.000000, -2863.000000)" fill="#FFFFFF">
            <g id="Group-15-Copy" transform="translate(20.000000, 2866.000000)">
                <g id="Group-2">
                    <g id="Page-1">
                        <path d="M9.42128923,22.8289711 L9.42128923,13.9967908 C9.42128923,13.3076574 8.85988923,12.7490426 8.16732,12.7490426 L5.17745846,12.7490426 C4.48488923,12.7490426 3.92348923,13.3076574 3.92348923,13.9967908 L3.92348923,22.8289711 L9.42128923,22.8289711 Z" id="Fill-1"></path>
                        <g id="Group-5" transform="translate(0.000000, 0.103300)">
                            <path d="M34.1659123,24.7170958 L1.86748154,24.7170958 L1.86748154,0.62571725 C1.86748154,0.282275719 1.44931231,0.00377196315 0.933681538,0.00377196315 C0.418050769,0.00377196315 -1.07692308e-05,0.282275719 -1.07692308e-05,0.62571725 L-1.07692308e-05,25.6556932 C-1.07692308e-05,25.6603009 0.000958461538,25.6648016 0.00106615385,25.6696237 C0.0121584615,26.1716591 0.377881538,26.5752163 0.828358462,26.5752163 L34.1659123,26.5752163 C34.6232815,26.5752163 34.9940662,26.1592288 34.9940662,25.6461561 C34.9940662,25.1330834 34.6232815,24.7170958 34.1659123,24.7170958" id="Fill-3"></path>
                        </g>
                        <path d="M16.6553908,22.8289711 L16.6553908,3.95511768 C16.6553908,3.26598429 16.0939908,2.70747657 15.4014215,2.70747657 L12.4114523,2.70747657 C11.7188831,2.70747657 11.1574831,3.26598429 11.1574831,3.95511768 L11.1574831,22.8289711 L16.6553908,22.8289711 Z" id="Fill-6"></path>
                        <path d="M23.8893954,22.8289711 L23.8893954,10.9164257 C23.8893954,10.2272923 23.3279954,9.66867742 22.6354262,9.66867742 L19.6455646,9.66867742 C18.9529954,9.66867742 18.3915954,10.2272923 18.3915954,10.9164257 L18.3915954,22.8289711 L23.8893954,22.8289711 Z" id="Fill-8"></path>
                        <path d="M31.1234969,22.8289711 L31.1234969,8.52294361 C31.1234969,7.83381023 30.5620969,7.27519535 29.8695277,7.27519535 L26.8796662,7.27519535 C26.1870969,7.27519535 25.6255892,7.83381023 25.6255892,8.52294361 L25.6255892,22.8289711 L31.1234969,22.8289711 Z" id="Fill-10"></path>
                    </g>
                </g>
            </g>
        </g>
    </g>
</svg>