<?xml version="1.0" encoding="UTF-8" standalone="no"?>
<svg width="41px" height="34px" viewBox="0 0 41 34" version="1.1" xmlns="http://www.w3.org/2000/svg" xmlns:xlink="http://www.w3.org/1999/xlink">
    <!-- Generator: Sketch 41.2 (35397) - http://www.bohemiancoding.com/sketch -->
    <title>Cachê</title>
    <desc>Created with Sketch.</desc>
    <defs>
        <polyline id="path-1" points="0 0.563450549 78.5430259 0.563450549 78.5430259 62 0 62"></polyline>
    </defs>
    <g id="Perfil---Mobile-(iPhone-4)" stroke="none" stroke-width="1" fill="none" fill-rule="evenodd">
        <g id="Perfil---Scroll-Agenciado" transform="translate(-17.000000, -1642.000000)">
            <g id="Group-30-Copy" transform="translate(17.000000, 1642.000000)">
                <g id="Group-20">
                    <g id="Cachê" transform="translate(3.000000, 3.000000)">
                        <mask id="mask-2" fill="white">
                            <use xlink:href="#path-1"></use>
                        </mask>
                        <g id="Clip-2"></g>
                        <path d="M46.3186534,8.3871011 C45.8051534,8.56015604 45.2494293,8.2814967 45.0764466,7.76778242 C44.9136793,7.28336484 44.3177741,6.71718901 43.1668259,6.71718901 C42.2501534,6.71718901 41.70805,7.32151868 41.6460759,7.92176044 C41.5643517,8.67121099 42.2120155,9.26055165 43.3684121,9.50582637 C46.0169552,10.0583758 46.7885672,11.8482 46.6496362,13.2115187 C46.5059379,14.5836945 45.4939207,15.6683538 44.1502397,16.0383099 L44.1502397,16.8545297 C44.1502397,17.4009473 43.7136966,17.8390352 43.1668259,17.8390352 C42.6247224,17.8390352 42.1881793,17.4009473 42.1881793,16.8545297 L42.1881793,16.0764637 C40.6143086,15.7596505 39.7078517,14.7138264 39.4007052,13.7920022 C39.2284034,13.2735187 39.5062655,12.7168813 40.0190845,12.5438264 C40.5325845,12.3755407 41.0889897,12.6501121 41.2619724,13.1685956 C41.4247397,13.6523319 42.0199638,14.2137385 43.1668259,14.2137385 C44.0882655,14.2137385 44.630369,13.6094088 44.6923431,13.0098484 C44.7693,12.2610791 44.1264034,11.6703758 42.9652397,11.4257824 C40.3207828,10.8739143 39.5491707,9.08340879 39.6881017,7.72009011 C39.8331621,6.34723297 40.8444983,5.26257363 42.1881793,4.8932989 L42.1881793,4.07707912 C42.1881793,3.53474945 42.6247224,3.09325495 43.1668259,3.09325495 C43.7136966,3.09325495 44.1502397,3.53474945 44.1502397,4.07707912 L44.1502397,4.85446374 C45.7241103,5.17672747 46.6305672,6.21846374 46.9377138,7.14369451 C47.1106966,7.65740879 46.8321534,8.21540879 46.3186534,8.3871011 M43.1668259,0.563518681 C37.7410241,0.563518681 33.3415414,4.96483736 33.3415414,10.3935846 C33.3415414,15.8223319 37.7410241,20.2236505 43.1668259,20.2236505 C48.5980759,20.2236505 52.9927914,15.8223319 52.9927914,10.3935846 C52.9927914,4.96483736 48.5980759,0.563518681 43.1668259,0.563518681 M67.5778259,19.566178 C67.2802138,18.9666176 67.284981,18.5339802 67.4436621,18.418156 C67.5104034,18.3704637 67.6064293,18.3425297 67.7262914,18.3425297 C67.9707828,18.3425297 68.3167483,18.4665297 68.6572655,18.8078703 C69.5494207,19.705167 70.0819897,20.7080681 70.1439638,21.5958264 C68.9930155,21.2129253 68.0334379,20.4730132 67.5778259,19.566178 M19.0963431,26.6116945 C17.7383603,26.6116945 16.6398517,25.5127275 16.6398517,24.154178 C16.6398517,22.7963099 17.7383603,21.6966615 19.0963431,21.6966615 C20.4536448,21.6966615 21.5528345,22.7963099 21.5528345,24.154178 C21.5528345,25.5127275 20.4536448,26.6116945 19.0963431,26.6116945 M77.8832397,19.4885077 C77.2062914,19.0374747 76.2950672,19.2207495 75.8394552,19.8966176 C75.0719293,21.054178 74.0108776,21.5529033 73.0996534,21.7545736 C73.0948862,20.0362879 72.2653862,18.2464637 70.7391879,16.7243978 C69.2858603,15.2704637 67.1794207,14.9768154 65.7206448,16.0287714 C64.6364379,16.8116066 63.7776534,18.5530571 64.9435845,20.8804418 C65.6682052,22.3357385 67.0016707,23.4912549 68.6334293,24.1739363 C68.3256017,24.3953648 67.9660155,24.5997604 67.5676103,24.8027934 C66.6849897,25.2442879 65.7785328,25.5079582 64.9054466,25.6619363 C62.7799379,21.3273868 58.9463948,17.6223758 54.0238776,15.0013429 C52.2245845,19.2255187 48.0362224,22.1912989 43.1668259,22.1912989 C36.9203776,22.1912989 31.8058086,17.2953429 31.4169379,11.1375846 C30.8033259,11.1995846 30.2033345,11.2622659 29.6128776,11.3392549 C25.9230328,8.94850769 19.0718259,6.00725495 12.2158517,6.46305714 C12.5332138,9.31369451 14.2841534,12.9764637 16.5349724,15.615211 C12.1681793,18.313233 9.35755,21.999167 7.93691207,26.2614967 C6.27655,26.991189 4.48202414,27.457211 2.47773966,27.5907495 C1.01351552,27.6915846 -0.0945275862,28.9499802 0.00626551724,30.4134527 C0.280722414,34.1947714 1.3983,40.6359582 5.83115345,42.3399363 C6.66133448,42.6628813 7.98526552,42.8495626 9.56322241,42.9497165 C11.4387914,46.0217824 14.1983431,48.7245736 17.6041966,50.8659582 C17.0334897,53.7111451 16.3279379,56.5863099 15.459619,59.4853209 C15.08505,60.7389473 16.0364552,62.0000681 17.3454034,62.0000681 L25.5974983,62.0000681 C26.4174638,62.0000681 27.1611534,61.5013429 27.4451448,60.7334967 C28.0921276,58.9756945 28.6437655,57.1811011 29.108231,55.3524418 C31.5606362,55.8423099 34.1322224,56.101211 36.7800845,56.101211 C39.8658517,56.101211 42.8406103,55.7510132 45.6423862,55.0983099 C45.2780328,56.552244 44.8843948,58.0163978 44.4478517,59.4853209 C44.0685155,60.7389473 45.0185586,62.0000681 46.328869,62.0000681 L54.585731,62.0000681 C55.4009293,62.0000681 56.144619,61.5013429 56.4326966,60.7334967 C57.9003259,56.7593648 58.8748862,52.5835626 59.4741966,48.2537824 C64.0030759,44.2939582 66.7524121,39.1397824 66.7524121,33.4943758 C66.7524121,31.7617824 66.4834034,30.0775626 65.9944207,28.4553429 C66.9437828,28.2434527 67.9183431,27.9225516 68.8826879,27.4415407 C70.4803948,26.6409912 71.4876448,25.7246176 72.1114724,24.8307275 C74.6537741,24.7782659 76.9331966,23.5777824 78.2952655,21.5331451 C78.7461103,20.8572769 78.5642741,19.9409033 77.8832397,19.4885077" id="Fill-1" fill="#FEFEFE" fill-rule="evenodd" mask="url(#mask-2)"></path>
                    </g>
                </g>
            </g>
        </g>
    </g>
</svg>