<?xml version="1.0" encoding="UTF-8" standalone="no"?>
<svg width="47px" height="31px" viewBox="0 0 47 31" version="1.1" xmlns="http://www.w3.org/2000/svg" xmlns:xlink="http://www.w3.org/1999/xlink">
    <!-- Generator: Sketch 41.2 (35397) - http://www.bohemiancoding.com/sketch -->
    <title>Perfil - Scroll Agenciado</title>
    <desc>Created with Sketch.</desc>
    <defs>
        <polygon id="path-1" points="34.5689664 22.1523385 0 22.1523385 0 0.0001329478 34.5689664 0.0001329478"></polygon>
    </defs>
    <g id="Perfil---Mobile-(iPhone-4)" stroke="none" stroke-width="1" fill="none" fill-rule="evenodd">
        <g id="Perfil---Scroll-Agenciado" transform="translate(-172.000000, -2514.000000)">
            <g id="Group-15" transform="translate(20.000000, 2457.000000)">
                <g id="Group-13-Copy">
                    <g id="cabide" transform="translate(158.000000, 62.000000)">
                        <mask id="mask-2" fill="white">
                            <use xlink:href="#path-1"></use>
                        </mask>
                        <g id="Clip-2"></g>
                        <path d="M32.8426818,15.4993204 C32.7576818,15.4394939 32.6654091,15.4124611 32.5908636,15.3920758 L18.2808636,9.22418423 C18.0508636,9.12535969 17.7831364,9.22728634 17.6813182,9.45063864 C17.5799545,9.67399095 17.6835909,9.93589811 17.9131364,10.0347226 L32.2181364,16.2003984 C32.2431364,16.2114774 32.2817727,16.2252153 32.3540455,16.2469302 C33.4358636,16.9675072 33.9081364,18.171128 33.5308636,19.3871572 C33.1467727,20.6204696 32.0149545,21.2661527 30.5031364,21.2661527 L3.25540909,21.2661527 C2.03586364,21.2661527 1.12813636,20.6816256 0.942227273,19.6362127 C0.7545,18.5974472 1.36313636,17.2404934 3.18313636,16.599685 L16.9026818,10.2992888 C16.9899545,10.2589613 17.0563182,10.205339 17.1013182,10.1273429 C17.1526818,10.0497901 17.1840455,9.96558979 17.1840455,9.87917372 L17.1840455,6.92463045 C17.1840455,6.7748426 17.2754091,6.61308944 17.4690455,6.61308944 C19.5508636,6.61308944 21.1217727,5.19187747 21.1217727,3.30667767 C21.1217727,1.39089988 19.7949545,-0.000177263733 17.9663182,-0.000177263733 C16.0490455,-0.000177263733 14.3672273,1.5889921 14.3672273,3.40062745 C14.3672273,3.6452514 14.5708636,3.84378678 14.8217727,3.84378678 C15.0731364,3.84378678 15.2763182,3.6452514 15.2763182,3.40062745 C15.2763182,2.06139995 16.5340455,0.8861414 17.9672273,0.8861414 C19.2695,0.8861414 20.2140455,1.90407838 20.2140455,3.30667767 C20.2140455,4.70883379 19.0581364,5.72677078 17.4690455,5.72677078 C16.8013182,5.72677078 16.2749545,6.25280091 16.2749545,6.92463045 L16.2749545,9.62790238 L2.83222727,15.8272583 C0.557681818,16.6258314 -0.205954545,18.3975824 0.0458636364,19.7891027 C0.305863636,21.2564032 1.59677273,22.1524714 3.25540909,22.1524714 L30.5031364,22.1524714 C32.4081364,22.1524714 33.9017727,21.2475401 34.4008636,19.6446328 C34.8981364,18.0399528 34.2667727,16.424637 32.8426818,15.4993204" id="Fill-1" fill="#FFFFFF" mask="url(#mask-2)"></path>
                    </g>
                </g>
            </g>
        </g>
    </g>
</svg>