<?xml version="1.0" encoding="UTF-8" standalone="no"?>
<svg width="48px" height="85px" viewBox="0 0 48 85" version="1.1" xmlns="http://www.w3.org/2000/svg" xmlns:xlink="http://www.w3.org/1999/xlink">
    <!-- Generator: Sketch 41.2 (35397) - http://www.bohemiancoding.com/sketch -->
    <title>Perfil - Scroll Agenciado</title>
    <desc>Created with Sketch.</desc>
    <defs>
        <polygon id="path-1" points="38.565028 76.9399064 38.565028 0.000270595023 7.95892726e-05 0.000270595023 7.95892726e-05 76.9399064"></polygon>
    </defs>
    <g id="Perfil---Mobile-(iPhone-4)" stroke="none" stroke-width="1" fill="none" fill-rule="evenodd">
        <g id="Perfil---Scroll-Agenciado" transform="translate(-16.000000, -2507.000000)">
            <g id="Group-15" transform="translate(20.000000, 2457.000000)">
                <g id="Group-13-Copy">
                    <g id="mulher" transform="translate(1.000000, 54.000000)">
                        <mask id="mask-2" fill="white">
                            <use xlink:href="#path-1"></use>
                        </mask>
                        <g id="Clip-2"></g>
                        <path d="M37.2405412,40.5669745 C36.9499437,41.6146282 36.5192126,41.6146282 36.3772824,41.6146282 C34.8299743,41.6146282 33.8670051,41.1505577 33.4443587,40.2210638 L27.2052708,23.8726145 C27.0112397,23.1798913 26.1385489,22.8610401 25.6440391,23.0951048 C25.3422129,23.2376182 25.1387498,23.5307628 25.0700304,23.9204196 C25.0552086,24.006559 24.9083378,24.4020788 25.0664373,24.6767327 L34.0736123,49.9471509 L34.0736123,51.845375 C34.0736123,51.8530419 34.1288573,52.0361445 33.6518641,52.6341595 C33.1910403,53.2127819 33.0500084,53.2172918 33.0248563,53.2172918 L26.4381293,53.2172918 L26.4381293,73.2760498 C26.4381293,73.9804989 26.2759876,74.6060244 25.7406055,75.1887057 C25.2155537,75.7601121 24.6496297,76.037923 23.9107844,76.037923 C23.17149,76.037923 22.6873106,75.7601121 22.1622588,75.1882547 C21.6268767,74.6064754 21.4975227,73.9809499 21.4975227,73.2760498 L21.4975227,52.9273041 C21.4975227,52.3680744 20.6895089,52.2968177 20.2246428,52.2494636 C19.95785,52.2228551 19.6263802,52.2088743 19.3461131,52.2088743 C19.0671934,52.2088743 18.6616145,52.2228551 18.3701187,52.2490126 C17.8437195,52.2972687 17.0060621,52.3622115 17.0060621,52.9273041 L17.0060621,73.428936 C17.0060621,74.1270712 16.8407764,74.7232822 16.313928,75.2518445 C15.7870797,75.7808578 15.2386724,76.037923 14.5433943,76.037923 C13.8418281,76.037923 13.1303808,75.7767988 12.5505332,75.2392167 C11.9814652,74.7124584 11.6163094,74.1198553 11.6163094,73.428936 L11.6163094,53.2416453 L5.51960082,53.2443513 C5.4989401,53.2389394 5.46435585,53.1753495 4.89933011,52.608002 C4.30735561,52.0144969 4.42997248,51.8521399 4.42997248,51.8571008 L4.42997248,49.944896 L13.4128936,24.2419767 L13.4128936,24.1648571 C13.4128936,23.5095662 12.9058077,23.1023207 12.2531985,23.1023207 C11.7577904,23.1023207 11.3293051,23.3819355 11.1707565,23.8554768 L5.04215856,40.4064214 C4.80231456,41.2082847 3.8070069,41.6146282 2.10743822,41.6146282 C1.96011831,41.6146282 1.50468421,41.6146282 1.15345199,40.6147796 C0.781559055,39.557655 0.929328108,39.2839031 0.947743097,39.2559416 L0.993555994,39.1643902 C3.88515831,31.4298825 8.6088274,19.5908993 9.77031911,18.6375028 C11.3558047,17.3341368 13.1815834,16.6869637 15.1986984,16.6869637 L23.2738953,16.6869637 C25.2910103,16.6869637 27.092086,17.3088812 28.6281655,18.5621872 C29.7411494,19.4695825 34.7064591,31.4993352 37.6016546,38.9361884 C37.5868328,39.1350758 37.5140711,39.5765967 37.2405412,40.5669745 L37.2405412,40.5669745 Z M38.5035399,38.688594 C37.7296612,36.6988186 30.8797347,19.223792 29.2102588,17.8622481 C27.510241,16.4749976 25.5021089,15.7849803 23.2738953,15.7849803 L15.1986984,15.7849803 C12.9686882,15.7849803 10.9506749,16.5007041 9.20035276,17.9393676 C7.49180116,19.3424028 0.982776489,36.6293659 0.166228956,38.8121657 C-0.0929283194,39.2545886 -0.0493611518,39.9247623 0.300074481,40.918297 C0.765389797,42.2419576 1.53298041,42.5184156 2.09486213,42.5184156 C4.23773797,42.5184156 5.51016875,41.894694 5.86768901,40.6932521 L11.9666433,24.1558373 C12.0151511,24.0119709 12.0632097,24.0047551 12.1516915,24.0047551 C12.2514019,24.0047551 12.2873336,24.0236967 12.2891302,24.0236967 L12.2891302,24.0236967 C12.2904776,24.0259517 12.3021554,24.0462463 12.3075452,24.0976594 L3.45218151,49.7184981 L3.53168037,49.7906568 L3.53168037,51.8571008 C3.53168037,52.2079723 3.68573746,52.5989821 4.3199317,53.2339785 C4.95457508,53.8716807 5.25056233,54.1192752 5.59909967,54.1192752 L10.7180173,54.1192752 L10.7180173,73.428936 C10.7180173,74.3728617 11.2111797,75.2049414 11.9639485,75.9021745 C12.7072852,76.5908389 13.6087213,76.9399064 14.5330639,76.9399064 C15.465042,76.9399064 16.227692,76.5867799 16.9216226,75.8895468 C17.6155533,75.1932156 17.9043542,74.3656458 17.9043542,73.428936 L17.9043542,53.202409 C18.3535003,53.1852714 18.2232479,53.1658787 18.4244654,53.1478391 C18.952212,53.0991319 19.6142533,53.0995829 20.0894498,53.1473881 C20.2538372,53.1636238 20.1500845,53.1812124 20.5992306,53.1960952 L20.5992306,73.2760498 C20.5992306,74.2050927 20.840422,75.0547611 21.5267172,75.7997994 C22.2206478,76.5565635 23.0219244,76.9399064 24.0127406,76.9399064 C25.0026585,76.9399064 25.7325209,76.5565635 26.427799,75.8002504 C27.1131958,75.0538591 27.3364214,74.2046418 27.3364214,73.2760498 L27.3364214,54.1192752 L33.0248563,54.1192752 C33.4789429,54.1192752 33.8535307,53.8256796 34.3534303,53.1969971 C34.8492875,52.5750796 34.9719044,52.1831678 34.9719044,51.8571008 L34.9719044,49.7888528 L25.8582818,24.224388 L25.9005015,24.2216821 C25.8919677,24.1080322 25.9552973,23.9348514 25.9957204,23.9177137 C26.1183373,23.9177137 26.3083261,24.0295596 26.3307834,24.1206599 L32.6102944,40.5692294 C33.1968792,41.8617716 34.4652677,42.5166116 36.3745876,42.5166116 C36.9472488,42.5166116 37.7435847,42.220761 38.1356892,40.808706 C38.4914129,39.5206737 38.5650729,39.0755449 38.5650729,38.852755 L38.5650729,38.7675175 L38.5035399,38.688594 Z M14.8299495,2.68231826 C16.0233305,1.4844843 17.4143359,0.902254005 19.0833626,0.902254005 C20.7523894,0.902254005 22.1438439,1.4844843 23.3372249,2.68231826 C24.5301569,3.88060322 25.1100044,5.27732453 25.1100044,6.95320971 C25.1100044,8.62909488 24.5301569,10.0262672 23.3372249,11.2241012 C22.144293,12.4223861 20.7523894,13.0046164 19.0833626,13.0046164 C17.4138867,13.0046164 16.0233305,12.4223861 14.8299495,11.2241012 C13.6370175,10.0262672 13.05717,8.62909488 13.05717,6.95320971 C13.05717,5.27732453 13.6370175,3.88060322 14.8299495,2.68231826 L14.8299495,2.68231826 Z M19.0833626,13.9065998 C20.9760641,13.9065998 22.620837,13.2188375 23.9723175,11.8622544 C25.3233488,10.5052204 26.0082965,8.85368875 26.0082965,6.95320971 C26.0082965,5.05273067 25.3233488,3.40119904 23.9723175,2.04461599 C22.620837,0.688032945 20.9760641,0.000270595023 19.0833626,0.000270595023 C17.1906611,0.000270595023 15.5458883,0.688032945 14.1948569,2.04461599 C12.8442747,3.40119904 12.1588778,5.05273067 12.1588778,6.95320971 C12.1588778,8.85368875 12.8442747,10.5052204 14.1948569,11.8622544 C15.5458883,13.2183865 17.190212,13.9065998 19.0833626,13.9065998 L19.0833626,13.9065998 Z" id="Fill-1" stroke="#FFFFFF" stroke-width="0.3" fill="#FFFFFF" mask="url(#mask-2)"></path>
                    </g>
                </g>
            </g>
        </g>
    </g>
</svg>