<?xml version="1.0" encoding="UTF-8" standalone="no"?>
<svg width="38px" height="30px" viewBox="0 0 38 30" version="1.1" xmlns="http://www.w3.org/2000/svg" xmlns:xlink="http://www.w3.org/1999/xlink">
    <!-- Generator: Sketch 41.2 (35397) - http://www.bohemiancoding.com/sketch -->
    <title>Perfil - Scroll Agenciado</title>
    <desc>Created with Sketch.</desc>
    <defs></defs>
    <g id="Perfil---Mobile-(iPhone-4)" stroke="none" stroke-width="1" fill="none" fill-rule="evenodd">
        <g id="Perfil---Scroll-Agenciado" transform="translate(-179.000000, -2551.000000)" fill="#FFFFFF">
            <g id="Group-15" transform="translate(20.000000, 2457.000000)">
                <g id="Group-13-Copy">
                    <path d="M191.208758,117.497021 C188.762092,117.934454 185.47329,118.147617 181.154382,118.147617 C180.574263,118.147617 180.052419,118.1442 179.609443,118.141637 C179.280387,118.139074 178.994709,118.137365 178.760296,118.137365 C176.951148,118.137365 175.644566,118.137365 172.747913,111.850545 C170.618035,107.231438 168.407974,106.541541 167.280598,106.541541 C166.432327,106.541541 165.796562,106.920023 165.564777,107.27202 C165.130564,107.935432 165.151596,114.511454 165.179638,117.221916 C165.176571,117.118966 165.173065,117.012598 165.169998,116.903239 C165.013576,111.771516 164.814653,106.211758 164.429076,105.198485 C163.426574,102.540138 163.764831,100.313672 165.560396,97.7535773 C165.8303,97.3691146 166.41261,96.8543617 166.614162,96.8428278 C167.124176,97.3810756 168.902653,99.5567076 170.961112,102.075793 C174.465048,106.363834 178.437375,111.224297 179.509981,112.164095 C180.806924,113.299542 182.088094,113.457599 183.570815,113.640432 C184.16627,113.714335 184.781441,113.789946 185.466718,113.933478 C188.548272,114.581084 192.119247,116.38336 192.123628,117.070694 C192.123628,117.128791 191.953185,117.331275 191.208758,117.497021 M185.650744,113.09834 C184.9291,112.947118 184.265731,112.865099 183.68123,112.792905 C182.234438,112.614344 181.188559,112.485335 180.095358,111.52845 C179.077083,110.636069 174.95666,105.594481 171.646826,101.543526 C169.576976,99.0111976 167.789736,96.8240318 167.257375,96.2627162 C167.093943,96.0909895 166.880123,96 166.63826,96 C165.754061,96 164.846201,97.2589019 164.836999,97.2712901 C162.888956,100.04882 162.509513,102.584565 163.607094,105.494521 C163.975146,106.462086 164.198167,113.79678 164.293686,116.92887 C164.31165,117.5077 164.326547,117.964357 164.339692,118.342412 C164.348893,118.690137 164.635886,118.921242 164.992545,118.921242 L165.417119,118.921242 C165.596325,118.921242 165.768958,118.888776 165.880688,118.771301 C166.009068,118.646137 166.078297,118.49577 166.070848,118.331305 C165.997238,115.070634 166.051569,108.342963 166.302633,107.722696 C166.361784,107.632561 166.703546,107.390777 167.280598,107.390777 C168.017577,107.390777 169.94897,107.861957 171.948716,112.19827 C174.925989,118.661516 176.476625,118.990445 178.760296,118.990445 C178.992957,118.990445 179.27732,118.992581 179.603747,118.994717 C180.048476,118.997707 180.572073,119.001552 181.154382,119.001552 C181.154382,119.001552 181.154382,119.001979 181.154821,119.001979 C185.526745,119.001979 188.867688,118.784544 191.384897,118.333441 C192.459694,118.095074 193.003446,117.668747 192.999941,117.065568 C192.989425,115.361117 187.738559,113.536627 185.650744,113.09834" id="sapato"></path>
                </g>
            </g>
        </g>
    </g>
</svg>