<?xml version="1.0" encoding="utf-8"?>
<!-- Generator: Adobe Illustrator 21.1.0, SVG Export Plug-In . SVG Version: 6.00 Build 0)  -->
<svg version="1.1" id="Layer_2_copy" xmlns="http://www.w3.org/2000/svg" xmlns:xlink="http://www.w3.org/1999/xlink" x="0px"
	 y="0px" viewBox="0 0 1303.9 1303.9" style="enable-background:new 0 0 1303.9 1303.9;" xml:space="preserve">
<style type="text/css">
	.st0{display:none;fill:none;stroke:#000000;stroke-miterlimit:10;}
	.st1{opacity:0.1;fill:none;stroke:#3399FF;stroke-miterlimit:10;enable-background:new    ;}
	.st2{fill:#FFFFFF;}
</style>
<path id="Contorno" class="st0" d="M1303.9,1170.6c-49.4-32.9-144.1-79.3-186.7-101.6c-54.6-28.7-208.7-95.5-234.7-109.1
	c-25.9-13.6-35.5-57.3-35.5-57.3l5.5-122.8c0,0,16.4-50.5,21.8-65.5c5.5-15,8.2-70.9,8.2-70.9s15-9.6,24.6-21.8
	c9.6-12.3,27.3-17.7,32.7-57.3c5.5-39.6,2.7-69.6-5.5-101c-8.2-31.4-32.7-2.7-32.7-2.7C959,60.7,653.4,73,653.4,73
	S347.8,60.7,405.1,460.4c0,0-24.6-28.7-32.7,2.7c-8.2,31.4-10.9,61.4-5.5,101c5.5,39.6,23.2,45,32.7,57.3
	c9.6,12.3,24.6,21.8,24.6,21.8s2.7,55.9,8.2,70.9s21.8,65.5,21.8,65.5l5.5,122.8c0,0-9.6,43.7-35.5,57.3
	c-25.9,13.6-180.1,80.5-234.7,109.1c-43.4,22.8-140.9,70.5-189.5,103.5v131.5h1303.9V1170.6z"/>
<rect class="st1" width="1303.9" height="1303.9"/>
<path class="st2" d="M519.9,547.4c-0.9,0-1.9,0-2.8,0c13.5,0.4,24.3,11.4,24.3,25c0,13.8-11.2,25-25,25c-13.8,0-25-11.2-25-25
	c0-12.8,9.7-23.4,22.1-24.9c-30,1.7-52.7,15.2-52.7,32.1c0,18.1,26,32.3,59.1,32.3c33.1,0,59.1-24.1,59.1-32.3
	C578.1,573.6,553.1,547.4,519.9,547.4z"/>
<path class="st2" d="M784,547.4c0.9,0,1.9,0,2.8,0c-13.5,0.4-24.3,11.4-24.3,25c0,13.8,11.2,25,25,25c13.8,0,25-11.2,25-25
	c0-12.8-9.7-23.4-22.1-24.9c30,1.7,52.7,15.2,52.7,32.1c0,18.1-26,32.3-59.1,32.3c-33.1,0-59.1-24.1-59.1-32.3
	C725.9,573.6,750.8,547.4,784,547.4z"/>
</svg>
