<?xml version="1.0" encoding="UTF-8" standalone="no"?>
<svg width="254px" height="108px" viewBox="0 0 254 108" version="1.1" xmlns="http://www.w3.org/2000/svg" xmlns:xlink="http://www.w3.org/1999/xlink">
    <!-- Generator: Sketch 46 (44423) - http://www.bohemiancoding.com/sketch -->
    <title>Group Copy 3</title>
    <desc>Created with Sketch.</desc>
    <defs>
        <rect id="path-1" x="30" y="0" width="220" height="100" rx="15"></rect>
        <filter x="-3.2%" y="-5.0%" width="106.4%" height="114.0%" filterUnits="objectBoundingBox" id="filter-2">
            <feOffset dx="0" dy="2" in="SourceAlpha" result="shadowOffsetOuter1"></feOffset>
            <feGaussianBlur stdDeviation="2" in="shadowOffsetOuter1" result="shadowBlurOuter1"></feGaussianBlur>
            <feComposite in="shadowBlurOuter1" in2="SourceAlpha" operator="out" result="shadowBlurOuter1"></feComposite>
            <feColorMatrix values="0 0 0 0 0   0 0 0 0 0   0 0 0 0 0  0 0 0 0.5 0" type="matrix" in="shadowBlurOuter1"></feColorMatrix>
        </filter>
        <circle id="path-3" cx="30" cy="30" r="30"></circle>
        <polygon id="path-4" points="33.9401129 34.2352542 0 34.2352542 0 17.1414776 0 0.0477011208 33.9401129 0.0477011208 33.9401129 34.2352542"></polygon>
        <polygon id="path-6" points="17.80204 8.89103815 17.80204 0.16247481 0.230123103 0.16247481 0.230123103 8.89103815 17.80204 8.89103815"></polygon>
    </defs>
    <g id="Novo-Cadastro---Mobile" stroke="none" stroke-width="1" fill="none" fill-rule="evenodd">
        <g id="Sign-Up---Modalidades-Copy-2" transform="translate(-20.000000, -310.000000)">
            <g id="Group-2" transform="translate(20.000000, 202.000000)">
                <g id="Group-3">
                    <g id="Group-Copy-3" transform="translate(0.000000, 110.000000)">
                        <g id="Mask-Copy-3">
                            <use fill="black" fill-opacity="1" filter="url(#filter-2)" xlink:href="#path-1"></use>
                            <use fill="#2AA6E4" fill-rule="evenodd" xlink:href="#path-1"></use>
                            <rect stroke="#FFFFFF" stroke-width="1" x="30.5" y="0.5" width="219" height="99" rx="15"></rect>
                        </g>
                        <text id="PROFISSIONAL" font-family="Avenir-Book, Avenir" font-size="24" font-weight="normal" line-spacing="32" fill-opacity="0.87" fill="#FFFFFF">
                            <tspan x="68" y="33">PROFISSIONAL</tspan>
                        </text>
                        <path d="M67,46 L237,46" id="Line-Copy-7" stroke="#FFFFFF" stroke-linecap="square"></path>
                        <g id="Group-3-Copy-4" transform="translate(0.000000, 20.000000)">
                            <g id="Oval">
                                <use fill="#1E78A4" fill-rule="evenodd" xlink:href="#path-3"></use>
                                <circle stroke="#FFFFFF" stroke-width="1" cx="30" cy="30" r="29.5"></circle>
                            </g>
                            <g id="Page-1-Copy-2" transform="translate(9.041096, 12.328767)">
                                <path d="M16.9699148,19.0583951 C16.0491392,19.0583951 15.3028323,18.306646 15.3028323,17.3788706 C15.3028323,16.4513805 16.0491392,15.6996314 16.9699148,15.6996314 C17.8909737,15.6996314 18.6375639,16.4513805 18.6375639,17.3788706 C18.6375639,18.306646 17.8909737,19.0583951 16.9699148,19.0583951 M16.9699148,13.540528 C14.8652444,13.540528 13.1593595,15.2591378 13.1593595,17.3788706 C13.1593595,19.499174 14.8652444,21.2174985 16.9699148,21.2174985 C19.0748686,21.2174985 20.7807534,19.499174 20.7807534,17.3788706 C20.7807534,15.2591378 19.0748686,13.540528 16.9699148,13.540528" id="Fill-1" fill="#FEFEFE"></path>
                                <g id="Group-5" transform="translate(0.000000, 0.237650)">
                                    <mask id="mask-5" fill="white">
                                        <use xlink:href="#path-4"></use>
                                    </mask>
                                    <g id="Clip-4"></g>
                                    <path d="M16.9699148,22.1796518 C14.2075879,22.1796518 11.9683839,19.9241191 11.9683839,17.1413635 C11.9683839,14.3588932 14.2075879,12.1033606 16.9699148,12.1033606 C19.732525,12.1033606 21.971729,14.3588932 21.971729,17.1413635 C21.971729,19.9241191 19.732525,22.1796518 16.9699148,22.1796518 L16.9699148,22.1796518 Z M1.3606294,15.9251561 C1.65660311,12.0189136 3.36135505,8.51094124 5.96875602,5.91762074 C7.90915402,8.15803283 10.7184969,11.4600231 12.0258793,12.9991831 C11.116716,14.0992759 10.5638541,15.5069154 10.5414791,17.0449342 L1.3606294,15.9251561 Z M8.76053869,3.70802038 L13.158793,11.9239108 C12.8580044,12.1470105 12.5781748,12.3966426 12.3207201,12.667957 L7.10280267,4.89427193 C7.62847464,4.46404891 8.18161977,4.06777584 8.76053869,3.70802038 L8.76053869,3.70802038 Z M33.6245964,20.4219568 C33.8293706,19.359808 33.9401129,18.2637093 33.9401129,17.1413635 C33.9401129,7.70070689 26.3425102,0.0477011208 16.9699148,0.0477011208 C7.59760274,0.0477011208 0,7.70070689 0,17.1413635 C0,26.5823054 7.59760274,34.2353112 16.9699148,34.2353112 C20.023967,34.2353112 22.8874065,33.4185151 25.3631063,31.9960403 L22.8927879,31.9960403 L22.8927879,20.4219568 L33.6245964,20.4219568 Z" id="Fill-3" fill="#FEFEFE" mask="url(#mask-5)"></path>
                                </g>
                                <path d="M37.6494708,25.2351197 L37.3104463,25.2351197 L36.8867366,27.6546963 L37.21953,27.6546963 C37.5033249,27.6546963 37.7109313,27.6230286 37.8420661,27.5594081 C37.9734841,27.4960729 38.0867755,27.3853789 38.1822234,27.2270409 C38.2779546,27.0692734 38.3569754,26.8127943 38.4190024,26.4584594 C38.5008554,25.9894364 38.4810294,25.6681956 38.3598077,25.494737 C38.2380194,25.321849 38.0012405,25.2351197 37.6494708,25.2351197" id="Fill-6" fill="#FEFEFE"></path>
                                <g id="Group-10" transform="translate(24.074417, 21.919977)">
                                    <mask id="mask-7" fill="white">
                                        <use xlink:href="#path-6"></use>
                                    </mask>
                                    <g id="Clip-9"></g>
                                    <path d="M15.7136551,4.51120797 C15.6306692,4.98451036 15.5131294,5.35139817 15.3604693,5.61215669 C15.2078091,5.8729152 15.0211616,6.09173554 14.8002434,6.2677618 C14.5796085,6.44407336 14.3550083,6.5616144 14.1270094,6.61981433 C13.8151749,6.70055247 13.5378943,6.7404936 13.2963004,6.7404936 L11.2780146,6.7404936 L12.0532108,2.31216348 L14.0712134,2.31216348 C14.4688662,2.31216348 14.7809839,2.3663693 15.0072834,2.47535152 C15.2330165,2.58404845 15.4077684,2.74010415 15.5321057,2.94351862 C15.6567262,3.14693309 15.7312153,3.38372693 15.7555729,3.65332956 C15.780497,3.92321748 15.7666188,4.20908185 15.7136551,4.51120797 L15.7136551,4.51120797 Z M7.71131896,6.7404936 L6.8262301,2.31216348 L8.24577101,2.31216348 L8.67769437,5.49918035 L10.212226,2.31216348 L11.5912653,2.31216348 L9.18354036,6.7404936 L7.71131896,6.7404936 Z M6.36909941,4.51120797 C6.2863967,4.98451036 6.16857368,5.35139817 6.01591355,5.61215669 C5.86353665,5.8729152 5.67660589,6.09173554 5.45568771,6.2677618 C5.23476953,6.44407336 5.01073584,6.5616144 4.78217049,6.61981433 C4.47033599,6.70055247 4.19333858,6.7404936 3.95174472,6.7404936 L1.9334589,6.7404936 L2.7083719,2.31216348 L4.72694095,2.31216348 C5.12459367,2.31216348 5.4367114,2.3663693 5.66244447,2.47535152 C5.88817753,2.58404845 6.06349593,2.74010415 6.18754998,2.94351862 C6.31245372,3.14693309 6.38637634,3.38372693 6.41130044,3.65332956 C6.43594132,3.92321748 6.4217799,4.20908185 6.36909941,4.51120797 L6.36909941,4.51120797 Z M0.230123103,8.89103815 L17.8021816,8.89103815 L17.8021816,0.16247481 L0.230123103,0.16247481 L0.230123103,8.89103815 Z" id="Fill-8" fill="#FEFEFE" mask="url(#mask-7)"></path>
                                </g>
                                <path d="M28.3048584,25.2351197 L27.9661172,25.2351197 L27.5424074,27.6546963 L27.8752009,27.6546963 C28.1589957,27.6546963 28.3666022,27.6230286 28.4977369,27.5594081 C28.6288717,27.4960729 28.7421631,27.3853789 28.8376111,27.2270409 C28.9333423,27.0692734 29.0120798,26.8127943 29.0741068,26.4584594 C29.1565263,25.9894364 29.1367003,25.6681956 29.0149121,25.494737 C28.8934071,25.321849 28.6566281,25.2351197 28.3048584,25.2351197" id="Fill-11" fill="#FEFEFE"></path>
                            </g>
                        </g>
                        <text id="Ensaio-fotográfico-c" font-family="Avenir-Book, Avenir" font-size="14" font-weight="normal" fill-opacity="0.87" fill="#FFFFFF">
                            <tspan x="63.597" y="66">Ensaio fotográfico completo </tspan>
                            <tspan x="72.781" y="85">entregue em DVD ou link</tspan>
                        </text>
                    </g>
                </g>
            </g>
        </g>
    </g>
</svg>