<?xml version="1.0" encoding="UTF-8" standalone="no"?>
<svg width="254px" height="108px" viewBox="0 0 254 108" version="1.1" xmlns="http://www.w3.org/2000/svg" xmlns:xlink="http://www.w3.org/1999/xlink">
    <!-- Generator: Sketch 46 (44423) - http://www.bohemiancoding.com/sketch -->
    <title>Group</title>
    <desc>Created with Sketch.</desc>
    <defs>
        <rect id="path-1" x="30" y="0" width="220" height="100" rx="15"></rect>
        <filter x="-3.2%" y="-5.0%" width="106.4%" height="114.0%" filterUnits="objectBoundingBox" id="filter-2">
            <feOffset dx="0" dy="2" in="SourceAlpha" result="shadowOffsetOuter1"></feOffset>
            <feGaussianBlur stdDeviation="2" in="shadowOffsetOuter1" result="shadowBlurOuter1"></feGaussianBlur>
            <feComposite in="shadowBlurOuter1" in2="SourceAlpha" operator="out" result="shadowBlurOuter1"></feComposite>
            <feColorMatrix values="0 0 0 0 0   0 0 0 0 0   0 0 0 0 0  0 0 0 0.5 0" type="matrix" in="shadowBlurOuter1"></feColorMatrix>
        </filter>
        <circle id="path-3" cx="30" cy="30" r="30"></circle>
        <polygon id="path-4" points="0.00698266457 38.8025918 0.00698266457 0.00218630137 8.75812341 0.00218630137 17.5092642 0.00218630137 17.5092642 38.8025918 0.00698266457 38.8025918"></polygon>
    </defs>
    <g id="Novo-Cadastro---Mobile" stroke="none" stroke-width="1" fill="none" fill-rule="evenodd">
        <g id="Sign-Up---Modalidades" transform="translate(-20.000000, -203.000000)">
            <g id="Group-2" transform="translate(20.000000, 205.000000)">
                <g id="Group-3">
                    <g id="Group">
                        <g id="Mask-Copy-3">
                            <use fill="black" fill-opacity="1" filter="url(#filter-2)" xlink:href="#path-1"></use>
                            <use fill="#FF5D85" fill-rule="evenodd" xlink:href="#path-1"></use>
                            <rect stroke="#FFFFFF" stroke-width="1" x="30.5" y="0.5" width="219" height="99" rx="15"></rect>
                        </g>
                        <text id="GRATUITO" font-family="Avenir-Book, Avenir" font-size="24" font-weight="normal" line-spacing="32" fill-opacity="0.87" fill="#FFFFFF">
                            <tspan x="92" y="33">GRATUITO</tspan>
                        </text>
                        <path d="M67,46 L237,46" id="Line-Copy-7" stroke="#FFFFFF" stroke-linecap="square"></path>
                        <g id="Group-Copy" transform="translate(0.000000, 20.000000)">
                            <g id="Oval-Copy">
                                <use fill="#BF4664" fill-rule="evenodd" xlink:href="#path-3"></use>
                                <circle stroke="#FFFFFF" stroke-width="1" cx="30" cy="30" r="29.5"></circle>
                            </g>
                            <g id="Untitled-1" transform="translate(14.794521, 7.397260)">
                                <path d="M14.5251061,12.5660548 L12.0917639,12.5660548 C11.359166,12.5660548 10.7631955,11.976674 10.7631955,11.2523178 C10.7631955,10.5279616 11.359166,9.93869589 12.0917639,9.93869589 L14.5251061,9.93869589 C15.2575876,9.93869589 15.8537908,10.5279616 15.8537908,11.2523178 C15.8537908,11.976674 15.2575876,12.5660548 14.5251061,12.5660548 Z M23.777253,8.74336438 L11.9702655,8.74336438 C10.5857195,8.74336438 9.46337253,9.83743562 9.46337253,11.187074 L9.46337253,18.9836548 L13.9731264,18.0000493 C14.1836538,17.954137 14.3991854,17.9308932 14.6134368,17.9308932 C15.9922803,17.9308932 17.2090096,18.8980438 17.5063547,20.2308822 C17.6590423,20.916 17.5545351,21.5988164 17.2569572,22.1808329 C17.4072009,22.1578192 17.5590738,22.1456219 17.7104813,22.1456219 C19.0892084,22.1456219 20.3058213,23.1128877 20.6029337,24.4451507 C20.7736598,25.2096658 20.6329591,25.9940877 20.2067839,26.6540055 C19.8792969,27.1609973 19.413204,27.5471671 18.8640175,27.7755781 C19.410411,28.1864877 19.8156383,28.7795507 19.9701879,29.4732986 C20.1407977,30.2378137 20.000097,31.0222356 19.5739217,31.6820384 C19.1477464,32.3419562 18.4871863,32.7980877 17.7142054,32.966663 L15.8256273,33.3784932 C16.3457195,33.7874466 16.7294169,34.3658959 16.8794278,35.0376658 C17.0499212,35.8020658 16.9089878,36.5864877 16.4830452,37.2461753 C16.0568699,37.9059781 15.3963099,38.3621096 14.6232125,38.5306849 L10.1493029,39.5064658 C10.6063183,39.9780164 11.2520984,40.2739726 11.9702655,40.2739726 L23.777253,40.2739726 C25.161799,40.2739726 26.284146,39.1801315 26.284146,37.830263 L26.284146,11.187074 C26.284146,9.83743562 25.161799,8.74336438 23.777253,8.74336438 L23.777253,8.74336438 Z" id="Fill-1" fill="#FFFFFE"></path>
                                <path d="M13.1083234,11.2523178 C13.1083234,11.7026959 12.7390569,12.0676932 12.2835544,12.0676932 C11.8280519,12.0676932 11.4587853,11.7026959 11.4587853,11.2523178 C11.4587853,10.8019397 11.8280519,10.4368274 12.2835544,10.4368274 C12.7390569,10.4368274 13.1083234,10.8019397 13.1083234,11.2523178" id="Fill-2" fill="#FFFFFE"></path>
                                <path d="M14.9571003,11.2523178 C14.9571003,11.5124877 14.7437799,11.7234082 14.4807662,11.7234082 C14.2175197,11.7234082 14.0040829,11.5124877 14.0040829,11.2523178 C14.0040829,10.9920329 14.2175197,10.7811123 14.4807662,10.7811123 C14.7437799,10.7811123 14.9571003,10.9920329 14.9571003,11.2523178" id="Fill-3" fill="#FFFFFE"></path>
                                <path d="M5.69285004,22.8071507 C5.87823979,23.6379452 6.62270821,24.2040822 7.44922294,24.2040822 C7.57758759,24.2040822 7.70804704,24.1905041 7.83862286,24.1619671 L14.9994618,22.6002575 C15.9704013,22.3885315 16.5839447,21.438526 16.3698097,20.4785096 C16.1844199,19.6477151 15.4399515,19.0815781 14.6134368,19.0815781 C14.4850721,19.0815781 14.3546127,19.0952712 14.2239205,19.1236932 L7.06319796,20.6854027 C6.09225846,20.8971288 5.478715,21.8471342 5.69285004,22.8071507" id="Fill-4" fill="#FFFFFE"></path>
                                <path d="M19.4666214,24.6932384 C19.2812317,23.8623288 18.5366469,23.2963068 17.7103649,23.2963068 C17.5818839,23.2963068 17.4515408,23.31 17.3208486,23.338537 L6.78284398,25.6364548 C5.81190447,25.848411 5.19847739,26.7980712 5.41261244,27.7580877 C5.59800218,28.5891123 6.3424706,29.1552493 7.16898533,29.1552493 C7.29746636,29.1552493 7.42792581,29.1415562 7.55850164,29.1130192 L18.0963899,26.8149863 C19.067213,26.6031452 19.6808728,25.6532548 19.4666214,24.6932384" id="Fill-5" fill="#FFFFFE"></path>
                                <path d="M18.8337592,29.7212712 C18.6486023,28.8904767 17.9040175,28.3242247 17.0777355,28.3242247 C16.9492545,28.3242247 16.818795,28.3379178 16.6881028,28.3664548 L6.953221,30.4893534 C5.98216511,30.7011945 5.36873803,31.6510849 5.58287308,32.6112164 C5.76814644,33.442011 6.51284762,34.0081479 7.33936235,34.0081479 C7.467727,34.0081479 7.59807007,33.9944548 7.7286459,33.9660329 L17.4636441,31.8429041 C18.4343508,31.6312932 19.048127,30.6812877 18.8337592,29.7212712" id="Fill-6" fill="#FFFFFE"></path>
                                <g id="Group-10">
                                    <mask id="mask-5" fill="white">
                                        <use xlink:href="#path-4"></use>
                                    </mask>
                                    <g id="Clip-8"></g>
                                    <path d="M15.7428828,35.2854082 C15.557493,34.4544986 14.8130246,33.8882466 13.9866263,33.8883616 C13.8581452,33.8883616 13.7276858,33.9019397 13.5969936,33.9305918 L7.39103406,35.2840274 C6.42021093,35.4956384 5.8065511,36.4457589 6.02068614,37.4056603 C6.20619227,38.2364548 6.95066069,38.8025918 7.77705904,38.8025918 C7.90554007,38.8025918 8.03599952,38.7890137 8.16657534,38.7604767 L14.3725349,37.406926 C15.3435907,37.1954301 15.9570178,36.2455397 15.7428828,35.2854082" id="Fill-7" fill="#FFFFFE" mask="url(#mask-5)"></path>
                                    <path d="M8.2995951,17.1831781 L8.2995951,15.7310137 L6.55404534,17.0595945 L7.88459207,13.3619836 L3.91669293,13.4704932 L7.19132986,11.2523178 L3.91669293,9.03414247 L7.88459207,9.14265205 L6.55404534,5.4450411 L9.69950297,7.8390411 L10.821268,4.07411507 L11.8704134,7.59509589 C11.9036974,7.59429041 11.9367487,7.59267945 11.9702655,7.59267945 L12.2665632,7.59267945 L15.0884907,5.4450411 L14.3157425,7.59267945 L15.5509759,7.59267945 L17.5092642,2.15074521 L12.5793866,5.90266849 L10.821268,0.00218630137 L9.06314947,5.90266849 L4.13338829,2.15074521 L6.21876106,7.94593973 L0,7.77586849 L5.13225846,11.2523178 L0,14.7287671 L6.21876106,14.5586959 L4.13338829,20.3538904 L8.2995951,17.1831781" id="Fill-9" fill="#FFFFFE" mask="url(#mask-5)"></path>
                                </g>
                            </g>
                        </g>
                        <text id="Você-faz-autorretrat" font-family="Avenir-Book, Avenir" font-size="14" font-weight="normal" fill-opacity="0.87" fill="#FFFFFF">
                            <tspan x="83.96" y="66">Você faz autorretratos</tspan>
                            <tspan x="78.353" y="85">pelo celular e nos envia</tspan>
                        </text>
                    </g>
                </g>
            </g>
        </g>
    </g>
</svg>