<?xml version="1.0" encoding="UTF-8" standalone="no"?>
<svg width="254px" height="108px" viewBox="0 0 254 108" version="1.1" xmlns="http://www.w3.org/2000/svg" xmlns:xlink="http://www.w3.org/1999/xlink">
    <!-- Generator: Sketch 46 (44423) - http://www.bohemiancoding.com/sketch -->
    <title>Group Copy 2</title>
    <desc>Created with Sketch.</desc>
    <defs>
        <rect id="path-1" x="30" y="0" width="220" height="100" rx="15"></rect>
        <filter x="-3.2%" y="-5.0%" width="106.4%" height="114.0%" filterUnits="objectBoundingBox" id="filter-2">
            <feOffset dx="0" dy="2" in="SourceAlpha" result="shadowOffsetOuter1"></feOffset>
            <feGaussianBlur stdDeviation="2" in="shadowOffsetOuter1" result="shadowBlurOuter1"></feGaussianBlur>
            <feComposite in="shadowBlurOuter1" in2="SourceAlpha" operator="out" result="shadowBlurOuter1"></feComposite>
            <feColorMatrix values="0 0 0 0 0   0 0 0 0 0   0 0 0 0 0  0 0 0 0.5 0" type="matrix" in="shadowBlurOuter1"></feColorMatrix>
        </filter>
        <circle id="path-3" cx="30" cy="30" r="30"></circle>
        <polygon id="path-4" points="0 27.739726 35.9589041 27.739726 35.9589041 0 0 0"></polygon>
    </defs>
    <g id="Novo-Cadastro---Mobile" stroke="none" stroke-width="1" fill="none" fill-rule="evenodd">
        <g id="Sign-Up---Modalidades" transform="translate(-20.000000, -313.000000)">
            <g id="Group-2" transform="translate(20.000000, 205.000000)">
                <g id="Group-3">
                    <g id="Group-Copy-2" transform="translate(0.000000, 110.000000)">
                        <g id="Mask-Copy-3">
                            <use fill="black" fill-opacity="1" filter="url(#filter-2)" xlink:href="#path-1"></use>
                            <use fill="#CC64E0" fill-rule="evenodd" xlink:href="#path-1"></use>
                            <rect stroke="#FFFFFF" stroke-width="1" x="30.5" y="0.5" width="219" height="99" rx="15"></rect>
                        </g>
                        <text id="PREMIUM" font-family="Avenir-Book, Avenir" font-size="24" font-weight="normal" line-spacing="32" fill-opacity="0.87" fill="#FFFFFF">
                            <tspan x="98" y="33">PREMIUM</tspan>
                        </text>
                        <path d="M67,46 L237,46" id="Line-Copy-7" stroke="#FFFFFF" stroke-linecap="square"></path>
                        <g id="Group-3-Copy-3" transform="translate(0.000000, 20.000000)">
                            <g id="Oval">
                                <use fill="#9248A0" fill-rule="evenodd" xlink:href="#path-3"></use>
                                <circle stroke="#FFFFFF" stroke-width="1" cx="30" cy="30" r="29.5"></circle>
                            </g>
                            <g id="Page-1" transform="translate(11.506849, 13.972603)">
                                <path d="M21.906,16.7866849 C21.906,18.955726 20.1479178,20.7129863 17.9796986,20.7129863 C15.8106575,20.7129863 14.0525753,18.955726 14.0525753,16.7866849 C14.0525753,14.6176438 15.8106575,12.8603836 17.9796986,12.8603836 C20.1479178,12.8603836 21.906,14.6176438 21.906,16.7866849 Z" id="Fill-1" fill="#FEFEFE"></path>
                                <mask id="mask-5" fill="white">
                                    <use xlink:href="#path-4"></use>
                                </mask>
                                <g id="Clip-4"></g>
                                <path d="M28.9306849,10.2739726 L31.6019178,10.2739726 L31.6019178,8.42465753 L28.9306849,8.42465753 L28.9306849,10.2739726 Z M17.9794521,24.2868493 C13.8369863,24.2868493 10.4794521,20.9293151 10.4794521,16.7868493 C10.4794521,12.6452055 13.8369863,9.28684932 17.9794521,9.28684932 C22.1219178,9.28684932 25.4794521,12.6452055 25.4794521,16.7868493 C25.4794521,20.9293151 22.1219178,24.2868493 17.9794521,24.2868493 L17.9794521,24.2868493 Z M30.2054795,4.7260274 L26.4106849,4.7260274 C25.9249315,2.03917808 23.5791781,0 20.7534247,0 L15.2054795,0 C12.379726,0 10.0339726,2.03917808 9.54821918,4.7260274 L5.75342466,4.7260274 C2.57589041,4.7260274 0,7.30191781 0,10.4794521 L0,21.9863014 C0,25.1638356 2.57589041,27.739726 5.75342466,27.739726 L30.2054795,27.739726 C33.3830137,27.739726 35.9589041,25.1638356 35.9589041,21.9863014 L35.9589041,10.4794521 C35.9589041,7.30191781 33.3830137,4.7260274 30.2054795,4.7260274 L30.2054795,4.7260274 Z" id="Fill-3" fill="#FEFEFE" mask="url(#mask-5)"></path>
                            </g>
                        </g>
                        <text id="Nós-fazemos-suas-fot" font-family="Avenir-Book, Avenir" font-size="14" font-weight="normal" fill-opacity="0.87" fill="#FFFFFF">
                            <tspan x="68.623" y="66">Nós fazemos suas fotos de </tspan>
                            <tspan x="88.482" y="85">cadastro em estúdio</tspan>
                        </text>
                    </g>
                </g>
            </g>
        </g>
    </g>
</svg>