<?xml version="1.0" encoding="UTF-8" standalone="no"?>
<svg width="30px" height="29px" viewBox="0 0 30 29" version="1.1" xmlns="http://www.w3.org/2000/svg" xmlns:xlink="http://www.w3.org/1999/xlink">
    <!-- Generator: Sketch 46.1 (44463) - http://www.bohemiancoding.com/sketch -->
    <title>Page 1</title>
    <desc>Created with Sketch.</desc>
    <defs>
        <polygon id="path-1" points="0.0939658529 20.3165217 24.604749 20.3165217 24.604749 0.0831255652 0.0939658529 0.0831255652"></polygon>
        <polygon id="path-3" points="0 28.5999235 29.9329344 28.5999235 29.9329344 0 0 0"></polygon>
    </defs>
    <g id="Login" stroke="none" stroke-width="1" fill="none" fill-rule="evenodd">
        <g id="Login-Copy-4" transform="translate(-31.000000, -340.000000)">
            <g id="Page-1" transform="translate(31.000000, 340.000000)">
                <g id="Group-3" transform="translate(5.328185, 8.283402)">
                    <mask id="mask-2" fill="white">
                        <use xlink:href="#path-1"></use>
                    </mask>
                    <g id="Clip-2"></g>
                    <path d="M23.490834,0.649577739 L21.3723012,0.0831255652 L21.0123012,2.24562991 L22.16261,2.5532473 L19.0686718,13.9174143 L18.8806795,15.0466456 C18.8349266,15.3213203 18.7223398,15.5685621 18.5628417,15.7754003 L18.557166,15.7962908 L18.5485946,15.7939951 C18.1868571,16.2497969 17.592417,16.5016299 16.9742317,16.4006212 L0.213150579,13.6600717 L0.146316602,13.9053621 C-0.0702857143,14.7011499 0.404965251,15.5202386 1.20789961,15.7347673 L18.1502548,20.264663 C18.9530734,20.4794212 19.7797529,20.0083534 19.9962394,19.2127951 L24.552417,2.47898296 C24.7690193,1.68319513 24.2937683,0.864221217 23.490834,0.649577739" id="Fill-1" fill="#FFFFFF" mask="url(#mask-2)"></path>
                </g>
                <path d="M24.9315869,3.47867061 L21.6022819,2.9342567 L21.6022819,5.14462539 L23.8018958,5.5042393 L21.6022819,18.7143402 L21.6022819,19.7031923 C21.6022819,20.6108932 20.8598108,21.3466497 19.9437104,21.3466497 L8.27695367,21.3466497 L21.5938263,23.5241906 C22.4143668,23.6583715 23.1892703,23.1078741 23.3246757,22.2947541 L26.1721274,5.19375235 C26.3075328,4.38063235 25.7521274,3.61285148 24.9315869,3.47867061" id="Fill-4" fill="#FFFFFF"></path>
                <mask id="mask-4" fill="white">
                    <use xlink:href="#path-3"></use>
                </mask>
                <g id="Clip-7"></g>
                <path d="M2.28764479,15.8973913 L18.2722008,15.8973913 L18.2722008,2.18086957 L2.28764479,2.18086957 L2.28764479,15.8973913 Z M19.0540541,0 L1.50579151,0 C0.674131274,0 0,0.668034783 0,1.49217391 L0,18.8243478 C0,19.648487 0.674131274,20.3165217 1.50579151,20.3165217 L19.0540541,20.3165217 C19.8855985,20.3165217 20.5598456,19.648487 20.5598456,18.8243478 L20.5598456,1.49217391 C20.5598456,0.668034783 19.8855985,0 19.0540541,0 L19.0540541,0 Z" id="Fill-6" fill="#FFFFFF" mask="url(#mask-4)"></path>
                <path d="M13.3043977,11.5356522 C12.2619266,11.0191304 11.7986062,11.0765217 11.624861,10.7321739 C11.4511158,10.3878261 11.4511158,10.1008696 11.4511158,10.1008696 C11.4511158,10.1008696 12.7252471,8.55130435 12.7252471,7.05913043 C12.7252471,5.56695652 11.6827761,4.41913043 10.2928147,4.41913043 C10.288529,4.41913043 10.2842432,4.41947478 10.2799575,4.41947478 C10.2756718,4.41947478 10.2712703,4.41913043 10.2669846,4.41913043 C8.87702317,4.41913043 7.83455212,5.56695652 7.83455212,7.05913043 C7.83455212,8.55130435 9.1086834,10.1008696 9.1086834,10.1008696 C9.1086834,10.1008696 9.1086834,10.3878261 8.93493822,10.7321739 C8.76119305,11.0765217 8.29787259,11.0191304 7.25540154,11.5356522 C6.2129305,12.0521739 5.69169498,13.1426087 5.69169498,13.1426087 L5.69169498,14.6347826 L10.2799575,14.6347826 L14.8681042,14.6347826 L14.8681042,13.1426087 C14.8681042,13.1426087 14.3468687,12.0521739 13.3043977,11.5356522" id="Fill-8" fill="#FFFFFF" mask="url(#mask-4)"></path>
            </g>
        </g>
    </g>
</svg>