
<svg width="73px" height="73px" viewBox="0 0 73 73" version="1.1" xmlns="http://www.w3.org/2000/svg" xmlns:xlink="http://www.w3.org/1999/xlink">
    <!-- Generator: Sketch 43.2 (39069) - http://www.bohemiancoding.com/sketch -->
    <desc>Created with Sketch.</desc>
    <defs>
        <circle id="path-1" cx="36.5" cy="36.5" r="36.5"></circle>
        <polygon id="path-2" points="0.00849557522 47.20982 0.00849557522 0.00266 10.6557168 0.00266 21.3029381 0.00266 21.3029381 47.20982 0.00849557522 47.20982"></polygon>
    </defs>
    <g id="Modalidades-de-Cadastro" stroke="none" stroke-width="1" fill="none" fill-rule="evenodd">
        <g id="Modal-Renovar-Premium-Copy" transform="translate(-246.000000, -232.000000)">
            <g id="Group-2" transform="translate(246.000000, 232.000000)">
                <g id="Group-3-Copy-3">
                    <g id="Oval">
                        <use fill="#BF4664" fill-rule="evenodd" xlink:href="#path-1"></use>
                        <circle stroke="#FFFFFF" stroke-width="1" cx="36.5" cy="36.5" r="36"></circle>
                    </g>
                </g>
                <g id="Untitled-1" transform="translate(16.000000, 9.000000)">
                    <path d="M17.6722124,15.2887 L14.711646,15.2887 C13.8203186,15.2887 13.0952212,14.57162 13.0952212,13.69032 C13.0952212,12.80902 13.8203186,12.09208 14.711646,12.09208 L17.6722124,12.09208 C18.5633982,12.09208 19.2887788,12.80902 19.2887788,13.69032 C19.2887788,14.57162 18.5633982,15.2887 17.6722124,15.2887 Z M28.9289912,10.63776 L14.563823,10.63776 C12.879292,10.63776 11.5137699,11.96888 11.5137699,13.61094 L11.5137699,23.09678 L17.0006372,21.90006 C17.2567788,21.8442 17.5190088,21.81592 17.7796814,21.81592 C19.4572743,21.81592 20.9376283,22.99262 21.2993982,24.61424 C21.4851681,25.4478 21.3580177,26.27856 20.9959646,26.98668 C21.1787611,26.95868 21.3635398,26.94384 21.5477522,26.94384 C23.2252035,26.94384 24.7054159,28.12068 25.0669027,29.7416 C25.2746195,30.67176 25.1034336,31.62614 24.5849204,32.42904 C24.1864779,33.04588 23.6193982,33.51572 22.9512212,33.79362 C23.616,34.29356 24.1090265,35.01512 24.2970619,35.85918 C24.5046372,36.78934 24.3334513,37.74372 23.8149381,38.54648 C23.2964248,39.34938 22.4927434,39.90434 21.5522832,40.10944 L19.2545133,40.6105 C19.887292,41.10806 20.3541239,41.81184 20.5366372,42.62916 C20.7440708,43.55918 20.5726018,44.51356 20.0543717,45.31618 C19.5358584,46.11894 18.732177,46.6739 17.7915752,46.879 L12.3483186,48.0662 C12.904354,48.63992 13.6900531,49 14.563823,49 L28.9289912,49 C30.6135221,49 31.9790442,47.66916 31.9790442,46.02682 L31.9790442,13.61094 C31.9790442,11.96888 30.6135221,10.63776 28.9289912,10.63776 L28.9289912,10.63776 Z" id="Fill-1" fill="#FFFFFF"></path>
                    <path d="M15.9484602,13.69032 C15.9484602,14.23828 15.4991858,14.68236 14.9449912,14.68236 C14.3907965,14.68236 13.9415221,14.23828 13.9415221,13.69032 C13.9415221,13.14236 14.3907965,12.69814 14.9449912,12.69814 C15.4991858,12.69814 15.9484602,13.14236 15.9484602,13.69032" id="Fill-2" fill="#FFFFFF"></path>
                    <path d="M18.1978053,13.69032 C18.1978053,14.00686 17.9382655,14.26348 17.6182655,14.26348 C17.2979823,14.26348 17.0383009,14.00686 17.0383009,13.69032 C17.0383009,13.37364 17.2979823,13.11702 17.6182655,13.11702 C17.9382655,13.11702 18.1978053,13.37364 18.1978053,13.69032" id="Fill-3" fill="#FFFFFF"></path>
                    <path d="M6.92630088,27.7487 C7.15185841,28.7595 8.05762832,29.4483 9.06322124,29.4483 C9.21939823,29.4483 9.37812389,29.43178 9.53699115,29.39706 L18.2493451,27.49698 C19.4306549,27.23938 20.1771327,26.08354 19.9166018,24.91552 C19.6910442,23.90472 18.7852743,23.21592 17.7796814,23.21592 C17.6235044,23.21592 17.4647788,23.23258 17.3057699,23.26716 L8.59355752,25.16724 C7.41224779,25.42484 6.66576991,26.58068 6.92630088,27.7487" id="Fill-4" fill="#FFFFFF"></path>
                    <path d="M23.6843894,30.04344 C23.4588319,29.0325 22.5529204,28.34384 21.5476106,28.34384 C21.391292,28.34384 21.232708,28.3605 21.0736991,28.39522 L8.25246018,31.19102 C7.07115044,31.4489 6.32481416,32.60432 6.58534513,33.77234 C6.81090265,34.78342 7.71667257,35.47222 8.72226549,35.47222 C8.87858407,35.47222 9.03730973,35.45556 9.19617699,35.42084 L22.0172743,32.6249 C23.1984425,32.36716 23.9450619,31.21146 23.6843894,30.04344" id="Fill-5" fill="#FFFFFF"></path>
                    <path d="M22.9144071,36.16088 C22.6891327,35.15008 21.7832212,34.46114 20.7779115,34.46114 C20.6215929,34.46114 20.4628673,34.4778 20.3038584,34.51252 L8.45975221,37.09538 C7.27830088,37.35312 6.5319646,38.50882 6.79249558,39.67698 C7.0179115,40.68778 7.9239646,41.37658 8.92955752,41.37658 C9.08573451,41.37658 9.24431858,41.35992 9.40318584,41.32534 L21.2474336,38.7422 C22.4284602,38.48474 23.1752212,37.3289 22.9144071,36.16088" id="Fill-6" fill="#FFFFFF"></path>
                    <g id="Group-10">
                        <mask id="mask-3" fill="white">
                            <use xlink:href="#path-2"></use>
                        </mask>
                        <g id="Clip-8"></g>
                        <path d="M19.1538407,42.93058 C18.9282832,41.91964 18.0225133,41.2307 17.0170619,41.23084 C16.8607434,41.23084 16.7020177,41.24736 16.5430088,41.28222 L8.99242478,42.9289 C7.81125664,43.18636 7.06463717,44.34234 7.32516814,45.51022 C7.55086726,46.52102 8.45663717,47.20982 9.4620885,47.20982 C9.61840708,47.20982 9.77713274,47.1933 9.936,47.15858 L17.4865841,45.51176 C18.6680354,45.25444 19.4143717,44.09874 19.1538407,42.93058" id="Fill-7" fill="#FFFFFF" mask="url(#mask-3)"></path>
                        <path d="M10.0978407,20.9062 L10.0978407,19.1394 L7.9740885,20.75584 L9.59292035,16.25708 L4.76530973,16.3891 L8.74945133,13.69032 L4.76530973,10.99154 L9.59292035,11.12356 L7.9740885,6.6248 L11.8010619,9.5375 L13.1658761,4.95684 L14.4423363,9.2407 C14.4828319,9.23972 14.5230442,9.23776 14.563823,9.23776 L14.9243186,9.23776 L18.3576637,6.6248 L17.4174867,9.23776 L18.920354,9.23776 L21.3029381,2.61674 L15.3049204,7.18158 L13.1658761,0.00266 L11.0268319,7.18158 L5.02895575,2.61674 L7.56615929,9.66756 L0,9.46064 L6.24424779,13.69032 L0,17.92 L7.56615929,17.71308 L5.02895575,24.7639 L10.0978407,20.9062" id="Fill-9" fill="#FFFFFF" mask="url(#mask-3)"></path>
                    </g>
                </g>
            </g>
        </g>
    </g>
</svg>