<?xml version="1.0" encoding="utf-8"?>
<!-- Generator: Adobe Illustrator 16.0.0, SVG Export Plug-In . SVG Version: 6.00 Build 0)  -->
<!DOCTYPE svg PUBLIC "-//W3C//DTD SVG 1.1//EN" "http://www.w3.org/Graphics/SVG/1.1/DTD/svg11.dtd">
<svg version="1.1" id="Logo" xmlns="http://www.w3.org/2000/svg" xmlns:xlink="http://www.w3.org/1999/xlink" x="0px" y="0px"
	 width="30px" height="30px" viewBox="0 0 30 30" enable-background="new 0 0 30 30" xml:space="preserve">
<g>
	<path fill="#FFFFFF" d="M15,2.703c4.005,0,4.479,0.015,6.062,0.087c1.462,0.066,2.256,0.312,2.785,0.518
		c0.7,0.271,1.2,0.596,1.725,1.121c0.525,0.524,0.851,1.024,1.121,1.725c0.206,0.529,0.451,1.323,0.518,2.785
		c0.072,1.582,0.087,2.057,0.087,6.062s-0.015,4.479-0.087,6.062c-0.066,1.462-0.312,2.256-0.518,2.785
		c-0.271,0.7-0.596,1.2-1.121,1.725c-0.524,0.525-1.024,0.851-1.725,1.121c-0.529,0.206-1.323,0.451-2.785,0.518
		c-1.582,0.072-2.057,0.087-6.062,0.087s-4.479-0.015-6.062-0.087c-1.462-0.066-2.256-0.312-2.785-0.518
		c-0.7-0.271-1.2-0.596-1.725-1.121c-0.525-0.524-0.851-1.024-1.121-1.725c-0.206-0.529-0.451-1.323-0.518-2.785
		C2.718,19.479,2.703,19.005,2.703,15s0.015-4.479,0.087-6.062c0.066-1.462,0.312-2.256,0.518-2.785
		c0.271-0.7,0.596-1.2,1.121-1.725c0.524-0.525,1.024-0.851,1.725-1.121C6.683,3.102,7.477,2.856,8.938,2.79
		C10.521,2.718,10.995,2.703,15,2.703 M15,0c-4.074,0-4.585,0.018-6.185,0.09C7.219,0.163,6.129,0.417,5.175,0.788
		C4.188,1.171,3.352,1.684,2.517,2.517C1.684,3.352,1.171,4.188,0.788,5.175C0.417,6.129,0.163,7.219,0.09,8.815
		C0.018,10.415,0,10.926,0,15s0.018,4.585,0.09,6.185c0.073,1.597,0.327,2.687,0.698,3.641c0.383,0.987,0.896,1.823,1.729,2.658
		c0.835,0.833,1.671,1.346,2.658,1.729c0.954,0.371,2.044,0.625,3.641,0.698C10.415,29.982,10.926,30,15,30s4.585-0.018,6.185-0.09
		c1.597-0.073,2.687-0.327,3.641-0.698c0.987-0.383,1.823-0.896,2.658-1.729c0.833-0.835,1.346-1.671,1.729-2.658
		c0.371-0.954,0.625-2.044,0.698-3.641C29.982,19.585,30,19.074,30,15s-0.018-4.585-0.09-6.185
		c-0.073-1.597-0.327-2.687-0.698-3.641c-0.383-0.987-0.896-1.823-1.729-2.658c-0.835-0.833-1.671-1.346-2.658-1.729
		c-0.954-0.371-2.044-0.625-3.641-0.698C19.585,0.018,19.074,0,15,0L15,0z"/>
	<path fill="#FFFFFF" d="M15,7.297c-4.254,0-7.703,3.449-7.703,7.703s3.449,7.703,7.703,7.703s7.703-3.449,7.703-7.703
		S19.254,7.297,15,7.297z M15,20c-2.762,0-5-2.238-5-5s2.238-5,5-5s5,2.238,5,5S17.762,20,15,20z"/>
	<circle fill="#FFFFFF" cx="23.007" cy="6.993" r="1.8"/>
</g>
</svg>
