<?xml version="1.0" encoding="UTF-8" standalone="no"?>
<svg width="47px" height="48px" viewBox="0 0 47 48" version="1.1" xmlns="http://www.w3.org/2000/svg" xmlns:xlink="http://www.w3.org/1999/xlink">
    <!-- Generator: Sketch 41.2 (35397) - http://www.bohemiancoding.com/sketch -->
    <title>Perfil - Scroll Agenciado</title>
    <desc>Created with Sketch.</desc>
    <defs>
        <polygon id="path-1" points="0.000364864865 43.7843919 45.0012162 43.7843919 45.0012162 0.000608108108 0.000364864865 0.000608108108"></polygon>
    </defs>
    <g id="Perfil---Mobile-(iPhone-4)" stroke="none" stroke-width="1" fill="none" fill-rule="evenodd" opacity="0.3">
        <g id="Perfil---Scroll-Agenciado" transform="translate(-160.000000, -687.000000)">
            <g id="Group-18" transform="translate(20.000000, 421.000000)">
                <g id="Group-18-Copy">
                    <g id="Group-16" transform="translate(21.000000, 269.000000)">
                        <g id="Page-1" transform="translate(120.000000, 0.000000)">
                            <mask id="mask-2" fill="white">
                                <use xlink:href="#path-1"></use>
                            </mask>
                            <g id="Clip-2"></g>
                            <path d="M33.6846892,16.1570676 C33.6956351,16.4051757 33.7017162,16.6532838 33.7017162,16.9026081 C33.7017162,24.5282838 27.8967162,33.321527 17.2840135,33.321527 C14.0233378,33.321527 10.9913108,32.3655811 8.43725676,30.7297703 C8.88847297,30.7820676 9.3482027,30.8088243 9.81401351,30.8088243 C12.5176622,30.8088243 15.0060405,29.8869324 16.9811757,28.3386892 C14.4550946,28.292473 12.3255,26.6238243 11.5896892,24.3312568 C11.9411757,24.3981486 12.3036081,24.4358514 12.6757703,24.4358514 C13.2011757,24.4358514 13.7119865,24.3640946 14.1960405,24.2327432 C11.5568514,23.7036892 9.56590541,21.3697703 9.56590541,18.5749054 C9.56590541,18.5493649 9.56590541,18.5262568 9.56833784,18.5019324 C10.3467162,18.9336892 11.2345541,19.1951757 12.1807703,19.2231486 C10.632527,18.1893649 9.61333784,16.4222027 9.61333784,14.4203108 C9.61333784,13.3634189 9.89914865,12.3734189 10.3953649,11.5196351 C13.2400946,15.0126081 17.4932027,17.3076081 22.2887432,17.5496351 C22.1902297,17.1263919 22.1391486,16.6861216 22.1391486,16.2336892 C22.1391486,13.0472027 24.7236081,10.4627432 27.9100946,10.4627432 C29.5702297,10.4627432 31.0698243,11.1657162 32.1230676,12.2858514 C33.4365811,12.0280135 34.6722568,11.5463919 35.787527,10.8859865 C35.3557703,12.2335541 34.4411757,13.3634189 33.2505,14.0785541 C34.4168514,13.9386892 35.5296892,13.6285541 36.5622568,13.1688243 C35.7899595,14.3266622 34.8121216,15.3434189 33.6846892,16.1570676 M38.9071216,-0.000364864865 L6.09239189,-0.000364864865 C2.71252703,-0.000364864865 0.000364864865,2.72639189 0.000364864865,6.08801351 L0.000364864865,37.6962568 C0.000364864865,41.0627432 2.72712162,43.7846351 6.09239189,43.7846351 L38.9071216,43.7846351 C42.2869865,43.7846351 45.0015811,41.0590946 45.0015811,37.6962568 L45.0015811,6.08801351 C45.0015811,2.72274324 42.2736081,-0.000364864865 38.9071216,-0.000364864865" id="Fill-1" fill="#FEFEFE" mask="url(#mask-2)"></path>
                        </g>
                    </g>
                </g>
            </g>
        </g>
    </g>
</svg>