<?xml version="1.0" encoding="UTF-8" standalone="no"?>
<svg width="129px" height="23px" viewBox="0 0 129 23" version="1.1" xmlns="http://www.w3.org/2000/svg" xmlns:xlink="http://www.w3.org/1999/xlink">
    <!-- Generator: Sketch 46 (44423) - http://www.bohemiancoding.com/sketch -->
    <title>MAGNETO MARCA</title>
    <desc>Created with Sketch.</desc>
    <defs>
        <polygon id="path-1" points="0.657236445 5.75972222 5.05433163 5.75972222 5.05433163 0.616434271 0.657236445 0.616434271 0.657236445 5.75972222"></polygon>
    </defs>
    <g id="Novo-Cadastro---Mobile" stroke="none" stroke-width="1" fill="none" fill-rule="evenodd">
        <g id="Sign-Up---Confirmado" transform="translate(-95.000000, -77.000000)">
            <g id="MAGNETO-MARCA" transform="translate(95.000000, 77.000000)">
                <polygon id="Fill-1" fill="#FFFFFF" points="40.0180069 4.80987203 38.3870922 2.54846109 38.8132644 4.80987203"></polygon>
                <polygon id="Fill-2" fill="#FFFFFF" points="27.6443992 12.3775711 32.4705316 10.2507936 28.4924462 8.5905537"></polygon>
                <polygon id="Fill-3" fill="#FFFFFF" points="24.3499084 15.8722825 27.508597 12.7152348 21.866649 14.9010494"></polygon>
                <polygon id="Fill-4" fill="#FFFFFF" points="37.2943005 12.7199865 39.4094043 14.0699214 39.3127097 12.2023315"></polygon>
                <polygon id="Fill-5" fill="#FFFFFF" points="31.4649083 7.33255837 34.5856354 2.99188771 29.9263906 3.54914083"></polygon>
                <polygon id="Fill-6" fill="#FFFFFF" points="16.8963342 14.9009774 18.9111622 11.7468095 9.9028113 14.9009774"></polygon>
                <polygon id="Fill-7" fill="#FFFFFF" points="14.0145501 8.74297035 5.80983839 12.3773551 18.2418926 11.1044565"></polygon>
                <polygon id="Fill-8" fill="#FFFFFF" points="26.6413544 6.31654337 20.1305879 4.80965604 23.1345653 9.24248226"></polygon>
                <polygon id="Fill-10" fill="#FFFFFF" points="27.2569047 6.46492821 29.9263906 3.54906884 29.7509079 1.81467248"></polygon>
                <polygon id="Fill-11" fill="#FFFFFF" points="38.3868773 2.54867708 34.585707 2.99217569 38.8137658 4.81008802"></polygon>
                <polygon id="Fill-12" fill="#FFFFFF" points="39.3129246 11.3676038 40.2197046 8.95572009 38.3266402 10.5050854"></polygon>
                <polygon id="Fill-13" fill="#FFFFFF" points="31.0928134 14.2720877 33.0188256 10.5052294 26.6384177 14.9013373"></polygon>
                <polygon id="Fill-14" fill="#FFFFFF" points="17.9203653 14.9009774 21.3884766 15.530947 19.5849441 12.3774991"></polygon>
                <polygon id="Fill-15" fill="#FFFFFF" points="19.8019697 6.67652601 15.5015691 8.59379354 22.2709039 9.85589267"></polygon>
                <polygon id="Fill-16" fill="#FFFFFF" points="39.3129246 11.3676038 36.8060288 11.5425553 39.3129246 12.2020435"></polygon>
                <polygon id="Fill-17" fill="#FFFFFF" points="38.6232417 6.70222877 40.2290876 8.96651957 39.9354226 6.07153918 38.0595483 6.07153918 37.3196559 5.23205967 33.7691753 6.32496696 36.9966245 7.96288797"></polygon>
                <polygon id="Fill-18" fill="#FFFFFF" points="34.585707 2.9919597 38.3868773 2.54846109 36.1650514 1.05165328"></polygon>
                <polygon id="Fill-19" fill="#FFFFFF" points="29.4560253 4.82355137 28.5062699 7.78692845 30.5683708 7.36574877"></polygon>
                <polygon id="Fill-20" fill="#FFFFFF" points="27.1254001 11.8098064 27.928323 6.88884377 22.6710045 10.6809009"></polygon>
                <polygon id="Fill-21" fill="#FFFFFF" points="28.4306333 2.28783366 21.8668639 4.76739408 26.1543719 5.45424095"></polygon>
                <polygon id="Fill-22" fill="#FFFFFF" points="29.7509795 1.81460049 34.585707 2.99174372 36.1650514 1.05143729"></polygon>
                <polygon id="Fill-23" fill="#FFFFFF" points="38.7939255 14.5659775 37.3220196 15.8669548 39.307481 15.3608192 39.4091894 14.0699214 38.3004252 13.3607556"></polygon>
                <polygon id="Fill-24" fill="#FFFFFF" points="21.6121633 13.9095852 26.6409962 12.3774991 19.128904 10.5048694"></polygon>
                <polygon id="Fill-25" fill="#FFFFFF" points="0 14.2698558 8.68317069 14.9012653 14.9181786 12.005565"></polygon>
                <g id="Group-54" transform="translate(44.407868, 0.570212)">
                    <path d="M24.0015931,4.70050931 C22.2238459,4.70050931 21.5634579,5.86253326 21.2526028,7.66964611 L20.9854394,9.26796903 C20.9016374,9.72514698 20.8608108,10.118968 20.8608108,10.4724709 C20.8608108,11.6157758 21.3364048,12.2392657 22.6808172,12.2392657 C23.4221421,12.2392657 24.2687566,12.1759088 24.68132,12.0923928 L25.9419304,4.84306243 C25.5694773,4.76170635 24.7443505,4.70050931 24.0015931,4.70050931 M28.8964862,3.55648448 L27.1824857,13.3804107 C27.1208877,13.6928756 27.0177468,13.8174296 26.519949,13.9398237 C25.1784016,14.2746076 23.6083686,14.4805176 22.2854439,14.4805176 C19.4777206,14.4805176 18.1526471,12.7993987 18.1526471,10.4515919 C18.1526471,10.0786499 18.1949062,9.68482892 18.2572205,9.26796903 L18.5258165,7.66964611 C19.1246064,4.07629941 21.0663763,2.4570975 24.3933851,2.4570975 C25.7170261,2.4570975 27.2233123,2.6644475 28.4430962,2.99635149 C28.8155492,3.10002649 28.9172576,3.20226156 28.9172576,3.3923324 C28.9172576,3.43121052 28.9172576,3.4938475 28.8964862,3.55648448" id="Fill-26" fill="#FFFFFF"></path>
                    <path d="M52.3804411,6.89942726 L51.1606572,13.8766108 C51.1212632,14.1069997 50.9128327,14.3143497 50.6879283,14.3143497 L48.7432935,14.3143497 C48.5362955,14.3143497 48.4338709,14.1473177 48.4338709,13.9608467 L48.4338709,13.8766108 L49.6944813,6.69423715 C49.7367405,6.42425017 49.7768508,6.17154236 49.7768508,5.92387431 C49.7768508,5.26078628 49.5082548,4.74097135 48.4940364,4.74097135 L47.3401481,4.74097135 C46.1397031,4.74097135 45.8517683,5.26078628 45.6039437,6.69423715 L44.3404682,13.8766108 C44.3017904,14.1069997 44.096225,14.3143497 43.8677393,14.3143497 L41.924537,14.3143497 C41.7189715,14.3143497 41.6172632,14.1473177 41.6172632,13.9608467 L41.6172632,13.8766108 L42.8757249,6.69423715 C43.435837,3.53718941 44.6119292,2.45724149 47.7527115,2.45724149 L48.8270954,2.45724149 C51.1828612,2.45724149 52.4628105,3.97204844 52.4628105,5.98651128 C52.4628105,6.27521736 52.4420391,6.58984219 52.3804411,6.89942726" id="Fill-28" fill="#FFFFFF"></path>
                    <path d="M59.9486878,4.82283141 C58.2962854,4.82283141 57.5327565,5.94525727 57.2627281,7.46078418 L61.6440656,7.46078418 C61.6834597,7.19223714 61.726435,6.94096925 61.726435,6.67170224 C61.726435,5.46720033 61.0861022,4.82283141 59.9486878,4.82283141 M64.3063889,7.89780311 L64.1423663,8.89279512 C64.0814845,9.22685901 63.9368008,9.41261005 63.6474335,9.41261005 L56.9117626,9.41261005 C56.8709361,9.70347602 56.8107706,9.97490293 56.8107706,10.2657689 C56.8107706,11.3860349 57.3873566,12.1333588 58.9151305,12.1333588 C60.4242817,12.1333588 61.8481985,11.9908057 62.7370722,11.9051298 L62.8194416,11.9051298 C62.9870455,11.9051298 63.1310129,11.9461679 63.1310129,12.1333588 L63.1310129,12.2190347 L62.8824721,13.5869687 C62.8194416,13.9210326 62.7578436,14.0657456 62.3674841,14.1276627 C60.9822451,14.3782106 60.0718838,14.4811656 58.2139159,14.4811656 C56.3745707,14.4811656 54.1434335,13.4422557 54.1434335,10.304647 C54.1434335,9.93170502 54.1642049,9.49684599 54.2465743,9.06270693 L54.4743437,7.77324911 C55.1562194,3.88975641 57.20113,2.4570255 60.3626837,2.4570255 C63.108809,2.4570255 64.4123948,4.28357741 64.4123948,6.71418019 C64.4123948,7.0871222 64.3708519,7.50254217 64.3063889,7.89780311" id="Fill-30" fill="#FFFFFF"></path>
                    <path d="M73.4862115,3.01557457 L73.280646,4.2423954 C73.2383869,4.47062439 73.01205,4.65637543 72.7842807,4.65637543 L69.8727003,4.65637543 L68.6951755,11.3664518 C68.6736878,11.5097249 68.6529164,11.6342789 68.6529164,11.7386739 C68.6529164,12.2390497 68.9637715,12.3420048 69.7888983,12.3420048 L71.4212456,12.3420048 C71.6074722,12.3420048 71.7951312,12.4039218 71.7951312,12.5911128 L71.7951312,12.6530298 L71.5666456,13.9403277 C71.5251027,14.1469577 71.3782703,14.2743916 71.1111068,14.3139897 C70.5961188,14.3975056 69.5410738,14.4810216 68.6736878,14.4810216 C67.1015061,14.4810216 65.8845872,13.7963346 65.8845872,12.0921768 C65.8845872,11.8639478 65.9053587,11.6342789 65.9476178,11.3664518 L67.7855305,0.898156684 C67.8277896,0.667767795 68.0319225,0.52521467 68.2611244,0.482736719 L70.2437209,0.15011276 L70.3081839,0.15011276 C70.4922617,0.15011276 70.5961188,0.31786467 70.5961188,0.504335677 L70.5961188,0.567692622 L70.2236657,2.60159453 L73.1366786,2.60159453 C73.342244,2.60159453 73.4862115,2.76862648 73.4862115,2.95509748 L73.4862115,2.99685547 L73.4862115,3.01557457 Z" id="Fill-32" fill="#FFFFFF"></path>
                    <path d="M79.6275331,4.82283141 C78.3669227,4.82283141 77.2925388,5.57015536 76.9222344,7.6263762 L76.6128119,9.31037498 C76.5512139,9.64155901 76.5290099,9.95474391 76.5290099,10.223291 C76.5290099,11.4501118 77.1263674,12.1131998 78.3461512,12.1131998 C79.7937045,12.1131998 80.6825781,11.2406019 81.032111,9.31037498 L81.3429661,7.6263762 C81.4038478,7.29519217 81.4253355,6.98272724 81.4253355,6.71418019 C81.4253355,5.48735936 80.8458844,4.82283141 79.6275331,4.82283141 M84.0690361,7.6263762 L83.7603298,9.31037498 C83.1192808,12.7359698 81.1760784,14.4811656 77.9335878,14.4811656 C75.1229995,14.4811656 73.8022236,12.4861418 73.8022236,10.304647 C73.8022236,9.97490293 73.8222788,9.64155901 73.884593,9.31037498 L74.1940156,7.6263762 C74.8544036,4.01359043 76.7976059,2.4570255 80.0400965,2.4570255 C82.8714562,2.4570255 84.1728933,4.36637342 84.1728933,6.54714825 C84.1728933,6.89921127 84.1306342,7.27431318 84.0690361,7.6263762" id="Fill-34" fill="#FFFFFF"></path>
                    <path d="M40.1565308,2.71498906 C39.0950395,2.58179549 37.6424725,2.45724149 36.3216966,2.45724149 C32.995404,2.45724149 31.1166647,3.78557743 30.4548442,7.6697901 L30.1848157,9.26811302 C30.1024463,9.72529097 30.0816749,10.1421509 30.0816749,10.5366918 C30.0816749,13.3387967 31.9618467,14.4597826 34.3577228,14.4597826 C34.5382193,14.4597826 34.7566773,14.4482632 34.9815817,14.4288241 C36.1125498,14.3654672 37.3402125,14.181876 38.4203264,13.914049 C38.9181243,13.7902149 39.0234139,13.663501 39.0835794,13.353196 C39.0835794,13.353196 39.8012679,9.32643021 39.8012679,9.11620035 C39.8012679,8.94196875 39.6838019,8.80373542 39.4889803,8.80373542 L37.736302,8.80373542 C37.520709,8.80373542 37.3251711,8.97940694 37.2872096,9.19611649 L36.7994393,12.0406993 C36.7134886,12.0536587 36.5666561,12.0774175 36.5516147,12.0774175 C35.9542573,12.1609335 35.0868713,12.2394097 34.6055473,12.2394097 C33.2231734,12.2394097 32.7676346,11.6778368 32.7676346,10.57485 C32.7676346,10.202628 32.8278001,9.76488906 32.9116021,9.26811302 L33.180198,7.6697901 C33.5089595,5.67548628 34.2345268,4.7006533 35.9291883,4.7006533 C36.5344246,4.7006533 39.0162514,4.86912517 39.9158688,4.93320208 C40.1214343,4.94616146 40.2603879,4.8396066 40.3205534,4.61857726 C40.3778539,4.39466806 40.6185159,3.23552396 40.6349898,3.12824913 C40.6700863,2.88274097 40.4752647,2.75386719 40.1565308,2.71498906" id="Fill-36" fill="#FFFFFF"></path>
                    <path d="M16.3213956,6.63469602 L15.0607852,13.8847464 C15.0221073,14.1136953 14.8136769,14.3224853 14.5851912,14.3224853 L12.6419889,14.3224853 C12.4349909,14.3224853 12.3332826,14.1554533 12.3332826,13.9689823 L12.3332826,13.8847464 L13.6340033,6.42662606 C13.6762624,6.15591911 13.7178053,5.92769012 13.7178053,5.72178005 C13.7178053,5.09757016 13.4298704,4.74478717 12.4786825,4.74478717 L11.9801684,4.74478717 C10.7818722,4.74478717 10.5340477,5.2646021 10.3284822,6.42662606 L9.02704517,13.8847464 C8.98406981,14.1136953 8.77850436,14.3224853 8.55001871,14.3224853 L6.58747745,14.3224853 C6.38047949,14.3224853 6.27733863,14.1554533 6.27733863,13.9689823 L6.27733863,13.8847464 L7.57949192,6.42662606 C7.62175102,6.178958 7.66186135,5.92769012 7.66186135,5.72178005 C7.66186135,5.16020714 7.41260429,4.74478717 6.50367551,4.74478717 L6.01017517,4.74478717 C5.05540601,4.74478717 4.51964657,5.01477415 4.27253827,6.42662606 L2.97110124,13.8847464 C2.92812588,14.1136953 2.72112792,14.3224853 2.4955073,14.3224853 L0.550872439,14.3224853 C0.345306986,14.3224853 0.24073362,14.1554533 0.24073362,13.9689823 L0.24073362,13.8847464 L1.54431942,6.42662606 C2.06073995,3.45604932 3.79694433,2.45889741 6.4241711,2.45889741 L6.91623893,2.45889741 C8.09734496,2.45889741 8.94324322,2.74904342 9.48043517,3.27101825 C10.2038537,2.70872536 11.299009,2.45889741 12.3948806,2.45889741 L12.8912459,2.45889741 C15.3114747,2.45889741 16.4252527,3.58132328 16.4252527,5.53386911 C16.4252527,5.8866521 16.3829936,6.24087502 16.3213956,6.63469602" id="Fill-38" fill="#FFFFFF"></path>
                    <g id="Group-53" transform="translate(50.846707, 16.559201)">
                        <polygon id="Fill-40" fill="#FFFFFF" points="0.874134406 0.711541684 4.11447625 0.711541684 4.00059156 1.37822953 1.5373874 1.37822953 1.30102294 2.75912293 3.58373061 2.75912293 3.47056217 3.42653075 1.17711067 3.42653075 0.902784643 4.99749498 3.37530013 4.99749498 3.26213169 5.66418283 0.00245093394 5.66418283"></polygon>
                        <polygon id="Fill-42" fill="#FFFFFF" points="6.07465387 0.711541684 6.86110288 0.711541684 6.11261543 4.96941634 8.45262357 4.96941634 8.33945513 5.66418283 5.2029704 5.66418283"></polygon>
                        <polygon id="Fill-44" fill="#FFFFFF" points="10.9527149 0.711541684 14.1930568 0.711541684 14.0791721 1.37822953 11.6159679 1.37822953 11.3796034 2.75912293 13.6623111 2.75912293 13.5491427 3.42653075 11.2556912 3.42653075 10.9813651 4.99749498 13.4538806 4.99749498 13.3407122 5.66418283 10.0810314 5.66418283"></polygon>
                        <polygon id="Fill-46" fill="#FFFFFF" points="16.7408507 1.61639405 16.0303249 5.6647588 15.2818374 5.6647588 16.1434933 0.711397691 17.1476841 0.711397691 18.7119871 4.79720064 19.4318243 0.711397691 20.1896231 0.711397691 19.3272509 5.6647588 18.3137488 5.6647588"></polygon>
                        <path d="M21.5525149,4.62635288 C21.5525149,4.5118784 21.5711375,4.37868483 21.5911927,4.26421035 L21.9794034,2.04527736 C22.1778063,0.94013066 22.7751637,0.616146285 24.0923584,0.616146285 C24.5092194,0.616146285 24.9926921,0.673743507 25.4382033,0.797577535 L25.314291,1.41674767 C24.8881187,1.34043135 24.3860233,1.28283413 24.0257466,1.28283413 C23.1819971,1.28283413 22.8697095,1.46426538 22.7465135,2.14967233 L22.3769254,4.2548508 C22.3676141,4.31172806 22.3482752,4.4456416 22.3482752,4.55003656 C22.3482752,4.96905635 22.6046948,5.09289038 23.3718049,5.09289038 C23.7700432,5.09289038 24.1869042,5.04537267 24.651038,4.95969681 L24.6889996,5.58822649 C24.2248657,5.69262146 23.7227703,5.75957823 23.2486089,5.75957823 C22.0546103,5.75957823 21.5525149,5.36935705 21.5525149,4.62635288" id="Fill-48" fill="#FFFFFF"></path>
                        <g id="Group-52" transform="translate(25.792678, 0.000000)">
                            <mask id="mask-2" fill="white">
                                <use xlink:href="#path-1"></use>
                            </mask>
                            <g id="Clip-51"></g>
                            <path d="M4.2485437,2.24499573 C4.26716635,2.15931986 4.27719394,2.07364399 4.27719394,1.99732767 C4.27719394,1.52143063 3.95487877,1.28312212 3.19707999,1.28312212 C2.22082315,1.28312212 1.92715822,1.55022924 1.8039622,2.24499573 L1.4723357,4.15002385 C1.45371304,4.25513878 1.45371304,4.3688933 1.45371304,4.40705146 C1.45371304,4.84551031 1.70941641,5.09317837 2.53311074,5.09317837 C3.38617155,5.09317837 3.79372118,4.83615076 3.89829455,4.24505927 L4.2485437,2.24499573 Z M0.657236445,4.48336778 C0.657236445,4.37825285 0.667264028,4.26449833 0.685886683,4.15002385 L1.03685209,2.1398808 C1.22594366,1.06425267 1.79465087,0.616434271 3.32027601,0.616434271 C4.48562441,0.616434271 5.05433163,1.2255249 5.05433163,1.99732767 C5.05433163,2.1024426 5.04430404,2.19747802 5.02568139,2.30259295 L4.69405489,4.20762108 C4.52358598,5.16949469 4.0974137,5.75986622 2.4199423,5.75986622 C1.15002053,5.75986622 0.657236445,5.22637194 0.657236445,4.48336778 L0.657236445,4.48336778 Z" id="Fill-50" fill="#FFFFFF" mask="url(#mask-2)"></path>
                        </g>
                    </g>
                </g>
            </g>
        </g>
    </g>
</svg>