<?xml version="1.0" encoding="UTF-8" standalone="no"?>
<svg width="26px" height="26px" viewBox="0 0 26 26" version="1.1" xmlns="http://www.w3.org/2000/svg" xmlns:xlink="http://www.w3.org/1999/xlink">
    <!-- Generator: Sketch 46.1 (44463) - http://www.bohemiancoding.com/sketch -->
    <title>Subtração</title>
    <desc>Created with Sketch.</desc>
    <defs></defs>
    <g id="Login" stroke="none" stroke-width="1" fill="none" fill-rule="evenodd" opacity="0.5">
        <g id="Login-Copy-6" transform="translate(-266.000000, -222.000000)" fill="#FFFFFF">
            <g id="Subtração" transform="translate(266.000000, 222.000000)">
                <path d="M8.00497198,11.6378072 C7.25224539,11.6378072 6.64215556,12.2471909 6.64215556,12.9999175 C6.64215556,13.7533502 7.25224539,14.3620278 8.00497198,14.3620278 L17.9951931,14.3620278 C18.7472136,14.3620278 19.3580095,13.7533502 19.3580095,12.9999175 C19.3580095,12.2471909 18.7472136,11.6378072 17.9951931,11.6378072 L8.00497198,11.6378072 Z" id="Fill-1"></path>
                <path d="M13,1.23809524 C6.51444444,1.23809524 1.23809524,6.51444444 1.23809524,13 C1.23809524,19.4855556 6.51444444,24.7619048 13,24.7619048 C19.4855556,24.7619048 24.7619048,19.4855556 24.7619048,13 C24.7619048,6.51444444 19.4855556,1.23809524 13,1.23809524 M13,26 C5.83184127,26 0,20.1681587 0,13 C0,5.83184127 5.83184127,0 13,0 C20.1681587,0 26,5.83184127 26,13 C26,20.1681587 20.1681587,26 13,26" id="Fill-3"></path>
            </g>
        </g>
    </g>
</svg>