<?xml version="1.0" encoding="UTF-8" standalone="no"?>
<svg width="26px" height="18px" viewBox="0 0 26 18" version="1.1" xmlns="http://www.w3.org/2000/svg" xmlns:xlink="http://www.w3.org/1999/xlink">
    <!-- Generator: Sketch 46 (44423) - http://www.bohemiancoding.com/sketch -->
    <title>MENU</title>
    <desc>Created with Sketch.</desc>
    <defs></defs>
    <g id="Novo-Cadastro---Mobile" stroke="none" stroke-width="1" fill="none" fill-rule="evenodd">
        <g id="Sign-Up---Confirmado" transform="translate(-274.000000, -78.000000)" fill="#FFFFFF">
            <g id="MENU" transform="translate(274.000000, 78.000000)">
                <path d="M24.6864277,7.71597321 L1.29926415,7.71597321 C0.582056604,7.71597321 0,8.28803571 0,8.99292857 C0,9.69782143 0.582056604,10.2698839 1.29926415,10.2698839 L24.6863459,10.2698839 C25.4009371,10.2698839 25.9856101,9.69782143 25.9856101,8.99292857 C25.9856918,8.28803571 25.4010189,7.71597321 24.6864277,7.71597321 L24.6864277,7.71597321 Z" id="Shape"></path>
                <path d="M1.29926415,2.60807143 L24.6863459,2.60807143 C25.4009371,2.60807143 25.9856101,2.03600893 25.9856101,1.33111607 C25.9856101,0.626223214 25.4009371,0.0541607143 24.6863459,0.0541607143 L1.29926415,0.0541607143 C0.582056604,0.0541607143 0,0.626223214 0,1.33111607 C0,2.03600893 0.582056604,2.60807143 1.29926415,2.60807143 L1.29926415,2.60807143 Z" id="Shape"></path>
                <path d="M24.6864277,15.3778661 L1.29926415,15.3778661 C0.582056604,15.3778661 0,15.9525 0,16.6548214 C0,17.3571429 0.582056604,17.9317768 1.29926415,17.9317768 L24.6863459,17.9317768 C25.4009371,17.9317768 25.9856101,17.3571429 25.9856101,16.6548214 C25.9856918,15.9525 25.4010189,15.3778661 24.6864277,15.3778661 L24.6864277,15.3778661 Z" id="Shape"></path>
            </g>
        </g>
    </g>
</svg>