<?xml version="1.0" encoding="UTF-8" standalone="no"?>
<svg width="30px" height="24px" viewBox="0 0 30 24" version="1.1" xmlns="http://www.w3.org/2000/svg" xmlns:xlink="http://www.w3.org/1999/xlink">
    <!-- Generator: Sketch 46.1 (44463) - http://www.bohemiancoding.com/sketch -->
    <title>Cachê</title>
    <desc>Created with Sketch.</desc>
    <defs>
        <polyline id="path-1" points="0 0.214647828 29.8264655 0.214647828 29.8264655 23.6190476 0 23.6190476"></polyline>
    </defs>
    <g id="Login" stroke="none" stroke-width="1" fill="none" fill-rule="evenodd">
        <g id="Login-Copy-4" transform="translate(-30.000000, -303.000000)">
            <g id="Cachê" transform="translate(30.000000, 303.000000)">
                <mask id="mask-2" fill="white">
                    <use xlink:href="#path-1"></use>
                </mask>
                <g id="Clip-2"></g>
                <path d="M17.5893621,3.19508613 C17.3943621,3.26101183 17.1833276,3.15485589 17.1176379,2.95915521 C17.0558276,2.77461518 16.8295345,2.55892915 16.3924655,2.55892915 C16.0443621,2.55892915 15.8385,2.78914997 15.8149655,3.0178135 C15.783931,3.30331847 16.0298793,3.5278292 16.4690172,3.62126719 C17.4747931,3.83176222 17.7678103,4.5136 17.7150517,5.0329595 C17.6604828,5.55569314 17.2761724,5.9688967 16.7659138,6.10983234 L16.7659138,6.42077321 C16.7659138,6.62893229 16.6001379,6.79582292 16.3924655,6.79582292 C16.1866034,6.79582292 16.0208276,6.62893229 16.0208276,6.42077321 L16.0208276,6.12436714 C15.4231552,6.0036764 15.078931,5.60526719 14.9622931,5.25409608 C14.8968621,5.05657855 15.0023793,4.84452622 15.1971207,4.77860052 C15.3921207,4.71449168 15.6034138,4.81909032 15.6691034,5.01660785 C15.7309138,5.20088833 15.9569483,5.41475751 16.3924655,5.41475751 C16.7423793,5.41475751 16.9482414,5.18453668 16.9717759,4.95613271 C17.001,4.67088728 16.7568621,4.44585746 16.3159138,4.35267902 C15.3116897,4.14244354 15.0186724,3.46034621 15.071431,2.94098671 C15.1265172,2.41799351 15.510569,2.00478995 16.0208276,1.86411387 L16.0208276,1.553173 C16.0208276,1.34657122 16.1866034,1.17838284 16.3924655,1.17838284 C16.6001379,1.17838284 16.7659138,1.34657122 16.7659138,1.553173 L16.7659138,1.84931952 C17.3635862,1.97208666 17.7078103,2.36893857 17.8244483,2.72140743 C17.8901379,2.91710811 17.7843621,3.12967954 17.5893621,3.19508613 M16.3924655,0.214673783 C14.3320345,0.214673783 12.6613448,1.89136661 12.6613448,3.95946081 C12.6613448,6.027555 14.3320345,7.70424783 16.3924655,7.70424783 C18.4549655,7.70424783 20.1238448,6.027555 20.1238448,3.95946081 C20.1238448,1.89136661 18.4549655,0.214673783 16.3924655,0.214673783 M25.6624655,7.4537821 C25.5494483,7.22537813 25.5512586,7.06056389 25.6115172,7.0164404 C25.6368621,6.9982719 25.6733276,6.98763035 25.7188448,6.98763035 C25.8116897,6.98763035 25.943069,7.03486845 26.0723793,7.16490298 C26.4111724,7.5067303 26.6134138,7.88878786 26.6369483,8.22698148 C26.1998793,8.08111439 25.8354828,7.79924312 25.6624655,7.4537821 M7.25177586,10.1377884 C6.73608621,10.1377884 6.31893103,9.71913428 6.31893103,9.20159163 C6.31893103,8.68430853 6.73608621,8.26539487 7.25177586,8.26539487 C7.7672069,8.26539487 8.18462069,8.68430853 8.18462069,9.20159163 C8.18462069,9.71913428 7.7672069,10.1377884 7.25177586,10.1377884 M29.5759138,7.42419341 C29.3188448,7.25237132 28.9728103,7.32219027 28.7997931,7.57966384 C28.5083276,8.02063925 28.1053966,8.21062983 27.7593621,8.28745662 C27.7575517,7.63287159 27.4425517,6.9510338 26.8629828,6.37119916 C26.3110862,5.81731952 25.5111724,5.70545348 24.9572069,6.10619864 C24.5454828,6.40442156 24.2193621,7.06783129 24.6621207,7.954454 C24.9372931,8.50885275 25.4436724,8.9490495 26.0633276,9.20911858 C25.946431,9.29347232 25.8098793,9.37133731 25.6585862,9.4486832 C25.3234138,9.61687159 24.9791897,9.71731743 24.6476379,9.77597572 C23.8404828,8.12471879 22.3847069,6.71328603 20.5153966,5.71479728 C19.8321207,7.32400712 18.2416034,8.45382815 16.3924655,8.45382815 C14.0203966,8.45382815 12.0781552,6.58870204 11.9304828,4.24288938 C11.6974655,4.26650842 11.4696207,4.29038702 11.2453966,4.31971617 C9.84418966,3.40895531 7.24246552,2.28847807 4.63893103,2.46211701 C4.75944828,3.5480741 5.42436207,4.94341476 6.27910345,5.94865181 C4.62082759,6.9764697 3.5535,8.38063506 3.01401724,10.0043797 C2.3835,10.2823577 1.70203448,10.4598899 0.940913793,10.5107617 C0.38487931,10.5491751 -0.0358965517,11.0285639 0.00237931034,11.5860772 C0.106603448,13.0265796 0.531,15.480365 2.21436207,16.1294995 C2.52962069,16.2525262 3.03237931,16.3236429 3.63160345,16.3617968 C4.34384483,17.5321076 5.39177586,18.5617423 6.68513793,19.3775079 C6.46841379,20.4613886 6.20048276,21.5566895 5.87074138,22.6610746 C5.7285,23.1386466 6.0897931,23.6190736 6.58686207,23.6190736 L9.72056897,23.6190736 C10.0319483,23.6190736 10.3143621,23.429083 10.4222069,23.1365702 C10.6678966,22.4669312 10.8773793,21.7832766 11.0537586,21.0866445 C11.9850517,21.2732609 12.9616034,21.3718899 13.9671207,21.3718899 C15.138931,21.3718899 16.2685862,21.2384812 17.3325517,20.9898323 C17.1941897,21.543712 17.0447069,22.1014849 16.878931,22.6610746 C16.7348793,23.1386466 17.0956552,23.6190736 17.5932414,23.6190736 L20.7287586,23.6190736 C21.0383276,23.6190736 21.3207414,23.429083 21.4301379,23.1365702 C21.9874655,21.6226152 22.3575517,20.0318334 22.5851379,18.3823933 C24.3049655,16.8738889 25.3490172,14.9103933 25.3490172,12.7597622 C25.3490172,12.0997266 25.2468621,11.4581191 25.0611724,10.8401306 C25.4216897,10.7594106 25.7917759,10.6371625 26.1579828,10.4539203 C26.7647069,10.148949 27.1472069,9.79985432 27.3841034,9.45932475 C28.3495345,9.4393394 29.2151379,8.98201235 29.7323793,8.20310288 C29.9035862,7.9456293 29.8345345,7.59653459 29.5759138,7.42419341" id="Fill-1" fill="#FEFEFE" fill-rule="evenodd" mask="url(#mask-2)"></path>
            </g>
        </g>
    </g>
</svg>