<?xml version="1.0" encoding="UTF-8" standalone="no"?>
<svg width="30px" height="30px" viewBox="0 0 30 30" version="1.1" xmlns="http://www.w3.org/2000/svg" xmlns:xlink="http://www.w3.org/1999/xlink">
    <!-- Generator: Sketch 46.1 (44463) - http://www.bohemiancoding.com/sketch -->
    <title>Page 1 Copy</title>
    <desc>Created with Sketch.</desc>
    <defs>
        <polygon id="path-1" points="0 14.9310517 0 0 29.862 0 29.862 14.9310517 29.862 29.8621034 0 29.8621034 0 14.9310517"></polygon>
    </defs>
    <g id="Login" stroke="none" stroke-width="1" fill="none" fill-rule="evenodd">
        <g id="Login-Copy-4" transform="translate(-32.000000, -260.000000)">
            <g id="Page-1-Copy" transform="translate(32.000000, 260.000000)">
                <mask id="mask-2" fill="white">
                    <use xlink:href="#path-1"></use>
                </mask>
                <g id="Clip-2"></g>
                <path d="M14.9311034,1.03437931 C22.5937241,1.03437931 28.8275172,7.26817241 28.8275172,14.931 C28.8275172,17.8871379 27.8968966,20.6283103 26.3172414,22.8832759 C25.9791724,22.2967241 25.5993103,21.8241724 25.1784828,21.3855517 C24.2029655,20.3672069 22.7184828,20.0707241 21.4034483,19.4763103 C20.0884138,18.8827241 17.7552414,17.6523103 17.7552414,17.6523103 C17.7552414,17.6527241 17.4523448,16.878931 18.1795862,15.9561724 C18.9051724,15.0346552 19.3247586,14.0047241 19.5794483,13.0287931 C20.4277241,12.6894828 21.2337931,10.1868621 20.2922069,9.17306897 C20.2922069,9.17306897 21.3475862,3.00010345 15.1431724,2.73113793 C15.1431724,2.73113793 14.9997931,2.72265517 14.9286207,2.72410345 C14.8593103,2.72286207 14.7190345,2.73113793 14.7190345,2.73113793 C8.51441379,3.00010345 9.57,9.17306897 9.57,9.17306897 C8.62841379,10.1868621 9.43448276,12.6894828 10.2827586,13.0287931 C10.5374483,14.0045172 10.9570345,15.0346552 11.6826207,15.9557586 C12.4098621,16.878931 12.1069655,17.6523103 12.1069655,17.6523103 C12.1069655,17.6523103 9.77358621,18.8825172 8.45875862,19.4763103 C7.14372414,20.0703103 5.65903448,20.3672069 4.68351724,21.3855517 C4.26289655,21.8241724 3.88303448,22.2967241 3.54496552,22.8834828 C1.96531034,20.6285172 1.03448276,17.8871379 1.03448276,14.931 C1.03448276,7.26817241 7.26848276,1.03437931 14.9311034,1.03437931 M14.9311034,-0.000103448276 C6.69806897,-0.000103448276 0,6.69796552 0,14.931 C0,23.1640345 6.69806897,29.8621034 14.9311034,29.8621034 C23.1641379,29.8621034 29.862,23.1640345 29.862,14.931 C29.862,6.69796552 23.1641379,-0.000103448276 14.9311034,-0.000103448276" id="Fill-1" fill="#FEFEFE" mask="url(#mask-2)"></path>
            </g>
        </g>
    </g>
</svg>