<?xml version="1.0" encoding="UTF-8" standalone="no"?>
<svg width="24px" height="30px" viewBox="0 0 24 30" version="1.1" xmlns="http://www.w3.org/2000/svg" xmlns:xlink="http://www.w3.org/1999/xlink">
    <!-- Generator: Sketch 46.1 (44463) - http://www.bohemiancoding.com/sketch -->
    <title>Page 1</title>
    <desc>Created with Sketch.</desc>
    <defs></defs>
    <g id="Login" stroke="none" stroke-width="1" fill="none" fill-rule="evenodd">
        <g id="Login-Copy-4" transform="translate(-34.000000, -380.000000)" fill="#FEFEFE">
            <g id="Page-1" transform="translate(34.000000, 380.000000)">
                <g id="Group-3" transform="translate(0.000000, 0.131966)">
                    <path d="M16.345408,22.3391115 L3.82953963,18.6865967 L8.51490724,2.58564838 L21.0307756,6.23816317 L16.345408,22.3391115 Z M8.72101604,25.2095093 C7.85478732,24.9566198 7.35680449,24.0485353 7.60919929,23.1809403 C7.86186635,22.313209 8.76893566,21.8150645 9.63530052,22.067954 C10.5015293,22.3207071 10.9995121,23.2287916 10.7469811,24.0966593 C10.4944502,24.9642542 9.58724477,25.4622625 8.72101604,25.2095093 L8.72101604,25.2095093 Z M21.3965711,3.5504456 L9.64891405,0.12205496 C8.09778877,-0.330419532 6.47396726,0.561714567 6.02199816,2.11490586 L0.117539193,22.4052308 C-0.334429907,23.9584221 0.556575442,25.5846855 2.10742845,26.0372963 L13.8553578,29.4655506 C15.4063469,29.9182978 17.0298962,29.025891 17.4820014,27.4725634 L23.3864604,7.18237477 C23.8384295,5.62918349 22.9475603,4.00305642 21.3965711,3.5504456 L21.3965711,3.5504456 Z" id="Fill-1"></path>
                </g>
                <path d="M14.3108256,11.1045475 C14.1865341,11.0239773 13.9711681,10.9019632 13.6581931,10.8106231 C12.4606111,10.461213 11.1655563,11.3102673 10.780838,12.6319726 C10.6063126,13.2315457 10.7789321,13.754911 11.3775189,13.9296842 C12.1668312,14.1599432 13.1813112,13.3621484 13.5769203,12.5610818 L14.3108256,11.1045475 Z M13.346171,17.2094767 C12.4828011,17.3862949 11.6770165,17.3137681 10.7655908,17.047791 C8.53392534,16.3964132 7.11839079,14.2094304 7.87965923,11.593149 C8.69647086,8.78614396 11.3481137,6.92839467 14.3689553,7.81003147 C16.7364838,8.50094461 17.8447611,10.6279428 17.1825991,12.9035391 C16.5878241,14.9475132 15.0960538,15.8130633 13.8167907,15.4397957 C13.272658,15.2809729 12.8760959,14.7661963 13.1588489,13.9469979 L13.1043948,13.9309112 C12.3941771,14.5959219 11.6533289,14.8084581 10.8367896,14.5701558 C10.0477496,14.3397605 9.55371466,13.5009309 9.86682578,12.4244806 C10.3586825,10.7346881 12.1402848,9.58421135 14.031476,10.1360694 C14.6167215,10.3067527 15.0980958,10.5802278 15.4042641,10.8470228 L14.2239713,13.1785138 C13.718501,14.1546263 13.7430053,14.6792186 14.1880315,14.8237269 C14.8779651,15.039944 15.9233478,14.3396242 16.3833489,12.7590309 C16.958112,10.783221 16.1867696,9.02062908 14.0776258,8.40510563 C11.85971,7.75781763 9.4840134,8.9715508 8.67918168,11.7377936 C8.01688358,14.01339 9.09153541,15.849872 11.1053845,16.4374481 C11.8809471,16.6637535 12.6498391,16.7106505 13.298796,16.5601438 L13.346171,17.2094767 Z" id="Fill-4"></path>
            </g>
        </g>
    </g>
</svg>