<?xml version="1.0" encoding="UTF-8" standalone="no"?>
<svg width="35px" height="27px" viewBox="0 0 35 27" version="1.1" xmlns="http://www.w3.org/2000/svg" xmlns:xlink="http://www.w3.org/1999/xlink">
    <!-- Generator: Sketch 46.1 (44463) - http://www.bohemiancoding.com/sketch -->
    <title>Page 1</title>
    <desc>Created with Sketch.</desc>
    <defs>
        <polygon id="path-1" points="34.9032745 12.9347446 34.9032745 0.0928831522 0.0665 0.0928831522 0.0665 12.9347446"></polygon>
        <polygon id="path-3" points="3.3271875 3.43124592 3.3271875 0.0389089674 0.0139334239 0.0389089674 0.0139334239 3.43124592 3.3271875 3.43124592"></polygon>
    </defs>
    <g id="Login" stroke="none" stroke-width="1" fill="none" fill-rule="evenodd">
        <g id="Login-Copy-4" transform="translate(-20.000000, -71.000000)">
            <g id="Page-1" transform="translate(20.000000, 71.000000)">
                <g id="Group-3" transform="translate(0.095109, 13.311033)">
                    <mask id="mask-2" fill="white">
                        <use xlink:href="#path-1"></use>
                    </mask>
                    <g id="Clip-2"></g>
                    <path d="M0.0665,0.0928831522 L0.0665,11.6032228 C0.0665,12.3386033 0.662641304,12.9347446 1.39802174,12.9347446 L33.5717717,12.9347446 C34.3071522,12.9347446 34.9032935,12.3386033 34.9032935,11.6032228 L34.9032935,0.0928831522 L0.0665,0.0928831522 Z" id="Fill-1" fill="#FEFEFE" mask="url(#mask-2)"></path>
                </g>
                <polygon id="Fill-4" fill="#FEFEFE" points="24.927856 8.05089402 20.9953967 8.05089402 16.4081141 12.7477418 20.3404783 12.7477418"></polygon>
                <polygon id="Fill-6" fill="#FEFEFE" points="1.08037772 12.7477133 5.01274185 12.7477133 9.60021467 8.05086549 5.66766033 8.05086549"></polygon>
                <polygon id="Fill-8" fill="#FEFEFE" points="17.2640829 8.05089402 13.3315285 8.05089402 8.74424592 12.7477418 12.6766101 12.7477418"></polygon>
                <g id="Group-12" transform="translate(31.671196, 9.316467)">
                    <mask id="mask-4" fill="white">
                        <use xlink:href="#path-3"></use>
                    </mask>
                    <g id="Clip-11"></g>
                    <polygon id="Fill-10" fill="#FEFEFE" mask="url(#mask-4)" points="0.0139334239 3.43124592 3.32723505 3.43124592 3.32723505 0.0389089674"></polygon>
                </g>
                <polygon id="Fill-13" fill="#FEFEFE" points="32.5411073 8.05089402 28.659341 8.05089402 24.0719633 12.7477418 27.9536345 12.7477418"></polygon>
                <polygon id="Fill-15" fill="#FEFEFE" points="1.93635598 8.05089402 0.161627717 8.05089402 0.161627717 9.86785054"></polygon>
                <polygon id="Fill-17" fill="#FEFEFE" points="19.4151753 1.20166984 15.4978383 1.54444158 20.952322 6.23187364 24.8698492 5.8891019"></polygon>
                <polygon id="Fill-19" fill="#FEFEFE" points="13.3176332 6.89983152 17.2350652 6.55705978 11.7804864 1.86962772 7.86314946 2.21239946"></polygon>
                <path d="M34.748856,3.67802446 L34.5333397,1.21556522 C34.4693315,0.483038043 33.8235435,-0.0588913043 33.0909212,0.00521195652 L30.7167228,0.212834239 L34.748856,3.67802446 Z" id="Fill-21" fill="#FEFEFE"></path>
                <polygon id="Fill-23" fill="#FEFEFE" points="26.9993519 0.538134511 23.1326128 0.876436141 28.5870014 5.56396332 32.4540258 5.22556658"></polygon>
                <polygon id="Fill-25" fill="#FEFEFE" points="0 6.20360734 0.161589674 8.05090353 1.96570652 7.8930231"></polygon>
                <path d="M5.68293478,7.56782745 L9.60036685,7.22505571 L4.14597826,2.53752853 L1.03953804,2.80944429 C0.804714674,2.82989266 0.589959239,2.91073505 0.407921196,3.03447147 L5.68293478,7.56782745 Z" id="Fill-27" fill="#FEFEFE"></path>
            </g>
        </g>
    </g>
</svg>