<?xml version="1.0" encoding="UTF-8" standalone="no"?>
<svg width="20px" height="20px" viewBox="0 0 20 20" version="1.1" xmlns="http://www.w3.org/2000/svg" xmlns:xlink="http://www.w3.org/1999/xlink">
    <!-- Generator: Sketch 46 (44423) - http://www.bohemiancoding.com/sketch -->
    <title>Check</title>
    <desc>Created with Sketch.</desc>
    <defs></defs>
    <g id="Novo-Cadastro---Mobile" stroke="none" stroke-width="1" fill="none" fill-rule="evenodd">
        <g id="Sign-Up---CPF" transform="translate(-239.000000, -305.000000)">
            <g id="Check" transform="translate(239.000000, 305.000000)">
                <g>
                    <path d="M19.9488522,9.97442899 C19.9488522,15.4831246 15.483171,19.9488058 9.97441739,19.9488058 C4.46572174,19.9488058 -1.73913043e-05,15.4831246 -1.73913043e-05,9.97442899 C-1.73913043e-05,4.46573333 4.46572174,-5.79710145e-06 9.97441739,-5.79710145e-06 C15.483171,-5.79710145e-06 19.9488522,4.46573333 19.9488522,9.97442899" id="Fill-1" fill="#8CC63F"></path>
                    <polygon id="Fill-4" fill="#66952D" points="14.622313 5.25236522 7.65048696 12.2241913 5.32654493 9.90024928 3.0026029 12.2241913 5.32654493 14.5481333 7.65048696 16.8720174 16.9462551 7.57630725"></polygon>
                    <polygon id="Fill-6" fill="#FEFEFE" points="14.622313 4.1645913 7.65048696 11.1364174 5.32654493 8.81247536 3.0026029 11.1364174 5.32654493 13.4603594 7.65048696 15.7843014 16.9462551 6.48853333"></polygon>
                </g>
            </g>
        </g>
    </g>
</svg>