<?xml version="1.0" encoding="UTF-8" standalone="no"?>
<svg width="26px" height="26px" viewBox="0 0 26 26" version="1.1" xmlns="http://www.w3.org/2000/svg" xmlns:xlink="http://www.w3.org/1999/xlink">
    <!-- Generator: Sketch 46 (44423) - http://www.bohemiancoding.com/sketch -->
    <title>Voltar</title>
    <desc>Created with Sketch.</desc>
    <defs></defs>
    <g id="Novo-Cadastro---Mobile" stroke="none" stroke-width="1" fill="none" fill-rule="evenodd">
        <g id="Sign-Up---Quem" transform="translate(-20.000000, -74.000000)" fill="#FFFFFF">
            <g id="Voltar" transform="translate(20.000000, 74.000000)">
                <path d="M13,1.23809524 C6.51444444,1.23809524 1.23809524,6.51444444 1.23809524,13 C1.23809524,19.4855556 6.51444444,24.7619048 13,24.7619048 C19.4855556,24.7619048 24.7619048,19.4855556 24.7619048,13 C24.7619048,6.51444444 19.4855556,1.23809524 13,1.23809524 M13,26 C5.83184127,26 0,20.1681587 0,13 C0,5.83184127 5.83184127,0 13,0 C20.1681587,0 26,5.83184127 26,13 C26,20.1681587 20.1681587,26 13,26" id="Fill-3"></path>
                <path d="M9.47619731,19.7200003 C8.9257682,19.7200003 8.42660456,19.4205021 8.17259001,18.9382984 C7.86422636,18.352793 7.97639364,17.6416293 8.45050274,17.1675202 L12.2198628,13.3985456 C12.2699719,13.3484365 12.2765246,13.2709601 12.2348955,13.2289456 L8.57847365,9.57290914 C8.11708455,9.11113459 8.01725182,8.38224003 8.33679365,7.80020365 C8.6077682,7.30605092 9.12196457,7 9.67933186,7 C10.0732664,7 10.4429173,7.15264 10.7204446,7.42978183 L15.4862047,12.1955419 C15.7745247,12.4842474 15.9306338,12.8697019 15.9240811,13.280982 C15.9182993,13.6860947 15.7556374,14.0684656 15.4665465,14.3575565 L10.5535428,19.2705603 C10.263681,19.5604221 9.88053913,19.7200003 9.47619731,19.7200003" id="Fill-3" transform="translate(11.962140, 13.360000) rotate(180.000000) translate(-11.962140, -13.360000) "></path>
            </g>
        </g>
    </g>
</svg>