<svg width="35" height="35" viewBox="0 0 35 35" version="1.1" xmlns="http://www.w3.org/2000/svg" xmlns:xlink="http://www.w3.org/1999/xlink">
<title>Seta Direita Simples Copy 3</title>
<desc>Created using Figma</desc>
<g id="Canvas" transform="translate(-4194 -700)">
<g id="Seta Direita Simples Copy 3">
<g id="Fill 3">
<use xlink:href="#path0_fill" transform="matrix(-1 1.22465e-16 -1.22465e-16 -1 4217 727)" fill="#FFFFFF"/>
</g>
</g>
</g>
<defs>
<path id="path0_fill" fill-rule="evenodd" d="M 2.42054 1.66669C 2.26831 1.66669 2.06276 1.74169 1.94776 1.95169C 1.83887 2.15113 1.86554 2.3828 2.01276 2.53058L 7.2822 7.79946C 7.99331 8.51058 7.98387 9.67724 7.26054 10.4006L 1.82831 15.8322C 1.66665 15.9939 1.6222 16.2384 1.72165 16.4267C 1.83609 16.6439 2.04331 16.6667 2.12776 16.6667C 2.26609 16.6667 2.39887 16.61 2.50165 16.5072L 9.58331 9.42613C 9.69165 9.31724 9.75276 9.17613 9.75498 9.0278C 9.7572 8.88946 9.70609 8.76169 9.6122 8.66724L 2.74276 1.7978C 2.63443 1.68946 2.50776 1.66669 2.42054 1.66669ZM 2.12764 18.3333C 1.33431 18.3333 0.614865 17.9017 0.248754 17.2067C -0.195691 16.3628 -0.0340238 15.3378 0.64931 14.6544L 6.08209 9.22222C 6.15431 9.15 6.16375 9.03833 6.10375 8.97778L 0.833754 3.70833C 0.168754 3.04278 0.0248651 1.99222 0.485421 1.15333C 0.875976 0.441111 1.61709 0 2.42042 0C 2.9882 0 3.52098 0.22 3.92098 0.619444L 10.7899 7.48833C 11.2054 7.90444 11.4304 8.46 11.421 9.05278C 11.4126 9.63667 11.1782 10.1878 10.7615 10.6044L 3.68042 17.6856C 3.26264 18.1033 2.71042 18.3333 2.12764 18.3333Z"/>
</defs>
</svg>
