<?xml version="1.0" encoding="UTF-8" standalone="no"?>
<svg width="28px" height="33px" viewBox="0 0 28 33" version="1.1" xmlns="http://www.w3.org/2000/svg" xmlns:xlink="http://www.w3.org/1999/xlink">
    <!-- Generator: Sketch 46.1 (44463) - http://www.bohemiancoding.com/sketch -->
    <title>Prancheta</title>
    <desc>Created with Sketch.</desc>
    <defs>
        <polygon id="path-1" points="21.56 0.028959 21.56 26.46 0 26.46 0 0.028959"></polygon>
    </defs>
    <g id="Login" stroke="none" stroke-width="1" fill="none" fill-rule="evenodd">
        <g id="Login-Copy-4" transform="translate(-32.000000, -219.000000)">
            <g id="Prancheta" transform="translate(32.000000, 218.000000)">
                <path d="M17.5019527,5.35591426 C17.0621777,5.35591426 16.7057027,4.99943926 16.7057027,4.55966426 C16.7057027,4.11988926 17.0621777,3.76341426 17.5019527,3.76341426 C17.9417277,3.76341426 18.2982027,4.11988926 18.2982027,4.55966426 C18.2982027,4.99943926 17.9417277,5.35591426 17.5019527,5.35591426 M22.3203677,4.55819426 L20.2567327,4.55819426 C20.2559977,3.03747926 19.0229127,1.80488426 17.5019527,1.80488426 C15.9809927,1.80488426 14.7479077,3.03747926 14.7471727,4.55819426 L12.6835377,4.55819426 C12.4130577,4.55819426 12.1935377,4.77771426 12.1935377,5.04819426 L12.1935377,7.78410926 C12.1935377,8.05483426 12.4130577,8.27410926 12.6835377,8.27410926 L22.3203677,8.27410926 C22.5908477,8.27410926 22.8103677,8.05483426 22.8103677,7.78410926 L22.8103677,5.04819426 C22.8103677,4.77771426 22.5908477,4.55819426 22.3203677,4.55819426" id="Fill-4" fill="#FEFEFE" transform="translate(17.501953, 5.039497) rotate(15.000000) translate(-17.501953, -5.039497) "></path>
                <path d="M23.5247733,12.9529686 C23.5247733,13.2271236 23.3025583,13.4493386 23.0284033,13.4493386 L15.5487983,13.4493386 C15.2746433,13.4493386 15.0521833,13.2271236 15.0521833,12.9529686 C15.0521833,12.6788136 15.2746433,12.4565986 15.5487983,12.4565986 L23.0284033,12.4565986 C23.3025583,12.4565986 23.5247733,12.6788136 23.5247733,12.9529686" id="Fill-6" fill="#FEFEFE" transform="translate(19.288478, 12.952969) rotate(15.000000) translate(-19.288478, -12.952969) "></path>
                <path d="M20.7013117,14.6535196 C20.7013117,14.9276746 20.4790967,15.1498896 20.2049417,15.1498896 L15.0521017,15.1498896 C14.7779467,15.1498896 14.5557317,14.9276746 14.5557317,14.6535196 C14.5557317,14.3793646 14.7779467,14.1571496 15.0521017,14.1571496 L20.2049417,14.1571496 C20.4790967,14.1571496 20.7013117,14.3793646 20.7013117,14.6535196" id="Fill-8" fill="#FEFEFE" transform="translate(17.628522, 14.653520) rotate(15.000000) translate(-17.628522, -14.653520) "></path>
                <path d="M21.8159637,19.3303331 C21.8159637,19.6044881 21.5937487,19.8267031 21.3195937,19.8267031 L13.8399887,19.8267031 C13.5658337,19.8267031 13.3433737,19.6044881 13.3433737,19.3303331 C13.3433737,19.0561781 13.5658337,18.8339631 13.8399887,18.8339631 L21.3195937,18.8339631 C21.5937487,18.8339631 21.8159637,19.0561781 21.8159637,19.3303331" id="Fill-10" fill="#FEFEFE" transform="translate(17.579669, 19.330333) rotate(15.000000) translate(-17.579669, -19.330333) "></path>
                <path d="M18.9925401,21.0308646 C18.9925401,21.3050196 18.7703251,21.5272346 18.4961701,21.5272346 L13.3433301,21.5272346 C13.0691751,21.5272346 12.8469601,21.3050196 12.8469601,21.0308646 C12.8469601,20.7567096 13.0691751,20.5342496 13.3433301,20.5342496 L18.4961701,20.5342496 C18.7703251,20.5342496 18.9925401,20.7567096 18.9925401,21.0308646" id="Fill-12" fill="#FEFEFE" transform="translate(15.919750, 21.030742) rotate(15.000000) translate(-15.919750, -21.030742) "></path>
                <path d="M20.1072174,25.7074609 C20.1072174,25.9816159 19.8850024,26.2038309 19.6108474,26.2038309 L12.1312424,26.2038309 C11.8570874,26.2038309 11.6346274,25.9816159 11.6346274,25.7074609 C11.6346274,25.4333059 11.8570874,25.2110909 12.1312424,25.2110909 L19.6108474,25.2110909 C19.8850024,25.2110909 20.1072174,25.4333059 20.1072174,25.7074609" id="Fill-14" fill="#FEFEFE" transform="translate(15.870922, 25.707461) rotate(15.000000) translate(-15.870922, -25.707461) "></path>
                <path d="M17.2837621,27.4079882 C17.2837621,27.6821432 17.0615471,27.9043582 16.7873921,27.9043582 L11.6345521,27.9043582 C11.3603971,27.9043582 11.1381821,27.6821432 11.1381821,27.4079882 C11.1381821,27.1338332 11.3603971,26.9116182 11.6345521,26.9116182 L16.7873921,26.9116182 C17.0615471,26.9116182 17.2837621,27.1338332 17.2837621,27.4079882" id="Fill-16" fill="#FEFEFE" transform="translate(14.210972, 27.407988) rotate(15.000000) translate(-14.210972, -27.407988) "></path>
                <path d="M9.04812327,21.7414387 L5.68745827,21.7414387 C5.18128827,21.7414387 4.77091327,22.1518137 4.77091327,22.6579837 L4.77091327,26.0188937 C4.77091327,26.5250637 5.18128827,26.9354387 5.68745827,26.9354387 L9.04812327,26.9354387 C9.55429327,26.9354387 9.96466827,26.5250637 9.96466827,26.0188937 L9.96466827,22.6579837 C9.96466827,22.1518137 9.55429327,21.7414387 9.04812327,21.7414387 L9.04812327,21.7414387 Z M5.68745827,26.0188937 L9.04812327,26.0188937 L9.04812327,22.6579837 L5.68745827,22.6579837 L5.68745827,26.0188937 Z" id="Fill-18" fill="#FEFEFE" transform="translate(7.367791, 24.338439) rotate(15.000000) translate(-7.367791, -24.338439) "></path>
                <path d="M13.3530716,11.0967107 L13.2815316,11.1751107 C13.0490266,11.4299107 12.8500866,11.7361607 12.6575166,12.0326107 C12.5933266,12.1313457 12.5298716,12.2271407 12.4656816,12.3214657 L12.4656816,13.2644707 L9.10501663,13.2644707 L9.10501663,9.90356072 L11.6392966,9.90356072 C11.6944216,9.84623072 11.7512616,9.78816572 11.8112866,9.72838572 C12.0349716,9.50568072 12.2978566,9.24720572 12.5847516,8.99877572 C12.5453066,8.99387572 12.5063516,8.98701572 12.4656816,8.98701572 L9.10501663,8.98701572 C8.59884663,8.98701572 8.18822663,9.39714572 8.18822663,9.90356072 L8.18822663,13.2644707 C8.18822663,13.7706407 8.59884663,14.1810157 9.10501663,14.1810157 L12.4656816,14.1810157 C12.9718516,14.1810157 13.3822266,13.7706407 13.3822266,13.2644707 L13.3822266,11.0648607 C13.3726716,11.0753957 13.3628716,11.0859307 13.3530716,11.0967107" id="Fill-20" fill="#FEFEFE" transform="translate(10.785227, 11.584016) rotate(15.000000) translate(-10.785227, -11.584016) "></path>
                <path d="M13.3813261,10.8394715 C13.7098711,10.4825065 14.0457661,10.1419565 14.4125311,9.82394646 C14.5225361,9.72864146 15.3320161,9.18523146 15.0274811,8.99560146 C15.0005311,8.97869646 14.9625561,8.97257146 14.9206611,8.97257146 C14.8349111,8.97257146 14.7329911,8.99878646 14.6776211,9.01373146 C14.2902761,9.11932646 13.9210611,9.35085146 13.5993761,9.58384646 C13.1850811,9.88372646 12.8156211,10.2482865 12.4542461,10.6086815 C12.1737211,10.8879815 11.9034861,11.1814915 11.6722061,11.5039115 C11.6616711,11.5191015 11.4573411,11.7917865 11.4757161,11.8118765 C11.4744911,11.8104065 10.8499861,11.1320015 10.4256461,11.1320015 C10.3470011,11.1320015 10.2752161,11.1552765 10.2154361,11.2106465 C10.0574111,11.3569115 10.0432011,11.5426215 10.1600661,11.7175515 C10.2516961,11.8545065 10.3621911,11.9797015 10.4665611,12.1073465 C10.7480661,12.4508365 11.2584011,13.0339365 11.4757161,13.0339365 C11.9723311,13.0339365 12.3542861,11.9645115 13.0415111,11.2106465 C13.1547011,11.0869215 13.2676461,10.9627065 13.3813261,10.8394715" id="Fill-22" fill="#FEFEFE" transform="translate(12.589285, 11.003254) rotate(15.000000) translate(-12.589285, -11.003254) "></path>
                <path d="M11.6442937,17.4740793 L11.5727537,17.5524793 C11.3402487,17.8072793 11.1413087,18.1132843 10.9487387,18.4099793 C10.8845487,18.5084693 10.8210937,18.6045093 10.7569037,18.6988343 L10.7569037,19.6415943 L7.39623869,19.6415943 L7.39623869,16.2809293 L9.93051869,16.2809293 C9.98564369,16.2235993 10.0424837,16.1652893 10.1025087,16.1057543 C10.3261937,15.8828043 10.5890787,15.6243293 10.8759737,15.3761443 C10.8365287,15.3709993 10.7975737,15.3643843 10.7569037,15.3643843 L7.39623869,15.3643843 C6.89006869,15.3643843 6.47944869,15.7745143 6.47944869,16.2809293 L6.47944869,19.6415943 C6.47944869,20.1480093 6.89006869,20.5581393 7.39623869,20.5581393 L10.7569037,20.5581393 C11.2630737,20.5581393 11.6734487,20.1480093 11.6734487,19.6415943 L11.6734487,17.4419843 C11.6638937,17.4527643 11.6540937,17.4632993 11.6442937,17.4740793" id="Fill-24" fill="#FEFEFE" transform="translate(9.076449, 17.961262) rotate(15.000000) translate(-9.076449, -17.961262) "></path>
                <path d="M11.6725482,17.2165951 C12.0010932,16.8598751 12.3369882,16.5193251 12.7037532,16.2013151 C12.8137582,16.1060101 13.6232382,15.5626001 13.3187032,15.3729701 C13.2917532,15.3560651 13.2537782,15.3499401 13.2118832,15.3499401 C13.1261332,15.3499401 13.0242132,15.3759101 12.9688432,15.3911001 C12.5814982,15.4964501 12.2122832,15.7282201 11.8905982,15.9612151 C11.4763032,16.2610951 11.1068432,16.6256551 10.7454682,16.9858051 C10.4649432,17.2653501 10.1947082,17.5588601 9.9634282,17.8812801 C9.9528932,17.8962251 9.7485632,18.1691551 9.7669382,18.1892451 C9.7657132,18.1875301 9.1412082,17.5093701 8.7168682,17.5093701 C8.6382232,17.5093701 8.5664382,17.5326451 8.5066582,17.5880151 C8.3486332,17.7342801 8.3344232,17.9199901 8.4512882,18.0946751 C8.5429182,18.2318751 8.6534132,18.3570701 8.7577832,18.4844701 C9.0392882,18.8282051 9.5496232,19.4110601 9.7669382,19.4110601 C10.2635532,19.4110601 10.6455082,18.3418801 11.3327332,17.5880151 C11.4459232,17.4640451 11.5588682,17.3398301 11.6725482,17.2165951" id="Fill-26" fill="#FEFEFE" transform="translate(10.880507, 17.380500) rotate(15.000000) translate(-10.880507, -17.380500) "></path>
                <g id="Group-3" transform="translate(13.871479, 18.588137) rotate(15.000000) translate(-13.871479, -18.588137) translate(3.091479, 5.358137)">
                    <mask id="mask-2" fill="white">
                        <use xlink:href="#path-1"></use>
                    </mask>
                    <g id="Clip-2"></g>
                    <path d="M19.862346,0.028959 L17.354036,0.028959 L17.354036,1.253959 L19.862346,1.253959 C20.123026,1.253959 20.335196,1.461474 20.335196,1.716519 L20.335196,24.772489 C20.335196,25.027534 20.123026,25.235049 19.862346,25.235049 L1.697556,25.235049 C1.436876,25.235049 1.224951,25.027534 1.224951,24.772489 L1.224951,1.716519 C1.224951,1.461474 1.436876,1.253959 1.697556,1.253959 L4.205866,1.253959 L4.205866,0.028959 L1.697556,0.028959 C0.759941,0.028959 -4.9e-05,0.784539 -4.9e-05,1.716519 L-4.9e-05,24.772489 C-4.9e-05,25.704469 0.759941,26.460049 1.697556,26.460049 L19.862346,26.460049 C20.799716,26.460049 21.560196,25.704469 21.560196,24.772489 L21.560196,1.716519 C21.560196,0.784539 20.799716,0.028959 19.862346,0.028959" id="Fill-1" fill="#FEFEFE" mask="url(#mask-2)"></path>
                </g>
            </g>
        </g>
    </g>
</svg>