<?xml version="1.0" encoding="UTF-8" standalone="no"?>
<svg width="104px" height="104px" viewBox="0 0 104 104" version="1.1" xmlns="http://www.w3.org/2000/svg" xmlns:xlink="http://www.w3.org/1999/xlink">
    <!-- Generator: Sketch 46 (44423) - http://www.bohemiancoding.com/sketch -->
    <title>UPload</title>
    <desc>Created with Sketch.</desc>
    <defs>
        <polyline id="path-1" points="0 0.0924838767 60.9713288 0.0924838767 60.9713288 52.1514513 0 52.1514513"></polyline>
    </defs>
    <g id="Novo-Cadastro---Mobile" stroke="none" stroke-width="1" fill="none" fill-rule="evenodd">
        <g id="Sign-Up---GRATUITO-Copy-3" transform="translate(-108.000000, -207.000000)">
            <g id="UPload" transform="translate(109.000000, 208.000000)">
                <g id="Page-1" stroke-width="1" transform="translate(20.924234, 24.482313)">
                    <path d="M40.5248455,33.8159465 C40.2525074,33.8159465 39.9845184,33.6878578 39.819406,33.4491135 L30.7143774,20.3153688 L21.608449,33.4491135 C21.3425595,33.8335273 20.8106305,33.9308865 20.4222189,33.6692429 C20.0323076,33.4074514 19.7832143,32.5227974 20.0494037,32.1395654 L29.8598718,17.9889414 C30.1780994,17.5303632 31.445911,17.5305109 31.7641386,17.9890891 L41.5737068,32.1395654 C41.8404962,32.5229451 41.3953974,33.4074514 41.0056361,33.6692429 C40.8583696,33.7683749 40.6910077,33.8159465 40.5248455,33.8159465" id="Fill-1" fill="#FEFEFE"></path>
                    <path d="M30.7966787,52.1514513 C30.3251859,52.1514513 29.9429229,51.7745721 29.9429229,51.3103798 L29.9429229,19.346711 C29.9429229,18.8823711 30.3251859,18.5054919 30.7966787,18.5054919 C31.2681714,18.5054919 31.6504344,18.8823711 31.6504344,19.346711 L31.6504344,51.3103798 C31.6504344,51.7745721 31.2681714,52.1514513 30.7966787,52.1514513" id="Fill-3" fill="#FEFEFE"></path>
                    <g id="Group-7">
                        <mask id="mask-2" fill="white">
                            <use xlink:href="#path-1"></use>
                        </mask>
                        <g id="Clip-6"></g>
                        <path d="M48.4591204,42.941505 C44.7633612,42.941505 41.6229256,42.1791778 41.3979768,42.1231852 C40.8357547,41.9835729 40.4950322,41.4212828 40.6369,40.8675614 C40.7786177,40.3138401 41.348938,39.9775888 41.91146,40.117792 C41.9987401,40.1393617 50.7556979,42.2580698 55.5968965,39.2848461 C57.1629902,38.3229252 58.1181229,36.9584186 58.5167323,35.113321 C59.436473,30.8566988 58.6119606,27.5314159 56.0661398,25.2295129 C54.1560243,23.5026055 51.9885674,23.0118205 51.9671223,23.0070929 C51.4288948,22.8890504 51.0751252,22.38098 51.1571566,21.8438053 C51.1628553,21.8053934 51.7366247,17.8012552 50.2017239,13.4509673 C48.1765847,7.71120518 43.5783308,4.06799048 36.5345833,2.62222815 C30.7770931,1.44062105 26.1855877,2.56268981 22.8872381,5.9566708 C20.140163,8.78378177 18.8967959,12.524208 18.2288479,14.5335901 C17.7632038,15.9342924 17.5507022,16.5735539 16.7740289,16.708734 C16.3871169,16.775807 16.0065035,16.6438771 15.7380645,16.35372 C15.0392235,15.8991308 11.1126668,14.9735533 7.65280396,16.6471274 C4.12965549,18.3512831 2.26348005,22.1490316 2.10631581,27.9348879 C2.00103976,31.8039938 3.1533776,34.7906616 5.53093669,36.8118627 C11.0532803,41.5060843 21.4661614,39.7707558 21.5705376,39.7527318 C22.1416077,39.6540429 22.6856839,40.0295925 22.7861611,40.5918826 C22.8866382,41.1540251 22.5060248,41.6901656 21.9354046,41.7895932 C21.4693107,41.8707012 10.4474182,43.7163898 4.16489747,38.3824635 C1.28330304,35.9359252 -0.11542874,32.4023319 0.00754328388,27.8794862 C0.256936546,18.7031946 4.55585853,15.392981 8.11814809,14.2317617 C10.3575886,13.5017891 12.4718076,13.5592591 13.8508939,13.7361013 C14.2552019,13.7879573 15.2551744,13.9395363 16.1113296,14.2559907 C16.1521203,14.1349934 16.1935109,14.0103027 16.2335518,13.8898964 C16.953538,11.7243554 18.2933332,7.69318117 21.3707831,4.52642095 C25.2031612,0.582412043 30.4486678,-0.739693728 36.9628858,0.597333563 C46.7427609,2.60464735 50.654321,8.37026361 52.2135163,12.8535156 C53.458683,16.4333507 53.4318391,19.7258358 53.3243135,21.2565474 C54.315738,21.6035836 55.9674622,22.3329652 57.4857168,23.705745 C61.3870792,27.233281 61.3164453,32.0903097 60.570365,35.543829 C60.0534326,37.9354089 58.7524786,39.7855296 56.7034948,41.042483 C54.3046405,42.5139517 51.2261409,42.941505 48.4591204,42.941505" id="Fill-5" fill="#FEFEFE" mask="url(#mask-2)"></path>
                    </g>
                </g>
                <ellipse id="Oval-1" stroke="#FFFFFF" stroke-width="2" fill-opacity="0.3" fill="#FFFFFF" cx="51" cy="51" rx="50.4211377" ry="50.3836055"></ellipse>
            </g>
        </g>
    </g>
</svg>