<svg width="100" height="100" viewBox="0 0 100 100" version="1.1" xmlns="http://www.w3.org/2000/svg" xmlns:xlink="http://www.w3.org/1999/xlink">
<title>Add my casting</title>
<desc>Created using Figma</desc>
<g id="Canvas" transform="translate(-4283 -648)">
<g id="Add my casting" opacity="0.75">
<g id="Fill 1">
<use xlink:href="#path0_fill" transform="translate(4308.55 673.546)" fill="#FFFFFF"/>
</g>
<g id="Fill 3">
<use xlink:href="#path1_fill" transform="translate(4283 648)" fill="#FFFFFF"/>
</g>
</g>
</g>
<defs>
<path id="path0_fill" fill-rule="evenodd" d="M 43.6655 19.2147L 29.6925 19.2147L 29.6925 5.23889C 29.6925 2.34378 27.346 0 24.4536 0C 21.5585 0 19.212 2.34378 19.212 5.23889L 19.212 19.2147L 5.2416 19.2147C 2.3465 19.2147 0 21.5585 0 24.4536C 0 27.3514 2.3465 29.6924 5.2416 29.6924L 19.212 29.6924L 19.212 43.6682C 19.212 46.5633 21.5585 48.9071 24.4536 48.9071C 27.346 48.9071 29.6925 46.5633 29.6925 43.6682L 29.6925 29.6924L 43.6655 29.6924C 46.5579 29.6924 48.9071 27.3514 48.9071 24.4536C 48.9071 21.5585 46.5579 19.2147 43.6655 19.2147Z"/>
<path id="path1_fill" fill-rule="evenodd" d="M 49.9998 4.7619C 25.0554 4.7619 4.76172 25.0556 4.76172 50C 4.76172 74.9444 25.0554 95.2381 49.9998 95.2381C 74.9443 95.2381 95.2379 74.9444 95.2379 50C 95.2379 25.0556 74.9443 4.7619 49.9998 4.7619ZM 50 100C 22.4302 100 0 77.5698 0 50C 0 22.4302 22.4302 0 50 0C 77.5698 0 100 22.4302 100 50C 100 77.5698 77.5698 100 50 100Z"/>
</defs>
</svg>
