<?xml version="1.0" encoding="UTF-8" standalone="no"?>
<svg width="20px" height="20px" viewBox="0 0 20 20" version="1.1" xmlns="http://www.w3.org/2000/svg" xmlns:xlink="http://www.w3.org/1999/xlink">
    <!-- Generator: Sketch 46 (44423) - http://www.bohemiancoding.com/sketch -->
    <title>Wrong</title>
    <desc>Created with Sketch.</desc>
    <defs></defs>
    <g id="Novo-Cadastro---Mobile" stroke="none" stroke-width="1" fill="none" fill-rule="evenodd">
        <g id="Sign-Up---CPF" transform="translate(-240.000000, -364.000000)">
            <g id="Wrong" transform="translate(240.000000, 364.000000)">
                <g>
                    <path d="M19.9488812,9.97442899 C19.9488812,15.4831246 15.4832,19.9488058 9.97438841,19.9488058 C4.46569275,19.9488058 1.15942029e-05,15.4831246 1.15942029e-05,9.97442899 C1.15942029e-05,4.46573333 4.46569275,-5.79710145e-06 9.97438841,-5.79710145e-06 C15.4832,-5.79710145e-06 19.9488812,4.46573333 19.9488812,9.97442899" id="Fill-1" fill="#EC1D24"></path>
                    <polygon id="Fill-4" fill="#B01116" points="15.7843072 7.58997681 13.4603652 5.26603478 9.9743942 8.75194783 6.48853913 5.26603478 4.16465507 7.58997681 7.65045217 11.0758319 4.16465507 14.5618029 6.48853913 16.8857449 9.9743942 13.3998319 13.4603652 16.8857449 15.7843072 14.5618029 12.2983362 11.0758899"></polygon>
                    <polygon id="Fill-6" fill="#FEFEFE" points="15.7843072 6.48852754 13.4603652 4.16458551 9.9743942 7.65049855 6.48853913 4.16458551 4.16465507 6.48852754 7.65045217 9.97438261 4.16465507 13.4603536 6.48853913 15.7842957 9.9743942 12.2983826 13.4603652 15.7842957 15.7843072 13.4603536 12.2983362 9.97444058"></polygon>
                </g>
            </g>
        </g>
    </g>
</svg>