<?xml version="1.0" encoding="utf-8"?>
<!-- Generator: Adobe Illustrator 16.0.0, SVG Export Plug-In . SVG Version: 6.00 Build 0)  -->
<!DOCTYPE svg PUBLIC "-//W3C//DTD SVG 1.1//EN" "http://www.w3.org/Graphics/SVG/1.1/DTD/svg11.dtd">
<svg version="1.1" id="Layer_2_copy" xmlns="http://www.w3.org/2000/svg" xmlns:xlink="http://www.w3.org/1999/xlink" x="0px"
	 y="0px" width="1303.938px" height="1303.938px" viewBox="0 0 1303.938 1303.938" enable-background="new 0 0 1303.938 1303.938"
	 xml:space="preserve">
<path id="Contorno" display="none" fill="none" stroke="#000000" stroke-miterlimit="10" d="M1303.938,1170.559
	c-49.436-32.934-144.139-79.279-186.662-101.604c-54.574-28.652-208.746-95.506-234.67-109.148
	c-25.924-13.645-35.475-57.305-35.475-57.305l5.457-122.793c0,0,16.373-50.48,21.83-65.49c5.457-15.008,8.188-70.947,8.188-70.947
	s15.008-9.552,24.559-21.829c9.551-12.279,27.287-17.736,32.744-57.306c5.457-39.564,2.729-69.583-5.457-100.964
	c-8.188-31.38-32.746-2.728-32.746-2.728c57.303-399.758-248.314-387.48-248.314-387.48S347.773,60.688,405.077,460.447
	c0,0-24.562-28.652-32.745,2.728c-8.187,31.381-10.915,61.396-5.458,100.964c5.458,39.566,23.195,45.024,32.745,57.306
	c9.551,12.277,24.559,21.83,24.559,21.83s2.729,55.937,8.188,70.945s21.83,65.488,21.83,65.488l5.459,122.793
	c0,0-9.554,43.66-35.477,57.305c-25.922,13.646-180.096,80.498-234.671,109.148C146.151,1091.715,48.559,1139.446,0,1172.473
	v131.465h1303.938V1170.559z"/>
<rect opacity="0.1" fill="none" stroke="#3399FF" stroke-miterlimit="10" width="1303.936" height="1303.936"/>
<path fill="#3399FF" d="M519.946,547.407c-0.936,0-1.862,0.015-2.785,0.037c13.489,0.394,24.309,11.426,24.309,25.01
	c0,13.834-11.214,25.047-25.046,25.047c-13.833,0-25.048-11.213-25.048-25.047c0-12.84,9.666-23.407,22.115-24.861
	c-30.001,1.706-52.657,15.198-52.657,32.119c0,18.116,25.966,32.305,59.112,32.305c33.147,0,59.11-24.105,59.11-32.305
	C578.053,573.639,553.092,547.407,519.946,547.407z"/>
<path fill="#3399FF" d="M783.993,547.407c0.934,0,1.861,0.015,2.785,0.037c-13.49,0.394-24.309,11.426-24.309,25.01
	c0,13.834,11.213,25.047,25.045,25.047c13.834,0,25.049-11.213,25.049-25.047c0-12.839-9.666-23.406-22.115-24.861
	c30,1.706,52.656,15.198,52.656,32.119c0,18.117-25.965,32.305-59.111,32.305c-33.148,0-59.111-24.104-59.111-32.305
	C725.885,573.639,750.846,547.407,783.993,547.407z"/>
</svg>
