<?xml version="1.0" encoding="UTF-8" standalone="no"?>
<svg width="36px" height="36px" viewBox="0 0 36 36" version="1.1" xmlns="http://www.w3.org/2000/svg" xmlns:xlink="http://www.w3.org/1999/xlink">
    <!-- Generator: Sketch 3.8.3 (29802) - http://www.bohemiancoding.com/sketch -->
    <title>Group 2</title>
    <desc>Created with Sketch.</desc>
    <defs>
        <polyline id="path-1" points="0 0.115782434 29.4802497 0.115782434 29.4802497 30.8365277 0 30.8365277"></polyline>
        <polyline id="path-3" points="0 0.115782434 29.4802497 0.115782434 29.4802497 30.8365277 0 30.8365277"></polyline>
    </defs>
    <g id="Tablet/Desktop" stroke="none" stroke-width="1" fill="none" fill-rule="evenodd">
        <g id="Tablet-Landscape---Horário" transform="translate(-385.000000, -133.000000)">
            <g id="Group-2"></g>
            <g id="Group-3" transform="translate(388.000000, 134.000000)">
                <g id="Calendário-Ícone">
                    <path d="M27.6382739,7.0656376 C27.6382739,6.31334269 27.0331109,5.70243035 26.2886049,5.70243035 L3.19394803,5.70243035 C2.44713884,5.70243035 1.8419758,6.31334269 1.8419758,7.0656376 L1.8419758,27.6091651 C1.8419758,28.3637873 2.44713884,28.9752815 3.19394803,28.9752815 L26.2886049,28.9752815 C27.0331109,28.9752815 27.6382739,28.3637873 27.6382739,27.6091651 L27.6382739,7.0656376 Z M29.4802497,27.6091651 C29.4802497,29.3907019 28.0522722,30.8365277 26.2886049,30.8365277 L3.19394803,30.8365277 C1.43028068,30.8365277 0,29.3907019 0,27.6091651 L0,7.0656376 C0,5.28410085 1.43028068,3.83827497 3.19394803,3.83827497 L26.2886049,3.83827497 C28.0522722,3.83827497 29.4802497,5.28410085 29.4802497,7.0656376 L29.4802497,27.6091651 Z" id="Fill-1" fill="#FEFEFE"></path>
                    <path d="M24.4624059,27.5773977 L21.5540534,27.5773977 C21.3001268,27.5773977 21.0951429,27.3708511 21.0951429,27.110777 C21.0951429,26.8547756 21.3001268,26.6476473 21.5540534,26.6476473 L24.4624059,26.6476473 C24.9167101,26.6476473 25.240884,26.5685196 25.240884,25.548005 C25.240884,25.29084 25.4925074,25.0842935 25.7487373,25.0842935 C26.0032397,25.0842935 26.2571663,25.29084 26.2571663,25.548005 L26.2571663,25.7161514 C26.2571663,25.743497 26.2076478,25.7708426 26.2030414,25.7952791 C26.1333699,26.9798672 25.5195699,27.5773977 24.4624059,27.5773977" id="Fill-3" fill="#FEFEFE"></path>
                    <path d="M25.737682,24.045568 C25.6138855,24.045568 25.4969986,23.993204 25.4117806,23.9094218 C25.32829,23.8227304 25.2764683,23.7046207 25.2764683,23.5795291 C25.2764683,23.4590921 25.32829,23.3363278 25.4117806,23.2502183 C25.5822167,23.0774174 25.8908441,23.0774174 26.0658865,23.2502183 C26.1470739,23.3363278 26.1988956,23.4590921 26.1988956,23.5795291 C26.1988956,23.6999661 26.1470739,23.8227304 26.0658865,23.9094218 C25.9783653,23.993204 25.856872,24.045568 25.737682,24.045568" id="Fill-5" fill="#FEFEFE"></path>
                    <path d="M6.81508013,16.8728171 L6.35386644,16.8728171 C6.09993979,16.8728171 5.89265274,16.6633614 5.89265274,16.4067782 C5.89265274,16.150195 6.09993979,15.9407394 6.35386644,15.9407394 L6.81508013,15.9407394 C7.06900677,15.9407394 7.27629383,16.150195 7.27629383,16.4067782 C7.27629383,16.6633614 7.06900677,16.8728171 6.81508013,16.8728171" id="Fill-7" fill="#FEFEFE"></path>
                    <path d="M10.0407546,16.8728171 L9.5795409,16.8728171 C9.32503846,16.8728171 9.1183272,16.6633614 9.1183272,16.4067782 C9.1183272,16.150195 9.32503846,15.9407394 9.5795409,15.9407394 L10.0407546,15.9407394 C10.2946812,15.9407394 10.4990893,16.150195 10.4990893,16.4067782 C10.4990893,16.6633614 10.2946812,16.8728171 10.0407546,16.8728171" id="Fill-9" fill="#FEFEFE"></path>
                    <path d="M13.2636077,16.8728171 L12.802394,16.8728171 C12.5484673,16.8728171 12.3440592,16.6633614 12.3440592,16.4067782 C12.3440592,16.150195 12.5484673,15.9407394 12.802394,15.9407394 L13.2636077,15.9407394 C13.5181101,15.9407394 13.7248214,16.150195 13.7248214,16.4067782 C13.7248214,16.6633614 13.5181101,16.8728171 13.2636077,16.8728171" id="Fill-11" fill="#FEFEFE"></path>
                    <path d="M16.0278381,16.8728171 L15.5666244,16.8728171 C15.3126978,16.8728171 15.1054107,16.6633614 15.1054107,16.4067782 C15.1054107,16.150195 15.3126978,15.9407394 15.5666244,15.9407394 L16.0278381,15.9407394 C16.2817647,15.9407394 16.4890518,16.150195 16.4890518,16.4067782 C16.4890518,16.6633614 16.2817647,16.8728171 16.0278381,16.8728171" id="Fill-13" fill="#FEFEFE"></path>
                    <path d="M19.2532247,16.8728171 L18.792011,16.8728171 C18.5380843,16.8728171 18.3307973,16.6633614 18.3307973,16.4067782 C18.3307973,16.150195 18.5380843,15.9407394 18.792011,15.9407394 L19.2532247,15.9407394 C19.5071513,15.9407394 19.7121352,16.150195 19.7121352,16.4067782 C19.7121352,16.6633614 19.5071513,16.8728171 19.2532247,16.8728171" id="Fill-15" fill="#FEFEFE"></path>
                    <path d="M22.4763656,16.8728171 L22.0151519,16.8728171 C21.7612253,16.8728171 21.5562414,16.6633614 21.5562414,16.4067782 C21.5562414,16.150195 21.7612253,15.9407394 22.0151519,15.9407394 L22.4763656,15.9407394 C22.7302923,15.9407394 22.9375793,16.150195 22.9375793,16.4067782 C22.9375793,16.6633614 22.7302923,16.8728171 22.4763656,16.8728171" id="Fill-17" fill="#FEFEFE"></path>
                    <path d="M6.81508013,19.6660247 L6.35386644,19.6660247 C6.09993979,19.6660247 5.89265274,19.4571508 5.89265274,19.1999858 C5.89265274,18.9428208 6.09993979,18.733947 6.35386644,18.733947 L6.81508013,18.733947 C7.06900677,18.733947 7.27629383,18.9428208 7.27629383,19.1999858 C7.27629383,19.4571508 7.06900677,19.6660247 6.81508013,19.6660247" id="Fill-19" fill="#FEFEFE"></path>
                    <path d="M10.0407546,19.6660247 L9.5795409,19.6660247 C9.32503846,19.6660247 9.1183272,19.4571508 9.1183272,19.1999858 C9.1183272,18.9428208 9.32503846,18.733947 9.5795409,18.733947 L10.0407546,18.733947 C10.2946812,18.733947 10.4990893,18.9428208 10.4990893,19.1999858 C10.4990893,19.4571508 10.2946812,19.6660247 10.0407546,19.6660247" id="Fill-21" fill="#FEFEFE"></path>
                    <path d="M13.2636077,19.6660247 L12.802394,19.6660247 C12.5484673,19.6660247 12.3440592,19.4571508 12.3440592,19.1999858 C12.3440592,18.9428208 12.5484673,18.733947 12.802394,18.733947 L13.2636077,18.733947 C13.5181101,18.733947 13.7248214,18.9428208 13.7248214,19.1999858 C13.7248214,19.4571508 13.5181101,19.6660247 13.2636077,19.6660247" id="Fill-23" fill="#FEFEFE"></path>
                    <path d="M16.0278381,19.6660247 L15.5666244,19.6660247 C15.3126978,19.6660247 15.1054107,19.4571508 15.1054107,19.1999858 C15.1054107,18.9428208 15.3126978,18.733947 15.5666244,18.733947 L16.0278381,18.733947 C16.2817647,18.733947 16.4890518,18.9428208 16.4890518,19.1999858 C16.4890518,19.4571508 16.2817647,19.6660247 16.0278381,19.6660247" id="Fill-25" fill="#FEFEFE"></path>
                    <path d="M19.2532247,19.6660247 L18.792011,19.6660247 C18.5380843,19.6660247 18.3307973,19.4571508 18.3307973,19.1999858 C18.3307973,18.9428208 18.5380843,18.733947 18.792011,18.733947 L19.2532247,18.733947 C19.5071513,18.733947 19.7121352,18.9428208 19.7121352,19.1999858 C19.7121352,19.4571508 19.5071513,19.6660247 19.2532247,19.6660247" id="Fill-27" fill="#FEFEFE"></path>
                    <path d="M22.4763656,19.6660247 L22.0151519,19.6660247 C21.7612253,19.6660247 21.5562414,19.4571508 21.5562414,19.1999858 C21.5562414,18.9428208 21.7612253,18.733947 22.0151519,18.733947 L22.4763656,18.733947 C22.7302923,18.733947 22.9375793,18.9428208 22.9375793,19.1999858 C22.9375793,19.4571508 22.7302923,19.6660247 22.4763656,19.6660247" id="Fill-29" fill="#FEFEFE"></path>
                    <path d="M6.81508013,25.2501126 L6.35386644,25.2501126 C6.09993979,25.2501126 5.89265274,25.043566 5.89265274,24.7834919 C5.89265274,24.5274905 6.09993979,24.3203622 6.35386644,24.3203622 L6.81508013,24.3203622 C7.06900677,24.3203622 7.27629383,24.5274905 7.27629383,24.7834919 C7.27629383,25.043566 7.06900677,25.2501126 6.81508013,25.2501126" id="Fill-31" fill="#FEFEFE"></path>
                    <path d="M10.0407546,25.2501126 L9.5795409,25.2501126 C9.32503846,25.2501126 9.1183272,25.043566 9.1183272,24.7834919 C9.1183272,24.5274905 9.32503846,24.3203622 9.5795409,24.3203622 L10.0407546,24.3203622 C10.2946812,24.3203622 10.4990893,24.5274905 10.4990893,24.7834919 C10.4990893,25.043566 10.2946812,25.2501126 10.0407546,25.2501126" id="Fill-33" fill="#FEFEFE"></path>
                    <path d="M13.2636077,25.2501126 L12.802394,25.2501126 C12.5484673,25.2501126 12.3440592,25.043566 12.3440592,24.7834919 C12.3440592,24.5274905 12.5484673,24.3203622 12.802394,24.3203622 L13.2636077,24.3203622 C13.5181101,24.3203622 13.7248214,24.5274905 13.7248214,24.7834919 C13.7248214,25.043566 13.5181101,25.2501126 13.2636077,25.2501126" id="Fill-35" fill="#FEFEFE"></path>
                    <path d="M16.0278381,25.2501126 L15.5666244,25.2501126 C15.3126978,25.2501126 15.1054107,25.043566 15.1054107,24.7834919 C15.1054107,24.5274905 15.3126978,24.3203622 15.5666244,24.3203622 L16.0278381,24.3203622 C16.2817647,24.3203622 16.4890518,24.5274905 16.4890518,24.7834919 C16.4890518,25.043566 16.2817647,25.2501126 16.0278381,25.2501126" id="Fill-37" fill="#FEFEFE"></path>
                    <path d="M6.81508013,22.4563813 L6.35386644,22.4563813 C6.09993979,22.4563813 5.89265274,22.2504166 5.89265274,21.9932516 C5.89265274,21.7343411 6.09993979,21.5272127 6.35386644,21.5272127 L6.81508013,21.5272127 C7.06900677,21.5272127 7.27629383,21.7343411 7.27629383,21.9932516 C7.27629383,22.2504166 7.06900677,22.4563813 6.81508013,22.4563813" id="Fill-39" fill="#FEFEFE"></path>
                    <path d="M10.0407546,22.4563813 L9.5795409,22.4563813 C9.32503846,22.4563813 9.1183272,22.2504166 9.1183272,21.9932516 C9.1183272,21.7343411 9.32503846,21.5272127 9.5795409,21.5272127 L10.0407546,21.5272127 C10.2946812,21.5272127 10.4990893,21.7343411 10.4990893,21.9932516 C10.4990893,22.2504166 10.2946812,22.4563813 10.0407546,22.4563813" id="Fill-41" fill="#FEFEFE"></path>
                    <path d="M13.2636077,22.4563813 L12.802394,22.4563813 C12.5484673,22.4563813 12.3440592,22.2504166 12.3440592,21.9932516 C12.3440592,21.7343411 12.5484673,21.5272127 12.802394,21.5272127 L13.2636077,21.5272127 C13.5181101,21.5272127 13.7248214,21.7343411 13.7248214,21.9932516 C13.7248214,22.2504166 13.5181101,22.4563813 13.2636077,22.4563813" id="Fill-43" fill="#FEFEFE"></path>
                    <path d="M16.0278381,22.4563813 L15.5666244,22.4563813 C15.3126978,22.4563813 15.1054107,22.2504166 15.1054107,21.9932516 C15.1054107,21.7343411 15.3126978,21.5272127 15.5666244,21.5272127 L16.0278381,21.5272127 C16.2817647,21.5272127 16.4890518,21.7343411 16.4890518,21.9932516 C16.4890518,22.2504166 16.2817647,22.4563813 16.0278381,22.4563813" id="Fill-45" fill="#FEFEFE"></path>
                    <path d="M19.2532247,22.4563813 L18.792011,22.4563813 C18.5380843,22.4563813 18.3307973,22.2504166 18.3307973,21.9932516 C18.3307973,21.7343411 18.5380843,21.5272127 18.792011,21.5272127 L19.2532247,21.5272127 C19.5071513,21.5272127 19.7121352,21.7343411 19.7121352,21.9932516 C19.7121352,22.2504166 19.5071513,22.4563813 19.2532247,22.4563813" id="Fill-47" fill="#FEFEFE"></path>
                    <path d="M22.4763656,22.4563813 L22.0151519,22.4563813 C21.7612253,22.4563813 21.5562414,22.2504166 21.5562414,21.9932516 C21.5562414,21.7343411 21.7612253,21.5272127 22.0151519,21.5272127 L22.4763656,21.5272127 C22.7302923,21.5272127 22.9375793,21.7343411 22.9375793,21.9932516 C22.9375793,22.2504166 22.7302923,22.4563813 22.4763656,22.4563813" id="Fill-49" fill="#FEFEFE"></path>
                    <g id="Group-53">
                        <mask id="mask-2" fill="white">
                            <use xlink:href="#path-1"></use>
                        </mask>
                        <g id="Clip-52"></g>
                        <path d="M6.44846994,8.95882586 C5.94004086,8.95882586 5.52892154,8.54282364 5.52892154,8.02965728 L5.52892154,1.04780194 C5.52892154,0.534053751 5.94004086,0.115724252 6.44846994,0.115724252 C6.95689902,0.115724252 7.37089734,0.534053751 7.37089734,1.04780194 L7.37089734,8.02965728 C7.37089734,8.54282364 6.95689902,8.95882586 6.44846994,8.95882586" id="Fill-51" fill="#FEFEFE" mask="url(#mask-2)"></path>
                    </g>
                    <g id="Group-56">
                        <mask id="mask-4" fill="white">
                            <use xlink:href="#path-3"></use>
                        </mask>
                        <g id="Clip-55"></g>
                        <path d="M22.5707964,8.95882586 C22.0623673,8.95882586 21.6506722,8.54282364 21.6506722,8.02965728 L21.6506722,1.04780194 C21.6506722,0.534053751 22.0623673,0.115724252 22.5707964,0.115724252 C23.0792255,0.115724252 23.4932238,0.534053751 23.4932238,1.04780194 L23.4932238,8.02965728 C23.4932238,8.54282364 23.0792255,8.95882586 22.5707964,8.95882586" id="Fill-54" fill="#FEFEFE" mask="url(#mask-4)"></path>
                    </g>
                    <path d="M28.4659826,12.6841693 L0.827708724,12.6841693 C0.571478893,12.6841693 0.367070826,12.4747137 0.367070826,12.2181305 C0.367070826,11.9609655 0.571478893,11.7520916 0.827708724,11.7520916 L28.4659826,11.7520916 C28.7199093,11.7520916 28.9248932,11.9609655 28.9248932,12.2181305 C28.9248932,12.4747137 28.7199093,12.6841693 28.4659826,12.6841693" id="Fill-57" fill="#FEFEFE"></path>
                </g>
            </g>
        </g>
    </g>
</svg>