<?xml version="1.0" encoding="UTF-8" standalone="no"?>
<svg width="64px" height="61px" viewBox="0 0 64 61" version="1.1" xmlns="http://www.w3.org/2000/svg" xmlns:xlink="http://www.w3.org/1999/xlink">
    <!-- Generator: Sketch 3.8.3 (29802) - http://www.bohemiancoding.com/sketch -->
    <title>Tablet Landscape - Aviso</title>
    <desc>Created with Sketch.</desc>
    <defs>
        <linearGradient x1="0%" y1="100.644839%" x2="100%" y2="0%" id="linearGradient-1">
            <stop stop-color="#C000E4" offset="0%"></stop>
            <stop stop-color="#1E7AF4" offset="100%"></stop>
        </linearGradient>
    </defs>
    <g id="Tablet/Desktop" stroke="none" stroke-width="1" fill="none" fill-rule="evenodd">
        <g id="Tablet-Landscape---Aviso" transform="translate(-480.000000, -483.000000)">
            <g id="Group-2">
                <rect id="Rectangle-1" fill="url(#linearGradient-1)" x="0" y="0" width="1024" height="672"></rect>
                <rect id="Rectangle-29" fill="#BD0FE1" x="62" y="36" width="900" height="600"></rect>
            </g>
            <g id="Group" transform="translate(262.000000, 132.000000)" fill="#FFFFFF" opacity="0.9">
                <g id="OK-Negativo" transform="translate(223.000000, 353.000000)">
                    <path d="M55,46.7063492 C55,51.2870635 51.2870635,55 46.7063492,55 L8.29365079,55 C3.71293651,55 0,51.2870635 0,46.7063492 L0,8.29365079 C0,3.71293651 3.71293651,0 8.29365079,0 L46.7063492,0 C51.2870635,0 55,3.71293651 55,8.29365079 L55,46.7063492 Z M10.268,26.576 C10.268,25.2159932 10.4919978,23.9800056 10.94,22.868 C11.3880022,21.7559944 12.007996,20.8080039 12.8,20.024 C13.592004,19.2399961 14.5359945,18.6360021 15.632,18.212 C16.7280055,17.7879979 17.9319934,17.576 19.244,17.576 C20.5720066,17.5599999 21.7879945,17.755998 22.892,18.164 C23.9960055,18.572002 24.947996,19.1679961 25.748,19.952 C26.548004,20.7360039 27.1719978,21.6799945 27.62,22.784 C28.0680022,23.8880055 28.292,25.1199932 28.292,26.48 C28.292,27.8080066 28.0680022,29.0159946 27.62,30.104 C27.1719978,31.1920054 26.548004,32.1279961 25.748,32.912 C24.947996,33.6960039 23.9960055,34.3079978 22.892,34.748 C21.7879945,35.1880022 20.5720066,35.4159999 19.244,35.432 C17.9319934,35.432 16.7280055,35.2200021 15.632,34.796 C14.5359945,34.3719979 13.592004,33.7720039 12.8,32.996 C12.007996,32.2199961 11.3880022,31.2880054 10.94,30.2 C10.4919978,29.1119946 10.268,27.9040066 10.268,26.576 Z M31.172,18.008 L34.196,18.008 L34.196,25.208 L34.34,25.208 L41.372,18.008 L45.452,18.008 L37.508,25.856 L45.98,35 L41.732,35 L34.364,26.648 L34.196,26.648 L34.196,35 L31.172,35 L31.172,18.008 Z" id="Combined-Shape"></path>
                    <path d="M13.436,26.384 C13.436,27.2960046 13.5759986,28.1359962 13.856,28.904 C14.1360014,29.6720038 14.5319974,30.3359972 15.044,30.896 C15.5560026,31.4560028 16.1679964,31.8959984 16.88,32.216 C17.5920036,32.5360016 18.3879956,32.696 19.268,32.696 C20.1480044,32.696 20.9479964,32.5360016 21.668,32.216 C22.3880036,31.8959984 23.0039974,31.4560028 23.516,30.896 C24.0280026,30.3359972 24.4239986,29.6720038 24.704,28.904 C24.9840014,28.1359962 25.124,27.2960046 25.124,26.384 C25.124,25.5359958 24.9840014,24.7440037 24.704,24.008 C24.4239986,23.2719963 24.0280026,22.6280028 23.516,22.076 C23.0039974,21.5239972 22.3880036,21.0920016 21.668,20.78 C20.9479964,20.4679984 20.1480044,20.312 19.268,20.312 C18.3879956,20.312 17.5920036,20.4679984 16.88,20.78 C16.1679964,21.0920016 15.5560026,21.5239972 15.044,22.076 C14.5319974,22.6280028 14.1360014,23.2719963 13.856,24.008 C13.5759986,24.7440037 13.436,25.5359958 13.436,26.384 L13.436,26.384 Z" id="OK-Copy"></path>
                </g>
            </g>
        </g>
    </g>
</svg>