<?xml version="1.0" encoding="UTF-8" standalone="no"?>
<svg width="39px" height="36px" viewBox="0 0 39 36" version="1.1" xmlns="http://www.w3.org/2000/svg" xmlns:xlink="http://www.w3.org/1999/xlink">
    <!-- Generator: Sketch 3.8.3 (29802) - http://www.bohemiancoding.com/sketch -->
    <title>Tablet Landscape - Aviso</title>
    <desc>Created with Sketch.</desc>
    <defs></defs>
    <g id="Tablet/Desktop" stroke="none" stroke-width="1" fill="none" fill-rule="evenodd">
        <g id="Tablet-Landscape---Aviso" transform="translate(-635.000000, -527.000000)" fill="#FFFFFF">
            <g id="Group-2">
                <g id="Group-4" transform="translate(356.000000, 530.000000)">
                    <g id="Group-3" transform="translate(298.000000, 15.000000) rotate(-90.000000) translate(-298.000000, -15.000000) translate(283.000000, 0.000000)">
                        <path d="M28.5714286,4.52380952 C28.5714286,2.81428571 27.1857143,1.42857143 25.4761905,1.42857143 L4.52380952,1.42857143 C2.81428571,1.42857143 1.42857143,2.81428571 1.42857143,4.52380952 L1.42857143,25.4761905 C1.42857143,27.1857143 2.81428571,28.5714286 4.52380952,28.5714286 L25.4761905,28.5714286 C27.1857143,28.5714286 28.5714286,27.1857143 28.5714286,25.4761905 L28.5714286,4.52380952 Z M30,25.4761905 C30,27.9747619 27.9747619,30 25.4761905,30 L4.52380952,30 C2.0252381,30 0,27.9747619 0,25.4761905 L0,4.52380952 C0,2.0252381 2.0252381,0 4.52380952,0 L25.4761905,0 C27.9747619,0 30,2.0252381 30,4.52380952 L30,25.4761905 Z" id="Fill-1"></path>
                        <path d="M9.10295238,13.6490952 C9.03580952,13.6490952 8.97342857,13.6638571 8.91628571,13.6943333 C8.7667619,13.773381 8.7267619,13.9052857 8.71580952,13.9771905 C8.69485714,14.1171905 8.74247619,14.2576667 8.84771429,14.3629048 L14.9172381,20.4319524 C15.0981905,20.6129048 15.4010476,20.6238571 15.5677143,20.4571905 L21.4553333,14.5695714 C21.574381,14.4505238 21.5734286,14.3062381 21.5634286,14.231 C21.5424762,14.0852857 21.454381,13.9605238 21.3234286,13.888619 C21.1553333,13.7957619 20.9505714,13.8205238 20.8277143,13.943381 L16.3115238,18.4600476 C15.7205714,19.0505238 14.6824762,19.0414762 14.082,18.4414762 L9.42628571,13.7852857 C9.33914286,13.698619 9.22152381,13.6490952 9.10295238,13.6490952 M15.2653333,22.008619 C14.754381,22.008619 14.2715238,21.8071905 13.9067619,21.4419524 L7.83771429,15.3729048 C7.41438095,14.9495714 7.21438095,14.3481429 7.30342857,13.763381 C7.39057143,13.1871905 7.73485714,12.7019524 8.24819048,12.4314762 C8.95057143,12.0619524 9.87104762,12.2105238 10.4358095,12.7748095 L15.092,17.4314762 C15.2015238,17.5395714 15.2615238,17.488619 15.3010476,17.4500476 L19.8181905,12.9329048 C20.3800952,12.371 21.2986667,12.2462381 22.0081905,12.6343333 C22.5400952,12.9262381 22.8924762,13.4343333 22.9777143,14.0290952 C23.0605714,14.6067143 22.8734286,15.1714762 22.4658095,15.5795714 L16.5777143,21.4676667 C16.2286667,21.8162381 15.7624762,22.008619 15.2653333,22.008619" id="Fill-3"></path>
                    </g>
                </g>
            </g>
        </g>
    </g>
</svg>