<?xml version="1.0" encoding="UTF-8" standalone="no"?>
<svg width="35px" height="29px" viewBox="0 0 35 29" version="1.1" xmlns="http://www.w3.org/2000/svg" xmlns:xlink="http://www.w3.org/1999/xlink">
    <!-- Generator: Sketch 39.1 (31720) - http://www.bohemiancoding.com/sketch -->
    <title>iPhone4 - Pesquisa</title>
    <desc>Created with Sketch.</desc>
    <defs></defs>
    <g id="Mobile" stroke="none" stroke-width="1" fill="none" fill-rule="evenodd">
        <g id="iPhone4---Pesquisa" transform="translate(-143.000000, -282.000000)">
            <g id="Group" transform="translate(147.000000, 284.000000)">
                <g id="Page-1">
                    <g id="Group-3" opacity="0.3" transform="translate(1.000000, 0.038815)" fill="#DBDCDE">
                        <path d="M12.4611565,1.23581409 C6.23417056,1.23581409 1.16828271,6.2602917 1.16828271,12.4361179 C1.16828271,18.6119442 6.23417056,23.6364218 12.4611565,23.6364218 C18.6880257,23.6364218 23.7539136,18.6119442 23.7539136,12.4361179 C23.7539136,6.2602917 18.6880257,1.23581409 12.4611565,1.23581409 M12.4611565,24.7950699 C5.59001168,24.7950699 5.84112149e-05,19.2508228 5.84112149e-05,12.4361179 C5.84112149e-05,5.62141312 5.59001168,0.0771659653 12.4611565,0.0771659653 C19.3320678,0.0771659653 24.9221379,5.62141312 24.9221379,12.4361179 C24.9221379,19.2508228 19.3320678,24.7950699 12.4611565,24.7950699" id="Fill-1"></path>
                    </g>
                    <g id="Group-6" transform="translate(0.000000, 0.038815)" fill="#FEFEFE">
                        <path d="M2.25138382,13.7985252 C2.93125211,19.3342453 7.69911294,23.6364218 13.4611565,23.6364218 C19.6881425,23.6364218 24.7539136,18.6119442 24.7539136,12.4360021 C24.7539136,6.26017583 19.6881425,1.23569823 13.4611565,1.23569823 L13.4611565,0.0770501005 C20.3321846,0.0770501005 25.9221379,5.62129726 25.9221379,12.4360021 C25.9221379,19.2507069 20.3321846,24.7950699 13.4611565,24.7950699 C7.10460522,24.7950699 1.84452953,20.0500661 1.09230739,13.9439313 C0.462000037,13.7663219 0,13.1871139 0,12.5 C0,11.6715729 0.671572875,11 1.5,11 C2.32842712,11 3,11.6715729 3,12.5 C3,13.0546404 2.6989716,13.5389718 2.25138382,13.7985252 Z" id="Combined-Shape"></path>
                    </g>
                </g>
                <text id="07" font-family="Avenir-Book, Avenir" font-size="12" font-weight="normal" fill="#FFFFFF">
                    <tspan x="7.328" y="17">07</tspan>
                </text>
            </g>
        </g>
    </g>
</svg>