<?xml version="1.0" encoding="utf-8"?>
<!-- Generator: Adobe Illustrator 16.0.0, SVG Export Plug-In . SVG Version: 6.00 Build 0)  -->
<!DOCTYPE svg PUBLIC "-//W3C//DTD SVG 1.1//EN" "http://www.w3.org/Graphics/SVG/1.1/DTD/svg11.dtd">
<svg version="1.1" id="Layer_1" xmlns="http://www.w3.org/2000/svg" xmlns:xlink="http://www.w3.org/1999/xlink" x="0px" y="0px"
	 width="60.012px" height="60px" viewBox="0 0 60.012 60" enable-background="new 0 0 60.012 60" xml:space="preserve">
<g>
	<path fill="#FFFFFF" d="M50.952,0H9.048C4.051,0,0,4.05,0,9.048v41.903c0,4.998,4.051,9.048,9.048,9.048h41.904
		c4.995,0,9.048-4.05,9.048-9.048V9.048C60,4.05,55.948,0,50.952,0z M30.322,34.497c-0.562,1.388-1.337,2.59-2.324,3.608
		c-0.99,1.021-2.179,1.82-3.564,2.401c-1.387,0.581-2.907,0.872-4.559,0.872s-3.171-0.291-4.559-0.871
		c-1.387-0.58-2.574-1.381-3.563-2.4c-0.989-1.021-1.765-2.223-2.325-3.609C8.866,33.109,8.586,31.611,8.586,30
		c0-1.611,0.28-3.11,0.841-4.498c0.562-1.387,1.336-2.589,2.325-3.609c0.989-1.019,2.178-1.82,3.563-2.401
		c1.388-0.581,2.906-0.872,4.559-0.872c1.651,0,3.172,0.291,4.559,0.872c1.387,0.582,2.574,1.382,3.564,2.401
		c0.987,1.021,1.763,2.223,2.324,3.609c0.562,1.388,0.841,2.887,0.841,4.498C31.162,31.611,30.883,33.109,30.322,34.497z
		 M47.132,40.828L37.036,30h-0.245v10.828h-2.937V19.17h2.937v9.361h0.245l9.574-9.361h4.101L40.247,29.174l11.168,11.654H47.132z"
		/>
	<path fill="#FFFFFF" d="M25.809,23.912c-0.715-0.775-1.57-1.393-2.57-1.852c-0.998-0.459-2.119-0.688-3.364-0.688
		c-1.244,0-2.365,0.229-3.364,0.688s-1.856,1.076-2.57,1.852s-1.265,1.688-1.651,2.738c-0.388,1.051-0.58,2.166-0.58,3.35
		c0,1.184,0.192,2.299,0.58,3.35s0.938,1.963,1.651,2.738s1.571,1.393,2.57,1.85c0.999,0.459,2.12,0.689,3.364,0.689
		c1.245,0,2.366-0.229,3.364-0.689c1-0.457,1.855-1.074,2.57-1.85c0.714-0.775,1.266-1.688,1.651-2.738
		c0.388-1.051,0.582-2.166,0.582-3.35c0-1.184-0.194-2.299-0.582-3.35C27.073,25.599,26.522,24.687,25.809,23.912z"/>
</g>
</svg>
