<?xml version="1.0" encoding="UTF-8" standalone="no"?>
<svg width="104px" height="81px" viewBox="0 0 104 81" version="1.1" xmlns="http://www.w3.org/2000/svg" xmlns:xlink="http://www.w3.org/1999/xlink">
    <!-- Generator: Sketch 40 (33762) - http://www.bohemiancoding.com/sketch -->
    <title>iPhone 4 - VALEU</title>
    <desc>Created with Sketch.</desc>
    <defs>
        <polygon id="path-1" points="0.000178654606 59.6238532 78.6407415 59.6238532 78.6407415 0.578124685 0.000178654606 0.578124685 0.000178654606 59.6238532"></polygon>
        <polygon id="path-3" points="93.8331722 63.9032192 93.8331722 0.604491547 0.526517124 0.604491547 0.526517124 63.9032192 93.8331722 63.9032192"></polygon>
        <rect id="path-5" x="0" y="0" width="320" height="64"></rect>
        <filter x="-50%" y="-50%" width="200%" height="200%" filterUnits="objectBoundingBox" id="filter-6">
            <feOffset dx="0" dy="0.5" in="SourceAlpha" result="shadowOffsetOuter1"></feOffset>
            <feComposite in="shadowOffsetOuter1" in2="SourceAlpha" operator="out" result="shadowOffsetOuter1"></feComposite>
            <feColorMatrix values="0 0 0 0 0   0 0 0 0 0   0 0 0 0 0  0 0 0 0.3 0" type="matrix" in="shadowOffsetOuter1"></feColorMatrix>
        </filter>
        <path d="M1.25,0 L21.25,0 C21.9404167,0 22.5,0.580367801 22.5,1.29546384 L22.5,8.20460434 C22.5,8.9201322 21.94,9.5005 21.25,9.5005 L1.25,9.5005 C0.559583333,9.5005 0,8.9201322 0,8.20460434 L0,1.29546384 C0,0.580367801 0.559583333,0 1.25,0 L1.25,0 Z" id="path-7"></path>
        <mask id="mask-8" maskContentUnits="userSpaceOnUse" maskUnits="objectBoundingBox" x="0" y="0" width="22.5" height="9.5005" fill="white">
            <use xlink:href="#path-7"></use>
        </mask>
        <path d="M33.5483842,2.75 C33.5483842,4.26878571 32.3062501,5.5 30.773994,5.5 C29.2417379,5.5 28.0000001,4.26917857 28.0000001,2.75 C27.9996038,1.23121429 29.2417379,0 30.773994,0 C32.3062501,0 33.5483842,1.23121429 33.5483842,2.75 Z" id="path-9"></path>
        <mask id="mask-10" maskContentUnits="userSpaceOnUse" maskUnits="objectBoundingBox" x="0" y="0" width="5.54838424" height="5.5" fill="white">
            <use xlink:href="#path-9"></use>
        </mask>
        <rect id="path-11" x="0" y="0" width="320" height="44"></rect>
        <filter x="-50%" y="-50%" width="200%" height="200%" filterUnits="objectBoundingBox" id="filter-12">
            <feOffset dx="0" dy="-0.5" in="SourceAlpha" result="shadowOffsetOuter1"></feOffset>
            <feComposite in="shadowOffsetOuter1" in2="SourceAlpha" operator="out" result="shadowOffsetOuter1"></feComposite>
            <feColorMatrix values="0 0 0 0 0   0 0 0 0 0   0 0 0 0 0  0 0 0 0.3 0" type="matrix" in="shadowOffsetOuter1"></feColorMatrix>
        </filter>
        <path d="M263.5,8 L263.5,27 L282.5,27 L282.5,8 L263.5,8 Z M269,3.5 L270,3.5 L270,7 L269,7 L269,3.5 Z M269,2.5 L288,2.5 L288,3.5 L269,3.5 L269,2.5 Z M287,3.5 L288,3.5 L288,21.5 L287,21.5 L287,3.5 Z M283.5,20.5 L287,20.5 L287,21.5 L283.5,21.5 L283.5,20.5 Z" id="path-13"></path>
        <mask id="mask-14" maskContentUnits="userSpaceOnUse" maskUnits="objectBoundingBox" x="0" y="0" width="24.5" height="24.5" fill="white">
            <use xlink:href="#path-13"></use>
        </mask>
    </defs>
    <g id="Mobile" stroke="none" stroke-width="1" fill="none" fill-rule="evenodd">
        <g id="iPhone-4---VALEU" transform="translate(-192.000000, -83.000000)">
            <g id="Page-1" transform="translate(197.000000, 89.000000)">
                <path d="M73.4366118,63.0120248 C61.4003679,66.1186119 31.2721797,54.349355 26.5304984,49.6550523 C18.9895187,53.5650248 10.0051508,55.4385661 1.74771337,55.2400248 C4.75092193,52.9189972 10.7086717,46.3351716 11.794139,44.9318596 C12.2617155,44.3276303 14.3457882,41.3919239 14.3457882,41.3919239 C4.04370481,35.3760615 1.95100749,19.5874193 9.95894759,10.7944376 C11.0561198,9.58229083 12.2771166,8.5109055 13.5905198,7.55323578 C10.4998332,9.01432752 7.72948877,10.9524101 5.46306738,13.4541532 C-2.54425668,22.2483642 -0.480513369,37.1991991 9.8221861,43.2156761 C9.8221861,43.2156761 7.76583529,46.9879606 7.29825882,47.5928046 C6.21402353,48.9955018 4.75092193,52.9189972 1.74771337,55.2400248 C10.0051508,55.4385661 14.5915893,55.0580798 22.6457326,51.4406945 C27.388646,56.1349972 56.9026396,68.7789422 68.9401155,65.6729697 C72.2291679,64.8247128 75.3032214,63.3187495 78.0236663,61.3474743 C76.5531722,62.0377587 75.0216898,62.6032633 73.4366118,63.0120248" id="Fill-1" fill="#FEFEFE"></path>
                <g id="Group-5" transform="translate(0.000000, 6.771917)">
                    <mask id="mask-2" fill="white">
                        <use xlink:href="#path-1"></use>
                    </mask>
                    <g id="Clip-4"></g>
                    <path d="M73.1244013,56.0360339 C64.7702451,58.0257495 54.832243,54.667144 46.9622965,52.0738138 C42.9493938,50.7516394 39.0054879,49.2130982 35.1595328,47.4698688 C32.44032,46.2374376 29.3262237,44.8943642 27.1226387,42.8124468 C26.8903906,42.5930064 26.3698344,42.5782541 26.0919991,42.7184009 C21.798181,44.8826853 17.2881318,46.3781991 12.5704761,47.3254193 C9.99541733,47.8429789 7.36676278,48.0906945 4.74488471,48.2099422 C4.74734888,48.2105569 2.68976599,48.2572725 2.70763123,48.2425202 C3.40375957,47.6856211 4.04875636,47.0623367 4.69560128,46.4513459 C8.51198631,42.8456394 11.905766,38.9461165 14.9422409,34.6777862 C14.9927564,34.6058688 14.9403927,34.5321073 14.8769403,34.4927679 C9.31345797,31.0702358 6.30408898,25.2357037 5.74349005,18.8368963 C5.11143016,11.6125752 8.44052535,5.20085963 14.12352,0.896877982 C14.512243,0.602446789 13.3522344,0.518850459 13.1532526,0.617813761 C3.33476278,5.45902477 -2.32297412,15.0326486 0.914946738,25.9081624 C1.56856813,28.1025661 2.69469433,30.1205569 4.05060449,31.9529147 C4.36848257,32.3825752 8.93027936,36.9324284 9.18039273,36.4751073 C6.98728043,40.4889606 4.71901091,45.3756578 1.21434353,48.3543917 C0.89769754,48.6236211 1.60922695,48.7078321 1.75153283,48.7102908 C9.37999059,48.870722 16.0640548,47.9235018 23.0838622,44.8341257 C22.7394943,44.8027771 22.3963585,44.7714284 22.0538387,44.7400798 C24.5531243,47.1121257 27.9549125,48.6260798 31.0252697,50.1037679 C36.515443,52.7450431 42.2551136,54.9062541 48.0847264,56.6728413 C53.0678965,58.183722 58.2334152,59.3884927 63.4543778,59.606089 C68.9950665,59.8359789 74.0509296,57.8370431 78.5591307,54.6911165 C78.9564783,54.4132817 77.7841489,54.3223092 77.5876312,54.4095936 C76.1239136,55.0666853 74.6737489,55.6033 73.1244013,56.0360339 C72.3549639,56.2511716 73.393612,56.5443734 73.7503007,56.4447954 C75.3723414,55.9917771 76.9260013,55.4305752 78.463028,54.7402908 C78.1396056,54.6474743 77.8161831,54.5534284 77.4927606,54.4606119 C72.2391478,58.1265569 66.9436441,59.588878 60.6427585,58.8949055 C55.4162516,58.3183367 50.2704462,56.8172908 45.299597,55.1601165 C40.7279435,53.6357128 36.2468483,51.8144193 31.892658,49.7527862 C28.9602943,48.365456 25.6250387,46.8594927 23.239105,44.598089 C22.9982323,44.3700431 22.4955414,44.3768046 22.2096975,44.5034284 C18.6902451,46.0530339 15.1239735,47.3118963 11.3094366,47.8896945 C9.71634995,48.131878 8.10170182,48.2044101 6.49198203,48.252355 C5.77552428,48.2744835 2.45751786,48.5240431 3.06247187,47.9148963 C6.15993497,44.7947862 8.31177241,40.3525018 10.4167906,36.5009239 C10.4592975,36.424089 10.4247991,36.358933 10.3533382,36.3165202 C4.33521626,32.6210706 1.16382802,26.1896853 1.18723765,19.2173826 C1.21434353,10.8700431 6.83881412,4.49336422 14.0274173,0.947281651 C13.7033788,0.853850459 13.3811884,0.760419266 13.0565339,0.666373394 C4.33644834,7.27109817 1.99548578,18.7219514 7.40002909,28.2857404 C8.53662802,30.2969697 10.1272505,31.9947128 11.9045339,33.4502725 C12.8255179,34.2026394 13.9805981,34.2438229 13.1939114,35.3465569 C12.5353617,36.2710339 11.8811243,37.1967404 11.1991649,38.1033917 C8.41526759,41.8111349 4.82312214,45.4641716 1.21434353,48.3543917 C0.887224813,48.616245 1.61661947,48.7084468 1.75153283,48.7102908 C10.4919478,48.8295385 19.1510451,46.9867312 26.9667799,43.0478688 C26.623028,43.0159055 26.2811243,42.9857862 25.9367564,42.9538229 C27.9727778,44.8789972 30.6895264,46.106511 33.1900441,47.3063642 C37.8165253,49.5259697 42.6567735,51.3196028 47.5382965,52.8962541 C55.5246751,55.4736028 65.3111307,58.4554101 73.7503007,56.4447954 C74.5258986,56.2591624 73.480474,55.9499789 73.1244013,56.0360339" id="Fill-3" fill="#221F20" mask="url(#mask-2)"></path>
                </g>
                <path d="M14.3458498,41.3920468 C4.04376642,35.3761844 1.95106909,19.5875422 9.9590092,10.7945606 C20.3146883,-0.636008257 41.1720488,-0.31022844 55.1352744,3.69870734 C67.1364039,7.30441376 82.2362284,14.5471752 89.7882969,25.1571477 C100.330637,39.6211569 89.3348894,58.9116248 73.4366734,63.0121477 C61.4004295,66.1187349 31.2722413,54.349478 26.53056,49.6545606 C18.9895803,53.5651477 10.0052124,55.438689 1.74777497,55.2401477 C4.75098353,52.9191202 10.7087333,46.3352945 11.7942006,44.9319826 C12.2617771,44.3271385 14.3458498,41.3920468 14.3458498,41.3920468" id="Fill-6" fill="#FEFEFE"></path>
                <g id="Group-10" transform="translate(0.616043, 0.010450)">
                    <mask id="mask-4" fill="white">
                        <use xlink:href="#path-3"></use>
                    </mask>
                    <g id="Clip-9"></g>
                    <path d="M14.1635628,41.1036394 C7.96617241,37.2926303 4.96974032,30.4205202 5.08370824,23.307456 C5.20383658,15.9061073 9.56480342,9.97445596 15.7548013,6.27900642 C28.1403414,-1.11865413 45.3045253,0.859997248 58.3135007,5.3619055 C71.8276312,10.0389972 90.4629253,19.4128505 92.5759521,35.2924651 C94.3193532,48.4097128 82.4118622,62.3573917 69.2692056,63.1029972 C61.0598195,63.5707679 52.4493895,60.8133183 44.7895136,58.1892541 C40.9300056,56.8676945 37.1290216,55.350667 33.4376933,53.6135844 C31.0492954,52.4899514 28.3842943,51.2778046 26.4437596,49.4442174 C26.1800933,49.1946578 25.7772013,49.2247771 25.4747243,49.3772174 C17.9238879,53.1820798 9.57157989,54.9597312 1.12686545,54.8441716 C1.27533176,55.0617679 1.42256599,55.2812083 1.57164834,55.4988046 C6.46795636,51.5765385 10.6453425,46.6634101 14.2652098,41.5707954 C14.6465403,41.0335661 13.4766751,40.7999881 13.1969917,41.1933826 C9.62948791,46.2116211 5.52048257,51.097089 0.693171337,54.9634193 C0.26194139,55.3070248 0.760936043,55.6119055 1.13549005,55.6162083 C9.8956184,55.7379147 18.5245296,53.8576119 26.3519692,49.9119881 C26.0297788,49.889245 25.7069724,49.8683459 25.384166,49.8456028 C28.0109724,52.3282908 31.7041489,53.813355 34.9593189,55.2627679 C40.5147927,57.7374651 46.3037467,59.724722 52.1672419,61.330878 C57.3610986,62.753245 62.7348398,63.8627404 68.1369189,63.9026945 C73.3055179,63.9408046 78.1519264,61.899456 82.3280804,58.9668229 C92.1324013,52.0805752 97.0576633,38.8883367 91.5169745,27.846245 C88.413351,21.6613459 82.4833232,16.9535202 76.8040248,13.2506945 C70.5401018,9.16738257 63.5387756,6.16344679 56.4438109,3.85286881 C43.0473446,-0.508892661 25.8542066,-1.26925046 13.5647692,6.55130917 C1.15335529,14.4505477 0.429505027,33.7453183 13.2986387,41.6593092 C13.7169318,41.9174743 14.7919264,41.4902725 14.1635628,41.1036394" id="Fill-8" fill="#221F20" mask="url(#mask-4)"></path>
                </g>
                <polygon id="Fill-11" fill="#221F20" points="33.6339029 17.9429688 23.8751692 31.6232624 18.3350965 29.8824917 19.2265104 12.6825468 24.592243 14.1583908 23.3022494 23.8985927 28.7265061 15.7184459"></polygon>
                <path d="M36.6671743,29.6639119 L37.2739765,25.5523248 L35.0260364,29.0443156 L36.6671743,29.6639119 Z M41.2061775,37.2127835 L35.5176385,35.8647927 L35.7960898,33.1516 L33.3017326,32.2105266 L31.8213818,34.4707009 L26.4494888,31.8214349 L36.3098695,18.9273156 L42.5066439,20.9170312 L41.2061775,37.2127835 Z" id="Fill-13" fill="#221F20"></path>
                <path d="M53.0512633,35.6438156 L50.7552719,40.3159899 L41.2743735,37.5628431 C42.2803713,35.0402009 43.2851371,32.534155 44.291135,30.0453202 C45.2965168,27.5564853 46.3203799,25.0572009 47.3633403,22.5480817 L53.0500312,24.6939257 C52.2787457,26.2232468 51.5154687,27.7550266 50.7602002,29.2868064 C50.0049318,30.8179716 49.287858,32.3786413 48.6102109,33.9688156 C48.9478024,34.1132651 49.2841617,34.2484945 49.619289,34.3751183 C49.9550323,34.5017422 50.2932398,34.6295954 50.6363756,34.7592927 C51.0441959,34.9129624 51.4470879,35.0604853 51.8432034,35.2018615 C52.240551,35.3432376 52.6422109,35.4901459 53.0512633,35.6438156" id="Fill-15" fill="#221F20"></path>
                <path d="M67.5270982,30.229355 C67.2240051,30.8962817 66.9276886,31.5582908 66.6375324,32.2141532 C66.3473763,32.8694009 66.0442832,33.5283367 65.7257891,34.1897312 L60.9982768,32.6806945 L60.368065,34.013933 L63.6275474,35.2432908 L62.1053057,38.5361257 L58.7823709,37.4075752 L58.0696094,38.9596394 L60.7820458,39.9824651 L62.7059474,40.7090156 C62.3591153,41.4921165 62.0128993,42.2703 61.6660672,43.041722 C61.3204672,43.8125294 60.9785634,44.5876394 60.640972,45.3670523 L51.1311196,42.0293459 L57.4430939,26.4263367 L67.5270982,30.229355 Z" id="Fill-17" fill="#221F20"></path>
                <path d="M79.6150896,38.9051174 C79.4105634,39.4429615 79.159834,40.0262917 78.8635174,40.6538789 C78.5678169,41.2826954 78.2308415,41.9213468 77.8513591,42.5673743 C77.4731089,43.2152459 77.056664,43.8582 76.6014083,44.4980807 C76.1473848,45.1367321 75.6576308,45.7305119 75.1321463,46.2818789 C74.6066618,46.8314018 74.0528394,47.3219156 73.4682148,47.7546495 C72.8823581,48.1873835 72.2712436,48.5254569 71.6330233,48.7719431 C70.994187,49.0172 70.333173,49.1499706 69.6493656,49.1708697 C68.9667902,49.1911541 68.2645014,49.0657596 67.5424993,48.7934569 C66.6966725,48.4744385 66.0140971,48.0613743 65.494157,47.5530349 C64.9742169,47.0453101 64.5793335,46.4761174 64.3095067,45.8473009 C64.03968,45.2178697 63.8795089,44.5411083 63.8271452,43.8194752 C63.7760137,43.0966128 63.8006554,42.3620716 63.9004543,41.614622 C64.0008693,40.8665578 64.155496,40.1221817 64.3655666,39.3821083 C64.5744051,38.6420349 64.8048051,37.9413009 65.0555345,37.2786771 C65.4411773,36.2601541 65.8773356,35.2637596 66.3646255,34.2870349 C66.8500672,33.3109248 67.38048,32.353255 67.9527837,31.413411 L72.9975581,33.5402 C72.3673463,34.6085119 71.7636244,35.6921908 71.1845442,36.7918514 C70.6048479,37.8908972 70.0953805,39.0219064 69.6542939,40.1867229 C69.6074747,40.3102734 69.5434062,40.4959064 69.4627046,40.743622 C69.3801549,40.9913376 69.2969891,41.2728606 69.2113591,41.5838881 C69.1263452,41.8973743 69.0518041,42.2225394 68.9858875,42.5593835 C68.921819,42.8974569 68.8860886,43.2146312 68.8817763,43.5121358 C68.8768479,43.8096404 68.9101142,44.0671908 68.9821912,44.2854018 C69.0536522,44.5036128 69.180557,44.6480624 69.3622896,44.7162917 C69.5742083,44.7962 69.8015281,44.7673101 70.0454811,44.629622 C70.2882019,44.4931633 70.5376993,44.2817138 70.7921249,43.9952734 C71.0465506,43.708833 71.3040565,43.3652275 71.5640265,42.9644569 C71.8246126,42.5630716 72.0765741,42.1401725 72.3217591,41.6920716 C72.5669442,41.243356 72.7985763,40.7897229 73.0172714,40.3324018 C73.2365827,39.8750807 73.4361805,39.4472642 73.6166811,39.0489523 C73.7959495,38.6524844 73.9493442,38.2984294 74.0750169,37.9874018 C74.2000736,37.6776037 74.291864,37.4458697 74.350388,37.2934294 C74.565387,36.7254661 74.7705292,36.1568881 74.9664308,35.5864661 C75.1617164,35.0154294 75.3465292,34.4431633 75.5227174,33.8696679 L80.6408009,35.7997596 C80.3475645,36.8367229 80.0056607,37.8718422 79.6150896,38.9051174" id="Fill-19" fill="#221F20"></path>
                <path d="M81.0505309,51.7437312 C80.9291705,52.0639789 80.7542143,52.339355 80.5244304,52.5680156 C80.2958785,52.7979055 80.0383726,52.9773917 79.7525288,53.1064743 C79.4654528,53.2355569 79.1611277,53.3074743 78.8395534,53.3228413 C78.516747,53.3388229 78.1982528,53.2871899 77.8846871,53.1685569 C77.5643448,53.0480798 77.2877416,52.875355 77.0567256,52.6509972 C76.8250935,52.4260248 76.645209,52.1715477 76.515224,51.8844927 C76.386471,51.5998963 76.314394,51.2956303 76.2983769,50.9735385 C76.2829758,50.6526761 76.3353395,50.3311991 76.4566999,50.0109514 C76.5749801,49.6986945 76.7480881,49.4227037 76.976024,49.1848229 C77.2039598,48.9457128 77.4614657,48.7631532 77.7473095,48.6328413 C78.0337694,48.5037587 78.3387106,48.4306119 78.6627491,48.4115569 C78.9867876,48.3918872 79.308978,48.4429055 79.6299363,48.5639972 C79.942886,48.6820156 80.2151769,48.855355 80.4461929,49.0840156 C80.6759769,49.3126761 80.8552453,49.5683826 80.9852304,49.8548229 C81.1139833,50.1406486 81.1872924,50.4486028 81.2026935,50.7793 C81.2187106,51.1093826 81.1681951,51.4308596 81.0505309,51.7437312 L81.0505309,51.7437312 Z M87.3945395,37.1752266 L82.1483191,48.3162817 L78.1021502,46.7894193 L82.0368154,35.1541624 L87.3945395,37.1752266 Z" id="Fill-21" fill="#221F20"></path>
            </g>
            <g id="iPhone-4-MMF">
                <g id="Top-Bar">
                    <g id="background-#F8F8F8">
                        <use fill="black" fill-opacity="1" filter="url(#filter-6)" xlink:href="#path-5"></use>
                        <use fill-opacity="0.86" fill="#F8F8F8" fill-rule="evenodd" xlink:href="#path-5"></use>
                    </g>
                    <g id="Search" transform="translate(9.500000, 24.500000)">
                        <rect id="background" fill-opacity="0.62" fill="#E6E7E8" x="0" y="0" width="301" height="29" rx="5.5"></rect>
                        <path d="M285.9955,8.49100152 C282.407569,8.49343248 279.5,11.4029999 279.5,14.991 C279.5,18.581 282.41,21.491 286,21.491 C289.4145,21.491 292.214,18.8425 292.4795,15.496 C292.1035,15.496 291.4965,15.489 290.9725,15.4895 C290.708,18.0015 288.5825,19.9915 286,19.9915 C283.2385,19.9915 281,17.7525 281,14.991 C281,12.2314999 283.236069,9.99343278 285.9955,9.99100198 L285.9955,12.5035 L291.1945,9.5015 L285.9955,6.5 L285.9955,8.49100141 Z" id="refresh" fill="#000000"></path>
                        <text id="www.meumodelofavorit" font-family="HelveticaNeue, Helvetica Neue" font-size="17" font-weight="normal" letter-spacing="0.100000016" fill="#000000">
                            <tspan x="18.3094998" y="19">www.meumodelofavorito.com.br</tspan>
                        </text>
                    </g>
                    <g id="Status-Bar" transform="translate(6.000000, 0.500000)">
                        <g id="Battery" transform="translate(242.000000, 3.000000)">
                            <g id="Icon" transform="translate(42.000000, 2.000000)">
                                <path d="M23.5,6.5 C24.052,6.5 24.4995,5.97733333 24.4995,5.33333333 L24.4995,4.16666667 C24.4995,3.52266667 24.052,3 23.5,3 L23,3 L23,6.5 L23.5,6.5 Z" id="Shape" fill="#000000"></path>
                                <use id="Shape" stroke="#000000" mask="url(#mask-8)" xlink:href="#path-7"></use>
                                <rect id="Rectangle-15" fill="#000000" x="1" y="1" width="20.5" height="7.5" rx="0.5"></rect>
                            </g>
                            <text id="100%" font-family="HelveticaNeue, Helvetica Neue" font-size="12" font-weight="normal" letter-spacing="-1.04347825" fill="#000000">
                                <tspan x="7.52747825" y="11">1</tspan>
                                <tspan x="13.156" y="11">00%</tspan>
                            </text>
                        </g>
                        <g id="Bluetooth" transform="translate(236.000000, 3.000000)" fill="#000000" opacity="0.45">
                            <path d="M5.662,7.252 L8.485,4.489 L4.273,0.5 L4.173,0.5 L4.173,6.048 L1.314,3.1225 L0.5,3.9525 L3.9395,7.252 L0.5,10.5515 L1.314,11.381 L4.173,8.455 L4.173,14.003 L4.355,14.003 L8.5255,10.0035 L5.662,7.252 L5.662,7.252 Z M7.1075,4.489 L5.205,6.3565 L5.205,2.8175 L7.1075,4.489 L7.1075,4.489 Z M5.205,11.771 L5.205,8.0815 L7.024,10.015 L5.205,11.771 L5.205,11.771 Z" id="Icon"></path>
                        </g>
                        <g id="Time" transform="translate(138.000000, 0.000000)" fill="#000000" font-weight="400">
                            <text id="10" font-family="HelveticaNeue-Medium, Helvetica Neue" font-size="12" letter-spacing="-1.5">
                                <tspan x="0.5" y="14">1</tspan>
                                <tspan x="5.672" y="14">0</tspan>
                            </text>
                            <text id="10" font-family="HelveticaNeue-Medium, Helvetica Neue" font-size="12" letter-spacing="-1.5">
                                <tspan x="16.5" y="14">1</tspan>
                                <tspan x="21.672" y="14">0</tspan>
                            </text>
                            <text id=":" font-family="AvenirNext-Medium, Avenir Next" font-size="11.6363636" letter-spacing="1">
                                <tspan x="12.75" y="12.5">:</tspan>
                            </text>
                        </g>
                        <g id="Carrier" transform="translate(0.000000, 2.500000)">
                            <path d="M81.7413432,8.50912484 C80.9856958,8.50912484 80.2935197,8.82760846 79.755703,9.28693094 L81.7413432,11.555 L83.7292368,9.28918436 C83.1910446,8.82873517 82.4984929,8.50912484 81.7413432,8.50912484 Z M81.8198374,4.02293758 C83.7025713,4.02293758 85.4189276,4.738399 86.7341748,5.9120562 L87.6471862,4.87097532 C86.088945,3.47573165 84.0537296,2.5 81.8194618,2.5 C79.5889498,2.5 77.5563633,3.47310265 76,4.86459063 L76.9115091,5.90642265 C78.2263808,4.73577001 79.9397325,4.02293758 81.8198374,4.02293758 Z M81.7935475,7.0275 C82.9221363,7.0275 83.9530767,7.45076773 84.7481591,8.14632393 L85.714877,7.04477623 C84.6632802,6.11336188 83.294702,5.50456242 81.7939231,5.50456242 C80.2957731,5.50456242 78.9290728,6.11148403 77.8778515,7.04026939 L78.8430672,8.14331937 C79.6373984,7.44888988 80.6668366,7.0275 81.7935475,7.0275 Z" id="Wifi" fill="#000000"></path>
                            <text id="Claro" font-family="HelveticaNeue, Helvetica Neue" font-size="12" font-weight="normal" letter-spacing="1.13286722" fill="#000000">
                                <tspan x="38" y="11.5">Claro</tspan>
                            </text>
                            <g id="Signal" transform="translate(0.000000, 4.500000)">
                                <path d="M2.77439024,0 C4.30664634,0 5.54917683,1.23121429 5.54917683,2.75 C5.54917683,4.26878571 4.30704268,5.5 2.77439024,5.5 C1.24213415,5.5 0,4.26917857 0,2.75 C0,1.23121429 1.24253049,0 2.77439024,0 L2.77439024,0 Z" id="Shape" fill="#000000"></path>
                                <path d="M9.77439024,0 C11.3066463,0 12.5487805,1.23121429 12.5487805,2.75 C12.5487805,4.26878571 11.3066463,5.5 9.77439024,5.5 C8.24213415,5.5 7,4.26917857 7,2.75 C7,1.23121429 8.24213415,0 9.77439024,0 L9.77439024,0 Z" id="Shape" fill="#000000"></path>
                                <path d="M16.7496028,0 C18.2818589,0 19.5239931,1.23121429 19.5239931,2.75 C19.5239931,4.26878571 18.2818589,5.5 16.7496028,5.5 C15.2177431,5.5 13.9756089,4.26917857 13.9756089,2.75 C13.9752126,1.23121429 15.2173467,0 16.7496028,0 L16.7496028,0 Z" id="Shape" fill="#000000"></path>
                                <path d="M23.7743902,0 C25.3066463,0 26.5487805,1.23121429 26.5487805,2.75 C26.5487805,4.26878571 25.3070427,5.5 23.7743902,5.5 C22.2421341,5.5 21,4.26917857 21,2.75 C21,1.23121429 22.2421341,0 23.7743902,0 L23.7743902,0 Z" id="Shape" fill="#000000"></path>
                                <use id="Shape" stroke="#000000" mask="url(#mask-10)" xlink:href="#path-9"></use>
                            </g>
                        </g>
                    </g>
                </g>
                <g id="Navigation-Bar" transform="translate(0.000000, 436.000000)">
                    <g id="background-#F8F8F8">
                        <use fill="black" fill-opacity="1" filter="url(#filter-12)" xlink:href="#path-11"></use>
                        <use fill-opacity="0.86" fill="#F8F8F8" fill-rule="evenodd" xlink:href="#path-11"></use>
                    </g>
                    <g id="Icons" transform="translate(16.000000, 7.000000)">
                        <use id="tabs" stroke="#007AFF" mask="url(#mask-14)" stroke-width="2" xlink:href="#path-13"></use>
                        <path d="M215.656,3 C213.0275,3 210.833,4.1065 209.5,6.0635 C208.1675,4.1065 205.9725,3 203.344,3 C200.28,3 197,4.6395 197,7.08 L197,25.423 C197,25.616 197.105,25.793 197.274,25.8845 C197.4435,25.975 197.6495,25.966 197.808,25.86 C197.8485,25.833 201.8935,23.164 205.1555,23.164 C207.269,23.164 208.5225,24.2795 208.9895,26.5755 C208.9925,26.591 209.002,26.604 209.0065,26.619 C209.015,26.6475 209.0255,26.674 209.0385,26.7005 C209.0535,26.7305 209.07,26.7575 209.09,26.7835 C209.1065,26.8055 209.124,26.826 209.144,26.845 C209.168,26.8685 209.194,26.888 209.2225,26.906 C209.245,26.9205 209.267,26.935 209.2925,26.9455 C209.325,26.96 209.3585,26.968 209.394,26.976 C209.4125,26.98 209.4285,26.99 209.448,26.992 C209.465,26.9935 209.482,26.9945 209.4995,26.9945 L209.4995,26.9945 L209.5,26.9945 L209.5005,26.9945 L209.501,26.9945 C209.518,26.9945 209.535,26.993 209.5525,26.992 C209.5715,26.99 209.5875,26.9805 209.606,26.976 C209.641,26.968 209.675,26.9605 209.7075,26.9455 C209.7325,26.9345 209.7545,26.9205 209.7775,26.906 C209.806,26.888 209.832,26.8685 209.856,26.845 C209.876,26.826 209.893,26.8055 209.9095,26.7835 C209.9295,26.7575 209.946,26.7305 209.9605,26.7005 C209.9735,26.674 209.984,26.6475 209.9925,26.619 C209.997,26.604 210.0065,26.591 210.0095,26.5755 C210.4765,24.2795 211.7305,23.164 213.8435,23.164 C217.106,23.164 221.1505,25.8325 221.191,25.86 C221.35,25.9655 221.5555,25.975 221.725,25.8845 C221.894,25.793 221.999,25.616 221.999,25.423 L221.999,7.08 C222,4.6395 218.7205,3 215.656,3 L215.656,3 Z M205.156,22.1165 C202.472,22.1165 199.456,23.6655 198.042,24.4885 L198.042,7.08 C198.042,5.4935 200.5695,4.0485 203.3445,4.0485 C205.8545,4.0485 207.901,5.1985 208.9795,7.2095 L208.9795,23.886 C208.1195,22.72 206.8295,22.1165 205.156,22.1165 L205.156,22.1165 Z M220.9585,24.4885 C219.5445,23.6655 216.5285,22.1165 213.8445,22.1165 C212.171,22.1165 210.881,22.72 210.021,23.886 L210.021,7.21 C211.0995,5.199 213.1465,4.049 215.656,4.049 C218.431,4.049 220.958,5.494 220.958,7.0805 L220.958,24.4885 L220.9585,24.4885 Z" id="bookmarks" fill="#007AFF"></path>
                        <path d="M142.5,2.207 L139.3535,5.3535 L138.6465,4.6465 L143,0.293 L147.3535,4.6465 L146.6465,5.3535 L143.5,2.207 L143.5,17.5 L142.5,17.5 L142.5,2.207 Z M152.507,27 L133.5,27 L133.5,8 L140.5,8 L140.5,9 L134.5,9 L134.5,26 L151.507,26 L151.507,9 L145.5,9 L145.5,8 L152.507,8 L152.507,27 Z" id="share" fill="#007AFF"></path>
                        <path d="M71.0032056,15.2187499 L71,15.222 L72.113,16.35 L72.1160256,16.3469325 L79.8735,24.2115 L80.9825,23.087 L73.225298,15.2222716 L81.0155,7.324 L79.9025,6.196 L72.112509,14.0940577 L72.109,14.0905 L71,15.2155 L71.0032056,15.2187499 Z" id="forward" fill="#C4C4C4" transform="translate(76.007750, 15.203750) scale(-1, 1) translate(-76.007750, -15.203750) "></path>
                        <path d="M0.503205638,15.2187499 L0.5,15.222 L1.613,16.35 L1.61602556,16.3469325 L9.3735,24.2115 L10.4825,23.087 L2.72529804,15.2222716 L10.5155,7.324 L9.4025,6.196 L1.61250903,14.0940577 L1.609,14.0905 L0.5,15.2155 L0.503205638,15.2187499 Z" id="back" fill="#C4C4C4"></path>
                    </g>
                </g>
            </g>
        </g>
    </g>
</svg>